{
  "accessors": [
    {
      "bufferView": 2,
      "componentType": 5126,
      "count": 2337,
      "max": [
        0.9982385635375977,
        0.9982386827468872,
        2.116046905517578
      ],
      "min": [
        -0.9982385635375977,
        -1.0000001192092896,
        -2.7982707023620605
      ],
      "type": "VEC3"
    },
    {
      "bufferView": 2,
      "byteOffset": 28044,
      "componentType": 5126,
      "count": 2337,
      "max": [
        1.0,
        1.0,
        1.0
      ],
      "min": [
        -1.0,
        -1.0,
        -1.0
      ],
      "type": "VEC3"
    },
    {
      "bufferView": 1,
      "componentType": 5126,
      "count": 2337,
      "max": [
        1.0029958486557007,
        1.000000238418579
      ],
      "min": [
        -0.0028936280868947506,
        0.01000000536441803
      ],
      "type": "VEC2"
    },
    {
      "bufferView": 0,
      "componentType": 5125,
      "count": 6288,
      "type": "SCALAR"
    },
    {
      "bufferView": 2,
      "byteOffset": 56088,
      "componentType": 5126,
      "count": 374,
      "max": [
        0.585629403591156,
        1.0,
        0.21584650874137878
      ],
      "min": [
        -0.585629403591156,
        -1.0,
        -0.21584650874137878
      ],
      "type": "VEC3"
    },
    {
      "bufferView": 2,
      "byteOffset": 60576,
      "componentType": 5126,
      "count": 374,
      "max": [
        1.0,
        1.0,
        1.0
      ],
      "min": [
        -1.0,
        -1.0,
        -1.0
      ],
      "type": "VEC3"
    },
    {
      "bufferView": 1,
      "byteOffset": 18696,
      "componentType": 5126,
      "count": 374,
      "max": [
        1.0,
        0.9529197216033936
      ],
      "min": [
        0.0,
        0.01000000536441803
      ],
      "type": "VEC2"
    },
    {
      "bufferView": 0,
      "byteOffset": 25152,
      "componentType": 5125,
      "count": 948,
      "type": "SCALAR"
    },
    {
      "bufferView": 2,
      "byteOffset": 65064,
      "componentType": 5126,
      "count": 4940,
      "max": [
        1.4417272806167603,
        3.316676616668701,
        10.54886531829834
      ],
      "min": [
        -1.4417272806167603,
        -0.4139404296875,
        -6.454543113708496
      ],
      "type": "VEC3"
    },
    {
      "bufferView": 2,
      "byteOffset": 124344,
      "componentType": 5126,
      "count": 4940,
      "max": [
        1.0,
        1.0,
        1.0
      ],
      "min": [
        -1.0,
        -1.0,
        -1.0
      ],
      "type": "VEC3"
    },
    {
      "bufferView": 1,
      "byteOffset": 21688,
      "componentType": 5126,
      "count": 4940,
      "max": [
        1.0,
        1.0
      ],
      "min": [
        0.0,
        0.0
      ],
      "type": "VEC2"
    },
    {
      "bufferView": 0,
      "byteOffset": 28944,
      "componentType": 5125,
      "count": 9498,
      "type": "SCALAR"
    },
    {
      "bufferView": 2,
      "byteOffset": 183624,
      "componentType": 5126,
      "count": 3408,
      "max": [
        1.3518307209014893,
        3.1045937538146973,
        9.259696960449219
      ],
      "min": [
        -1.3518307209014893,
        -0.1284564733505249,
        -6.134493827819824
      ],
      "type": "VEC3"
    },
    {
      "bufferView": 2,
      "byteOffset": 224520,
      "componentType": 5126,
      "count": 3408,
      "max": [
        0.9994820356369019,
        0.97676682472229,
        0.9997730255126953
      ],
      "min": [
        -0.9994820356369019,
        -0.9767665266990662,
        -0.9997730255126953
      ],
      "type": "VEC3"
    },
    {
      "bufferView": 1,
      "byteOffset": 61208,
      "componentType": 5126,
      "count": 3408,
      "max": [
        0.6250001788139343,
        0.23809126019477844
      ],
      "min": [
        0.6249998807907104,
        0.008454980328679085
      ],
      "type": "VEC2"
    },
    {
      "bufferView": 0,
      "byteOffset": 66936,
      "componentType": 5125,
      "count": 8304,
      "type": "SCALAR"
    },
    {
      "bufferView": 2,
      "byteOffset": 265416,
      "componentType": 5126,
      "count": 4940,
      "max": [
        1.4417272806167603,
        3.316676616668701,
        10.54886531829834
      ],
      "min": [
        -1.4417272806167603,
        -0.4139404296875,
        -6.454543113708496
      ],
      "type": "VEC3"
    },
    {
      "bufferView": 2,
      "byteOffset": 324696,
      "componentType": 5126,
      "count": 4940,
      "max": [
        1.0,
        1.0,
        1.0
      ],
      "min": [
        -1.0,
        -1.0,
        -1.0
      ],
      "type": "VEC3"
    },
    {
      "bufferView": 1,
      "byteOffset": 88472,
      "componentType": 5126,
      "count": 4940,
      "max": [
        1.0,
        1.0
      ],
      "min": [
        0.0,
        0.0
      ],
      "type": "VEC2"
    },
    {
      "bufferView": 0,
      "byteOffset": 100152,
      "componentType": 5125,
      "count": 9498,
      "type": "SCALAR"
    },
    {
      "bufferView": 2,
      "byteOffset": 383976,
      "componentType": 5126,
      "count": 3408,
      "max": [
        1.3518307209014893,
        3.1045937538146973,
        9.259696960449219
      ],
      "min": [
        -1.3518307209014893,
        -0.1284564733505249,
        -6.134493827819824
      ],
      "type": "VEC3"
    },
    {
      "bufferView": 2,
      "byteOffset": 424872,
      "componentType": 5126,
      "count": 3408,
      "max": [
        0.9994820356369019,
        0.97676682472229,
        0.9997730255126953
      ],
      "min": [
        -0.9994820356369019,
        -0.9767665266990662,
        -0.9997730255126953
      ],
      "type": "VEC3"
    },
    {
      "bufferView": 1,
      "byteOffset": 127992,
      "componentType": 5126,
      "count": 3408,
      "max": [
        0.6250001788139343,
        0.23809126019477844
      ],
      "min": [
        0.6249998807907104,
        0.008454980328679085
      ],
      "type": "VEC2"
    },
    {
      "bufferView": 0,
      "byteOffset": 138144,
      "componentType": 5125,
      "count": 8304,
      "type": "SCALAR"
    },
    {
      "bufferView": 2,
      "byteOffset": 465768,
      "componentType": 5126,
      "count": 1109,
      "max": [
        2.1831138134002686,
        0.45115530490875244,
        0.19223341345787048
      ],
      "min": [
        -2.1831138134002686,
        -0.43718060851097107,
        -2.883452892303467
      ],
      "type": "VEC3"
    },
    {
      "bufferView": 2,
      "byteOffset": 479076,
      "componentType": 5126,
      "count": 1109,
      "max": [
        1.0,
        1.0,
        1.0
      ],
      "min": [
        -1.0,
        -1.0,
        -0.9917532205581665
      ],
      "type": "VEC3"
    },
    {
      "bufferView": 1,
      "byteOffset": 155256,
      "componentType": 5126,
      "count": 1109,
      "max": [
        0.8762869238853455,
        1.0
      ],
      "min": [
        0.12214289605617523,
        0.0
      ],
      "type": "VEC2"
    },
    {
      "bufferView": 0,
      "byteOffset": 171360,
      "componentType": 5125,
      "count": 2478,
      "type": "SCALAR"
    },
    {
      "bufferView": 2,
      "byteOffset": 492384,
      "componentType": 5126,
      "count": 298,
      "max": [
        0.20586632192134857,
        0.2677935063838959,
        1.5926697254180908
      ],
      "min": [
        -0.17647325992584229,
        -0.2677935063838959,
        -1.5176178216934204
      ],
      "type": "VEC3"
    },
    {
      "bufferView": 2,
      "byteOffset": 495960,
      "componentType": 5126,
      "count": 298,
      "max": [
        1.0,
        1.0,
        1.0
      ],
      "min": [
        -1.0,
        -1.0,
        -1.0
      ],
      "type": "VEC3"
    },
    {
      "bufferView": 1,
      "byteOffset": 164128,
      "componentType": 5126,
      "count": 298,
      "max": [
        1.0,
        1.0
      ],
      "min": [
        0.0,
        0.0
      ],
      "type": "VEC2"
    },
    {
      "bufferView": 0,
      "byteOffset": 181272,
      "componentType": 5125,
      "count": 594,
      "type": "SCALAR"
    },
    {
      "bufferView": 2,
      "byteOffset": 499536,
      "componentType": 5126,
      "count": 298,
      "max": [
        0.20586632192134857,
        0.2677935063838959,
        1.5926697254180908
      ],
      "min": [
        -0.17647325992584229,
        -0.2677935063838959,
        -1.5176178216934204
      ],
      "type": "VEC3"
    },
    {
      "bufferView": 2,
      "byteOffset": 503112,
      "componentType": 5126,
      "count": 298,
      "max": [
        1.0,
        1.0,
        1.0
      ],
      "min": [
        -1.0,
        -1.0,
        -1.0
      ],
      "type": "VEC3"
    },
    {
      "bufferView": 1,
      "byteOffset": 166512,
      "componentType": 5126,
      "count": 298,
      "max": [
        1.0,
        1.0
      ],
      "min": [
        0.0,
        0.0
      ],
      "type": "VEC2"
    },
    {
      "bufferView": 0,
      "byteOffset": 183648,
      "componentType": 5125,
      "count": 594,
      "type": "SCALAR"
    },
    {
      "bufferView": 2,
      "byteOffset": 506688,
      "componentType": 5126,
      "count": 1109,
      "max": [
        2.1831138134002686,
        0.45115530490875244,
        0.19223341345787048
      ],
      "min": [
        -2.1831138134002686,
        -0.43718060851097107,
        -2.883452892303467
      ],
      "type": "VEC3"
    },
    {
      "bufferView": 2,
      "byteOffset": 519996,
      "componentType": 5126,
      "count": 1109,
      "max": [
        1.0,
        1.0,
        1.0
      ],
      "min": [
        -1.0,
        -1.0,
        -0.9917532205581665
      ],
      "type": "VEC3"
    },
    {
      "bufferView": 1,
      "byteOffset": 168896,
      "componentType": 5126,
      "count": 1109,
      "max": [
        0.8762869238853455,
        1.0
      ],
      "min": [
        0.12214289605617523,
        0.0
      ],
      "type": "VEC2"
    },
    {
      "bufferView": 0,
      "byteOffset": 186024,
      "componentType": 5125,
      "count": 2478,
      "type": "SCALAR"
    },
    {
      "bufferView": 2,
      "byteOffset": 533304,
      "componentType": 5126,
      "count": 4940,
      "max": [
        1.4417272806167603,
        3.316676616668701,
        10.54886531829834
      ],
      "min": [
        -1.4417272806167603,
        -0.4139404296875,
        -6.454543113708496
      ],
      "type": "VEC3"
    },
    {
      "bufferView": 2,
      "byteOffset": 592584,
      "componentType": 5126,
      "count": 4940,
      "max": [
        1.0,
        1.0,
        1.0
      ],
      "min": [
        -1.0,
        -1.0,
        -1.0
      ],
      "type": "VEC3"
    },
    {
      "bufferView": 1,
      "byteOffset": 177768,
      "componentType": 5126,
      "count": 4940,
      "max": [
        1.0,
        1.0
      ],
      "min": [
        0.0,
        0.0
      ],
      "type": "VEC2"
    },
    {
      "bufferView": 0,
      "byteOffset": 195936,
      "componentType": 5125,
      "count": 9498,
      "type": "SCALAR"
    },
    {
      "bufferView": 2,
      "byteOffset": 651864,
      "componentType": 5126,
      "count": 3408,
      "max": [
        1.3518307209014893,
        3.1045937538146973,
        9.259696960449219
      ],
      "min": [
        -1.3518307209014893,
        -0.1284564733505249,
        -6.134493827819824
      ],
      "type": "VEC3"
    },
    {
      "bufferView": 2,
      "byteOffset": 692760,
      "componentType": 5126,
      "count": 3408,
      "max": [
        0.9994820356369019,
        0.97676682472229,
        0.9997730255126953
      ],
      "min": [
        -0.9994820356369019,
        -0.9767665266990662,
        -0.9997730255126953
      ],
      "type": "VEC3"
    },
    {
      "bufferView": 1,
      "byteOffset": 217288,
      "componentType": 5126,
      "count": 3408,
      "max": [
        0.6250001788139343,
        0.23809126019477844
      ],
      "min": [
        0.6249998807907104,
        0.008454980328679085
      ],
      "type": "VEC2"
    },
    {
      "bufferView": 0,
      "byteOffset": 233928,
      "componentType": 5125,
      "count": 8304,
      "type": "SCALAR"
    },
    {
      "bufferView": 2,
      "byteOffset": 733656,
      "componentType": 5126,
      "count": 4940,
      "max": [
        1.4417272806167603,
        3.316676616668701,
        10.54886531829834
      ],
      "min": [
        -1.4417272806167603,
        -0.4139404296875,
        -6.454543113708496
      ],
      "type": "VEC3"
    },
    {
      "bufferView": 2,
      "byteOffset": 792936,
      "componentType": 5126,
      "count": 4940,
      "max": [
        1.0,
        1.0,
        1.0
      ],
      "min": [
        -1.0,
        -1.0,
        -1.0
      ],
      "type": "VEC3"
    },
    {
      "bufferView": 1,
      "byteOffset": 244552,
      "componentType": 5126,
      "count": 4940,
      "max": [
        1.0,
        1.0
      ],
      "min": [
        0.0,
        0.0
      ],
      "type": "VEC2"
    },
    {
      "bufferView": 0,
      "byteOffset": 267144,
      "componentType": 5125,
      "count": 9498,
      "type": "SCALAR"
    },
    {
      "bufferView": 2,
      "byteOffset": 852216,
      "componentType": 5126,
      "count": 3408,
      "max": [
        1.3518307209014893,
        3.1045937538146973,
        9.259696960449219
      ],
      "min": [
        -1.3518307209014893,
        -0.1284564733505249,
        -6.134493827819824
      ],
      "type": "VEC3"
    },
    {
      "bufferView": 2,
      "byteOffset": 893112,
      "componentType": 5126,
      "count": 3408,
      "max": [
        0.9994820356369019,
        0.97676682472229,
        0.9997730255126953
      ],
      "min": [
        -0.9994820356369019,
        -0.9767665266990662,
        -0.9997730255126953
      ],
      "type": "VEC3"
    },
    {
      "bufferView": 1,
      "byteOffset": 284072,
      "componentType": 5126,
      "count": 3408,
      "max": [
        0.6250001788139343,
        0.23809126019477844
      ],
      "min": [
        0.6249998807907104,
        0.008454980328679085
      ],
      "type": "VEC2"
    },
    {
      "bufferView": 0,
      "byteOffset": 305136,
      "componentType": 5125,
      "count": 8304,
      "type": "SCALAR"
    },
    {
      "bufferView": 2,
      "byteOffset": 934008,
      "componentType": 5126,
      "count": 3522,
      "max": [
        0.6115617752075195,
        0.02456718683242798,
        0.2696106731891632
      ],
      "min": [
        -0.6115615367889404,
        -1.2348040342330933,
        -0.027937792241573334
      ],
      "type": "VEC3"
    },
    {
      "bufferView": 2,
      "byteOffset": 976272,
      "componentType": 5126,
      "count": 3522,
      "max": [
        1.0,
        1.0,
        0.9992641806602478
      ],
      "min": [
        -1.0,
        -1.0,
        -0.9988361597061157
      ],
      "type": "VEC3"
    },
    {
      "bufferView": 1,
      "byteOffset": 311336,
      "componentType": 5126,
      "count": 3522,
      "max": [
        1.0,
        1.0
      ],
      "min": [
        0.0,
        0.0
      ],
      "type": "VEC2"
    },
    {
      "bufferView": 0,
      "byteOffset": 338352,
      "componentType": 5125,
      "count": 5316,
      "type": "SCALAR"
    },
    {
      "bufferView": 2,
      "byteOffset": 1018536,
      "componentType": 5126,
      "count": 76,
      "max": [
        0.5079027414321899,
        -0.115337073802948,
        0.25292152166366577
      ],
      "min": [
        -0.5079025030136108,
        -1.1311423778533936,
        0.09727124869823456
      ],
      "type": "VEC3"
    },
    {
      "bufferView": 2,
      "byteOffset": 1019448,
      "componentType": 5126,
      "count": 76,
      "max": [
        0.4805104732513428,
        0.4805106818675995,
        1.0
      ],
      "min": [
        -0.48051053285598755,
        -0.48050999641418457,
        -0.8541050553321838
      ],
      "type": "VEC3"
    },
    {
      "bufferView": 1,
      "byteOffset": 339512,
      "componentType": 5126,
      "count": 76,
      "max": [
        0.0,
        0.0
      ],
      "min": [
        0.0,
        0.0
      ],
      "type": "VEC2"
    },
    {
      "bufferView": 0,
      "byteOffset": 359616,
      "componentType": 5125,
      "count": 168,
      "type": "SCALAR"
    },
    {
      "bufferView": 2,
      "byteOffset": 1020360,
      "componentType": 5126,
      "count": 2482,
      "max": [
        0.3231421113014221,
        -0.689773678779602,
        0.23514610528945923
      ],
      "min": [
        -0.3231419324874878,
        -1.0892131328582764,
        -0.4149931073188782
      ],
      "type": "VEC3"
    },
    {
      "bufferView": 2,
      "byteOffset": 1050144,
      "componentType": 5126,
      "count": 2482,
      "max": [
        1.0,
        1.0,
        0.9861078858375549
      ],
      "min": [
        -1.0,
        -1.0,
        -0.9861078858375549
      ],
      "type": "VEC3"
    },
    {
      "bufferView": 1,
      "byteOffset": 340120,
      "componentType": 5126,
      "count": 2482,
      "max": [
        1.0,
        1.0
      ],
      "min": [
        0.0,
        0.0
      ],
      "type": "VEC2"
    },
    {
      "bufferView": 0,
      "byteOffset": 360288,
      "componentType": 5125,
      "count": 4062,
      "type": "SCALAR"
    },
    {
      "bufferView": 2,
      "byteOffset": 1079928,
      "componentType": 5126,
      "count": 96,
      "max": [
        0.23780806362628937,
        -0.7494519352912903,
        -0.051424622535705566
      ],
      "min": [
        -0.23780761659145355,
        -1.0437979698181152,
        -0.1263560652732849
      ],
      "type": "VEC3"
    },
    {
      "bufferView": 2,
      "byteOffset": 1081080,
      "componentType": 5126,
      "count": 96,
      "max": [
        9.992371730049854e-08,
        0.19659818708896637,
        0.9804842472076416
      ],
      "min": [
        -2.47807507847142e-09,
        -0.1965981125831604,
        -0.9804842472076416
      ],
      "type": "VEC3"
    },
    {
      "bufferView": 1,
      "byteOffset": 359976,
      "componentType": 5126,
      "count": 96,
      "max": [
        0.9759971499443054,
        0.47605761885643005
      ],
      "min": [
        0.524002730846405,
        0.023942358791828156
      ],
      "type": "VEC2"
    },
    {
      "bufferView": 0,
      "byteOffset": 376536,
      "componentType": 5125,
      "count": 270,
      "type": "SCALAR"
    },
    {
      "bufferView": 2,
      "byteOffset": 1082232,
      "componentType": 5126,
      "count": 16,
      "max": [
        0.16208231449127197,
        -0.6981281638145447,
        -0.03842855989933014
      ],
      "min": [
        -0.1620587557554245,
        -0.8365781307220459,
        -0.06749242544174194
      ],
      "type": "VEC3"
    },
    {
      "bufferView": 2,
      "byteOffset": 1082424,
      "componentType": 5126,
      "count": 16,
      "max": [
        0.0,
        0.21492154896259308,
        0.9776294231414795
      ],
      "min": [
        -0.013861963525414467,
        -0.21492107212543488,
        -0.9765329360961914
      ],
      "type": "VEC3"
    },
    {
      "bufferView": 1,
      "byteOffset": 360744,
      "componentType": 5126,
      "count": 16,
      "max": [
        0.5705331563949585,
        0.875
      ],
      "min": [
        0.375,
        0.2545044720172882
      ],
      "type": "VEC2"
    },
    {
      "bufferView": 0,
      "byteOffset": 377616,
      "componentType": 5125,
      "count": 24,
      "type": "SCALAR"
    },
    {
      "bufferView": 2,
      "byteOffset": 1082616,
      "componentType": 5126,
      "count": 2468,
      "max": [
        0.4444460868835449,
        0.4444461464881897,
        1.9781415462493896
      ],
      "min": [
        -0.44444602727890015,
        -0.44444623589515686,
        -0.8991811275482178
      ],
      "type": "VEC3"
    },
    {
      "bufferView": 2,
      "byteOffset": 1112232,
      "componentType": 5126,
      "count": 2468,
      "max": [
        1.0,
        1.0,
        1.0
      ],
      "min": [
        -1.0,
        -1.0,
        -1.0
      ],
      "type": "VEC3"
    },
    {
      "bufferView": 1,
      "byteOffset": 360872,
      "componentType": 5126,
      "count": 2468,
      "max": [
        1.0000007152557373,
        1.0
      ],
      "min": [
        -7.044491212582216e-09,
        0.01000000536441803
      ],
      "type": "VEC2"
    },
    {
      "bufferView": 0,
      "byteOffset": 377712,
      "componentType": 5125,
      "count": 7794,
      "type": "SCALAR"
    },
    {
      "bufferView": 2,
      "byteOffset": 1141848,
      "componentType": 5126,
      "count": 32,
      "max": [
        0.06604711711406708,
        0.06604703515768051,
        -0.7152813076972961
      ],
      "min": [
        -0.0660470500588417,
        -0.06604720652103424,
        -0.7152814269065857
      ],
      "type": "VEC3"
    },
    {
      "bufferView": 2,
      "byteOffset": 1142232,
      "componentType": 5126,
      "count": 32,
      "max": [
        3.133640547048344e-08,
        4.787789862348291e-07,
        -1.0
      ],
      "min": [
        3.133640191776976e-08,
        4.787789293914102e-07,
        -1.0
      ],
      "type": "VEC3"
    },
    {
      "bufferView": 1,
      "byteOffset": 380616,
      "componentType": 5126,
      "count": 32,
      "max": [
        0.3219664990901947,
        0.32196637988090515
      ],
      "min": [
        0.1780334711074829,
        0.17803342640399933
      ],
      "type": "VEC2"
    },
    {
      "bufferView": 0,
      "byteOffset": 408888,
      "componentType": 5125,
      "count": 90,
      "type": "SCALAR"
    },
    {
      "bufferView": 2,
      "byteOffset": 1142616,
      "componentType": 5126,
      "count": 587,
      "max": [
        0.03770168870687485,
        0.037701960653066635,
        0.36179542541503906
      ],
      "min": [
        -0.03770162910223007,
        -0.037701357156038284,
        -0.06823700666427612
      ],
      "type": "VEC3"
    },
    {
      "bufferView": 2,
      "byteOffset": 1149660,
      "componentType": 5126,
      "count": 587,
      "max": [
        1.0,
        1.0,
        1.0
      ],
      "min": [
        -1.0,
        -1.0,
        -1.0
      ],
      "type": "VEC3"
    },
    {
      "bufferView": 1,
      "byteOffset": 380872,
      "componentType": 5126,
      "count": 587,
      "max": [
        1.0,
        1.0
      ],
      "min": [
        0.0,
        0.01000000536441803
      ],
      "type": "VEC2"
    },
    {
      "bufferView": 0,
      "byteOffset": 409248,
      "componentType": 5125,
      "count": 1908,
      "type": "SCALAR"
    },
    {
      "bufferView": 2,
      "byteOffset": 1156704,
      "componentType": 5126,
      "count": 2468,
      "max": [
        0.4444460868835449,
        0.4444461464881897,
        1.9781415462493896
      ],
      "min": [
        -0.44444602727890015,
        -0.44444623589515686,
        -0.8991811275482178
      ],
      "type": "VEC3"
    },
    {
      "bufferView": 2,
      "byteOffset": 1186320,
      "componentType": 5126,
      "count": 2468,
      "max": [
        1.0,
        1.0,
        1.0
      ],
      "min": [
        -1.0,
        -1.0,
        -1.0
      ],
      "type": "VEC3"
    },
    {
      "bufferView": 1,
      "byteOffset": 385568,
      "componentType": 5126,
      "count": 2468,
      "max": [
        1.0000007152557373,
        1.0
      ],
      "min": [
        -7.044491212582216e-09,
        0.01000000536441803
      ],
      "type": "VEC2"
    },
    {
      "bufferView": 0,
      "byteOffset": 416880,
      "componentType": 5125,
      "count": 7794,
      "type": "SCALAR"
    },
    {
      "bufferView": 2,
      "byteOffset": 1215936,
      "componentType": 5126,
      "count": 32,
      "max": [
        0.06604711711406708,
        0.06604703515768051,
        -0.7152813076972961
      ],
      "min": [
        -0.0660470500588417,
        -0.06604720652103424,
        -0.7152814269065857
      ],
      "type": "VEC3"
    },
    {
      "bufferView": 2,
      "byteOffset": 1216320,
      "componentType": 5126,
      "count": 32,
      "max": [
        3.133640547048344e-08,
        4.787789862348291e-07,
        -1.0
      ],
      "min": [
        3.133640191776976e-08,
        4.787789293914102e-07,
        -1.0
      ],
      "type": "VEC3"
    },
    {
      "bufferView": 1,
      "byteOffset": 405312,
      "componentType": 5126,
      "count": 32,
      "max": [
        0.3219664990901947,
        0.32196637988090515
      ],
      "min": [
        0.1780334711074829,
        0.17803342640399933
      ],
      "type": "VEC2"
    },
    {
      "bufferView": 0,
      "byteOffset": 448056,
      "componentType": 5125,
      "count": 90,
      "type": "SCALAR"
    },
    {
      "bufferView": 2,
      "byteOffset": 1216704,
      "componentType": 5126,
      "count": 587,
      "max": [
        0.03770168870687485,
        0.037701960653066635,
        0.36179542541503906
      ],
      "min": [
        -0.03770162910223007,
        -0.037701357156038284,
        -0.06823700666427612
      ],
      "type": "VEC3"
    },
    {
      "bufferView": 2,
      "byteOffset": 1223748,
      "componentType": 5126,
      "count": 587,
      "max": [
        1.0,
        1.0,
        1.0
      ],
      "min": [
        -1.0,
        -1.0,
        -1.0
      ],
      "type": "VEC3"
    },
    {
      "bufferView": 1,
      "byteOffset": 405568,
      "componentType": 5126,
      "count": 587,
      "max": [
        1.0,
        1.0
      ],
      "min": [
        0.0,
        0.01000000536441803
      ],
      "type": "VEC2"
    },
    {
      "bufferView": 0,
      "byteOffset": 448416,
      "componentType": 5125,
      "count": 1908,
      "type": "SCALAR"
    },
    {
      "bufferView": 2,
      "byteOffset": 1230792,
      "componentType": 5126,
      "count": 2468,
      "max": [
        0.4444460868835449,
        0.4444461464881897,
        1.9781415462493896
      ],
      "min": [
        -0.44444602727890015,
        -0.44444623589515686,
        -0.8991811275482178
      ],
      "type": "VEC3"
    },
    {
      "bufferView": 2,
      "byteOffset": 1260408,
      "componentType": 5126,
      "count": 2468,
      "max": [
        1.0,
        1.0,
        1.0
      ],
      "min": [
        -1.0,
        -1.0,
        -1.0
      ],
      "type": "VEC3"
    },
    {
      "bufferView": 1,
      "byteOffset": 410264,
      "componentType": 5126,
      "count": 2468,
      "max": [
        1.0000007152557373,
        1.0
      ],
      "min": [
        -7.044491212582216e-09,
        0.01000000536441803
      ],
      "type": "VEC2"
    },
    {
      "bufferView": 0,
      "byteOffset": 456048,
      "componentType": 5125,
      "count": 7794,
      "type": "SCALAR"
    },
    {
      "bufferView": 2,
      "byteOffset": 1290024,
      "componentType": 5126,
      "count": 32,
      "max": [
        0.06604710966348648,
        0.06604702770709991,
        -0.7152813076972961
      ],
      "min": [
        -0.06604704260826111,
        -0.06604719907045364,
        -0.7152814269065857
      ],
      "type": "VEC3"
    },
    {
      "bufferView": 2,
      "byteOffset": 1290408,
      "componentType": 5126,
      "count": 32,
      "max": [
        3.133644099762023e-08,
        4.1038205722543353e-07,
        -1.0
      ],
      "min": [
        3.133643744490655e-08,
        4.1038197196030524e-07,
        -1.0
      ],
      "type": "VEC3"
    },
    {
      "bufferView": 1,
      "byteOffset": 430008,
      "componentType": 5126,
      "count": 32,
      "max": [
        0.3219664990901947,
        0.32196637988090515
      ],
      "min": [
        0.1780334711074829,
        0.17803342640399933
      ],
      "type": "VEC2"
    },
    {
      "bufferView": 0,
      "byteOffset": 487224,
      "componentType": 5125,
      "count": 90,
      "type": "SCALAR"
    },
    {
      "bufferView": 2,
      "byteOffset": 1290792,
      "componentType": 5126,
      "count": 2468,
      "max": [
        0.4444460868835449,
        0.4444461464881897,
        1.9781415462493896
      ],
      "min": [
        -0.44444602727890015,
        -0.44444623589515686,
        -0.8991811275482178
      ],
      "type": "VEC3"
    },
    {
      "bufferView": 2,
      "byteOffset": 1320408,
      "componentType": 5126,
      "count": 2468,
      "max": [
        1.0,
        1.0,
        1.0
      ],
      "min": [
        -1.0,
        -1.0,
        -1.0
      ],
      "type": "VEC3"
    },
    {
      "bufferView": 1,
      "byteOffset": 430264,
      "componentType": 5126,
      "count": 2468,
      "max": [
        1.0000007152557373,
        1.0
      ],
      "min": [
        -7.044491212582216e-09,
        0.01000000536441803
      ],
      "type": "VEC2"
    },
    {
      "bufferView": 0,
      "byteOffset": 487584,
      "componentType": 5125,
      "count": 7794,
      "type": "SCALAR"
    },
    {
      "bufferView": 2,
      "byteOffset": 1350024,
      "componentType": 5126,
      "count": 32,
      "max": [
        0.06604710221290588,
        0.06604702025651932,
        -0.7152813076972961
      ],
      "min": [
        -0.06604703515768051,
        -0.06604718416929245,
        -0.7152814269065857
      ],
      "type": "VEC3"
    },
    {
      "bufferView": 2,
      "byteOffset": 1350408,
      "componentType": 5126,
      "count": 32,
      "max": [
        3.1336487182898054e-08,
        6.15573299000971e-07,
        -1.0
      ],
      "min": [
        3.1336480077470696e-08,
        6.155731853141333e-07,
        -1.0
      ],
      "type": "VEC3"
    },
    {
      "bufferView": 1,
      "byteOffset": 450008,
      "componentType": 5126,
      "count": 32,
      "max": [
        0.3219664990901947,
        0.32196637988090515
      ],
      "min": [
        0.1780334711074829,
        0.17803342640399933
      ],
      "type": "VEC2"
    },
    {
      "bufferView": 0,
      "byteOffset": 518760,
      "componentType": 5125,
      "count": 90,
      "type": "SCALAR"
    },
    {
      "bufferView": 2,
      "byteOffset": 1350792,
      "componentType": 5126,
      "count": 217,
      "max": [
        0.35661599040031433,
        0.8559309840202332,
        0.6226850152015686
      ],
      "min": [
        -0.35661599040031433,
        -0.8245639801025391,
        -0.9792910218238831
      ],
      "type": "VEC3"
    },
    {
      "bufferView": 2,
      "byteOffset": 1353396,
      "componentType": 5126,
      "count": 217,
      "max": [
        1.0,
        1.0,
        1.0
      ],
      "min": [
        -1.0,
        -1.0,
        -1.0
      ],
      "type": "VEC3"
    },
    {
      "bufferView": 1,
      "byteOffset": 450264,
      "componentType": 5126,
      "count": 217,
      "max": [
        0.875,
        1.0
      ],
      "min": [
        0.125,
        0.0
      ],
      "type": "VEC2"
    },
    {
      "bufferView": 0,
      "byteOffset": 519120,
      "componentType": 5125,
      "count": 396,
      "type": "SCALAR"
    },
    {
      "bufferView": 2,
      "byteOffset": 1356000,
      "componentType": 5126,
      "count": 559,
      "max": [
        0.8640862107276917,
        0.6439087390899658,
        1.5905191898345947
      ],
      "min": [
        -0.8640856146812439,
        -0.6439093351364136,
        -2.1802191734313965
      ],
      "type": "VEC3"
    },
    {
      "bufferView": 2,
      "byteOffset": 1362708,
      "componentType": 5126,
      "count": 559,
      "max": [
        1.0,
        1.0,
        1.0
      ],
      "min": [
        -1.0,
        -1.0,
        -1.0
      ],
      "type": "VEC3"
    },
    {
      "bufferView": 1,
      "byteOffset": 452000,
      "componentType": 5126,
      "count": 559,
      "max": [
        1.0000001192092896,
        1.0
      ],
      "min": [
        0.0,
        0.0
      ],
      "type": "VEC2"
    },
    {
      "bufferView": 0,
      "byteOffset": 520704,
      "componentType": 5125,
      "count": 2880,
      "type": "SCALAR"
    }
  ],
  "asset": {
    "extras": {
      "author": "nestor_d (https://sketchfab.com/nestor_d)",
      "license": "CC-BY-4.0 (http://creativecommons.org/licenses/by/4.0/)",
      "source": "https://sketchfab.com/3d-models/tie-lightning-0b724af06c6044b8aab87365260f4064",
      "title": "TIE Lightning"
    },
    "generator": "Sketchfab-0.10.0",
    "version": "2.0"
  },
  "bufferViews": [
    {
      "buffer": 0,
      "byteLength": 532224,
      "name": "floatBufferViews",
      "target": 34963
    },
    {
      "buffer": 0,
      "byteLength": 456472,
      "byteOffset": 532224,
      "byteStride": 8,
      "name": "floatBufferViews",
      "target": 34962
    },
    {
      "buffer": 0,
      "byteLength": 1369416,
      "byteOffset": 988696,
      "byteStride": 12,
      "name": "floatBufferViews",
      "target": 34962
    }
  ],
  "buffers": [
    {
      "byteLength": 2358112,
      "uri": "scene.bin"
    }
  ],
  "extensionsUsed": [
    "KHR_materials_emissive_strength"
  ],
  "materials": [
    {
      "doubleSided": true,
      "name": "Material",
      "pbrMetallicRoughness": {
        "baseColorFactor": [
          0.5978448804492565,
          0.5978448804492565,
          0.5978448804492565,
          1.0
        ],
        "roughnessFactor": 0.8093340069986339
      }
    },
    {
      "doubleSided": true,
      "name": "Material.001",
      "pbrMetallicRoughness": {
        "baseColorFactor": [
          0.0195438,
          0.0195438,
          0.0195438,
          1.0
        ],
        "metallicFactor": 0.0,
        "roughnessFactor": 0.17933219808254894
      }
    },
    {
      "doubleSided": true,
      "name": "Material.004",
      "pbrMetallicRoughness": {
        "baseColorFactor": [
          0.141259,
          0.141259,
          0.141259,
          1.0
        ],
        "metallicFactor": 0.0,
        "roughnessFactor": 0.5
      }
    },
    {
      "alphaMode": "BLEND",
      "doubleSided": true,
      "name": "Material.002",
      "pbrMetallicRoughness": {
        "baseColorFactor": [
          0.0,
          0.0,
          0.0,
          0.5764679398648114
        ],
        "roughnessFactor": 0.125455
      }
    },
    {
      "doubleSided": true,
      "name": "Material.005",
      "pbrMetallicRoughness": {
        "baseColorFactor": [
          0.0514104,
          0.0514104,
          0.0514104,
          1.0
        ],
        "metallicFactor": 0.0,
        "roughnessFactor": 0.5
      }
    },
    {
      "doubleSided": true,
      "emissiveFactor": [
        0.206055,
        0.290218,
        1.0
      ],
      "name": "Material.006",
      "pbrMetallicRoughness": {
        "baseColorFactor": [
          0.260608,
          0.304745,
          1.0,
          1.0
        ],
        "metallicFactor": 0.0,
        "roughnessFactor": 0.5
      }
    },
    {
      "doubleSided": true,
      "emissiveFactor": [
        1.0,
        0.0131024,
        0.0
      ],
      "name": "Material.007",
      "pbrMetallicRoughness": {
        "baseColorFactor": [
          1.0,
          0.0380884,
          0.0,
          1.0
        ],
        "metallicFactor": 0.0,
        "roughnessFactor": 0.5
      }
    },
    {
      "doubleSided": true,
      "emissiveFactor": [
        1.0,
        0.12078799999999988,
        0.07599809999999993
      ],
      "extensions": {
        "KHR_materials_emissive_strength": {
          "emissiveStrength": 10.0
        }
      },
      "name": "Material.003",
      "pbrMetallicRoughness": {
        "baseColorFactor": [
          0.7999999999999999,
          0.007116730000000004,
          0.0,
          1.0
        ],
        "metallicFactor": 0.0,
        "roughnessFactor": 0.5
      }
    },
    {
      "doubleSided": true,
      "name": "Material.015",
      "pbrMetallicRoughness": {
        "baseColorFactor": [
          0.011134,
          0.011134,
          0.011134,
          1.0
        ],
        "metallicFactor": 0.0,
        "roughnessFactor": 0.299367
      }
    }
  ],
  "meshes": [
    {
      "name": "Object_0",
      "primitives": [
        {
          "attributes": {
            "NORMAL": 1,
            "POSITION": 0,
            "TEXCOORD_0": 2
          },
          "indices": 3,
          "material": 0,
          "mode": 4
        }
      ]
    },
    {
      "name": "Object_1",
      "primitives": [
        {
          "attributes": {
            "NORMAL": 5,
            "POSITION": 4,
            "TEXCOORD_0": 6
          },
          "indices": 7,
          "material": 0,
          "mode": 4
        }
      ]
    },
    {
      "name": "Object_2",
      "primitives": [
        {
          "attributes": {
            "NORMAL": 9,
            "POSITION": 8,
            "TEXCOORD_0": 10
          },
          "indices": 11,
          "material": 0,
          "mode": 4
        }
      ]
    },
    {
      "name": "Object_3",
      "primitives": [
        {
          "attributes": {
            "NORMAL": 13,
            "POSITION": 12,
            "TEXCOORD_0": 14
          },
          "indices": 15,
          "material": 1,
          "mode": 4
        }
      ]
    },
    {
      "name": "Object_4",
      "primitives": [
        {
          "attributes": {
            "NORMAL": 17,
            "POSITION": 16,
            "TEXCOORD_0": 18
          },
          "indices": 19,
          "material": 0,
          "mode": 4
        }
      ]
    },
    {
      "name": "Object_5",
      "primitives": [
        {
          "attributes": {
            "NORMAL": 21,
            "POSITION": 20,
            "TEXCOORD_0": 22
          },
          "indices": 23,
          "material": 1,
          "mode": 4
        }
      ]
    },
    {
      "name": "Object_6",
      "primitives": [
        {
          "attributes": {
            "NORMAL": 25,
            "POSITION": 24,
            "TEXCOORD_0": 26
          },
          "indices": 27,
          "material": 0,
          "mode": 4
        }
      ]
    },
    {
      "name": "Object_7",
      "primitives": [
        {
          "attributes": {
            "NORMAL": 29,
            "POSITION": 28,
            "TEXCOORD_0": 30
          },
          "indices": 31,
          "material": 2,
          "mode": 4
        }
      ]
    },
    {
      "name": "Object_8",
      "primitives": [
        {
          "attributes": {
            "NORMAL": 33,
            "POSITION": 32,
            "TEXCOORD_0": 34
          },
          "indices": 35,
          "material": 2,
          "mode": 4
        }
      ]
    },
    {
      "name": "Object_9",
      "primitives": [
        {
          "attributes": {
            "NORMAL": 37,
            "POSITION": 36,
            "TEXCOORD_0": 38
          },
          "indices": 39,
          "material": 0,
          "mode": 4
        }
      ]
    },
    {
      "name": "Object_10",
      "primitives": [
        {
          "attributes": {
            "NORMAL": 41,
            "POSITION": 40,
            "TEXCOORD_0": 42
          },
          "indices": 43,
          "material": 0,
          "mode": 4
        }
      ]
    },
    {
      "name": "Object_11",
      "primitives": [
        {
          "attributes": {
            "NORMAL": 45,
            "POSITION": 44,
            "TEXCOORD_0": 46
          },
          "indices": 47,
          "material": 1,
          "mode": 4
        }
      ]
    },
    {
      "name": "Object_12",
      "primitives": [
        {
          "attributes": {
            "NORMAL": 49,
            "POSITION": 48,
            "TEXCOORD_0": 50
          },
          "indices": 51,
          "material": 0,
          "mode": 4
        }
      ]
    },
    {
      "name": "Object_13",
      "primitives": [
        {
          "attributes": {
            "NORMAL": 53,
            "POSITION": 52,
            "TEXCOORD_0": 54
          },
          "indices": 55,
          "material": 1,
          "mode": 4
        }
      ]
    },
    {
      "name": "Object_14",
      "primitives": [
        {
          "attributes": {
            "NORMAL": 57,
            "POSITION": 56,
            "TEXCOORD_0": 58
          },
          "indices": 59,
          "material": 0,
          "mode": 4
        }
      ]
    },
    {
      "name": "Object_15",
      "primitives": [
        {
          "attributes": {
            "NORMAL": 61,
            "POSITION": 60,
            "TEXCOORD_0": 62
          },
          "indices": 63,
          "material": 3,
          "mode": 4
        }
      ]
    },
    {
      "name": "Object_16",
      "primitives": [
        {
          "attributes": {
            "NORMAL": 65,
            "POSITION": 64,
            "TEXCOORD_0": 66
          },
          "indices": 67,
          "material": 4,
          "mode": 4
        }
      ]
    },
    {
      "name": "Object_17",
      "primitives": [
        {
          "attributes": {
            "NORMAL": 69,
            "POSITION": 68,
            "TEXCOORD_0": 70
          },
          "indices": 71,
          "material": 5,
          "mode": 4
        }
      ]
    },
    {
      "name": "Object_18",
      "primitives": [
        {
          "attributes": {
            "NORMAL": 73,
            "POSITION": 72,
            "TEXCOORD_0": 74
          },
          "indices": 75,
          "material": 6,
          "mode": 4
        }
      ]
    },
    {
      "name": "Object_19",
      "primitives": [
        {
          "attributes": {
            "NORMAL": 77,
            "POSITION": 76,
            "TEXCOORD_0": 78
          },
          "indices": 79,
          "material": 0,
          "mode": 4
        }
      ]
    },
    {
      "name": "Object_20",
      "primitives": [
        {
          "attributes": {
            "NORMAL": 81,
            "POSITION": 80,
            "TEXCOORD_0": 82
          },
          "indices": 83,
          "material": 7,
          "mode": 4
        }
      ]
    },
    {
      "name": "Object_21",
      "primitives": [
        {
          "attributes": {
            "NORMAL": 85,
            "POSITION": 84,
            "TEXCOORD_0": 86
          },
          "indices": 87,
          "material": 2,
          "mode": 4
        }
      ]
    },
    {
      "name": "Object_22",
      "primitives": [
        {
          "attributes": {
            "NORMAL": 89,
            "POSITION": 88,
            "TEXCOORD_0": 90
          },
          "indices": 91,
          "material": 0,
          "mode": 4
        }
      ]
    },
    {
      "name": "Object_23",
      "primitives": [
        {
          "attributes": {
            "NORMAL": 93,
            "POSITION": 92,
            "TEXCOORD_0": 94
          },
          "indices": 95,
          "material": 7,
          "mode": 4
        }
      ]
    },
    {
      "name": "Object_24",
      "primitives": [
        {
          "attributes": {
            "NORMAL": 97,
            "POSITION": 96,
            "TEXCOORD_0": 98
          },
          "indices": 99,
          "material": 2,
          "mode": 4
        }
      ]
    },
    {
      "name": "Object_25",
      "primitives": [
        {
          "attributes": {
            "NORMAL": 101,
            "POSITION": 100,
            "TEXCOORD_0": 102
          },
          "indices": 103,
          "material": 0,
          "mode": 4
        }
      ]
    },
    {
      "name": "Object_26",
      "primitives": [
        {
          "attributes": {
            "NORMAL": 105,
            "POSITION": 104,
            "TEXCOORD_0": 106
          },
          "indices": 107,
          "material": 7,
          "mode": 4
        }
      ]
    },
    {
      "name": "Object_27",
      "primitives": [
        {
          "attributes": {
            "NORMAL": 109,
            "POSITION": 108,
            "TEXCOORD_0": 110
          },
          "indices": 111,
          "material": 0,
          "mode": 4
        }
      ]
    },
    {
      "name": "Object_28",
      "primitives": [
        {
          "attributes": {
            "NORMAL": 113,
            "POSITION": 112,
            "TEXCOORD_0": 114
          },
          "indices": 115,
          "material": 7,
          "mode": 4
        }
      ]
    },
    {
      "name": "Object_29",
      "primitives": [
        {
          "attributes": {
            "NORMAL": 117,
            "POSITION": 116,
            "TEXCOORD_0": 118
          },
          "indices": 119,
          "material": 8,
          "mode": 4
        }
      ]
    },
    {
      "name": "Object_30",
      "primitives": [
        {
          "attributes": {
            "NORMAL": 121,
            "POSITION": 120,
            "TEXCOORD_0": 122
          },
          "indices": 123,
          "material": 0,
          "mode": 4
        }
      ]
    }
  ],
  "nodes": [
    {
      "children": [
        1
      ],
      "matrix": [
        1.0,
        0.0,
        0.0,
        0.0,
        0.0,
        2.220446049250313e-16,
        -1.0,
        0.0,
        0.0,
        1.0,
        2.220446049250313e-16,
        0.0,
        0.0,
        0.0,
        0.0,
        1.0
      ],
      "name": "Sketchfab_model"
    },
    {
      "children": [
        2
      ],
      "name": "root"
    },
    {
      "children": [
        3
      ],
      "matrix": [
        1.0,
        0.0,
        0.0,
        0.0,
        0.0,
        2.220446049250313e-16,
        1.0,
        0.0,
        0.0,
        -1.0,
        2.220446049250313e-16,
        0.0,
        0.0,
        0.0,
        0.0,
        1.0
      ],
      "name": "GLTF_SceneRootNode"
    },
    {
      "children": [
        4,
        5,
        7,
        10,
        13,
        15,
        17,
        19,
        21,
        24,
        27,
        33,
        36,
        38,
        41,
        43,
        46,
        49,
        51
      ],
      "matrix": [
        1.2121186256408691,
        0.0,
        0.0,
        0.0,
        0.0,
        1.2121186256408691,
        0.0,
        0.0,
        0.0,
        0.0,
        1.0659210681915283,
        0.0,
        0.0,
        0.0653240829706192,
        0.11627501249313354,
        1.0
      ],
      "name": "Cylinder_18"
    },
    {
      "mesh": 0,
      "name": "Object_4"
    },
    {
      "children": [
        6
      ],
      "matrix": [
        0.4549814760684967,
        0.0,
        0.0,
        0.0,
        0.0,
        0.09428083896636963,
        0.0,
        0.0,
        0.0,
        0.0,
        1.300989031791687,
        0.0,
        0.0,
        -1.0272316932678223,
        0.8519103527069092,
        1.0
      ],
      "name": "Cube_0"
    },
    {
      "mesh": 1,
      "name": "Object_6"
    },
    {
      "children": [
        8,
        9
      ],
      "matrix": [
        1.3732787547567575e-07,
        0.8145797252654914,
        0.0,
        -0.0,
        0.8140484094619636,
        -1.3723830232741043e-07,
        0.0,
        -0.0,
        -0.0,
        -0.0,
        0.9257001280784607,
        -0.0,
        2.0527472496032715,
        2.078711986541748e-06,
        -0.6216989159584045,
        1.0
      ],
      "name": "Cube.001_1"
    },
    {
      "mesh": 2,
      "name": "Object_8"
    },
    {
      "mesh": 3,
      "name": "Object_9"
    },
    {
      "children": [
        11,
        12
      ],
      "matrix": [
        -0.8145797252655029,
        -0.0,
        0.0,
        -0.0,
        0.0,
        0.8140484094619751,
        0.0,
        -0.0,
        0.0,
        -0.0,
        0.9257001280784607,
        -0.0,
        -2.046913778031012e-06,
        2.0527474880218506,
        -0.6216989159584045,
        1.0
      ],
      "name": "Cube.002_2"
    },
    {
      "mesh": 4,
      "name": "Object_11"
    },
    {
      "mesh": 5,
      "name": "Object_12"
    },
    {
      "children": [
        14
      ],
      "matrix": [
        0.8140484094619751,
        0.0,
        0.0,
        0.0,
        0.0,
        0.8140484094619751,
        0.0,
        0.0,
        0.0,
        0.0,
        1.530686378479004,
        0.0,
        0.0,
        0.0,
        0.06909481436014175,
        1.0
      ],
      "name": "Cube.003_3"
    },
    {
      "mesh": 6,
      "name": "Object_14"
    },
    {
      "children": [
        16
      ],
      "matrix": [
        0.7562767267227173,
        0.0,
        0.0,
        0.0,
        0.0,
        0.7562767267227173,
        0.0,
        0.0,
        0.0,
        0.0,
        1.1199171543121338,
        0.0,
        1.9674742221832275,
        0.0,
        -2.407397747039795,
        1.0
      ],
      "name": "Cube.004_4"
    },
    {
      "mesh": 7,
      "name": "Object_16"
    },
    {
      "children": [
        18
      ],
      "matrix": [
        -0.7562767267227173,
        -0.0,
        0.0,
        -0.0,
        0.0,
        0.7562767267227173,
        0.0,
        -0.0,
        0.0,
        -0.0,
        1.1199171543121338,
        -0.0,
        -1.9674732685089111,
        0.0,
        -2.407397747039795,
        1.0
      ],
      "name": "Cube.005_5"
    },
    {
      "mesh": 8,
      "name": "Object_18"
    },
    {
      "children": [
        20
      ],
      "matrix": [
        1.3723830232741043e-07,
        0.8140484094619634,
        0.0,
        0.0,
        -0.8140484094619634,
        1.3723830232741043e-07,
        0.0,
        0.0,
        0.0,
        0.0,
        1.530686378479004,
        0.0,
        0.0,
        3.039836883544922e-06,
        0.06909481436014175,
        1.0
      ],
      "name": "Cube.006_6"
    },
    {
      "mesh": 9,
      "name": "Object_20"
    },
    {
      "children": [
        22,
        23
      ],
      "matrix": [
        4.119836262461542e-07,
        -0.8145797252653987,
        0.0,
        -0.0,
        -0.8140484094618708,
        -4.117149070726088e-07,
        0.0,
        -0.0,
        0.0,
        0.0,
        0.9257001280784602,
        -0.0,
        -2.0527472496032715,
        -2.0153820514678955e-06,
        -0.6216989159584045,
        1.0
      ],
      "name": "Cube.007_7"
    },
    {
      "mesh": 10,
      "name": "Object_22"
    },
    {
      "mesh": 11,
      "name": "Object_23"
    },
    {
      "children": [
        25,
        26
      ],
      "matrix": [
        0.8145797252655029,
        0.0,
        0.0,
        -0.0,
        -0.0,
        -0.8140484094619751,
        0.0,
        -0.0,
        -0.0,
        0.0,
        0.9257001280784607,
        -0.0,
        0.0,
        -2.0527472496032715,
        -0.6216989159584045,
        1.0
      ],
      "name": "Cube.008_8"
    },
    {
      "mesh": 12,
      "name": "Object_25"
    },
    {
      "mesh": 13,
      "name": "Object_26"
    },
    {
      "children": [
        28,
        29,
        30,
        31,
        32
      ],
      "matrix": [
        1.0168124437332153,
        0.0,
        0.0,
        0.0,
        0.0,
        1.0168124437332153,
        0.0,
        0.0,
        0.0,
        0.0,
        1.0168126821517944,
        0.0,
        0.0,
        0.6337183117866516,
        2.058966636657715,
        1.0
      ],
      "name": "Cylinder.001_9"
    },
    {
      "mesh": 14,
      "name": "Object_28"
    },
    {
      "mesh": 15,
      "name": "Object_29"
    },
    {
      "mesh": 16,
      "name": "Object_30"
    },
    {
      "mesh": 17,
      "name": "Object_31"
    },
    {
      "mesh": 18,
      "name": "Object_32"
    },
    {
      "children": [
        34,
        35
      ],
      "matrix": [
        0.5989983988101348,
        -0.598998290366794,
        -0.0,
        0.0,
        0.598998290366794,
        0.5989983988101348,
        0.0,
        0.0,
        0.0,
        0.0,
        0.9632980227470398,
        0.0,
        0.5169273614883423,
        0.513812780380249,
        -2.634657382965088,
        1.0
      ],
      "name": "Cylinder.002_10"
    },
    {
      "mesh": 19,
      "name": "Object_34"
    },
    {
      "mesh": 20,
      "name": "Object_35"
    },
    {
      "children": [
        37
      ],
      "matrix": [
        1.0528603792190552,
        0.0,
        0.0,
        0.0,
        0.0,
        1.0528603792190552,
        0.0,
        0.0,
        0.0,
        0.0,
        1.1972665786743164,
        0.0,
        0.19490493834018707,
        -1.0225520133972168,
        0.9824042916297913,
        1.0
      ],
      "name": "Cylinder.003_11"
    },
    {
      "mesh": 21,
      "name": "Object_37"
    },
    {
      "children": [
        39,
        40
      ],
      "matrix": [
        0.5989983988101348,
        0.598998290366794,
        0.0,
        0.0,
        -0.598998290366794,
        0.5989983988101348,
        0.0,
        0.0,
        0.0,
        0.0,
        0.9632980227470398,
        0.0,
        -0.5138128399848938,
        0.5169273018836975,
        -2.634657382965088,
        1.0
      ],
      "name": "Cylinder.004_12"
    },
    {
      "mesh": 22,
      "name": "Object_39"
    },
    {
      "mesh": 23,
      "name": "Object_40"
    },
    {
      "children": [
        42
      ],
      "matrix": [
        -1.0528603792190552,
        0.0,
        -0.0,
        -0.0,
        0.0,
        1.0528603792190552,
        -0.0,
        -0.0,
        0.0,
        0.0,
        1.1972665786743164,
        -0.0,
        -0.1949053406715393,
        -1.0225520133972168,
        0.9824042916297913,
        1.0
      ],
      "name": "Cylinder.005_13"
    },
    {
      "mesh": 24,
      "name": "Object_42"
    },
    {
      "children": [
        44,
        45
      ],
      "matrix": [
        -0.5989981973959385,
        0.5989984074872797,
        0.0,
        0.0,
        -0.5989984074872797,
        -0.5989981973959385,
        0.0,
        0.0,
        0.0,
        0.0,
        0.9632980227470398,
        0.0,
        -0.5169274210929871,
        -0.5138128995895386,
        -2.634657382965088,
        1.0
      ],
      "name": "Cylinder.006_14"
    },
    {
      "mesh": 25,
      "name": "Object_44"
    },
    {
      "mesh": 26,
      "name": "Object_45"
    },
    {
      "children": [
        47,
        48
      ],
      "matrix": [
        -0.5989983236779389,
        -0.5989982812052971,
        -0.0,
        0.0,
        0.5989982812052971,
        -0.5989983236779389,
        0.0,
        0.0,
        0.0,
        -0.0,
        0.9632980227470398,
        0.0,
        0.513812780380249,
        -0.5169275403022766,
        -2.634657382965088,
        1.0
      ],
      "name": "Cylinder.007_15"
    },
    {
      "mesh": 27,
      "name": "Object_47"
    },
    {
      "mesh": 28,
      "name": "Object_48"
    },
    {
      "children": [
        50
      ],
      "matrix": [
        0.529257595539093,
        0.0,
        0.0,
        0.0,
        0.0,
        -1.0146406911056993e-07,
        0.6018484830856238,
        0.0,
        0.0,
        -0.5292575955390855,
        -8.922616033815268e-08,
        0.0,
        0.0,
        -0.33318859338760376,
        0.778206467628479,
        1.0
      ],
      "name": "Cylinder.015_16"
    },
    {
      "mesh": 29,
      "name": "Object_50"
    },
    {
      "children": [
        52
      ],
      "matrix": [
        0.5221776962280273,
        0.0,
        0.0,
        0.0,
        0.0,
        0.5221776962280273,
        0.0,
        0.0,
        0.0,
        0.0,
        0.5937975645065308,
        0.0,
        0.0,
        -0.8997317552566528,
        0.04378209263086319,
        1.0
      ],
      "name": "Sphere_17"
    },
    {
      "mesh": 30,
      "name": "Object_52"
    }
  ],
  "scene": 0,
  "scenes": [
    {
      "name": "Sketchfab_Scene",
      "nodes": [
        0
      ]
    }
  ]
}
