{
  "accessors": [
    {
      "bufferView": 2,
      "componentType": 5126,
      "count": 10514,
      "max": [
        0.23126383125782013,
        0.22901098430156708,
        -1.5219535827636719
      ],
      "min": [
        -0.23126381635665894,
        -0.15970610082149506,
        -2.393754005432129
      ],
      "type": "VEC3"
    },
    {
      "bufferView": 2,
      "byteOffset": 126168,
      "componentType": 5126,
      "count": 10514,
      "max": [
        0.9999991655349731,
        0.9999716281890869,
        0.9999697804450989
      ],
      "min": [
        -0.9999991655349731,
        -0.9999477863311768,
        -0.9999969601631165
      ],
      "type": "VEC3"
    },
    {
      "bufferView": 1,
      "componentType": 5126,
      "count": 10514,
      "max": [
        0.99755859375,
        0.998046875
      ],
      "min": [
        0.001232147216796875,
        0.00384521484375
      ],
      "type": "VEC2"
    },
    {
      "bufferView": 0,
      "componentType": 5125,
      "count": 35916,
      "type": "SCALAR"
    },
    {
      "bufferView": 2,
      "byteOffset": 252336,
      "componentType": 5126,
      "count": 35740,
      "max": [
        0.8507287502288818,
        0.3247698247432709,
        0.0012861482100561261
      ],
      "min": [
        -0.8520591259002686,
        -0.3790830969810486,
        -2.060755729675293
      ],
      "type": "VEC3"
    },
    {
      "bufferView": 2,
      "byteOffset": 681216,
      "componentType": 5126,
      "count": 35740,
      "max": [
        1.0,
        1.0,
        1.0
      ],
      "min": [
        -1.0,
        -1.0,
        -1.0
      ],
      "type": "VEC3"
    },
    {
      "bufferView": 1,
      "byteOffset": 84112,
      "componentType": 5126,
      "count": 35740,
      "max": [
        0.99853515625,
        0.99951171875
      ],
      "min": [
        0.0015239715576171875,
        0.0018053054809570313
      ],
      "type": "VEC2"
    },
    {
      "bufferView": 0,
      "byteOffset": 143664,
      "componentType": 5125,
      "count": 116394,
      "type": "SCALAR"
    },
    {
      "bufferView": 2,
      "byteOffset": 1110096,
      "componentType": 5126,
      "count": 16270,
      "max": [
        0.2735960781574249,
        0.2080812305212021,
        -1.2865792512893677
      ],
      "min": [
        -0.2735960781574249,
        -0.1591547578573227,
        -2.274994373321533
      ],
      "type": "VEC3"
    },
    {
      "bufferView": 2,
      "byteOffset": 1305336,
      "componentType": 5126,
      "count": 16270,
      "max": [
        0.9999957084655762,
        1.0,
        1.0
      ],
      "min": [
        -0.9999957084655762,
        -1.0,
        -1.0
      ],
      "type": "VEC3"
    },
    {
      "bufferView": 1,
      "byteOffset": 370032,
      "componentType": 5126,
      "count": 16270,
      "max": [
        0.99755859375,
        0.99609375
      ],
      "min": [
        0.0017919540405273438,
        0.0014562606811523438
      ],
      "type": "VEC2"
    },
    {
      "bufferView": 0,
      "byteOffset": 609240,
      "componentType": 5125,
      "count": 59685,
      "type": "SCALAR"
    }
  ],
  "asset": {
    "extras": {
      "author": "CGreature (https://sketchfab.com/CGreature)",
      "license": "CC-BY-4.0 (http://creativecommons.org/licenses/by/4.0/)",
      "source": "https://sketchfab.com/3d-models/general-grievous-bf2-bb9878785a1341159370816eb40974f6",
      "title": "General Grievous BF2"
    },
    "generator": "Sketchfab-15.22.0",
    "version": "2.0"
  },
  "bufferViews": [
    {
      "buffer": 0,
      "byteLength": 847980,
      "name": "floatBufferViews",
      "target": 34963
    },
    {
      "buffer": 0,
      "byteLength": 500192,
      "byteOffset": 847980,
      "byteStride": 8,
      "name": "floatBufferViews",
      "target": 34962
    },
    {
      "buffer": 0,
      "byteLength": 1500576,
      "byteOffset": 1348172,
      "byteStride": 12,
      "name": "floatBufferViews",
      "target": 34962
    }
  ],
  "buffers": [
    {
      "byteLength": 2848748,
      "uri": "scene.bin"
    }
  ],
  "images": [
    {
      "uri": "textures/Material.002_baseColor.png"
    },
    {
      "uri": "textures/Material.001_baseColor.png"
    },
    {
      "uri": "textures/Material.003_baseColor.png"
    }
  ],
  "materials": [
    {
      "doubleSided": true,
      "name": "Material.002",
      "pbrMetallicRoughness": {
        "baseColorTexture": {
          "index": 0
        },
        "metallicFactor": 0.0,
        "roughnessFactor": 0.5
      }
    },
    {
      "doubleSided": true,
      "name": "Material.001",
      "pbrMetallicRoughness": {
        "baseColorTexture": {
          "index": 1
        },
        "metallicFactor": 0.0,
        "roughnessFactor": 0.5
      }
    },
    {
      "doubleSided": true,
      "name": "Material.003",
      "pbrMetallicRoughness": {
        "baseColorTexture": {
          "index": 2
        },
        "metallicFactor": 0.0,
        "roughnessFactor": 0.5
      }
    }
  ],
  "meshes": [
    {
      "name": "Object_0",
      "primitives": [
        {
          "attributes": {
            "NORMAL": 1,
            "POSITION": 0,
            "TEXCOORD_0": 2
          },
          "indices": 3,
          "material": 0,
          "mode": 4
        }
      ]
    },
    {
      "name": "Object_1",
      "primitives": [
        {
          "attributes": {
            "NORMAL": 5,
            "POSITION": 4,
            "TEXCOORD_0": 6
          },
          "indices": 7,
          "material": 1,
          "mode": 4
        }
      ]
    },
    {
      "name": "Object_2",
      "primitives": [
        {
          "attributes": {
            "NORMAL": 9,
            "POSITION": 8,
            "TEXCOORD_0": 10
          },
          "indices": 11,
          "material": 2,
          "mode": 4
        }
      ]
    }
  ],
  "nodes": [
    {
      "children": [
        1
      ],
      "matrix": [
        1.0,
        0.0,
        0.0,
        0.0,
        0.0,
        2.220446049250313e-16,
        -1.0,
        0.0,
        0.0,
        1.0,
        2.220446049250313e-16,
        0.0,
        0.0,
        0.0,
        0.0,
        1.0
      ],
      "name": "Sketchfab_model"
    },
    {
      "children": [
        2
      ],
      "name": "root"
    },
    {
      "children": [
        3
      ],
      "matrix": [
        1.0,
        0.0,
        0.0,
        0.0,
        0.0,
        2.220446049250313e-16,
        1.0,
        0.0,
        0.0,
        -1.0,
        2.220446049250313e-16,
        0.0,
        0.0,
        0.0,
        0.0,
        1.0
      ],
      "name": "GLTF_SceneRootNode"
    },
    {
      "children": [
        4,
        5,
        6
      ],
      "matrix": [
        1.0,
        0.0,
        0.0,
        0.0,
        0.0,
        -1.685873969314855e-07,
        0.9999999999999858,
        0.0,
        0.0,
        -0.9999999999999858,
        -1.685873969314855e-07,
        0.0,
        0.0,
        0.0,
        0.0,
        1.0
      ],
      "name": "M_Grievous_01_Head_0"
    },
    {
      "mesh": 0,
      "name": "Object_4"
    },
    {
      "mesh": 1,
      "name": "Object_5"
    },
    {
      "mesh": 2,
      "name": "Object_6"
    }
  ],
  "samplers": [
    {
      "magFilter": 9729,
      "minFilter": 9987,
      "wrapS": 10497,
      "wrapT": 10497
    }
  ],
  "scene": 0,
  "scenes": [
    {
      "name": "Sketchfab_Scene",
      "nodes": [
        0
      ]
    }
  ],
  "textures": [
    {
      "sampler": 0,
      "source": 0
    },
    {
      "sampler": 0,
      "source": 1
    },
    {
      "sampler": 0,
      "source": 2
    }
  ]
}
