{
  "accessors": [
    {
      "bufferView": 2,
      "componentType": 5126,
      "count": 162,
      "max": [
        -0.5374050736427307,
        -0.14142267405986786,
        1.17485511302948
      ],
      "min": [
        -0.7331034541130066,
        -0.4208453297615051,
        0.9888466000556946
      ],
      "type": "VEC3"
    },
    {
      "bufferView": 2,
      "byteOffset": 1944,
      "componentType": 5126,
      "count": 162,
      "max": [
        0.9622531533241272,
        0.9732716083526611,
        0.9680590033531189
      ],
      "min": [
        -0.999505877494812,
        -0.9479838013648987,
        -0.9499980807304382
      ],
      "type": "VEC3"
    },
    {
      "bufferView": 1,
      "componentType": 5126,
      "count": 162,
      "max": [
        0.6022328734397888,
        0.49278780817985535
      ],
      "min": [
        0.27814510464668274,
        0.2488795965909958
      ],
      "type": "VEC2"
    },
    {
      "bufferView": 0,
      "componentType": 5125,
      "count": 744,
      "type": "SCALAR"
    },
    {
      "bufferView": 2,
      "byteOffset": 3888,
      "componentType": 5126,
      "count": 4027,
      "max": [
        0.7286377549171448,
        0.3436910808086395,
        1.994710087776184
      ],
      "min": [
        -0.649163544178009,
        -0.40005773305892944,
        0.00075191305950284
      ],
      "type": "VEC3"
    },
    {
      "bufferView": 2,
      "byteOffset": 52212,
      "componentType": 5126,
      "count": 4027,
      "max": [
        1.0,
        0.999828577041626,
        1.0
      ],
      "min": [
        -1.0,
        -1.0,
        -1.0
      ],
      "type": "VEC3"
    },
    {
      "bufferView": 1,
      "byteOffset": 1296,
      "componentType": 5126,
      "count": 4027,
      "max": [
        0.99169921875,
        0.9936524033546448
      ],
      "min": [
        0.00897979736328125,
        0.007469176780432463
      ],
      "type": "VEC2"
    },
    {
      "bufferView": 0,
      "byteOffset": 2976,
      "componentType": 5125,
      "count": 16203,
      "type": "SCALAR"
    },
    {
      "bufferView": 2,
      "byteOffset": 100536,
      "componentType": 5126,
      "count": 162,
      "max": [
        -0.5374050736427307,
        -0.14142267405986786,
        1.17485511302948
      ],
      "min": [
        -0.7286372780799866,
        -0.4000576436519623,
        0.9259852170944214
      ],
      "type": "VEC3"
    },
    {
      "bufferView": 2,
      "byteOffset": 102480,
      "componentType": 5126,
      "count": 162,
      "max": [
        0.9913513660430908,
        0.9104918837547302,
        0.9087496399879456
      ],
      "min": [
        -0.9992676377296448,
        -0.9762417078018188,
        -0.950639545917511
      ],
      "type": "VEC3"
    },
    {
      "bufferView": 1,
      "byteOffset": 33512,
      "componentType": 5126,
      "count": 162,
      "max": [
        0.6022328734397888,
        0.49278780817985535
      ],
      "min": [
        0.27814510464668274,
        0.2488795965909958
      ],
      "type": "VEC2"
    },
    {
      "bufferView": 0,
      "byteOffset": 67788,
      "componentType": 5125,
      "count": 744,
      "type": "SCALAR"
    },
    {
      "bufferView": 2,
      "byteOffset": 104424,
      "componentType": 5126,
      "count": 715,
      "max": [
        0.7184832692146301,
        0.3436910808086395,
        1.9757821559906006
      ],
      "min": [
        -0.6739256381988525,
        -0.40347373485565186,
        0.0007518910570070148
      ],
      "type": "VEC3"
    },
    {
      "bufferView": 2,
      "byteOffset": 113004,
      "componentType": 5126,
      "count": 715,
      "max": [
        0.9947268962860107,
        0.9989107251167297,
        0.9936555624008179
      ],
      "min": [
        -0.9975119233131409,
        -0.9999982714653015,
        -1.0000001192092896
      ],
      "type": "VEC3"
    },
    {
      "bufferView": 1,
      "byteOffset": 34808,
      "componentType": 5126,
      "count": 715,
      "max": [
        0.99169921875,
        0.9931641221046448
      ],
      "min": [
        0.00897979736328125,
        0.008255003951489925
      ],
      "type": "VEC2"
    },
    {
      "bufferView": 0,
      "byteOffset": 70764,
      "componentType": 5125,
      "count": 2394,
      "type": "SCALAR"
    },
    {
      "bufferView": 2,
      "byteOffset": 121584,
      "componentType": 5126,
      "count": 715,
      "max": [
        0.7184832692146301,
        0.3436910808086395,
        1.9757821559906006
      ],
      "min": [
        -0.6739256381988525,
        -0.40347373485565186,
        0.0007518910570070148
      ],
      "type": "VEC3"
    },
    {
      "bufferView": 2,
      "byteOffset": 130164,
      "componentType": 5126,
      "count": 715,
      "max": [
        0.9947268962860107,
        0.9989107251167297,
        0.9936555624008179
      ],
      "min": [
        -0.9975119233131409,
        -0.9999982714653015,
        -1.0000001192092896
      ],
      "type": "VEC3"
    },
    {
      "bufferView": 1,
      "byteOffset": 40528,
      "componentType": 5126,
      "count": 715,
      "max": [
        0.99169921875,
        0.9931641221046448
      ],
      "min": [
        0.00897979736328125,
        0.008255003951489925
      ],
      "type": "VEC2"
    },
    {
      "bufferView": 0,
      "byteOffset": 80340,
      "componentType": 5125,
      "count": 2394,
      "type": "SCALAR"
    },
    {
      "bufferView": 2,
      "byteOffset": 138744,
      "componentType": 5126,
      "count": 162,
      "max": [
        -0.5374050736427307,
        -0.14142267405986786,
        1.17485511302948
      ],
      "min": [
        -0.7286372780799866,
        -0.4000576436519623,
        0.9259852170944214
      ],
      "type": "VEC3"
    },
    {
      "bufferView": 2,
      "byteOffset": 140688,
      "componentType": 5126,
      "count": 162,
      "max": [
        0.9913513660430908,
        0.9104918837547302,
        0.9087496399879456
      ],
      "min": [
        -0.9992676377296448,
        -0.9762417078018188,
        -0.950639545917511
      ],
      "type": "VEC3"
    },
    {
      "bufferView": 1,
      "byteOffset": 46248,
      "componentType": 5126,
      "count": 162,
      "max": [
        0.6022328734397888,
        0.49278780817985535
      ],
      "min": [
        0.27814510464668274,
        0.2488795965909958
      ],
      "type": "VEC2"
    },
    {
      "bufferView": 0,
      "byteOffset": 89916,
      "componentType": 5125,
      "count": 744,
      "type": "SCALAR"
    },
    {
      "bufferView": 2,
      "byteOffset": 142632,
      "componentType": 5126,
      "count": 4027,
      "max": [
        0.7286377549171448,
        0.3436910808086395,
        1.994710087776184
      ],
      "min": [
        -0.649163544178009,
        -0.40005773305892944,
        0.00075191305950284
      ],
      "type": "VEC3"
    },
    {
      "bufferView": 2,
      "byteOffset": 190956,
      "componentType": 5126,
      "count": 4027,
      "max": [
        1.0,
        0.999828577041626,
        1.0
      ],
      "min": [
        -1.0,
        -1.0,
        -1.0
      ],
      "type": "VEC3"
    },
    {
      "bufferView": 1,
      "byteOffset": 47544,
      "componentType": 5126,
      "count": 4027,
      "max": [
        0.99169921875,
        0.9936524033546448
      ],
      "min": [
        0.00897979736328125,
        0.007469176780432463
      ],
      "type": "VEC2"
    },
    {
      "bufferView": 0,
      "byteOffset": 92892,
      "componentType": 5125,
      "count": 16203,
      "type": "SCALAR"
    },
    {
      "bufferView": 2,
      "byteOffset": 239280,
      "componentType": 5126,
      "count": 162,
      "max": [
        -0.5374050736427307,
        -0.14142267405986786,
        1.17485511302948
      ],
      "min": [
        -0.7331034541130066,
        -0.4208453297615051,
        0.9888466000556946
      ],
      "type": "VEC3"
    },
    {
      "bufferView": 2,
      "byteOffset": 241224,
      "componentType": 5126,
      "count": 162,
      "max": [
        0.9622531533241272,
        0.9732716083526611,
        0.9680590033531189
      ],
      "min": [
        -0.999505877494812,
        -0.9479838013648987,
        -0.9499980807304382
      ],
      "type": "VEC3"
    },
    {
      "bufferView": 1,
      "byteOffset": 79760,
      "componentType": 5126,
      "count": 162,
      "max": [
        0.6022328734397888,
        0.49278780817985535
      ],
      "min": [
        0.27814510464668274,
        0.2488795965909958
      ],
      "type": "VEC2"
    },
    {
      "bufferView": 0,
      "byteOffset": 157704,
      "componentType": 5125,
      "count": 744,
      "type": "SCALAR"
    }
  ],
  "asset": {
    "extras": {
      "author": "Tigerar1 (https://sketchfab.com/allanromanreyes)",
      "license": "SKETCHFAB Standard (https://sketchfab.com/licenses)",
      "source": "https://sketchfab.com/3d-models/rugor-nass-477bd7cbe3a94075ae4629a6200cf757",
      "title": "Rugor Nass"
    },
    "generator": "Sketchfab-16.59.0",
    "version": "2.0"
  },
  "bufferViews": [
    {
      "buffer": 0,
      "byteLength": 160680,
      "name": "floatBufferViews",
      "target": 34963
    },
    {
      "buffer": 0,
      "byteLength": 81056,
      "byteOffset": 160680,
      "byteStride": 8,
      "name": "floatBufferViews",
      "target": 34962
    },
    {
      "buffer": 0,
      "byteLength": 243168,
      "byteOffset": 241736,
      "byteStride": 12,
      "name": "floatBufferViews",
      "target": 34962
    }
  ],
  "buffers": [
    {
      "byteLength": 484904,
      "uri": "scene.bin"
    }
  ],
  "images": [
    {
      "uri": "textures/rugornass_mat_baseColor.png"
    }
  ],
  "materials": [
    {
      "doubleSided": true,
      "name": "rugornass_mat",
      "pbrMetallicRoughness": {
        "baseColorTexture": {
          "index": 0
        },
        "metallicFactor": 0.0,
        "roughnessFactor": 0.6
      }
    },
    {
      "doubleSided": true,
      "name": "rugornass_mat_0",
      "pbrMetallicRoughness": {
        "baseColorTexture": {
          "index": 0
        },
        "metallicFactor": 0.0,
        "roughnessFactor": 0.6
      }
    },
    {
      "doubleSided": true,
      "name": "rugornass_mat_1",
      "pbrMetallicRoughness": {
        "baseColorTexture": {
          "index": 0
        },
        "metallicFactor": 0.0,
        "roughnessFactor": 0.6
      }
    },
    {
      "doubleSided": true,
      "name": "shadowsmash_rugornass_mat",
      "pbrMetallicRoughness": {
        "baseColorTexture": {
          "index": 0
        },
        "metallicFactor": 0.0,
        "roughnessFactor": 0.6
      }
    }
  ],
  "meshes": [
    {
      "name": "Object_0",
      "primitives": [
        {
          "attributes": {
            "NORMAL": 1,
            "POSITION": 0,
            "TEXCOORD_0": 2
          },
          "indices": 3,
          "material": 0,
          "mode": 4
        }
      ]
    },
    {
      "name": "Object_1",
      "primitives": [
        {
          "attributes": {
            "NORMAL": 5,
            "POSITION": 4,
            "TEXCOORD_0": 6
          },
          "indices": 7,
          "material": 1,
          "mode": 4
        }
      ]
    },
    {
      "name": "Object_2",
      "primitives": [
        {
          "attributes": {
            "NORMAL": 9,
            "POSITION": 8,
            "TEXCOORD_0": 10
          },
          "indices": 11,
          "material": 2,
          "mode": 4
        }
      ]
    },
    {
      "name": "Object_3",
      "primitives": [
        {
          "attributes": {
            "NORMAL": 13,
            "POSITION": 12,
            "TEXCOORD_0": 14
          },
          "indices": 15,
          "material": 3,
          "mode": 4
        }
      ]
    },
    {
      "name": "Object_4",
      "primitives": [
        {
          "attributes": {
            "NORMAL": 17,
            "POSITION": 16,
            "TEXCOORD_0": 18
          },
          "indices": 19,
          "material": 3,
          "mode": 4
        }
      ]
    },
    {
      "name": "Object_5",
      "primitives": [
        {
          "attributes": {
            "NORMAL": 21,
            "POSITION": 20,
            "TEXCOORD_0": 22
          },
          "indices": 23,
          "material": 2,
          "mode": 4
        }
      ]
    },
    {
      "name": "Object_6",
      "primitives": [
        {
          "attributes": {
            "NORMAL": 25,
            "POSITION": 24,
            "TEXCOORD_0": 26
          },
          "indices": 27,
          "material": 1,
          "mode": 4
        }
      ]
    },
    {
      "name": "Object_7",
      "primitives": [
        {
          "attributes": {
            "NORMAL": 29,
            "POSITION": 28,
            "TEXCOORD_0": 30
          },
          "indices": 31,
          "material": 0,
          "mode": 4
        }
      ]
    }
  ],
  "nodes": [
    {
      "children": [
        1
      ],
      "matrix": [
        1.0,
        0.0,
        0.0,
        0.0,
        0.0,
        2.220446049250313e-16,
        -1.0,
        0.0,
        0.0,
        1.0,
        2.220446049250313e-16,
        0.0,
        0.0,
        0.0,
        0.0,
        1.0
      ],
      "name": "Sketchfab_model"
    },
    {
      "children": [
        2
      ],
      "name": "Collada visual scene group"
    },
    {
      "children": [
        3
      ],
      "name": "unit.char_bossnass_pre"
    },
    {
      "children": [
        4,
        5,
        6,
        7,
        8,
        9,
        10,
        11
      ],
      "name": "Object_3"
    },
    {
      "mesh": 0,
      "name": "Object_4"
    },
    {
      "mesh": 1,
      "name": "Object_5"
    },
    {
      "mesh": 2,
      "name": "Object_6"
    },
    {
      "mesh": 3,
      "name": "Object_7"
    },
    {
      "mesh": 4,
      "name": "Object_8"
    },
    {
      "mesh": 5,
      "name": "Object_9"
    },
    {
      "mesh": 6,
      "name": "Object_10"
    },
    {
      "mesh": 7,
      "name": "Object_11"
    }
  ],
  "samplers": [
    {
      "magFilter": 9729,
      "minFilter": 9987,
      "wrapS": 10497,
      "wrapT": 10497
    }
  ],
  "scene": 0,
  "scenes": [
    {
      "name": "Sketchfab_Scene",
      "nodes": [
        0
      ]
    }
  ],
  "textures": [
    {
      "sampler": 0,
      "source": 0
    }
  ]
}
