{
  "accessors": [
    {
      "bufferView": 2,
      "componentType": 5126,
      "count": 5782,
      "max": [
        32.319091796875,
        3.9613037109375,
        59.285335540771484
      ],
      "min": [
        -32.31884765625,
        -8.856475830078125,
        43.10443878173828
      ],
      "type": "VEC3"
    },
    {
      "bufferView": 2,
      "byteOffset": 69384,
      "componentType": 5126,
      "count": 5782,
      "max": [
        0.9999690055847168,
        0.9980219006538391,
        0.9756222367286682
      ],
      "min": [
        -0.9999690055847168,
        -0.9974676370620728,
        -1.0
      ],
      "type": "VEC3"
    },
    {
      "bufferView": 1,
      "componentType": 5126,
      "count": 5782,
      "max": [
        0.875,
        -0.009765625
      ],
      "min": [
        0.009765625,
        -0.548828125
      ],
      "type": "VEC2"
    },
    {
      "bufferView": 1,
      "byteOffset": 46256,
      "componentType": 5126,
      "count": 5782,
      "max": [
        0.634765625,
        0.777587890625
      ],
      "min": [
        0.06103515625,
        0.0068359375
      ],
      "type": "VEC2"
    },
    {
      "bufferView": 1,
      "byteOffset": 92512,
      "componentType": 5126,
      "count": 5782,
      "max": [
        0.87451171875,
        0.990234375
      ],
      "min": [
        0.009765625,
        0.45068359375
      ],
      "type": "VEC2"
    },
    {
      "bufferView": 0,
      "componentType": 5125,
      "count": 31152,
      "type": "SCALAR"
    },
    {
      "bufferView": 2,
      "byteOffset": 138768,
      "componentType": 5126,
      "count": 2020,
      "max": [
        25.763916015625,
        13.23895263671875,
        78.10906982421875
      ],
      "min": [
        -25.763671875,
        -7.769989013671875,
        10.345817565917969
      ],
      "type": "VEC3"
    },
    {
      "bufferView": 2,
      "byteOffset": 163008,
      "componentType": 5126,
      "count": 2020,
      "max": [
        0.9999690055847168,
        0.9997521042823792,
        0.9970065951347351
      ],
      "min": [
        -0.9999690055847168,
        -0.999225914478302,
        -0.9988549947738647
      ],
      "type": "VEC3"
    },
    {
      "bufferView": 3,
      "componentType": 5126,
      "count": 2020,
      "max": [
        0.9995972514152527,
        0.9999690055847168,
        1.0,
        1.0
      ],
      "min": [
        -0.8905925154685974,
        -0.9999690055847168,
        -1.0,
        1.0
      ],
      "type": "VEC4"
    },
    {
      "bufferView": 1,
      "byteOffset": 138768,
      "componentType": 5126,
      "count": 2020,
      "max": [
        0.990234375,
        0.967010498046875
      ],
      "min": [
        0.009765625,
        0.009765625
      ],
      "type": "VEC2"
    },
    {
      "bufferView": 1,
      "byteOffset": 154928,
      "componentType": 5126,
      "count": 2020,
      "max": [
        0.990234375,
        -0.033203125
      ],
      "min": [
        0.009765625,
        -0.990234375
      ],
      "type": "VEC2"
    },
    {
      "bufferView": 1,
      "byteOffset": 171088,
      "componentType": 5126,
      "count": 2020,
      "max": [
        0.998046875,
        0.80517578125
      ],
      "min": [
        0.155517578125,
        0.05419921875
      ],
      "type": "VEC2"
    },
    {
      "bufferView": 1,
      "byteOffset": 187248,
      "componentType": 5126,
      "count": 2020,
      "max": [
        0.990234375,
        0.967010498046875
      ],
      "min": [
        0.009765625,
        0.009765625
      ],
      "type": "VEC2"
    },
    {
      "bufferView": 0,
      "byteOffset": 124608,
      "componentType": 5125,
      "count": 10218,
      "type": "SCALAR"
    },
    {
      "bufferView": 2,
      "byteOffset": 187248,
      "componentType": 5126,
      "count": 2548,
      "max": [
        16.534912109375,
        11.8411865234375,
        14.447519302368164
      ],
      "min": [
        -16.534912109375,
        -8.392578125,
        -1.1962511539459229
      ],
      "type": "VEC3"
    },
    {
      "bufferView": 2,
      "byteOffset": 217824,
      "componentType": 5126,
      "count": 2548,
      "max": [
        0.9999690055847168,
        0.9995972514152527,
        0.9995972514152527
      ],
      "min": [
        -0.9999690055847168,
        -1.0,
        -0.9999690055847168
      ],
      "type": "VEC3"
    },
    {
      "bufferView": 3,
      "byteOffset": 32320,
      "componentType": 5126,
      "count": 2548,
      "max": [
        0.9998760223388672,
        0.9876255393028259,
        0.9983610510826111,
        1.0
      ],
      "min": [
        -0.999225914478302,
        -0.9876255393028259,
        -0.9983610510826111,
        1.0
      ],
      "type": "VEC4"
    },
    {
      "bufferView": 1,
      "byteOffset": 203408,
      "componentType": 5126,
      "count": 2548,
      "max": [
        0.9951171875,
        0.99713134765625
      ],
      "min": [
        0.0048828125,
        0.0048828125
      ],
      "type": "VEC2"
    },
    {
      "bufferView": 1,
      "byteOffset": 223792,
      "componentType": 5126,
      "count": 2548,
      "max": [
        0.9951171875,
        -0.0029296875
      ],
      "min": [
        0.0048828125,
        -0.9951171875
      ],
      "type": "VEC2"
    },
    {
      "bufferView": 1,
      "byteOffset": 244176,
      "componentType": 5126,
      "count": 2548,
      "max": [
        0.99658203125,
        0.9980316162109375
      ],
      "min": [
        0.0019683837890625,
        0.00341796875
      ],
      "type": "VEC2"
    },
    {
      "bufferView": 0,
      "byteOffset": 165480,
      "componentType": 5125,
      "count": 8022,
      "type": "SCALAR"
    },
    {
      "bufferView": 2,
      "byteOffset": 248400,
      "componentType": 5126,
      "count": 2290,
      "max": [
        31.26318359375,
        2.850433349609375,
        57.8509521484375
      ],
      "min": [
        -31.433837890625,
        -8.2093505859375,
        46.71173858642578
      ],
      "type": "VEC3"
    },
    {
      "bufferView": 2,
      "byteOffset": 275880,
      "componentType": 5126,
      "count": 2290,
      "max": [
        0.999225914478302,
        0.9927725195884705,
        0.9499038457870483
      ],
      "min": [
        -0.999225914478302,
        -0.9526082873344421,
        -0.6705188155174255
      ],
      "type": "VEC3"
    },
    {
      "bufferView": 1,
      "byteOffset": 264560,
      "componentType": 5126,
      "count": 2290,
      "max": [
        0.94580078125,
        0.980316162109375
      ],
      "min": [
        0.02392578125,
        0.013671875
      ],
      "type": "VEC2"
    },
    {
      "bufferView": 1,
      "byteOffset": 282880,
      "componentType": 5126,
      "count": 2290,
      "max": [
        0.0,
        1.0
      ],
      "min": [
        0.0,
        1.0
      ],
      "type": "VEC2"
    },
    {
      "bufferView": 1,
      "byteOffset": 301200,
      "componentType": 5126,
      "count": 2290,
      "max": [
        0.998046875,
        0.9744110107421875
      ],
      "min": [
        0.0019683837890625,
        0.00244140625
      ],
      "type": "VEC2"
    },
    {
      "bufferView": 0,
      "byteOffset": 197568,
      "componentType": 5125,
      "count": 6816,
      "type": "SCALAR"
    },
    {
      "bufferView": 2,
      "byteOffset": 303360,
      "componentType": 5126,
      "count": 3668,
      "max": [
        14.714599609375,
        17.48016357421875,
        80.6125259399414
      ],
      "min": [
        -18.23681640625,
        -12.7403564453125,
        24.849864959716797
      ],
      "type": "VEC3"
    },
    {
      "bufferView": 2,
      "byteOffset": 347376,
      "componentType": 5126,
      "count": 3668,
      "max": [
        1.0,
        1.0,
        0.998762309551239
      ],
      "min": [
        -0.9999690055847168,
        -0.9998451471328735,
        -0.9931116700172424
      ],
      "type": "VEC3"
    },
    {
      "bufferView": 3,
      "byteOffset": 73088,
      "componentType": 5126,
      "count": 3668,
      "max": [
        0.9993805885314941,
        0.9994733929634094,
        0.9832162261009216,
        1.0
      ],
      "min": [
        -0.9999690055847168,
        -0.9999690055847168,
        -0.997252345085144,
        -1.0
      ],
      "type": "VEC4"
    },
    {
      "bufferView": 1,
      "byteOffset": 319520,
      "componentType": 5126,
      "count": 3668,
      "max": [
        0.9912109375,
        0.941162109375
      ],
      "min": [
        -0.56298828125,
        -0.9951171875
      ],
      "type": "VEC2"
    },
    {
      "bufferView": 1,
      "byteOffset": 348864,
      "componentType": 5126,
      "count": 3668,
      "max": [
        0.9951171875,
        -0.05859375
      ],
      "min": [
        0.0048828125,
        -0.9951171875
      ],
      "type": "VEC2"
    },
    {
      "bufferView": 1,
      "byteOffset": 378208,
      "componentType": 5126,
      "count": 3668,
      "max": [
        0.998046875,
        0.9980316162109375
      ],
      "min": [
        0.0019683837890625,
        0.00244140625
      ],
      "type": "VEC2"
    },
    {
      "bufferView": 0,
      "byteOffset": 224832,
      "componentType": 5125,
      "count": 15861,
      "type": "SCALAR"
    },
    {
      "bufferView": 2,
      "byteOffset": 391392,
      "componentType": 5126,
      "count": 761,
      "max": [
        -13.67724609375,
        10.00390625,
        44.67354965209961
      ],
      "min": [
        -17.917724609375,
        3.298492431640625,
        31.462997436523438
      ],
      "type": "VEC3"
    },
    {
      "bufferView": 2,
      "byteOffset": 400524,
      "componentType": 5126,
      "count": 761,
      "max": [
        0.9984844326972961,
        0.9997212290763855,
        0.9998760223388672
      ],
      "min": [
        -0.9984536170959473,
        -0.9979910850524902,
        -1.0
      ],
      "type": "VEC3"
    },
    {
      "bufferView": 3,
      "byteOffset": 131776,
      "componentType": 5126,
      "count": 761,
      "max": [
        1.0,
        0.9987314343452454,
        0.9996902346611023,
        1.0
      ],
      "min": [
        -0.9999690055847168,
        -0.9899189472198486,
        -0.9954333305358887,
        1.0
      ],
      "type": "VEC4"
    },
    {
      "bufferView": 1,
      "byteOffset": 407552,
      "componentType": 5126,
      "count": 761,
      "max": [
        0.0,
        1.0
      ],
      "min": [
        0.0,
        1.0
      ],
      "type": "VEC2"
    },
    {
      "bufferView": 1,
      "byteOffset": 413640,
      "componentType": 5126,
      "count": 761,
      "max": [
        0.99560546875,
        0.9783477783203125
      ],
      "min": [
        0.10430908203125,
        0.1142578125
      ],
      "type": "VEC2"
    },
    {
      "bufferView": 1,
      "byteOffset": 419728,
      "componentType": 5126,
      "count": 761,
      "max": [
        0.99658203125,
        0.9951171875
      ],
      "min": [
        0.0048828125,
        0.0048828125
      ],
      "type": "VEC2"
    },
    {
      "bufferView": 0,
      "byteOffset": 288276,
      "componentType": 5125,
      "count": 3204,
      "type": "SCALAR"
    },
    {
      "bufferView": 2,
      "byteOffset": 409656,
      "componentType": 5126,
      "count": 8105,
      "max": [
        16.590087890625,
        16.990966796875,
        80.57010650634766
      ],
      "min": [
        -18.533935546875,
        -12.343841552734375,
        24.86850929260254
      ],
      "type": "VEC3"
    },
    {
      "bufferView": 2,
      "byteOffset": 506916,
      "componentType": 5126,
      "count": 8105,
      "max": [
        0.9999380111694336,
        0.9999690055847168,
        0.9997212290763855
      ],
      "min": [
        -0.999225914478302,
        -1.0,
        -1.0
      ],
      "type": "VEC3"
    },
    {
      "bufferView": 3,
      "byteOffset": 143952,
      "componentType": 5126,
      "count": 8105,
      "max": [
        0.9999380111694336,
        0.9998451471328735,
        0.9996902346611023,
        1.0
      ],
      "min": [
        -0.9997212290763855,
        -1.0,
        -0.9995972514152527,
        -1.0
      ],
      "type": "VEC4"
    },
    {
      "bufferView": 1,
      "byteOffset": 425816,
      "componentType": 5126,
      "count": 8105,
      "max": [
        0.9970703125,
        0.964111328125
      ],
      "min": [
        -0.99169921875,
        -0.8798828125
      ],
      "type": "VEC2"
    },
    {
      "bufferView": 1,
      "byteOffset": 490656,
      "componentType": 5126,
      "count": 8105,
      "max": [
        0.9970703125,
        0.9931640625
      ],
      "min": [
        -0.9951171875,
        -0.9951171875
      ],
      "type": "VEC2"
    },
    {
      "bufferView": 1,
      "byteOffset": 555496,
      "componentType": 5126,
      "count": 8105,
      "max": [
        0.9970703125,
        0.9980316162109375
      ],
      "min": [
        0.0019683837890625,
        0.00439453125
      ],
      "type": "VEC2"
    },
    {
      "bufferView": 0,
      "byteOffset": 301092,
      "componentType": 5125,
      "count": 31995,
      "type": "SCALAR"
    },
    {
      "bufferView": 2,
      "byteOffset": 604176,
      "componentType": 5126,
      "count": 282,
      "max": [
        15.482421875,
        8.25506591796875,
        80.30738067626953
      ],
      "min": [
        -13.05419921875,
        1.881439208984375,
        37.214332580566406
      ],
      "type": "VEC3"
    },
    {
      "bufferView": 2,
      "byteOffset": 607560,
      "componentType": 5126,
      "count": 282,
      "max": [
        0.999225914478302,
        0.9924029111862183,
        0.9983919858932495
      ],
      "min": [
        -0.9974676370620728,
        -0.9988858699798584,
        -0.9957130551338196
      ],
      "type": "VEC3"
    },
    {
      "bufferView": 1,
      "byteOffset": 620336,
      "componentType": 5126,
      "count": 282,
      "max": [
        0.9736328125,
        0.732666015625
      ],
      "min": [
        0.2469482421875,
        0.08740234375
      ],
      "type": "VEC2"
    },
    {
      "bufferView": 1,
      "byteOffset": 622592,
      "componentType": 5126,
      "count": 282,
      "max": [
        -0.77099609375,
        0.1513671875
      ],
      "min": [
        -0.923828125,
        0.0302734375
      ],
      "type": "VEC2"
    },
    {
      "bufferView": 1,
      "byteOffset": 624848,
      "componentType": 5126,
      "count": 282,
      "max": [
        0.98291015625,
        0.87994384765625
      ],
      "min": [
        0.0019683837890625,
        0.0576171875
      ],
      "type": "VEC2"
    },
    {
      "bufferView": 1,
      "byteOffset": 627104,
      "componentType": 5126,
      "count": 282,
      "max": [
        0.9736328125,
        0.732666015625
      ],
      "min": [
        0.2469482421875,
        0.08740234375
      ],
      "type": "VEC2"
    },
    {
      "bufferView": 0,
      "byteOffset": 429072,
      "componentType": 5125,
      "count": 1152,
      "type": "SCALAR"
    },
    {
      "bufferView": 2,
      "byteOffset": 610944,
      "componentType": 5126,
      "count": 431,
      "max": [
        5.183837890625,
        -4.438568115234375,
        87.90294647216797
      ],
      "min": [
        -4.61669921875,
        -7.083740234375,
        83.00630187988281
      ],
      "type": "VEC3"
    },
    {
      "bufferView": 2,
      "byteOffset": 616116,
      "componentType": 5126,
      "count": 431,
      "max": [
        0.9974985122680664,
        -0.0,
        0.9974985122680664
      ],
      "min": [
        -1.0,
        -1.0,
        -0.9974985122680664
      ],
      "type": "VEC3"
    },
    {
      "bufferView": 1,
      "byteOffset": 629360,
      "componentType": 5126,
      "count": 431,
      "max": [
        1.0,
        1.0
      ],
      "min": [
        0.0,
        0.0
      ],
      "type": "VEC2"
    },
    {
      "bufferView": 1,
      "byteOffset": 632808,
      "componentType": 5126,
      "count": 431,
      "max": [
        1.0,
        1.0
      ],
      "min": [
        0.0,
        0.0
      ],
      "type": "VEC2"
    },
    {
      "bufferView": 1,
      "byteOffset": 636256,
      "componentType": 5126,
      "count": 431,
      "max": [
        0.9931640625,
        0.94683837890625
      ],
      "min": [
        0.5966796875,
        0.5068359375
      ],
      "type": "VEC2"
    },
    {
      "bufferView": 0,
      "byteOffset": 433680,
      "componentType": 5125,
      "count": 2280,
      "type": "SCALAR"
    },
    {
      "bufferView": 2,
      "byteOffset": 621288,
      "componentType": 5126,
      "count": 386,
      "max": [
        9.82861328125,
        -2.906402587890625,
        95.25177764892578
      ],
      "min": [
        -8.843994140625,
        -13.37823486328125,
        75.8251724243164
      ],
      "type": "VEC3"
    },
    {
      "bufferView": 2,
      "byteOffset": 625920,
      "componentType": 5126,
      "count": 386,
      "max": [
        0.9929575324058533,
        0.5351676940917969,
        0.9995043873786926
      ],
      "min": [
        -0.9929575324058533,
        -0.9999690055847168,
        -0.9902857542037964
      ],
      "type": "VEC3"
    },
    {
      "bufferView": 3,
      "byteOffset": 273632,
      "componentType": 5126,
      "count": 386,
      "max": [
        0.9999690055847168,
        0.9923722147941589,
        0.9953712224960327,
        1.0
      ],
      "min": [
        -0.9619429111480713,
        -0.9954645037651062,
        -0.9991022348403931,
        1.0
      ],
      "type": "VEC4"
    },
    {
      "bufferView": 1,
      "byteOffset": 639704,
      "componentType": 5126,
      "count": 386,
      "max": [
        0.9951171875,
        0.17333984375
      ],
      "min": [
        -0.36669921875,
        -0.97265625
      ],
      "type": "VEC2"
    },
    {
      "bufferView": 1,
      "byteOffset": 642792,
      "componentType": 5126,
      "count": 386,
      "max": [
        0.62451171875,
        0.714599609375
      ],
      "min": [
        0.214599609375,
        0.00244140625
      ],
      "type": "VEC2"
    },
    {
      "bufferView": 1,
      "byteOffset": 645880,
      "componentType": 5126,
      "count": 386,
      "max": [
        0.9951171875,
        0.30126953125
      ],
      "min": [
        0.28076171875,
        0.0048828125
      ],
      "type": "VEC2"
    },
    {
      "bufferView": 0,
      "byteOffset": 442800,
      "componentType": 5125,
      "count": 1983,
      "type": "SCALAR"
    },
    {
      "bufferView": 2,
      "byteOffset": 630552,
      "componentType": 5126,
      "count": 5696,
      "max": [
        30.335693359375,
        20.81982421875,
        105.68489837646484
      ],
      "min": [
        -29.678466796875,
        -15.3653564453125,
        3.6218080520629883
      ],
      "type": "VEC3"
    },
    {
      "bufferView": 2,
      "byteOffset": 698904,
      "componentType": 5126,
      "count": 5696,
      "max": [
        0.9998760223388672,
        0.9999380111694336,
        0.999225914478302
      ],
      "min": [
        -1.0,
        -0.9991949796676636,
        -0.9997521042823792
      ],
      "type": "VEC3"
    },
    {
      "bufferView": 3,
      "byteOffset": 279808,
      "componentType": 5126,
      "count": 5696,
      "max": [
        0.9997212290763855,
        0.9999380111694336,
        0.9998760223388672,
        1.0
      ],
      "min": [
        -1.0,
        -0.9995972514152527,
        -0.9999690055847168,
        1.0
      ],
      "type": "VEC4"
    },
    {
      "bufferView": 1,
      "byteOffset": 648968,
      "componentType": 5126,
      "count": 5696,
      "max": [
        0.994140625,
        0.99420166015625
      ],
      "min": [
        0.0048828125,
        0.0048828125
      ],
      "type": "VEC2"
    },
    {
      "bufferView": 1,
      "byteOffset": 694536,
      "componentType": 5126,
      "count": 5696,
      "max": [
        0.994140625,
        -0.005859375
      ],
      "min": [
        0.0048828125,
        -0.9951171875
      ],
      "type": "VEC2"
    },
    {
      "bufferView": 1,
      "byteOffset": 740104,
      "componentType": 5126,
      "count": 5696,
      "max": [
        0.99560546875,
        0.9980316162109375
      ],
      "min": [
        0.0019683837890625,
        0.00927734375
      ],
      "type": "VEC2"
    },
    {
      "bufferView": 0,
      "byteOffset": 450732,
      "componentType": 5125,
      "count": 27768,
      "type": "SCALAR"
    }
  ],
  "asset": {
    "extras": {
      "author": "michael50 (https://sketchfab.com/michael50)",
      "license": "CC-BY-4.0 (http://creativecommons.org/licenses/by/4.0/)",
      "source": "https://sketchfab.com/3d-models/sm-jawa-08124df6beef4ca18b2d24a25f5fd6bf",
      "title": "SM_jawa"
    },
    "generator": "Sketchfab-16.75.0",
    "version": "2.0"
  },
  "bufferViews": [
    {
      "buffer": 0,
      "byteLength": 561804,
      "name": "floatBufferViews",
      "target": 34963
    },
    {
      "buffer": 0,
      "byteLength": 785672,
      "byteOffset": 561804,
      "byteStride": 8,
      "name": "floatBufferViews",
      "target": 34962
    },
    {
      "buffer": 0,
      "byteLength": 767256,
      "byteOffset": 1347476,
      "byteStride": 12,
      "name": "floatBufferViews",
      "target": 34962
    },
    {
      "buffer": 0,
      "byteLength": 370944,
      "byteOffset": 2114732,
      "byteStride": 16,
      "name": "floatBufferViews",
      "target": 34962
    }
  ],
  "buffers": [
    {
      "byteLength": 2485676,
      "uri": "scene.bin"
    }
  ],
  "extensionsUsed": [
    "KHR_materials_specular"
  ],
  "images": [
    {
      "uri": "textures/body_mesh_baseColor.png"
    },
    {
      "uri": "textures/body_mesh_normal.png"
    },
    {
      "uri": "textures/feet_mesh_metallicRoughness.png"
    },
    {
      "uri": "textures/fur_mesh_baseColor.png"
    },
    {
      "uri": "textures/M_holster_cuir14_metallicRoughness.png"
    },
    {
      "uri": "textures/M_holster_cuir14_normal.png"
    },
    {
      "uri": "textures/droidcaller_mesh_normal.png"
    },
    {
      "uri": "textures/bandolier_mesh_normal.png"
    },
    {
      "uri": "textures/bandolier_mesh_specularf0.png"
    },
    {
      "uri": "textures/M_robe_Jawa_metallicRoughness.png"
    }
  ],
  "materials": [
    {
      "doubleSided": true,
      "name": "hands_mesh",
      "pbrMetallicRoughness": {
        "baseColorFactor": [
          0.0625,
          0.033092,
          0.0159595,
          1.0
        ],
        "metallicFactor": 0.0,
        "roughnessFactor": 0.6
      }
    },
    {
      "doubleSided": true,
      "name": "body_mesh",
      "normalTexture": {
        "index": 1
      },
      "pbrMetallicRoughness": {
        "baseColorTexture": {
          "index": 0
        },
        "metallicFactor": 0.0,
        "roughnessFactor": 0.6
      }
    },
    {
      "doubleSided": true,
      "name": "feet_mesh",
      "normalTexture": {
        "index": 1
      },
      "occlusionTexture": {
        "index": 2
      },
      "pbrMetallicRoughness": {
        "baseColorTexture": {
          "index": 0
        },
        "metallicFactor": 0.0,
        "metallicRoughnessTexture": {
          "index": 2
        },
        "roughnessFactor": 0.5836208262729943
      }
    },
    {
      "alphaCutoff": 0.7725737830820055,
      "alphaMode": "MASK",
      "doubleSided": true,
      "name": "fur_mesh",
      "pbrMetallicRoughness": {
        "baseColorFactor": [
          0.04011232605020126,
          0.02560159880857695,
          0.019331841851145927,
          1.0
        ],
        "baseColorTexture": {
          "index": 3
        },
        "metallicFactor": 0.0,
        "roughnessFactor": 0.6
      }
    },
    {
      "doubleSided": true,
      "extensions": {
        "KHR_materials_specular": {
          "specularColorFactor": [
            1.0,
            1.0,
            1.0
          ],
          "specularFactor": 0.07771452255854494
        }
      },
      "name": "M_holster_cuir14",
      "normalTexture": {
        "index": 5
      },
      "pbrMetallicRoughness": {
        "baseColorFactor": [
          0.020742511621608114,
          0.00664914747783498,
          0.0013259546206502912,
          1.0
        ],
        "metallicFactor": 0.0,
        "metallicRoughnessTexture": {
          "index": 4
        }
      }
    },
    {
      "doubleSided": true,
      "extensions": {
        "KHR_materials_specular": {
          "specularColorFactor": [
            1.0,
            1.0,
            1.0
          ],
          "specularFactor": 0.7116212163694212
        }
      },
      "name": "droidcaller_mesh",
      "normalTexture": {
        "index": 6
      },
      "pbrMetallicRoughness": {
        "baseColorFactor": [
          0.055565107253019566,
          0.05383263667059453,
          0.05729783433459911,
          1.0
        ],
        "metallicFactor": 0.608001852958028,
        "roughnessFactor": 0.2544769660250393
      }
    },
    {
      "doubleSided": true,
      "extensions": {
        "KHR_materials_specular": {
          "specularColorFactor": [
            1.0,
            1.0,
            1.0
          ],
          "specularFactor": 0.7542880130682302,
          "specularTexture": {
            "index": 8
          }
        }
      },
      "name": "bandolier_mesh",
      "normalTexture": {
        "index": 7
      },
      "pbrMetallicRoughness": {
        "baseColorFactor": [
          0.10829235995947611,
          0.07353886121703662,
          0.051056549757544145,
          1.0
        ],
        "metallicFactor": 0.42514415282027523,
        "roughnessFactor": 0.6323828796430617
      }
    },
    {
      "doubleSided": true,
      "name": "MI_Metal_Bantha_Inst1",
      "pbrMetallicRoughness": {
        "baseColorFactor": [
          0.19802327142925605,
          0.18325659310529477,
          0.18325659310529477,
          1.0
        ],
        "roughnessFactor": 0.3737123770281967
      }
    },
    {
      "doubleSided": true,
      "extensions": {
        "KHR_materials_specular": {
          "specularColorFactor": [
            1.0,
            1.0,
            1.0
          ],
          "specularFactor": 0.24838170935378087
        }
      },
      "name": "eyes_mesh",
      "pbrMetallicRoughness": {
        "baseColorFactor": [
          1.0,
          0.547825,
          0.0,
          1.0
        ],
        "metallicFactor": 0.821335836452073,
        "roughnessFactor": 0.48000146286160106
      }
    },
    {
      "doubleSided": true,
      "name": "hoodInner_mesh",
      "normalTexture": {
        "index": 5
      },
      "pbrMetallicRoughness": {
        "baseColorFactor": [
          0.015625,
          0.00741086,
          0.0,
          1.0
        ],
        "metallicFactor": 0.0,
        "roughnessFactor": 0.6
      }
    },
    {
      "doubleSided": true,
      "name": "M_robe_Jawa",
      "normalTexture": {
        "index": 1
      },
      "pbrMetallicRoughness": {
        "baseColorTexture": {
          "index": 0
        },
        "metallicFactor": 0.0,
        "metallicRoughnessTexture": {
          "index": 9
        }
      }
    }
  ],
  "meshes": [
    {
      "name": "SM_SM_Jawa_Outlaw_hands_mesh_0",
      "primitives": [
        {
          "attributes": {
            "NORMAL": 1,
            "POSITION": 0,
            "TEXCOORD_0": 2,
            "TEXCOORD_1": 3,
            "TEXCOORD_2": 4
          },
          "indices": 5,
          "material": 0,
          "mode": 4
        }
      ]
    },
    {
      "name": "SM_SM_Jawa_Outlaw_body_mesh_0",
      "primitives": [
        {
          "attributes": {
            "NORMAL": 7,
            "POSITION": 6,
            "TANGENT": 8,
            "TEXCOORD_0": 9,
            "TEXCOORD_1": 10,
            "TEXCOORD_2": 11,
            "TEXCOORD_3": 12
          },
          "indices": 13,
          "material": 1,
          "mode": 4
        }
      ]
    },
    {
      "name": "SM_SM_Jawa_Outlaw_feet_mesh_0",
      "primitives": [
        {
          "attributes": {
            "NORMAL": 15,
            "POSITION": 14,
            "TANGENT": 16,
            "TEXCOORD_0": 17,
            "TEXCOORD_1": 18,
            "TEXCOORD_2": 19
          },
          "indices": 20,
          "material": 2,
          "mode": 4
        }
      ]
    },
    {
      "name": "SM_SM_Jawa_Outlaw_fur_mesh_0",
      "primitives": [
        {
          "attributes": {
            "NORMAL": 22,
            "POSITION": 21,
            "TEXCOORD_0": 23,
            "TEXCOORD_1": 24,
            "TEXCOORD_2": 25
          },
          "indices": 26,
          "material": 3,
          "mode": 4
        }
      ]
    },
    {
      "name": "SM_SM_Jawa_Outlaw_M_holster_cuir14_0",
      "primitives": [
        {
          "attributes": {
            "NORMAL": 28,
            "POSITION": 27,
            "TANGENT": 29,
            "TEXCOORD_0": 30,
            "TEXCOORD_1": 31,
            "TEXCOORD_2": 32
          },
          "indices": 33,
          "material": 4,
          "mode": 4
        }
      ]
    },
    {
      "name": "SM_SM_Jawa_Outlaw_droidcaller_mesh_0",
      "primitives": [
        {
          "attributes": {
            "NORMAL": 35,
            "POSITION": 34,
            "TANGENT": 36,
            "TEXCOORD_0": 37,
            "TEXCOORD_1": 38,
            "TEXCOORD_2": 39
          },
          "indices": 40,
          "material": 5,
          "mode": 4
        }
      ]
    },
    {
      "name": "SM_SM_Jawa_Outlaw_bandolier_mesh_0",
      "primitives": [
        {
          "attributes": {
            "NORMAL": 42,
            "POSITION": 41,
            "TANGENT": 43,
            "TEXCOORD_0": 44,
            "TEXCOORD_1": 45,
            "TEXCOORD_2": 46
          },
          "indices": 47,
          "material": 6,
          "mode": 4
        }
      ]
    },
    {
      "name": "SM_SM_Jawa_Outlaw_MI_Metal_Bantha_Inst1_0",
      "primitives": [
        {
          "attributes": {
            "NORMAL": 49,
            "POSITION": 48,
            "TEXCOORD_0": 50,
            "TEXCOORD_1": 51,
            "TEXCOORD_2": 52,
            "TEXCOORD_3": 53
          },
          "indices": 54,
          "material": 7,
          "mode": 4
        }
      ]
    },
    {
      "name": "SM_SM_Jawa_Outlaw_eyes_mesh_0",
      "primitives": [
        {
          "attributes": {
            "NORMAL": 56,
            "POSITION": 55,
            "TEXCOORD_0": 57,
            "TEXCOORD_1": 58,
            "TEXCOORD_2": 59
          },
          "indices": 60,
          "material": 8,
          "mode": 4
        }
      ]
    },
    {
      "name": "SM_SM_Jawa_Outlaw_hoodInner_mesh_0",
      "primitives": [
        {
          "attributes": {
            "NORMAL": 62,
            "POSITION": 61,
            "TANGENT": 63,
            "TEXCOORD_0": 64,
            "TEXCOORD_1": 65,
            "TEXCOORD_2": 66
          },
          "indices": 67,
          "material": 9,
          "mode": 4
        }
      ]
    },
    {
      "name": "SM_SM_Jawa_Outlaw_M_robe_Jawa_0",
      "primitives": [
        {
          "attributes": {
            "NORMAL": 69,
            "POSITION": 68,
            "TANGENT": 70,
            "TEXCOORD_0": 71,
            "TEXCOORD_1": 72,
            "TEXCOORD_2": 73
          },
          "indices": 74,
          "material": 10,
          "mode": 4
        }
      ]
    }
  ],
  "nodes": [
    {
      "children": [
        1
      ],
      "matrix": [
        0.9938791394233704,
        0.031928203999996206,
        -0.10575853288173674,
        0.0,
        0.10581247508525848,
        -2.199307018562602e-16,
        0.9943860769271851,
        0.0,
        0.03174896165728569,
        -0.9994901418685913,
        -0.003378402441740258,
        0.0,
        0.0,
        0.0,
        0.0,
        1.0
      ],
      "name": "Sketchfab_model"
    },
    {
      "children": [
        2
      ],
      "matrix": [
        0.009999999776482582,
        0.0,
        0.0,
        0.0,
        0.0,
        -0.009999999776482582,
        0.0,
        0.0,
        0.0,
        0.0,
        -0.009999999776482582,
        0.0,
        0.0,
        0.0,
        0.0,
        1.0
      ],
      "name": "9f6c602d909640b980397596e7a2bb24.fbx"
    },
    {
      "children": [
        3
      ],
      "name": "RootNode"
    },
    {
      "children": [
        4,
        5,
        6,
        7,
        8,
        9,
        10,
        11,
        12,
        13,
        14
      ],
      "name": "SM_SM_Jawa_Outlaw"
    },
    {
      "mesh": 0,
      "name": "SM_SM_Jawa_Outlaw_hands_mesh_0"
    },
    {
      "mesh": 1,
      "name": "SM_SM_Jawa_Outlaw_body_mesh_0"
    },
    {
      "mesh": 2,
      "name": "SM_SM_Jawa_Outlaw_feet_mesh_0"
    },
    {
      "mesh": 3,
      "name": "SM_SM_Jawa_Outlaw_fur_mesh_0"
    },
    {
      "mesh": 4,
      "name": "SM_SM_Jawa_Outlaw_M_holster_cuir14_0"
    },
    {
      "mesh": 5,
      "name": "SM_SM_Jawa_Outlaw_droidcaller_mesh_0"
    },
    {
      "mesh": 6,
      "name": "SM_SM_Jawa_Outlaw_bandolier_mesh_0"
    },
    {
      "mesh": 7,
      "name": "SM_SM_Jawa_Outlaw_MI_Metal_Bantha_Inst1_0"
    },
    {
      "mesh": 8,
      "name": "SM_SM_Jawa_Outlaw_eyes_mesh_0"
    },
    {
      "mesh": 9,
      "name": "SM_SM_Jawa_Outlaw_hoodInner_mesh_0"
    },
    {
      "mesh": 10,
      "name": "SM_SM_Jawa_Outlaw_M_robe_Jawa_0"
    }
  ],
  "samplers": [
    {
      "magFilter": 9729,
      "minFilter": 9987,
      "wrapS": 10497,
      "wrapT": 10497
    }
  ],
  "scene": 0,
  "scenes": [
    {
      "name": "Sketchfab_Scene",
      "nodes": [
        0
      ]
    }
  ],
  "textures": [
    {
      "sampler": 0,
      "source": 0
    },
    {
      "sampler": 0,
      "source": 1
    },
    {
      "sampler": 0,
      "source": 2
    },
    {
      "sampler": 0,
      "source": 3
    },
    {
      "sampler": 0,
      "source": 4
    },
    {
      "sampler": 0,
      "source": 5
    },
    {
      "sampler": 0,
      "source": 6
    },
    {
      "sampler": 0,
      "source": 7
    },
    {
      "sampler": 0,
      "source": 8
    },
    {
      "sampler": 0,
      "source": 9
    }
  ]
}
