{
  "accessors": [
    {
      "bufferView": 2,
      "componentType": 5126,
      "count": 13743,
      "max": [
        2.125460624694824,
        0.9238146543502808,
        1.0383232831954956
      ],
      "min": [
        -2.125460624694824,
        -1.1531964540481567,
        -2.7442688941955566
      ],
      "type": "VEC3"
    },
    {
      "bufferView": 2,
      "byteOffset": 164916,
      "componentType": 5126,
      "count": 13743,
      "max": [
        1.0,
        1.0,
        1.0
      ],
      "min": [
        -1.0,
        -1.0,
        -1.0
      ],
      "type": "VEC3"
    },
    {
      "bufferView": 3,
      "componentType": 5126,
      "count": 13743,
      "max": [
        1.0,
        0.9999922513961792,
        1.0,
        1.0
      ],
      "min": [
        -1.0,
        -0.9994180798530579,
        -1.0,
        -1.0
      ],
      "type": "VEC4"
    },
    {
      "bufferView": 1,
      "componentType": 5126,
      "count": 13743,
      "max": [
        0.9902021288871765,
        0.47541964054107666
      ],
      "min": [
        0.504691481590271,
        0.02622842788696289
      ],
      "type": "VEC2"
    },
    {
      "bufferView": 1,
      "byteOffset": 109944,
      "componentType": 5126,
      "count": 13743,
      "max": [
        0.9902021288871765,
        0.47541964054107666
      ],
      "min": [
        0.504691481590271,
        0.02622842788696289
      ],
      "type": "VEC2"
    },
    {
      "bufferView": 1,
      "byteOffset": 219888,
      "componentType": 5126,
      "count": 13743,
      "max": [
        0.9902021288871765,
        0.47541964054107666
      ],
      "min": [
        0.504691481590271,
        0.02622842788696289
      ],
      "type": "VEC2"
    },
    {
      "bufferView": 1,
      "byteOffset": 329832,
      "componentType": 5126,
      "count": 13743,
      "max": [
        0.9902021288871765,
        0.47541964054107666
      ],
      "min": [
        0.504691481590271,
        0.02622842788696289
      ],
      "type": "VEC2"
    },
    {
      "bufferView": 0,
      "componentType": 5125,
      "count": 74112,
      "type": "SCALAR"
    },
    {
      "bufferView": 2,
      "byteOffset": 329832,
      "componentType": 5126,
      "count": 1259,
      "max": [
        1.4178895950317383,
        0.9955369830131531,
        1.0000001192092896
      ],
      "min": [
        -1.4194862842559814,
        -1.0000001192092896,
        -1.0000001192092896
      ],
      "type": "VEC3"
    },
    {
      "bufferView": 2,
      "byteOffset": 344940,
      "componentType": 5126,
      "count": 1259,
      "max": [
        1.0,
        0.9693901538848877,
        1.0
      ],
      "min": [
        -1.0,
        -1.0,
        -1.0
      ],
      "type": "VEC3"
    },
    {
      "bufferView": 3,
      "byteOffset": 219888,
      "componentType": 5126,
      "count": 1259,
      "max": [
        0.999999463558197,
        0.9403798580169678,
        0.9977880716323853,
        -1.0
      ],
      "min": [
        -0.9999934434890747,
        -0.9999993443489075,
        -0.9969353079795837,
        -1.0
      ],
      "type": "VEC4"
    },
    {
      "bufferView": 1,
      "byteOffset": 439776,
      "componentType": 5126,
      "count": 1259,
      "max": [
        0.408954918384552,
        0.35649538040161133
      ],
      "min": [
        0.30087968707084656,
        0.21254116296768188
      ],
      "type": "VEC2"
    },
    {
      "bufferView": 1,
      "byteOffset": 449848,
      "componentType": 5126,
      "count": 1259,
      "max": [
        0.408954918384552,
        0.35649538040161133
      ],
      "min": [
        0.30087968707084656,
        0.21254116296768188
      ],
      "type": "VEC2"
    },
    {
      "bufferView": 1,
      "byteOffset": 459920,
      "componentType": 5126,
      "count": 1259,
      "max": [
        0.408954918384552,
        0.35649538040161133
      ],
      "min": [
        0.30087968707084656,
        0.21254116296768188
      ],
      "type": "VEC2"
    },
    {
      "bufferView": 1,
      "byteOffset": 469992,
      "componentType": 5126,
      "count": 1259,
      "max": [
        0.408954918384552,
        0.35649538040161133
      ],
      "min": [
        0.30087968707084656,
        0.21254116296768188
      ],
      "type": "VEC2"
    },
    {
      "bufferView": 0,
      "byteOffset": 296448,
      "componentType": 5125,
      "count": 2160,
      "type": "SCALAR"
    },
    {
      "bufferView": 2,
      "byteOffset": 360048,
      "componentType": 5126,
      "count": 15054,
      "max": [
        13.903704643249512,
        4.916075229644775,
        5.253646373748779
      ],
      "min": [
        -13.903703689575195,
        -12.441622734069824,
        -2.9538419246673584
      ],
      "type": "VEC3"
    },
    {
      "bufferView": 2,
      "byteOffset": 540696,
      "componentType": 5126,
      "count": 15054,
      "max": [
        0.9999980926513672,
        1.0,
        0.9999980926513672
      ],
      "min": [
        -0.9999980926513672,
        -1.0,
        -0.9999980926513672
      ],
      "type": "VEC3"
    },
    {
      "bufferView": 3,
      "byteOffset": 240032,
      "componentType": 5126,
      "count": 15054,
      "max": [
        0.999958872795105,
        0.9999980330467224,
        0.9999992251396179,
        1.0
      ],
      "min": [
        -0.9999786019325256,
        -0.9999980926513672,
        -0.9999992847442627,
        -1.0
      ],
      "type": "VEC4"
    },
    {
      "bufferView": 1,
      "byteOffset": 480064,
      "componentType": 5126,
      "count": 15054,
      "max": [
        0.9884283542633057,
        0.9948375821113586
      ],
      "min": [
        0.4279789924621582,
        0.48261553049087524
      ],
      "type": "VEC2"
    },
    {
      "bufferView": 1,
      "byteOffset": 600496,
      "componentType": 5126,
      "count": 15054,
      "max": [
        0.9884283542633057,
        0.9948375821113586
      ],
      "min": [
        0.4279789924621582,
        0.48261553049087524
      ],
      "type": "VEC2"
    },
    {
      "bufferView": 1,
      "byteOffset": 720928,
      "componentType": 5126,
      "count": 15054,
      "max": [
        0.9884283542633057,
        0.9948375821113586
      ],
      "min": [
        0.4279789924621582,
        0.48261553049087524
      ],
      "type": "VEC2"
    },
    {
      "bufferView": 1,
      "byteOffset": 841360,
      "componentType": 5126,
      "count": 15054,
      "max": [
        0.9884283542633057,
        0.9948375821113586
      ],
      "min": [
        0.4279789924621582,
        0.48261553049087524
      ],
      "type": "VEC2"
    },
    {
      "bufferView": 0,
      "byteOffset": 305088,
      "componentType": 5125,
      "count": 83712,
      "type": "SCALAR"
    },
    {
      "bufferView": 2,
      "byteOffset": 721344,
      "componentType": 5126,
      "count": 17435,
      "max": [
        11.192612648010254,
        2.3366334438323975,
        11.19261360168457
      ],
      "min": [
        -11.192614555358887,
        -15.47380542755127,
        -11.192614555358887
      ],
      "type": "VEC3"
    },
    {
      "bufferView": 2,
      "byteOffset": 930564,
      "componentType": 5126,
      "count": 17435,
      "max": [
        1.0,
        1.0,
        1.0
      ],
      "min": [
        -1.0,
        -1.0,
        -1.0
      ],
      "type": "VEC3"
    },
    {
      "bufferView": 3,
      "byteOffset": 480896,
      "componentType": 5126,
      "count": 17435,
      "max": [
        0.999930739402771,
        0.9999851584434509,
        0.9999910593032837,
        1.0
      ],
      "min": [
        -1.0,
        -0.9999994039535522,
        -0.9997913837432861,
        -1.0
      ],
      "type": "VEC4"
    },
    {
      "bufferView": 1,
      "byteOffset": 961792,
      "componentType": 5126,
      "count": 17435,
      "max": [
        0.7351499795913696,
        0.9949804544448853
      ],
      "min": [
        0.10827469080686569,
        0.0067536234855651855
      ],
      "type": "VEC2"
    },
    {
      "bufferView": 1,
      "byteOffset": 1101272,
      "componentType": 5126,
      "count": 17435,
      "max": [
        0.7351499795913696,
        0.9949804544448853
      ],
      "min": [
        0.10827469080686569,
        0.0067536234855651855
      ],
      "type": "VEC2"
    },
    {
      "bufferView": 1,
      "byteOffset": 1240752,
      "componentType": 5126,
      "count": 17435,
      "max": [
        0.7351499795913696,
        0.9949804544448853
      ],
      "min": [
        0.10827469080686569,
        0.0067536234855651855
      ],
      "type": "VEC2"
    },
    {
      "bufferView": 1,
      "byteOffset": 1380232,
      "componentType": 5126,
      "count": 17435,
      "max": [
        0.7351499795913696,
        0.9949804544448853
      ],
      "min": [
        0.10827469080686569,
        0.0067536234855651855
      ],
      "type": "VEC2"
    },
    {
      "bufferView": 0,
      "byteOffset": 639936,
      "componentType": 5125,
      "count": 96384,
      "type": "SCALAR"
    },
    {
      "bufferView": 2,
      "byteOffset": 1139784,
      "componentType": 5126,
      "count": 17435,
      "max": [
        11.192612648010254,
        2.3366334438323975,
        11.19261360168457
      ],
      "min": [
        -11.192614555358887,
        -15.47380542755127,
        -11.192614555358887
      ],
      "type": "VEC3"
    },
    {
      "bufferView": 2,
      "byteOffset": 1349004,
      "componentType": 5126,
      "count": 17435,
      "max": [
        1.0,
        1.0,
        1.0
      ],
      "min": [
        -1.0,
        -1.0,
        -1.0
      ],
      "type": "VEC3"
    },
    {
      "bufferView": 3,
      "byteOffset": 759856,
      "componentType": 5126,
      "count": 17435,
      "max": [
        0.999930739402771,
        0.9999851584434509,
        0.9999910593032837,
        1.0
      ],
      "min": [
        -1.0,
        -0.9999994039535522,
        -0.9997913837432861,
        -1.0
      ],
      "type": "VEC4"
    },
    {
      "bufferView": 1,
      "byteOffset": 1519712,
      "componentType": 5126,
      "count": 17435,
      "max": [
        0.7351499795913696,
        0.9949804544448853
      ],
      "min": [
        0.10827469080686569,
        0.0067536234855651855
      ],
      "type": "VEC2"
    },
    {
      "bufferView": 1,
      "byteOffset": 1659192,
      "componentType": 5126,
      "count": 17435,
      "max": [
        0.7351499795913696,
        0.9949804544448853
      ],
      "min": [
        0.10827469080686569,
        0.0067536234855651855
      ],
      "type": "VEC2"
    },
    {
      "bufferView": 1,
      "byteOffset": 1798672,
      "componentType": 5126,
      "count": 17435,
      "max": [
        0.7351499795913696,
        0.9949804544448853
      ],
      "min": [
        0.10827469080686569,
        0.0067536234855651855
      ],
      "type": "VEC2"
    },
    {
      "bufferView": 1,
      "byteOffset": 1938152,
      "componentType": 5126,
      "count": 17435,
      "max": [
        0.7351499795913696,
        0.9949804544448853
      ],
      "min": [
        0.10827469080686569,
        0.0067536234855651855
      ],
      "type": "VEC2"
    },
    {
      "bufferView": 0,
      "byteOffset": 1025472,
      "componentType": 5125,
      "count": 96384,
      "type": "SCALAR"
    },
    {
      "bufferView": 2,
      "byteOffset": 1558224,
      "componentType": 5126,
      "count": 13842,
      "max": [
        3.3184547424316406,
        1.6924749612808228,
        6.577544689178467
      ],
      "min": [
        -3.3184542655944824,
        -1.6921284198760986,
        -2.1102805137634277
      ],
      "type": "VEC3"
    },
    {
      "bufferView": 2,
      "byteOffset": 1724328,
      "componentType": 5126,
      "count": 13842,
      "max": [
        0.9999958276748657,
        0.9998588562011719,
        1.0
      ],
      "min": [
        -0.9999958276748657,
        -0.9927765727043152,
        -0.9999155402183533
      ],
      "type": "VEC3"
    },
    {
      "bufferView": 3,
      "byteOffset": 1038816,
      "componentType": 5126,
      "count": 13842,
      "max": [
        0.9975034594535828,
        1.0,
        0.9997996687889099,
        1.0
      ],
      "min": [
        -0.9986106157302856,
        -0.9999982118606567,
        -0.9997378587722778,
        -1.0
      ],
      "type": "VEC4"
    },
    {
      "bufferView": 1,
      "byteOffset": 2077632,
      "componentType": 5126,
      "count": 13842,
      "max": [
        0.28490713238716125,
        0.4299464225769043
      ],
      "min": [
        0.018493913114070892,
        0.01916027069091797
      ],
      "type": "VEC2"
    },
    {
      "bufferView": 1,
      "byteOffset": 2188368,
      "componentType": 5126,
      "count": 13842,
      "max": [
        0.28490713238716125,
        0.4299464225769043
      ],
      "min": [
        0.018493913114070892,
        0.01916027069091797
      ],
      "type": "VEC2"
    },
    {
      "bufferView": 1,
      "byteOffset": 2299104,
      "componentType": 5126,
      "count": 13842,
      "max": [
        0.28490713238716125,
        0.4299464225769043
      ],
      "min": [
        0.018493913114070892,
        0.01916027069091797
      ],
      "type": "VEC2"
    },
    {
      "bufferView": 1,
      "byteOffset": 2409840,
      "componentType": 5126,
      "count": 13842,
      "max": [
        0.28490713238716125,
        0.4299464225769043
      ],
      "min": [
        0.018493913114070892,
        0.01916027069091797
      ],
      "type": "VEC2"
    },
    {
      "bufferView": 0,
      "byteOffset": 1411008,
      "componentType": 5125,
      "count": 21888,
      "type": "SCALAR"
    },
    {
      "bufferView": 2,
      "byteOffset": 1890432,
      "componentType": 5126,
      "count": 1524,
      "max": [
        1.0303170680999756,
        -0.9017160534858704,
        0.6426356434822083
      ],
      "min": [
        -1.0303170680999756,
        -0.9337154030799866,
        0.3952292203903198
      ],
      "type": "VEC3"
    },
    {
      "bufferView": 2,
      "byteOffset": 1908720,
      "componentType": 5126,
      "count": 1524,
      "max": [
        0.9729264974594116,
        0.9994795918464661,
        0.999863862991333
      ],
      "min": [
        -0.9729489684104919,
        -0.9995984435081482,
        -0.9999088048934937
      ],
      "type": "VEC3"
    },
    {
      "bufferView": 1,
      "byteOffset": 2520576,
      "componentType": 5126,
      "count": 1524,
      "max": [
        0.9933034777641296,
        0.7983071804046631
      ],
      "min": [
        0.9033008813858032,
        0.7242624759674072
      ],
      "type": "VEC2"
    },
    {
      "bufferView": 0,
      "byteOffset": 1498560,
      "componentType": 5125,
      "count": 8064,
      "type": "SCALAR"
    },
    {
      "bufferView": 2,
      "byteOffset": 1927008,
      "componentType": 5126,
      "count": 3048,
      "max": [
        1.027599811553955,
        -0.9342655539512634,
        1.7380343675613403
      ],
      "min": [
        -1.0275996923446655,
        -1.0776870250701904,
        0.3303868770599365
      ],
      "type": "VEC3"
    },
    {
      "bufferView": 2,
      "byteOffset": 1963584,
      "componentType": 5126,
      "count": 3048,
      "max": [
        0.9987422823905945,
        0.998773455619812,
        0.9999427199363708
      ],
      "min": [
        -0.9987422823905945,
        -0.9987691640853882,
        -0.9993320107460022
      ],
      "type": "VEC3"
    },
    {
      "bufferView": 3,
      "byteOffset": 1260288,
      "componentType": 5126,
      "count": 3048,
      "max": [
        0.9996965527534485,
        0.9996391534805298,
        0.9999699592590332,
        1.0
      ],
      "min": [
        -0.9996901154518127,
        -0.9995501637458801,
        -0.9999982714653015,
        -1.0
      ],
      "type": "VEC4"
    },
    {
      "bufferView": 1,
      "byteOffset": 2532768,
      "componentType": 5126,
      "count": 3048,
      "max": [
        0.17414437234401703,
        0.60894775390625
      ],
      "min": [
        0.024790387600660324,
        0.3157736659049988
      ],
      "type": "VEC2"
    },
    {
      "bufferView": 1,
      "byteOffset": 2557152,
      "componentType": 5126,
      "count": 3048,
      "max": [
        0.17414437234401703,
        0.60894775390625
      ],
      "min": [
        0.024790387600660324,
        0.3157736659049988
      ],
      "type": "VEC2"
    },
    {
      "bufferView": 1,
      "byteOffset": 2581536,
      "componentType": 5126,
      "count": 3048,
      "max": [
        0.17414437234401703,
        0.60894775390625
      ],
      "min": [
        0.024790387600660324,
        0.3157736659049988
      ],
      "type": "VEC2"
    },
    {
      "bufferView": 1,
      "byteOffset": 2605920,
      "componentType": 5126,
      "count": 3048,
      "max": [
        0.17414437234401703,
        0.60894775390625
      ],
      "min": [
        0.024790387600660324,
        0.3157736659049988
      ],
      "type": "VEC2"
    },
    {
      "bufferView": 0,
      "byteOffset": 1530816,
      "componentType": 5125,
      "count": 15360,
      "type": "SCALAR"
    },
    {
      "bufferView": 2,
      "byteOffset": 2000160,
      "componentType": 5126,
      "count": 5108,
      "max": [
        0.9840977191925049,
        -0.998690128326416,
        2.2365989685058594
      ],
      "min": [
        -0.9840976595878601,
        -1.0897420644760132,
        1.5893877744674683
      ],
      "type": "VEC3"
    },
    {
      "bufferView": 2,
      "byteOffset": 2061456,
      "componentType": 5126,
      "count": 5108,
      "max": [
        0.9987398982048035,
        0.9987056255340576,
        0.9999593496322632
      ],
      "min": [
        -0.9987398982048035,
        -0.9987479448318481,
        -0.9999974966049194
      ],
      "type": "VEC3"
    },
    {
      "bufferView": 3,
      "byteOffset": 1309056,
      "componentType": 5126,
      "count": 5108,
      "max": [
        0.9997589588165283,
        0.9998447299003601,
        0.9993072152137756,
        1.0
      ],
      "min": [
        -0.9998123049736023,
        -0.9999175667762756,
        -0.9993477463722229,
        -1.0
      ],
      "type": "VEC4"
    },
    {
      "bufferView": 1,
      "byteOffset": 2630304,
      "componentType": 5126,
      "count": 5108,
      "max": [
        0.24257700145244598,
        0.9703908562660217
      ],
      "min": [
        0.017573043704032898,
        0.6634483933448792
      ],
      "type": "VEC2"
    },
    {
      "bufferView": 1,
      "byteOffset": 2671168,
      "componentType": 5126,
      "count": 5108,
      "max": [
        0.24257700145244598,
        0.9703908562660217
      ],
      "min": [
        0.017573043704032898,
        0.6634483933448792
      ],
      "type": "VEC2"
    },
    {
      "bufferView": 1,
      "byteOffset": 2712032,
      "componentType": 5126,
      "count": 5108,
      "max": [
        0.24257700145244598,
        0.9703908562660217
      ],
      "min": [
        0.017573043704032898,
        0.6634483933448792
      ],
      "type": "VEC2"
    },
    {
      "bufferView": 1,
      "byteOffset": 2752896,
      "componentType": 5126,
      "count": 5108,
      "max": [
        0.24257700145244598,
        0.9703908562660217
      ],
      "min": [
        0.017573043704032898,
        0.6634483933448792
      ],
      "type": "VEC2"
    },
    {
      "bufferView": 0,
      "byteOffset": 1592256,
      "componentType": 5125,
      "count": 27648,
      "type": "SCALAR"
    },
    {
      "bufferView": 2,
      "byteOffset": 2122752,
      "componentType": 5126,
      "count": 7676,
      "max": [
        0.3725431561470032,
        1.052190899848938,
        0.37243393063545227
      ],
      "min": [
        -0.3725363314151764,
        0.9160951375961304,
        -0.3726333677768707
      ],
      "type": "VEC3"
    },
    {
      "bufferView": 2,
      "byteOffset": 2214864,
      "componentType": 5126,
      "count": 7676,
      "max": [
        0.9998830556869507,
        1.0,
        1.0
      ],
      "min": [
        -0.9999188184738159,
        -0.9999995231628418,
        -1.0
      ],
      "type": "VEC3"
    },
    {
      "bufferView": 3,
      "byteOffset": 1390784,
      "componentType": 5126,
      "count": 7676,
      "max": [
        0.9999651908874512,
        0.9999998807907104,
        0.9998587369918823,
        1.0
      ],
      "min": [
        -0.9997485280036926,
        -1.0,
        -0.999982476234436,
        -1.0
      ],
      "type": "VEC4"
    },
    {
      "bufferView": 1,
      "byteOffset": 2793760,
      "componentType": 5126,
      "count": 7676,
      "max": [
        0.511035680770874,
        0.3428805470466614
      ],
      "min": [
        0.26151710748672485,
        0.0016292929649353027
      ],
      "type": "VEC2"
    },
    {
      "bufferView": 1,
      "byteOffset": 2855168,
      "componentType": 5126,
      "count": 7676,
      "max": [
        0.511035680770874,
        0.3428805470466614
      ],
      "min": [
        0.26151710748672485,
        0.0016292929649353027
      ],
      "type": "VEC2"
    },
    {
      "bufferView": 1,
      "byteOffset": 2916576,
      "componentType": 5126,
      "count": 7676,
      "max": [
        0.511035680770874,
        0.3428805470466614
      ],
      "min": [
        0.26151710748672485,
        0.0016292929649353027
      ],
      "type": "VEC2"
    },
    {
      "bufferView": 1,
      "byteOffset": 2977984,
      "componentType": 5126,
      "count": 7676,
      "max": [
        0.511035680770874,
        0.3428805470466614
      ],
      "min": [
        0.26151710748672485,
        0.0016292929649353027
      ],
      "type": "VEC2"
    },
    {
      "bufferView": 0,
      "byteOffset": 1702848,
      "componentType": 5125,
      "count": 44160,
      "type": "SCALAR"
    },
    {
      "bufferView": 2,
      "byteOffset": 2306976,
      "componentType": 5126,
      "count": 145,
      "max": [
        0.2878739535808563,
        0.28787392377853394,
        0.9856062531471252
      ],
      "min": [
        -0.28787392377853394,
        -0.2878739535808563,
        0.985499382019043
      ],
      "type": "VEC3"
    },
    {
      "bufferView": 2,
      "byteOffset": 2308716,
      "componentType": 5126,
      "count": 145,
      "max": [
        0.007399722933769226,
        0.007399722933769226,
        1.0
      ],
      "min": [
        -0.007399722933769226,
        -0.007399722933769226,
        0.9999524354934692
      ],
      "type": "VEC3"
    },
    {
      "bufferView": 3,
      "byteOffset": 1513600,
      "componentType": 5126,
      "count": 145,
      "max": [
        0.4566526710987091,
        0.952552855014801,
        0.008671936579048634,
        -1.0
      ],
      "min": [
        0.30424991250038147,
        0.8896336555480957,
        -0.008672134950757027,
        -1.0
      ],
      "type": "VEC4"
    },
    {
      "bufferView": 1,
      "byteOffset": 3039392,
      "componentType": 5126,
      "count": 145,
      "max": [
        0.8524612784385681,
        0.12172406911849976
      ],
      "min": [
        0.8059132695198059,
        0.07517606019973755
      ],
      "type": "VEC2"
    },
    {
      "bufferView": 1,
      "byteOffset": 3040552,
      "componentType": 5126,
      "count": 145,
      "max": [
        0.8524612784385681,
        0.12172406911849976
      ],
      "min": [
        0.8059132695198059,
        0.07517606019973755
      ],
      "type": "VEC2"
    },
    {
      "bufferView": 1,
      "byteOffset": 3041712,
      "componentType": 5126,
      "count": 145,
      "max": [
        0.8524612784385681,
        0.12172406911849976
      ],
      "min": [
        0.8059132695198059,
        0.07517606019973755
      ],
      "type": "VEC2"
    },
    {
      "bufferView": 1,
      "byteOffset": 3042872,
      "componentType": 5126,
      "count": 145,
      "max": [
        0.8524612784385681,
        0.12172406911849976
      ],
      "min": [
        0.8059132695198059,
        0.07517606019973755
      ],
      "type": "VEC2"
    },
    {
      "bufferView": 0,
      "byteOffset": 1879488,
      "componentType": 5125,
      "count": 768,
      "type": "SCALAR"
    },
    {
      "bufferView": 4,
      "componentType": 5126,
      "count": 256,
      "max": [
        12.458333015441895
      ],
      "min": [
        0.0416666679084301
      ],
      "type": "SCALAR"
    },
    {
      "bufferView": 5,
      "componentType": 5126,
      "count": 256,
      "max": [
        0.0,
        0.9999381303787231,
        -0.0,
        1.0
      ],
      "min": [
        0.0,
        -0.9997614026069641,
        -0.0,
        0.011125139892101288
      ],
      "type": "VEC4"
    }
  ],
  "asset": {
    "extras": {
      "author": "Abhkur (https://sketchfab.com/abhkur)",
      "license": "CC-BY-4.0 (http://creativecommons.org/licenses/by/4.0/)",
      "source": "https://sketchfab.com/3d-models/star-war-ship-03c654a000e64ba99cd86bb8cbacace4",
      "title": "Star War ship"
    },
    "generator": "Sketchfab-15.46.0",
    "version": "2.0"
  },
  "bufferViews": [
    {
      "buffer": 0,
      "byteLength": 1882560,
      "name": "floatBufferViews",
      "target": 34963
    },
    {
      "buffer": 0,
      "byteLength": 3044032,
      "byteOffset": 1882560,
      "byteStride": 8,
      "name": "floatBufferViews",
      "target": 34962
    },
    {
      "buffer": 0,
      "byteLength": 2310456,
      "byteOffset": 4926592,
      "byteStride": 12,
      "name": "floatBufferViews",
      "target": 34962
    },
    {
      "buffer": 0,
      "byteLength": 1515920,
      "byteOffset": 7237048,
      "byteStride": 16,
      "name": "floatBufferViews",
      "target": 34962
    },
    {
      "buffer": 0,
      "byteLength": 1024,
      "byteOffset": 8752968,
      "name": "floatBufferViews"
    },
    {
      "buffer": 0,
      "byteLength": 4096,
      "byteOffset": 8753992,
      "byteStride": 16,
      "name": "floatBufferViews"
    }
  ],
  "buffers": [
    {
      "byteLength": 8758088,
      "uri": "scene.bin"
    }
  ],
  "images": [
    {
      "uri": "textures/Material.001_baseColor.png"
    },
    {
      "uri": "textures/Material.001_metallicRoughness.png"
    },
    {
      "uri": "textures/Material.001_normal.png"
    }
  ],
  "materials": [
    {
      "doubleSided": true,
      "name": "material_0",
      "pbrMetallicRoughness": {
        "metallicFactor": 0.0,
        "roughnessFactor": 0.6
      }
    },
    {
      "doubleSided": true,
      "name": "Material.001",
      "normalTexture": {
        "index": 2
      },
      "pbrMetallicRoughness": {
        "baseColorTexture": {
          "index": 0
        },
        "metallicRoughnessTexture": {
          "index": 1
        }
      }
    }
  ],
  "meshes": [
    {
      "name": "Object_0",
      "primitives": [
        {
          "attributes": {
            "NORMAL": 1,
            "POSITION": 0,
            "TANGENT": 2,
            "TEXCOORD_0": 3,
            "TEXCOORD_1": 4,
            "TEXCOORD_2": 5,
            "TEXCOORD_3": 6
          },
          "indices": 7,
          "material": 1,
          "mode": 4
        }
      ]
    },
    {
      "name": "Object_1",
      "primitives": [
        {
          "attributes": {
            "NORMAL": 9,
            "POSITION": 8,
            "TANGENT": 10,
            "TEXCOORD_0": 11,
            "TEXCOORD_1": 12,
            "TEXCOORD_2": 13,
            "TEXCOORD_3": 14
          },
          "indices": 15,
          "material": 1,
          "mode": 4
        }
      ]
    },
    {
      "name": "Object_2",
      "primitives": [
        {
          "attributes": {
            "NORMAL": 17,
            "POSITION": 16,
            "TANGENT": 18,
            "TEXCOORD_0": 19,
            "TEXCOORD_1": 20,
            "TEXCOORD_2": 21,
            "TEXCOORD_3": 22
          },
          "indices": 23,
          "material": 1,
          "mode": 4
        }
      ]
    },
    {
      "name": "Object_3",
      "primitives": [
        {
          "attributes": {
            "NORMAL": 25,
            "POSITION": 24,
            "TANGENT": 26,
            "TEXCOORD_0": 27,
            "TEXCOORD_1": 28,
            "TEXCOORD_2": 29,
            "TEXCOORD_3": 30
          },
          "indices": 31,
          "material": 1,
          "mode": 4
        }
      ]
    },
    {
      "name": "Object_4",
      "primitives": [
        {
          "attributes": {
            "NORMAL": 33,
            "POSITION": 32,
            "TANGENT": 34,
            "TEXCOORD_0": 35,
            "TEXCOORD_1": 36,
            "TEXCOORD_2": 37,
            "TEXCOORD_3": 38
          },
          "indices": 39,
          "material": 1,
          "mode": 4
        }
      ]
    },
    {
      "name": "Object_5",
      "primitives": [
        {
          "attributes": {
            "NORMAL": 41,
            "POSITION": 40,
            "TANGENT": 42,
            "TEXCOORD_0": 43,
            "TEXCOORD_1": 44,
            "TEXCOORD_2": 45,
            "TEXCOORD_3": 46
          },
          "indices": 47,
          "material": 1,
          "mode": 4
        }
      ]
    },
    {
      "name": "Object_6",
      "primitives": [
        {
          "attributes": {
            "NORMAL": 49,
            "POSITION": 48,
            "TEXCOORD_0": 50
          },
          "indices": 51,
          "material": 0,
          "mode": 4
        }
      ]
    },
    {
      "name": "Object_7",
      "primitives": [
        {
          "attributes": {
            "NORMAL": 53,
            "POSITION": 52,
            "TANGENT": 54,
            "TEXCOORD_0": 55,
            "TEXCOORD_1": 56,
            "TEXCOORD_2": 57,
            "TEXCOORD_3": 58
          },
          "indices": 59,
          "material": 1,
          "mode": 4
        }
      ]
    },
    {
      "name": "Object_8",
      "primitives": [
        {
          "attributes": {
            "NORMAL": 61,
            "POSITION": 60,
            "TANGENT": 62,
            "TEXCOORD_0": 63,
            "TEXCOORD_1": 64,
            "TEXCOORD_2": 65,
            "TEXCOORD_3": 66
          },
          "indices": 67,
          "material": 1,
          "mode": 4
        }
      ]
    },
    {
      "name": "Object_9",
      "primitives": [
        {
          "attributes": {
            "NORMAL": 69,
            "POSITION": 68,
            "TANGENT": 70,
            "TEXCOORD_0": 71,
            "TEXCOORD_1": 72,
            "TEXCOORD_2": 73,
            "TEXCOORD_3": 74
          },
          "indices": 75,
          "material": 1,
          "mode": 4
        }
      ]
    },
    {
      "name": "Object_10",
      "primitives": [
        {
          "attributes": {
            "NORMAL": 77,
            "POSITION": 76,
            "TANGENT": 78,
            "TEXCOORD_0": 79,
            "TEXCOORD_1": 80,
            "TEXCOORD_2": 81,
            "TEXCOORD_3": 82
          },
          "indices": 83,
          "material": 1,
          "mode": 4
        }
      ]
    }
  ],
  "nodes": [
    {
      "children": [
        1
      ],
      "matrix": [
        1.0,
        0.0,
        0.0,
        0.0,
        0.0,
        2.220446049250313e-16,
        -1.0,
        0.0,
        0.0,
        1.0,
        2.220446049250313e-16,
        0.0,
        0.0,
        0.0,
        0.0,
        1.0
      ],
      "name": "Sketchfab_model"
    },
    {
      "children": [
        2
      ],
      "name": "root"
    },
    {
      "children": [
        3
      ],
      "matrix": [
        1.0,
        0.0,
        0.0,
        0.0,
        0.0,
        2.220446049250313e-16,
        1.0,
        0.0,
        0.0,
        -1.0,
        2.220446049250313e-16,
        0.0,
        0.0,
        0.0,
        0.0,
        1.0
      ],
      "name": "GLTF_SceneRootNode"
    },
    {
      "children": [
        4
      ],
      "name": "Empty_11",
      "scale": [
        17.86362075805664,
        17.86362075805664,
        17.86362075805664
      ],
      "translation": [
        0.0,
        0.0,
        0.04247620701789856
      ]
    },
    {
      "children": [
        5,
        6,
        8,
        10,
        12,
        14,
        16,
        18,
        20,
        22,
        24
      ],
      "name": "Sphere.012_10",
      "rotation": [
        0.0,
        -0.3206360638141632,
        0.0,
        0.9472025036811829
      ],
      "scale": [
        0.08961761742830276,
        0.08961762487888336,
        0.08961761742830276
      ],
      "translation": [
        0.017909346148371696,
        0.1744103580713272,
        0.01575358957052231
      ]
    },
    {
      "mesh": 0,
      "name": "Object_5"
    },
    {
      "children": [
        7
      ],
      "matrix": [
        0.04263332113623619,
        0.0,
        0.0,
        0.0,
        0.0,
        0.04263332113623619,
        0.0,
        0.0,
        0.0,
        0.0,
        0.10629349946975708,
        0.0,
        0.0,
        0.9225466251373291,
        -0.36486685276031494,
        1.0
      ],
      "name": "Cube.002_0"
    },
    {
      "mesh": 1,
      "name": "Object_7"
    },
    {
      "children": [
        9
      ],
      "matrix": [
        0.23257404565811157,
        0.0,
        0.0,
        0.0,
        0.0,
        0.0,
        0.23257404565811157,
        0.0,
        0.0,
        -0.23257404565811157,
        0.0,
        0.0,
        0.0,
        0.0,
        0.0,
        1.0
      ],
      "name": "Cylinder.006_1"
    },
    {
      "mesh": 2,
      "name": "Object_9"
    },
    {
      "children": [
        11
      ],
      "matrix": [
        0.02479703124776394,
        -0.04444935097694661,
        4.345028126364212e-09,
        0.0,
        4.345028126364212e-09,
        7.399396455891083e-09,
        0.05089830607175755,
        0.0,
        -0.04444935097694661,
        -0.024797031247763213,
        7.399396455891083e-09,
        0.0,
        -2.3086438179016113,
        0.0,
        1.1807941198349,
        1.0
      ],
      "name": "Cylinder.007_2"
    },
    {
      "mesh": 3,
      "name": "Object_11"
    },
    {
      "children": [
        13
      ],
      "matrix": [
        0.02479703124776394,
        -0.04444935097694661,
        4.345028126364212e-09,
        0.0,
        4.345028126364212e-09,
        7.399396455891083e-09,
        0.05089830607175755,
        0.0,
        -0.04444935097694661,
        -0.024797031247763213,
        7.399396455891083e-09,
        0.0,
        2.3086447715759277,
        0.0,
        1.1807936429977417,
        1.0
      ],
      "name": "Cylinder.008_3"
    },
    {
      "mesh": 4,
      "name": "Object_13"
    },
    {
      "children": [
        15
      ],
      "name": "Sphere.013_4"
    },
    {
      "mesh": 5,
      "name": "Object_15"
    },
    {
      "children": [
        17
      ],
      "matrix": [
        1.0,
        0.0,
        0.0,
        0.0,
        0.0,
        1.0,
        0.0,
        0.0,
        0.0,
        0.0,
        1.0,
        0.0,
        0.0,
        0.0,
        0.12309859693050385,
        1.0
      ],
      "name": "Sphere.014_5"
    },
    {
      "mesh": 6,
      "name": "Object_17"
    },
    {
      "children": [
        19
      ],
      "matrix": [
        1.0,
        0.0,
        0.0,
        0.0,
        0.0,
        1.0,
        0.0,
        0.0,
        0.0,
        0.0,
        1.0,
        0.0,
        0.0,
        0.0,
        -0.13406245410442352,
        1.0
      ],
      "name": "Sphere.015_6"
    },
    {
      "mesh": 7,
      "name": "Object_19"
    },
    {
      "children": [
        21
      ],
      "matrix": [
        1.0,
        0.0,
        0.0,
        0.0,
        0.0,
        1.0,
        0.0,
        0.0,
        0.0,
        0.0,
        1.0,
        0.0,
        0.0,
        0.0,
        -0.060326073318719864,
        1.0
      ],
      "name": "Sphere.016_7"
    },
    {
      "mesh": 8,
      "name": "Object_21"
    },
    {
      "children": [
        23
      ],
      "name": "Sphere.017_8"
    },
    {
      "mesh": 9,
      "name": "Object_23"
    },
    {
      "children": [
        25
      ],
      "name": "Sphere.018_9"
    },
    {
      "mesh": 10,
      "name": "Object_25"
    }
  ],
  "samplers": [
    {
      "magFilter": 9729,
      "minFilter": 9987,
      "wrapS": 10497,
      "wrapT": 10497
    }
  ],
  "scene": 0,
  "scenes": [
    {
      "name": "Sketchfab_Scene",
      "nodes": [
        0
      ]
    }
  ],
  "textures": [
    {
      "sampler": 0,
      "source": 0
    },
    {
      "sampler": 0,
      "source": 1
    },
    {
      "sampler": 0,
      "source": 2
    }
  ]
}