{
  "accessors": [
    {
      "bufferView": 2,
      "componentType": 5126,
      "count": 65534,
      "max": [
        9117.0517578125,
        4510.2548828125,
        3202.896240234375
      ],
      "min": [
        -2651.5078125,
        -4496.458984375,
        -469.1087646484375
      ],
      "type": "VEC3"
    },
    {
      "bufferView": 2,
      "byteOffset": 786408,
      "componentType": 5126,
      "count": 65534,
      "max": [
        1.0,
        1.0,
        1.0
      ],
      "min": [
        -1.0,
        -1.0,
        -1.0
      ],
      "type": "VEC3"
    },
    {
      "bufferView": 3,
      "componentType": 5126,
      "count": 65534,
      "max": [
        1.0,
        1.0,
        1.0,
        1.0
      ],
      "min": [
        -1.0,
        -1.0,
        -1.0,
        -1.0
      ],
      "type": "VEC4"
    },
    {
      "bufferView": 1,
      "componentType": 5126,
      "count": 65534,
      "max": [
        0.9983066916465759,
        0.9990471601486206
      ],
      "min": [
        0.0006740759126842022,
        0.003173090983182192
      ],
      "type": "VEC2"
    },
    {
      "bufferView": 1,
      "byteOffset": 524272,
      "componentType": 5126,
      "count": 65534,
      "max": [
        981.2443237304688,
        1572.37890625
      ],
      "min": [
        -2424.89794921875,
        -3980.91943359375
      ],
      "type": "VEC2"
    },
    {
      "bufferView": 0,
      "componentType": 5125,
      "count": 155724,
      "type": "SCALAR"
    },
    {
      "bufferView": 2,
      "byteOffset": 1572816,
      "componentType": 5126,
      "count": 65532,
      "max": [
        9345.08203125,
        693.7218627929688,
        3182.14111328125
      ],
      "min": [
        -2842.419677734375,
        -4516.9931640625,
        -439.9108581542969
      ],
      "type": "VEC3"
    },
    {
      "bufferView": 2,
      "byteOffset": 2359200,
      "componentType": 5126,
      "count": 65532,
      "max": [
        1.0,
        1.0,
        1.0
      ],
      "min": [
        -1.0,
        -1.0,
        -1.0
      ],
      "type": "VEC3"
    },
    {
      "bufferView": 3,
      "byteOffset": 1048544,
      "componentType": 5126,
      "count": 65532,
      "max": [
        1.0,
        1.0,
        1.0,
        1.0
      ],
      "min": [
        -1.0,
        -1.0,
        -1.0,
        -1.0
      ],
      "type": "VEC4"
    },
    {
      "bufferView": 1,
      "byteOffset": 1048544,
      "componentType": 5126,
      "count": 65532,
      "max": [
        0.999358057975769,
        0.999500036239624
      ],
      "min": [
        0.0006740759126842022,
        0.0010244051227346063
      ],
      "type": "VEC2"
    },
    {
      "bufferView": 1,
      "byteOffset": 1572800,
      "componentType": 5126,
      "count": 65532,
      "max": [
        981.2443237304688,
        1543.180908203125
      ],
      "min": [
        -2431.632568359375,
        -2539.101318359375
      ],
      "type": "VEC2"
    },
    {
      "bufferView": 0,
      "byteOffset": 622896,
      "componentType": 5125,
      "count": 184338,
      "type": "SCALAR"
    },
    {
      "bufferView": 2,
      "byteOffset": 3145584,
      "componentType": 5126,
      "count": 65532,
      "max": [
        8346.88671875,
        824.2803955078125,
        3180.333740234375
      ],
      "min": [
        -3093.490478515625,
        -4211.4736328125,
        -433.9224853515625
      ],
      "type": "VEC3"
    },
    {
      "bufferView": 2,
      "byteOffset": 3931968,
      "componentType": 5126,
      "count": 65532,
      "max": [
        1.0,
        1.0,
        1.0
      ],
      "min": [
        -1.0,
        -1.0,
        -1.0
      ],
      "type": "VEC3"
    },
    {
      "bufferView": 3,
      "byteOffset": 2097056,
      "componentType": 5126,
      "count": 65532,
      "max": [
        1.0,
        1.0,
        1.0,
        1.0
      ],
      "min": [
        -1.0,
        -1.0,
        -1.0,
        -1.0
      ],
      "type": "VEC4"
    },
    {
      "bufferView": 1,
      "byteOffset": 2097056,
      "componentType": 5126,
      "count": 65532,
      "max": [
        0.9989262819290161,
        0.9994542598724365
      ],
      "min": [
        0.0005000000237487257,
        0.0005000000237487257
      ],
      "type": "VEC2"
    },
    {
      "bufferView": 1,
      "byteOffset": 2621312,
      "componentType": 5126,
      "count": 65532,
      "max": [
        981.2443237304688,
        401.8402099609375
      ],
      "min": [
        -2578.657958984375,
        -3401.71923828125
      ],
      "type": "VEC2"
    },
    {
      "bufferView": 0,
      "byteOffset": 1360248,
      "componentType": 5125,
      "count": 175056,
      "type": "SCALAR"
    },
    {
      "bufferView": 2,
      "byteOffset": 4718352,
      "componentType": 5126,
      "count": 65532,
      "max": [
        9345.08203125,
        4516.98974609375,
        3182.14111328125
      ],
      "min": [
        1944.7130126953125,
        -3823.769775390625,
        -439.9108581542969
      ],
      "type": "VEC3"
    },
    {
      "bufferView": 2,
      "byteOffset": 5504736,
      "componentType": 5126,
      "count": 65532,
      "max": [
        1.0,
        1.0,
        1.0
      ],
      "min": [
        -1.0,
        -1.0,
        -1.0
      ],
      "type": "VEC3"
    },
    {
      "bufferView": 3,
      "byteOffset": 3145568,
      "componentType": 5126,
      "count": 65532,
      "max": [
        1.0,
        1.0,
        1.0,
        1.0
      ],
      "min": [
        -1.0,
        -1.0,
        -1.0,
        -1.0
      ],
      "type": "VEC4"
    },
    {
      "bufferView": 1,
      "byteOffset": 3145568,
      "componentType": 5126,
      "count": 65532,
      "max": [
        0.999358057975769,
        0.9990471601486206
      ],
      "min": [
        0.5009298920631409,
        0.0026605273596942425
      ],
      "type": "VEC2"
    },
    {
      "bufferView": 1,
      "byteOffset": 3669824,
      "componentType": 5126,
      "count": 65532,
      "max": [
        927.9783325195313,
        1543.180908203125
      ],
      "min": [
        -2431.632568359375,
        -3980.91943359375
      ],
      "type": "VEC2"
    },
    {
      "bufferView": 0,
      "byteOffset": 2060472,
      "componentType": 5125,
      "count": 162633,
      "type": "SCALAR"
    },
    {
      "bufferView": 2,
      "byteOffset": 6291120,
      "componentType": 5126,
      "count": 61288,
      "max": [
        8450.9189453125,
        4211.47119140625,
        3180.333740234375
      ],
      "min": [
        4538.19580078125,
        1075.912109375,
        -433.9224853515625
      ],
      "type": "VEC3"
    },
    {
      "bufferView": 2,
      "byteOffset": 7026576,
      "componentType": 5126,
      "count": 61288,
      "max": [
        1.0,
        1.0,
        1.0
      ],
      "min": [
        -1.0,
        -1.0,
        -1.0
      ],
      "type": "VEC3"
    },
    {
      "bufferView": 3,
      "byteOffset": 4194080,
      "componentType": 5126,
      "count": 61288,
      "max": [
        1.0,
        1.0,
        1.0,
        1.0
      ],
      "min": [
        -1.0,
        -1.0,
        -1.0,
        -1.0
      ],
      "type": "VEC4"
    },
    {
      "bufferView": 1,
      "byteOffset": 4194080,
      "componentType": 5126,
      "count": 61288,
      "max": [
        0.9992645382881165,
        0.9993501901626587
      ],
      "min": [
        0.5009298920631409,
        0.5009298920631409
      ],
      "type": "VEC2"
    },
    {
      "bufferView": 1,
      "byteOffset": 4684384,
      "componentType": 5126,
      "count": 61288,
      "max": [
        717.2576904296875,
        505.8721008300781
      ],
      "min": [
        -2578.657958984375,
        -3406.85107421875
      ],
      "type": "VEC2"
    },
    {
      "bufferView": 0,
      "byteOffset": 2711004,
      "componentType": 5125,
      "count": 185718,
      "type": "SCALAR"
    },
    {
      "bufferView": 2,
      "byteOffset": 7762032,
      "componentType": 5126,
      "count": 65532,
      "max": [
        3985.73681640625,
        2093.852783203125,
        2504.429443359375
      ],
      "min": [
        -2982.795166015625,
        -825.9713134765625,
        -339.2539367675781
      ],
      "type": "VEC3"
    },
    {
      "bufferView": 2,
      "byteOffset": 8548416,
      "componentType": 5126,
      "count": 65532,
      "max": [
        1.0,
        1.0,
        1.0
      ],
      "min": [
        -1.0,
        -1.0,
        -1.0
      ],
      "type": "VEC3"
    },
    {
      "bufferView": 3,
      "byteOffset": 5174688,
      "componentType": 5126,
      "count": 65532,
      "max": [
        1.0,
        1.0,
        1.0,
        1.0
      ],
      "min": [
        -1.0,
        -1.0,
        -1.0,
        -1.0
      ],
      "type": "VEC4"
    },
    {
      "bufferView": 1,
      "byteOffset": 5174688,
      "componentType": 5126,
      "count": 65532,
      "max": [
        0.999500036239624,
        0.9949486255645752
      ],
      "min": [
        0.0005000000237487257,
        0.0005000000237487257
      ],
      "type": "VEC2"
    },
    {
      "bufferView": 1,
      "byteOffset": 5698944,
      "componentType": 5126,
      "count": 65532,
      "max": [
        539.7992553710938,
        1269.1708984375
      ],
      "min": [
        -6747.62109375,
        -939.8336791992188
      ],
      "type": "VEC2"
    },
    {
      "bufferView": 0,
      "byteOffset": 3453876,
      "componentType": 5125,
      "count": 155802,
      "type": "SCALAR"
    },
    {
      "bufferView": 2,
      "byteOffset": 9334800,
      "componentType": 5126,
      "count": 65532,
      "max": [
        8331.248046875,
        2093.852783203125,
        2504.4296875
      ],
      "min": [
        -1759.264404296875,
        -2931.262939453125,
        -339.2539367675781
      ],
      "type": "VEC3"
    },
    {
      "bufferView": 2,
      "byteOffset": 10121184,
      "componentType": 5126,
      "count": 65532,
      "max": [
        1.0,
        1.0,
        1.0
      ],
      "min": [
        -1.0,
        -1.0,
        -1.0
      ],
      "type": "VEC3"
    },
    {
      "bufferView": 3,
      "byteOffset": 6223200,
      "componentType": 5126,
      "count": 65532,
      "max": [
        1.0,
        1.0,
        1.0,
        1.0
      ],
      "min": [
        -1.0,
        -1.0,
        -1.0,
        -1.0
      ],
      "type": "VEC4"
    },
    {
      "bufferView": 1,
      "byteOffset": 6223200,
      "componentType": 5126,
      "count": 65532,
      "max": [
        0.9983509182929993,
        0.9944590330123901
      ],
      "min": [
        0.0005000000237487257,
        0.0005000000237487257
      ],
      "type": "VEC2"
    },
    {
      "bufferView": 1,
      "byteOffset": 6747456,
      "componentType": 5126,
      "count": 65532,
      "max": [
        -672.5643920898438,
        1751.121826171875
      ],
      "min": [
        -10897.8095703125,
        -939.8358154296875
      ],
      "type": "VEC2"
    },
    {
      "bufferView": 0,
      "byteOffset": 4077084,
      "componentType": 5125,
      "count": 173919,
      "type": "SCALAR"
    },
    {
      "bufferView": 2,
      "byteOffset": 10907568,
      "componentType": 5126,
      "count": 19712,
      "max": [
        8331.2470703125,
        2931.2626953125,
        2488.788330078125
      ],
      "min": [
        -823.5046997070313,
        -720.2022094726563,
        -339.2539367675781
      ],
      "type": "VEC3"
    },
    {
      "bufferView": 2,
      "byteOffset": 11144112,
      "componentType": 5126,
      "count": 19712,
      "max": [
        1.0,
        1.0,
        1.0
      ],
      "min": [
        -1.0,
        -1.0,
        -1.0
      ],
      "type": "VEC3"
    },
    {
      "bufferView": 3,
      "byteOffset": 7271712,
      "componentType": 5126,
      "count": 19712,
      "max": [
        1.0,
        1.0,
        1.0,
        1.0
      ],
      "min": [
        -1.0,
        -1.0,
        -1.0,
        -1.0
      ],
      "type": "VEC4"
    },
    {
      "bufferView": 1,
      "byteOffset": 7271712,
      "componentType": 5126,
      "count": 19712,
      "max": [
        0.9983509182929993,
        0.9944590330123901
      ],
      "min": [
        0.0005000000237487257,
        0.0005000000237487257
      ],
      "type": "VEC2"
    },
    {
      "bufferView": 1,
      "byteOffset": 7429408,
      "componentType": 5126,
      "count": 19712,
      "max": [
        -1568.37646484375,
        1751.1241455078125
      ],
      "min": [
        -10897.802734375,
        -887.5090942382813
      ],
      "type": "VEC2"
    },
    {
      "bufferView": 0,
      "byteOffset": 4772760,
      "componentType": 5125,
      "count": 42507,
      "type": "SCALAR"
    }
  ],
  "asset": {
    "extras": {
      "author": "Vlad (https://sketchfab.com/vladvhm)",
      "license": "CC-BY-4.0 (http://creativecommons.org/licenses/by/4.0/)",
      "source": "https://sketchfab.com/3d-models/sebulba-podracer-star-wars-f97e3891a6a846ed97379e3cfa5931a0",
      "title": "Sebulba podracer star wars"
    },
    "generator": "Sketchfab-15.62.0",
    "version": "2.0"
  },
  "bufferViews": [
    {
      "buffer": 0,
      "byteLength": 4942788,
      "name": "floatBufferViews",
      "target": 34963
    },
    {
      "buffer": 0,
      "byteLength": 7587104,
      "byteOffset": 4942788,
      "byteStride": 8,
      "name": "floatBufferViews",
      "target": 34962
    },
    {
      "buffer": 0,
      "byteLength": 11380656,
      "byteOffset": 12529892,
      "byteStride": 12,
      "name": "floatBufferViews",
      "target": 34962
    },
    {
      "buffer": 0,
      "byteLength": 7587104,
      "byteOffset": 23910548,
      "byteStride": 16,
      "name": "floatBufferViews",
      "target": 34962
    }
  ],
  "buffers": [
    {
      "byteLength": 31497652,
      "uri": "scene.bin"
    }
  ],
  "extensionsUsed": [
    "KHR_materials_specular"
  ],
  "images": [
    {
      "uri": "textures/Material_805_baseColor.jpeg"
    },
    {
      "uri": "textures/Material_805_metallicRoughness.png"
    },
    {
      "uri": "textures/Material_805_normal.png"
    },
    {
      "uri": "textures/Material_805_specularf0.png"
    },
    {
      "uri": "textures/Material_765_baseColor.png"
    },
    {
      "uri": "textures/Material_765_metallicRoughness.png"
    },
    {
      "uri": "textures/Material_765_normal.png"
    },
    {
      "uri": "textures/Material_765_specularf0.png"
    }
  ],
  "materials": [
    {
      "doubleSided": true,
      "extensions": {
        "KHR_materials_specular": {
          "specularColorFactor": [
            1.0,
            1.0,
            1.0
          ],
          "specularFactor": 0.6,
          "specularTexture": {
            "index": 3
          }
        }
      },
      "name": "Material_805",
      "normalTexture": {
        "index": 2
      },
      "pbrMetallicRoughness": {
        "baseColorTexture": {
          "index": 0
        },
        "metallicFactor": 0.6994307030269045,
        "metallicRoughnessTexture": {
          "index": 1
        }
      }
    },
    {
      "alphaMode": "BLEND",
      "doubleSided": true,
      "extensions": {
        "KHR_materials_specular": {
          "specularColorFactor": [
            1.0,
            1.0,
            1.0
          ],
          "specularFactor": 0.6,
          "specularTexture": {
            "index": 7
          }
        }
      },
      "name": "Material_765",
      "normalTexture": {
        "index": 6
      },
      "pbrMetallicRoughness": {
        "baseColorTexture": {
          "index": 4
        },
        "metallicFactor": 0.6,
        "metallicRoughnessTexture": {
          "index": 5
        }
      }
    }
  ],
  "meshes": [
    {
      "name": "cabin_Material #805_0",
      "primitives": [
        {
          "attributes": {
            "NORMAL": 1,
            "POSITION": 0,
            "TANGENT": 2,
            "TEXCOORD_0": 3,
            "TEXCOORD_1": 4
          },
          "indices": 5,
          "material": 0,
          "mode": 4
        }
      ]
    },
    {
      "name": "cabin_Material #805_0",
      "primitives": [
        {
          "attributes": {
            "NORMAL": 7,
            "POSITION": 6,
            "TANGENT": 8,
            "TEXCOORD_0": 9,
            "TEXCOORD_1": 10
          },
          "indices": 11,
          "material": 0,
          "mode": 4
        }
      ]
    },
    {
      "name": "cabin_Material #805_0",
      "primitives": [
        {
          "attributes": {
            "NORMAL": 13,
            "POSITION": 12,
            "TANGENT": 14,
            "TEXCOORD_0": 15,
            "TEXCOORD_1": 16
          },
          "indices": 17,
          "material": 0,
          "mode": 4
        }
      ]
    },
    {
      "name": "cabin_Material #805_0",
      "primitives": [
        {
          "attributes": {
            "NORMAL": 19,
            "POSITION": 18,
            "TANGENT": 20,
            "TEXCOORD_0": 21,
            "TEXCOORD_1": 22
          },
          "indices": 23,
          "material": 0,
          "mode": 4
        }
      ]
    },
    {
      "name": "cabin_Material #805_0",
      "primitives": [
        {
          "attributes": {
            "NORMAL": 25,
            "POSITION": 24,
            "TANGENT": 26,
            "TEXCOORD_0": 27,
            "TEXCOORD_1": 28
          },
          "indices": 29,
          "material": 0,
          "mode": 4
        }
      ]
    },
    {
      "name": "cabin_Material #765_0",
      "primitives": [
        {
          "attributes": {
            "NORMAL": 31,
            "POSITION": 30,
            "TANGENT": 32,
            "TEXCOORD_0": 33,
            "TEXCOORD_1": 34
          },
          "indices": 35,
          "material": 1,
          "mode": 4
        }
      ]
    },
    {
      "name": "cabin_Material #765_0",
      "primitives": [
        {
          "attributes": {
            "NORMAL": 37,
            "POSITION": 36,
            "TANGENT": 38,
            "TEXCOORD_0": 39,
            "TEXCOORD_1": 40
          },
          "indices": 41,
          "material": 1,
          "mode": 4
        }
      ]
    },
    {
      "name": "cabin_Material #765_0",
      "primitives": [
        {
          "attributes": {
            "NORMAL": 43,
            "POSITION": 42,
            "TANGENT": 44,
            "TEXCOORD_0": 45,
            "TEXCOORD_1": 46
          },
          "indices": 47,
          "material": 1,
          "mode": 4
        }
      ]
    }
  ],
  "nodes": [
    {
      "children": [
        1
      ],
      "matrix": [
        1.6648105382919312,
        0.0,
        0.0,
        0.0,
        0.0,
        3.6966219825006056e-16,
        -1.6648105382919312,
        0.0,
        0.0,
        1.6648105382919312,
        3.6966219825006056e-16,
        0.0,
        0.0,
        0.0,
        0.0,
        1.0
      ],
      "name": "Sketchfab_model"
    },
    {
      "children": [
        2
      ],
      "matrix": [
        0.0010000000474974513,
        0.0,
        0.0,
        0.0,
        0.0,
        0.0,
        0.0010000000474974513,
        0.0,
        0.0,
        -0.0010000000474974513,
        0.0,
        0.0,
        0.0,
        0.0,
        0.0,
        1.0
      ],
      "name": "st_01.fbx"
    },
    {
      "children": [
        3
      ],
      "name": "RootNode"
    },
    {
      "children": [
        4,
        5,
        6,
        7,
        8,
        9,
        10,
        11
      ],
      "matrix": [
        1.0,
        0.0,
        0.0,
        0.0,
        0.0,
        2.220446049250313e-16,
        -1.0,
        0.0,
        0.0,
        1.0,
        2.220446049250313e-16,
        0.0,
        0.0,
        618.390380859375,
        0.0,
        1.0
      ],
      "name": "cabin"
    },
    {
      "mesh": 0,
      "name": "cabin_Material #805_0"
    },
    {
      "mesh": 1,
      "name": "cabin_Material #805_0"
    },
    {
      "mesh": 2,
      "name": "cabin_Material #805_0"
    },
    {
      "mesh": 3,
      "name": "cabin_Material #805_0"
    },
    {
      "mesh": 4,
      "name": "cabin_Material #805_0"
    },
    {
      "mesh": 5,
      "name": "cabin_Material #765_0"
    },
    {
      "mesh": 6,
      "name": "cabin_Material #765_0"
    },
    {
      "mesh": 7,
      "name": "cabin_Material #765_0"
    }
  ],
  "samplers": [
    {
      "magFilter": 9729,
      "minFilter": 9987,
      "wrapS": 10497,
      "wrapT": 10497
    }
  ],
  "scene": 0,
  "scenes": [
    {
      "name": "Sketchfab_Scene",
      "nodes": [
        0
      ]
    }
  ],
  "textures": [
    {
      "sampler": 0,
      "source": 0
    },
    {
      "sampler": 0,
      "source": 1
    },
    {
      "sampler": 0,
      "source": 2
    },
    {
      "sampler": 0,
      "source": 3
    },
    {
      "sampler": 0,
      "source": 4
    },
    {
      "sampler": 0,
      "source": 5
    },
    {
      "sampler": 0,
      "source": 6
    },
    {
      "sampler": 0,
      "source": 7
    }
  ]
}
