{
  "accessors": [
    {
      "bufferView": 2,
      "componentType": 5126,
      "count": 402,
      "max": [
        0.4334479868412018,
        0.5630999803543091,
        0.166143000125885
      ],
      "min": [
        -0.8694850206375122,
        0.40133899450302124,
        0.004381559789180756
      ],
      "type": "VEC3"
    },
    {
      "bufferView": 2,
      "byteOffset": 4824,
      "componentType": 5126,
      "count": 402,
      "max": [
        1.0,
        0.9600256681442261,
        0.9600247740745544
      ],
      "min": [
        -1.0,
        -0.9600256681442261,
        -0.9600247740745544
      ],
      "type": "VEC3"
    },
    {
      "bufferView": 3,
      "componentType": 5126,
      "count": 402,
      "max": [
        0.9572008848190308,
        0.9326683878898621,
        0.603050947189331,
        1.0
      ],
      "min": [
        -0.9572164416313171,
        -0.7729291319847107,
        -0.8173539042472839,
        1.0
      ],
      "type": "VEC4"
    },
    {
      "bufferView": 1,
      "componentType": 5126,
      "count": 402,
      "max": [
        0.9860579967498779,
        0.9830359816551208
      ],
      "min": [
        0.01648869924247265,
        0.02163730002939701
      ],
      "type": "VEC2"
    },
    {
      "bufferView": 0,
      "componentType": 5125,
      "count": 2280,
      "type": "SCALAR"
    },
    {
      "bufferView": 2,
      "byteOffset": 9648,
      "componentType": 5126,
      "count": 5791,
      "max": [
        0.4964370131492615,
        0.6348450183868408,
        0.23972800374031067
      ],
      "min": [
        -1.0,
        0.09591300040483475,
        -0.06873679906129837
      ],
      "type": "VEC3"
    },
    {
      "bufferView": 2,
      "byteOffset": 79140,
      "componentType": 5126,
      "count": 5791,
      "max": [
        1.0,
        1.0,
        1.0
      ],
      "min": [
        -1.0,
        -1.0,
        -1.0
      ],
      "type": "VEC3"
    },
    {
      "bufferView": 3,
      "byteOffset": 6432,
      "componentType": 5126,
      "count": 5791,
      "max": [
        1.0,
        1.0,
        1.0,
        1.0
      ],
      "min": [
        -1.0,
        -1.0,
        -1.0,
        1.0
      ],
      "type": "VEC4"
    },
    {
      "bufferView": 1,
      "byteOffset": 3216,
      "componentType": 5126,
      "count": 5791,
      "max": [
        0.9954710006713867,
        1.0
      ],
      "min": [
        0.0,
        0.0
      ],
      "type": "VEC2"
    },
    {
      "bufferView": 0,
      "byteOffset": 9120,
      "componentType": 5125,
      "count": 19710,
      "type": "SCALAR"
    },
    {
      "bufferView": 2,
      "byteOffset": 148632,
      "componentType": 5126,
      "count": 4967,
      "max": [
        1.0,
        0.47238799929618835,
        0.005947969853878021
      ],
      "min": [
        -0.6467180252075195,
        0.0954815000295639,
        -0.23972800374031067
      ],
      "type": "VEC3"
    },
    {
      "bufferView": 2,
      "byteOffset": 208236,
      "componentType": 5126,
      "count": 4967,
      "max": [
        1.0,
        1.0,
        1.0
      ],
      "min": [
        -1.0,
        -1.0,
        -1.0
      ],
      "type": "VEC3"
    },
    {
      "bufferView": 3,
      "byteOffset": 99088,
      "componentType": 5126,
      "count": 4967,
      "max": [
        1.0,
        1.0,
        1.0,
        1.0
      ],
      "min": [
        -1.0,
        -1.0,
        -1.0,
        1.0
      ],
      "type": "VEC4"
    },
    {
      "bufferView": 1,
      "byteOffset": 49544,
      "componentType": 5126,
      "count": 4967,
      "max": [
        1.0,
        0.9961879849433899
      ],
      "min": [
        0.0,
        0.0
      ],
      "type": "VEC2"
    },
    {
      "bufferView": 0,
      "byteOffset": 87960,
      "componentType": 5125,
      "count": 15375,
      "type": "SCALAR"
    },
    {
      "bufferView": 2,
      "byteOffset": 267840,
      "componentType": 5126,
      "count": 7652,
      "max": [
        0.15957100689411163,
        0.3518010079860687,
        -0.027149900794029236
      ],
      "min": [
        -0.804066002368927,
        -0.6348450183868408,
        -0.21814100444316864
      ],
      "type": "VEC3"
    },
    {
      "bufferView": 2,
      "byteOffset": 359664,
      "componentType": 5126,
      "count": 7652,
      "max": [
        1.0,
        1.0,
        1.0
      ],
      "min": [
        -1.0,
        -1.0,
        -1.0
      ],
      "type": "VEC3"
    },
    {
      "bufferView": 3,
      "byteOffset": 178560,
      "componentType": 5126,
      "count": 7652,
      "max": [
        1.0,
        1.0,
        0.9999948740005493,
        1.0
      ],
      "min": [
        -1.0,
        -1.0,
        -1.0,
        -1.0
      ],
      "type": "VEC4"
    },
    {
      "bufferView": 1,
      "byteOffset": 89280,
      "componentType": 5126,
      "count": 7652,
      "max": [
        0.9958609938621521,
        0.9919649958610535
      ],
      "min": [
        0.0014204999897629023,
        0.0
      ],
      "type": "VEC2"
    },
    {
      "bufferView": 0,
      "byteOffset": 149460,
      "componentType": 5125,
      "count": 36084,
      "type": "SCALAR"
    }
  ],
  "asset": {
    "extras": {
      "author": "Charles Cloutier (https://sketchfab.com/Allastar)",
      "license": "CC-BY-4.0 (http://creativecommons.org/licenses/by/4.0/)",
      "source": "https://sketchfab.com/3d-models/dl-44-heavy-blaster-pistol-han-solo-4b03568919934a8a9dfa85a111d52f4c",
      "title": "DL-44 heavy blaster pistol / Han Solo"
    },
    "generator": "Sketchfab-12.65.0",
    "version": "2.0"
  },
  "bufferViews": [
    {
      "buffer": 0,
      "byteLength": 293796,
      "name": "floatBufferViews",
      "target": 34963
    },
    {
      "buffer": 0,
      "byteLength": 150496,
      "byteOffset": 293796,
      "byteStride": 8,
      "name": "floatBufferViews",
      "target": 34962
    },
    {
      "buffer": 0,
      "byteLength": 451488,
      "byteOffset": 444292,
      "byteStride": 12,
      "name": "floatBufferViews",
      "target": 34962
    },
    {
      "buffer": 0,
      "byteLength": 300992,
      "byteOffset": 895780,
      "byteStride": 16,
      "name": "floatBufferViews",
      "target": 34962
    }
  ],
  "buffers": [
    {
      "byteLength": 1196772,
      "uri": "scene.bin"
    }
  ],
  "images": [
    {
      "uri": "textures/corps_baseColor.jpeg"
    },
    {
      "uri": "textures/corps_metallicRoughness.png"
    },
    {
      "uri": "textures/corps_normal.png"
    },
    {
      "uri": "textures/canon1_baseColor.png"
    },
    {
      "uri": "textures/canon1_metallicRoughness.png"
    },
    {
      "uri": "textures/canon1_normal.png"
    },
    {
      "uri": "textures/viseur1_baseColor.jpeg"
    },
    {
      "uri": "textures/viseur1_metallicRoughness.png"
    },
    {
      "uri": "textures/viseur1_normal.png"
    },
    {
      "uri": "textures/vitre_baseColor.png"
    },
    {
      "uri": "textures/vitre_metallicRoughness.png"
    },
    {
      "uri": "textures/vitre_normal.png"
    }
  ],
  "materials": [
    {
      "doubleSided": true,
      "name": "corps",
      "normalTexture": {
        "index": 2
      },
      "occlusionTexture": {
        "index": 1
      },
      "pbrMetallicRoughness": {
        "baseColorTexture": {
          "index": 0
        },
        "metallicRoughnessTexture": {
          "index": 1
        }
      }
    },
    {
      "alphaMode": "BLEND",
      "doubleSided": true,
      "name": "canon1",
      "normalTexture": {
        "index": 5
      },
      "occlusionTexture": {
        "index": 4
      },
      "pbrMetallicRoughness": {
        "baseColorTexture": {
          "index": 3
        },
        "metallicRoughnessTexture": {
          "index": 4
        }
      }
    },
    {
      "doubleSided": true,
      "name": "viseur1",
      "normalTexture": {
        "index": 8
      },
      "occlusionTexture": {
        "index": 7
      },
      "pbrMetallicRoughness": {
        "baseColorTexture": {
          "index": 6
        },
        "metallicRoughnessTexture": {
          "index": 7
        }
      }
    },
    {
      "alphaMode": "BLEND",
      "doubleSided": true,
      "name": "vitre",
      "normalTexture": {
        "index": 11
      },
      "occlusionTexture": {
        "index": 10
      },
      "pbrMetallicRoughness": {
        "baseColorTexture": {
          "index": 9
        },
        "metallicRoughnessTexture": {
          "index": 10
        }
      }
    }
  ],
  "meshes": [
    {
      "name": "defaultMaterial",
      "primitives": [
        {
          "attributes": {
            "NORMAL": 1,
            "POSITION": 0,
            "TANGENT": 2,
            "TEXCOORD_0": 3
          },
          "indices": 4,
          "material": 3,
          "mode": 4
        }
      ]
    },
    {
      "name": "defaultMaterial",
      "primitives": [
        {
          "attributes": {
            "NORMAL": 6,
            "POSITION": 5,
            "TANGENT": 7,
            "TEXCOORD_0": 8
          },
          "indices": 9,
          "material": 2,
          "mode": 4
        }
      ]
    },
    {
      "name": "defaultMaterial",
      "primitives": [
        {
          "attributes": {
            "NORMAL": 11,
            "POSITION": 10,
            "TANGENT": 12,
            "TEXCOORD_0": 13
          },
          "indices": 14,
          "material": 1,
          "mode": 4
        }
      ]
    },
    {
      "name": "defaultMaterial",
      "primitives": [
        {
          "attributes": {
            "NORMAL": 16,
            "POSITION": 15,
            "TANGENT": 17,
            "TEXCOORD_0": 18
          },
          "indices": 19,
          "material": 0,
          "mode": 4
        }
      ]
    }
  ],
  "nodes": [
    {
      "children": [
        1
      ],
      "matrix": [
        1.0,
        0.0,
        0.0,
        0.0,
        0.0,
        2.220446049250313e-16,
        -1.0,
        0.0,
        0.0,
        1.0,
        2.220446049250313e-16,
        0.0,
        0.0,
        0.0,
        0.0,
        1.0
      ],
      "name": "Sketchfab_model"
    },
    {
      "children": [
        2,
        4,
        6,
        8
      ],
      "matrix": [
        1.0,
        0.0,
        0.0,
        0.0,
        0.0,
        -4.371139006309477e-08,
        0.999999999999999,
        0.0,
        0.0,
        -0.999999999999999,
        -4.371139006309477e-08,
        0.0,
        0.0,
        0.0,
        0.0,
        1.0
      ],
      "name": "Collada visual scene group"
    },
    {
      "children": [
        3
      ],
      "name": "pCylinder39"
    },
    {
      "mesh": 0,
      "name": "defaultMaterial"
    },
    {
      "children": [
        5
      ],
      "name": "pCylinder39"
    },
    {
      "mesh": 1,
      "name": "defaultMaterial"
    },
    {
      "children": [
        7
      ],
      "name": "pCylinder39"
    },
    {
      "mesh": 2,
      "name": "defaultMaterial"
    },
    {
      "children": [
        9
      ],
      "name": "pCylinder39"
    },
    {
      "mesh": 3,
      "name": "defaultMaterial"
    }
  ],
  "samplers": [
    {
      "magFilter": 9729,
      "minFilter": 9987,
      "wrapS": 10497,
      "wrapT": 10497
    }
  ],
  "scene": 0,
  "scenes": [
    {
      "name": "Sketchfab_Scene",
      "nodes": [
        0
      ]
    }
  ],
  "textures": [
    {
      "sampler": 0,
      "source": 0
    },
    {
      "sampler": 0,
      "source": 1
    },
    {
      "sampler": 0,
      "source": 2
    },
    {
      "sampler": 0,
      "source": 3
    },
    {
      "sampler": 0,
      "source": 4
    },
    {
      "sampler": 0,
      "source": 5
    },
    {
      "sampler": 0,
      "source": 6
    },
    {
      "sampler": 0,
      "source": 7
    },
    {
      "sampler": 0,
      "source": 8
    },
    {
      "sampler": 0,
      "source": 9
    },
    {
      "sampler": 0,
      "source": 10
    },
    {
      "sampler": 0,
      "source": 11
    }
  ]
}
