{
  "accessors": [
    {
      "bufferView": 3,
      "componentType": 5126,
      "count": 924,
      "max": [
        3.2267556190490723,
        0.757847011089325,
        2.2283730506896973
      ],
      "min": [
        -3.2267556190490723,
        -0.9035354256629944,
        -5.847026348114014
      ],
      "type": "VEC3"
    },
    {
      "bufferView": 3,
      "byteOffset": 11088,
      "componentType": 5126,
      "count": 924,
      "max": [
        1.0,
        1.0,
        1.0
      ],
      "min": [
        -1.0,
        -1.0,
        -1.0
      ],
      "type": "VEC3"
    },
    {
      "bufferView": 4,
      "componentType": 5126,
      "count": 924,
      "max": [
        1.0,
        1.0,
        1.0,
        1.0
      ],
      "min": [
        -1.0,
        -1.0,
        -1.0,
        -1.0
      ],
      "type": "VEC4"
    },
    {
      "bufferView": 2,
      "componentType": 5126,
      "count": 924,
      "max": [
        0.9910149574279785,
        0.36647388339042664
      ],
      "min": [
        0.2310524582862854,
        0.003732651472091675
      ],
      "type": "VEC2"
    },
    {
      "bufferView": 1,
      "componentType": 5125,
      "count": 2322,
      "type": "SCALAR"
    },
    {
      "bufferView": 3,
      "byteOffset": 22176,
      "componentType": 5126,
      "count": 12760,
      "max": [
        4.981171607971191,
        0.8652399778366089,
        -0.00932958722114563
      ],
      "min": [
        -4.981171607971191,
        -0.8652311563491821,
        -11.58311653137207
      ],
      "type": "VEC3"
    },
    {
      "bufferView": 3,
      "byteOffset": 175296,
      "componentType": 5126,
      "count": 12760,
      "max": [
        1.0,
        1.0,
        1.0
      ],
      "min": [
        -1.0,
        -1.0,
        -1.0
      ],
      "type": "VEC3"
    },
    {
      "bufferView": 4,
      "byteOffset": 14784,
      "componentType": 5126,
      "count": 12760,
      "max": [
        1.0,
        1.0,
        1.0,
        1.0
      ],
      "min": [
        -1.0,
        -1.0,
        -1.0,
        -1.0
      ],
      "type": "VEC4"
    },
    {
      "bufferView": 2,
      "byteOffset": 7392,
      "componentType": 5126,
      "count": 12760,
      "max": [
        0.9988254904747009,
        0.8848539590835571
      ],
      "min": [
        0.6305264830589294,
        0.18668925762176514
      ],
      "type": "VEC2"
    },
    {
      "bufferView": 1,
      "byteOffset": 9288,
      "componentType": 5125,
      "count": 36528,
      "type": "SCALAR"
    },
    {
      "bufferView": 3,
      "byteOffset": 328416,
      "componentType": 5126,
      "count": 2936,
      "max": [
        1.8913969993591309,
        1.3846087455749512,
        8.734159469604492
      ],
      "min": [
        -1.8913969993591309,
        -0.9138947129249573,
        2.0296502113342285
      ],
      "type": "VEC3"
    },
    {
      "bufferView": 3,
      "byteOffset": 363648,
      "componentType": 5126,
      "count": 2936,
      "max": [
        1.0,
        1.0,
        1.0
      ],
      "min": [
        -1.0,
        -1.0,
        -1.0
      ],
      "type": "VEC3"
    },
    {
      "bufferView": 4,
      "byteOffset": 218944,
      "componentType": 5126,
      "count": 2936,
      "max": [
        1.0,
        1.0,
        1.0,
        1.0
      ],
      "min": [
        -1.0,
        -1.0,
        -1.0,
        -1.0
      ],
      "type": "VEC4"
    },
    {
      "bufferView": 2,
      "byteOffset": 109472,
      "componentType": 5126,
      "count": 2936,
      "max": [
        0.5628853440284729,
        0.44477739930152893
      ],
      "min": [
        0.004271451383829117,
        0.0022554334718734026
      ],
      "type": "VEC2"
    },
    {
      "bufferView": 1,
      "byteOffset": 155400,
      "componentType": 5125,
      "count": 8694,
      "type": "SCALAR"
    },
    {
      "bufferView": 3,
      "byteOffset": 398880,
      "componentType": 5126,
      "count": 2035,
      "max": [
        0.3392317295074463,
        1.7084741592407227,
        3.7359330654144287
      ],
      "min": [
        -0.3392317295074463,
        1.3561443090438843,
        2.409182548522949
      ],
      "type": "VEC3"
    },
    {
      "bufferView": 3,
      "byteOffset": 423300,
      "componentType": 5126,
      "count": 2035,
      "max": [
        1.0,
        1.0,
        1.0
      ],
      "min": [
        -1.0,
        -1.0,
        -1.0
      ],
      "type": "VEC3"
    },
    {
      "bufferView": 4,
      "byteOffset": 265920,
      "componentType": 5126,
      "count": 2035,
      "max": [
        1.0,
        1.0,
        1.0,
        1.0
      ],
      "min": [
        -1.0,
        -1.0,
        -1.0,
        -1.0
      ],
      "type": "VEC4"
    },
    {
      "bufferView": 2,
      "byteOffset": 132960,
      "componentType": 5126,
      "count": 2035,
      "max": [
        0.06104324758052826,
        0.5913829207420349
      ],
      "min": [
        0.00600220263004303,
        0.4625714421272278
      ],
      "type": "VEC2"
    },
    {
      "bufferView": 1,
      "byteOffset": 190176,
      "componentType": 5125,
      "count": 5922,
      "type": "SCALAR"
    },
    {
      "bufferView": 3,
      "byteOffset": 447720,
      "componentType": 5126,
      "count": 13616,
      "max": [
        3.29013729095459,
        0.9023141860961914,
        2.2460663318634033
      ],
      "min": [
        -3.29013729095459,
        -0.9728805422782898,
        -6.168043613433838
      ],
      "type": "VEC3"
    },
    {
      "bufferView": 3,
      "byteOffset": 611112,
      "componentType": 5126,
      "count": 13616,
      "max": [
        1.0,
        1.0,
        1.0
      ],
      "min": [
        -1.0,
        -1.0,
        -1.0
      ],
      "type": "VEC3"
    },
    {
      "bufferView": 4,
      "byteOffset": 298480,
      "componentType": 5126,
      "count": 13616,
      "max": [
        1.0,
        1.0,
        1.0,
        1.0
      ],
      "min": [
        -1.0,
        -1.0,
        -1.0,
        -1.0
      ],
      "type": "VEC4"
    },
    {
      "bufferView": 2,
      "byteOffset": 149240,
      "componentType": 5126,
      "count": 13616,
      "max": [
        0.5699852108955383,
        0.9928349256515503
      ],
      "min": [
        0.06666687875986099,
        0.3555520176887512
      ],
      "type": "VEC2"
    },
    {
      "bufferView": 1,
      "byteOffset": 213864,
      "componentType": 5125,
      "count": 41610,
      "type": "SCALAR"
    },
    {
      "bufferView": 3,
      "byteOffset": 774504,
      "componentType": 5126,
      "count": 4682,
      "max": [
        3.2901175022125244,
        1.0089987516403198,
        2.2158961296081543
      ],
      "min": [
        -3.2901175022125244,
        -1.0464342832565308,
        -5.783946990966797
      ],
      "type": "VEC3"
    },
    {
      "bufferView": 3,
      "byteOffset": 830688,
      "componentType": 5126,
      "count": 4682,
      "max": [
        1.0,
        1.0,
        1.0
      ],
      "min": [
        -1.0,
        -1.0,
        -1.0
      ],
      "type": "VEC3"
    },
    {
      "bufferView": 4,
      "byteOffset": 516336,
      "componentType": 5126,
      "count": 4682,
      "max": [
        1.0,
        1.0,
        1.0,
        1.0
      ],
      "min": [
        -1.0,
        -1.0,
        -1.0,
        -1.0
      ],
      "type": "VEC4"
    },
    {
      "bufferView": 2,
      "byteOffset": 258168,
      "componentType": 5126,
      "count": 4682,
      "max": [
        0.4487871825695038,
        0.9982208609580994
      ],
      "min": [
        0.004565298557281494,
        0.42618727684020996
      ],
      "type": "VEC2"
    },
    {
      "bufferView": 1,
      "byteOffset": 380304,
      "componentType": 5125,
      "count": 16950,
      "type": "SCALAR"
    },
    {
      "bufferView": 3,
      "byteOffset": 886872,
      "componentType": 5126,
      "count": 32,
      "max": [
        0.4443545341491699,
        -0.5669428110122681,
        4.625302314758301
      ],
      "min": [
        8.227800663007656e-09,
        -0.8927541971206665,
        3.9335927963256836
      ],
      "type": "VEC3"
    },
    {
      "bufferView": 3,
      "byteOffset": 887256,
      "componentType": 5126,
      "count": 32,
      "max": [
        0.9968222975730896,
        0.916761577129364,
        0.9180610775947571
      ],
      "min": [
        -1.0,
        -0.916761577129364,
        -0.9179951548576355
      ],
      "type": "VEC3"
    },
    {
      "bufferView": 4,
      "byteOffset": 591248,
      "componentType": 5126,
      "count": 32,
      "max": [
        0.9998106956481934,
        0.9031967520713806,
        0.4077461361885071,
        1.0
      ],
      "min": [
        -0.05065659061074257,
        -0.9131132364273071,
        -0.4262286126613617,
        1.0
      ],
      "type": "VEC4"
    },
    {
      "bufferView": 2,
      "byteOffset": 295624,
      "componentType": 5126,
      "count": 32,
      "max": [
        0.21800349652767181,
        0.1815013438463211
      ],
      "min": [
        0.19712470471858978,
        0.11386020481586456
      ],
      "type": "VEC2"
    },
    {
      "bufferView": 1,
      "byteOffset": 448104,
      "componentType": 5125,
      "count": 60,
      "type": "SCALAR"
    },
    {
      "bufferView": 3,
      "byteOffset": 887640,
      "componentType": 5126,
      "count": 594,
      "max": [
        4.162590980529785,
        -0.24488911032676697,
        4.852205753326416
      ],
      "min": [
        -4.162590503692627,
        -1.4366315603256226,
        -3.391681671142578
      ],
      "type": "VEC3"
    },
    {
      "bufferView": 3,
      "byteOffset": 894768,
      "componentType": 5126,
      "count": 594,
      "max": [
        1.0,
        1.0,
        1.0
      ],
      "min": [
        -1.0,
        -1.0,
        -1.0
      ],
      "type": "VEC3"
    },
    {
      "bufferView": 4,
      "byteOffset": 591760,
      "componentType": 5126,
      "count": 594,
      "max": [
        1.0,
        0.9925024509429932,
        0.9685388803482056,
        1.0
      ],
      "min": [
        -1.0,
        -0.9924997687339783,
        -0.9587575197219849,
        -1.0
      ],
      "type": "VEC4"
    },
    {
      "bufferView": 2,
      "byteOffset": 295880,
      "componentType": 5126,
      "count": 594,
      "max": [
        0.6258182525634766,
        0.9933765530586243
      ],
      "min": [
        0.5006996393203735,
        0.8677435517311096
      ],
      "type": "VEC2"
    },
    {
      "bufferView": 1,
      "byteOffset": 448344,
      "componentType": 5125,
      "count": 1440,
      "type": "SCALAR"
    },
    {
      "bufferView": 3,
      "byteOffset": 901896,
      "componentType": 5126,
      "count": 48,
      "max": [
        4.545331954956055,
        -0.6206227540969849,
        -2.5445456504821777
      ],
      "min": [
        4.01137638092041,
        -0.8457478880882263,
        -3.7252392768859863
      ],
      "type": "VEC3"
    },
    {
      "bufferView": 3,
      "byteOffset": 902472,
      "componentType": 5126,
      "count": 48,
      "max": [
        1.0,
        0.9951868653297424,
        1.0
      ],
      "min": [
        -1.0,
        -0.9951868653297424,
        -1.0
      ],
      "type": "VEC3"
    },
    {
      "bufferView": 4,
      "byteOffset": 601264,
      "componentType": 5126,
      "count": 48,
      "max": [
        0.9951868653297424,
        1.0,
        0.030421413481235504,
        1.0
      ],
      "min": [
        -0.9951868057250977,
        -0.9999982118606567,
        -0.09238521009683609,
        1.0
      ],
      "type": "VEC4"
    },
    {
      "bufferView": 2,
      "byteOffset": 300632,
      "componentType": 5126,
      "count": 48,
      "max": [
        0.8657313585281372,
        0.2526894807815552
      ],
      "min": [
        0.8162955045700073,
        0.2023887038230896
      ],
      "type": "VEC2"
    },
    {
      "bufferView": 1,
      "byteOffset": 454104,
      "componentType": 5125,
      "count": 108,
      "type": "SCALAR"
    },
    {
      "bufferView": 3,
      "byteOffset": 903048,
      "componentType": 5126,
      "count": 48,
      "max": [
        4.01137638092041,
        -0.6206227540969849,
        -2.5445456504821777
      ],
      "min": [
        3.4774208068847656,
        -0.8457478880882263,
        -3.7252392768859863
      ],
      "type": "VEC3"
    },
    {
      "bufferView": 3,
      "byteOffset": 903624,
      "componentType": 5126,
      "count": 48,
      "max": [
        1.0,
        0.9951868653297424,
        1.0
      ],
      "min": [
        -1.0,
        -0.9951868653297424,
        -1.0
      ],
      "type": "VEC3"
    },
    {
      "bufferView": 4,
      "byteOffset": 602032,
      "componentType": 5126,
      "count": 48,
      "max": [
        0.9951868057250977,
        1.0,
        0.030421409755945206,
        -1.0
      ],
      "min": [
        -0.9951868653297424,
        -0.9999982118606567,
        -0.09238521009683609,
        -1.0
      ],
      "type": "VEC4"
    },
    {
      "bufferView": 2,
      "byteOffset": 301016,
      "componentType": 5126,
      "count": 48,
      "max": [
        0.8657313585281372,
        0.2526894807815552
      ],
      "min": [
        0.8162955045700073,
        0.2023887038230896
      ],
      "type": "VEC2"
    },
    {
      "bufferView": 1,
      "byteOffset": 454536,
      "componentType": 5125,
      "count": 108,
      "type": "SCALAR"
    },
    {
      "bufferView": 3,
      "byteOffset": 904200,
      "componentType": 5126,
      "count": 48,
      "max": [
        -4.01137638092041,
        -0.6206227540969849,
        -2.5445456504821777
      ],
      "min": [
        -4.545331954956055,
        -0.8457478880882263,
        -3.7252392768859863
      ],
      "type": "VEC3"
    },
    {
      "bufferView": 3,
      "byteOffset": 904776,
      "componentType": 5126,
      "count": 48,
      "max": [
        1.0,
        0.9951868653297424,
        1.0
      ],
      "min": [
        -1.0,
        -0.9951868653297424,
        -1.0
      ],
      "type": "VEC3"
    },
    {
      "bufferView": 4,
      "byteOffset": 602800,
      "componentType": 5126,
      "count": 48,
      "max": [
        0.9951868057250977,
        1.0,
        0.030421409755945206,
        -1.0
      ],
      "min": [
        -0.9951868653297424,
        -0.9999982118606567,
        -0.09238521009683609,
        -1.0
      ],
      "type": "VEC4"
    },
    {
      "bufferView": 2,
      "byteOffset": 301400,
      "componentType": 5126,
      "count": 48,
      "max": [
        0.8657313585281372,
        0.2526894807815552
      ],
      "min": [
        0.8162955045700073,
        0.2023887038230896
      ],
      "type": "VEC2"
    },
    {
      "bufferView": 1,
      "byteOffset": 454968,
      "componentType": 5125,
      "count": 108,
      "type": "SCALAR"
    },
    {
      "bufferView": 3,
      "byteOffset": 905352,
      "componentType": 5126,
      "count": 48,
      "max": [
        -3.4774208068847656,
        -0.6206227540969849,
        -2.5445456504821777
      ],
      "min": [
        -4.01137638092041,
        -0.8457478880882263,
        -3.7252392768859863
      ],
      "type": "VEC3"
    },
    {
      "bufferView": 3,
      "byteOffset": 905928,
      "componentType": 5126,
      "count": 48,
      "max": [
        1.0,
        0.9951868653297424,
        1.0
      ],
      "min": [
        -1.0,
        -0.9951868653297424,
        -1.0
      ],
      "type": "VEC3"
    },
    {
      "bufferView": 4,
      "byteOffset": 603568,
      "componentType": 5126,
      "count": 48,
      "max": [
        0.9951868653297424,
        1.0,
        0.030421413481235504,
        1.0
      ],
      "min": [
        -0.9951868057250977,
        -0.9999982118606567,
        -0.09238521009683609,
        1.0
      ],
      "type": "VEC4"
    },
    {
      "bufferView": 2,
      "byteOffset": 301784,
      "componentType": 5126,
      "count": 48,
      "max": [
        0.8657313585281372,
        0.2526894807815552
      ],
      "min": [
        0.8162955045700073,
        0.2023887038230896
      ],
      "type": "VEC2"
    },
    {
      "bufferView": 1,
      "byteOffset": 455400,
      "componentType": 5125,
      "count": 108,
      "type": "SCALAR"
    },
    {
      "bufferView": 3,
      "byteOffset": 906504,
      "componentType": 5126,
      "count": 32,
      "max": [
        7.77220066083828e-10,
        -0.5669428110122681,
        4.625302314758301
      ],
      "min": [
        -0.4443545341491699,
        -0.8927541971206665,
        3.9335927963256836
      ],
      "type": "VEC3"
    },
    {
      "bufferView": 3,
      "byteOffset": 906888,
      "componentType": 5126,
      "count": 32,
      "max": [
        1.0,
        0.916761577129364,
        0.9180722236633301
      ],
      "min": [
        -0.9968222975730896,
        -0.916761577129364,
        -0.9179951548576355
      ],
      "type": "VEC3"
    },
    {
      "bufferView": 4,
      "byteOffset": 604336,
      "componentType": 5126,
      "count": 32,
      "max": [
        0.05065659061074257,
        0.9031967520713806,
        0.4077461361885071,
        -1.0
      ],
      "min": [
        -0.9998106956481934,
        -0.9131132364273071,
        -0.4262286126613617,
        -1.0
      ],
      "type": "VEC4"
    },
    {
      "bufferView": 2,
      "byteOffset": 302168,
      "componentType": 5126,
      "count": 32,
      "max": [
        0.21800349652767181,
        0.1815013438463211
      ],
      "min": [
        0.19712470471858978,
        0.11386020481586456
      ],
      "type": "VEC2"
    },
    {
      "bufferView": 1,
      "byteOffset": 455832,
      "componentType": 5125,
      "count": 60,
      "type": "SCALAR"
    },
    {
      "bufferView": 3,
      "byteOffset": 907272,
      "componentType": 5126,
      "count": 4623,
      "max": [
        0.2523537576198578,
        -0.25558263063430786,
        0.5242182612419128
      ],
      "min": [
        -0.25243309140205383,
        -0.8262357115745544,
        0.20276379585266113
      ],
      "type": "VEC3"
    },
    {
      "bufferView": 3,
      "byteOffset": 962748,
      "componentType": 5126,
      "count": 4623,
      "max": [
        1.0,
        1.0,
        1.0
      ],
      "min": [
        -1.0,
        -1.0,
        -1.0
      ],
      "type": "VEC3"
    },
    {
      "bufferView": 4,
      "byteOffset": 604848,
      "componentType": 5126,
      "count": 4623,
      "max": [
        1.0,
        0.9998952150344849,
        1.0,
        1.0
      ],
      "min": [
        -1.0,
        -0.9998045563697815,
        -0.9997998476028442,
        -1.0
      ],
      "type": "VEC4"
    },
    {
      "bufferView": 2,
      "byteOffset": 302424,
      "componentType": 5126,
      "count": 4623,
      "max": [
        0.8723374009132385,
        0.9329891800880432
      ],
      "min": [
        0.0009225907269865274,
        0.002896577352657914
      ],
      "type": "VEC2"
    },
    {
      "bufferView": 2,
      "byteOffset": 339408,
      "componentType": 5126,
      "count": 4623,
      "max": [
        0.8723374009132385,
        0.9329891800880432
      ],
      "min": [
        0.0009225907269865274,
        0.002896577352657914
      ],
      "type": "VEC2"
    },
    {
      "bufferView": 1,
      "byteOffset": 456072,
      "componentType": 5125,
      "count": 16011,
      "type": "SCALAR"
    },
    {
      "bufferView": 3,
      "byteOffset": 1018224,
      "componentType": 5126,
      "count": 2537,
      "max": [
        0.25787675380706787,
        -0.29907479882240295,
        0.20276397466659546
      ],
      "min": [
        -0.2578766345977783,
        -0.7990748286247253,
        -0.22252750396728516
      ],
      "type": "VEC3"
    },
    {
      "bufferView": 3,
      "byteOffset": 1048668,
      "componentType": 5126,
      "count": 2537,
      "max": [
        1.0,
        1.0,
        1.0
      ],
      "min": [
        -1.0,
        -1.0,
        -1.0
      ],
      "type": "VEC3"
    },
    {
      "bufferView": 4,
      "byteOffset": 678816,
      "componentType": 5126,
      "count": 2537,
      "max": [
        1.0,
        1.0,
        1.0,
        1.0
      ],
      "min": [
        -1.0,
        -1.0,
        -1.0,
        -1.0
      ],
      "type": "VEC4"
    },
    {
      "bufferView": 2,
      "byteOffset": 376392,
      "componentType": 5126,
      "count": 2537,
      "max": [
        0.8207318782806396,
        0.9867494106292725
      ],
      "min": [
        0.1633804738521576,
        0.26515138149261475
      ],
      "type": "VEC2"
    },
    {
      "bufferView": 2,
      "byteOffset": 396688,
      "componentType": 5126,
      "count": 2537,
      "max": [
        0.8207318782806396,
        0.9867494106292725
      ],
      "min": [
        0.1633804738521576,
        0.26515138149261475
      ],
      "type": "VEC2"
    },
    {
      "bufferView": 1,
      "byteOffset": 520116,
      "componentType": 5125,
      "count": 7689,
      "type": "SCALAR"
    },
    {
      "bufferView": 3,
      "byteOffset": 1079112,
      "componentType": 5126,
      "count": 4588,
      "max": [
        0.3381814658641815,
        -0.4443153738975525,
        0.16504615545272827
      ],
      "min": [
        -0.33818134665489197,
        -0.6538342237472534,
        -0.20812496542930603
      ],
      "type": "VEC3"
    },
    {
      "bufferView": 3,
      "byteOffset": 1134168,
      "componentType": 5126,
      "count": 4588,
      "max": [
        1.0,
        1.0,
        1.0
      ],
      "min": [
        -1.0,
        -1.0,
        -1.0
      ],
      "type": "VEC3"
    },
    {
      "bufferView": 4,
      "byteOffset": 719408,
      "componentType": 5126,
      "count": 4588,
      "max": [
        1.0,
        1.0,
        1.0,
        1.0
      ],
      "min": [
        -1.0,
        -1.0,
        -1.0,
        -1.0
      ],
      "type": "VEC4"
    },
    {
      "bufferView": 2,
      "byteOffset": 416984,
      "componentType": 5126,
      "count": 4588,
      "max": [
        0.8075525760650635,
        0.9867916703224182
      ],
      "min": [
        0.06444946676492691,
        0.3899785280227661
      ],
      "type": "VEC2"
    },
    {
      "bufferView": 2,
      "byteOffset": 453688,
      "componentType": 5126,
      "count": 4588,
      "max": [
        0.8075525760650635,
        0.9867916703224182
      ],
      "min": [
        0.06444946676492691,
        0.3899785280227661
      ],
      "type": "VEC2"
    },
    {
      "bufferView": 1,
      "byteOffset": 550872,
      "componentType": 5125,
      "count": 12894,
      "type": "SCALAR"
    },
    {
      "bufferView": 3,
      "byteOffset": 1189224,
      "componentType": 5126,
      "count": 444,
      "max": [
        0.23096993565559387,
        -0.642388641834259,
        0.17851918935775757
      ],
      "min": [
        -0.23096993565559387,
        -0.7258515357971191,
        -0.20514041185379028
      ],
      "type": "VEC3"
    },
    {
      "bufferView": 3,
      "byteOffset": 1194552,
      "componentType": 5126,
      "count": 444,
      "max": [
        0.8821627497673035,
        0.8819184303283691,
        1.0
      ],
      "min": [
        -0.8821627497673035,
        -0.8819378018379211,
        -1.0
      ],
      "type": "VEC3"
    },
    {
      "bufferView": 4,
      "byteOffset": 792816,
      "componentType": 5126,
      "count": 444,
      "max": [
        0.8848970532417297,
        0.6393616199493408,
        0.06819086521863937,
        1.0
      ],
      "min": [
        -0.8848970532417297,
        -0.882162868976593,
        -0.06822259724140167,
        -1.0
      ],
      "type": "VEC4"
    },
    {
      "bufferView": 2,
      "byteOffset": 490392,
      "componentType": 5126,
      "count": 444,
      "max": [
        0.800493061542511,
        0.8338915109634399
      ],
      "min": [
        0.7230129837989807,
        0.6889926791191101
      ],
      "type": "VEC2"
    },
    {
      "bufferView": 2,
      "byteOffset": 493944,
      "componentType": 5126,
      "count": 444,
      "max": [
        0.800493061542511,
        0.8338915109634399
      ],
      "min": [
        0.7230129837989807,
        0.6889926791191101
      ],
      "type": "VEC2"
    },
    {
      "bufferView": 1,
      "byteOffset": 602448,
      "componentType": 5125,
      "count": 1296,
      "type": "SCALAR"
    },
    {
      "bufferView": 3,
      "byteOffset": 1199880,
      "componentType": 5126,
      "count": 280,
      "max": [
        0.1388903260231018,
        -0.7481423616409302,
        0.13802284002304077
      ],
      "min": [
        -0.1389038860797882,
        -0.7990748286247253,
        0.03312760591506958
      ],
      "type": "VEC3"
    },
    {
      "bufferView": 3,
      "byteOffset": 1203240,
      "componentType": 5126,
      "count": 280,
      "max": [
        1.0,
        1.0,
        1.0
      ],
      "min": [
        -1.0,
        -1.0,
        -1.0
      ],
      "type": "VEC3"
    },
    {
      "bufferView": 4,
      "byteOffset": 799920,
      "componentType": 5126,
      "count": 280,
      "max": [
        1.0,
        0.9998416900634766,
        1.0,
        1.0
      ],
      "min": [
        -1.0,
        -0.9999963641166687,
        -1.0,
        1.0
      ],
      "type": "VEC4"
    },
    {
      "bufferView": 2,
      "byteOffset": 497496,
      "componentType": 5126,
      "count": 280,
      "max": [
        0.9931802749633789,
        0.12078731507062912
      ],
      "min": [
        0.9127564430236816,
        0.00964241661131382
      ],
      "type": "VEC2"
    },
    {
      "bufferView": 2,
      "byteOffset": 499736,
      "componentType": 5126,
      "count": 280,
      "max": [
        0.9931802749633789,
        0.12078731507062912
      ],
      "min": [
        0.9127564430236816,
        0.00964241661131382
      ],
      "type": "VEC2"
    },
    {
      "bufferView": 1,
      "byteOffset": 607632,
      "componentType": 5125,
      "count": 816,
      "type": "SCALAR"
    },
    {
      "bufferView": 5,
      "componentType": 5126,
      "count": 12,
      "max": [
        1.0,
        1.1031013410112318e-14,
        1.2246468525851679e-16,
        0.0,
        1.2246468525851679e-16,
        1.0,
        1.0,
        0.0,
        0.0,
        1.0,
        1.0,
        0.0,
        4.282543182373047,
        1.7593021392822266,
        4.545330047607422,
        1.0
      ],
      "min": [
        -1.0,
        -9.296641452808622e-15,
        -1.0,
        0.0,
        -4.0818940760800615e-07,
        -1.0,
        -0.47121351957321167,
        0.0,
        -1.0,
        -8.224046593062024e-23,
        -0.8820192217826843,
        0.0,
        -4.011379241943359,
        -2.1553430557250977,
        -4.5453338623046875,
        1.0
      ],
      "type": "MAT4"
    },
    {
      "bufferView": 0,
      "componentType": 5123,
      "count": 924,
      "type": "VEC4"
    },
    {
      "bufferView": 4,
      "byteOffset": 804400,
      "componentType": 5126,
      "count": 924,
      "max": [
        1.0,
        0.0,
        0.0,
        0.0
      ],
      "min": [
        1.0,
        0.0,
        0.0,
        0.0
      ],
      "type": "VEC4"
    },
    {
      "bufferView": 0,
      "byteOffset": 7392,
      "componentType": 5123,
      "count": 12760,
      "type": "VEC4"
    },
    {
      "bufferView": 4,
      "byteOffset": 819184,
      "componentType": 5126,
      "count": 12760,
      "max": [
        1.0,
        0.0,
        0.0,
        0.0
      ],
      "min": [
        1.0,
        0.0,
        0.0,
        0.0
      ],
      "type": "VEC4"
    },
    {
      "bufferView": 0,
      "byteOffset": 109472,
      "componentType": 5123,
      "count": 2936,
      "type": "VEC4"
    },
    {
      "bufferView": 4,
      "byteOffset": 1023344,
      "componentType": 5126,
      "count": 2936,
      "max": [
        1.0,
        0.0,
        0.0,
        0.0
      ],
      "min": [
        1.0,
        0.0,
        0.0,
        0.0
      ],
      "type": "VEC4"
    },
    {
      "bufferView": 0,
      "byteOffset": 132960,
      "componentType": 5123,
      "count": 2035,
      "type": "VEC4"
    },
    {
      "bufferView": 4,
      "byteOffset": 1070320,
      "componentType": 5126,
      "count": 2035,
      "max": [
        1.0,
        0.0,
        0.0,
        0.0
      ],
      "min": [
        1.0,
        0.0,
        0.0,
        0.0
      ],
      "type": "VEC4"
    },
    {
      "bufferView": 0,
      "byteOffset": 149240,
      "componentType": 5123,
      "count": 13616,
      "type": "VEC4"
    },
    {
      "bufferView": 4,
      "byteOffset": 1102880,
      "componentType": 5126,
      "count": 13616,
      "max": [
        1.0,
        0.0,
        0.0,
        0.0
      ],
      "min": [
        1.0,
        0.0,
        0.0,
        0.0
      ],
      "type": "VEC4"
    },
    {
      "bufferView": 0,
      "byteOffset": 258168,
      "componentType": 5123,
      "count": 4682,
      "type": "VEC4"
    },
    {
      "bufferView": 4,
      "byteOffset": 1320736,
      "componentType": 5126,
      "count": 4682,
      "max": [
        1.0,
        0.0,
        0.0,
        0.0
      ],
      "min": [
        1.0,
        0.0,
        0.0,
        0.0
      ],
      "type": "VEC4"
    },
    {
      "bufferView": 0,
      "byteOffset": 295624,
      "componentType": 5123,
      "count": 32,
      "type": "VEC4"
    },
    {
      "bufferView": 4,
      "byteOffset": 1395648,
      "componentType": 5126,
      "count": 32,
      "max": [
        1.0,
        0.0,
        0.0,
        0.0
      ],
      "min": [
        1.0,
        0.0,
        0.0,
        0.0
      ],
      "type": "VEC4"
    },
    {
      "bufferView": 0,
      "byteOffset": 295880,
      "componentType": 5123,
      "count": 594,
      "type": "VEC4"
    },
    {
      "bufferView": 4,
      "byteOffset": 1396160,
      "componentType": 5126,
      "count": 594,
      "max": [
        1.0,
        0.0,
        0.0,
        0.0
      ],
      "min": [
        1.0,
        0.0,
        0.0,
        0.0
      ],
      "type": "VEC4"
    },
    {
      "bufferView": 0,
      "byteOffset": 300632,
      "componentType": 5123,
      "count": 48,
      "type": "VEC4"
    },
    {
      "bufferView": 4,
      "byteOffset": 1405664,
      "componentType": 5126,
      "count": 48,
      "max": [
        1.0,
        0.0,
        0.0,
        0.0
      ],
      "min": [
        1.0,
        0.0,
        0.0,
        0.0
      ],
      "type": "VEC4"
    },
    {
      "bufferView": 0,
      "byteOffset": 301016,
      "componentType": 5123,
      "count": 48,
      "type": "VEC4"
    },
    {
      "bufferView": 4,
      "byteOffset": 1406432,
      "componentType": 5126,
      "count": 48,
      "max": [
        1.0,
        0.0,
        0.0,
        0.0
      ],
      "min": [
        1.0,
        0.0,
        0.0,
        0.0
      ],
      "type": "VEC4"
    },
    {
      "bufferView": 0,
      "byteOffset": 301400,
      "componentType": 5123,
      "count": 48,
      "type": "VEC4"
    },
    {
      "bufferView": 4,
      "byteOffset": 1407200,
      "componentType": 5126,
      "count": 48,
      "max": [
        1.0,
        0.0,
        0.0,
        0.0
      ],
      "min": [
        1.0,
        0.0,
        0.0,
        0.0
      ],
      "type": "VEC4"
    },
    {
      "bufferView": 0,
      "byteOffset": 301784,
      "componentType": 5123,
      "count": 48,
      "type": "VEC4"
    },
    {
      "bufferView": 4,
      "byteOffset": 1407968,
      "componentType": 5126,
      "count": 48,
      "max": [
        1.0,
        0.0,
        0.0,
        0.0
      ],
      "min": [
        1.0,
        0.0,
        0.0,
        0.0
      ],
      "type": "VEC4"
    },
    {
      "bufferView": 0,
      "byteOffset": 302168,
      "componentType": 5123,
      "count": 32,
      "type": "VEC4"
    },
    {
      "bufferView": 4,
      "byteOffset": 1408736,
      "componentType": 5126,
      "count": 32,
      "max": [
        1.0,
        0.0,
        0.0,
        0.0
      ],
      "min": [
        1.0,
        0.0,
        0.0,
        0.0
      ],
      "type": "VEC4"
    },
    {
      "bufferView": 6,
      "componentType": 5126,
      "count": 100,
      "max": [
        2.0833332538604736
      ],
      "min": [
        0.0
      ],
      "type": "SCALAR"
    },
    {
      "bufferView": 7,
      "componentType": 5126,
      "count": 100,
      "max": [
        0.0,
        5.844487190246582,
        0.0010414719581604004
      ],
      "min": [
        -3.344632659718627e-08,
        4.254290580749512,
        -0.26116013526916504
      ],
      "type": "VEC3"
    },
    {
      "bufferView": 6,
      "byteOffset": 400,
      "componentType": 5126,
      "count": 4,
      "max": [
        2.0833332538604736
      ],
      "min": [
        0.0
      ],
      "type": "SCALAR"
    },
    {
      "bufferView": 7,
      "byteOffset": 1200,
      "componentType": 5126,
      "count": 4,
      "max": [
        1.0,
        1.000000238418579,
        1.0000003576278687
      ],
      "min": [
        1.0,
        1.0000001192092896,
        1.000000238418579
      ],
      "type": "VEC3"
    },
    {
      "bufferView": 6,
      "byteOffset": 416,
      "componentType": 5126,
      "count": 100,
      "max": [
        2.0833332538604736
      ],
      "min": [
        0.0
      ],
      "type": "SCALAR"
    },
    {
      "bufferView": 8,
      "componentType": 5126,
      "count": 100,
      "max": [
        1.3795031783558898e-08,
        0.9999988675117493,
        0.008505835197865963,
        2.9592845862680406e-07
      ],
      "min": [
        -1.6900459343105467e-07,
        0.8576751947402954,
        -0.5141918659210205,
        1.748446862848141e-07
      ],
      "type": "VEC4"
    },
    {
      "bufferView": 6,
      "byteOffset": 816,
      "componentType": 5126,
      "count": 100,
      "max": [
        2.0833332538604736
      ],
      "min": [
        0.0
      ],
      "type": "SCALAR"
    },
    {
      "bufferView": 7,
      "byteOffset": 1248,
      "componentType": 5126,
      "count": 100,
      "max": [
        -4.011375904083252,
        -1.6019234657287598,
        -0.26072150468826294
      ],
      "min": [
        -4.01137638092041,
        -2.805978775024414,
        -0.26116013526916504
      ],
      "type": "VEC3"
    },
    {
      "bufferView": 6,
      "byteOffset": 1216,
      "componentType": 5126,
      "count": 4,
      "max": [
        2.0833332538604736
      ],
      "min": [
        0.0
      ],
      "type": "SCALAR"
    },
    {
      "bufferView": 7,
      "byteOffset": 2448,
      "componentType": 5126,
      "count": 4,
      "max": [
        1.0,
        1.000000238418579,
        1.0000003576278687
      ],
      "min": [
        1.0,
        1.0000001192092896,
        1.000000238418579
      ],
      "type": "VEC3"
    },
    {
      "bufferView": 6,
      "byteOffset": 1232,
      "componentType": 5126,
      "count": 100,
      "max": [
        2.0833332538604736
      ],
      "min": [
        0.0
      ],
      "type": "SCALAR"
    },
    {
      "bufferView": 8,
      "byteOffset": 1600,
      "componentType": 5126,
      "count": 100,
      "max": [
        -1.2127941317885416e-07,
        0.9999995231628418,
        0.008505835197865963,
        4.1097285929936334e-07
      ],
      "min": [
        -2.5918475898834004e-07,
        0.8576751947402954,
        -0.5141918659210205,
        2.593845067622169e-07
      ],
      "type": "VEC4"
    },
    {
      "bufferView": 6,
      "byteOffset": 1632,
      "componentType": 5126,
      "count": 100,
      "max": [
        2.0833332538604736
      ],
      "min": [
        0.0
      ],
      "type": "SCALAR"
    },
    {
      "bufferView": 7,
      "byteOffset": 2496,
      "componentType": 5126,
      "count": 100,
      "max": [
        4.0110182762146,
        -1.6019234657287598,
        -0.26072150468826294
      ],
      "min": [
        4.011017799377441,
        -2.805978775024414,
        -0.26116013526916504
      ],
      "type": "VEC3"
    },
    {
      "bufferView": 6,
      "byteOffset": 2032,
      "componentType": 5126,
      "count": 4,
      "max": [
        2.0833332538604736
      ],
      "min": [
        0.0
      ],
      "type": "SCALAR"
    },
    {
      "bufferView": 7,
      "byteOffset": 3696,
      "componentType": 5126,
      "count": 4,
      "max": [
        1.0,
        1.000000238418579,
        1.0000003576278687
      ],
      "min": [
        1.0,
        1.0000001192092896,
        1.000000238418579
      ],
      "type": "VEC3"
    },
    {
      "bufferView": 6,
      "byteOffset": 2048,
      "componentType": 5126,
      "count": 100,
      "max": [
        2.0833332538604736
      ],
      "min": [
        0.0
      ],
      "type": "SCALAR"
    },
    {
      "bufferView": 8,
      "byteOffset": 3200,
      "componentType": 5126,
      "count": 100,
      "max": [
        -1.2127941317885416e-07,
        0.9999995231628418,
        0.008505835197865963,
        4.1097285929936334e-07
      ],
      "min": [
        -2.5918475898834004e-07,
        0.8576751947402954,
        -0.5141918659210205,
        2.593845067622169e-07
      ],
      "type": "VEC4"
    },
    {
      "bufferView": 6,
      "byteOffset": 2448,
      "componentType": 5126,
      "count": 4,
      "max": [
        2.0833332538604736
      ],
      "min": [
        0.0
      ],
      "type": "SCALAR"
    },
    {
      "bufferView": 7,
      "byteOffset": 3744,
      "componentType": 5126,
      "count": 4,
      "max": [
        1.0,
        1.0000001192092896,
        1.0000001192092896
      ],
      "min": [
        1.0,
        1.0,
        1.0
      ],
      "type": "VEC3"
    },
    {
      "bufferView": 6,
      "byteOffset": 2464,
      "componentType": 5126,
      "count": 99,
      "max": [
        2.0833332538604736
      ],
      "min": [
        0.0
      ],
      "type": "SCALAR"
    },
    {
      "bufferView": 8,
      "byteOffset": 4800,
      "componentType": 5126,
      "count": 99,
      "max": [
        0.7071069478988647,
        0.4999998211860657,
        0.49966472387313843,
        0.5000001788139343
      ],
      "min": [
        -0.5000001788139343,
        -0.7071065902709961,
        -0.4999998211860657,
        -0.4996650516986847
      ],
      "type": "VEC4"
    },
    {
      "bufferView": 6,
      "byteOffset": 2860,
      "componentType": 5126,
      "count": 4,
      "max": [
        2.0833332538604736
      ],
      "min": [
        0.0
      ],
      "type": "SCALAR"
    },
    {
      "bufferView": 7,
      "byteOffset": 3792,
      "componentType": 5126,
      "count": 4,
      "max": [
        1.0,
        1.0000001192092896,
        1.0000001192092896
      ],
      "min": [
        1.0,
        1.0,
        1.0
      ],
      "type": "VEC3"
    },
    {
      "bufferView": 6,
      "byteOffset": 2876,
      "componentType": 5126,
      "count": 100,
      "max": [
        2.0833332538604736
      ],
      "min": [
        0.0
      ],
      "type": "SCALAR"
    },
    {
      "bufferView": 8,
      "byteOffset": 6384,
      "componentType": 5126,
      "count": 100,
      "max": [
        5.771305566781848e-08,
        0.49999991059303284,
        -0.4999999701976776,
        0.70710688829422
      ],
      "min": [
        -0.5000000596046448,
        -3.729298470034337e-08,
        -0.7071067094802856,
        0.5000001192092896
      ],
      "type": "VEC4"
    },
    {
      "bufferView": 6,
      "byteOffset": 3276,
      "componentType": 5126,
      "count": 4,
      "max": [
        2.0833332538604736
      ],
      "min": [
        0.0
      ],
      "type": "SCALAR"
    },
    {
      "bufferView": 7,
      "byteOffset": 3840,
      "componentType": 5126,
      "count": 4,
      "max": [
        1.0,
        1.0000001192092896,
        1.0000001192092896
      ],
      "min": [
        1.0,
        1.0,
        1.0
      ],
      "type": "VEC3"
    },
    {
      "bufferView": 6,
      "byteOffset": 3292,
      "componentType": 5126,
      "count": 99,
      "max": [
        2.0833332538604736
      ],
      "min": [
        0.0
      ],
      "type": "SCALAR"
    },
    {
      "bufferView": 8,
      "byteOffset": 7984,
      "componentType": 5126,
      "count": 99,
      "max": [
        0.70710688829422,
        0.49999991059303284,
        0.499664843082428,
        0.5000001192092896
      ],
      "min": [
        -0.5000000596046448,
        -0.7071067094802856,
        -0.4999999701976776,
        -0.49966496229171753
      ],
      "type": "VEC4"
    },
    {
      "bufferView": 6,
      "byteOffset": 3688,
      "componentType": 5126,
      "count": 4,
      "max": [
        2.0833332538604736
      ],
      "min": [
        0.0
      ],
      "type": "SCALAR"
    },
    {
      "bufferView": 7,
      "byteOffset": 3888,
      "componentType": 5126,
      "count": 4,
      "max": [
        1.0,
        1.0000001192092896,
        1.0000001192092896
      ],
      "min": [
        1.0,
        1.0,
        1.0
      ],
      "type": "VEC3"
    },
    {
      "bufferView": 6,
      "byteOffset": 3704,
      "componentType": 5126,
      "count": 100,
      "max": [
        2.0833332538604736
      ],
      "min": [
        0.0
      ],
      "type": "SCALAR"
    },
    {
      "bufferView": 8,
      "byteOffset": 9568,
      "componentType": 5126,
      "count": 100,
      "max": [
        8.337738677255402e-08,
        0.4999998211860657,
        -0.4999998211860657,
        0.7071069478988647
      ],
      "min": [
        -0.5000001788139343,
        -1.1628645602002052e-08,
        -0.7071065902709961,
        0.5000001788139343
      ],
      "type": "VEC4"
    },
    {
      "bufferView": 6,
      "byteOffset": 4104,
      "componentType": 5126,
      "count": 4,
      "max": [
        2.0833332538604736
      ],
      "min": [
        0.0
      ],
      "type": "SCALAR"
    },
    {
      "bufferView": 7,
      "byteOffset": 3936,
      "componentType": 5126,
      "count": 4,
      "max": [
        1.0,
        1.0000001192092896,
        1.0000001192092896
      ],
      "min": [
        1.0,
        1.0,
        1.0
      ],
      "type": "VEC3"
    },
    {
      "bufferView": 6,
      "byteOffset": 4120,
      "componentType": 5126,
      "count": 100,
      "max": [
        2.0833332538604736
      ],
      "min": [
        0.0
      ],
      "type": "SCALAR"
    },
    {
      "bufferView": 8,
      "byteOffset": 11168,
      "componentType": 5126,
      "count": 100,
      "max": [
        0.7990923523902893,
        0.4999999403953552,
        0.49937501549720764,
        0.5000000596046448
      ],
      "min": [
        -0.5,
        -0.5824286937713623,
        -0.5,
        -0.4999595582485199
      ],
      "type": "VEC4"
    },
    {
      "bufferView": 6,
      "byteOffset": 4520,
      "componentType": 5126,
      "count": 4,
      "max": [
        2.0833332538604736
      ],
      "min": [
        0.0
      ],
      "type": "SCALAR"
    },
    {
      "bufferView": 7,
      "byteOffset": 3984,
      "componentType": 5126,
      "count": 4,
      "max": [
        1.0,
        1.0,
        1.0000001192092896
      ],
      "min": [
        0.9999999403953552,
        1.0,
        1.0
      ],
      "type": "VEC3"
    },
    {
      "bufferView": 6,
      "byteOffset": 4536,
      "componentType": 5126,
      "count": 100,
      "max": [
        2.0833332538604736
      ],
      "min": [
        0.0
      ],
      "type": "SCALAR"
    },
    {
      "bufferView": 8,
      "byteOffset": 12768,
      "componentType": 5126,
      "count": 100,
      "max": [
        0.1930456906557083,
        0.4999999403953552,
        -0.5,
        0.5832024812698364
      ],
      "min": [
        -0.5,
        0.13994604349136353,
        -0.7984619736671448,
        0.5000000596046448
      ],
      "type": "VEC4"
    },
    {
      "bufferView": 6,
      "byteOffset": 4936,
      "componentType": 5126,
      "count": 100,
      "max": [
        2.0833332538604736
      ],
      "min": [
        0.0
      ],
      "type": "SCALAR"
    },
    {
      "bufferView": 7,
      "byteOffset": 4032,
      "componentType": 5126,
      "count": 100,
      "max": [
        0.0,
        5.844487190246582,
        0.0010414719581604004
      ],
      "min": [
        -3.344632659718627e-08,
        4.254290580749512,
        -0.26116013526916504
      ],
      "type": "VEC3"
    },
    {
      "bufferView": 6,
      "byteOffset": 5336,
      "componentType": 5126,
      "count": 4,
      "max": [
        2.0833332538604736
      ],
      "min": [
        0.0
      ],
      "type": "SCALAR"
    },
    {
      "bufferView": 7,
      "byteOffset": 5232,
      "componentType": 5126,
      "count": 4,
      "max": [
        1.0,
        1.000000238418579,
        1.0000003576278687
      ],
      "min": [
        1.0,
        1.0000001192092896,
        1.000000238418579
      ],
      "type": "VEC3"
    },
    {
      "bufferView": 6,
      "byteOffset": 5352,
      "componentType": 5126,
      "count": 100,
      "max": [
        2.0833332538604736
      ],
      "min": [
        0.0
      ],
      "type": "SCALAR"
    },
    {
      "bufferView": 8,
      "byteOffset": 14368,
      "componentType": 5126,
      "count": 100,
      "max": [
        1.3795031783558898e-08,
        0.9999997019767761,
        0.008505835197865963,
        2.9592845862680406e-07
      ],
      "min": [
        -1.6900459343105467e-07,
        0.8576751947402954,
        -0.5141918659210205,
        1.7350922121295298e-07
      ],
      "type": "VEC4"
    },
    {
      "bufferView": 6,
      "byteOffset": 5752,
      "componentType": 5126,
      "count": 100,
      "max": [
        2.0833332538604736
      ],
      "min": [
        0.0
      ],
      "type": "SCALAR"
    },
    {
      "bufferView": 7,
      "byteOffset": 5280,
      "componentType": 5126,
      "count": 100,
      "max": [
        -4.011375904083252,
        -1.6019234657287598,
        -0.26072150468826294
      ],
      "min": [
        -4.01137638092041,
        -2.805978775024414,
        -0.26116013526916504
      ],
      "type": "VEC3"
    },
    {
      "bufferView": 6,
      "byteOffset": 6152,
      "componentType": 5126,
      "count": 4,
      "max": [
        2.0833332538604736
      ],
      "min": [
        0.0
      ],
      "type": "SCALAR"
    },
    {
      "bufferView": 7,
      "byteOffset": 6480,
      "componentType": 5126,
      "count": 4,
      "max": [
        1.0,
        1.000000238418579,
        1.0000003576278687
      ],
      "min": [
        1.0,
        1.0000001192092896,
        1.000000238418579
      ],
      "type": "VEC3"
    },
    {
      "bufferView": 6,
      "byteOffset": 6168,
      "componentType": 5126,
      "count": 100,
      "max": [
        2.0833332538604736
      ],
      "min": [
        0.0
      ],
      "type": "SCALAR"
    },
    {
      "bufferView": 8,
      "byteOffset": 15968,
      "componentType": 5126,
      "count": 100,
      "max": [
        -1.2127941317885416e-07,
        0.9999998211860657,
        0.008505835197865963,
        4.1187223587257904e-07
      ],
      "min": [
        -2.5918475898834004e-07,
        0.8576751947402954,
        -0.5141918659210205,
        2.614233665099164e-07
      ],
      "type": "VEC4"
    },
    {
      "bufferView": 6,
      "byteOffset": 6568,
      "componentType": 5126,
      "count": 100,
      "max": [
        2.0833332538604736
      ],
      "min": [
        0.0
      ],
      "type": "SCALAR"
    },
    {
      "bufferView": 7,
      "byteOffset": 6528,
      "componentType": 5126,
      "count": 100,
      "max": [
        4.0110182762146,
        -1.6019234657287598,
        -0.26072150468826294
      ],
      "min": [
        4.011017799377441,
        -2.805978775024414,
        -0.26116013526916504
      ],
      "type": "VEC3"
    },
    {
      "bufferView": 6,
      "byteOffset": 6968,
      "componentType": 5126,
      "count": 4,
      "max": [
        2.0833332538604736
      ],
      "min": [
        0.0
      ],
      "type": "SCALAR"
    },
    {
      "bufferView": 7,
      "byteOffset": 7728,
      "componentType": 5126,
      "count": 4,
      "max": [
        1.0,
        1.000000238418579,
        1.0000003576278687
      ],
      "min": [
        1.0,
        1.0000001192092896,
        1.000000238418579
      ],
      "type": "VEC3"
    },
    {
      "bufferView": 6,
      "byteOffset": 6984,
      "componentType": 5126,
      "count": 100,
      "max": [
        2.0833332538604736
      ],
      "min": [
        0.0
      ],
      "type": "SCALAR"
    },
    {
      "bufferView": 8,
      "byteOffset": 17568,
      "componentType": 5126,
      "count": 100,
      "max": [
        -1.2127941317885416e-07,
        0.9999998211860657,
        0.008505835197865963,
        4.1187223587257904e-07
      ],
      "min": [
        -2.5918475898834004e-07,
        0.8576751947402954,
        -0.5141918659210205,
        2.614233665099164e-07
      ],
      "type": "VEC4"
    },
    {
      "bufferView": 6,
      "byteOffset": 7384,
      "componentType": 5126,
      "count": 4,
      "max": [
        2.0833332538604736
      ],
      "min": [
        0.0
      ],
      "type": "SCALAR"
    },
    {
      "bufferView": 7,
      "byteOffset": 7776,
      "componentType": 5126,
      "count": 4,
      "max": [
        1.0,
        1.0000001192092896,
        1.0000001192092896
      ],
      "min": [
        1.0,
        1.0,
        1.0
      ],
      "type": "VEC3"
    },
    {
      "bufferView": 6,
      "byteOffset": 7400,
      "componentType": 5126,
      "count": 99,
      "max": [
        2.0833332538604736
      ],
      "min": [
        0.0
      ],
      "type": "SCALAR"
    },
    {
      "bufferView": 8,
      "byteOffset": 19168,
      "componentType": 5126,
      "count": 99,
      "max": [
        0.7071069478988647,
        0.4999998211860657,
        0.49958091974258423,
        0.5000001788139343
      ],
      "min": [
        -0.5000001788139343,
        -0.7071065902709961,
        -0.4999998211860657,
        -0.4995812475681305
      ],
      "type": "VEC4"
    },
    {
      "bufferView": 6,
      "byteOffset": 7796,
      "componentType": 5126,
      "count": 4,
      "max": [
        2.0833332538604736
      ],
      "min": [
        0.0
      ],
      "type": "SCALAR"
    },
    {
      "bufferView": 7,
      "byteOffset": 7824,
      "componentType": 5126,
      "count": 4,
      "max": [
        1.0,
        1.0000001192092896,
        1.0000001192092896
      ],
      "min": [
        1.0,
        1.0,
        1.0
      ],
      "type": "VEC3"
    },
    {
      "bufferView": 6,
      "byteOffset": 7812,
      "componentType": 5126,
      "count": 100,
      "max": [
        2.0833332538604736
      ],
      "min": [
        0.0
      ],
      "type": "SCALAR"
    },
    {
      "bufferView": 8,
      "byteOffset": 20752,
      "componentType": 5126,
      "count": 100,
      "max": [
        5.771305566781848e-08,
        0.49999991059303284,
        -0.4999999701976776,
        0.70710688829422
      ],
      "min": [
        -0.5000000596046448,
        -3.729298470034337e-08,
        -0.7071067094802856,
        0.5000001192092896
      ],
      "type": "VEC4"
    },
    {
      "bufferView": 6,
      "byteOffset": 8212,
      "componentType": 5126,
      "count": 4,
      "max": [
        2.0833332538604736
      ],
      "min": [
        0.0
      ],
      "type": "SCALAR"
    },
    {
      "bufferView": 7,
      "byteOffset": 7872,
      "componentType": 5126,
      "count": 4,
      "max": [
        1.0,
        1.0000001192092896,
        1.0000001192092896
      ],
      "min": [
        1.0,
        1.0,
        1.0
      ],
      "type": "VEC3"
    },
    {
      "bufferView": 6,
      "byteOffset": 8228,
      "componentType": 5126,
      "count": 99,
      "max": [
        2.0833332538604736
      ],
      "min": [
        0.0
      ],
      "type": "SCALAR"
    },
    {
      "bufferView": 8,
      "byteOffset": 22352,
      "componentType": 5126,
      "count": 99,
      "max": [
        0.70710688829422,
        0.49999991059303284,
        0.4995810091495514,
        0.5000001192092896
      ],
      "min": [
        -0.5000000596046448,
        -0.7071067094802856,
        -0.4999999701976776,
        -0.49958112835884094
      ],
      "type": "VEC4"
    },
    {
      "bufferView": 6,
      "byteOffset": 8624,
      "componentType": 5126,
      "count": 4,
      "max": [
        2.0833332538604736
      ],
      "min": [
        0.0
      ],
      "type": "SCALAR"
    },
    {
      "bufferView": 7,
      "byteOffset": 7920,
      "componentType": 5126,
      "count": 4,
      "max": [
        1.0,
        1.0000001192092896,
        1.0000001192092896
      ],
      "min": [
        1.0,
        1.0,
        1.0
      ],
      "type": "VEC3"
    },
    {
      "bufferView": 6,
      "byteOffset": 8640,
      "componentType": 5126,
      "count": 100,
      "max": [
        2.0833332538604736
      ],
      "min": [
        0.0
      ],
      "type": "SCALAR"
    },
    {
      "bufferView": 8,
      "byteOffset": 23936,
      "componentType": 5126,
      "count": 100,
      "max": [
        8.337738677255402e-08,
        0.4999998211860657,
        -0.4999998211860657,
        0.7071069478988647
      ],
      "min": [
        -0.5000001788139343,
        -1.1628645602002052e-08,
        -0.7071065902709961,
        0.5000001788139343
      ],
      "type": "VEC4"
    },
    {
      "bufferView": 6,
      "byteOffset": 9040,
      "componentType": 5126,
      "count": 4,
      "max": [
        2.0833332538604736
      ],
      "min": [
        0.0
      ],
      "type": "SCALAR"
    },
    {
      "bufferView": 7,
      "byteOffset": 7968,
      "componentType": 5126,
      "count": 4,
      "max": [
        1.0,
        1.0000001192092896,
        1.0000001192092896
      ],
      "min": [
        1.0,
        1.0,
        1.0
      ],
      "type": "VEC3"
    },
    {
      "bufferView": 6,
      "byteOffset": 9056,
      "componentType": 5126,
      "count": 100,
      "max": [
        2.0833332538604736
      ],
      "min": [
        0.0
      ],
      "type": "SCALAR"
    },
    {
      "bufferView": 8,
      "byteOffset": 25536,
      "componentType": 5126,
      "count": 100,
      "max": [
        0.799147367477417,
        0.4999999403953552,
        0.4992186725139618,
        0.5000000596046448
      ],
      "min": [
        -0.5,
        -0.5824077725410461,
        -0.5,
        -0.49994921684265137
      ],
      "type": "VEC4"
    },
    {
      "bufferView": 6,
      "byteOffset": 9456,
      "componentType": 5126,
      "count": 4,
      "max": [
        2.0833332538604736
      ],
      "min": [
        0.0
      ],
      "type": "SCALAR"
    },
    {
      "bufferView": 7,
      "byteOffset": 8016,
      "componentType": 5126,
      "count": 4,
      "max": [
        1.0,
        1.0,
        1.0000001192092896
      ],
      "min": [
        0.9999999403953552,
        1.0,
        1.0
      ],
      "type": "VEC3"
    },
    {
      "bufferView": 6,
      "byteOffset": 9472,
      "componentType": 5126,
      "count": 100,
      "max": [
        2.0833332538604736
      ],
      "min": [
        0.0
      ],
      "type": "SCALAR"
    },
    {
      "bufferView": 8,
      "byteOffset": 27136,
      "componentType": 5126,
      "count": 100,
      "max": [
        0.1930456906557083,
        0.4999999403953552,
        -0.5,
        0.583196759223938
      ],
      "min": [
        -0.5,
        0.13994604349136353,
        -0.798503041267395,
        0.5000000596046448
      ],
      "type": "VEC4"
    }
  ],
  "animations": [
    {
      "channels": [
        {
          "sampler": 0,
          "target": {
            "node": 39,
            "path": "translation"
          }
        },
        {
          "sampler": 1,
          "target": {
            "node": 39,
            "path": "scale"
          }
        },
        {
          "sampler": 2,
          "target": {
            "node": 39,
            "path": "rotation"
          }
        },
        {
          "sampler": 3,
          "target": {
            "node": 40,
            "path": "translation"
          }
        },
        {
          "sampler": 4,
          "target": {
            "node": 40,
            "path": "scale"
          }
        },
        {
          "sampler": 5,
          "target": {
            "node": 40,
            "path": "rotation"
          }
        },
        {
          "sampler": 6,
          "target": {
            "node": 41,
            "path": "translation"
          }
        },
        {
          "sampler": 7,
          "target": {
            "node": 41,
            "path": "scale"
          }
        },
        {
          "sampler": 8,
          "target": {
            "node": 41,
            "path": "rotation"
          }
        },
        {
          "sampler": 9,
          "target": {
            "node": 42,
            "path": "scale"
          }
        },
        {
          "sampler": 10,
          "target": {
            "node": 42,
            "path": "rotation"
          }
        },
        {
          "sampler": 11,
          "target": {
            "node": 43,
            "path": "scale"
          }
        },
        {
          "sampler": 12,
          "target": {
            "node": 43,
            "path": "rotation"
          }
        },
        {
          "sampler": 13,
          "target": {
            "node": 44,
            "path": "scale"
          }
        },
        {
          "sampler": 14,
          "target": {
            "node": 44,
            "path": "rotation"
          }
        },
        {
          "sampler": 15,
          "target": {
            "node": 45,
            "path": "scale"
          }
        },
        {
          "sampler": 16,
          "target": {
            "node": 45,
            "path": "rotation"
          }
        },
        {
          "sampler": 17,
          "target": {
            "node": 46,
            "path": "scale"
          }
        },
        {
          "sampler": 18,
          "target": {
            "node": 46,
            "path": "rotation"
          }
        },
        {
          "sampler": 19,
          "target": {
            "node": 47,
            "path": "scale"
          }
        },
        {
          "sampler": 20,
          "target": {
            "node": 47,
            "path": "rotation"
          }
        }
      ],
      "name": "Land",
      "samplers": [
        {
          "input": 122,
          "interpolation": "LINEAR",
          "output": 123
        },
        {
          "input": 124,
          "interpolation": "LINEAR",
          "output": 125
        },
        {
          "input": 126,
          "interpolation": "LINEAR",
          "output": 127
        },
        {
          "input": 128,
          "interpolation": "LINEAR",
          "output": 129
        },
        {
          "input": 130,
          "interpolation": "LINEAR",
          "output": 131
        },
        {
          "input": 132,
          "interpolation": "LINEAR",
          "output": 133
        },
        {
          "input": 134,
          "interpolation": "LINEAR",
          "output": 135
        },
        {
          "input": 136,
          "interpolation": "LINEAR",
          "output": 137
        },
        {
          "input": 138,
          "interpolation": "LINEAR",
          "output": 139
        },
        {
          "input": 140,
          "interpolation": "LINEAR",
          "output": 141
        },
        {
          "input": 142,
          "interpolation": "LINEAR",
          "output": 143
        },
        {
          "input": 144,
          "interpolation": "LINEAR",
          "output": 145
        },
        {
          "input": 146,
          "interpolation": "LINEAR",
          "output": 147
        },
        {
          "input": 148,
          "interpolation": "LINEAR",
          "output": 149
        },
        {
          "input": 150,
          "interpolation": "LINEAR",
          "output": 151
        },
        {
          "input": 152,
          "interpolation": "LINEAR",
          "output": 153
        },
        {
          "input": 154,
          "interpolation": "LINEAR",
          "output": 155
        },
        {
          "input": 156,
          "interpolation": "LINEAR",
          "output": 157
        },
        {
          "input": 158,
          "interpolation": "LINEAR",
          "output": 159
        },
        {
          "input": 160,
          "interpolation": "LINEAR",
          "output": 161
        },
        {
          "input": 162,
          "interpolation": "LINEAR",
          "output": 163
        }
      ]
    },
    {
      "channels": [
        {
          "sampler": 0,
          "target": {
            "node": 39,
            "path": "translation"
          }
        },
        {
          "sampler": 1,
          "target": {
            "node": 39,
            "path": "scale"
          }
        },
        {
          "sampler": 2,
          "target": {
            "node": 39,
            "path": "rotation"
          }
        },
        {
          "sampler": 3,
          "target": {
            "node": 40,
            "path": "translation"
          }
        },
        {
          "sampler": 4,
          "target": {
            "node": 40,
            "path": "scale"
          }
        },
        {
          "sampler": 5,
          "target": {
            "node": 40,
            "path": "rotation"
          }
        },
        {
          "sampler": 6,
          "target": {
            "node": 41,
            "path": "translation"
          }
        },
        {
          "sampler": 7,
          "target": {
            "node": 41,
            "path": "scale"
          }
        },
        {
          "sampler": 8,
          "target": {
            "node": 41,
            "path": "rotation"
          }
        },
        {
          "sampler": 9,
          "target": {
            "node": 42,
            "path": "scale"
          }
        },
        {
          "sampler": 10,
          "target": {
            "node": 42,
            "path": "rotation"
          }
        },
        {
          "sampler": 11,
          "target": {
            "node": 43,
            "path": "scale"
          }
        },
        {
          "sampler": 12,
          "target": {
            "node": 43,
            "path": "rotation"
          }
        },
        {
          "sampler": 13,
          "target": {
            "node": 44,
            "path": "scale"
          }
        },
        {
          "sampler": 14,
          "target": {
            "node": 44,
            "path": "rotation"
          }
        },
        {
          "sampler": 15,
          "target": {
            "node": 45,
            "path": "scale"
          }
        },
        {
          "sampler": 16,
          "target": {
            "node": 45,
            "path": "rotation"
          }
        },
        {
          "sampler": 17,
          "target": {
            "node": 46,
            "path": "scale"
          }
        },
        {
          "sampler": 18,
          "target": {
            "node": 46,
            "path": "rotation"
          }
        },
        {
          "sampler": 19,
          "target": {
            "node": 47,
            "path": "scale"
          }
        },
        {
          "sampler": 20,
          "target": {
            "node": 47,
            "path": "rotation"
          }
        }
      ],
      "name": "Takeoff",
      "samplers": [
        {
          "input": 164,
          "interpolation": "LINEAR",
          "output": 165
        },
        {
          "input": 166,
          "interpolation": "LINEAR",
          "output": 167
        },
        {
          "input": 168,
          "interpolation": "LINEAR",
          "output": 169
        },
        {
          "input": 170,
          "interpolation": "LINEAR",
          "output": 171
        },
        {
          "input": 172,
          "interpolation": "LINEAR",
          "output": 173
        },
        {
          "input": 174,
          "interpolation": "LINEAR",
          "output": 175
        },
        {
          "input": 176,
          "interpolation": "LINEAR",
          "output": 177
        },
        {
          "input": 178,
          "interpolation": "LINEAR",
          "output": 179
        },
        {
          "input": 180,
          "interpolation": "LINEAR",
          "output": 181
        },
        {
          "input": 182,
          "interpolation": "LINEAR",
          "output": 183
        },
        {
          "input": 184,
          "interpolation": "LINEAR",
          "output": 185
        },
        {
          "input": 186,
          "interpolation": "LINEAR",
          "output": 187
        },
        {
          "input": 188,
          "interpolation": "LINEAR",
          "output": 189
        },
        {
          "input": 190,
          "interpolation": "LINEAR",
          "output": 191
        },
        {
          "input": 192,
          "interpolation": "LINEAR",
          "output": 193
        },
        {
          "input": 194,
          "interpolation": "LINEAR",
          "output": 195
        },
        {
          "input": 196,
          "interpolation": "LINEAR",
          "output": 197
        },
        {
          "input": 198,
          "interpolation": "LINEAR",
          "output": 199
        },
        {
          "input": 200,
          "interpolation": "LINEAR",
          "output": 201
        },
        {
          "input": 202,
          "interpolation": "LINEAR",
          "output": 203
        },
        {
          "input": 204,
          "interpolation": "LINEAR",
          "output": 205
        }
      ]
    }
  ],
  "asset": {
    "extras": {
      "author": "Quiznos323 (https://sketchfab.com/quiznos323)",
      "license": "CC-BY-NC-SA-4.0 (http://creativecommons.org/licenses/by-nc-sa/4.0/)",
      "source": "https://sketchfab.com/3d-models/y-wing-starfighter-star-wars-50f7cebe61044d21801a301162212be2",
      "title": "Y-wing Starfighter - Star Wars"
    },
    "generator": "Sketchfab-16.12.0",
    "version": "2.0"
  },
  "bufferViews": [
    {
      "buffer": 0,
      "byteLength": 302424,
      "byteStride": 8,
      "name": "shortBufferViews",
      "target": 34962
    },
    {
      "buffer": 0,
      "byteLength": 610896,
      "byteOffset": 302424,
      "name": "floatBufferViews",
      "target": 34963
    },
    {
      "buffer": 0,
      "byteLength": 501976,
      "byteOffset": 913320,
      "byteStride": 8,
      "name": "floatBufferViews",
      "target": 34962
    },
    {
      "buffer": 0,
      "byteLength": 1206600,
      "byteOffset": 1415296,
      "byteStride": 12,
      "name": "floatBufferViews",
      "target": 34962
    },
    {
      "buffer": 0,
      "byteLength": 1409248,
      "byteOffset": 2621896,
      "byteStride": 16,
      "name": "floatBufferViews",
      "target": 34962
    },
    {
      "buffer": 0,
      "byteLength": 768,
      "byteOffset": 4031144,
      "name": "floatBufferViews"
    },
    {
      "buffer": 0,
      "byteLength": 9872,
      "byteOffset": 4031912,
      "name": "floatBufferViews"
    },
    {
      "buffer": 0,
      "byteLength": 8064,
      "byteOffset": 4041784,
      "byteStride": 12,
      "name": "floatBufferViews"
    },
    {
      "buffer": 0,
      "byteLength": 28736,
      "byteOffset": 4049848,
      "byteStride": 16,
      "name": "floatBufferViews"
    }
  ],
  "buffers": [
    {
      "byteLength": 4078584,
      "uri": "scene.bin"
    }
  ],
  "extensionsUsed": [
    "KHR_materials_emissive_strength"
  ],
  "images": [
    {
      "uri": "textures/Y-Wing_baseColor.png"
    },
    {
      "uri": "textures/Y-Wing_metallicRoughness.png"
    },
    {
      "uri": "textures/Y-Wing_emissive.png"
    },
    {
      "uri": "textures/Y-Wing_normal.png"
    },
    {
      "uri": "textures/Astromech_baseColor.png"
    },
    {
      "uri": "textures/Astromech_metallicRoughness.png"
    },
    {
      "uri": "textures/Astromech_emissive.png"
    },
    {
      "uri": "textures/Astromech_normal.png"
    }
  ],
  "materials": [
    {
      "doubleSided": true,
      "emissiveFactor": [
        1.0,
        1.0,
        1.0
      ],
      "emissiveTexture": {
        "index": 2
      },
      "extensions": {
        "KHR_materials_emissive_strength": {
          "emissiveStrength": 10.0
        }
      },
      "name": "Y-Wing",
      "normalTexture": {
        "index": 3
      },
      "pbrMetallicRoughness": {
        "baseColorTexture": {
          "index": 0
        },
        "metallicFactor": 0.0,
        "metallicRoughnessTexture": {
          "index": 1
        }
      }
    },
    {
      "doubleSided": true,
      "emissiveFactor": [
        1.0,
        1.0,
        1.0
      ],
      "emissiveTexture": {
        "index": 6
      },
      "extensions": {
        "KHR_materials_emissive_strength": {
          "emissiveStrength": 3.1179888003
        }
      },
      "name": "Astromech",
      "normalTexture": {
        "index": 7
      },
      "pbrMetallicRoughness": {
        "baseColorTexture": {
          "index": 4
        },
        "metallicFactor": 0.0,
        "metallicRoughnessTexture": {
          "index": 5
        }
      }
    }
  ],
  "meshes": [
    {
      "name": "Main body_Y-Wing_0",
      "primitives": [
        {
          "attributes": {
            "JOINTS_0": 96,
            "NORMAL": 1,
            "POSITION": 0,
            "TANGENT": 2,
            "TEXCOORD_0": 3,
            "TEXCOORD_1": 3,
            "TEXCOORD_2": 3,
            "WEIGHTS_0": 97
          },
          "indices": 4,
          "material": 0,
          "mode": 4
        }
      ]
    },
    {
      "name": "Engines_Y-Wing_0",
      "primitives": [
        {
          "attributes": {
            "JOINTS_0": 98,
            "NORMAL": 6,
            "POSITION": 5,
            "TANGENT": 7,
            "TEXCOORD_0": 8,
            "TEXCOORD_1": 8,
            "TEXCOORD_2": 8,
            "WEIGHTS_0": 99
          },
          "indices": 9,
          "material": 0,
          "mode": 4
        }
      ]
    },
    {
      "name": "Cockpit_Y-Wing_0",
      "primitives": [
        {
          "attributes": {
            "JOINTS_0": 100,
            "NORMAL": 11,
            "POSITION": 10,
            "TANGENT": 12,
            "TEXCOORD_0": 13,
            "TEXCOORD_1": 13,
            "TEXCOORD_2": 13,
            "WEIGHTS_0": 101
          },
          "indices": 14,
          "material": 0,
          "mode": 4
        }
      ]
    },
    {
      "name": "Top Turret_Y-Wing_0",
      "primitives": [
        {
          "attributes": {
            "JOINTS_0": 102,
            "NORMAL": 16,
            "POSITION": 15,
            "TANGENT": 17,
            "TEXCOORD_0": 18,
            "TEXCOORD_1": 18,
            "TEXCOORD_2": 18,
            "WEIGHTS_0": 103
          },
          "indices": 19,
          "material": 0,
          "mode": 4
        }
      ]
    },
    {
      "name": "Body greeble mirrored_Y-Wing_0",
      "primitives": [
        {
          "attributes": {
            "JOINTS_0": 104,
            "NORMAL": 21,
            "POSITION": 20,
            "TANGENT": 22,
            "TEXCOORD_0": 23,
            "TEXCOORD_1": 23,
            "TEXCOORD_2": 23,
            "WEIGHTS_0": 105
          },
          "indices": 24,
          "material": 0,
          "mode": 4
        }
      ]
    },
    {
      "name": "Body greeble_Y-Wing_0",
      "primitives": [
        {
          "attributes": {
            "JOINTS_0": 106,
            "NORMAL": 26,
            "POSITION": 25,
            "TANGENT": 27,
            "TEXCOORD_0": 28,
            "TEXCOORD_1": 28,
            "TEXCOORD_2": 28,
            "WEIGHTS_0": 107
          },
          "indices": 29,
          "material": 0,
          "mode": 4
        }
      ]
    },
    {
      "name": "Landing_gear_doors_front_2_Y-Wing_0",
      "primitives": [
        {
          "attributes": {
            "JOINTS_0": 108,
            "NORMAL": 31,
            "POSITION": 30,
            "TANGENT": 32,
            "TEXCOORD_0": 33,
            "TEXCOORD_1": 33,
            "TEXCOORD_2": 33,
            "WEIGHTS_0": 109
          },
          "indices": 34,
          "material": 0,
          "mode": 4
        }
      ]
    },
    {
      "name": "landing gear_Y-Wing_0",
      "primitives": [
        {
          "attributes": {
            "JOINTS_0": 110,
            "NORMAL": 36,
            "POSITION": 35,
            "TANGENT": 37,
            "TEXCOORD_0": 38,
            "TEXCOORD_1": 38,
            "TEXCOORD_2": 38,
            "WEIGHTS_0": 111
          },
          "indices": 39,
          "material": 0,
          "mode": 4
        }
      ]
    },
    {
      "name": "Landing_gear_doors_rear_2.L_Y-Wing_0",
      "primitives": [
        {
          "attributes": {
            "JOINTS_0": 112,
            "NORMAL": 41,
            "POSITION": 40,
            "TANGENT": 42,
            "TEXCOORD_0": 43,
            "TEXCOORD_1": 43,
            "TEXCOORD_2": 43,
            "WEIGHTS_0": 113
          },
          "indices": 44,
          "material": 0,
          "mode": 4
        }
      ]
    },
    {
      "name": "Landing_gear_doors_rear_1.L_Y-Wing_0",
      "primitives": [
        {
          "attributes": {
            "JOINTS_0": 114,
            "NORMAL": 46,
            "POSITION": 45,
            "TANGENT": 47,
            "TEXCOORD_0": 48,
            "TEXCOORD_1": 48,
            "TEXCOORD_2": 48,
            "WEIGHTS_0": 115
          },
          "indices": 49,
          "material": 0,
          "mode": 4
        }
      ]
    },
    {
      "name": "Landing_gear_doors_rear_2.R_Y-Wing_0",
      "primitives": [
        {
          "attributes": {
            "JOINTS_0": 116,
            "NORMAL": 51,
            "POSITION": 50,
            "TANGENT": 52,
            "TEXCOORD_0": 53,
            "TEXCOORD_1": 53,
            "TEXCOORD_2": 53,
            "WEIGHTS_0": 117
          },
          "indices": 54,
          "material": 0,
          "mode": 4
        }
      ]
    },
    {
      "name": "Landing_gear_doors_rear_1.R_Y-Wing_0",
      "primitives": [
        {
          "attributes": {
            "JOINTS_0": 118,
            "NORMAL": 56,
            "POSITION": 55,
            "TANGENT": 57,
            "TEXCOORD_0": 58,
            "TEXCOORD_1": 58,
            "TEXCOORD_2": 58,
            "WEIGHTS_0": 119
          },
          "indices": 59,
          "material": 0,
          "mode": 4
        }
      ]
    },
    {
      "name": "Landing_gear_doors_front_1_Y-Wing_0",
      "primitives": [
        {
          "attributes": {
            "JOINTS_0": 120,
            "NORMAL": 61,
            "POSITION": 60,
            "TANGENT": 62,
            "TEXCOORD_0": 63,
            "TEXCOORD_1": 63,
            "TEXCOORD_2": 63,
            "WEIGHTS_0": 121
          },
          "indices": 64,
          "material": 0,
          "mode": 4
        }
      ]
    },
    {
      "name": "head_Astromech_0",
      "primitives": [
        {
          "attributes": {
            "NORMAL": 66,
            "POSITION": 65,
            "TANGENT": 67,
            "TEXCOORD_0": 68,
            "TEXCOORD_1": 69
          },
          "indices": 70,
          "material": 1,
          "mode": 4
        }
      ]
    },
    {
      "name": "body_Astromech_0",
      "primitives": [
        {
          "attributes": {
            "NORMAL": 72,
            "POSITION": 71,
            "TANGENT": 73,
            "TEXCOORD_0": 74,
            "TEXCOORD_1": 75
          },
          "indices": 76,
          "material": 1,
          "mode": 4
        }
      ]
    },
    {
      "name": "main_legs_Astromech_0",
      "primitives": [
        {
          "attributes": {
            "NORMAL": 78,
            "POSITION": 77,
            "TANGENT": 79,
            "TEXCOORD_0": 80,
            "TEXCOORD_1": 81
          },
          "indices": 82,
          "material": 1,
          "mode": 4
        }
      ]
    },
    {
      "name": "front_side_panels_Astromech_0",
      "primitives": [
        {
          "attributes": {
            "NORMAL": 84,
            "POSITION": 83,
            "TANGENT": 85,
            "TEXCOORD_0": 86,
            "TEXCOORD_1": 87
          },
          "indices": 88,
          "material": 1,
          "mode": 4
        }
      ]
    },
    {
      "name": "front_arms_Astromech_0",
      "primitives": [
        {
          "attributes": {
            "NORMAL": 90,
            "POSITION": 89,
            "TANGENT": 91,
            "TEXCOORD_0": 92,
            "TEXCOORD_1": 93
          },
          "indices": 94,
          "material": 1,
          "mode": 4
        }
      ]
    }
  ],
  "nodes": [
    {
      "children": [
        1
      ],
      "matrix": [
        1.0,
        0.0,
        0.0,
        0.0,
        0.0,
        2.220446049250313e-16,
        -1.0,
        0.0,
        0.0,
        1.0,
        2.220446049250313e-16,
        0.0,
        0.0,
        0.0,
        0.0,
        1.0
      ],
      "name": "Sketchfab_model"
    },
    {
      "children": [
        2
      ],
      "matrix": [
        1.0,
        0.0,
        0.0,
        0.0,
        0.0,
        0.0,
        1.0,
        0.0,
        0.0,
        -1.0,
        0.0,
        0.0,
        0.0,
        0.0,
        0.0,
        1.0
      ],
      "name": "y-wing.fbx"
    },
    {
      "children": [
        3
      ],
      "name": "Object_2"
    },
    {
      "children": [
        4,
        5,
        6,
        7,
        8,
        9,
        10,
        11,
        12,
        13,
        14,
        54,
        55,
        56,
        57
      ],
      "name": "RootNode"
    },
    {
      "name": "Main body",
      "rotation": [
        -0.7071068286895752,
        0.0,
        0.0,
        0.7071067094802856
      ]
    },
    {
      "name": "Engines",
      "rotation": [
        -0.7071068286895752,
        0.0,
        0.0,
        0.7071067094802856
      ]
    },
    {
      "name": "Cockpit",
      "rotation": [
        -0.7071068286895752,
        0.0,
        0.0,
        0.7071067094802856
      ]
    },
    {
      "name": "Top Turret",
      "rotation": [
        -0.7071068286895752,
        0.0,
        0.0,
        0.7071067094802856
      ]
    },
    {
      "name": "Body greeble mirrored",
      "rotation": [
        -0.7071068286895752,
        0.0,
        0.0,
        0.7071067094802856
      ]
    },
    {
      "name": "Body greeble",
      "rotation": [
        -0.7071068286895752,
        0.0,
        0.0,
        0.7071067094802856
      ]
    },
    {
      "name": "Landing_gear_doors_front_2",
      "rotation": [
        -0.7071068286895752,
        0.0,
        0.0,
        0.7071067094802856
      ]
    },
    {
      "name": "landing gear",
      "rotation": [
        -0.7071068286895752,
        0.0,
        0.0,
        0.7071067094802856
      ]
    },
    {
      "name": "Landing_gear_doors_rear_2.L",
      "rotation": [
        -0.7071068286895752,
        0.0,
        0.0,
        0.7071067094802856
      ]
    },
    {
      "name": "Landing_gear_doors_rear_1.L",
      "rotation": [
        -0.7071068286895752,
        0.0,
        0.0,
        0.7071067094802856
      ]
    },
    {
      "children": [
        15
      ],
      "name": "Armature",
      "rotation": [
        -0.7071068286895752,
        0.0,
        0.0,
        0.7071067094802856
      ]
    },
    {
      "children": [
        16,
        18,
        20,
        22,
        24,
        26,
        28,
        30,
        32,
        34,
        36,
        49,
        51,
        53,
        17,
        19,
        21,
        23,
        25,
        27,
        29,
        31,
        33,
        35,
        48,
        50,
        52
      ],
      "name": "Object_15"
    },
    {
      "children": [
        37
      ],
      "name": "_rootJoint"
    },
    {
      "matrix": [
        1.0,
        0.0,
        0.0,
        0.0,
        0.0,
        6.123233995736766e-17,
        -1.0,
        0.0,
        0.0,
        1.0,
        6.123233995736766e-17,
        0.0,
        0.0,
        0.0,
        0.0,
        1.0
      ],
      "name": "Object_17"
    },
    {
      "mesh": 0,
      "name": "Object_18",
      "skin": 0
    },
    {
      "matrix": [
        1.0,
        0.0,
        0.0,
        0.0,
        0.0,
        6.123233995736766e-17,
        -1.0,
        0.0,
        0.0,
        1.0,
        6.123233995736766e-17,
        0.0,
        0.0,
        0.0,
        0.0,
        1.0
      ],
      "name": "Object_19"
    },
    {
      "mesh": 1,
      "name": "Object_20",
      "skin": 0
    },
    {
      "matrix": [
        1.0,
        0.0,
        0.0,
        0.0,
        0.0,
        6.123233995736766e-17,
        -1.0,
        0.0,
        0.0,
        1.0,
        6.123233995736766e-17,
        0.0,
        0.0,
        0.0,
        0.0,
        1.0
      ],
      "name": "Object_21"
    },
    {
      "mesh": 2,
      "name": "Object_22",
      "skin": 0
    },
    {
      "matrix": [
        1.0,
        0.0,
        0.0,
        0.0,
        0.0,
        6.123233995736766e-17,
        -1.0,
        0.0,
        0.0,
        1.0,
        6.123233995736766e-17,
        0.0,
        0.0,
        0.0,
        0.0,
        1.0
      ],
      "name": "Object_23"
    },
    {
      "mesh": 3,
      "name": "Object_24",
      "skin": 0
    },
    {
      "matrix": [
        1.0,
        0.0,
        0.0,
        0.0,
        0.0,
        6.123233995736766e-17,
        -1.0,
        0.0,
        0.0,
        1.0,
        6.123233995736766e-17,
        0.0,
        0.0,
        0.0,
        0.0,
        1.0
      ],
      "name": "Object_25"
    },
    {
      "mesh": 4,
      "name": "Object_26",
      "skin": 0
    },
    {
      "matrix": [
        1.0,
        0.0,
        0.0,
        0.0,
        0.0,
        6.123233995736766e-17,
        -1.0,
        0.0,
        0.0,
        1.0,
        6.123233995736766e-17,
        0.0,
        0.0,
        0.0,
        0.0,
        1.0
      ],
      "name": "Object_27"
    },
    {
      "mesh": 5,
      "name": "Object_28",
      "skin": 0
    },
    {
      "matrix": [
        1.0,
        0.0,
        0.0,
        0.0,
        0.0,
        6.123233995736766e-17,
        -1.0,
        0.0,
        0.0,
        1.0,
        6.123233995736766e-17,
        0.0,
        0.0,
        0.0,
        0.0,
        1.0
      ],
      "name": "Object_29"
    },
    {
      "mesh": 6,
      "name": "Object_30",
      "skin": 0
    },
    {
      "matrix": [
        1.0,
        0.0,
        0.0,
        0.0,
        0.0,
        6.123233995736766e-17,
        -1.0,
        0.0,
        0.0,
        1.0,
        6.123233995736766e-17,
        0.0,
        0.0,
        0.0,
        0.0,
        1.0
      ],
      "name": "Object_31"
    },
    {
      "mesh": 7,
      "name": "Object_32",
      "skin": 0
    },
    {
      "matrix": [
        1.0,
        0.0,
        0.0,
        0.0,
        0.0,
        6.123233995736766e-17,
        -1.0,
        0.0,
        0.0,
        1.0,
        6.123233995736766e-17,
        0.0,
        0.0,
        0.0,
        0.0,
        1.0
      ],
      "name": "Object_33"
    },
    {
      "mesh": 8,
      "name": "Object_34",
      "skin": 0
    },
    {
      "matrix": [
        1.0,
        0.0,
        0.0,
        0.0,
        0.0,
        6.123233995736766e-17,
        -1.0,
        0.0,
        0.0,
        1.0,
        6.123233995736766e-17,
        0.0,
        0.0,
        0.0,
        0.0,
        1.0
      ],
      "name": "Object_35"
    },
    {
      "mesh": 9,
      "name": "Object_36",
      "skin": 0
    },
    {
      "children": [
        38
      ],
      "name": "Root_00",
      "rotation": [
        -1.1570308140341478e-30,
        2.6469779601696886e-23,
        1.0,
        -4.371138828673793e-08
      ]
    },
    {
      "children": [
        39,
        40,
        41,
        42,
        43,
        44,
        45,
        46,
        47
      ],
      "name": "Body_01",
      "rotation": [
        1.3234889800848443e-23,
        1.5777218104420236e-30,
        -0.0,
        1.0
      ],
      "translation": [
        0.0,
        -1.7593021392822266,
        5.293955920339377e-23
      ]
    },
    {
      "name": "LandingGearFront_02",
      "rotation": [
        1.3390151210046497e-08,
        0.9999638199806213,
        0.008505835197865963,
        3.1404172773363825e-07
      ],
      "scale": [
        1.0,
        1.000000238418579,
        1.000000238418579
      ],
      "translation": [
        -3.344632659718627e-08,
        4.254290580749512,
        -0.26072144508361816
      ]
    },
    {
      "name": "LandingGearBack.L_03",
      "rotation": [
        -1.2156566242538247e-07,
        0.9999638199806213,
        0.008505835197865963,
        4.321073845403589e-07
      ],
      "scale": [
        1.0,
        1.000000238418579,
        1.000000238418579
      ],
      "translation": [
        -4.011375904083252,
        -2.805978775024414,
        -0.26072150468826294
      ]
    },
    {
      "name": "LandingGearBack.R_04",
      "rotation": [
        -1.2156566242538247e-07,
        0.9999638199806213,
        0.008505835197865963,
        4.321073845403589e-07
      ],
      "scale": [
        1.0,
        1.000000238418579,
        1.000000238418579
      ],
      "translation": [
        4.0110182762146,
        -2.805978775024414,
        -0.26072150468826294
      ]
    },
    {
      "name": "LandingGearDoorRear2.L_05",
      "rotation": [
        -0.5000001788139343,
        0.49999985098838806,
        -0.4999998211860657,
        0.5000001788139343
      ],
      "translation": [
        -4.545331954956055,
        -1.3755903244018555,
        -0.6506227254867554
      ]
    },
    {
      "name": "LandingGearDoorRear1.L_06",
      "rotation": [
        -0.5000000596046448,
        0.49999991059303284,
        -0.4999999403953552,
        0.5000001192092896
      ],
      "translation": [
        -3.4774208068847656,
        -1.3755903244018555,
        -0.6506227254867554
      ]
    },
    {
      "name": "LandingGearDoorRear2.R_07",
      "rotation": [
        -0.5000000596046448,
        0.49999991059303284,
        -0.4999999403953552,
        0.5000001192092896
      ],
      "translation": [
        3.4774208068847656,
        -1.3755903244018555,
        -0.6506227254867554
      ]
    },
    {
      "name": "LandingGearDoorRear1.R_08",
      "rotation": [
        -0.5000001788139343,
        0.49999985098838806,
        -0.4999998211860657,
        0.5000001788139343
      ],
      "translation": [
        4.545331954956055,
        -1.3755903244018555,
        -0.6506227254867554
      ]
    },
    {
      "name": "LandingGearDoorFront2_09",
      "rotation": [
        -0.5,
        0.4999999701976776,
        -0.5,
        0.5000000596046448
      ],
      "translation": [
        -0.42246127128601074,
        6.041845321655273,
        -0.7219960689544678
      ]
    },
    {
      "name": "LandingGearDoorFront1_010",
      "rotation": [
        -0.5,
        0.4999999701976776,
        -0.5,
        0.5000000596046448
      ],
      "translation": [
        0.42246127128601074,
        6.041845321655273,
        -0.7219960689544678
      ]
    },
    {
      "matrix": [
        1.0,
        0.0,
        0.0,
        0.0,
        0.0,
        6.123233995736766e-17,
        -1.0,
        0.0,
        0.0,
        1.0,
        6.123233995736766e-17,
        0.0,
        0.0,
        0.0,
        0.0,
        1.0
      ],
      "name": "Object_48"
    },
    {
      "mesh": 10,
      "name": "Object_49",
      "skin": 0
    },
    {
      "matrix": [
        1.0,
        0.0,
        0.0,
        0.0,
        0.0,
        6.123233995736766e-17,
        -1.0,
        0.0,
        0.0,
        1.0,
        6.123233995736766e-17,
        0.0,
        0.0,
        0.0,
        0.0,
        1.0
      ],
      "name": "Object_50"
    },
    {
      "mesh": 11,
      "name": "Object_51",
      "skin": 0
    },
    {
      "matrix": [
        1.0,
        0.0,
        0.0,
        0.0,
        0.0,
        6.123233995736766e-17,
        -1.0,
        0.0,
        0.0,
        1.0,
        6.123233995736766e-17,
        0.0,
        0.0,
        0.0,
        0.0,
        1.0
      ],
      "name": "Object_52"
    },
    {
      "mesh": 12,
      "name": "Object_53",
      "skin": 0
    },
    {
      "name": "Landing_gear_doors_rear_2.R",
      "rotation": [
        -0.7071068286895752,
        0.0,
        0.0,
        0.7071067094802856
      ]
    },
    {
      "name": "Landing_gear_doors_rear_1.R",
      "rotation": [
        -0.7071068286895752,
        0.0,
        0.0,
        0.7071067094802856
      ]
    },
    {
      "name": "Landing_gear_doors_front_1",
      "rotation": [
        -0.7071068286895752,
        0.0,
        0.0,
        0.7071067094802856
      ]
    },
    {
      "children": [
        58,
        60,
        62,
        64,
        66
      ],
      "name": "Astromech",
      "rotation": [
        -0.7071068286895752,
        0.0,
        0.0,
        0.7071067094802856
      ],
      "translation": [
        -6.146728992462158e-08,
        0.32903018593788147,
        0.5490748286247253
      ]
    },
    {
      "children": [
        59
      ],
      "name": "head",
      "rotation": [
        -1.3234889800848443e-23,
        -0.0,
        0.0,
        1.0
      ],
      "translation": [
        6.146728992462158e-08,
        0.5490748286247253,
        0.16649895906448364
      ]
    },
    {
      "mesh": 13,
      "name": "head_Astromech_0"
    },
    {
      "children": [
        61
      ],
      "name": "body",
      "rotation": [
        -1.3234889800848443e-23,
        -0.0,
        0.0,
        1.0
      ],
      "translation": [
        6.146728992462158e-08,
        0.5490748286247253,
        0.16649895906448364
      ]
    },
    {
      "mesh": 14,
      "name": "body_Astromech_0"
    },
    {
      "children": [
        63
      ],
      "name": "main_legs",
      "rotation": [
        -1.3234889800848443e-23,
        -0.0,
        0.0,
        1.0
      ],
      "translation": [
        6.146728992462158e-08,
        0.5490748286247253,
        0.16649895906448364
      ]
    },
    {
      "mesh": 15,
      "name": "main_legs_Astromech_0"
    },
    {
      "children": [
        65
      ],
      "name": "front_side_panels",
      "rotation": [
        -1.3234889800848443e-23,
        -0.0,
        0.0,
        1.0
      ],
      "translation": [
        6.146728992462158e-08,
        0.5490748286247253,
        0.16649895906448364
      ]
    },
    {
      "mesh": 16,
      "name": "front_side_panels_Astromech_0"
    },
    {
      "children": [
        67
      ],
      "name": "front_arms",
      "rotation": [
        -1.3234889800848443e-23,
        -0.0,
        0.0,
        1.0
      ],
      "translation": [
        6.146728992462158e-08,
        0.5490748286247253,
        0.16649895906448364
      ]
    },
    {
      "mesh": 17,
      "name": "front_arms_Astromech_0"
    }
  ],
  "samplers": [
    {
      "magFilter": 9729,
      "minFilter": 9987,
      "wrapS": 10497,
      "wrapT": 10497
    }
  ],
  "scene": 0,
  "scenes": [
    {
      "name": "Sketchfab_Scene",
      "nodes": [
        0
      ]
    }
  ],
  "skins": [
    {
      "inverseBindMatrices": 95,
      "joints": [
        16,
        37,
        38,
        39,
        40,
        41,
        42,
        43,
        44,
        45,
        46,
        47
      ],
      "skeleton": 16
    }
  ],
  "textures": [
    {
      "sampler": 0,
      "source": 0
    },
    {
      "sampler": 0,
      "source": 1
    },
    {
      "sampler": 0,
      "source": 2
    },
    {
      "sampler": 0,
      "source": 3
    },
    {
      "sampler": 0,
      "source": 4
    },
    {
      "sampler": 0,
      "source": 5
    },
    {
      "sampler": 0,
      "source": 6
    },
    {
      "sampler": 0,
      "source": 7
    }
  ]
}
