{
  "accessors": [
    {
      "bufferView": 3,
      "componentType": 5126,
      "count": 8298,
      "max": [
        0.8002381920814514,
        3.140716075897217,
        3.741743326187134
      ],
      "min": [
        -0.800238311290741,
        -0.008210262283682823,
        -5.182283878326416
      ],
      "type": "VEC3"
    },
    {
      "bufferView": 3,
      "byteOffset": 99576,
      "componentType": 5126,
      "count": 8298,
      "max": [
        0.999920129776001,
        0.9999997615814209,
        0.9962896704673767
      ],
      "min": [
        -0.999920129776001,
        -0.9999996423721313,
        -0.9999902248382568
      ],
      "type": "VEC3"
    },
    {
      "bufferView": 4,
      "componentType": 5126,
      "count": 8298,
      "max": [
        0.9996239542961121,
        0.9961433410644531,
        0.9993202090263367,
        1.0
      ],
      "min": [
        -0.9996239542961121,
        -0.9999902248382568,
        -0.9999998211860657,
        -1.0
      ],
      "type": "VEC4"
    },
    {
      "bufferView": 2,
      "componentType": 5126,
      "count": 8298,
      "max": [
        0.996982991695404,
        0.9894940257072449
      ],
      "min": [
        0.010483999736607075,
        0.006173000205308199
      ],
      "type": "VEC2"
    },
    {
      "bufferView": 1,
      "componentType": 5125,
      "count": 43434,
      "type": "SCALAR"
    },
    {
      "bufferView": 3,
      "byteOffset": 199152,
      "componentType": 5126,
      "count": 41,
      "max": [
        0.2222171127796173,
        2.688368320465088,
        3.1168265342712402
      ],
      "min": [
        0.14919143915176392,
        2.6101455688476563,
        3.0378825664520264
      ],
      "type": "VEC3"
    },
    {
      "bufferView": 3,
      "byteOffset": 199644,
      "componentType": 5126,
      "count": 41,
      "max": [
        0.9636813402175903,
        0.9863477945327759,
        0.9895537495613098
      ],
      "min": [
        -0.6084041595458984,
        -0.9863527417182922,
        -0.837855339050293
      ],
      "type": "VEC3"
    },
    {
      "bufferView": 4,
      "byteOffset": 132768,
      "componentType": 5126,
      "count": 41,
      "max": [
        0.9996626377105713,
        0.2986415922641754,
        0.6174009442329407,
        1.0
      ],
      "min": [
        -0.8491882681846619,
        -0.17364522814750671,
        -0.9983046054840088,
        1.0
      ],
      "type": "VEC4"
    },
    {
      "bufferView": 2,
      "byteOffset": 66384,
      "componentType": 5126,
      "count": 41,
      "max": [
        0.0674780011177063,
        0.9914979934692383
      ],
      "min": [
        0.008384999819099903,
        0.9324049949645996
      ],
      "type": "VEC2"
    },
    {
      "bufferView": 1,
      "byteOffset": 173736,
      "componentType": 5125,
      "count": 210,
      "type": "SCALAR"
    },
    {
      "bufferView": 3,
      "byteOffset": 200136,
      "componentType": 5126,
      "count": 41,
      "max": [
        -0.14919383823871613,
        2.688368320465088,
        3.1168265342712402
      ],
      "min": [
        -0.22222062945365906,
        2.6101455688476563,
        3.0378825664520264
      ],
      "type": "VEC3"
    },
    {
      "bufferView": 3,
      "byteOffset": 200628,
      "componentType": 5126,
      "count": 41,
      "max": [
        0.6084100604057312,
        0.9863477945327759,
        0.9895536303520203
      ],
      "min": [
        -0.9636824131011963,
        -0.9863525032997131,
        -0.8378518223762512
      ],
      "type": "VEC3"
    },
    {
      "bufferView": 4,
      "byteOffset": 133424,
      "componentType": 5126,
      "count": 41,
      "max": [
        0.8491918444633484,
        0.29863741993904114,
        0.6173951029777527,
        -1.0
      ],
      "min": [
        -0.9996626377105713,
        -0.17366322875022888,
        -0.9983046054840088,
        -1.0
      ],
      "type": "VEC4"
    },
    {
      "bufferView": 2,
      "byteOffset": 66712,
      "componentType": 5126,
      "count": 41,
      "max": [
        0.0674780011177063,
        0.9914979934692383
      ],
      "min": [
        0.008384999819099903,
        0.9324049949645996
      ],
      "type": "VEC2"
    },
    {
      "bufferView": 1,
      "byteOffset": 174576,
      "componentType": 5125,
      "count": 210,
      "type": "SCALAR"
    },
    {
      "bufferView": 3,
      "byteOffset": 201120,
      "componentType": 5126,
      "count": 184,
      "max": [
        0.14321362972259521,
        2.5302765369415283,
        3.3372802734375
      ],
      "min": [
        -0.14321374893188477,
        1.8226590156555176,
        2.4993512630462646
      ],
      "type": "VEC3"
    },
    {
      "bufferView": 3,
      "byteOffset": 203328,
      "componentType": 5126,
      "count": 184,
      "max": [
        0.9922438263893127,
        0.9831423163414001,
        0.999556303024292
      ],
      "min": [
        -0.9922438263893127,
        -0.9736452698707581,
        -0.6300732493400574
      ],
      "type": "VEC3"
    },
    {
      "bufferView": 4,
      "byteOffset": 134080,
      "componentType": 5126,
      "count": 184,
      "max": [
        0.8914448022842407,
        -0.11433485895395279,
        0.9895788431167603,
        1.0
      ],
      "min": [
        -0.8914562463760376,
        -0.9995563626289368,
        -0.8009111285209656,
        -1.0
      ],
      "type": "VEC4"
    },
    {
      "bufferView": 2,
      "byteOffset": 67040,
      "componentType": 5126,
      "count": 184,
      "max": [
        0.8758280277252197,
        0.09671799838542938
      ],
      "min": [
        0.5453490018844604,
        0.00916799996048212
      ],
      "type": "VEC2"
    },
    {
      "bufferView": 1,
      "byteOffset": 175416,
      "componentType": 5125,
      "count": 1044,
      "type": "SCALAR"
    },
    {
      "bufferView": 5,
      "componentType": 5126,
      "count": 62,
      "max": [
        100.0,
        0.18104103207588196,
        1.0,
        0.0,
        0.9999997615814209,
        100.0,
        0.1703529804944992,
        0.0,
        1.0,
        1.0000004768371582,
        100.0,
        0.0,
        2.656339168548584,
        3.537688970565796,
        0.7399877309799194,
        1.0
      ],
      "min": [
        -0.1499273031949997,
        -0.20619384944438934,
        -1.0,
        0.0,
        -1.0000004768371582,
        -1.0000001192092896,
        -0.17035318911075592,
        0.0,
        -0.9962583184242249,
        -0.9999994039535522,
        -0.22638878226280212,
        0.0,
        -4.241785049438477,
        -3.6904959678649902,
        -0.739988386631012,
        1.0
      ],
      "type": "MAT4"
    },
    {
      "bufferView": 0,
      "componentType": 5123,
      "count": 8298,
      "type": "VEC4"
    },
    {
      "bufferView": 4,
      "byteOffset": 137024,
      "componentType": 5126,
      "count": 8298,
      "max": [
        1.0,
        0.5,
        0.3066425025463104,
        0.23751133680343628
      ],
      "min": [
        0.27032947540283203,
        0.0,
        0.0,
        0.0
      ],
      "type": "VEC4"
    },
    {
      "bufferView": 0,
      "byteOffset": 66384,
      "componentType": 5123,
      "count": 41,
      "type": "VEC4"
    },
    {
      "bufferView": 4,
      "byteOffset": 269792,
      "componentType": 5126,
      "count": 41,
      "max": [
        1.0,
        0.0,
        0.0,
        0.0
      ],
      "min": [
        1.0,
        0.0,
        0.0,
        0.0
      ],
      "type": "VEC4"
    },
    {
      "bufferView": 0,
      "byteOffset": 66712,
      "componentType": 5123,
      "count": 41,
      "type": "VEC4"
    },
    {
      "bufferView": 4,
      "byteOffset": 270448,
      "componentType": 5126,
      "count": 41,
      "max": [
        1.0,
        0.0,
        0.0,
        0.0
      ],
      "min": [
        1.0,
        0.0,
        0.0,
        0.0
      ],
      "type": "VEC4"
    },
    {
      "bufferView": 0,
      "byteOffset": 67040,
      "componentType": 5123,
      "count": 184,
      "type": "VEC4"
    },
    {
      "bufferView": 4,
      "byteOffset": 271104,
      "componentType": 5126,
      "count": 184,
      "max": [
        1.0,
        0.4995724558830261,
        0.012431778945028782,
        0.0
      ],
      "min": [
        0.5004275441169739,
        0.0,
        0.0,
        0.0
      ],
      "type": "VEC4"
    }
  ],
  "asset": {
    "extras": {
      "author": "isaacvan1237 (https://sketchfab.com/isaacvan1237)",
      "license": "CC-BY-4.0 (http://creativecommons.org/licenses/by/4.0/)",
      "source": "https://sketchfab.com/3d-models/walking-with-dinosaurs-3d-gorgon-2-40a9e05644d54b0b94192a167066b1aa",
      "title": "walking_with_dinosaurs_3d_gorgon 2"
    },
    "generator": "Sketchfab-17.3.0",
    "version": "2.0"
  },
  "bufferViews": [
    {
      "buffer": 0,
      "byteLength": 68512,
      "byteStride": 8,
      "name": "shortBufferViews",
      "target": 34962
    },
    {
      "buffer": 0,
      "byteLength": 179592,
      "byteOffset": 68512,
      "name": "floatBufferViews",
      "target": 34963
    },
    {
      "buffer": 0,
      "byteLength": 68512,
      "byteOffset": 248104,
      "byteStride": 8,
      "name": "floatBufferViews",
      "target": 34962
    },
    {
      "buffer": 0,
      "byteLength": 205536,
      "byteOffset": 316616,
      "byteStride": 12,
      "name": "floatBufferViews",
      "target": 34962
    },
    {
      "buffer": 0,
      "byteLength": 274048,
      "byteOffset": 522152,
      "byteStride": 16,
      "name": "floatBufferViews",
      "target": 34962
    },
    {
      "buffer": 0,
      "byteLength": 3968,
      "byteOffset": 796200,
      "name": "floatBufferViews"
    }
  ],
  "buffers": [
    {
      "byteLength": 800168,
      "uri": "scene.bin"
    }
  ],
  "extensionsRequired": [
    "KHR_materials_pbrSpecularGlossiness"
  ],
  "extensionsUsed": [
    "KHR_materials_pbrSpecularGlossiness"
  ],
  "images": [
    {
      "uri": "textures/Dark_Prince_diffuse.png"
    },
    {
      "uri": "textures/Dark_Prince_normal.png"
    }
  ],
  "materials": [
    {
      "doubleSided": true,
      "extensions": {
        "KHR_materials_pbrSpecularGlossiness": {
          "diffuseFactor": [
            1.0,
            1.0,
            1.0,
            1.0
          ],
          "diffuseTexture": {
            "index": 0
          },
          "glossinessFactor": 0.178885,
          "specularFactor": [
            0.0,
            0.0,
            0.0
          ]
        }
      },
      "name": "Dark_Prince",
      "normalTexture": {
        "index": 1
      }
    },
    {
      "doubleSided": true,
      "extensions": {
        "KHR_materials_pbrSpecularGlossiness": {
          "diffuseFactor": [
            1.0,
            1.0,
            1.0,
            1.0
          ],
          "diffuseTexture": {
            "index": 0
          },
          "glossinessFactor": 0.178885,
          "specularFactor": [
            0.0,
            0.0,
            0.0
          ]
        }
      },
      "name": "Material.005",
      "normalTexture": {
        "index": 1
      }
    },
    {
      "doubleSided": true,
      "extensions": {
        "KHR_materials_pbrSpecularGlossiness": {
          "diffuseFactor": [
            1.0,
            1.0,
            1.0,
            1.0
          ],
          "diffuseTexture": {
            "index": 0
          },
          "glossinessFactor": 0.178885,
          "specularFactor": [
            0.0,
            0.0,
            0.0
          ]
        }
      },
      "name": "Material.002",
      "normalTexture": {
        "index": 1
      }
    }
  ],
  "meshes": [
    {
      "name": "Object_0",
      "primitives": [
        {
          "attributes": {
            "JOINTS_0": 21,
            "NORMAL": 1,
            "POSITION": 0,
            "TANGENT": 2,
            "TEXCOORD_0": 3,
            "TEXCOORD_1": 3,
            "TEXCOORD_2": 3,
            "WEIGHTS_0": 22
          },
          "indices": 4,
          "material": 0,
          "mode": 4
        }
      ]
    },
    {
      "name": "Object_1",
      "primitives": [
        {
          "attributes": {
            "JOINTS_0": 23,
            "NORMAL": 6,
            "POSITION": 5,
            "TANGENT": 7,
            "TEXCOORD_0": 8,
            "TEXCOORD_1": 8,
            "WEIGHTS_0": 24
          },
          "indices": 9,
          "material": 1,
          "mode": 4
        }
      ]
    },
    {
      "name": "Object_2",
      "primitives": [
        {
          "attributes": {
            "JOINTS_0": 25,
            "NORMAL": 11,
            "POSITION": 10,
            "TANGENT": 12,
            "TEXCOORD_0": 13,
            "TEXCOORD_1": 13,
            "WEIGHTS_0": 26
          },
          "indices": 14,
          "material": 2,
          "mode": 4
        }
      ]
    },
    {
      "name": "Object_3",
      "primitives": [
        {
          "attributes": {
            "JOINTS_0": 27,
            "NORMAL": 16,
            "POSITION": 15,
            "TANGENT": 17,
            "TEXCOORD_0": 18,
            "TEXCOORD_1": 18,
            "WEIGHTS_0": 28
          },
          "indices": 19,
          "material": 1,
          "mode": 4
        }
      ]
    }
  ],
  "nodes": [
    {
      "children": [
        1
      ],
      "matrix": [
        1.0,
        3.6510563165961204e-19,
        -4.978967197440409e-17,
        0.0,
        -4.9790469376514594e-17,
        0.0026709034573288992,
        -0.9999964237213135,
        0.0,
        -2.3212091610339882e-19,
        0.9999964237213135,
        0.0026709034573288992,
        0.0,
        0.0,
        0.0,
        0.0,
        1.0
      ],
      "name": "Sketchfab_model"
    },
    {
      "children": [
        2
      ],
      "name": "root"
    },
    {
      "children": [
        3
      ],
      "matrix": [
        1.0,
        0.0,
        0.0,
        0.0,
        0.0,
        2.220446049250313e-16,
        1.0,
        0.0,
        0.0,
        -1.0,
        2.220446049250313e-16,
        0.0,
        0.0,
        0.0,
        0.0,
        1.0
      ],
      "name": "GLTF_SceneRootNode"
    },
    {
      "children": [
        4
      ],
      "matrix": [
        1.0,
        0.0,
        0.0,
        0.0,
        0.0,
        2.220446049250313e-16,
        -1.0,
        0.0,
        0.0,
        1.0,
        2.220446049250313e-16,
        0.0,
        0.0,
        0.0,
        0.0,
        1.0
      ],
      "name": "Sketchfab_model_0"
    },
    {
      "children": [
        5
      ],
      "matrix": [
        0.009999999776482582,
        0.0,
        0.0,
        0.0,
        0.0,
        0.0,
        0.009999999776482582,
        0.0,
        0.0,
        -0.009999999776482582,
        0.0,
        0.0,
        0.0,
        0.0,
        0.0,
        1.0
      ],
      "name": "Gorgon.fbx_1"
    },
    {
      "children": [
        6
      ],
      "name": "Object_2_2"
    },
    {
      "children": [
        7
      ],
      "name": "RootNode_3"
    },
    {
      "children": [
        8
      ],
      "matrix": [
        100.0,
        0.0,
        0.0,
        0.0,
        0.0,
        99.99999999999866,
        1.6292067073209074e-05,
        0.0,
        0.0,
        -1.6292067073209074e-05,
        99.99999999999866,
        0.0,
        0.0,
        0.0,
        0.0,
        1.0
      ],
      "name": "Armature_4"
    },
    {
      "children": [
        9
      ],
      "name": "Object_5_5"
    },
    {
      "children": [
        10,
        74,
        77,
        80,
        83,
        72,
        75,
        78,
        81
      ],
      "name": "GLTF_created_0"
    },
    {
      "children": [
        11
      ],
      "name": "GLTF_created_0_rootJoint"
    },
    {
      "children": [
        12
      ],
      "name": "_rootJoint_6"
    },
    {
      "children": [
        13
      ],
      "name": "DeformationSystem_00_7"
    },
    {
      "children": [
        14,
        52,
        58,
        64
      ],
      "name": "Root_M_01_8",
      "rotation": [
        0.7004442811012268,
        0.06861956417560577,
        0.7070201635360718,
        0.06922134011983871
      ],
      "scale": [
        0.9999999403953552,
        0.9999997615814209,
        0.9999998807907104
      ],
      "translation": [
        0.023455681279301643,
        2.3838753700256348,
        -0.37204208970069885
      ]
    },
    {
      "children": [
        15
      ],
      "name": "BackA_M_02_9",
      "rotation": [
        0.0003110290563199669,
        0.005964846350252628,
        0.032342590391635895,
        0.9994589686393738
      ],
      "scale": [
        0.9999999403953552,
        0.9999998211860657,
        0.9999999403953552
      ],
      "translation": [
        0.593716025352478,
        -0.050327274948358536,
        -2.495653461664915e-08
      ]
    },
    {
      "children": [
        16
      ],
      "name": "BackB_M_03_10",
      "rotation": [
        0.0018952226964756846,
        0.005306935403496027,
        0.0873001366853714,
        0.9961661100387573
      ],
      "scale": [
        0.9999999403953552,
        1.0,
        0.9999998807907104
      ],
      "translation": [
        0.4654103219509125,
        -1.0013616247306345e-07,
        2.2817403078079224e-08
      ]
    },
    {
      "children": [
        17,
        40,
        46
      ],
      "name": "Chest_M_04_11",
      "rotation": [
        0.00011996569082839414,
        0.002667490392923355,
        -0.006516005843877792,
        0.9999752044677734
      ],
      "scale": [
        0.9999998211860657,
        0.9999998211860657,
        0.9999999403953552
      ],
      "translation": [
        0.3302151560783386,
        -1.1323209037072957e-07,
        1.7695128917694092e-08
      ]
    },
    {
      "children": [
        18
      ],
      "name": "Neck_M_05_12",
      "rotation": [
        0.010135176591575146,
        0.036071885377168655,
        -0.3194308578968048,
        0.9468685388565063
      ],
      "scale": [
        0.9999999403953552,
        0.9999999403953552,
        1.0
      ],
      "translation": [
        0.30452388525009155,
        0.02939150109887123,
        -1.862645149230957e-09
      ]
    },
    {
      "children": [
        19
      ],
      "name": "NeckPart1_M_06_13",
      "rotation": [
        0.004292943514883518,
        -5.96051847878698e-08,
        3.923231872704491e-08,
        0.9999907612800598
      ],
      "scale": [
        1.000000238418579,
        1.000000238418579,
        1.000000238418579
      ],
      "translation": [
        0.3977287709712982,
        3.8999132812023163e-07,
        7.450580596923828e-09
      ]
    },
    {
      "children": [
        20,
        22,
        24,
        28,
        31,
        34,
        37
      ],
      "name": "Head_M_07_14",
      "rotation": [
        0.04167778789997101,
        -0.00858417060226202,
        -0.31820669770240784,
        0.9470658898353577
      ],
      "scale": [
        1.0,
        0.9999999403953552,
        0.9999998807907104
      ],
      "translation": [
        0.39772868156433105,
        -2.902233973145485e-07,
        -4.470348358154297e-08
      ]
    },
    {
      "children": [
        21
      ],
      "name": "Eye_L_08_15",
      "rotation": [
        0.8287043571472168,
        0.5546723008155823,
        0.06084437668323517,
        -0.04342494159936905
      ],
      "scale": [
        0.9999999403953552,
        0.9999998211860657,
        1.0000001192092896
      ],
      "translation": [
        0.112578384578228,
        0.5873588919639587,
        0.18146803975105286
      ]
    },
    {
      "name": "Eye_L_end_048_16",
      "rotation": [
        3.469446951953614e-18,
        1.3877787807814457e-17,
        -1.3877787807814457e-17,
        1.0
      ],
      "translation": [
        0.0,
        0.95965176820755,
        -5.551115123125783e-17
      ]
    },
    {
      "children": [
        23
      ],
      "name": "Eye_R_09_17",
      "rotation": [
        0.8287043571472168,
        0.5546723008155823,
        -0.0608443021774292,
        0.04342489317059517
      ],
      "scale": [
        0.9999997615814209,
        1.0,
        0.9999998807907104
      ],
      "translation": [
        0.11257828027009964,
        0.5873591303825378,
        -0.1814679205417633
      ]
    },
    {
      "name": "Eye_R_end_049_18",
      "rotation": [
        -6.071532165918825e-18,
        4.2129717533470784e-35,
        -6.938893903907228e-18,
        1.0
      ],
      "translation": [
        0.0,
        0.95965176820755,
        0.0
      ]
    },
    {
      "children": [
        25
      ],
      "name": "Jaw_M_010_19",
      "rotation": [
        -3.9137354690410575e-08,
        -1.3792903708065296e-08,
        0.7376174330711365,
        0.6752188801765442
      ],
      "scale": [
        0.9999999403953552,
        0.9999999403953552,
        0.9999999403953552
      ],
      "translation": [
        -0.250381737947464,
        0.16108278930187225,
        -7.450580596923828e-09
      ]
    },
    {
      "children": [
        26
      ],
      "name": "tonque1_011_20",
      "rotation": [
        0.9832744598388672,
        0.18213002383708954,
        5.777631173486952e-08,
        6.608032521171481e-08
      ],
      "scale": [
        0.9999997615814209,
        0.9999998211860657,
        1.0
      ],
      "translation": [
        0.43307146430015564,
        -0.1509213149547577,
        3.725290298461914e-09
      ]
    },
    {
      "children": [
        27
      ],
      "name": "tonque2_012_21",
      "rotation": [
        -2.365647677748939e-09,
        -4.542044251820698e-08,
        0.1769757717847824,
        0.9842151999473572
      ],
      "scale": [
        0.9999999403953552,
        0.9999998807907104,
        0.9999998807907104
      ],
      "translation": [
        0.2718393802642822,
        -0.002480565570294857,
        -7.450580596923828e-09
      ]
    },
    {
      "name": "tonque2_end_050_22",
      "rotation": [
        1.6479873021779667e-17,
        4.574083617919685e-34,
        2.7755575615628914e-17,
        1.0
      ],
      "translation": [
        -2.220446049250313e-16,
        0.2718502879142761,
        0.0
      ]
    },
    {
      "children": [
        29
      ],
      "name": "nostril_down_L_013_23",
      "rotation": [
        0.7874655723571777,
        0.6163586378097534,
        8.110410476547258e-08,
        3.239339818605913e-08
      ],
      "scale": [
        0.9999997019767761,
        0.9999995827674866,
        0.9999999403953552
      ],
      "translation": [
        -0.07432333379983902,
        1.3028082847595215,
        0.06608600914478302
      ]
    },
    {
      "children": [
        30
      ],
      "name": "nostril_down_L_end_014_24",
      "rotation": [
        -0.05259213596582413,
        0.7051482200622559,
        0.05259213224053383,
        0.7051482796669006
      ],
      "scale": [
        1.0000001192092896,
        1.0000001192092896,
        1.0
      ],
      "translation": [
        0.052743226289749146,
        0.018943078815937042,
        -0.048683010041713715
      ]
    },
    {
      "name": "nostril_down_L_end_end_051_25",
      "rotation": [
        -6.938893903907228e-18,
        4.5891299456102104e-35,
        -6.613633252161577e-18,
        1.0
      ],
      "translation": [
        0.0,
        0.0742349624633789,
        0.0
      ]
    },
    {
      "children": [
        32
      ],
      "name": "nostril_down_R_015_26",
      "rotation": [
        0.7874659895896912,
        0.6163581013679504,
        -1.3360978989851446e-08,
        -8.541670837303172e-08
      ],
      "scale": [
        0.9999997615814209,
        0.9999996423721313,
        0.9999999403953552
      ],
      "translation": [
        -0.0743200033903122,
        1.3028086423873901,
        -0.0660860687494278
      ]
    },
    {
      "children": [
        33
      ],
      "name": "nostril_down_R_end_016_27",
      "rotation": [
        -0.05259168520569801,
        0.7051482796669006,
        0.052591681480407715,
        0.7051483392715454
      ],
      "scale": [
        1.000000238418579,
        1.0000001192092896,
        1.0
      ],
      "translation": [
        0.05274014174938202,
        0.018939562141895294,
        0.048682719469070435
      ]
    },
    {
      "name": "nostril_down_R_end_end_052_28",
      "rotation": [
        1.3877787807814457e-17,
        4.81482486096809e-35,
        3.469446951953614e-18,
        1.0
      ],
      "translation": [
        0.0,
        0.07423067092895508,
        4.440892098500626e-16
      ]
    },
    {
      "children": [
        35
      ],
      "name": "nostril_up_L_017_29",
      "rotation": [
        0.7874659299850464,
        0.61635822057724,
        3.799910786028704e-08,
        6.613218062057058e-08
      ],
      "scale": [
        0.9999997019767761,
        0.999999463558197,
        0.9999999403953552
      ],
      "translation": [
        0.0009445162722840905,
        1.2766351699829102,
        0.06608600169420242
      ]
    },
    {
      "children": [
        36
      ],
      "name": "nostril_up_L_end_018_30",
      "rotation": [
        -0.052591726183891296,
        0.7051482796669006,
        0.0525917150080204,
        0.7051483988761902
      ],
      "scale": [
        1.0000001192092896,
        0.9999999403953552,
        1.0
      ],
      "translation": [
        0.05274448171257973,
        0.018938355147838593,
        -0.04868299514055252
      ]
    },
    {
      "name": "nostril_up_L_end_end_053_31",
      "rotation": [
        2.6142994362287674e-35,
        -1.734723475976807e-18,
        1.5070410197548512e-17,
        1.0
      ],
      "translation": [
        0.0,
        0.0742337703704834,
        0.0
      ]
    },
    {
      "children": [
        38
      ],
      "name": "nostril_up_R_019_32",
      "rotation": [
        0.7874662280082703,
        0.6163578033447266,
        -3.549792637613791e-08,
        -2.7724320617039666e-08
      ],
      "scale": [
        0.9999998211860657,
        0.9999999403953552,
        0.9999999403953552
      ],
      "translation": [
        0.0009436439722776413,
        1.2766377925872803,
        -0.0660860687494278
      ]
    },
    {
      "children": [
        39
      ],
      "name": "nostril_up_R_end_020_33",
      "rotation": [
        -0.05259139835834503,
        0.7051482200622559,
        0.052591387182474136,
        0.7051483988761902
      ],
      "scale": [
        1.000000238418579,
        1.0,
        1.0
      ],
      "translation": [
        0.052740298211574554,
        0.018939601257443428,
        0.04868273064494133
      ]
    },
    {
      "name": "nostril_up_R_end_end_054_34",
      "rotation": [
        6.938893903907228e-18,
        1.4294011305999016e-35,
        2.0599841277224584e-18,
        1.0
      ],
      "translation": [
        1.3877787807814457e-17,
        0.07423114776611328,
        0.0
      ]
    },
    {
      "children": [
        41
      ],
      "name": "Scapula_L_021_35",
      "rotation": [
        -0.03308528661727905,
        -0.07902371138334274,
        0.8922167420387268,
        -0.44340717792510986
      ],
      "scale": [
        0.9999998211860657,
        1.0,
        1.0000001192092896
      ],
      "translation": [
        0.009479890577495098,
        0.15073654055595398,
        0.26154986023902893
      ]
    },
    {
      "children": [
        42
      ],
      "name": "frontHip_L_022_36",
      "rotation": [
        0.7875956892967224,
        0.5712746977806091,
        0.017915520817041397,
        0.23025476932525635
      ],
      "scale": [
        0.9999996423721313,
        0.9999996423721313,
        0.9999998807907104
      ],
      "translation": [
        -0.3587833046913147,
        1.9371509552001953e-07,
        -3.725290298461914e-08
      ]
    },
    {
      "children": [
        43
      ],
      "name": "frontKnee_L_023_37",
      "rotation": [
        -0.3843994736671448,
        -0.015871113166213036,
        0.47284358739852905,
        0.7927194237709045
      ],
      "scale": [
        1.0,
        1.0000001192092896,
        1.000000238418579
      ],
      "translation": [
        -0.32872289419174194,
        1.341104507446289e-07,
        8.940696716308594e-08
      ]
    },
    {
      "children": [
        44
      ],
      "name": "frontAnkle_L_024_38",
      "rotation": [
        0.9607957601547241,
        -0.18249104917049408,
        -0.18146997690200806,
        -0.10313638299703598
      ],
      "scale": [
        1.0000009536743164,
        0.9999998807907104,
        0.9999997019767761
      ],
      "translation": [
        -0.2656942903995514,
        2.086162567138672e-07,
        -1.7415732145309448e-07
      ]
    },
    {
      "children": [
        45
      ],
      "name": "frontBall_L_025_39",
      "rotation": [
        -1.61471298554261e-08,
        -0.19645006954669952,
        -5.0341046886615004e-08,
        0.9805138111114502
      ],
      "scale": [
        1.0,
        1.000000238418579,
        0.9999998211860657
      ],
      "translation": [
        -0.19565455615520477,
        0.0611572228372097,
        0.006343193352222443
      ]
    },
    {
      "name": "frontBall_L_end_055_40",
      "rotation": [
        0.0,
        -5.551115123125783e-17,
        0.0,
        1.0
      ],
      "translation": [
        0.0,
        0.20508825778961182,
        0.0
      ]
    },
    {
      "children": [
        47
      ],
      "name": "Scapula_R_026_41",
      "rotation": [
        -0.07902372628450394,
        0.0330854095518589,
        0.44340717792510986,
        0.8922167420387268
      ],
      "scale": [
        1.0000001192092896,
        1.0000001192092896,
        1.0
      ],
      "translation": [
        0.00947996973991394,
        0.15073630213737488,
        -0.26154983043670654
      ]
    },
    {
      "children": [
        48
      ],
      "name": "frontHip_R_027_42",
      "rotation": [
        0.7974226474761963,
        0.5857951641082764,
        0.006175519432872534,
        0.144648015499115
      ],
      "scale": [
        1.0,
        1.0000001192092896,
        0.9999997615814209
      ],
      "translation": [
        0.3587827980518341,
        1.862645149230957e-08,
        2.60770320892334e-08
      ]
    },
    {
      "children": [
        49
      ],
      "name": "frontKnee_R_028_43",
      "rotation": [
        -0.3683399558067322,
        0.05546850711107254,
        0.5110823512077332,
        0.7746248841285706
      ],
      "scale": [
        1.0000001192092896,
        1.0000001192092896,
        1.0000003576278687
      ],
      "translation": [
        0.32872310280799866,
        -1.862645149230957e-07,
        -8.940696716308594e-08
      ]
    },
    {
      "children": [
        50
      ],
      "name": "frontAnkle_R_029_44",
      "rotation": [
        0.9443597197532654,
        -0.24638253450393677,
        -0.21749143302440643,
        0.013334051705896854
      ],
      "scale": [
        1.0000039339065552,
        1.0000001192092896,
        0.9999998807907104
      ],
      "translation": [
        0.2656945586204529,
        7.450580596923828e-08,
        -1.043081283569336e-07
      ]
    },
    {
      "children": [
        51
      ],
      "name": "frontBall_R_030_45",
      "rotation": [
        1.83936208486557e-08,
        1.303851515643828e-08,
        9.313225746154785e-09,
        1.0
      ],
      "scale": [
        1.0000001192092896,
        1.0,
        1.0
      ],
      "translation": [
        0.195654034614563,
        -0.06115731596946716,
        -0.006343916058540344
      ]
    },
    {
      "name": "frontBall_R_end_056_46",
      "rotation": [
        -3.851859888774472e-34,
        -2.7755575615628914e-17,
        -1.3877787807814457e-17,
        1.0
      ],
      "translation": [
        0.0,
        0.20508861541748047,
        -1.1102230246251565e-16
      ]
    },
    {
      "children": [
        53
      ],
      "name": "Rump_L_031_47",
      "rotation": [
        0.18952114880084991,
        0.02160286158323288,
        -0.6644863486289978,
        0.7225461602210999
      ],
      "scale": [
        1.0000001192092896,
        1.0,
        1.0
      ],
      "translation": [
        -0.01590399071574211,
        0.3378864824771881,
        0.39988869428634644
      ]
    },
    {
      "children": [
        54
      ],
      "name": "backHip_L_032_48",
      "rotation": [
        0.8510116338729858,
        0.5144146084785461,
        0.0648837685585022,
        -0.08334793895483017
      ],
      "scale": [
        1.0,
        0.9999999403953552,
        1.0
      ],
      "translation": [
        -0.8427212834358215,
        -1.7881393432617188e-07,
        -1.4901161193847656e-08
      ]
    },
    {
      "children": [
        55
      ],
      "name": "backKnee_L_033_49",
      "rotation": [
        6.92579007477434e-08,
        -2.9681952895543873e-08,
        0.6579732894897461,
        0.7530412673950195
      ],
      "scale": [
        1.0000001192092896,
        1.0,
        1.0000001192092896
      ],
      "translation": [
        -0.8688518404960632,
        1.043081283569336e-07,
        -1.4901161193847656e-08
      ]
    },
    {
      "children": [
        56
      ],
      "name": "backAnkle_L_034_50",
      "rotation": [
        0.9724047183990479,
        0.0013201029505580664,
        -0.15402169525623322,
        0.17522749304771423
      ],
      "scale": [
        0.9999997615814209,
        1.000000238418579,
        1.0
      ],
      "translation": [
        -0.6253046989440918,
        -6.705522537231445e-08,
        -6.705522537231445e-08
      ]
    },
    {
      "children": [
        57
      ],
      "name": "backBall_L_035_51",
      "rotation": [
        0.0008462726254947484,
        -0.044964682310819626,
        0.22751927375793457,
        0.9727345108985901
      ],
      "translation": [
        -0.2154781073331833,
        0.1643991619348526,
        0.02989041805267334
      ]
    },
    {
      "name": "backBall_L_end_057_52",
      "rotation": [
        0.0,
        -9.452887691357992e-19,
        0.0,
        1.0
      ],
      "translation": [
        0.0,
        0.2958175837993622,
        0.0
      ]
    },
    {
      "children": [
        59
      ],
      "name": "Rump_R_036_53",
      "rotation": [
        -0.030808134004473686,
        0.1308484673500061,
        0.524776041507721,
        0.8405591249465942
      ],
      "scale": [
        1.0,
        0.9999998807907104,
        1.0
      ],
      "translation": [
        -0.01590401865541935,
        0.3378864526748657,
        -0.39988866448402405
      ]
    },
    {
      "children": [
        60
      ],
      "name": "backHip_R_037_54",
      "rotation": [
        0.8613726496696472,
        0.4968734681606293,
        0.059512633830308914,
        -0.08724779635667801
      ],
      "scale": [
        0.9999997615814209,
        0.999999463558197,
        1.0
      ],
      "translation": [
        0.842721164226532,
        7.82310962677002e-08,
        7.450580596923828e-08
      ]
    },
    {
      "children": [
        61
      ],
      "name": "backKnee_R_038_55",
      "rotation": [
        9.269528078448275e-08,
        -2.0930054134282727e-08,
        0.5717731714248657,
        0.820411741733551
      ],
      "scale": [
        1.0000001192092896,
        1.0000001192092896,
        1.0000001192092896
      ],
      "translation": [
        0.8688514232635498,
        -2.384185791015625e-07,
        -1.2246891856193542e-07
      ]
    },
    {
      "children": [
        62
      ],
      "name": "backAnkle_R_039_56",
      "rotation": [
        0.9725919961929321,
        -0.1420816034078598,
        -0.07595565170049667,
        0.16765552759170532
      ],
      "scale": [
        0.9999995827674866,
        0.9999998807907104,
        0.9999994039535522
      ],
      "translation": [
        0.62530517578125,
        -5.960464477539063e-08,
        -9.511131793260574e-08
      ]
    },
    {
      "children": [
        63
      ],
      "name": "backBall_R_040_57",
      "rotation": [
        0.001007992890663445,
        -0.05287577956914902,
        0.2712680995464325,
        0.9610497951507568
      ],
      "translation": [
        0.21547812223434448,
        -0.1643991619348526,
        -0.029890652745962143
      ]
    },
    {
      "name": "backBall_R_end_058_58",
      "rotation": [
        8.673617379884035e-19,
        -1.0164395367051604e-19,
        8.673617379884035e-19,
        1.0
      ],
      "translation": [
        0.0,
        0.2958177626132965,
        0.0
      ]
    },
    {
      "children": [
        65
      ],
      "name": "Tail0_M_041_59",
      "rotation": [
        0.016009025275707245,
        0.0016595282359048724,
        0.9915865063667297,
        0.12844103574752808
      ],
      "scale": [
        1.0000301599502563,
        1.000001311302185,
        1.0
      ],
      "translation": [
        -0.7920600175857544,
        0.13153982162475586,
        3.581226337701082e-08
      ]
    },
    {
      "children": [
        66
      ],
      "name": "Tail1_M_042_60",
      "rotation": [
        0.05593164265155792,
        -0.09933041036128998,
        0.11819232255220413,
        0.9864256978034973
      ],
      "scale": [
        1.0,
        0.9999998807907104,
        0.9999999403953552
      ],
      "translation": [
        0.666329562664032,
        -2.2511230781674385e-06,
        4.292814992368221e-08
      ]
    },
    {
      "children": [
        67
      ],
      "name": "Tail2_M_043_61",
      "rotation": [
        0.04324321821331978,
        -0.10654960572719574,
        0.10673734545707703,
        0.9876154661178589
      ],
      "scale": [
        0.9999998211860657,
        0.9999998807907104,
        0.9999998807907104
      ],
      "translation": [
        0.7946850061416626,
        -3.3117830753326416e-06,
        1.0058283805847168e-07
      ]
    },
    {
      "children": [
        68
      ],
      "name": "Tail3_M_044_62",
      "rotation": [
        0.02388046309351921,
        -0.10046008974313736,
        0.11929287016391754,
        0.9874749183654785
      ],
      "scale": [
        1.0,
        1.0,
        0.9999999403953552
      ],
      "translation": [
        0.6348708868026733,
        -3.512948751449585e-06,
        1.4901161193847656e-08
      ]
    },
    {
      "children": [
        69
      ],
      "name": "Tail4_M_045_63",
      "rotation": [
        -0.0035765934735536575,
        0.011575785465538502,
        0.1199307069182396,
        0.9927083253860474
      ],
      "scale": [
        0.9999998211860657,
        0.9999998807907104,
        1.0
      ],
      "translation": [
        0.8018410801887512,
        -3.561144694685936e-06,
        1.4901161193847656e-07
      ]
    },
    {
      "children": [
        70
      ],
      "name": "Tail5_M_046_64",
      "rotation": [
        0.0024575195275247097,
        0.1975678950548172,
        0.0965638980269432,
        0.9755184650421143
      ],
      "scale": [
        1.0,
        1.0,
        0.9999999403953552
      ],
      "translation": [
        0.7917687892913818,
        -2.168118953704834e-06,
        -4.470348358154297e-07
      ]
    },
    {
      "children": [
        71
      ],
      "name": "Tail6_M_047_65",
      "rotation": [
        -5.593125962377599e-09,
        3.7287515297634855e-09,
        0.04307159408926964,
        0.9990720152854919
      ],
      "scale": [
        1.0,
        1.0,
        0.9999999403953552
      ],
      "translation": [
        -2.4437904357910156e-05,
        8.046627044677734e-07,
        2.3096799850463867e-07
      ]
    },
    {
      "name": "Tail6_M_end_059_66",
      "rotation": [
        1.3877787807814457e-17,
        1.3877787807814457e-17,
        -2.7755575615628914e-17,
        1.0
      ],
      "translation": [
        -8.881784197001252e-16,
        0.7834033966064453,
        -2.220446049250313e-16
      ]
    },
    {
      "children": [
        73
      ],
      "matrix": [
        0.9999999999999999,
        0.0,
        0.0,
        0.0,
        0.0,
        0.9999999999999998,
        0.0,
        0.0,
        0.0,
        0.0,
        0.9999999999999998,
        0.0,
        0.0,
        0.0,
        0.0,
        1.0
      ],
      "name": "Object_68_68_correction"
    },
    {
      "name": "Object_68_68"
    },
    {
      "mesh": 0,
      "name": "Object_74",
      "skin": 0
    },
    {
      "children": [
        76
      ],
      "matrix": [
        0.9999999999999999,
        0.0,
        0.0,
        0.0,
        0.0,
        0.9999999999999998,
        0.0,
        0.0,
        0.0,
        0.0,
        0.9999999999999998,
        0.0,
        0.0,
        0.0,
        0.0,
        1.0
      ],
      "name": "Object_70_70_correction"
    },
    {
      "name": "Object_70_70"
    },
    {
      "mesh": 1,
      "name": "Object_77",
      "skin": 0
    },
    {
      "children": [
        79
      ],
      "matrix": [
        0.9999999999999999,
        0.0,
        0.0,
        0.0,
        0.0,
        0.9999999999999998,
        0.0,
        0.0,
        0.0,
        0.0,
        0.9999999999999998,
        0.0,
        0.0,
        0.0,
        0.0,
        1.0
      ],
      "name": "Object_72_72_correction"
    },
    {
      "name": "Object_72_72"
    },
    {
      "mesh": 2,
      "name": "Object_80",
      "skin": 0
    },
    {
      "children": [
        82
      ],
      "matrix": [
        0.9999999999999999,
        0.0,
        0.0,
        0.0,
        0.0,
        0.9999999999999998,
        0.0,
        0.0,
        0.0,
        0.0,
        0.9999999999999998,
        0.0,
        0.0,
        0.0,
        0.0,
        1.0
      ],
      "name": "Object_74_74_correction"
    },
    {
      "name": "Object_74_74"
    },
    {
      "mesh": 3,
      "name": "Object_83",
      "skin": 0
    }
  ],
  "samplers": [
    {
      "magFilter": 9729,
      "minFilter": 9987,
      "wrapS": 10497,
      "wrapT": 10497
    }
  ],
  "scene": 0,
  "scenes": [
    {
      "name": "Sketchfab_Scene",
      "nodes": [
        0
      ]
    }
  ],
  "skins": [
    {
      "inverseBindMatrices": 20,
      "joints": [
        10,
        11,
        12,
        13,
        14,
        15,
        16,
        17,
        18,
        19,
        20,
        21,
        22,
        23,
        24,
        25,
        26,
        27,
        28,
        29,
        30,
        31,
        32,
        33,
        34,
        35,
        36,
        37,
        38,
        39,
        40,
        41,
        42,
        43,
        44,
        45,
        46,
        47,
        48,
        49,
        50,
        51,
        52,
        53,
        54,
        55,
        56,
        57,
        58,
        59,
        60,
        61,
        62,
        63,
        64,
        65,
        66,
        67,
        68,
        69,
        70,
        71
      ],
      "skeleton": 10
    }
  ],
  "textures": [
    {
      "sampler": 0,
      "source": 0
    },
    {
      "sampler": 0,
      "source": 1
    }
  ]
}
