{
  "accessors": [
    {
      "bufferView": 2,
      "componentType": 5126,
      "count": 9905,
      "max": [
        264.23822021484375,
        39.86253356933594,
        52.5318603515625
      ],
      "min": [
        -114.22821044921875,
        -40.322845458984375,
        -57.63705825805664
      ],
      "type": "VEC3"
    },
    {
      "bufferView": 2,
      "byteOffset": 118860,
      "componentType": 5126,
      "count": 9905,
      "max": [
        1.0,
        1.0,
        1.0
      ],
      "min": [
        -1.0,
        -1.0,
        -1.0
      ],
      "type": "VEC3"
    },
    {
      "bufferView": 3,
      "componentType": 5126,
      "count": 9905,
      "max": [
        1.0,
        1.0,
        1.0,
        1.0
      ],
      "min": [
        -1.0,
        -1.0,
        -1.0,
        -1.0
      ],
      "type": "VEC4"
    },
    {
      "bufferView": 1,
      "componentType": 5126,
      "count": 9905,
      "max": [
        0.995606005191803,
        0.9966449737548828
      ],
      "min": [
        0.0021150000393390656,
        0.0029299999587237835
      ],
      "type": "VEC2"
    },
    {
      "bufferView": 0,
      "componentType": 5125,
      "count": 35985,
      "type": "SCALAR"
    },
    {
      "bufferView": 2,
      "byteOffset": 237720,
      "componentType": 5126,
      "count": 9902,
      "max": [
        253.552490234375,
        39.59379577636719,
        44.678836822509766
      ],
      "min": [
        -94.82113647460938,
        -40.051727294921875,
        -59.0936279296875
      ],
      "type": "VEC3"
    },
    {
      "bufferView": 2,
      "byteOffset": 356544,
      "componentType": 5126,
      "count": 9902,
      "max": [
        1.0,
        1.0,
        1.0
      ],
      "min": [
        -1.0,
        -1.0,
        -1.0
      ],
      "type": "VEC3"
    },
    {
      "bufferView": 3,
      "byteOffset": 158480,
      "componentType": 5126,
      "count": 9902,
      "max": [
        1.0,
        1.0,
        1.0,
        1.0
      ],
      "min": [
        -1.0,
        -1.0,
        -1.0,
        -1.0
      ],
      "type": "VEC4"
    },
    {
      "bufferView": 1,
      "byteOffset": 79240,
      "componentType": 5126,
      "count": 9902,
      "max": [
        0.9965819716453552,
        0.9971659779548645
      ],
      "min": [
        0.002724000019952655,
        0.0039059999398887157
      ],
      "type": "VEC2"
    },
    {
      "bufferView": 0,
      "byteOffset": 143940,
      "componentType": 5125,
      "count": 40542,
      "type": "SCALAR"
    },
    {
      "bufferView": 2,
      "byteOffset": 475368,
      "componentType": 5126,
      "count": 9986,
      "max": [
        264.23822021484375,
        39.86253356933594,
        46.61614990234375
      ],
      "min": [
        -114.03521728515625,
        -40.322845458984375,
        -53.31622314453125
      ],
      "type": "VEC3"
    },
    {
      "bufferView": 2,
      "byteOffset": 595200,
      "componentType": 5126,
      "count": 9986,
      "max": [
        1.0,
        1.0,
        1.0
      ],
      "min": [
        -1.0,
        -1.0,
        -1.0
      ],
      "type": "VEC3"
    },
    {
      "bufferView": 3,
      "byteOffset": 316912,
      "componentType": 5126,
      "count": 9986,
      "max": [
        1.0,
        1.0,
        1.0,
        1.0
      ],
      "min": [
        -1.0,
        -1.0,
        -1.0,
        -1.0
      ],
      "type": "VEC4"
    },
    {
      "bufferView": 1,
      "byteOffset": 158456,
      "componentType": 5126,
      "count": 9986,
      "max": [
        0.9970700144767761,
        0.9980729818344116
      ],
      "min": [
        0.002211000071838498,
        0.0029299999587237835
      ],
      "type": "VEC2"
    },
    {
      "bufferView": 0,
      "byteOffset": 306108,
      "componentType": 5125,
      "count": 28887,
      "type": "SCALAR"
    },
    {
      "bufferView": 2,
      "byteOffset": 715032,
      "componentType": 5126,
      "count": 731,
      "max": [
        61.41068649291992,
        33.53014373779297,
        14.477752685546875
      ],
      "min": [
        -94.51345825195313,
        -33.990478515625,
        -50.3761100769043
      ],
      "type": "VEC3"
    },
    {
      "bufferView": 2,
      "byteOffset": 723804,
      "componentType": 5126,
      "count": 731,
      "max": [
        1.0,
        1.0,
        1.0
      ],
      "min": [
        -1.0,
        -1.0,
        -0.9999913573265076
      ],
      "type": "VEC3"
    },
    {
      "bufferView": 3,
      "byteOffset": 476688,
      "componentType": 5126,
      "count": 731,
      "max": [
        1.0,
        1.0,
        1.0,
        1.0
      ],
      "min": [
        -1.0,
        -1.0,
        -1.0,
        -1.0
      ],
      "type": "VEC4"
    },
    {
      "bufferView": 1,
      "byteOffset": 238344,
      "componentType": 5126,
      "count": 731,
      "max": [
        0.9975579977035522,
        0.9555360078811646
      ],
      "min": [
        0.09246800094842911,
        0.004883000161498785
      ],
      "type": "VEC2"
    },
    {
      "bufferView": 0,
      "byteOffset": 421656,
      "componentType": 5125,
      "count": 2055,
      "type": "SCALAR"
    }
  ],
  "asset": {
    "extras": {
      "author": "Idmental (https://sketchfab.com/idmental.id)",
      "license": "CC-BY-4.0 (http://creativecommons.org/licenses/by/4.0/)",
      "source": "https://sketchfab.com/3d-models/starwars-speeder-bike-free-download-1d0ea6fe43c1405b8d4b17722e166f6e",
      "title": "StarWars Speeder Bike [free download]"
    },
    "generator": "Sketchfab-12.68.0",
    "version": "2.0"
  },
  "bufferViews": [
    {
      "buffer": 0,
      "byteLength": 429876,
      "name": "floatBufferViews",
      "target": 34963
    },
    {
      "buffer": 0,
      "byteLength": 244192,
      "byteOffset": 429876,
      "byteStride": 8,
      "name": "floatBufferViews",
      "target": 34962
    },
    {
      "buffer": 0,
      "byteLength": 732576,
      "byteOffset": 674068,
      "byteStride": 12,
      "name": "floatBufferViews",
      "target": 34962
    },
    {
      "buffer": 0,
      "byteLength": 488384,
      "byteOffset": 1406644,
      "byteStride": 16,
      "name": "floatBufferViews",
      "target": 34962
    }
  ],
  "buffers": [
    {
      "byteLength": 1895028,
      "uri": "scene.bin"
    }
  ],
  "images": [
    {
      "uri": "textures/M_SpeederBike_01_baseColor.png"
    },
    {
      "uri": "textures/M_SpeederBike_01_metallicRoughness.png"
    },
    {
      "uri": "textures/M_SpeederBike_01_emissive.png"
    },
    {
      "uri": "textures/M_SpeederBike_01_normal.png"
    }
  ],
  "materials": [
    {
      "doubleSided": true,
      "emissiveFactor": [
        1.0,
        1.0,
        1.0
      ],
      "emissiveTexture": {
        "index": 2
      },
      "name": "M_SpeederBike_01",
      "normalTexture": {
        "index": 3
      },
      "occlusionTexture": {
        "index": 1
      },
      "pbrMetallicRoughness": {
        "baseColorTexture": {
          "index": 0
        },
        "metallicRoughnessTexture": {
          "index": 1
        }
      }
    }
  ],
  "meshes": [
    {
      "name": "Object_0",
      "primitives": [
        {
          "attributes": {
            "NORMAL": 1,
            "POSITION": 0,
            "TANGENT": 2,
            "TEXCOORD_0": 3
          },
          "indices": 4,
          "material": 0,
          "mode": 4
        }
      ]
    },
    {
      "name": "Object_1",
      "primitives": [
        {
          "attributes": {
            "NORMAL": 6,
            "POSITION": 5,
            "TANGENT": 7,
            "TEXCOORD_0": 8
          },
          "indices": 9,
          "material": 0,
          "mode": 4
        }
      ]
    },
    {
      "name": "Object_2",
      "primitives": [
        {
          "attributes": {
            "NORMAL": 11,
            "POSITION": 10,
            "TANGENT": 12,
            "TEXCOORD_0": 13
          },
          "indices": 14,
          "material": 0,
          "mode": 4
        }
      ]
    },
    {
      "name": "Object_3",
      "primitives": [
        {
          "attributes": {
            "NORMAL": 16,
            "POSITION": 15,
            "TANGENT": 17,
            "TEXCOORD_0": 18
          },
          "indices": 19,
          "material": 0,
          "mode": 4
        }
      ]
    }
  ],
  "nodes": [
    {
      "children": [
        1
      ],
      "matrix": [
        1.0,
        0.0,
        0.0,
        0.0,
        0.0,
        2.220446049250313e-16,
        -1.0,
        0.0,
        0.0,
        1.0,
        2.220446049250313e-16,
        0.0,
        0.0,
        0.0,
        0.0,
        1.0
      ],
      "name": "Sketchfab_model"
    },
    {
      "children": [
        2,
        3,
        4,
        5
      ],
      "name": "SpeederBikeForSketch.obj.cleaner.materialmerger.gles"
    },
    {
      "mesh": 0,
      "name": "Object_2"
    },
    {
      "mesh": 1,
      "name": "Object_3"
    },
    {
      "mesh": 2,
      "name": "Object_4"
    },
    {
      "mesh": 3,
      "name": "Object_5"
    }
  ],
  "samplers": [
    {
      "magFilter": 9729,
      "minFilter": 9987,
      "wrapS": 10497,
      "wrapT": 10497
    }
  ],
  "scene": 0,
  "scenes": [
    {
      "name": "Sketchfab_Scene",
      "nodes": [
        0
      ]
    }
  ],
  "textures": [
    {
      "sampler": 0,
      "source": 0
    },
    {
      "sampler": 0,
      "source": 1
    },
    {
      "sampler": 0,
      "source": 2
    },
    {
      "sampler": 0,
      "source": 3
    }
  ]
}
