{
  "accessors": [
    {
      "bufferView": 2,
      "componentType": 5126,
      "count": 50557,
      "max": [
        120.52725982666016,
        51.078643798828125,
        70.8821029663086
      ],
      "min": [
        -129.09893798828125,
        33.64289474487305,
        -69.4568862915039
      ],
      "type": "VEC3"
    },
    {
      "bufferView": 2,
      "byteOffset": 606684,
      "componentType": 5126,
      "count": 50557,
      "max": [
        1.0,
        1.0,
        1.0
      ],
      "min": [
        -1.0,
        -1.0,
        -1.0
      ],
      "type": "VEC3"
    },
    {
      "bufferView": 1,
      "componentType": 5126,
      "count": 50557,
      "max": [
        0.9990412592887878,
        0.9996914267539978
      ],
      "min": [
        0.0003407804179005325,
        0.0004750490188598633
      ],
      "type": "VEC2"
    },
    {
      "bufferView": 1,
      "byteOffset": 404456,
      "componentType": 5126,
      "count": 50557,
      "max": [
        9.632528305053711,
        362.9739990234375
      ],
      "min": [
        -580.3298950195313,
        -9.420268058776855
      ],
      "type": "VEC2"
    },
    {
      "bufferView": 0,
      "componentType": 5125,
      "count": 157917,
      "type": "SCALAR"
    },
    {
      "bufferView": 2,
      "byteOffset": 1213368,
      "componentType": 5126,
      "count": 180,
      "max": [
        145.58953857421875,
        124.71487426757813,
        29.981138229370117
      ],
      "min": [
        -3.3580596446990967,
        83.93742370605469,
        -10.34201717376709
      ],
      "type": "VEC3"
    },
    {
      "bufferView": 2,
      "byteOffset": 1215528,
      "componentType": 5126,
      "count": 180,
      "max": [
        0.9999847412109375,
        0.5784689784049988,
        0.5786506533622742
      ],
      "min": [
        -0.9915955662727356,
        -0.5838550329208374,
        -0.5836437940597534
      ],
      "type": "VEC3"
    },
    {
      "bufferView": 1,
      "byteOffset": 808912,
      "componentType": 5126,
      "count": 180,
      "max": [
        0.8314270377159119,
        1.0
      ],
      "min": [
        0.0,
        0.07983666658401489
      ],
      "type": "VEC2"
    },
    {
      "bufferView": 1,
      "byteOffset": 810352,
      "componentType": 5126,
      "count": 180,
      "max": [
        0.0,
        1.0
      ],
      "min": [
        0.0,
        1.0
      ],
      "type": "VEC2"
    },
    {
      "bufferView": 0,
      "byteOffset": 631668,
      "componentType": 5125,
      "count": 690,
      "type": "SCALAR"
    },
    {
      "bufferView": 2,
      "byteOffset": 1217688,
      "componentType": 5126,
      "count": 65532,
      "max": [
        129.8923797607422,
        76.41017150878906,
        89.6667709350586
      ],
      "min": [
        -140.58270263671875,
        1.5397305488586426,
        -88.48412322998047
      ],
      "type": "VEC3"
    },
    {
      "bufferView": 2,
      "byteOffset": 2004072,
      "componentType": 5126,
      "count": 65532,
      "max": [
        0.9999629259109497,
        0.9999358057975769,
        1.0
      ],
      "min": [
        -0.9999628663063049,
        -0.9998319745063782,
        -1.0
      ],
      "type": "VEC3"
    },
    {
      "bufferView": 1,
      "byteOffset": 811792,
      "componentType": 5126,
      "count": 65532,
      "max": [
        1.0129324197769165,
        0.9980973601341248
      ],
      "min": [
        0.0007123014074750245,
        0.0005679130554199219
      ],
      "type": "VEC2"
    },
    {
      "bufferView": 1,
      "byteOffset": 1336048,
      "componentType": 5126,
      "count": 65532,
      "max": [
        0.0,
        1.0
      ],
      "min": [
        0.0,
        1.0
      ],
      "type": "VEC2"
    },
    {
      "bufferView": 0,
      "byteOffset": 634428,
      "componentType": 5125,
      "count": 204456,
      "type": "SCALAR"
    },
    {
      "bufferView": 2,
      "byteOffset": 2790456,
      "componentType": 5126,
      "count": 65532,
      "max": [
        132.447998046875,
        73.04524230957031,
        89.40282440185547
      ],
      "min": [
        -138.50112915039063,
        1.41325044631958,
        -88.22017669677734
      ],
      "type": "VEC3"
    },
    {
      "bufferView": 2,
      "byteOffset": 3576840,
      "componentType": 5126,
      "count": 65532,
      "max": [
        1.0,
        1.0,
        1.0
      ],
      "min": [
        -1.0,
        -1.0,
        -1.0
      ],
      "type": "VEC3"
    },
    {
      "bufferView": 1,
      "byteOffset": 1860304,
      "componentType": 5126,
      "count": 65532,
      "max": [
        1.0129324197769165,
        0.9955999851226807
      ],
      "min": [
        0.0028495355509221554,
        0.004273831844329834
      ],
      "type": "VEC2"
    },
    {
      "bufferView": 1,
      "byteOffset": 2384560,
      "componentType": 5126,
      "count": 65532,
      "max": [
        0.0,
        1.0
      ],
      "min": [
        0.0,
        1.0
      ],
      "type": "VEC2"
    },
    {
      "bufferView": 0,
      "byteOffset": 1452252,
      "componentType": 5125,
      "count": 189450,
      "type": "SCALAR"
    },
    {
      "bufferView": 2,
      "byteOffset": 4363224,
      "componentType": 5126,
      "count": 58910,
      "max": [
        132.447998046875,
        76.5828857421875,
        89.4026107788086
      ],
      "min": [
        -144.88162231445313,
        1.4132418632507324,
        -87.31237030029297
      ],
      "type": "VEC3"
    },
    {
      "bufferView": 2,
      "byteOffset": 5070144,
      "componentType": 5126,
      "count": 58910,
      "max": [
        1.0,
        1.0,
        1.0
      ],
      "min": [
        -1.0,
        -1.0,
        -1.0
      ],
      "type": "VEC3"
    },
    {
      "bufferView": 1,
      "byteOffset": 2908816,
      "componentType": 5126,
      "count": 58910,
      "max": [
        0.9112985134124756,
        0.9955999851226807
      ],
      "min": [
        0.0028495355509221554,
        0.004334151744842529
      ],
      "type": "VEC2"
    },
    {
      "bufferView": 1,
      "byteOffset": 3380096,
      "componentType": 5126,
      "count": 58910,
      "max": [
        0.0,
        1.0
      ],
      "min": [
        0.0,
        1.0
      ],
      "type": "VEC2"
    },
    {
      "bufferView": 0,
      "byteOffset": 2210052,
      "componentType": 5125,
      "count": 183984,
      "type": "SCALAR"
    },
    {
      "bufferView": 2,
      "byteOffset": 5777064,
      "componentType": 5126,
      "count": 32868,
      "max": [
        163.82106018066406,
        177.61734008789063,
        54.80350112915039
      ],
      "min": [
        -18.469758987426758,
        30.0482177734375,
        -76.64312744140625
      ],
      "type": "VEC3"
    },
    {
      "bufferView": 2,
      "byteOffset": 6171480,
      "componentType": 5126,
      "count": 32868,
      "max": [
        0.999984860420227,
        0.999984860420227,
        0.9999847412109375
      ],
      "min": [
        -0.9999848008155823,
        -0.9999847412109375,
        -0.9999849796295166
      ],
      "type": "VEC3"
    },
    {
      "bufferView": 1,
      "byteOffset": 3851376,
      "componentType": 5126,
      "count": 32868,
      "max": [
        0.9999682903289795,
        0.9999215006828308
      ],
      "min": [
        0.0005350598366931081,
        -0.00028586387634277344
      ],
      "type": "VEC2"
    },
    {
      "bufferView": 1,
      "byteOffset": 4114320,
      "componentType": 5126,
      "count": 32868,
      "max": [
        0.0,
        1.0
      ],
      "min": [
        0.0,
        1.0
      ],
      "type": "VEC2"
    },
    {
      "bufferView": 0,
      "byteOffset": 2945988,
      "componentType": 5125,
      "count": 128055,
      "type": "SCALAR"
    },
    {
      "bufferView": 2,
      "byteOffset": 6565896,
      "componentType": 5126,
      "count": 38897,
      "max": [
        20.890380859375,
        140.26266479492188,
        27.899547576904297
      ],
      "min": [
        -30.705001831054688,
        41.396087646484375,
        -23.28331184387207
      ],
      "type": "VEC3"
    },
    {
      "bufferView": 2,
      "byteOffset": 7032660,
      "componentType": 5126,
      "count": 38897,
      "max": [
        1.0,
        1.0,
        1.0
      ],
      "min": [
        -1.0,
        -1.0,
        -1.0
      ],
      "type": "VEC3"
    },
    {
      "bufferView": 1,
      "byteOffset": 4377264,
      "componentType": 5126,
      "count": 38897,
      "max": [
        0.9993433356285095,
        0.9998819828033447
      ],
      "min": [
        0.00047802069457247853,
        0.00018149614334106445
      ],
      "type": "VEC2"
    },
    {
      "bufferView": 1,
      "byteOffset": 4688440,
      "componentType": 5126,
      "count": 38897,
      "max": [
        2.013477325439453,
        1.348486304283142
      ],
      "min": [
        -2.013477325439453,
        0.6515136957168579
      ],
      "type": "VEC2"
    },
    {
      "bufferView": 0,
      "byteOffset": 3458208,
      "componentType": 5125,
      "count": 129936,
      "type": "SCALAR"
    },
    {
      "bufferView": 2,
      "byteOffset": 7499424,
      "componentType": 5126,
      "count": 11625,
      "max": [
        -5.126829624176025,
        98.66078186035156,
        54.87321472167969
      ],
      "min": [
        -71.81768798828125,
        37.317962646484375,
        -53.45164489746094
      ],
      "type": "VEC3"
    },
    {
      "bufferView": 2,
      "byteOffset": 7638924,
      "componentType": 5126,
      "count": 11625,
      "max": [
        0.999984622001648,
        0.999984860420227,
        0.9999848008155823
      ],
      "min": [
        -0.999984860420227,
        -0.999984860420227,
        -0.9999849200248718
      ],
      "type": "VEC3"
    },
    {
      "bufferView": 1,
      "byteOffset": 4999616,
      "componentType": 5126,
      "count": 11625,
      "max": [
        0.9995436072349548,
        0.9993960857391357
      ],
      "min": [
        -0.0009947195649147034,
        0.0003484487533569336
      ],
      "type": "VEC2"
    },
    {
      "bufferView": 1,
      "byteOffset": 5092616,
      "componentType": 5126,
      "count": 11625,
      "max": [
        7.435372352600098,
        1.0
      ],
      "min": [
        -7.435196399688721,
        -5.936049461364746
      ],
      "type": "VEC2"
    },
    {
      "bufferView": 0,
      "byteOffset": 3977952,
      "componentType": 5125,
      "count": 48258,
      "type": "SCALAR"
    },
    {
      "bufferView": 2,
      "byteOffset": 7778424,
      "componentType": 5126,
      "count": 65532,
      "max": [
        126.30734252929688,
        99.97886657714844,
        78.07408142089844
      ],
      "min": [
        -128.81027221679688,
        30.17965316772461,
        -76.76190948486328
      ],
      "type": "VEC3"
    },
    {
      "bufferView": 2,
      "byteOffset": 8564808,
      "componentType": 5126,
      "count": 65532,
      "max": [
        1.0,
        1.0,
        1.0
      ],
      "min": [
        -1.0,
        -1.0,
        -1.0
      ],
      "type": "VEC3"
    },
    {
      "bufferView": 1,
      "byteOffset": 5185616,
      "componentType": 5126,
      "count": 65532,
      "max": [
        1.001785397529602,
        0.9984831213951111
      ],
      "min": [
        0.0008191517554223537,
        0.000526726245880127
      ],
      "type": "VEC2"
    },
    {
      "bufferView": 1,
      "byteOffset": 5709872,
      "componentType": 5126,
      "count": 65532,
      "max": [
        1.9781053066253662,
        2.620990753173828
      ],
      "min": [
        -2.1141388416290283,
        -0.6209899187088013
      ],
      "type": "VEC2"
    },
    {
      "bufferView": 0,
      "byteOffset": 4170984,
      "componentType": 5125,
      "count": 193875,
      "type": "SCALAR"
    },
    {
      "bufferView": 2,
      "byteOffset": 9351192,
      "componentType": 5126,
      "count": 20971,
      "max": [
        118.4758071899414,
        45.50735855102539,
        74.78431701660156
      ],
      "min": [
        -127.04745483398438,
        30.304080963134766,
        -73.47208404541016
      ],
      "type": "VEC3"
    },
    {
      "bufferView": 2,
      "byteOffset": 9602844,
      "componentType": 5126,
      "count": 20971,
      "max": [
        1.0,
        1.0,
        1.0
      ],
      "min": [
        -1.0,
        -1.0,
        -1.0
      ],
      "type": "VEC3"
    },
    {
      "bufferView": 1,
      "byteOffset": 6234128,
      "componentType": 5126,
      "count": 20971,
      "max": [
        1.001785397529602,
        0.9977607131004333
      ],
      "min": [
        0.0009283619001507759,
        0.00034350156784057617
      ],
      "type": "VEC2"
    },
    {
      "bufferView": 1,
      "byteOffset": 6401896,
      "componentType": 5126,
      "count": 20971,
      "max": [
        1.9781053066253662,
        2.620990753173828
      ],
      "min": [
        -2.1141388416290283,
        -0.6209899187088013
      ],
      "type": "VEC2"
    },
    {
      "bufferView": 0,
      "byteOffset": 4946484,
      "componentType": 5125,
      "count": 70575,
      "type": "SCALAR"
    },
    {
      "bufferView": 2,
      "byteOffset": 9854496,
      "componentType": 5126,
      "count": 26067,
      "max": [
        -77.44277954101563,
        169.5804443359375,
        45.775821685791016
      ],
      "min": [
        -131.72470092773438,
        40.20172119140625,
        -56.01237487792969
      ],
      "type": "VEC3"
    },
    {
      "bufferView": 2,
      "byteOffset": 10167300,
      "componentType": 5126,
      "count": 26067,
      "max": [
        1.0,
        1.0,
        1.0
      ],
      "min": [
        -1.0,
        -1.0,
        -1.0
      ],
      "type": "VEC3"
    },
    {
      "bufferView": 1,
      "byteOffset": 6569664,
      "componentType": 5126,
      "count": 26067,
      "max": [
        0.9993545413017273,
        0.999688446521759
      ],
      "min": [
        -0.0005907416343688965,
        0.0009551644325256348
      ],
      "type": "VEC2"
    },
    {
      "bufferView": 1,
      "byteOffset": 6778200,
      "componentType": 5126,
      "count": 26067,
      "max": [
        48.60394287109375,
        186.0865936279297
      ],
      "min": [
        -11.341367721557617,
        -1.017448902130127
      ],
      "type": "VEC2"
    },
    {
      "bufferView": 0,
      "byteOffset": 5228784,
      "componentType": 5125,
      "count": 77952,
      "type": "SCALAR"
    },
    {
      "bufferView": 2,
      "byteOffset": 10480104,
      "componentType": 5126,
      "count": 1656,
      "max": [
        164.7085723876953,
        178.2896728515625,
        -12.998631477355957
      ],
      "min": [
        97.86175537109375,
        111.54875183105469,
        -77.23007202148438
      ],
      "type": "VEC3"
    },
    {
      "bufferView": 2,
      "byteOffset": 10499976,
      "componentType": 5126,
      "count": 1656,
      "max": [
        0.9943448305130005,
        0.996812105178833,
        0.9880772829055786
      ],
      "min": [
        -0.9919624328613281,
        -0.9942528009414673,
        -0.995888352394104
      ],
      "type": "VEC3"
    },
    {
      "bufferView": 1,
      "byteOffset": 6986736,
      "componentType": 5126,
      "count": 1656,
      "max": [
        0.9431021213531494,
        0.9962178468704224
      ],
      "min": [
        0.8756660223007202,
        0.4590427279472351
      ],
      "type": "VEC2"
    },
    {
      "bufferView": 1,
      "byteOffset": 6999984,
      "componentType": 5126,
      "count": 1656,
      "max": [
        0.0,
        1.0
      ],
      "min": [
        0.0,
        1.0
      ],
      "type": "VEC2"
    },
    {
      "bufferView": 0,
      "byteOffset": 5540592,
      "componentType": 5125,
      "count": 7200,
      "type": "SCALAR"
    }
  ],
  "asset": {
    "extras": {
      "author": "Deutsches Museum | Digital (https://sketchfab.com/deutsches-museum)",
      "license": "CC-BY-SA-4.0 (http://creativecommons.org/licenses/by-sa/4.0/)",
      "source": "https://sketchfab.com/3d-models/mondfahrzeug-lunar-rover-acb3f8645a69493cb211a62b40d66aab",
      "title": "Mondfahrzeug (Lunar Rover)"
    },
    "generator": "Sketchfab-15.37.0",
    "version": "2.0"
  },
  "bufferViews": [
    {
      "buffer": 0,
      "byteLength": 5569392,
      "name": "floatBufferViews",
      "target": 34963
    },
    {
      "buffer": 0,
      "byteLength": 7013232,
      "byteOffset": 5569392,
      "byteStride": 8,
      "name": "floatBufferViews",
      "target": 34962
    },
    {
      "buffer": 0,
      "byteLength": 10519848,
      "byteOffset": 12582624,
      "byteStride": 12,
      "name": "floatBufferViews",
      "target": 34962
    }
  ],
  "buffers": [
    {
      "byteLength": 23102472,
      "uri": "scene.bin"
    }
  ],
  "images": [
    {
      "uri": "textures/Chassis_baseColor.png"
    },
    {
      "uri": "textures/Wheels_baseColor.png"
    },
    {
      "uri": "textures/FrontParts_baseColor.png"
    },
    {
      "uri": "textures/ControlPanel_baseColor.png"
    },
    {
      "uri": "textures/Seats_baseColor.png"
    },
    {
      "uri": "textures/Damping_baseColor.png"
    },
    {
      "uri": "textures/BackParts_baseColor.png"
    }
  ],
  "materials": [
    {
      "doubleSided": true,
      "name": "Chassis",
      "pbrMetallicRoughness": {
        "baseColorTexture": {
          "index": 0
        },
        "metallicFactor": 0.0,
        "roughnessFactor": 0.552786
      }
    },
    {
      "doubleSided": true,
      "name": "Kameralinse",
      "pbrMetallicRoughness": {
        "baseColorFactor": [
          0.00913688,
          0.0118411,
          0.0668057,
          1.0
        ],
        "metallicFactor": 0.241667,
        "roughnessFactor": 0.169453
      }
    },
    {
      "doubleSided": true,
      "name": "Wheels",
      "pbrMetallicRoughness": {
        "baseColorTexture": {
          "index": 1
        },
        "metallicFactor": 0.0,
        "roughnessFactor": 0.552786
      }
    },
    {
      "doubleSided": true,
      "name": "FrontParts",
      "pbrMetallicRoughness": {
        "baseColorTexture": {
          "index": 2
        },
        "metallicFactor": 0.0,
        "roughnessFactor": 0.552786
      }
    },
    {
      "doubleSided": true,
      "name": "ControlPanel",
      "pbrMetallicRoughness": {
        "baseColorTexture": {
          "index": 3
        },
        "metallicFactor": 0.0,
        "roughnessFactor": 0.552786
      }
    },
    {
      "doubleSided": true,
      "name": "Seats",
      "pbrMetallicRoughness": {
        "baseColorTexture": {
          "index": 4
        },
        "metallicFactor": 0.0,
        "roughnessFactor": 0.552786
      }
    },
    {
      "doubleSided": true,
      "name": "Damping",
      "pbrMetallicRoughness": {
        "baseColorTexture": {
          "index": 5
        },
        "metallicFactor": 0.0,
        "roughnessFactor": 0.552786
      }
    },
    {
      "doubleSided": true,
      "name": "BackParts",
      "pbrMetallicRoughness": {
        "baseColorTexture": {
          "index": 6
        },
        "metallicFactor": 0.0,
        "roughnessFactor": 0.552786
      }
    },
    {
      "doubleSided": true,
      "name": "Antenne",
      "pbrMetallicRoughness": {
        "baseColorFactor": [
          0.72,
          0.72,
          0.72,
          1.0
        ],
        "metallicFactor": 0.383333,
        "roughnessFactor": 0.552786
      }
    }
  ],
  "meshes": [
    {
      "name": "Object_0",
      "primitives": [
        {
          "attributes": {
            "NORMAL": 1,
            "POSITION": 0,
            "TEXCOORD_0": 2,
            "TEXCOORD_1": 3
          },
          "indices": 4,
          "material": 0,
          "mode": 4
        }
      ]
    },
    {
      "name": "Object_1",
      "primitives": [
        {
          "attributes": {
            "NORMAL": 6,
            "POSITION": 5,
            "TEXCOORD_0": 7,
            "TEXCOORD_1": 8
          },
          "indices": 9,
          "material": 1,
          "mode": 4
        }
      ]
    },
    {
      "name": "Object_2",
      "primitives": [
        {
          "attributes": {
            "NORMAL": 11,
            "POSITION": 10,
            "TEXCOORD_0": 12,
            "TEXCOORD_1": 13
          },
          "indices": 14,
          "material": 2,
          "mode": 4
        }
      ]
    },
    {
      "name": "Object_3",
      "primitives": [
        {
          "attributes": {
            "NORMAL": 16,
            "POSITION": 15,
            "TEXCOORD_0": 17,
            "TEXCOORD_1": 18
          },
          "indices": 19,
          "material": 2,
          "mode": 4
        }
      ]
    },
    {
      "name": "Object_4",
      "primitives": [
        {
          "attributes": {
            "NORMAL": 21,
            "POSITION": 20,
            "TEXCOORD_0": 22,
            "TEXCOORD_1": 23
          },
          "indices": 24,
          "material": 2,
          "mode": 4
        }
      ]
    },
    {
      "name": "Object_5",
      "primitives": [
        {
          "attributes": {
            "NORMAL": 26,
            "POSITION": 25,
            "TEXCOORD_0": 27,
            "TEXCOORD_1": 28
          },
          "indices": 29,
          "material": 3,
          "mode": 4
        }
      ]
    },
    {
      "name": "Object_6",
      "primitives": [
        {
          "attributes": {
            "NORMAL": 31,
            "POSITION": 30,
            "TEXCOORD_0": 32,
            "TEXCOORD_1": 33
          },
          "indices": 34,
          "material": 4,
          "mode": 4
        }
      ]
    },
    {
      "name": "Object_7",
      "primitives": [
        {
          "attributes": {
            "NORMAL": 36,
            "POSITION": 35,
            "TEXCOORD_0": 37,
            "TEXCOORD_1": 38
          },
          "indices": 39,
          "material": 5,
          "mode": 4
        }
      ]
    },
    {
      "name": "Object_8",
      "primitives": [
        {
          "attributes": {
            "NORMAL": 41,
            "POSITION": 40,
            "TEXCOORD_0": 42,
            "TEXCOORD_1": 43
          },
          "indices": 44,
          "material": 6,
          "mode": 4
        }
      ]
    },
    {
      "name": "Object_9",
      "primitives": [
        {
          "attributes": {
            "NORMAL": 46,
            "POSITION": 45,
            "TEXCOORD_0": 47,
            "TEXCOORD_1": 48
          },
          "indices": 49,
          "material": 6,
          "mode": 4
        }
      ]
    },
    {
      "name": "Object_10",
      "primitives": [
        {
          "attributes": {
            "NORMAL": 51,
            "POSITION": 50,
            "TEXCOORD_0": 52,
            "TEXCOORD_1": 53
          },
          "indices": 54,
          "material": 7,
          "mode": 4
        }
      ]
    },
    {
      "name": "Object_11",
      "primitives": [
        {
          "attributes": {
            "NORMAL": 56,
            "POSITION": 55,
            "TEXCOORD_0": 57,
            "TEXCOORD_1": 58
          },
          "indices": 59,
          "material": 8,
          "mode": 4
        }
      ]
    }
  ],
  "nodes": [
    {
      "children": [
        1
      ],
      "matrix": [
        1.0,
        0.0,
        0.0,
        0.0,
        0.0,
        2.220446049250313e-16,
        -1.0,
        0.0,
        0.0,
        1.0,
        2.220446049250313e-16,
        0.0,
        0.0,
        0.0,
        0.0,
        1.0
      ],
      "name": "Sketchfab_model"
    },
    {
      "children": [
        2
      ],
      "name": "root"
    },
    {
      "children": [
        3
      ],
      "matrix": [
        1.0,
        0.0,
        0.0,
        0.0,
        0.0,
        2.220446049250313e-16,
        1.0,
        0.0,
        0.0,
        -1.0,
        2.220446049250313e-16,
        0.0,
        0.0,
        0.0,
        0.0,
        1.0
      ],
      "name": "GLTF_SceneRootNode"
    },
    {
      "children": [
        4
      ],
      "matrix": [
        0.009999999776482582,
        0.0,
        0.0,
        0.0,
        0.0,
        0.009999999776482582,
        0.0,
        0.0,
        0.0,
        0.0,
        0.009999999776482582,
        0.0,
        0.0,
        0.0,
        0.0,
        1.0
      ],
      "name": "ApolloRoverRig__1_93"
    },
    {
      "children": [
        5
      ],
      "name": "ApolloRoverRig_92"
    },
    {
      "children": [
        6,
        7,
        8,
        9,
        10,
        11,
        12,
        13,
        14,
        15,
        16,
        17
      ],
      "matrix": [
        1.0,
        0.0,
        0.0,
        0.0,
        0.0,
        1.0,
        0.0,
        0.0,
        0.0,
        0.0,
        1.0,
        0.0,
        0.0,
        4.012222234450746e-06,
        0.0,
        1.0
      ],
      "name": "ApolloRoverRig__1.001_2"
    },
    {
      "mesh": 0,
      "name": "Object_6"
    },
    {
      "mesh": 1,
      "name": "Object_7"
    },
    {
      "mesh": 2,
      "name": "Object_8"
    },
    {
      "mesh": 3,
      "name": "Object_9"
    },
    {
      "mesh": 4,
      "name": "Object_10"
    },
    {
      "mesh": 5,
      "name": "Object_11"
    },
    {
      "mesh": 6,
      "name": "Object_12"
    },
    {
      "mesh": 7,
      "name": "Object_13"
    },
    {
      "mesh": 8,
      "name": "Object_14"
    },
    {
      "mesh": 9,
      "name": "Object_15"
    },
    {
      "mesh": 10,
      "name": "Object_16"
    },
    {
      "mesh": 11,
      "name": "Object_17"
    }
  ],
  "samplers": [
    {
      "magFilter": 9729,
      "minFilter": 9987,
      "wrapS": 10497,
      "wrapT": 10497
    }
  ],
  "scene": 0,
  "scenes": [
    {
      "name": "Sketchfab_Scene",
      "nodes": [
        0
      ]
    }
  ],
  "textures": [
    {
      "sampler": 0,
      "source": 0
    },
    {
      "sampler": 0,
      "source": 1
    },
    {
      "sampler": 0,
      "source": 2
    },
    {
      "sampler": 0,
      "source": 3
    },
    {
      "sampler": 0,
      "source": 4
    },
    {
      "sampler": 0,
      "source": 5
    },
    {
      "sampler": 0,
      "source": 6
    }
  ]
}
