{
  "accessors": [
    {
      "bufferView": 2,
      "componentType": 5126,
      "count": 11853,
      "max": [
        0.5234375,
        0.251953125,
        -0.00034499168395996094
      ],
      "min": [
        -0.5205078125,
        -0.1348876953125,
        -1.6171875
      ],
      "type": "VEC3"
    },
    {
      "bufferView": 2,
      "byteOffset": 142236,
      "componentType": 5126,
      "count": 11853,
      "max": [
        0.9998091459274292,
        0.9999301433563232,
        1.0
      ],
      "min": [
        -0.9999698400497437,
        -0.9998620748519897,
        -1.0
      ],
      "type": "VEC3"
    },
    {
      "bufferView": 3,
      "componentType": 5126,
      "count": 11853,
      "max": [
        1.0,
        0.9999441504478455,
        0.9999756813049316,
        1.0
      ],
      "min": [
        -0.9999605417251587,
        -0.9998602271080017,
        -0.9994433522224426,
        -1.0
      ],
      "type": "VEC4"
    },
    {
      "bufferView": 3,
      "byteOffset": 189648,
      "componentType": 5126,
      "count": 11853,
      "max": [
        1.0,
        1.0,
        1.0,
        1.0
      ],
      "min": [
        0.0,
        0.0,
        0.0,
        1.0
      ],
      "type": "VEC4"
    },
    {
      "bufferView": 1,
      "componentType": 5126,
      "count": 11853,
      "max": [
        0.99658203125,
        0.9966754913330078
      ],
      "min": [
        0.002902984619140625,
        0.00341796875
      ],
      "type": "VEC2"
    },
    {
      "bufferView": 1,
      "byteOffset": 94824,
      "componentType": 5126,
      "count": 11853,
      "max": [
        0.0,
        27.578125
      ],
      "min": [
        -23.84375,
        -2.228515625
      ],
      "type": "VEC2"
    },
    {
      "bufferView": 0,
      "componentType": 5125,
      "count": 58362,
      "type": "SCALAR"
    },
    {
      "bufferView": 2,
      "byteOffset": 284472,
      "componentType": 5126,
      "count": 3394,
      "max": [
        0.5615234375,
        0.355224609375,
        -0.97607421875
      ],
      "min": [
        -0.5615234375,
        0.0850830078125,
        -1.224609375
      ],
      "type": "VEC3"
    },
    {
      "bufferView": 2,
      "byteOffset": 325200,
      "componentType": 5126,
      "count": 3394,
      "max": [
        0.9996776580810547,
        0.9927660226821899,
        0.9970784187316895
      ],
      "min": [
        -0.9996776580810547,
        -0.9982151389122009,
        -0.9934700727462769
      ],
      "type": "VEC3"
    },
    {
      "bufferView": 3,
      "byteOffset": 379296,
      "componentType": 5126,
      "count": 3394,
      "max": [
        0.9998356699943542,
        0.9997500777244568,
        0.9866639971733093,
        1.0
      ],
      "min": [
        -0.9998357892036438,
        -0.9967896342277527,
        -0.9999234676361084,
        -1.0
      ],
      "type": "VEC4"
    },
    {
      "bufferView": 3,
      "byteOffset": 433600,
      "componentType": 5126,
      "count": 3394,
      "max": [
        0.0,
        0.0,
        0.0,
        1.0
      ],
      "min": [
        0.0,
        0.0,
        0.0,
        1.0
      ],
      "type": "VEC4"
    },
    {
      "bufferView": 1,
      "byteOffset": 189648,
      "componentType": 5126,
      "count": 3394,
      "max": [
        0.99365234375,
        0.9931221008300781
      ],
      "min": [
        0.005069732666015625,
        0.00390625
      ],
      "type": "VEC2"
    },
    {
      "bufferView": 1,
      "byteOffset": 216800,
      "componentType": 5126,
      "count": 3394,
      "max": [
        0.0,
        1.0
      ],
      "min": [
        0.0,
        1.0
      ],
      "type": "VEC2"
    },
    {
      "bufferView": 0,
      "byteOffset": 233448,
      "componentType": 5125,
      "count": 17592,
      "type": "SCALAR"
    },
    {
      "bufferView": 2,
      "byteOffset": 365928,
      "componentType": 5126,
      "count": 1841,
      "max": [
        0.28334614634513855,
        0.20875349640846252,
        -0.4132213890552521
      ],
      "min": [
        -0.26836341619491577,
        -0.1717650294303894,
        -1.0516797304153442
      ],
      "type": "VEC3"
    },
    {
      "bufferView": 2,
      "byteOffset": 388020,
      "componentType": 5126,
      "count": 1841,
      "max": [
        0.9991161823272705,
        0.9998288154602051,
        0.9998419284820557
      ],
      "min": [
        -0.9998692274093628,
        -0.9988262057304382,
        -0.9996755123138428
      ],
      "type": "VEC3"
    },
    {
      "bufferView": 3,
      "byteOffset": 487904,
      "componentType": 5126,
      "count": 1841,
      "max": [
        0.9999974966049194,
        0.9999353885650635,
        0.9456632137298584,
        1.0
      ],
      "min": [
        -0.9999917149543762,
        -0.999130129814148,
        -0.9249568581581116,
        1.0
      ],
      "type": "VEC4"
    },
    {
      "bufferView": 1,
      "byteOffset": 243952,
      "componentType": 5126,
      "count": 1841,
      "max": [
        0.99267578125,
        0.9922065734863281
      ],
      "min": [
        0.006809234619140625,
        0.14697265625
      ],
      "type": "VEC2"
    },
    {
      "bufferView": 0,
      "byteOffset": 303816,
      "componentType": 5125,
      "count": 9516,
      "type": "SCALAR"
    },
    {
      "bufferView": 2,
      "byteOffset": 410112,
      "componentType": 5126,
      "count": 1148,
      "max": [
        0.03520527482032776,
        0.13435055315494537,
        -1.5741746425628662
      ],
      "min": [
        -0.0334545373916626,
        0.052759893238544464,
        -1.6322990655899048
      ],
      "type": "VEC3"
    },
    {
      "bufferView": 2,
      "byteOffset": 423888,
      "componentType": 5126,
      "count": 1148,
      "max": [
        0.9994462728500366,
        0.9987959265708923,
        0.9999967813491821
      ],
      "min": [
        -0.9984728097915649,
        -0.9999244213104248,
        -0.9989795088768005
      ],
      "type": "VEC3"
    },
    {
      "bufferView": 1,
      "byteOffset": 258680,
      "componentType": 5126,
      "count": 1148,
      "max": [
        0.9931640625,
        0.9871368408203125
      ],
      "min": [
        0.007099151611328125,
        0.02294921875
      ],
      "type": "VEC2"
    },
    {
      "bufferView": 0,
      "byteOffset": 341880,
      "componentType": 5125,
      "count": 5658,
      "type": "SCALAR"
    },
    {
      "bufferView": 2,
      "byteOffset": 437664,
      "componentType": 5126,
      "count": 804,
      "max": [
        0.04504263028502464,
        0.13480615615844727,
        -1.670931100845337
      ],
      "min": [
        -0.045040279626846313,
        0.10788244754076004,
        -1.6973148584365845
      ],
      "type": "VEC3"
    },
    {
      "bufferView": 2,
      "byteOffset": 447312,
      "componentType": 5126,
      "count": 804,
      "max": [
        0.9994466304779053,
        1.0,
        0.999443531036377
      ],
      "min": [
        -0.9994466304779053,
        -1.0,
        -0.9994475841522217
      ],
      "type": "VEC3"
    },
    {
      "bufferView": 1,
      "byteOffset": 267864,
      "componentType": 5126,
      "count": 804,
      "max": [
        0.98291015625,
        0.9828033447265625
      ],
      "min": [
        -0.98291015625,
        0.01708984375
      ],
      "type": "VEC2"
    },
    {
      "bufferView": 0,
      "byteOffset": 364512,
      "componentType": 5125,
      "count": 4560,
      "type": "SCALAR"
    },
    {
      "bufferView": 2,
      "byteOffset": 456960,
      "componentType": 5126,
      "count": 6132,
      "max": [
        0.10946318507194519,
        0.17350445687770844,
        -1.451418399810791
      ],
      "min": [
        -0.10940159857273102,
        -0.07168224453926086,
        -1.8177809715270996
      ],
      "type": "VEC3"
    },
    {
      "bufferView": 2,
      "byteOffset": 530544,
      "componentType": 5126,
      "count": 6132,
      "max": [
        0.9997173547744751,
        0.9998984336853027,
        0.9999964237213135
      ],
      "min": [
        -0.9997217655181885,
        -0.9999749660491943,
        -0.9994018077850342
      ],
      "type": "VEC3"
    },
    {
      "bufferView": 3,
      "byteOffset": 517360,
      "componentType": 5126,
      "count": 6132,
      "max": [
        1.0,
        0.9996553063392639,
        0.9996896386146545,
        1.0
      ],
      "min": [
        -0.9999743700027466,
        -0.9999261498451233,
        -0.9996131658554077,
        -1.0
      ],
      "type": "VEC4"
    },
    {
      "bufferView": 1,
      "byteOffset": 274296,
      "componentType": 5126,
      "count": 6132,
      "max": [
        0.998046875,
        0.9970760345458984
      ],
      "min": [
        0.0020999908447265625,
        0.0029296875
      ],
      "type": "VEC2"
    },
    {
      "bufferView": 0,
      "byteOffset": 382752,
      "componentType": 5125,
      "count": 34434,
      "type": "SCALAR"
    }
  ],
  "asset": {
    "extras": {
      "author": "Konstantin Koretskyi (https://sketchfab.com/cgnoobmaster)",
      "license": "CC-BY-4.0 (http://creativecommons.org/licenses/by/4.0/)",
      "source": "https://sketchfab.com/3d-models/darth-maul-102ed10dfcd441029b4586bf4c88ec20",
      "title": "Darth Maul"
    },
    "generator": "Sketchfab-12.68.0",
    "version": "2.0"
  },
  "bufferViews": [
    {
      "buffer": 0,
      "byteLength": 520488,
      "name": "floatBufferViews",
      "target": 34963
    },
    {
      "buffer": 0,
      "byteLength": 323352,
      "byteOffset": 520488,
      "byteStride": 8,
      "name": "floatBufferViews",
      "target": 34962
    },
    {
      "buffer": 0,
      "byteLength": 604128,
      "byteOffset": 843840,
      "byteStride": 12,
      "name": "floatBufferViews",
      "target": 34962
    },
    {
      "buffer": 0,
      "byteLength": 615472,
      "byteOffset": 1447968,
      "byteStride": 16,
      "name": "floatBufferViews",
      "target": 34962
    }
  ],
  "buffers": [
    {
      "byteLength": 2063440,
      "uri": "scene.bin"
    }
  ],
  "images": [
    {
      "uri": "textures/Material.003_baseColor.png"
    },
    {
      "uri": "textures/Material.003_normal.png"
    },
    {
      "uri": "textures/Material.005_baseColor.png"
    },
    {
      "uri": "textures/Material.005_normal.png"
    },
    {
      "uri": "textures/Material.004_baseColor.png"
    },
    {
      "uri": "textures/Material.004_normal.png"
    },
    {
      "uri": "textures/Material.001_baseColor.png"
    },
    {
      "uri": "textures/Material.002_baseColor.png"
    },
    {
      "uri": "textures/Material.002_normal.png"
    }
  ],
  "materials": [
    {
      "doubleSided": true,
      "name": "material_0",
      "pbrMetallicRoughness": {
        "metallicFactor": 0.0,
        "roughnessFactor": 0.6
      }
    },
    {
      "doubleSided": true,
      "name": "Material.003",
      "normalTexture": {
        "index": 1
      },
      "pbrMetallicRoughness": {
        "baseColorTexture": {
          "index": 0
        },
        "metallicFactor": 0.0,
        "roughnessFactor": 0.7
      }
    },
    {
      "doubleSided": true,
      "name": "Material.005",
      "normalTexture": {
        "index": 3
      },
      "pbrMetallicRoughness": {
        "baseColorTexture": {
          "index": 2
        },
        "metallicFactor": 0.0,
        "roughnessFactor": 0.5
      }
    },
    {
      "doubleSided": true,
      "name": "Material.004",
      "normalTexture": {
        "index": 5
      },
      "pbrMetallicRoughness": {
        "baseColorFactor": [
          0.23342225609756098,
          0.23342225609756098,
          0.23342225609756098,
          1.0
        ],
        "baseColorTexture": {
          "index": 4
        },
        "metallicFactor": 0.0,
        "roughnessFactor": 0.7
      }
    },
    {
      "doubleSided": true,
      "name": "Material.001",
      "pbrMetallicRoughness": {
        "baseColorTexture": {
          "index": 6
        },
        "metallicFactor": 0.0,
        "roughnessFactor": 0.5
      }
    },
    {
      "doubleSided": true,
      "name": "Material.002",
      "normalTexture": {
        "index": 8
      },
      "pbrMetallicRoughness": {
        "baseColorTexture": {
          "index": 7
        },
        "metallicFactor": 0.0,
        "roughnessFactor": 0.5
      }
    }
  ],
  "meshes": [
    {
      "name": "Object_0",
      "primitives": [
        {
          "attributes": {
            "COLOR_0": 3,
            "NORMAL": 1,
            "POSITION": 0,
            "TANGENT": 2,
            "TEXCOORD_0": 4,
            "TEXCOORD_1": 5
          },
          "indices": 6,
          "material": 1,
          "mode": 4
        }
      ]
    },
    {
      "name": "Object_1",
      "primitives": [
        {
          "attributes": {
            "COLOR_0": 10,
            "NORMAL": 8,
            "POSITION": 7,
            "TANGENT": 9,
            "TEXCOORD_0": 11,
            "TEXCOORD_1": 12
          },
          "indices": 13,
          "material": 2,
          "mode": 4
        }
      ]
    },
    {
      "name": "Object_2",
      "primitives": [
        {
          "attributes": {
            "NORMAL": 15,
            "POSITION": 14,
            "TANGENT": 16,
            "TEXCOORD_0": 17
          },
          "indices": 18,
          "material": 3,
          "mode": 4
        }
      ]
    },
    {
      "name": "Object_3",
      "primitives": [
        {
          "attributes": {
            "NORMAL": 20,
            "POSITION": 19,
            "TEXCOORD_0": 21
          },
          "indices": 22,
          "material": 0,
          "mode": 4
        }
      ]
    },
    {
      "name": "Object_4",
      "primitives": [
        {
          "attributes": {
            "NORMAL": 24,
            "POSITION": 23,
            "TEXCOORD_0": 25
          },
          "indices": 26,
          "material": 4,
          "mode": 4
        }
      ]
    },
    {
      "name": "Object_5",
      "primitives": [
        {
          "attributes": {
            "NORMAL": 28,
            "POSITION": 27,
            "TANGENT": 29,
            "TEXCOORD_0": 30
          },
          "indices": 31,
          "material": 5,
          "mode": 4
        }
      ]
    }
  ],
  "nodes": [
    {
      "children": [
        1
      ],
      "matrix": [
        1.0,
        0.0,
        0.0,
        0.0,
        0.0,
        2.220446049250313e-16,
        -1.0,
        0.0,
        0.0,
        1.0,
        2.220446049250313e-16,
        0.0,
        0.0,
        0.0,
        0.0,
        1.0
      ],
      "name": "Sketchfab_model"
    },
    {
      "children": [
        2
      ],
      "name": "root"
    },
    {
      "children": [
        3,
        5,
        7,
        9,
        11,
        13
      ],
      "matrix": [
        1.0,
        0.0,
        0.0,
        0.0,
        0.0,
        2.220446049250313e-16,
        1.0,
        0.0,
        0.0,
        -1.0,
        2.220446049250313e-16,
        0.0,
        0.0,
        0.0,
        0.0,
        1.0
      ],
      "name": "GLTF_SceneRootNode"
    },
    {
      "children": [
        4
      ],
      "matrix": [
        1.0,
        0.0,
        0.0,
        0.0,
        0.0,
        0.0,
        1.0,
        0.0,
        0.0,
        -1.0,
        0.0,
        0.0,
        0.0,
        0.0,
        0.0,
        1.0
      ],
      "name": "m_body.001_2"
    },
    {
      "mesh": 0,
      "name": "Object_4"
    },
    {
      "children": [
        6
      ],
      "matrix": [
        1.0,
        0.0,
        0.0,
        0.0,
        0.0,
        0.0,
        1.0,
        0.0,
        0.0,
        -1.0,
        0.0,
        0.0,
        0.0,
        0.0,
        0.0,
        1.0
      ],
      "name": "m_gloves.002_3"
    },
    {
      "mesh": 1,
      "name": "Object_6"
    },
    {
      "children": [
        8
      ],
      "matrix": [
        1.0,
        0.0,
        0.0,
        0.0,
        0.0,
        0.0,
        1.0,
        0.0,
        0.0,
        -1.0,
        0.0,
        0.0,
        0.0,
        0.0,
        0.0,
        1.0
      ],
      "name": "m_cloth.001_4"
    },
    {
      "mesh": 2,
      "name": "Object_8"
    },
    {
      "children": [
        10
      ],
      "matrix": [
        1.0,
        0.0,
        0.0,
        0.0,
        0.0,
        8.429369480200677e-08,
        0.9999999999999966,
        0.0,
        0.0,
        -0.9999999999999966,
        8.429369480200677e-08,
        0.0,
        0.0,
        0.0,
        0.0,
        1.0
      ],
      "name": "mat_teeth_5"
    },
    {
      "mesh": 3,
      "name": "Object_10"
    },
    {
      "children": [
        12
      ],
      "matrix": [
        1.0,
        0.0,
        0.0,
        0.0,
        0.0,
        8.429369480200677e-08,
        0.9999999999999966,
        0.0,
        0.0,
        -0.9999999999999966,
        8.429369480200677e-08,
        0.0,
        0.0,
        0.0,
        0.0,
        1.0
      ],
      "name": "mat_eyes.001_6"
    },
    {
      "mesh": 4,
      "name": "Object_12"
    },
    {
      "children": [
        14
      ],
      "matrix": [
        1.0,
        0.0,
        0.0,
        0.0,
        0.0,
        0.0,
        1.0,
        0.0,
        0.0,
        -1.0,
        0.0,
        0.0,
        0.0,
        0.0,
        0.0,
        1.0
      ],
      "name": "mat_head.002_7"
    },
    {
      "mesh": 5,
      "name": "Object_14"
    }
  ],
  "samplers": [
    {
      "magFilter": 9729,
      "minFilter": 9987,
      "wrapS": 10497,
      "wrapT": 10497
    }
  ],
  "scene": 0,
  "scenes": [
    {
      "name": "Sketchfab_Scene",
      "nodes": [
        0
      ]
    }
  ],
  "textures": [
    {
      "sampler": 0,
      "source": 0
    },
    {
      "sampler": 0,
      "source": 1
    },
    {
      "sampler": 0,
      "source": 2
    },
    {
      "sampler": 0,
      "source": 3
    },
    {
      "sampler": 0,
      "source": 4
    },
    {
      "sampler": 0,
      "source": 5
    },
    {
      "sampler": 0,
      "source": 6
    },
    {
      "sampler": 0,
      "source": 7
    },
    {
      "sampler": 0,
      "source": 8
    }
  ]
}
