{
  "accessors": [
    {
      "bufferView": 2,
      "componentType": 5126,
      "count": 517,
      "max": [
        100.0,
        33.364341735839844,
        99.99998474121094
      ],
      "min": [
        -100.0,
        1.9999999949504854e-06,
        -100.00000762939453
      ],
      "type": "VEC3"
    },
    {
      "bufferView": 2,
      "byteOffset": 6204,
      "componentType": 5126,
      "count": 517,
      "max": [
        0.998858630657196,
        1.0,
        0.998858630657196
      ],
      "min": [
        -0.998858630657196,
        -0.9999986290931702,
        -0.998858630657196
      ],
      "type": "VEC3"
    },
    {
      "bufferView": 3,
      "componentType": 5126,
      "count": 517,
      "max": [
        0.9999988675117493,
        0.996658444404602,
        0.9999988675117493,
        1.0
      ],
      "min": [
        -0.9999988675117493,
        -0.9956543445587158,
        -0.9999890327453613,
        -1.0
      ],
      "type": "VEC4"
    },
    {
      "bufferView": 1,
      "componentType": 5126,
      "count": 517,
      "max": [
        0.9919750094413757,
        0.9475489854812622
      ],
      "min": [
        0.0014959999825805426,
        0.0014929999597370625
      ],
      "type": "VEC2"
    },
    {
      "bufferView": 0,
      "componentType": 5125,
      "count": 2298,
      "type": "SCALAR"
    },
    {
      "bufferView": 2,
      "byteOffset": 12408,
      "componentType": 5126,
      "count": 226,
      "max": [
        100.0,
        33.364341735839844,
        100.0
      ],
      "min": [
        -100.0,
        1.9999999949504854e-06,
        -99.99999237060547
      ],
      "type": "VEC3"
    },
    {
      "bufferView": 2,
      "byteOffset": 15120,
      "componentType": 5126,
      "count": 226,
      "max": [
        0.998858630657196,
        0.999996542930603,
        0.998858630657196
      ],
      "min": [
        -0.998858630657196,
        -0.9999986290931702,
        -0.998858630657196
      ],
      "type": "VEC3"
    },
    {
      "bufferView": 3,
      "byteOffset": 8272,
      "componentType": 5126,
      "count": 226,
      "max": [
        0.9999988675117493,
        0.9960346817970276,
        0.9999890327453613,
        1.0
      ],
      "min": [
        -0.9999988675117493,
        -0.9960495233535767,
        -0.9999988675117493,
        1.0
      ],
      "type": "VEC4"
    },
    {
      "bufferView": 1,
      "byteOffset": 4136,
      "componentType": 5126,
      "count": 226,
      "max": [
        0.9985079765319824,
        0.9039210081100464
      ],
      "min": [
        0.001491999952122569,
        0.001491999952122569
      ],
      "type": "VEC2"
    },
    {
      "bufferView": 0,
      "byteOffset": 9192,
      "componentType": 5125,
      "count": 948,
      "type": "SCALAR"
    }
  ],
  "asset": {
    "extras": {
      "author": "nekiv (https://sketchfab.com/nekiv)",
      "license": "CC-BY-4.0 (http://creativecommons.org/licenses/by/4.0/)",
      "source": "https://sketchfab.com/3d-models/star-trek-rank-pips-d1468037869846eb83067660e3802d3f",
      "title": "Star Trek Rank Pips"
    },
    "generator": "Sketchfab-16.28.0",
    "version": "2.0"
  },
  "bufferViews": [
    {
      "buffer": 0,
      "byteLength": 12984,
      "name": "floatBufferViews",
      "target": 34963
    },
    {
      "buffer": 0,
      "byteLength": 5944,
      "byteOffset": 12984,
      "byteStride": 8,
      "name": "floatBufferViews",
      "target": 34962
    },
    {
      "buffer": 0,
      "byteLength": 17832,
      "byteOffset": 18928,
      "byteStride": 12,
      "name": "floatBufferViews",
      "target": 34962
    },
    {
      "buffer": 0,
      "byteLength": 11888,
      "byteOffset": 36760,
      "byteStride": 16,
      "name": "floatBufferViews",
      "target": 34962
    }
  ],
  "buffers": [
    {
      "byteLength": 48648,
      "uri": "scene.bin"
    }
  ],
  "images": [
    {
      "uri": "textures/material_baseColor.jpeg"
    },
    {
      "uri": "textures/material_metallicRoughness.png"
    },
    {
      "uri": "textures/material_normal.png"
    }
  ],
  "materials": [
    {
      "doubleSided": true,
      "name": "material",
      "normalTexture": {
        "index": 2
      },
      "occlusionTexture": {
        "index": 1
      },
      "pbrMetallicRoughness": {
        "baseColorTexture": {
          "index": 0
        },
        "metallicRoughnessTexture": {
          "index": 1
        }
      }
    }
  ],
  "meshes": [
    {
      "name": "defaultMaterial",
      "primitives": [
        {
          "attributes": {
            "NORMAL": 1,
            "POSITION": 0,
            "TANGENT": 2,
            "TEXCOORD_0": 3
          },
          "indices": 4,
          "material": 0,
          "mode": 4
        }
      ]
    },
    {
      "name": "defaultMaterial",
      "primitives": [
        {
          "attributes": {
            "NORMAL": 6,
            "POSITION": 5,
            "TANGENT": 7,
            "TEXCOORD_0": 8
          },
          "indices": 9,
          "material": 0,
          "mode": 4
        }
      ]
    }
  ],
  "nodes": [
    {
      "children": [
        1
      ],
      "matrix": [
        0.9798563122749329,
        -0.19970369338989258,
        -4.4343127700828284e-17,
        0.0,
        0.0,
        2.220446049250313e-16,
        -1.0,
        0.0,
        0.19970369338989258,
        0.9798563122749329,
        2.1757180774238557e-16,
        0.0,
        0.0,
        0.0,
        0.0,
        1.0
      ],
      "name": "Sketchfab_model"
    },
    {
      "children": [
        2,
        4
      ],
      "matrix": [
        1.0,
        0.0,
        0.0,
        0.0,
        0.0,
        -4.371139006309477e-08,
        0.999999999999999,
        0.0,
        0.0,
        -0.999999999999999,
        -4.371139006309477e-08,
        0.0,
        0.0,
        0.0,
        0.0,
        1.0
      ],
      "name": "Collada visual scene group"
    },
    {
      "children": [
        3
      ],
      "matrix": [
        1.0,
        0.0,
        0.0,
        0.0,
        0.0,
        1.0,
        0.0,
        0.0,
        0.0,
        0.0,
        1.0,
        0.0,
        0.0,
        0.0,
        236.54158,
        1.0
      ],
      "name": "pip2.001"
    },
    {
      "mesh": 0,
      "name": "defaultMaterial"
    },
    {
      "children": [
        5
      ],
      "name": "pip.001"
    },
    {
      "mesh": 1,
      "name": "defaultMaterial"
    }
  ],
  "samplers": [
    {
      "magFilter": 9729,
      "minFilter": 9987,
      "wrapS": 10497,
      "wrapT": 10497
    }
  ],
  "scene": 0,
  "scenes": [
    {
      "name": "Sketchfab_Scene",
      "nodes": [
        0
      ]
    }
  ],
  "textures": [
    {
      "sampler": 0,
      "source": 0
    },
    {
      "sampler": 0,
      "source": 1
    },
    {
      "sampler": 0,
      "source": 2
    }
  ]
}
