{
  "accessors": [
    {
      "bufferView": 3,
      "componentType": 5126,
      "count": 65532,
      "max": [
        1.8489367961883545,
        0.3293916583061218,
        0.160797119140625
      ],
      "min": [
        -2.3248836994171143,
        -0.29524874687194824,
        -0.15546923875808716
      ],
      "type": "VEC3"
    },
    {
      "bufferView": 3,
      "byteOffset": 786384,
      "componentType": 5126,
      "count": 65532,
      "max": [
        1.0,
        1.0,
        1.0
      ],
      "min": [
        -1.0,
        -1.0,
        -1.0
      ],
      "type": "VEC3"
    },
    {
      "bufferView": 4,
      "componentType": 5126,
      "count": 65532,
      "max": [
        1.0,
        0.9999999403953552,
        0.9999958276748657,
        1.0
      ],
      "min": [
        -1.0,
        -0.9999998807907104,
        -0.9999905824661255,
        1.0
      ],
      "type": "VEC4"
    },
    {
      "bufferView": 2,
      "componentType": 5126,
      "count": 65532,
      "max": [
        0.8456758260726929,
        0.8463733196258545
      ],
      "min": [
        0.0,
        0.0
      ],
      "type": "VEC2"
    },
    {
      "bufferView": 2,
      "byteOffset": 524256,
      "componentType": 5126,
      "count": 65532,
      "max": [
        0.8456758260726929,
        0.8463733196258545
      ],
      "min": [
        0.0,
        0.0
      ],
      "type": "VEC2"
    },
    {
      "bufferView": 2,
      "byteOffset": 1048512,
      "componentType": 5126,
      "count": 65532,
      "max": [
        0.8456758260726929,
        0.8463733196258545
      ],
      "min": [
        0.0,
        0.0
      ],
      "type": "VEC2"
    },
    {
      "bufferView": 2,
      "byteOffset": 1572768,
      "componentType": 5126,
      "count": 65532,
      "max": [
        0.8456758260726929,
        0.8463733196258545
      ],
      "min": [
        0.0,
        0.0
      ],
      "type": "VEC2"
    },
    {
      "bufferView": 1,
      "componentType": 5125,
      "count": 344802,
      "type": "SCALAR"
    },
    {
      "bufferView": 3,
      "byteOffset": 1572768,
      "componentType": 5126,
      "count": 23680,
      "max": [
        1.8486225605010986,
        0.326724648475647,
        0.16100680828094482
      ],
      "min": [
        -2.449695110321045,
        -0.2935667634010315,
        -0.13535776734352112
      ],
      "type": "VEC3"
    },
    {
      "bufferView": 3,
      "byteOffset": 1856928,
      "componentType": 5126,
      "count": 23680,
      "max": [
        0.9999990463256836,
        1.0,
        1.0
      ],
      "min": [
        -1.0,
        -1.0,
        -1.0
      ],
      "type": "VEC3"
    },
    {
      "bufferView": 4,
      "byteOffset": 1048512,
      "componentType": 5126,
      "count": 23680,
      "max": [
        1.0,
        0.9999995827674866,
        0.9999901056289673,
        1.0
      ],
      "min": [
        -1.0,
        -0.9999998807907104,
        -0.9999883770942688,
        1.0
      ],
      "type": "VEC4"
    },
    {
      "bufferView": 2,
      "byteOffset": 2097024,
      "componentType": 5126,
      "count": 23680,
      "max": [
        0.8397226333618164,
        1.0
      ],
      "min": [
        2.742900869634468e-05,
        0.0
      ],
      "type": "VEC2"
    },
    {
      "bufferView": 2,
      "byteOffset": 2286464,
      "componentType": 5126,
      "count": 23680,
      "max": [
        0.8397226333618164,
        1.0
      ],
      "min": [
        2.742900869634468e-05,
        0.0
      ],
      "type": "VEC2"
    },
    {
      "bufferView": 2,
      "byteOffset": 2475904,
      "componentType": 5126,
      "count": 23680,
      "max": [
        0.8397226333618164,
        1.0
      ],
      "min": [
        2.742900869634468e-05,
        0.0
      ],
      "type": "VEC2"
    },
    {
      "bufferView": 2,
      "byteOffset": 2665344,
      "componentType": 5126,
      "count": 23680,
      "max": [
        0.8397226333618164,
        1.0
      ],
      "min": [
        2.742900869634468e-05,
        0.0
      ],
      "type": "VEC2"
    },
    {
      "bufferView": 1,
      "byteOffset": 1379208,
      "componentType": 5125,
      "count": 103419,
      "type": "SCALAR"
    },
    {
      "bufferView": 3,
      "byteOffset": 2141088,
      "componentType": 5126,
      "count": 29320,
      "max": [
        0.4497871994972229,
        0.26492857933044434,
        0.3065837621688843
      ],
      "min": [
        -0.6766378879547119,
        -0.1926257312297821,
        -0.16512686014175415
      ],
      "type": "VEC3"
    },
    {
      "bufferView": 3,
      "byteOffset": 2492928,
      "componentType": 5126,
      "count": 29320,
      "max": [
        1.0,
        1.0,
        1.0
      ],
      "min": [
        -1.0,
        -1.0,
        -1.0
      ],
      "type": "VEC3"
    },
    {
      "bufferView": 4,
      "byteOffset": 1427392,
      "componentType": 5126,
      "count": 29320,
      "max": [
        1.0,
        1.0,
        1.0,
        1.0
      ],
      "min": [
        -1.0,
        -1.0,
        -1.0,
        1.0
      ],
      "type": "VEC4"
    },
    {
      "bufferView": 2,
      "byteOffset": 2854784,
      "componentType": 5126,
      "count": 29320,
      "max": [
        1.0,
        0.9994080662727356
      ],
      "min": [
        0.0,
        0.0
      ],
      "type": "VEC2"
    },
    {
      "bufferView": 2,
      "byteOffset": 3089344,
      "componentType": 5126,
      "count": 29320,
      "max": [
        1.0,
        0.9994080662727356
      ],
      "min": [
        0.0,
        0.0
      ],
      "type": "VEC2"
    },
    {
      "bufferView": 2,
      "byteOffset": 3323904,
      "componentType": 5126,
      "count": 29320,
      "max": [
        1.0,
        0.9994080662727356
      ],
      "min": [
        0.0,
        0.0
      ],
      "type": "VEC2"
    },
    {
      "bufferView": 2,
      "byteOffset": 3558464,
      "componentType": 5126,
      "count": 29320,
      "max": [
        1.0,
        0.9994080662727356
      ],
      "min": [
        0.0,
        0.0
      ],
      "type": "VEC2"
    },
    {
      "bufferView": 1,
      "byteOffset": 1792884,
      "componentType": 5125,
      "count": 115884,
      "type": "SCALAR"
    },
    {
      "bufferView": 3,
      "byteOffset": 2844768,
      "componentType": 5126,
      "count": 65532,
      "max": [
        0.7074241042137146,
        4.066781520843506,
        0.6595615744590759
      ],
      "min": [
        -0.7005153298377991,
        -0.038816213607788086,
        -0.5035243630409241
      ],
      "type": "VEC3"
    },
    {
      "bufferView": 3,
      "byteOffset": 3631152,
      "componentType": 5126,
      "count": 65532,
      "max": [
        1.0,
        1.0,
        1.0
      ],
      "min": [
        -1.0,
        -1.0,
        -1.0
      ],
      "type": "VEC3"
    },
    {
      "bufferView": 4,
      "byteOffset": 1896512,
      "componentType": 5126,
      "count": 65532,
      "max": [
        1.0,
        1.0,
        1.0,
        1.0
      ],
      "min": [
        -1.0,
        -1.0,
        -1.0,
        -1.0
      ],
      "type": "VEC4"
    },
    {
      "bufferView": 2,
      "byteOffset": 3793024,
      "componentType": 5126,
      "count": 65532,
      "max": [
        0.9932901263237,
        0.9947026371955872
      ],
      "min": [
        0.008383450098335743,
        0.009886888787150383
      ],
      "type": "VEC2"
    },
    {
      "bufferView": 2,
      "byteOffset": 4317280,
      "componentType": 5126,
      "count": 65532,
      "max": [
        0.9932901263237,
        0.9947026371955872
      ],
      "min": [
        0.008383450098335743,
        0.009886888787150383
      ],
      "type": "VEC2"
    },
    {
      "bufferView": 2,
      "byteOffset": 4841536,
      "componentType": 5126,
      "count": 65532,
      "max": [
        0.9932901263237,
        0.9947026371955872
      ],
      "min": [
        0.008383450098335743,
        0.009886888787150383
      ],
      "type": "VEC2"
    },
    {
      "bufferView": 2,
      "byteOffset": 5365792,
      "componentType": 5126,
      "count": 65532,
      "max": [
        1.0,
        1.0
      ],
      "min": [
        0.0,
        0.0
      ],
      "type": "VEC2"
    },
    {
      "bufferView": 2,
      "byteOffset": 5890048,
      "componentType": 5126,
      "count": 65532,
      "max": [
        0.9932901263237,
        0.9947026371955872
      ],
      "min": [
        0.008383450098335743,
        0.009886888787150383
      ],
      "type": "VEC2"
    },
    {
      "bufferView": 1,
      "byteOffset": 2256420,
      "componentType": 5125,
      "count": 281466,
      "type": "SCALAR"
    },
    {
      "bufferView": 3,
      "byteOffset": 4417536,
      "componentType": 5126,
      "count": 34329,
      "max": [
        0.5050457715988159,
        2.8357458114624023,
        0.26735687255859375
      ],
      "min": [
        -0.7005153298377991,
        1.2946128845214844,
        -0.16129866242408752
      ],
      "type": "VEC3"
    },
    {
      "bufferView": 3,
      "byteOffset": 4829484,
      "componentType": 5126,
      "count": 34329,
      "max": [
        1.0,
        1.0,
        1.0
      ],
      "min": [
        -1.0,
        -1.0,
        -1.0
      ],
      "type": "VEC3"
    },
    {
      "bufferView": 4,
      "byteOffset": 2945024,
      "componentType": 5126,
      "count": 34329,
      "max": [
        1.0,
        1.0,
        1.0,
        1.0
      ],
      "min": [
        -1.0,
        -1.0,
        -1.0,
        -1.0
      ],
      "type": "VEC4"
    },
    {
      "bufferView": 2,
      "byteOffset": 6414304,
      "componentType": 5126,
      "count": 34329,
      "max": [
        0.9923019409179688,
        0.9946801066398621
      ],
      "min": [
        0.008383450098335743,
        0.009886888787150383
      ],
      "type": "VEC2"
    },
    {
      "bufferView": 2,
      "byteOffset": 6688936,
      "componentType": 5126,
      "count": 34329,
      "max": [
        0.9923019409179688,
        0.9946801066398621
      ],
      "min": [
        0.008383450098335743,
        0.009886888787150383
      ],
      "type": "VEC2"
    },
    {
      "bufferView": 2,
      "byteOffset": 6963568,
      "componentType": 5126,
      "count": 34329,
      "max": [
        0.9923019409179688,
        0.9946801066398621
      ],
      "min": [
        0.008383450098335743,
        0.009886888787150383
      ],
      "type": "VEC2"
    },
    {
      "bufferView": 2,
      "byteOffset": 7238200,
      "componentType": 5126,
      "count": 34329,
      "max": [
        0.0,
        0.0
      ],
      "min": [
        0.0,
        0.0
      ],
      "type": "VEC2"
    },
    {
      "bufferView": 2,
      "byteOffset": 7512832,
      "componentType": 5126,
      "count": 34329,
      "max": [
        0.9923019409179688,
        0.9946801066398621
      ],
      "min": [
        0.008383450098335743,
        0.009886888787150383
      ],
      "type": "VEC2"
    },
    {
      "bufferView": 1,
      "byteOffset": 3382284,
      "componentType": 5125,
      "count": 153450,
      "type": "SCALAR"
    },
    {
      "bufferView": 5,
      "componentType": 5126,
      "count": 34,
      "max": [
        1.0,
        0.5550524592399597,
        0.02901040017604828,
        0.0,
        0.555046558380127,
        1.0,
        0.22605347633361816,
        0.0,
        0.031001988798379898,
        1.000000238418579,
        1.0,
        0.0,
        1.3193495273590088,
        2.382187604904175,
        3.2487900257110596,
        1.0
      ],
      "min": [
        0.8317751884460449,
        -0.5550522804260254,
        -0.029010534286499023,
        0.0,
        -0.5550467371940613,
        -0.9999998807907104,
        -0.9999953508377075,
        0.0,
        -0.03100198321044445,
        -0.22602838277816772,
        -0.9999977946281433,
        0.0,
        -1.3241387605667114,
        -2.7122950553894043,
        -0.679021418094635,
        1.0
      ],
      "type": "MAT4"
    },
    {
      "bufferView": 0,
      "componentType": 5123,
      "count": 65532,
      "type": "VEC4"
    },
    {
      "bufferView": 4,
      "byteOffset": 3494288,
      "componentType": 5126,
      "count": 65532,
      "max": [
        1.0,
        0.0,
        0.0,
        0.0
      ],
      "min": [
        1.0,
        0.0,
        0.0,
        0.0
      ],
      "type": "VEC4"
    },
    {
      "bufferView": 0,
      "byteOffset": 524256,
      "componentType": 5123,
      "count": 34329,
      "type": "VEC4"
    },
    {
      "bufferView": 4,
      "byteOffset": 4542800,
      "componentType": 5126,
      "count": 34329,
      "max": [
        1.0,
        0.0,
        0.0,
        0.0
      ],
      "min": [
        1.0,
        0.0,
        0.0,
        0.0
      ],
      "type": "VEC4"
    }
  ],
  "asset": {
    "extras": {
      "author": "IagoMendez (https://sketchfab.com/IagoMendez)",
      "license": "CC-BY-4.0 (http://creativecommons.org/licenses/by/4.0/)",
      "source": "https://sketchfab.com/3d-models/pit-droid-4c2c226c7ce041d6885aec4e8538f2cf",
      "title": "Pit Droid"
    },
    "generator": "Sketchfab-15.30.0",
    "version": "2.0"
  },
  "bufferViews": [
    {
      "buffer": 0,
      "byteLength": 798888,
      "byteStride": 8,
      "name": "shortBufferViews",
      "target": 34962
    },
    {
      "buffer": 0,
      "byteLength": 3996084,
      "byteOffset": 798888,
      "name": "floatBufferViews",
      "target": 34963
    },
    {
      "buffer": 0,
      "byteLength": 7787464,
      "byteOffset": 4794972,
      "byteStride": 8,
      "name": "floatBufferViews",
      "target": 34962
    },
    {
      "buffer": 0,
      "byteLength": 5241432,
      "byteOffset": 12582436,
      "byteStride": 12,
      "name": "floatBufferViews",
      "target": 34962
    },
    {
      "buffer": 0,
      "byteLength": 5092064,
      "byteOffset": 17823868,
      "byteStride": 16,
      "name": "floatBufferViews",
      "target": 34962
    },
    {
      "buffer": 0,
      "byteLength": 2176,
      "byteOffset": 22915932,
      "name": "floatBufferViews"
    }
  ],
  "buffers": [
    {
      "byteLength": 22918108,
      "uri": "scene.bin"
    }
  ],
  "images": [
    {
      "uri": "textures/llave_baseColor.png"
    },
    {
      "uri": "textures/llave_metallicRoughness.png"
    },
    {
      "uri": "textures/llave_normal.jpeg"
    },
    {
      "uri": "textures/metal.036_baseColor.jpeg"
    },
    {
      "uri": "textures/metal.036_metallicRoughness.png"
    },
    {
      "uri": "textures/metal.036_normal.jpeg"
    },
    {
      "uri": "textures/Pitdroid_1tile_baseColor.jpeg"
    },
    {
      "uri": "textures/Pitdroid_1tile_metallicRoughness.png"
    },
    {
      "uri": "textures/Pitdroid_1tile_normal.jpeg"
    }
  ],
  "materials": [
    {
      "alphaCutoff": 1.0,
      "alphaMode": "MASK",
      "doubleSided": true,
      "name": "llave",
      "normalTexture": {
        "index": 2,
        "texCoord": 2
      },
      "pbrMetallicRoughness": {
        "baseColorTexture": {
          "index": 0
        },
        "metallicRoughnessTexture": {
          "index": 1,
          "texCoord": 1
        }
      }
    },
    {
      "doubleSided": true,
      "name": "metal.036",
      "normalTexture": {
        "index": 5
      },
      "pbrMetallicRoughness": {
        "baseColorTexture": {
          "index": 3
        },
        "metallicRoughnessTexture": {
          "index": 4
        }
      }
    },
    {
      "doubleSided": true,
      "name": "Pitdroid_1tile",
      "normalTexture": {
        "index": 8,
        "texCoord": 2
      },
      "pbrMetallicRoughness": {
        "baseColorTexture": {
          "index": 6
        },
        "metallicRoughnessTexture": {
          "index": 7,
          "texCoord": 1
        }
      }
    }
  ],
  "meshes": [
    {
      "name": "Object_0",
      "primitives": [
        {
          "attributes": {
            "NORMAL": 1,
            "POSITION": 0,
            "TANGENT": 2,
            "TEXCOORD_0": 3,
            "TEXCOORD_1": 4,
            "TEXCOORD_2": 5,
            "TEXCOORD_3": 6
          },
          "indices": 7,
          "material": 0,
          "mode": 4
        }
      ]
    },
    {
      "name": "Object_1",
      "primitives": [
        {
          "attributes": {
            "NORMAL": 9,
            "POSITION": 8,
            "TANGENT": 10,
            "TEXCOORD_0": 11,
            "TEXCOORD_1": 12,
            "TEXCOORD_2": 13,
            "TEXCOORD_3": 14
          },
          "indices": 15,
          "material": 0,
          "mode": 4
        }
      ]
    },
    {
      "name": "Object_2",
      "primitives": [
        {
          "attributes": {
            "NORMAL": 17,
            "POSITION": 16,
            "TANGENT": 18,
            "TEXCOORD_0": 19,
            "TEXCOORD_1": 20,
            "TEXCOORD_2": 21,
            "TEXCOORD_3": 22
          },
          "indices": 23,
          "material": 1,
          "mode": 4
        }
      ]
    },
    {
      "name": "Object_3",
      "primitives": [
        {
          "attributes": {
            "JOINTS_0": 43,
            "NORMAL": 25,
            "POSITION": 24,
            "TANGENT": 26,
            "TEXCOORD_0": 27,
            "TEXCOORD_1": 28,
            "TEXCOORD_2": 29,
            "TEXCOORD_3": 30,
            "TEXCOORD_4": 31,
            "WEIGHTS_0": 44
          },
          "indices": 32,
          "material": 2,
          "mode": 4
        }
      ]
    },
    {
      "name": "Object_4",
      "primitives": [
        {
          "attributes": {
            "JOINTS_0": 45,
            "NORMAL": 34,
            "POSITION": 33,
            "TANGENT": 35,
            "TEXCOORD_0": 36,
            "TEXCOORD_1": 37,
            "TEXCOORD_2": 38,
            "TEXCOORD_3": 39,
            "TEXCOORD_4": 40,
            "WEIGHTS_0": 46
          },
          "indices": 41,
          "material": 2,
          "mode": 4
        }
      ]
    }
  ],
  "nodes": [
    {
      "children": [
        1
      ],
      "matrix": [
        1.0,
        0.0,
        0.0,
        0.0,
        0.0,
        2.220446049250313e-16,
        -1.0,
        0.0,
        0.0,
        1.0,
        2.220446049250313e-16,
        0.0,
        0.0,
        0.0,
        0.0,
        1.0
      ],
      "name": "Sketchfab_model"
    },
    {
      "children": [
        2
      ],
      "name": "root"
    },
    {
      "children": [
        3,
        6,
        8
      ],
      "matrix": [
        1.0,
        0.0,
        0.0,
        0.0,
        0.0,
        2.220446049250313e-16,
        1.0,
        0.0,
        0.0,
        -1.0,
        2.220446049250313e-16,
        0.0,
        0.0,
        0.0,
        0.0,
        1.0
      ],
      "name": "GLTF_SceneRootNode"
    },
    {
      "children": [
        4,
        5
      ],
      "matrix": [
        5.957175675501373e-08,
        0.3533582985401093,
        -2.667781067627591e-08,
        0.0,
        0.3533582985401093,
        -5.957175463655853e-08,
        2.6677815173818943e-08,
        0.0,
        2.667781067627591e-08,
        -2.6677815173818943e-08,
        -0.35335829854011325,
        0.0,
        1.528808832168579,
        1.5895947217941284,
        0.3633178472518921,
        1.0
      ],
      "name": "llave_0"
    },
    {
      "mesh": 0,
      "name": "Object_4"
    },
    {
      "mesh": 1,
      "name": "Object_5"
    },
    {
      "children": [
        7
      ],
      "matrix": [
        7.324531185758437e-08,
        0.4344649314880309,
        0.0,
        0.0,
        -0.4344649314880309,
        7.324531185758437e-08,
        0.0,
        0.0,
        0.0,
        0.0,
        0.4344649314880371,
        0.0,
        1.2744969129562378,
        1.3107924461364746,
        0.35090357065200806,
        1.0
      ],
      "name": "pieza_1"
    },
    {
      "mesh": 2,
      "name": "Object_7"
    },
    {
      "children": [
        9
      ],
      "matrix": [
        1.0,
        0.0,
        0.0,
        0.0,
        0.0,
        1.0,
        0.0,
        0.0,
        0.0,
        0.0,
        1.0,
        0.0,
        0.0028791273944079876,
        2.028352975845337,
        -0.023536844179034233,
        1.0
      ],
      "name": "Esqueleto_36"
    },
    {
      "children": [
        10,
        12,
        13,
        11
      ],
      "name": "GLTF_created_0"
    },
    {
      "children": [
        14
      ],
      "name": "GLTF_created_0_rootJoint"
    },
    {
      "name": "Cilindro.001_35"
    },
    {
      "mesh": 3,
      "name": "Object_12",
      "skin": 0
    },
    {
      "mesh": 4,
      "name": "Object_13",
      "skin": 0
    },
    {
      "children": [
        15
      ],
      "name": "Root_34",
      "rotation": [
        0.70679771900177,
        -0.002754814922809601,
        -0.0013762604212388396,
        0.7074090838432312
      ],
      "scale": [
        1.0,
        0.9999998211860657,
        1.0
      ],
      "translation": [
        0.0,
        -2.0308313369750977,
        0.0
      ]
    },
    {
      "children": [
        16,
        35,
        41
      ],
      "name": "Hip_33",
      "rotation": [
        0.7071002721786499,
        1.5360524230345618e-07,
        -0.0027548118960112333,
        0.7071079611778259
      ],
      "scale": [
        1.0,
        0.9999999403953552,
        1.0
      ],
      "translation": [
        -0.01186287309974432,
        0.00176745664793998,
        -2.0307958126068115
      ]
    },
    {
      "children": [
        17,
        19,
        27
      ],
      "name": "Bone_20",
      "rotation": [
        -0.9988886713981628,
        -3.545696381479502e-05,
        0.001980273984372616,
        0.047090187668800354
      ],
      "scale": [
        1.0,
        0.9999999403953552,
        1.0000194311141968
      ],
      "translation": [
        1.4260876923799515e-09,
        -1.0430811414607888e-07,
        -4.07451017370164e-10
      ]
    },
    {
      "children": [
        18
      ],
      "name": "Bone.008_3",
      "rotation": [
        -0.15998701751232147,
        0.002729482017457485,
        0.003924859222024679,
        0.9871075749397278
      ],
      "scale": [
        1.0,
        1.0,
        0.9999998211860657
      ],
      "translation": [
        -2.9101790421925955e-10,
        0.7706472873687744,
        1.0653200099852711e-08
      ]
    },
    {
      "name": "Bone.009_2",
      "rotation": [
        0.7829471230506897,
        6.736996738254675e-09,
        0.003189868526533246,
        0.6220800876617432
      ],
      "translation": [
        -1.3387573272183317e-09,
        0.4653872847557068,
        -1.9277072382806182e-08
      ]
    },
    {
      "children": [
        20
      ],
      "name": "Bone.010.L_11",
      "rotation": [
        0.9783689975738525,
        0.20119580626487732,
        -0.009026477113366127,
        0.04725377634167671
      ],
      "scale": [
        1.0000005960464478,
        0.9999999403953552,
        0.9999998807907104
      ],
      "translation": [
        0.2001698613166809,
        0.6478353142738342,
        -0.02125588245689869
      ]
    },
    {
      "children": [
        21,
        23,
        25
      ],
      "name": "Bone.011.L_10",
      "rotation": [
        0.003028449835255742,
        -0.002243232913315296,
        0.10493027418851852,
        0.9944724440574646
      ],
      "scale": [
        1.0,
        1.0,
        0.9999998807907104
      ],
      "translation": [
        4.5808679072223413e-10,
        0.6329940557479858,
        -2.4737196735458156e-09
      ]
    },
    {
      "children": [
        22
      ],
      "name": "Bone.012.L_5",
      "rotation": [
        -0.05318267270922661,
        -0.005609467625617981,
        0.23001743853092194,
        0.9717161059379578
      ],
      "scale": [
        0.9999999403953552,
        1.0,
        1.0
      ],
      "translation": [
        -0.028223831206560135,
        0.6213053464889526,
        2.8233216653461568e-05
      ]
    },
    {
      "name": "Bone.013.L_4",
      "rotation": [
        0.05264085531234741,
        -6.872448921058094e-07,
        -0.13386023044586182,
        0.9896011352539063
      ],
      "scale": [
        0.9999999403953552,
        1.0,
        0.9999999403953552
      ],
      "translation": [
        -3.3737578064574336e-08,
        0.07809123396873474,
        3.395419723162263e-09
      ]
    },
    {
      "children": [
        24
      ],
      "name": "Bone.014.L_7",
      "rotation": [
        -0.0011269365204498172,
        -0.0033873061183840036,
        -0.19636952877044678,
        0.9805234670639038
      ],
      "scale": [
        0.9999999403953552,
        1.0,
        0.9999999403953552
      ],
      "translation": [
        0.02682417631149292,
        0.6207740902900696,
        -0.03279560059309006
      ]
    },
    {
      "name": "Bone.015.L_6",
      "rotation": [
        -0.002240123925730586,
        0.019721917808055878,
        0.11376939713954926,
        0.9933089017868042
      ],
      "scale": [
        1.0,
        1.0,
        0.9999999403953552
      ],
      "translation": [
        6.897935378447073e-08,
        0.09151346981525421,
        -1.39691227474259e-08
      ]
    },
    {
      "children": [
        26
      ],
      "name": "Bone.016.L_9",
      "rotation": [
        -0.0011269367532804608,
        -0.00338730588555336,
        -0.19636957347393036,
        0.9805234670639038
      ],
      "scale": [
        0.9999999403953552,
        1.0,
        0.9999999403953552
      ],
      "translation": [
        0.026991138234734535,
        0.6209193468093872,
        0.03778038173913956
      ]
    },
    {
      "name": "Bone.017.L_8",
      "rotation": [
        -0.002240123227238655,
        0.019721917808055878,
        0.11376941204071045,
        0.9933089017868042
      ],
      "scale": [
        0.9999999403953552,
        0.9999998807907104,
        0.9999998807907104
      ],
      "translation": [
        6.02890324330474e-08,
        0.09151356667280197,
        -2.831347600817935e-09
      ]
    },
    {
      "children": [
        28
      ],
      "name": "Bone.010.R_19",
      "rotation": [
        0.9787881970405579,
        -0.1991281658411026,
        0.006966092623770237,
        0.04767858237028122
      ],
      "scale": [
        1.000000238418579,
        0.9999999403953552,
        0.9999999403953552
      ],
      "translation": [
        -0.20285913348197937,
        0.6470268964767456,
        -0.02036818116903305
      ]
    },
    {
      "children": [
        29,
        31,
        33
      ],
      "name": "Bone.011.R_18",
      "rotation": [
        0.003028423525393009,
        0.0022433758713304996,
        -0.10493023693561554,
        0.9944724440574646
      ],
      "scale": [
        1.0,
        0.9999999403953552,
        0.9999999403953552
      ],
      "translation": [
        -4.5396827630383996e-08,
        0.6329939961433411,
        1.1449173553668146e-10
      ]
    },
    {
      "children": [
        30
      ],
      "name": "Bone.012.R_13",
      "rotation": [
        -0.0531826913356781,
        0.005609475541859865,
        -0.2300174981355667,
        0.9717161655426025
      ],
      "translation": [
        0.028223808854818344,
        0.6213053464889526,
        2.8227183065610006e-05
      ]
    },
    {
      "name": "Bone.013.R_12",
      "rotation": [
        0.05264085531234741,
        6.832452186245064e-07,
        0.133860245347023,
        0.9896011352539063
      ],
      "scale": [
        0.9999998211860657,
        1.0,
        0.9999998211860657
      ],
      "translation": [
        2.7539359681583164e-09,
        0.0780913457274437,
        1.565905094480513e-08
      ]
    },
    {
      "children": [
        32
      ],
      "name": "Bone.014.R_15",
      "rotation": [
        -0.001126896240748465,
        0.0033873121719807386,
        0.19636952877044678,
        0.9805234670639038
      ],
      "scale": [
        0.9999998807907104,
        0.9999998807907104,
        0.9999999403953552
      ],
      "translation": [
        -0.026824206113815308,
        0.6207741498947144,
        -0.03279560059309006
      ]
    },
    {
      "name": "Bone.015.R_14",
      "rotation": [
        -0.0022401525638997555,
        -0.019721919670701027,
        -0.11376945674419403,
        0.9933089017868042
      ],
      "scale": [
        1.0000001192092896,
        1.0,
        1.0
      ],
      "translation": [
        -5.5481446992189376e-08,
        0.09151366353034973,
        1.827480722305097e-09
      ]
    },
    {
      "children": [
        34
      ],
      "name": "Bone.016.R_17",
      "rotation": [
        -0.0011268964735791087,
        0.003387311939150095,
        0.19636955857276917,
        0.9805234670639038
      ],
      "scale": [
        1.0,
        1.0,
        0.9999999403953552
      ],
      "translation": [
        -0.0269911028444767,
        0.6209195256233215,
        0.03778037801384926
      ]
    },
    {
      "name": "Bone.017.R_16",
      "rotation": [
        -0.00224015349522233,
        -0.019721919670701027,
        -0.11376944184303284,
        0.9933089017868042
      ],
      "scale": [
        1.0000001192092896,
        1.0000001192092896,
        0.9999999403953552
      ],
      "translation": [
        4.1613979817611835e-08,
        0.09151363372802734,
        3.5096823225444496e-09
      ]
    },
    {
      "children": [
        36
      ],
      "name": "Thigh.L_26",
      "rotation": [
        -0.016218209639191628,
        0.0024913358502089977,
        -0.003414785722270608,
        0.9998595714569092
      ],
      "scale": [
        0.9999999403953552,
        1.0000001192092896,
        0.9999999403953552
      ],
      "translation": [
        0.2485244870185852,
        0.2392144650220871,
        -0.0004843093338422477
      ]
    },
    {
      "children": [
        37
      ],
      "name": "Shin.L_25",
      "rotation": [
        0.028453903272747993,
        2.8734139050357044e-05,
        0.002518119290471077,
        0.9995920062065125
      ],
      "scale": [
        1.0000001192092896,
        1.0000001192092896,
        1.0
      ],
      "translation": [
        2.124541786940881e-08,
        0.7617347240447998,
        -1.510840452745299e-09
      ]
    },
    {
      "children": [
        38
      ],
      "name": "Bone.004.L_24",
      "rotation": [
        -0.01180923543870449,
        -1.2423878615663853e-05,
        -0.0010863069910556078,
        0.999929666519165
      ],
      "scale": [
        0.9999998807907104,
        0.9999998807907104,
        0.9999998807907104
      ],
      "translation": [
        1.1804595523301487e-08,
        0.8362978100776672,
        -3.6884608700660237e-09
      ]
    },
    {
      "children": [
        39,
        40
      ],
      "name": "Foot.L_23",
      "rotation": [
        -0.6872522234916687,
        -1.4968270534154726e-07,
        -0.002062291605398059,
        0.7264159917831421
      ],
      "scale": [
        0.9999998807907104,
        0.9999999403953552,
        1.0
      ],
      "translation": [
        0.0031657246872782707,
        0.12311568111181259,
        0.12284716218709946
      ]
    },
    {
      "name": "Toe1.L_21",
      "rotation": [
        -0.02769075520336628,
        -7.551975045316794e-08,
        -8.308982796734199e-05,
        0.9996165633201599
      ],
      "scale": [
        1.0,
        0.9999998807907104,
        0.9999999403953552
      ],
      "translation": [
        0.05265307426452637,
        0.34246593713760376,
        0.057759858667850494
      ]
    },
    {
      "name": "Toe2.L_22",
      "rotation": [
        -0.02769075520336628,
        -7.551975045316794e-08,
        -8.308982796734199e-05,
        0.9996165633201599
      ],
      "scale": [
        1.0,
        0.9999998807907104,
        0.9999999403953552
      ],
      "translation": [
        -0.05571813881397247,
        0.34246593713760376,
        0.057434674352407455
      ]
    },
    {
      "children": [
        42
      ],
      "name": "Thigh.R_32",
      "rotation": [
        -0.016216345131397247,
        -0.0005113348597660661,
        0.0014996151439845562,
        0.9998672604560852
      ],
      "scale": [
        0.9999999403953552,
        1.0,
        0.9999999403953552
      ],
      "translation": [
        -0.24759112298488617,
        0.2401803731918335,
        0.0004824689822271466
      ]
    },
    {
      "children": [
        43
      ],
      "name": "Shin.R_31",
      "rotation": [
        0.02845389023423195,
        -2.873388621082995e-05,
        -0.0025180757511407137,
        0.9995919466018677
      ],
      "scale": [
        1.0,
        1.0,
        0.9999999403953552
      ],
      "translation": [
        1.2266516691283869e-08,
        0.7617347836494446,
        2.1476511680162957e-09
      ]
    },
    {
      "children": [
        44
      ],
      "name": "Bone.004.R_30",
      "rotation": [
        -0.01180923543870449,
        2.0533275080225621e-10,
        3.543918501236476e-05,
        0.9999302625656128
      ],
      "translation": [
        -1.1270458344370127e-08,
        0.8362979292869568,
        -4.3655745685100555e-09
      ]
    },
    {
      "children": [
        45,
        46
      ],
      "name": "Foot.R_29",
      "rotation": [
        -0.6872521638870239,
        1.5000321695879393e-07,
        0.002062290906906128,
        0.7264160513877869
      ],
      "scale": [
        1.0,
        1.0,
        1.0000001192092896
      ],
      "translation": [
        0.0003686370328068733,
        0.12010488659143448,
        0.12283656746149063
      ]
    },
    {
      "name": "Toe1.R_27",
      "rotation": [
        -0.027690773829817772,
        7.57591536171276e-08,
        8.308982796734199e-05,
        0.9996165633201599
      ],
      "scale": [
        1.0,
        0.9999998807907104,
        0.9999999403953552
      ],
      "translation": [
        -0.05617842078208923,
        0.34263262152671814,
        0.06077663600444794
      ]
    },
    {
      "name": "Toe2.R_28",
      "rotation": [
        -0.027690773829817772,
        7.57591536171276e-08,
        8.308982796734199e-05,
        0.9996165633201599
      ],
      "scale": [
        1.0,
        0.9999998807907104,
        0.9999999403953552
      ],
      "translation": [
        0.05219285190105438,
        0.34263262152671814,
        0.06045147031545639
      ]
    }
  ],
  "samplers": [
    {
      "magFilter": 9729,
      "minFilter": 9987,
      "wrapS": 10497,
      "wrapT": 10497
    }
  ],
  "scene": 0,
  "scenes": [
    {
      "name": "Sketchfab_Scene",
      "nodes": [
        0
      ]
    }
  ],
  "skins": [
    {
      "inverseBindMatrices": 42,
      "joints": [
        10,
        14,
        15,
        16,
        17,
        18,
        19,
        20,
        21,
        22,
        23,
        24,
        25,
        26,
        27,
        28,
        29,
        30,
        31,
        32,
        33,
        34,
        35,
        36,
        37,
        38,
        39,
        40,
        41,
        42,
        43,
        44,
        45,
        46
      ],
      "skeleton": 10
    }
  ],
  "textures": [
    {
      "sampler": 0,
      "source": 0
    },
    {
      "sampler": 0,
      "source": 1
    },
    {
      "sampler": 0,
      "source": 2
    },
    {
      "sampler": 0,
      "source": 3
    },
    {
      "sampler": 0,
      "source": 4
    },
    {
      "sampler": 0,
      "source": 5
    },
    {
      "sampler": 0,
      "source": 6
    },
    {
      "sampler": 0,
      "source": 7
    },
    {
      "sampler": 0,
      "source": 8
    }
  ]
}
