{
  "accessors": [
    {
      "bufferView": 2,
      "componentType": 5126,
      "count": 998,
      "max": [
        0.07737000286579132,
        0.07737000286579132,
        0.07164999842643738
      ],
      "min": [
        -0.07737000286579132,
        -0.07737000286579132,
        -0.07164999842643738
      ],
      "type": "VEC3"
    },
    {
      "bufferView": 2,
      "byteOffset": 11976,
      "componentType": 5126,
      "count": 998,
      "max": [
        1.0,
        1.0,
        1.0
      ],
      "min": [
        -1.0,
        -1.0,
        -1.0
      ],
      "type": "VEC3"
    },
    {
      "bufferView": 1,
      "componentType": 5126,
      "count": 998,
      "max": [
        3.0,
        3.0
      ],
      "min": [
        -2.0,
        -2.0
      ],
      "type": "VEC2"
    },
    {
      "bufferView": 0,
      "componentType": 5125,
      "count": 3600,
      "type": "SCALAR"
    },
    {
      "bufferView": 2,
      "byteOffset": 23952,
      "componentType": 5126,
      "count": 380,
      "max": [
        0.0372299998998642,
        0.16381999850273132,
        0.009990000165998936
      ],
      "min": [
        -0.0372299998998642,
        0.01592000015079975,
        -0.009990000165998936
      ],
      "type": "VEC3"
    },
    {
      "bufferView": 2,
      "byteOffset": 28512,
      "componentType": 5126,
      "count": 380,
      "max": [
        0.9749294519424438,
        1.0,
        1.0
      ],
      "min": [
        -0.9749294519424438,
        -1.0,
        -1.0
      ],
      "type": "VEC3"
    },
    {
      "bufferView": 1,
      "byteOffset": 7984,
      "componentType": 5126,
      "count": 380,
      "max": [
        3.0,
        3.0
      ],
      "min": [
        -2.0,
        -2.0
      ],
      "type": "VEC2"
    },
    {
      "bufferView": 0,
      "byteOffset": 14400,
      "componentType": 5125,
      "count": 984,
      "type": "SCALAR"
    },
    {
      "bufferView": 2,
      "byteOffset": 33072,
      "componentType": 5126,
      "count": 4693,
      "max": [
        0.5989900231361389,
        0.5880900025367737,
        0.404229998588562
      ],
      "min": [
        -0.5989900231361389,
        -0.49498000741004944,
        -0.08594000339508057
      ],
      "type": "VEC3"
    },
    {
      "bufferView": 2,
      "byteOffset": 89388,
      "componentType": 5126,
      "count": 4693,
      "max": [
        1.0,
        1.0,
        1.0
      ],
      "min": [
        -1.0,
        -1.0,
        -1.0
      ],
      "type": "VEC3"
    },
    {
      "bufferView": 1,
      "byteOffset": 11024,
      "componentType": 5126,
      "count": 4693,
      "max": [
        5.5,
        5.5
      ],
      "min": [
        -4.5,
        -4.5
      ],
      "type": "VEC2"
    },
    {
      "bufferView": 0,
      "byteOffset": 18336,
      "componentType": 5125,
      "count": 14109,
      "type": "SCALAR"
    },
    {
      "bufferView": 2,
      "byteOffset": 145704,
      "componentType": 5126,
      "count": 1576,
      "max": [
        0.5880600214004517,
        0.05204999819397926,
        0.3950999975204468
      ],
      "min": [
        -0.5880600214004517,
        -0.4911400079727173,
        -0.07507000118494034
      ],
      "type": "VEC3"
    },
    {
      "bufferView": 2,
      "byteOffset": 164616,
      "componentType": 5126,
      "count": 1576,
      "max": [
        1.0,
        0.0,
        1.0
      ],
      "min": [
        -1.0,
        -1.0,
        -1.0
      ],
      "type": "VEC3"
    },
    {
      "bufferView": 1,
      "byteOffset": 48568,
      "componentType": 5126,
      "count": 1576,
      "max": [
        5.38709020614624,
        5.261750221252441
      ],
      "min": [
        -4.5,
        -2.6063199043273926
      ],
      "type": "VEC2"
    },
    {
      "bufferView": 0,
      "byteOffset": 74772,
      "componentType": 5125,
      "count": 2574,
      "type": "SCALAR"
    },
    {
      "bufferView": 2,
      "byteOffset": 183528,
      "componentType": 5126,
      "count": 72,
      "max": [
        0.4689300060272217,
        0.5089499950408936,
        0.05104000121355057
      ],
      "min": [
        -0.4689300060272217,
        0.5089499950408936,
        -0.05104000121355057
      ],
      "type": "VEC3"
    },
    {
      "bufferView": 2,
      "byteOffset": 184392,
      "componentType": 5126,
      "count": 72,
      "max": [
        0.0,
        1.0,
        0.0
      ],
      "min": [
        0.0,
        1.0,
        0.0
      ],
      "type": "VEC3"
    },
    {
      "bufferView": 1,
      "byteOffset": 61176,
      "componentType": 5126,
      "count": 72,
      "max": [
        2.457350015640259,
        4.724180221557617
      ],
      "min": [
        1.918220043182373,
        2.6920700073242188
      ],
      "type": "VEC2"
    },
    {
      "bufferView": 0,
      "byteOffset": 85068,
      "componentType": 5125,
      "count": 204,
      "type": "SCALAR"
    },
    {
      "bufferView": 2,
      "byteOffset": 185256,
      "componentType": 5126,
      "count": 6520,
      "max": [
        0.5005999803543091,
        0.7998300194740295,
        0.004259999841451645
      ],
      "min": [
        -0.5005999803543091,
        -0.2639800012111664,
        -0.5130699872970581
      ],
      "type": "VEC3"
    },
    {
      "bufferView": 2,
      "byteOffset": 263496,
      "componentType": 5126,
      "count": 6520,
      "max": [
        1.0,
        1.0,
        1.0
      ],
      "min": [
        -1.0,
        -1.0,
        -1.0
      ],
      "type": "VEC3"
    },
    {
      "bufferView": 1,
      "byteOffset": 61752,
      "componentType": 5126,
      "count": 6520,
      "max": [
        5.5,
        5.5
      ],
      "min": [
        -4.5,
        -4.5
      ],
      "type": "VEC2"
    },
    {
      "bufferView": 0,
      "byteOffset": 85884,
      "componentType": 5125,
      "count": 13458,
      "type": "SCALAR"
    },
    {
      "bufferView": 2,
      "byteOffset": 341736,
      "componentType": 5126,
      "count": 1964,
      "max": [
        0.42311999201774597,
        -0.22156000137329102,
        -0.12700000405311584
      ],
      "min": [
        -0.42311999201774597,
        -0.27177000045776367,
        -0.4563100039958954
      ],
      "type": "VEC3"
    },
    {
      "bufferView": 2,
      "byteOffset": 365304,
      "componentType": 5126,
      "count": 1964,
      "max": [
        1.0,
        1.0,
        1.0
      ],
      "min": [
        -1.0,
        -1.0,
        -1.0
      ],
      "type": "VEC3"
    },
    {
      "bufferView": 1,
      "byteOffset": 113912,
      "componentType": 5126,
      "count": 1964,
      "max": [
        5.327889919281006,
        4.716479778289795
      ],
      "min": [
        -3.812419891357422,
        -4.5
      ],
      "type": "VEC2"
    },
    {
      "bufferView": 0,
      "byteOffset": 139716,
      "componentType": 5125,
      "count": 4020,
      "type": "SCALAR"
    },
    {
      "bufferView": 2,
      "byteOffset": 388872,
      "componentType": 5126,
      "count": 380,
      "max": [
        0.3183499872684479,
        0.5833500027656555,
        0.3702000081539154
      ],
      "min": [
        -0.3183499872684479,
        0.09516999870538712,
        0.0859299972653389
      ],
      "type": "VEC3"
    },
    {
      "bufferView": 2,
      "byteOffset": 393432,
      "componentType": 5126,
      "count": 380,
      "max": [
        1.0,
        0.9999398589134216,
        1.0
      ],
      "min": [
        -1.0,
        -1.0,
        -1.0
      ],
      "type": "VEC3"
    },
    {
      "bufferView": 1,
      "byteOffset": 129624,
      "componentType": 5126,
      "count": 380,
      "max": [
        3.0,
        3.0
      ],
      "min": [
        -2.0,
        -2.0
      ],
      "type": "VEC2"
    },
    {
      "bufferView": 0,
      "byteOffset": 155796,
      "componentType": 5125,
      "count": 888,
      "type": "SCALAR"
    },
    {
      "bufferView": 2,
      "byteOffset": 397992,
      "componentType": 5126,
      "count": 892,
      "max": [
        0.052400000393390656,
        0.9978200197219849,
        1.3004000186920166
      ],
      "min": [
        -0.052400000393390656,
        -0.5935800075531006,
        -0.4448400139808655
      ],
      "type": "VEC3"
    },
    {
      "bufferView": 2,
      "byteOffset": 408696,
      "componentType": 5126,
      "count": 892,
      "max": [
        1.0,
        1.0,
        1.0
      ],
      "min": [
        -1.0,
        -1.0,
        -1.0
      ],
      "type": "VEC3"
    },
    {
      "bufferView": 1,
      "byteOffset": 132664,
      "componentType": 5126,
      "count": 892,
      "max": [
        5.5,
        5.5
      ],
      "min": [
        -4.5,
        -4.5
      ],
      "type": "VEC2"
    },
    {
      "bufferView": 0,
      "byteOffset": 159348,
      "componentType": 5125,
      "count": 2196,
      "type": "SCALAR"
    },
    {
      "bufferView": 2,
      "byteOffset": 419400,
      "componentType": 5126,
      "count": 272,
      "max": [
        0.02442000061273575,
        0.9710100293159485,
        1.2658599615097046
      ],
      "min": [
        -0.02442000061273575,
        -0.5691999793052673,
        -0.43264999985694885
      ],
      "type": "VEC3"
    },
    {
      "bufferView": 2,
      "byteOffset": 422664,
      "componentType": 5126,
      "count": 272,
      "max": [
        1.0,
        1.0,
        1.0
      ],
      "min": [
        -1.0,
        -1.0,
        -1.0
      ],
      "type": "VEC3"
    },
    {
      "bufferView": 1,
      "byteOffset": 139800,
      "componentType": 5126,
      "count": 272,
      "max": [
        5.5,
        5.5
      ],
      "min": [
        -4.5,
        -4.5
      ],
      "type": "VEC2"
    },
    {
      "bufferView": 0,
      "byteOffset": 168132,
      "componentType": 5125,
      "count": 453,
      "type": "SCALAR"
    },
    {
      "bufferView": 2,
      "byteOffset": 425928,
      "componentType": 5126,
      "count": 574,
      "max": [
        0.026419999077916145,
        0.9244499802589417,
        1.238420009613037
      ],
      "min": [
        -0.026419999077916145,
        -0.5306000113487244,
        -0.4100799858570099
      ],
      "type": "VEC3"
    },
    {
      "bufferView": 2,
      "byteOffset": 432816,
      "componentType": 5126,
      "count": 574,
      "max": [
        1.0,
        1.0,
        1.0
      ],
      "min": [
        -1.0,
        -1.0,
        -1.0
      ],
      "type": "VEC3"
    },
    {
      "bufferView": 1,
      "byteOffset": 141976,
      "componentType": 5126,
      "count": 574,
      "max": [
        5.5,
        5.5
      ],
      "min": [
        -4.5,
        -4.5
      ],
      "type": "VEC2"
    },
    {
      "bufferView": 0,
      "byteOffset": 169944,
      "componentType": 5125,
      "count": 885,
      "type": "SCALAR"
    },
    {
      "bufferView": 2,
      "byteOffset": 439704,
      "componentType": 5126,
      "count": 144,
      "max": [
        0.026419999077916145,
        0.8199800252914429,
        0.7795199751853943
      ],
      "min": [
        -0.026419999077916145,
        0.6147199869155884,
        0.22619999945163727
      ],
      "type": "VEC3"
    },
    {
      "bufferView": 2,
      "byteOffset": 441432,
      "componentType": 5126,
      "count": 144,
      "max": [
        1.0,
        0.9873254299163818,
        1.0
      ],
      "min": [
        -1.0,
        -1.0,
        -1.0
      ],
      "type": "VEC3"
    },
    {
      "bufferView": 1,
      "byteOffset": 146568,
      "componentType": 5126,
      "count": 144,
      "max": [
        3.900369882583618,
        3.8100500106811523
      ],
      "min": [
        -1.2572799921035767,
        0.062049999833106995
      ],
      "type": "VEC2"
    },
    {
      "bufferView": 0,
      "byteOffset": 173484,
      "componentType": 5125,
      "count": 216,
      "type": "SCALAR"
    },
    {
      "bufferView": 2,
      "byteOffset": 443160,
      "componentType": 5126,
      "count": 144,
      "max": [
        0.02841999940574169,
        0.5482800006866455,
        0.9002900123596191
      ],
      "min": [
        -0.02841999940574169,
        -0.1912499964237213,
        0.47044000029563904
      ],
      "type": "VEC3"
    },
    {
      "bufferView": 2,
      "byteOffset": 444888,
      "componentType": 5126,
      "count": 144,
      "max": [
        1.0,
        1.0,
        1.0
      ],
      "min": [
        -1.0,
        -1.0,
        -1.0
      ],
      "type": "VEC3"
    },
    {
      "bufferView": 1,
      "byteOffset": 147720,
      "componentType": 5126,
      "count": 144,
      "max": [
        2.0,
        2.0
      ],
      "min": [
        -1.0,
        -1.0
      ],
      "type": "VEC2"
    },
    {
      "bufferView": 0,
      "byteOffset": 174348,
      "componentType": 5125,
      "count": 216,
      "type": "SCALAR"
    },
    {
      "bufferView": 2,
      "byteOffset": 446616,
      "componentType": 5126,
      "count": 328,
      "max": [
        0.013919999822974205,
        0.7097499966621399,
        1.5030200481414795
      ],
      "min": [
        -0.013919999822974205,
        -0.0040799998678267,
        0.02604999952018261
      ],
      "type": "VEC3"
    },
    {
      "bufferView": 2,
      "byteOffset": 450552,
      "componentType": 5126,
      "count": 328,
      "max": [
        1.0,
        0.9109325408935547,
        0.9510588645935059
      ],
      "min": [
        -1.0,
        -0.9109325408935547,
        -0.9510619044303894
      ],
      "type": "VEC3"
    },
    {
      "bufferView": 1,
      "byteOffset": 148872,
      "componentType": 5126,
      "count": 328,
      "max": [
        2.75,
        2.75
      ],
      "min": [
        -1.75,
        -1.75
      ],
      "type": "VEC2"
    },
    {
      "bufferView": 0,
      "byteOffset": 175212,
      "componentType": 5125,
      "count": 816,
      "type": "SCALAR"
    },
    {
      "bufferView": 2,
      "byteOffset": 454488,
      "componentType": 5126,
      "count": 10,
      "max": [
        0.011300000362098217,
        0.6555500030517578,
        1.5030200481414795
      ],
      "min": [
        -0.011300000362098217,
        0.6555500030517578,
        1.4792499542236328
      ],
      "type": "VEC3"
    },
    {
      "bufferView": 2,
      "byteOffset": 454608,
      "componentType": 5126,
      "count": 10,
      "max": [
        -0.0,
        -1.0,
        0.0
      ],
      "min": [
        -0.0,
        -1.0,
        0.0
      ],
      "type": "VEC3"
    },
    {
      "bufferView": 1,
      "byteOffset": 151496,
      "componentType": 5126,
      "count": 10,
      "max": [
        1.824620008468628,
        -1.4892699718475342
      ],
      "min": [
        1.1266599893569946,
        -1.5781699419021606
      ],
      "type": "VEC2"
    },
    {
      "bufferView": 0,
      "byteOffset": 178476,
      "componentType": 5125,
      "count": 24,
      "type": "SCALAR"
    },
    {
      "bufferView": 2,
      "byteOffset": 454728,
      "componentType": 5126,
      "count": 759,
      "max": [
        0.08620999753475189,
        0.3053100109100342,
        0.12691999971866608
      ],
      "min": [
        -0.08620999753475189,
        -0.31683000922203064,
        -0.14715999364852905
      ],
      "type": "VEC3"
    },
    {
      "bufferView": 2,
      "byteOffset": 463836,
      "componentType": 5126,
      "count": 759,
      "max": [
        1.0,
        1.0,
        1.0
      ],
      "min": [
        -1.0,
        -1.0,
        -1.0
      ],
      "type": "VEC3"
    },
    {
      "bufferView": 1,
      "byteOffset": 151576,
      "componentType": 5126,
      "count": 759,
      "max": [
        3.0,
        3.0
      ],
      "min": [
        -2.0,
        -2.0
      ],
      "type": "VEC2"
    },
    {
      "bufferView": 0,
      "byteOffset": 178572,
      "componentType": 5125,
      "count": 1380,
      "type": "SCALAR"
    },
    {
      "bufferView": 2,
      "byteOffset": 472944,
      "componentType": 5126,
      "count": 2188,
      "max": [
        0.22231000661849976,
        0.9358599781990051,
        0.2730399966239929
      ],
      "min": [
        -0.22231000661849976,
        0.19043999910354614,
        -0.256740003824234
      ],
      "type": "VEC3"
    },
    {
      "bufferView": 2,
      "byteOffset": 499200,
      "componentType": 5126,
      "count": 2188,
      "max": [
        1.0,
        1.0,
        1.0
      ],
      "min": [
        -1.0,
        -1.0,
        -1.0
      ],
      "type": "VEC3"
    },
    {
      "bufferView": 1,
      "byteOffset": 157648,
      "componentType": 5126,
      "count": 2188,
      "max": [
        5.5,
        5.5
      ],
      "min": [
        -4.5,
        -4.5
      ],
      "type": "VEC2"
    },
    {
      "bufferView": 0,
      "byteOffset": 184092,
      "componentType": 5125,
      "count": 4854,
      "type": "SCALAR"
    },
    {
      "bufferView": 2,
      "byteOffset": 525456,
      "componentType": 5126,
      "count": 26,
      "max": [
        0.20732000470161438,
        0.7383999824523926,
        0.15842999517917633
      ],
      "min": [
        -0.20732000470161438,
        0.4636099934577942,
        -0.050700001418590546
      ],
      "type": "VEC3"
    },
    {
      "bufferView": 2,
      "byteOffset": 525768,
      "componentType": 5126,
      "count": 26,
      "max": [
        0.839142918586731,
        -0.34987372159957886,
        0.8017044067382813
      ],
      "min": [
        -0.839142918586731,
        -0.5977208018302917,
        0.416446328163147
      ],
      "type": "VEC3"
    },
    {
      "bufferView": 1,
      "byteOffset": 175152,
      "componentType": 5126,
      "count": 26,
      "max": [
        5.3275299072265625,
        3.832429885864258
      ],
      "min": [
        1.6729999780654907,
        1.172510027885437
      ],
      "type": "VEC2"
    },
    {
      "bufferView": 0,
      "byteOffset": 203508,
      "componentType": 5125,
      "count": 60,
      "type": "SCALAR"
    },
    {
      "bufferView": 2,
      "byteOffset": 526080,
      "componentType": 5126,
      "count": 1922,
      "max": [
        -0.025019999593496323,
        -0.029740000143647194,
        0.05632999911904335
      ],
      "min": [
        -0.3610300123691559,
        -0.14268000423908234,
        -0.012539999559521675
      ],
      "type": "VEC3"
    },
    {
      "bufferView": 2,
      "byteOffset": 549144,
      "componentType": 5126,
      "count": 1922,
      "max": [
        0.9960530996322632,
        0.9988781213760376,
        0.9974973797798157
      ],
      "min": [
        -0.9966897368431091,
        -0.9972395896911621,
        -0.9973306655883789
      ],
      "type": "VEC3"
    },
    {
      "bufferView": 1,
      "byteOffset": 175360,
      "componentType": 5126,
      "count": 1922,
      "max": [
        3.0,
        3.0
      ],
      "min": [
        -2.0,
        -2.0
      ],
      "type": "VEC2"
    },
    {
      "bufferView": 0,
      "byteOffset": 203748,
      "componentType": 5125,
      "count": 6912,
      "type": "SCALAR"
    },
    {
      "bufferView": 2,
      "byteOffset": 572208,
      "componentType": 5126,
      "count": 3857,
      "max": [
        0.20859000086784363,
        0.10560999810695648,
        0.2657800018787384
      ],
      "min": [
        -0.20859000086784363,
        -0.42493000626564026,
        -0.1299699991941452
      ],
      "type": "VEC3"
    },
    {
      "bufferView": 2,
      "byteOffset": 618492,
      "componentType": 5126,
      "count": 3857,
      "max": [
        1.0,
        1.0,
        1.0
      ],
      "min": [
        -1.0,
        -1.0,
        -1.0
      ],
      "type": "VEC3"
    },
    {
      "bufferView": 1,
      "byteOffset": 190736,
      "componentType": 5126,
      "count": 3857,
      "max": [
        5.5,
        5.5
      ],
      "min": [
        -4.5,
        -4.5
      ],
      "type": "VEC2"
    },
    {
      "bufferView": 0,
      "byteOffset": 231396,
      "componentType": 5125,
      "count": 7332,
      "type": "SCALAR"
    },
    {
      "bufferView": 2,
      "byteOffset": 664776,
      "componentType": 5126,
      "count": 420,
      "max": [
        0.5638999938964844,
        -0.265720009803772,
        -0.3478600084781647
      ],
      "min": [
        -0.5638999938964844,
        -0.3297699987888336,
        -0.40252000093460083
      ],
      "type": "VEC3"
    },
    {
      "bufferView": 2,
      "byteOffset": 669816,
      "componentType": 5126,
      "count": 420,
      "max": [
        0.9875607490539551,
        0.6723095178604126,
        1.0
      ],
      "min": [
        -0.9875607490539551,
        -0.6712101101875305,
        -0.9974545836448669
      ],
      "type": "VEC3"
    },
    {
      "bufferView": 1,
      "byteOffset": 221592,
      "componentType": 5126,
      "count": 420,
      "max": [
        3.0,
        3.0
      ],
      "min": [
        -2.0,
        -2.0
      ],
      "type": "VEC2"
    },
    {
      "bufferView": 0,
      "byteOffset": 260724,
      "componentType": 5125,
      "count": 1416,
      "type": "SCALAR"
    },
    {
      "bufferView": 2,
      "byteOffset": 674856,
      "componentType": 5126,
      "count": 52,
      "max": [
        83.78794860839844,
        68.93856811523438,
        -42.9580192565918
      ],
      "min": [
        -83.78794860839844,
        65.47911834716797,
        -51.13499069213867
      ],
      "type": "VEC3"
    },
    {
      "bufferView": 2,
      "byteOffset": 675480,
      "componentType": 5126,
      "count": 52,
      "max": [
        1.0,
        1.0,
        0.0
      ],
      "min": [
        -1.0,
        -1.0,
        -0.8072688579559326
      ],
      "type": "VEC3"
    },
    {
      "bufferView": 1,
      "byteOffset": 224952,
      "componentType": 5126,
      "count": 52,
      "max": [
        3.0,
        3.0
      ],
      "min": [
        -2.0,
        -2.0
      ],
      "type": "VEC2"
    },
    {
      "bufferView": 0,
      "byteOffset": 266388,
      "componentType": 5125,
      "count": 96,
      "type": "SCALAR"
    },
    {
      "bufferView": 2,
      "byteOffset": 676104,
      "componentType": 5126,
      "count": 1684,
      "max": [
        0.02191000059247017,
        0.007829999551177025,
        0.0291300006210804
      ],
      "min": [
        -0.023080000653862953,
        -0.11051999777555466,
        -0.009119999594986439
      ],
      "type": "VEC3"
    },
    {
      "bufferView": 2,
      "byteOffset": 696312,
      "componentType": 5126,
      "count": 1684,
      "max": [
        1.0,
        1.0,
        1.0
      ],
      "min": [
        -1.0,
        -1.0,
        -1.0
      ],
      "type": "VEC3"
    },
    {
      "bufferView": 1,
      "byteOffset": 225368,
      "componentType": 5126,
      "count": 1684,
      "max": [
        3.0,
        3.0
      ],
      "min": [
        -2.0,
        -2.0
      ],
      "type": "VEC2"
    },
    {
      "bufferView": 0,
      "byteOffset": 266772,
      "componentType": 5125,
      "count": 3768,
      "type": "SCALAR"
    },
    {
      "bufferView": 2,
      "byteOffset": 716520,
      "componentType": 5126,
      "count": 1684,
      "max": [
        0.02191000059247017,
        0.007829999551177025,
        0.0291300006210804
      ],
      "min": [
        -0.023080000653862953,
        -0.11051999777555466,
        -0.009119999594986439
      ],
      "type": "VEC3"
    },
    {
      "bufferView": 2,
      "byteOffset": 736728,
      "componentType": 5126,
      "count": 1684,
      "max": [
        1.0,
        1.0,
        1.0
      ],
      "min": [
        -1.0,
        -1.0,
        -1.0
      ],
      "type": "VEC3"
    },
    {
      "bufferView": 1,
      "byteOffset": 238840,
      "componentType": 5126,
      "count": 1684,
      "max": [
        3.0,
        3.0
      ],
      "min": [
        -2.0,
        -2.0
      ],
      "type": "VEC2"
    },
    {
      "bufferView": 0,
      "byteOffset": 281844,
      "componentType": 5125,
      "count": 3768,
      "type": "SCALAR"
    },
    {
      "bufferView": 2,
      "byteOffset": 756936,
      "componentType": 5126,
      "count": 6107,
      "max": [
        0.08370999991893768,
        0.4083299934864044,
        1.7953399419784546
      ],
      "min": [
        -0.20848000049591064,
        -0.46421000361442566,
        -0.08370999991893768
      ],
      "type": "VEC3"
    },
    {
      "bufferView": 2,
      "byteOffset": 830220,
      "componentType": 5126,
      "count": 6107,
      "max": [
        1.0,
        1.0,
        1.0
      ],
      "min": [
        -1.0,
        -1.0,
        -0.995186448097229
      ],
      "type": "VEC3"
    },
    {
      "bufferView": 1,
      "byteOffset": 252312,
      "componentType": 5126,
      "count": 6107,
      "max": [
        5.5,
        5.5
      ],
      "min": [
        -4.5,
        -4.5
      ],
      "type": "VEC2"
    },
    {
      "bufferView": 0,
      "byteOffset": 296916,
      "componentType": 5125,
      "count": 10014,
      "type": "SCALAR"
    },
    {
      "bufferView": 2,
      "byteOffset": 903504,
      "componentType": 5126,
      "count": 10,
      "max": [
        0.013030000030994415,
        -0.048829998821020126,
        1.7754900455474854
      ],
      "min": [
        -0.0034600000362843275,
        -0.048829998821020126,
        1.7581499814987183
      ],
      "type": "VEC3"
    },
    {
      "bufferView": 2,
      "byteOffset": 903624,
      "componentType": 5126,
      "count": 10,
      "max": [
        -0.0,
        -1.0,
        0.0
      ],
      "min": [
        -0.0,
        -1.0,
        0.0
      ],
      "type": "VEC3"
    },
    {
      "bufferView": 1,
      "byteOffset": 301168,
      "componentType": 5126,
      "count": 10,
      "max": [
        2.2229700088500977,
        1.6713999509811401
      ],
      "min": [
        2.171190023422241,
        1.6187000274658203
      ],
      "type": "VEC2"
    },
    {
      "bufferView": 0,
      "byteOffset": 336972,
      "componentType": 5125,
      "count": 24,
      "type": "SCALAR"
    },
    {
      "bufferView": 2,
      "byteOffset": 903744,
      "componentType": 5126,
      "count": 168,
      "max": [
        -0.4874599874019623,
        0.6866599917411804,
        1.3017300367355347
      ],
      "min": [
        -0.7315300107002258,
        -0.006949999835342169,
        -0.2741900086402893
      ],
      "type": "VEC3"
    },
    {
      "bufferView": 2,
      "byteOffset": 905760,
      "componentType": 5126,
      "count": 168,
      "max": [
        0.9919794201850891,
        1.0,
        0.9919819235801697
      ],
      "min": [
        -0.9919794201850891,
        -1.0,
        -0.9919819235801697
      ],
      "type": "VEC3"
    },
    {
      "bufferView": 1,
      "byteOffset": 301248,
      "componentType": 5126,
      "count": 168,
      "max": [
        3.0,
        3.0
      ],
      "min": [
        -2.0,
        -2.0
      ],
      "type": "VEC2"
    },
    {
      "bufferView": 0,
      "byteOffset": 337068,
      "componentType": 5125,
      "count": 252,
      "type": "SCALAR"
    },
    {
      "bufferView": 2,
      "byteOffset": 907776,
      "componentType": 5126,
      "count": 58,
      "max": [
        -0.48708999156951904,
        0.6623799800872803,
        1.3435399532318115
      ],
      "min": [
        -0.680180013179779,
        -0.08442000299692154,
        -0.2741900086402893
      ],
      "type": "VEC3"
    },
    {
      "bufferView": 2,
      "byteOffset": 908472,
      "componentType": 5126,
      "count": 58,
      "max": [
        0.9919794201850891,
        1.0,
        0.9919843673706055
      ],
      "min": [
        -0.9919794201850891,
        -1.0,
        -0.9919819235801697
      ],
      "type": "VEC3"
    },
    {
      "bufferView": 1,
      "byteOffset": 302592,
      "componentType": 5126,
      "count": 58,
      "max": [
        5.5,
        5.5
      ],
      "min": [
        -4.5,
        -4.5
      ],
      "type": "VEC2"
    },
    {
      "bufferView": 0,
      "byteOffset": 338076,
      "componentType": 5125,
      "count": 84,
      "type": "SCALAR"
    },
    {
      "bufferView": 2,
      "byteOffset": 909168,
      "componentType": 5126,
      "count": 203,
      "max": [
        -0.48726001381874084,
        0.7001000046730042,
        1.3188600540161133
      ],
      "min": [
        -0.680180013179779,
        -0.06451000273227692,
        -0.19302000105381012
      ],
      "type": "VEC3"
    },
    {
      "bufferView": 2,
      "byteOffset": 911604,
      "componentType": 5126,
      "count": 203,
      "max": [
        0.9919869303703308,
        1.0,
        0.9919416904449463
      ],
      "min": [
        -0.9919869303703308,
        -1.0,
        -0.9919672012329102
      ],
      "type": "VEC3"
    },
    {
      "bufferView": 1,
      "byteOffset": 303056,
      "componentType": 5126,
      "count": 203,
      "max": [
        5.5,
        5.5
      ],
      "min": [
        -4.5,
        -4.5
      ],
      "type": "VEC2"
    },
    {
      "bufferView": 0,
      "byteOffset": 338412,
      "componentType": 5125,
      "count": 321,
      "type": "SCALAR"
    },
    {
      "bufferView": 2,
      "byteOffset": 914040,
      "componentType": 5126,
      "count": 24,
      "max": [
        -0.5254700183868408,
        0.6444200277328491,
        1.0190500020980835
      ],
      "min": [
        -0.5396299958229065,
        0.21295000612735748,
        0.9538300037384033
      ],
      "type": "VEC3"
    },
    {
      "bufferView": 2,
      "byteOffset": 914328,
      "componentType": 5126,
      "count": 24,
      "max": [
        0.9919794201850891,
        1.0,
        0.9919819235801697
      ],
      "min": [
        -0.9919794201850891,
        -0.9662664532661438,
        -0.9919819235801697
      ],
      "type": "VEC3"
    },
    {
      "bufferView": 1,
      "byteOffset": 304680,
      "componentType": 5126,
      "count": 24,
      "max": [
        4.6722798347473145,
        -0.7816500067710876
      ],
      "min": [
        3.9390900135040283,
        -4.5
      ],
      "type": "VEC2"
    },
    {
      "bufferView": 0,
      "byteOffset": 339696,
      "componentType": 5125,
      "count": 36,
      "type": "SCALAR"
    },
    {
      "bufferView": 2,
      "byteOffset": 914616,
      "componentType": 5126,
      "count": 112,
      "max": [
        -0.5581799745559692,
        0.6291400194168091,
        1.1392799615859985
      ],
      "min": [
        -0.7271400094032288,
        -0.03578000143170357,
        -0.2936300039291382
      ],
      "type": "VEC3"
    },
    {
      "bufferView": 2,
      "byteOffset": 915960,
      "componentType": 5126,
      "count": 112,
      "max": [
        0.9919867515563965,
        1.0,
        0.992030680179596
      ],
      "min": [
        -0.9919866919517517,
        -0.978516161441803,
        -0.9920307397842407
      ],
      "type": "VEC3"
    },
    {
      "bufferView": 1,
      "byteOffset": 304872,
      "componentType": 5126,
      "count": 112,
      "max": [
        5.5,
        5.5
      ],
      "min": [
        -4.5,
        -4.5
      ],
      "type": "VEC2"
    },
    {
      "bufferView": 0,
      "byteOffset": 339840,
      "componentType": 5125,
      "count": 186,
      "type": "SCALAR"
    },
    {
      "bufferView": 2,
      "byteOffset": 917304,
      "componentType": 5126,
      "count": 24,
      "max": [
        -0.5332199931144714,
        0.6291400194168091,
        1.3351199626922607
      ],
      "min": [
        -0.5590299963951111,
        0.3088200092315674,
        1.1708300113677979
      ],
      "type": "VEC3"
    },
    {
      "bufferView": 2,
      "byteOffset": 917592,
      "componentType": 5126,
      "count": 24,
      "max": [
        0.9919794201850891,
        1.0,
        0.9919807314872742
      ],
      "min": [
        -0.9919794201850891,
        -0.9690179228782654,
        -0.9919807314872742
      ],
      "type": "VEC3"
    },
    {
      "bufferView": 1,
      "byteOffset": 305768,
      "componentType": 5126,
      "count": 24,
      "max": [
        4.755420207977295,
        -1.5697400569915771
      ],
      "min": [
        2.915450096130371,
        -4.5
      ],
      "type": "VEC2"
    },
    {
      "bufferView": 0,
      "byteOffset": 340584,
      "componentType": 5125,
      "count": 36,
      "type": "SCALAR"
    },
    {
      "bufferView": 2,
      "byteOffset": 917880,
      "componentType": 5126,
      "count": 106,
      "max": [
        -0.5605700016021729,
        0.5969600081443787,
        1.1207799911499023
      ],
      "min": [
        -0.7291300296783447,
        -0.0052200001664459705,
        -0.14842000603675842
      ],
      "type": "VEC3"
    },
    {
      "bufferView": 2,
      "byteOffset": 919152,
      "componentType": 5126,
      "count": 106,
      "max": [
        0.9919906854629517,
        1.0,
        0.9920564293861389
      ],
      "min": [
        -0.9919824600219727,
        -1.0,
        -0.9920790791511536
      ],
      "type": "VEC3"
    },
    {
      "bufferView": 1,
      "byteOffset": 305960,
      "componentType": 5126,
      "count": 106,
      "max": [
        5.5,
        5.5
      ],
      "min": [
        -4.5,
        -4.5
      ],
      "type": "VEC2"
    },
    {
      "bufferView": 0,
      "byteOffset": 340728,
      "componentType": 5125,
      "count": 174,
      "type": "SCALAR"
    },
    {
      "bufferView": 2,
      "byteOffset": 920424,
      "componentType": 5126,
      "count": 193,
      "max": [
        -0.5280399918556213,
        0.671280026435852,
        1.3755500316619873
      ],
      "min": [
        -0.7251600027084351,
        -0.07604999840259552,
        -0.2934899926185608
      ],
      "type": "VEC3"
    },
    {
      "bufferView": 2,
      "byteOffset": 922740,
      "componentType": 5126,
      "count": 193,
      "max": [
        0.9919795393943787,
        1.0,
        0.991912305355072
      ],
      "min": [
        -0.9919790625572205,
        -1.0,
        -0.9919671416282654
      ],
      "type": "VEC3"
    },
    {
      "bufferView": 1,
      "byteOffset": 306808,
      "componentType": 5126,
      "count": 193,
      "max": [
        5.5,
        5.5
      ],
      "min": [
        -4.5,
        -4.5
      ],
      "type": "VEC2"
    },
    {
      "bufferView": 0,
      "byteOffset": 341424,
      "componentType": 5125,
      "count": 357,
      "type": "SCALAR"
    },
    {
      "bufferView": 2,
      "byteOffset": 925056,
      "componentType": 5126,
      "count": 1458,
      "max": [
        0.0648299977183342,
        0.07898999750614166,
        0.32425999641418457
      ],
      "min": [
        -0.0648299977183342,
        -0.07898999750614166,
        -0.07898999750614166
      ],
      "type": "VEC3"
    },
    {
      "bufferView": 2,
      "byteOffset": 942552,
      "componentType": 5126,
      "count": 1458,
      "max": [
        1.0,
        1.0,
        1.0
      ],
      "min": [
        -1.0,
        -1.0,
        -1.0
      ],
      "type": "VEC3"
    },
    {
      "bufferView": 1,
      "byteOffset": 308352,
      "componentType": 5126,
      "count": 1458,
      "max": [
        3.0,
        3.0
      ],
      "min": [
        -2.0,
        -2.0
      ],
      "type": "VEC2"
    },
    {
      "bufferView": 0,
      "byteOffset": 342852,
      "componentType": 5125,
      "count": 4368,
      "type": "SCALAR"
    },
    {
      "bufferView": 2,
      "byteOffset": 960048,
      "componentType": 5126,
      "count": 6108,
      "max": [
        0.20848000049591064,
        0.4083299934864044,
        1.7953399419784546
      ],
      "min": [
        -0.08370999991893768,
        -0.46421000361442566,
        -0.08370999991893768
      ],
      "type": "VEC3"
    },
    {
      "bufferView": 2,
      "byteOffset": 1033344,
      "componentType": 5126,
      "count": 6108,
      "max": [
        1.0,
        1.0,
        1.0
      ],
      "min": [
        -1.0,
        -1.0,
        -0.995186448097229
      ],
      "type": "VEC3"
    },
    {
      "bufferView": 1,
      "byteOffset": 320016,
      "componentType": 5126,
      "count": 6108,
      "max": [
        5.5,
        5.5
      ],
      "min": [
        -4.5,
        -4.5
      ],
      "type": "VEC2"
    },
    {
      "bufferView": 0,
      "byteOffset": 360324,
      "componentType": 5125,
      "count": 10011,
      "type": "SCALAR"
    },
    {
      "bufferView": 2,
      "byteOffset": 1106640,
      "componentType": 5126,
      "count": 10,
      "max": [
        0.0034600000362843275,
        -0.048829998821020126,
        1.7754900455474854
      ],
      "min": [
        -0.013030000030994415,
        -0.048829998821020126,
        1.7581499814987183
      ],
      "type": "VEC3"
    },
    {
      "bufferView": 2,
      "byteOffset": 1106760,
      "componentType": 5126,
      "count": 10,
      "max": [
        -0.0,
        -1.0,
        0.0
      ],
      "min": [
        -0.0,
        -1.0,
        0.0
      ],
      "type": "VEC3"
    },
    {
      "bufferView": 1,
      "byteOffset": 368880,
      "componentType": 5126,
      "count": 10,
      "max": [
        1.2962599992752075,
        0.7521299719810486
      ],
      "min": [
        1.2444900274276733,
        0.6994199752807617
      ],
      "type": "VEC2"
    },
    {
      "bufferView": 0,
      "byteOffset": 400368,
      "componentType": 5125,
      "count": 24,
      "type": "SCALAR"
    },
    {
      "bufferView": 2,
      "byteOffset": 1106880,
      "componentType": 5126,
      "count": 168,
      "max": [
        0.7315300107002258,
        0.6866599917411804,
        1.3017300367355347
      ],
      "min": [
        0.4874599874019623,
        -0.006949999835342169,
        -0.2741900086402893
      ],
      "type": "VEC3"
    },
    {
      "bufferView": 2,
      "byteOffset": 1108896,
      "componentType": 5126,
      "count": 168,
      "max": [
        0.9919794201850891,
        1.0,
        0.9919819235801697
      ],
      "min": [
        -0.9919794201850891,
        -1.0,
        -0.9919819235801697
      ],
      "type": "VEC3"
    },
    {
      "bufferView": 1,
      "byteOffset": 368960,
      "componentType": 5126,
      "count": 168,
      "max": [
        3.0,
        3.0
      ],
      "min": [
        -2.0,
        -2.0
      ],
      "type": "VEC2"
    },
    {
      "bufferView": 0,
      "byteOffset": 400464,
      "componentType": 5125,
      "count": 252,
      "type": "SCALAR"
    },
    {
      "bufferView": 2,
      "byteOffset": 1110912,
      "componentType": 5126,
      "count": 58,
      "max": [
        0.680180013179779,
        0.6623799800872803,
        1.3435399532318115
      ],
      "min": [
        0.48708999156951904,
        -0.08442000299692154,
        -0.2741900086402893
      ],
      "type": "VEC3"
    },
    {
      "bufferView": 2,
      "byteOffset": 1111608,
      "componentType": 5126,
      "count": 58,
      "max": [
        0.9919794201850891,
        1.0,
        0.9919843673706055
      ],
      "min": [
        -0.9919794201850891,
        -1.0,
        -0.9919819235801697
      ],
      "type": "VEC3"
    },
    {
      "bufferView": 1,
      "byteOffset": 370304,
      "componentType": 5126,
      "count": 58,
      "max": [
        5.5,
        5.5
      ],
      "min": [
        -4.5,
        -4.5
      ],
      "type": "VEC2"
    },
    {
      "bufferView": 0,
      "byteOffset": 401472,
      "componentType": 5125,
      "count": 84,
      "type": "SCALAR"
    },
    {
      "bufferView": 2,
      "byteOffset": 1112304,
      "componentType": 5126,
      "count": 203,
      "max": [
        0.680180013179779,
        0.7001000046730042,
        1.3188600540161133
      ],
      "min": [
        0.48726001381874084,
        -0.06451000273227692,
        -0.19302000105381012
      ],
      "type": "VEC3"
    },
    {
      "bufferView": 2,
      "byteOffset": 1114740,
      "componentType": 5126,
      "count": 203,
      "max": [
        0.9919869303703308,
        1.0,
        0.9919416904449463
      ],
      "min": [
        -0.9919869303703308,
        -1.0,
        -0.9919672012329102
      ],
      "type": "VEC3"
    },
    {
      "bufferView": 1,
      "byteOffset": 370768,
      "componentType": 5126,
      "count": 203,
      "max": [
        5.5,
        5.5
      ],
      "min": [
        -4.5,
        -4.5
      ],
      "type": "VEC2"
    },
    {
      "bufferView": 0,
      "byteOffset": 401808,
      "componentType": 5125,
      "count": 321,
      "type": "SCALAR"
    },
    {
      "bufferView": 2,
      "byteOffset": 1117176,
      "componentType": 5126,
      "count": 24,
      "max": [
        0.5396299958229065,
        0.6444200277328491,
        1.0190500020980835
      ],
      "min": [
        0.5254700183868408,
        0.21295000612735748,
        0.9538300037384033
      ],
      "type": "VEC3"
    },
    {
      "bufferView": 2,
      "byteOffset": 1117464,
      "componentType": 5126,
      "count": 24,
      "max": [
        0.9919794201850891,
        1.0,
        0.9919819235801697
      ],
      "min": [
        -0.9919794201850891,
        -0.9662664532661438,
        -0.9919819235801697
      ],
      "type": "VEC3"
    },
    {
      "bufferView": 1,
      "byteOffset": 372392,
      "componentType": 5126,
      "count": 24,
      "max": [
        4.6722798347473145,
        -0.7816500067710876
      ],
      "min": [
        3.9390900135040283,
        -4.5
      ],
      "type": "VEC2"
    },
    {
      "bufferView": 0,
      "byteOffset": 403092,
      "componentType": 5125,
      "count": 36,
      "type": "SCALAR"
    },
    {
      "bufferView": 2,
      "byteOffset": 1117752,
      "componentType": 5126,
      "count": 220,
      "max": [
        0.7251600027084351,
        0.671280026435852,
        1.3755500316619873
      ],
      "min": [
        0.5280399918556213,
        -0.07604999840259552,
        -0.2934899926185608
      ],
      "type": "VEC3"
    },
    {
      "bufferView": 2,
      "byteOffset": 1120392,
      "componentType": 5126,
      "count": 220,
      "max": [
        0.9919794201850891,
        1.0,
        0.9919843673706055
      ],
      "min": [
        -0.9919794201850891,
        -1.0,
        -0.9919819235801697
      ],
      "type": "VEC3"
    },
    {
      "bufferView": 1,
      "byteOffset": 372584,
      "componentType": 5126,
      "count": 220,
      "max": [
        5.5,
        5.5
      ],
      "min": [
        -4.5,
        -4.5
      ],
      "type": "VEC2"
    },
    {
      "bufferView": 0,
      "byteOffset": 403236,
      "componentType": 5125,
      "count": 360,
      "type": "SCALAR"
    },
    {
      "bufferView": 2,
      "byteOffset": 1123032,
      "componentType": 5126,
      "count": 112,
      "max": [
        0.7271400094032288,
        0.6291400194168091,
        1.1392799615859985
      ],
      "min": [
        0.5581799745559692,
        -0.03578000143170357,
        -0.2936300039291382
      ],
      "type": "VEC3"
    },
    {
      "bufferView": 2,
      "byteOffset": 1124376,
      "componentType": 5126,
      "count": 112,
      "max": [
        0.9919866919517517,
        1.0,
        0.992030680179596
      ],
      "min": [
        -0.9919866919517517,
        -0.9785162210464478,
        -0.9920307397842407
      ],
      "type": "VEC3"
    },
    {
      "bufferView": 1,
      "byteOffset": 374344,
      "componentType": 5126,
      "count": 112,
      "max": [
        5.5,
        5.5
      ],
      "min": [
        -4.5,
        -4.5
      ],
      "type": "VEC2"
    },
    {
      "bufferView": 0,
      "byteOffset": 404676,
      "componentType": 5125,
      "count": 186,
      "type": "SCALAR"
    },
    {
      "bufferView": 2,
      "byteOffset": 1125720,
      "componentType": 5126,
      "count": 24,
      "max": [
        0.5590299963951111,
        0.6291400194168091,
        1.3351199626922607
      ],
      "min": [
        0.5332199931144714,
        0.3088200092315674,
        1.1708300113677979
      ],
      "type": "VEC3"
    },
    {
      "bufferView": 2,
      "byteOffset": 1126008,
      "componentType": 5126,
      "count": 24,
      "max": [
        0.9919794201850891,
        1.0,
        0.9919807314872742
      ],
      "min": [
        -0.9919794201850891,
        -0.9690179228782654,
        -0.9919807314872742
      ],
      "type": "VEC3"
    },
    {
      "bufferView": 1,
      "byteOffset": 375240,
      "componentType": 5126,
      "count": 24,
      "max": [
        4.755420207977295,
        -1.5697499513626099
      ],
      "min": [
        2.915450096130371,
        -4.5
      ],
      "type": "VEC2"
    },
    {
      "bufferView": 0,
      "byteOffset": 405420,
      "componentType": 5125,
      "count": 36,
      "type": "SCALAR"
    },
    {
      "bufferView": 2,
      "byteOffset": 1126296,
      "componentType": 5126,
      "count": 106,
      "max": [
        0.7291300296783447,
        0.5969600081443787,
        1.1207799911499023
      ],
      "min": [
        0.5605700016021729,
        -0.0052200001664459705,
        -0.14842000603675842
      ],
      "type": "VEC3"
    },
    {
      "bufferView": 2,
      "byteOffset": 1127568,
      "componentType": 5126,
      "count": 106,
      "max": [
        0.9919824600219727,
        1.0,
        0.9920564293861389
      ],
      "min": [
        -0.9919906854629517,
        -1.0,
        -0.9920790791511536
      ],
      "type": "VEC3"
    },
    {
      "bufferView": 1,
      "byteOffset": 375432,
      "componentType": 5126,
      "count": 106,
      "max": [
        5.5,
        5.5
      ],
      "min": [
        -4.5,
        -4.5
      ],
      "type": "VEC2"
    },
    {
      "bufferView": 0,
      "byteOffset": 405564,
      "componentType": 5125,
      "count": 174,
      "type": "SCALAR"
    },
    {
      "bufferView": 2,
      "byteOffset": 1128840,
      "componentType": 5126,
      "count": 130,
      "max": [
        0.7311099767684937,
        0.5130000114440918,
        1.1039400100708008
      ],
      "min": [
        0.5627400279045105,
        0.015399999916553497,
        -0.14842000603675842
      ],
      "type": "VEC3"
    },
    {
      "bufferView": 2,
      "byteOffset": 1130400,
      "componentType": 5126,
      "count": 130,
      "max": [
        0.9919837117195129,
        1.0,
        0.992089033126831
      ],
      "min": [
        -0.9919801950454712,
        -1.0,
        -0.9920714497566223
      ],
      "type": "VEC3"
    },
    {
      "bufferView": 1,
      "byteOffset": 376280,
      "componentType": 5126,
      "count": 130,
      "max": [
        5.5,
        5.5
      ],
      "min": [
        -4.5,
        -4.5
      ],
      "type": "VEC2"
    },
    {
      "bufferView": 0,
      "byteOffset": 406260,
      "componentType": 5125,
      "count": 210,
      "type": "SCALAR"
    },
    {
      "bufferView": 2,
      "byteOffset": 1131960,
      "componentType": 5126,
      "count": 1458,
      "max": [
        0.0648299977183342,
        0.07898999750614166,
        0.32425999641418457
      ],
      "min": [
        -0.0648299977183342,
        -0.07898999750614166,
        -0.07898999750614166
      ],
      "type": "VEC3"
    },
    {
      "bufferView": 2,
      "byteOffset": 1149456,
      "componentType": 5126,
      "count": 1458,
      "max": [
        1.0,
        1.0,
        1.0
      ],
      "min": [
        -1.0,
        -1.0,
        -1.0
      ],
      "type": "VEC3"
    },
    {
      "bufferView": 1,
      "byteOffset": 377320,
      "componentType": 5126,
      "count": 1458,
      "max": [
        3.0,
        3.0
      ],
      "min": [
        -2.0,
        -2.0
      ],
      "type": "VEC2"
    },
    {
      "bufferView": 0,
      "byteOffset": 407100,
      "componentType": 5125,
      "count": 4368,
      "type": "SCALAR"
    },
    {
      "bufferView": 3,
      "componentType": 5126,
      "count": 103,
      "max": [
        8.333330154418945
      ],
      "min": [
        0.041669998317956924
      ],
      "type": "SCALAR"
    },
    {
      "bufferView": 4,
      "componentType": 5126,
      "count": 103,
      "max": [
        0.0,
        0.9396899938583374,
        0.0,
        1.0
      ],
      "min": [
        0.0,
        0.0,
        0.0,
        0.3420200049877167
      ],
      "type": "VEC4"
    },
    {
      "bufferView": 3,
      "byteOffset": 412,
      "componentType": 5126,
      "count": 103,
      "max": [
        8.333330154418945
      ],
      "min": [
        0.041669998317956924
      ],
      "type": "SCALAR"
    },
    {
      "bufferView": 4,
      "byteOffset": 1648,
      "componentType": 5126,
      "count": 103,
      "max": [
        0.0,
        0.0,
        0.0,
        1.0
      ],
      "min": [
        0.0,
        -0.9396899938583374,
        0.0,
        0.3420200049877167
      ],
      "type": "VEC4"
    },
    {
      "bufferView": 3,
      "byteOffset": 824,
      "componentType": 5126,
      "count": 103,
      "max": [
        8.333330154418945
      ],
      "min": [
        0.041669998317956924
      ],
      "type": "SCALAR"
    },
    {
      "bufferView": 4,
      "byteOffset": 3296,
      "componentType": 5126,
      "count": 103,
      "max": [
        0.6824899911880493,
        -0.21352000534534454,
        0.21645000576972961,
        0.9470700025558472
      ],
      "min": [
        0.09619999676942825,
        -0.304720014333725,
        0.030950000509619713,
        0.6646599769592285
      ],
      "type": "VEC4"
    },
    {
      "bufferView": 3,
      "byteOffset": 1236,
      "componentType": 5126,
      "count": 103,
      "max": [
        8.333330154418945
      ],
      "min": [
        0.041669998317956924
      ],
      "type": "SCALAR"
    },
    {
      "bufferView": 4,
      "byteOffset": 4944,
      "componentType": 5126,
      "count": 103,
      "max": [
        0.0,
        0.9396899938583374,
        0.0,
        1.0
      ],
      "min": [
        0.0,
        0.0,
        0.0,
        0.3420200049877167
      ],
      "type": "VEC4"
    },
    {
      "bufferView": 3,
      "byteOffset": 1648,
      "componentType": 5126,
      "count": 95,
      "max": [
        8.333330154418945
      ],
      "min": [
        0.041669998317956924
      ],
      "type": "SCALAR"
    },
    {
      "bufferView": 4,
      "byteOffset": 6592,
      "componentType": 5126,
      "count": 95,
      "max": [
        0.6740800142288208,
        0.3049600124359131,
        -0.030980000272393227,
        0.9470400214195251
      ],
      "min": [
        0.09618999809026718,
        0.21357999742031097,
        -0.21661999821662903,
        0.6731100082397461
      ],
      "type": "VEC4"
    }
  ],
  "animations": [
    {
      "channels": [
        {
          "sampler": 0,
          "target": {
            "node": 45,
            "path": "rotation"
          }
        },
        {
          "sampler": 1,
          "target": {
            "node": 46,
            "path": "rotation"
          }
        },
        {
          "sampler": 2,
          "target": {
            "node": 63,
            "path": "rotation"
          }
        },
        {
          "sampler": 3,
          "target": {
            "node": 65,
            "path": "rotation"
          }
        },
        {
          "sampler": 4,
          "target": {
            "node": 84,
            "path": "rotation"
          }
        }
      ],
      "name": "Wings",
      "samplers": [
        {
          "input": 188,
          "interpolation": "LINEAR",
          "output": 189
        },
        {
          "input": 190,
          "interpolation": "LINEAR",
          "output": 191
        },
        {
          "input": 192,
          "interpolation": "LINEAR",
          "output": 193
        },
        {
          "input": 194,
          "interpolation": "LINEAR",
          "output": 195
        },
        {
          "input": 196,
          "interpolation": "LINEAR",
          "output": 197
        }
      ]
    }
  ],
  "asset": {
    "extras": {
      "author": "Daniel (https://sketchfab.com/DanielAndersson)",
      "license": "CC-BY-4.0 (http://creativecommons.org/licenses/by/4.0/)",
      "source": "https://sketchfab.com/3d-models/star-wars-lambda-shuttle-9d160e16845a4b518a2d30a7c716f20d",
      "title": "Star Wars: Lambda Shuttle"
    },
    "generator": "Sketchfab-12.67.0",
    "version": "2.0"
  },
  "bufferViews": [
    {
      "buffer": 0,
      "byteLength": 424572,
      "name": "floatBufferViews",
      "target": 34963
    },
    {
      "buffer": 0,
      "byteLength": 388984,
      "byteOffset": 424572,
      "byteStride": 8,
      "name": "floatBufferViews",
      "target": 34962
    },
    {
      "buffer": 0,
      "byteLength": 1166952,
      "byteOffset": 813556,
      "byteStride": 12,
      "name": "floatBufferViews",
      "target": 34962
    },
    {
      "buffer": 0,
      "byteLength": 2028,
      "byteOffset": 1980508,
      "name": "floatBufferViews"
    },
    {
      "buffer": 0,
      "byteLength": 8112,
      "byteOffset": 1982536,
      "byteStride": 16,
      "name": "floatBufferViews"
    }
  ],
  "buffers": [
    {
      "byteLength": 1990648,
      "uri": "scene.bin"
    }
  ],
  "materials": [
    {
      "doubleSided": true,
      "name": "ScratchedMetal",
      "pbrMetallicRoughness": {
        "baseColorFactor": [
          0.6128662499164927,
          0.6128662499164927,
          0.6128662499164927,
          1.0
        ],
        "roughnessFactor": 0.6
      }
    },
    {
      "doubleSided": true,
      "name": "ScratchedMetalDark",
      "pbrMetallicRoughness": {
        "baseColorFactor": [
          0.3362230392391516,
          0.3362230392391516,
          0.3362230392391516,
          1.0
        ],
        "roughnessFactor": 0.6
      }
    },
    {
      "doubleSided": true,
      "emissiveFactor": [
        0.5646351720000004,
        1.0,
        1.0
      ],
      "name": "BlueEngineGlow",
      "pbrMetallicRoughness": {
        "baseColorFactor": [
          0.0,
          0.0057866103999999995,
          0.9213560469999996,
          1.0
        ],
        "roughnessFactor": 0.2
      }
    },
    {
      "doubleSided": true,
      "emissiveFactor": [
        1.0,
        1.0,
        0.0996337499999999
      ],
      "name": "YellowGlow",
      "pbrMetallicRoughness": {
        "baseColorFactor": [
          1.0,
          0.7926760664999999,
          0.0,
          1.0
        ],
        "roughnessFactor": 0.2
      }
    },
    {
      "doubleSided": true,
      "name": "ReflectiveGlass",
      "pbrMetallicRoughness": {
        "baseColorFactor": [
          0.0,
          0.0,
          0.0,
          1.0
        ],
        "roughnessFactor": 0.3
      }
    }
  ],
  "meshes": [
    {
      "name": "AftGunTurret_0",
      "primitives": [
        {
          "attributes": {
            "NORMAL": 1,
            "POSITION": 0,
            "TEXCOORD_0": 2
          },
          "indices": 3,
          "material": 0,
          "mode": 4
        }
      ]
    },
    {
      "name": "AftGun_0",
      "primitives": [
        {
          "attributes": {
            "NORMAL": 5,
            "POSITION": 4,
            "TEXCOORD_0": 6
          },
          "indices": 7,
          "material": 1,
          "mode": 4
        }
      ]
    },
    {
      "name": "CentralSection_0",
      "primitives": [
        {
          "attributes": {
            "NORMAL": 9,
            "POSITION": 8,
            "TEXCOORD_0": 10
          },
          "indices": 11,
          "material": 0,
          "mode": 4
        }
      ]
    },
    {
      "name": "CentralSection_1",
      "primitives": [
        {
          "attributes": {
            "NORMAL": 13,
            "POSITION": 12,
            "TEXCOORD_0": 14
          },
          "indices": 15,
          "material": 1,
          "mode": 4
        }
      ]
    },
    {
      "name": "CentralSection_2",
      "primitives": [
        {
          "attributes": {
            "NORMAL": 17,
            "POSITION": 16,
            "TEXCOORD_0": 18
          },
          "indices": 19,
          "material": 2,
          "mode": 4
        }
      ]
    },
    {
      "name": "CentralSectionGreebles_0",
      "primitives": [
        {
          "attributes": {
            "NORMAL": 21,
            "POSITION": 20,
            "TEXCOORD_0": 22
          },
          "indices": 23,
          "material": 0,
          "mode": 4
        }
      ]
    },
    {
      "name": "CentralSectionGreebles_1",
      "primitives": [
        {
          "attributes": {
            "NORMAL": 25,
            "POSITION": 24,
            "TEXCOORD_0": 26
          },
          "indices": 27,
          "material": 1,
          "mode": 4
        }
      ]
    },
    {
      "name": "CentralSectionHullPlates_0",
      "primitives": [
        {
          "attributes": {
            "NORMAL": 29,
            "POSITION": 28,
            "TEXCOORD_0": 30
          },
          "indices": 31,
          "material": 0,
          "mode": 4
        }
      ]
    },
    {
      "name": "CentralWing_0",
      "primitives": [
        {
          "attributes": {
            "NORMAL": 33,
            "POSITION": 32,
            "TEXCOORD_0": 34
          },
          "indices": 35,
          "material": 0,
          "mode": 4
        }
      ]
    },
    {
      "name": "CentralWingArmorLevel1_0",
      "primitives": [
        {
          "attributes": {
            "NORMAL": 37,
            "POSITION": 36,
            "TEXCOORD_0": 38
          },
          "indices": 39,
          "material": 0,
          "mode": 4
        }
      ]
    },
    {
      "name": "CentralWingArmorLevel2_0",
      "primitives": [
        {
          "attributes": {
            "NORMAL": 41,
            "POSITION": 40,
            "TEXCOORD_0": 42
          },
          "indices": 43,
          "material": 0,
          "mode": 4
        }
      ]
    },
    {
      "name": "CentralWingArmorLevel2_1",
      "primitives": [
        {
          "attributes": {
            "NORMAL": 45,
            "POSITION": 44,
            "TEXCOORD_0": 46
          },
          "indices": 47,
          "material": 1,
          "mode": 4
        }
      ]
    },
    {
      "name": "CentralWingArmorLevel3_0",
      "primitives": [
        {
          "attributes": {
            "NORMAL": 49,
            "POSITION": 48,
            "TEXCOORD_0": 50
          },
          "indices": 51,
          "material": 0,
          "mode": 4
        }
      ]
    },
    {
      "name": "CentralWingGreebles_0",
      "primitives": [
        {
          "attributes": {
            "NORMAL": 53,
            "POSITION": 52,
            "TEXCOORD_0": 54
          },
          "indices": 55,
          "material": 0,
          "mode": 4
        }
      ]
    },
    {
      "name": "CentralWingGreebles_1",
      "primitives": [
        {
          "attributes": {
            "NORMAL": 57,
            "POSITION": 56,
            "TEXCOORD_0": 58
          },
          "indices": 59,
          "material": 3,
          "mode": 4
        }
      ]
    },
    {
      "name": "CentralWingHolder_0",
      "primitives": [
        {
          "attributes": {
            "NORMAL": 61,
            "POSITION": 60,
            "TEXCOORD_0": 62
          },
          "indices": 63,
          "material": 0,
          "mode": 4
        }
      ]
    },
    {
      "name": "Cockpit_0",
      "primitives": [
        {
          "attributes": {
            "NORMAL": 65,
            "POSITION": 64,
            "TEXCOORD_0": 66
          },
          "indices": 67,
          "material": 0,
          "mode": 4
        }
      ]
    },
    {
      "name": "Cockpit_1",
      "primitives": [
        {
          "attributes": {
            "NORMAL": 69,
            "POSITION": 68,
            "TEXCOORD_0": 70
          },
          "indices": 71,
          "material": 4,
          "mode": 4
        }
      ]
    },
    {
      "name": "CockpitCables_0",
      "primitives": [
        {
          "attributes": {
            "NORMAL": 73,
            "POSITION": 72,
            "TEXCOORD_0": 74
          },
          "indices": 75,
          "material": 4,
          "mode": 4
        }
      ]
    },
    {
      "name": "CockpitInteriorSection_0",
      "primitives": [
        {
          "attributes": {
            "NORMAL": 77,
            "POSITION": 76,
            "TEXCOORD_0": 78
          },
          "indices": 79,
          "material": 1,
          "mode": 4
        }
      ]
    },
    {
      "name": "FrontGunCover_0",
      "primitives": [
        {
          "attributes": {
            "NORMAL": 81,
            "POSITION": 80,
            "TEXCOORD_0": 82
          },
          "indices": 83,
          "material": 0,
          "mode": 4
        }
      ]
    },
    {
      "name": "FrontGunHolder_0",
      "primitives": [
        {
          "attributes": {
            "NORMAL": 85,
            "POSITION": 84,
            "TEXCOORD_0": 86
          },
          "indices": 87,
          "material": 1,
          "mode": 4
        }
      ]
    },
    {
      "name": "LeftFrontGun_0",
      "primitives": [
        {
          "attributes": {
            "NORMAL": 89,
            "POSITION": 88,
            "TEXCOORD_0": 90
          },
          "indices": 91,
          "material": 1,
          "mode": 4
        }
      ]
    },
    {
      "name": "RightFrontGun_0",
      "primitives": [
        {
          "attributes": {
            "NORMAL": 93,
            "POSITION": 92,
            "TEXCOORD_0": 94
          },
          "indices": 95,
          "material": 1,
          "mode": 4
        }
      ]
    },
    {
      "name": "LeftWing_0",
      "primitives": [
        {
          "attributes": {
            "NORMAL": 97,
            "POSITION": 96,
            "TEXCOORD_0": 98
          },
          "indices": 99,
          "material": 0,
          "mode": 4
        }
      ]
    },
    {
      "name": "LeftWing_1",
      "primitives": [
        {
          "attributes": {
            "NORMAL": 101,
            "POSITION": 100,
            "TEXCOORD_0": 102
          },
          "indices": 103,
          "material": 3,
          "mode": 4
        }
      ]
    },
    {
      "name": "LeftWingGreebles_0",
      "primitives": [
        {
          "attributes": {
            "NORMAL": 105,
            "POSITION": 104,
            "TEXCOORD_0": 106
          },
          "indices": 107,
          "material": 0,
          "mode": 4
        }
      ]
    },
    {
      "name": "LeftWingInnerHullPlatesLevel1_0",
      "primitives": [
        {
          "attributes": {
            "NORMAL": 109,
            "POSITION": 108,
            "TEXCOORD_0": 110
          },
          "indices": 111,
          "material": 0,
          "mode": 4
        }
      ]
    },
    {
      "name": "LeftWingInnerHullPlatesLevel2_0",
      "primitives": [
        {
          "attributes": {
            "NORMAL": 113,
            "POSITION": 112,
            "TEXCOORD_0": 114
          },
          "indices": 115,
          "material": 0,
          "mode": 4
        }
      ]
    },
    {
      "name": "LeftWingInnerHullPlatesLevel2_1",
      "primitives": [
        {
          "attributes": {
            "NORMAL": 117,
            "POSITION": 116,
            "TEXCOORD_0": 118
          },
          "indices": 119,
          "material": 1,
          "mode": 4
        }
      ]
    },
    {
      "name": "LeftWingOuterHullPlatesLevel2_0",
      "primitives": [
        {
          "attributes": {
            "NORMAL": 121,
            "POSITION": 120,
            "TEXCOORD_0": 122
          },
          "indices": 123,
          "material": 0,
          "mode": 4
        }
      ]
    },
    {
      "name": "LeftWingOuterHullPlatesLevel2_1",
      "primitives": [
        {
          "attributes": {
            "NORMAL": 125,
            "POSITION": 124,
            "TEXCOORD_0": 126
          },
          "indices": 127,
          "material": 1,
          "mode": 4
        }
      ]
    },
    {
      "name": "LeftWingOuterHullPlatesLevel3_0",
      "primitives": [
        {
          "attributes": {
            "NORMAL": 129,
            "POSITION": 128,
            "TEXCOORD_0": 130
          },
          "indices": 131,
          "material": 0,
          "mode": 4
        }
      ]
    },
    {
      "name": "LeftWingOutHullPlatesLevel1_0",
      "primitives": [
        {
          "attributes": {
            "NORMAL": 133,
            "POSITION": 132,
            "TEXCOORD_0": 134
          },
          "indices": 135,
          "material": 0,
          "mode": 4
        }
      ]
    },
    {
      "name": "LeftWingTurret_0",
      "primitives": [
        {
          "attributes": {
            "NORMAL": 137,
            "POSITION": 136,
            "TEXCOORD_0": 138
          },
          "indices": 139,
          "material": 0,
          "mode": 4
        }
      ]
    },
    {
      "name": "RightWing_0",
      "primitives": [
        {
          "attributes": {
            "NORMAL": 141,
            "POSITION": 140,
            "TEXCOORD_0": 142
          },
          "indices": 143,
          "material": 0,
          "mode": 4
        }
      ]
    },
    {
      "name": "RightWing_1",
      "primitives": [
        {
          "attributes": {
            "NORMAL": 145,
            "POSITION": 144,
            "TEXCOORD_0": 146
          },
          "indices": 147,
          "material": 3,
          "mode": 4
        }
      ]
    },
    {
      "name": "RightWingGreebles_0",
      "primitives": [
        {
          "attributes": {
            "NORMAL": 149,
            "POSITION": 148,
            "TEXCOORD_0": 150
          },
          "indices": 151,
          "material": 0,
          "mode": 4
        }
      ]
    },
    {
      "name": "RightWingInnerHullPlatesLevel1_0",
      "primitives": [
        {
          "attributes": {
            "NORMAL": 153,
            "POSITION": 152,
            "TEXCOORD_0": 154
          },
          "indices": 155,
          "material": 0,
          "mode": 4
        }
      ]
    },
    {
      "name": "RightWingInnerHullPlatesLevel2_0",
      "primitives": [
        {
          "attributes": {
            "NORMAL": 157,
            "POSITION": 156,
            "TEXCOORD_0": 158
          },
          "indices": 159,
          "material": 0,
          "mode": 4
        }
      ]
    },
    {
      "name": "RightWingInnerHullPlatesLevel2_1",
      "primitives": [
        {
          "attributes": {
            "NORMAL": 161,
            "POSITION": 160,
            "TEXCOORD_0": 162
          },
          "indices": 163,
          "material": 1,
          "mode": 4
        }
      ]
    },
    {
      "name": "RightWingOuterHullPlatesLevel1_0",
      "primitives": [
        {
          "attributes": {
            "NORMAL": 165,
            "POSITION": 164,
            "TEXCOORD_0": 166
          },
          "indices": 167,
          "material": 0,
          "mode": 4
        }
      ]
    },
    {
      "name": "RightWingOuterHullPlatesLevel2_0",
      "primitives": [
        {
          "attributes": {
            "NORMAL": 169,
            "POSITION": 168,
            "TEXCOORD_0": 170
          },
          "indices": 171,
          "material": 0,
          "mode": 4
        }
      ]
    },
    {
      "name": "RightWingOuterHullPlatesLevel2_1",
      "primitives": [
        {
          "attributes": {
            "NORMAL": 173,
            "POSITION": 172,
            "TEXCOORD_0": 174
          },
          "indices": 175,
          "material": 1,
          "mode": 4
        }
      ]
    },
    {
      "name": "RightWingOuterHullPlatesLevel3_0",
      "primitives": [
        {
          "attributes": {
            "NORMAL": 177,
            "POSITION": 176,
            "TEXCOORD_0": 178
          },
          "indices": 179,
          "material": 0,
          "mode": 4
        }
      ]
    },
    {
      "name": "RightWingOuterHullPlatesLevel4_0",
      "primitives": [
        {
          "attributes": {
            "NORMAL": 181,
            "POSITION": 180,
            "TEXCOORD_0": 182
          },
          "indices": 183,
          "material": 0,
          "mode": 4
        }
      ]
    },
    {
      "name": "RightWingTurret_0",
      "primitives": [
        {
          "attributes": {
            "NORMAL": 185,
            "POSITION": 184,
            "TEXCOORD_0": 186
          },
          "indices": 187,
          "material": 0,
          "mode": 4
        }
      ]
    }
  ],
  "nodes": [
    {
      "children": [
        1
      ],
      "matrix": [
        10.0,
        0.0,
        0.0,
        0.0,
        0.0,
        2.220446049250313e-15,
        -10.0,
        0.0,
        0.0,
        10.0,
        2.220446049250313e-15,
        0.0,
        0.0,
        0.0,
        0.0,
        1.0
      ],
      "name": "Sketchfab_model"
    },
    {
      "children": [
        2
      ],
      "name": "Root"
    },
    {
      "children": [
        3,
        7,
        11,
        14,
        16,
        18,
        20,
        23,
        25,
        28,
        30,
        33,
        35,
        37,
        39,
        41,
        43,
        45,
        46,
        65
      ],
      "name": "LambdaShuttle"
    },
    {
      "children": [
        4,
        5
      ],
      "matrix": [
        1.0,
        0.0,
        0.0,
        0.0,
        0.0,
        1.0,
        0.0,
        0.0,
        0.0,
        0.0,
        1.0,
        0.0,
        0.0,
        0.7366400000000002,
        -0.18102000000000001,
        1.0
      ],
      "name": "AftGunTurret"
    },
    {
      "mesh": 0,
      "name": "AftGunTurret_0"
    },
    {
      "children": [
        6
      ],
      "name": "AftGun"
    },
    {
      "mesh": 1,
      "name": "AftGun_0"
    },
    {
      "children": [
        8,
        9,
        10
      ],
      "matrix": [
        1.0,
        0.0,
        0.0,
        0.0,
        0.0,
        1.0,
        0.0,
        0.0,
        0.0,
        0.0,
        1.0,
        0.0,
        -0.0,
        0.22356000000000004,
        -0.39925000000000005,
        1.0
      ],
      "name": "CentralSection"
    },
    {
      "mesh": 2,
      "name": "CentralSection_0"
    },
    {
      "mesh": 3,
      "name": "CentralSection_1"
    },
    {
      "mesh": 4,
      "name": "CentralSection_2"
    },
    {
      "children": [
        12,
        13
      ],
      "name": "CentralSectionGreebles"
    },
    {
      "mesh": 5,
      "name": "CentralSectionGreebles_0"
    },
    {
      "mesh": 6,
      "name": "CentralSectionGreebles_1"
    },
    {
      "children": [
        15
      ],
      "matrix": [
        1.0,
        0.0,
        0.0,
        0.0,
        0.0,
        1.0,
        0.0,
        0.0,
        0.0,
        0.0,
        1.0,
        0.0,
        -0.0,
        0.22356000000000004,
        -0.39925000000000005,
        1.0
      ],
      "name": "CentralSectionHullPlates"
    },
    {
      "mesh": 7,
      "name": "CentralSectionHullPlates_0"
    },
    {
      "children": [
        17
      ],
      "matrix": [
        1.0,
        0.0,
        0.0,
        0.0,
        0.0,
        1.0,
        0.0,
        0.0,
        0.0,
        0.0,
        1.0,
        0.0,
        0.0,
        0.0,
        0.52228,
        1.0
      ],
      "name": "CentralWing"
    },
    {
      "mesh": 8,
      "name": "CentralWing_0"
    },
    {
      "children": [
        19
      ],
      "matrix": [
        1.0,
        0.0,
        0.0,
        0.0,
        0.0,
        1.0,
        0.0,
        0.0,
        0.0,
        0.0,
        1.0,
        0.0,
        0.0,
        0.0,
        0.52228,
        1.0
      ],
      "name": "CentralWingArmorLevel1"
    },
    {
      "mesh": 9,
      "name": "CentralWingArmorLevel1_0"
    },
    {
      "children": [
        21,
        22
      ],
      "matrix": [
        1.0,
        0.0,
        0.0,
        0.0,
        0.0,
        1.0,
        0.0,
        0.0,
        0.0,
        0.0,
        1.0,
        0.0,
        0.0,
        0.0,
        0.52228,
        1.0
      ],
      "name": "CentralWingArmorLevel2"
    },
    {
      "mesh": 10,
      "name": "CentralWingArmorLevel2_0"
    },
    {
      "mesh": 11,
      "name": "CentralWingArmorLevel2_1"
    },
    {
      "children": [
        24
      ],
      "matrix": [
        1.0,
        0.0,
        0.0,
        0.0,
        0.0,
        1.0,
        0.0,
        0.0,
        0.0,
        0.0,
        1.0,
        0.0,
        0.0,
        0.0,
        0.52228,
        1.0
      ],
      "name": "CentralWingArmorLevel3"
    },
    {
      "mesh": 12,
      "name": "CentralWingArmorLevel3_0"
    },
    {
      "children": [
        26,
        27
      ],
      "matrix": [
        1.0,
        0.0,
        0.0,
        0.0,
        0.0,
        1.0,
        0.0,
        0.0,
        0.0,
        0.0,
        1.0,
        0.0,
        -0.0,
        -0.5796900000000001,
        0.28416,
        1.0
      ],
      "name": "CentralWingGreebles"
    },
    {
      "mesh": 13,
      "name": "CentralWingGreebles_0"
    },
    {
      "mesh": 14,
      "name": "CentralWingGreebles_1"
    },
    {
      "children": [
        29
      ],
      "matrix": [
        1.0,
        0.0,
        0.0,
        0.0,
        0.0,
        1.0,
        0.0,
        0.0,
        0.0,
        0.0,
        1.0,
        0.0,
        0.0,
        0.5432,
        0.15183000000000002,
        1.0
      ],
      "name": "CentralWingHolder"
    },
    {
      "mesh": 15,
      "name": "CentralWingHolder_0"
    },
    {
      "children": [
        31,
        32
      ],
      "matrix": [
        1.0,
        0.0,
        0.0,
        0.0,
        0.0,
        1.0,
        0.0,
        0.0,
        0.0,
        0.0,
        1.0,
        0.0,
        -0.0,
        -1.19492,
        -0.28678000000000003,
        1.0
      ],
      "name": "Cockpit"
    },
    {
      "mesh": 16,
      "name": "Cockpit_0"
    },
    {
      "mesh": 17,
      "name": "Cockpit_1"
    },
    {
      "children": [
        34
      ],
      "matrix": [
        1.0,
        0.0,
        0.0,
        0.0,
        0.0,
        1.0,
        0.0,
        0.0,
        0.0,
        0.0,
        1.0,
        0.0,
        0.19314000000000003,
        -0.5887000000000001,
        -0.4474800000000001,
        1.0
      ],
      "name": "CockpitCables"
    },
    {
      "mesh": 18,
      "name": "CockpitCables_0"
    },
    {
      "children": [
        36
      ],
      "matrix": [
        1.0,
        0.0,
        0.0,
        0.0,
        0.0,
        1.0,
        0.0,
        0.0,
        0.0,
        0.0,
        1.0,
        0.0,
        -0.0,
        -0.31457000000000007,
        -0.34169000000000005,
        1.0
      ],
      "name": "CockpitInteriorSection"
    },
    {
      "mesh": 19,
      "name": "CockpitInteriorSection_0"
    },
    {
      "children": [
        38
      ],
      "name": "FrontGunCover"
    },
    {
      "mesh": 20,
      "name": "FrontGunCover_0"
    },
    {
      "children": [
        40
      ],
      "matrix": [
        0.006180000000000002,
        0.0,
        0.0,
        0.0,
        0.0,
        0.0,
        -0.006180000000000002,
        0.0,
        -0.0,
        0.006180000000000002,
        0.0,
        0.0,
        0.0,
        0.0,
        0.0,
        1.0
      ],
      "name": "FrontGunHolder"
    },
    {
      "mesh": 21,
      "name": "FrontGunHolder_0"
    },
    {
      "children": [
        42
      ],
      "matrix": [
        1.0,
        0.0,
        0.0,
        0.0,
        0.0,
        1.0,
        0.0,
        0.0,
        0.0,
        0.0,
        1.0,
        0.0,
        -0.5131,
        -0.27981000000000006,
        -0.41263,
        1.0
      ],
      "name": "LeftFrontGun"
    },
    {
      "mesh": 22,
      "name": "LeftFrontGun_0"
    },
    {
      "children": [
        44
      ],
      "matrix": [
        1.0,
        0.0,
        0.0,
        0.0,
        0.0,
        1.0,
        0.0,
        0.0,
        0.0,
        0.0,
        1.0,
        0.0,
        0.5131,
        -0.27981000000000006,
        -0.41263,
        1.0
      ],
      "name": "RightFrontGun"
    },
    {
      "mesh": 23,
      "name": "RightFrontGun_0"
    },
    {
      "name": "WingRotation",
      "translation": [
        0.0,
        -2.0839900970458984,
        0.0
      ]
    },
    {
      "children": [
        47,
        48,
        49,
        51,
        53,
        56,
        59,
        61,
        63
      ],
      "name": "LeftWing",
      "translation": [
        -0.513700008392334,
        0.3082599937915802,
        -0.39925000071525574
      ]
    },
    {
      "mesh": 24,
      "name": "LeftWing_0"
    },
    {
      "mesh": 25,
      "name": "LeftWing_1"
    },
    {
      "children": [
        50
      ],
      "matrix": [
        1.0,
        0.0,
        0.0,
        0.0,
        0.0,
        1.0,
        0.0,
        0.0,
        0.0,
        0.0,
        1.0,
        0.0,
        0.5137,
        -0.30826000000000003,
        0.39925000000000005,
        1.0
      ],
      "name": "LeftWingGreebles"
    },
    {
      "mesh": 26,
      "name": "LeftWingGreebles_0"
    },
    {
      "children": [
        52
      ],
      "matrix": [
        1.0,
        0.0,
        0.0,
        0.0,
        0.0,
        1.0,
        0.0,
        0.0,
        0.0,
        0.0,
        1.0,
        0.0,
        0.5137,
        -0.30826000000000003,
        0.39925000000000005,
        1.0
      ],
      "name": "LeftWingInnerHullPlatesLevel1"
    },
    {
      "mesh": 27,
      "name": "LeftWingInnerHullPlatesLevel1_0"
    },
    {
      "children": [
        54,
        55
      ],
      "matrix": [
        1.0,
        0.0,
        0.0,
        0.0,
        0.0,
        1.0,
        0.0,
        0.0,
        0.0,
        0.0,
        1.0,
        0.0,
        0.5137,
        -0.30826000000000003,
        0.39925000000000005,
        1.0
      ],
      "name": "LeftWingInnerHullPlatesLevel2"
    },
    {
      "mesh": 28,
      "name": "LeftWingInnerHullPlatesLevel2_0"
    },
    {
      "mesh": 29,
      "name": "LeftWingInnerHullPlatesLevel2_1"
    },
    {
      "children": [
        57,
        58
      ],
      "matrix": [
        1.0,
        0.0,
        0.0,
        0.0,
        0.0,
        1.0,
        0.0,
        0.0,
        0.0,
        0.0,
        1.0,
        0.0,
        0.5137,
        -0.30826000000000003,
        0.39925000000000005,
        1.0
      ],
      "name": "LeftWingOuterHullPlatesLevel2"
    },
    {
      "mesh": 30,
      "name": "LeftWingOuterHullPlatesLevel2_0"
    },
    {
      "mesh": 31,
      "name": "LeftWingOuterHullPlatesLevel2_1"
    },
    {
      "children": [
        60
      ],
      "matrix": [
        1.0,
        0.0,
        0.0,
        0.0,
        0.0,
        1.0,
        0.0,
        0.0,
        0.0,
        0.0,
        1.0,
        0.0,
        0.5137,
        -0.30826000000000003,
        0.39925000000000005,
        1.0
      ],
      "name": "LeftWingOuterHullPlatesLevel3"
    },
    {
      "mesh": 32,
      "name": "LeftWingOuterHullPlatesLevel3_0"
    },
    {
      "children": [
        62
      ],
      "matrix": [
        1.0,
        0.0,
        0.0,
        0.0,
        0.0,
        1.0,
        0.0,
        0.0,
        0.0,
        0.0,
        1.0,
        0.0,
        0.5137,
        -0.30826000000000003,
        0.39925000000000005,
        1.0
      ],
      "name": "LeftWingOutHullPlatesLevel1"
    },
    {
      "mesh": 33,
      "name": "LeftWingOutHullPlatesLevel1_0"
    },
    {
      "children": [
        64
      ],
      "name": "LeftWingTurret",
      "rotation": [
        0.09619960933923721,
        -0.3047187924385071,
        0.030949875712394714,
        0.9470661878585815
      ],
      "translation": [
        -0.10055000334978104,
        -0.3806599974632263,
        0.12741999328136444
      ]
    },
    {
      "mesh": 34,
      "name": "LeftWingTurret_0"
    },
    {
      "children": [
        66,
        67,
        68,
        70,
        72,
        75,
        77,
        80,
        82,
        84
      ],
      "name": "RightWing",
      "translation": [
        0.513700008392334,
        0.3082599937915802,
        -0.39925000071525574
      ]
    },
    {
      "mesh": 35,
      "name": "RightWing_0"
    },
    {
      "mesh": 36,
      "name": "RightWing_1"
    },
    {
      "children": [
        69
      ],
      "matrix": [
        1.0,
        0.0,
        0.0,
        0.0,
        0.0,
        1.0,
        0.0,
        0.0,
        0.0,
        0.0,
        1.0,
        0.0,
        -0.5137,
        -0.30826000000000003,
        0.39925000000000005,
        1.0
      ],
      "name": "RightWingGreebles"
    },
    {
      "mesh": 37,
      "name": "RightWingGreebles_0"
    },
    {
      "children": [
        71
      ],
      "matrix": [
        1.0,
        0.0,
        0.0,
        0.0,
        0.0,
        1.0,
        0.0,
        0.0,
        0.0,
        0.0,
        1.0,
        0.0,
        -0.5137,
        -0.30826000000000003,
        0.39925000000000005,
        1.0
      ],
      "name": "RightWingInnerHullPlatesLevel1"
    },
    {
      "mesh": 38,
      "name": "RightWingInnerHullPlatesLevel1_0"
    },
    {
      "children": [
        73,
        74
      ],
      "matrix": [
        1.0,
        0.0,
        0.0,
        0.0,
        0.0,
        1.0,
        0.0,
        0.0,
        0.0,
        0.0,
        1.0,
        0.0,
        -0.5137,
        -0.30826000000000003,
        0.39925000000000005,
        1.0
      ],
      "name": "RightWingInnerHullPlatesLevel2"
    },
    {
      "mesh": 39,
      "name": "RightWingInnerHullPlatesLevel2_0"
    },
    {
      "mesh": 40,
      "name": "RightWingInnerHullPlatesLevel2_1"
    },
    {
      "children": [
        76
      ],
      "matrix": [
        1.0,
        0.0,
        0.0,
        0.0,
        0.0,
        1.0,
        0.0,
        0.0,
        0.0,
        0.0,
        1.0,
        0.0,
        -0.5137,
        -0.30826000000000003,
        0.39925000000000005,
        1.0
      ],
      "name": "RightWingOuterHullPlatesLevel1"
    },
    {
      "mesh": 41,
      "name": "RightWingOuterHullPlatesLevel1_0"
    },
    {
      "children": [
        78,
        79
      ],
      "matrix": [
        1.0,
        0.0,
        0.0,
        0.0,
        0.0,
        1.0,
        0.0,
        0.0,
        0.0,
        0.0,
        1.0,
        0.0,
        -0.5137,
        -0.30826000000000003,
        0.39925000000000005,
        1.0
      ],
      "name": "RightWingOuterHullPlatesLevel2"
    },
    {
      "mesh": 42,
      "name": "RightWingOuterHullPlatesLevel2_0"
    },
    {
      "mesh": 43,
      "name": "RightWingOuterHullPlatesLevel2_1"
    },
    {
      "children": [
        81
      ],
      "matrix": [
        1.0,
        0.0,
        0.0,
        0.0,
        0.0,
        1.0,
        0.0,
        0.0,
        0.0,
        0.0,
        1.0,
        0.0,
        -0.5137,
        -0.30826000000000003,
        0.39925000000000005,
        1.0
      ],
      "name": "RightWingOuterHullPlatesLevel3"
    },
    {
      "mesh": 44,
      "name": "RightWingOuterHullPlatesLevel3_0"
    },
    {
      "children": [
        83
      ],
      "matrix": [
        1.0,
        0.0,
        0.0,
        0.0,
        0.0,
        1.0,
        0.0,
        0.0,
        0.0,
        0.0,
        1.0,
        0.0,
        -0.5137,
        -0.30826000000000003,
        0.39925000000000005,
        1.0
      ],
      "name": "RightWingOuterHullPlatesLevel4"
    },
    {
      "mesh": 45,
      "name": "RightWingOuterHullPlatesLevel4_0"
    },
    {
      "children": [
        85
      ],
      "name": "RightWingTurret",
      "rotation": [
        0.09648968279361725,
        0.30470898747444153,
        -0.031039895489811897,
        0.947036862373352
      ],
      "translation": [
        0.10055000334978104,
        -0.3806599974632263,
        0.12741999328136444
      ]
    },
    {
      "mesh": 46,
      "name": "RightWingTurret_0"
    }
  ],
  "scene": 0,
  "scenes": [
    {
      "name": "Sketchfab_Scene",
      "nodes": [
        0
      ]
    }
  ]
}
