{
  "accessors": [
    {
      "bufferView": 2,
      "componentType": 5126,
      "count": 639,
      "max": [
        0.3534497618675232,
        0.4671188294887543,
        0.19724543392658234
      ],
      "min": [
        0.14514432847499847,
        0.08323181420564651,
        0.001904530101455748
      ],
      "type": "VEC3"
    },
    {
      "bufferView": 2,
      "byteOffset": 7668,
      "componentType": 5126,
      "count": 639,
      "max": [
        0.9963917136192322,
        0.8290841579437256,
        0.9997572302818298
      ],
      "min": [
        -0.995857298374176,
        -0.9998266696929932,
        -0.9985997080802917
      ],
      "type": "VEC3"
    },
    {
      "bufferView": 3,
      "componentType": 5126,
      "count": 639,
      "max": [
        0.9979438185691833,
        0.9992995262145996,
        0.9951229095458984,
        1.0
      ],
      "min": [
        -0.9736180901527405,
        -0.3031507432460785,
        -0.6776962280273438,
        1.0
      ],
      "type": "VEC4"
    },
    {
      "bufferView": 1,
      "componentType": 5126,
      "count": 639,
      "max": [
        0.7026758193969727,
        0.3091917037963867
      ],
      "min": [
        0.46031126379966736,
        0.0049898442812263966
      ],
      "type": "VEC2"
    },
    {
      "bufferView": 1,
      "byteOffset": 5112,
      "componentType": 5126,
      "count": 639,
      "max": [
        0.7026758193969727,
        0.3091917037963867
      ],
      "min": [
        0.46031126379966736,
        0.0049898442812263966
      ],
      "type": "VEC2"
    },
    {
      "bufferView": 1,
      "byteOffset": 10224,
      "componentType": 5126,
      "count": 639,
      "max": [
        0.7026758193969727,
        0.3091917037963867
      ],
      "min": [
        0.46031126379966736,
        0.0049898442812263966
      ],
      "type": "VEC2"
    },
    {
      "bufferView": 0,
      "componentType": 5125,
      "count": 3534,
      "type": "SCALAR"
    },
    {
      "bufferView": 2,
      "byteOffset": 15336,
      "componentType": 5126,
      "count": 1488,
      "max": [
        0.3420945405960083,
        0.13901054859161377,
        0.05312103033065796
      ],
      "min": [
        -0.3401275873184204,
        -0.8556728959083557,
        -0.2992684543132782
      ],
      "type": "VEC3"
    },
    {
      "bufferView": 2,
      "byteOffset": 33192,
      "componentType": 5126,
      "count": 1488,
      "max": [
        0.998356819152832,
        0.9986901879310608,
        0.9998149275779724
      ],
      "min": [
        -0.9999189376831055,
        -0.9985668659210205,
        -0.9978062510490417
      ],
      "type": "VEC3"
    },
    {
      "bufferView": 3,
      "byteOffset": 10224,
      "componentType": 5126,
      "count": 1488,
      "max": [
        0.9975888729095459,
        0.9985242486000061,
        0.9973304867744446,
        1.0
      ],
      "min": [
        -0.9990209341049194,
        -0.9997564554214478,
        -0.99782794713974,
        1.0
      ],
      "type": "VEC4"
    },
    {
      "bufferView": 1,
      "byteOffset": 15336,
      "componentType": 5126,
      "count": 1488,
      "max": [
        0.9420931339263916,
        0.9460136890411377
      ],
      "min": [
        0.23919634521007538,
        0.00413265498355031
      ],
      "type": "VEC2"
    },
    {
      "bufferView": 1,
      "byteOffset": 27240,
      "componentType": 5126,
      "count": 1488,
      "max": [
        0.9420931339263916,
        0.9460136890411377
      ],
      "min": [
        0.23919634521007538,
        0.00413265498355031
      ],
      "type": "VEC2"
    },
    {
      "bufferView": 1,
      "byteOffset": 39144,
      "componentType": 5126,
      "count": 1488,
      "max": [
        0.9420931339263916,
        0.9460136890411377
      ],
      "min": [
        0.23919634521007538,
        0.00413265498355031
      ],
      "type": "VEC2"
    },
    {
      "bufferView": 0,
      "byteOffset": 14136,
      "componentType": 5125,
      "count": 7299,
      "type": "SCALAR"
    },
    {
      "bufferView": 2,
      "byteOffset": 51048,
      "componentType": 5126,
      "count": 2054,
      "max": [
        0.1978842169046402,
        1.5514380931854248,
        0.25635966658592224
      ],
      "min": [
        -0.17010855674743652,
        1.003050446510315,
        0.010798445902764797
      ],
      "type": "VEC3"
    },
    {
      "bufferView": 2,
      "byteOffset": 75696,
      "componentType": 5126,
      "count": 2054,
      "max": [
        0.9986870288848877,
        0.9985517263412476,
        0.9979780912399292
      ],
      "min": [
        -0.9968492388725281,
        -0.9964906573295593,
        -0.9993293881416321
      ],
      "type": "VEC3"
    },
    {
      "bufferView": 3,
      "byteOffset": 34032,
      "componentType": 5126,
      "count": 2054,
      "max": [
        0.9992842078208923,
        0.9989905953407288,
        0.9998048543930054,
        1.0
      ],
      "min": [
        -0.9996106624603271,
        -0.9979652166366577,
        -0.9983847737312317,
        1.0
      ],
      "type": "VEC4"
    },
    {
      "bufferView": 1,
      "byteOffset": 51048,
      "componentType": 5126,
      "count": 2054,
      "max": [
        0.996337890625,
        0.9914684295654297
      ],
      "min": [
        0.12623828649520874,
        0.003662109375
      ],
      "type": "VEC2"
    },
    {
      "bufferView": 1,
      "byteOffset": 67480,
      "componentType": 5126,
      "count": 2054,
      "max": [
        0.996337890625,
        0.9914684295654297
      ],
      "min": [
        0.12623828649520874,
        0.003662109375
      ],
      "type": "VEC2"
    },
    {
      "bufferView": 1,
      "byteOffset": 83912,
      "componentType": 5126,
      "count": 2054,
      "max": [
        0.996337890625,
        0.9914684295654297
      ],
      "min": [
        0.12623828649520874,
        0.003662109375
      ],
      "type": "VEC2"
    },
    {
      "bufferView": 0,
      "byteOffset": 43332,
      "componentType": 5125,
      "count": 9960,
      "type": "SCALAR"
    },
    {
      "bufferView": 2,
      "byteOffset": 100344,
      "componentType": 5126,
      "count": 4715,
      "max": [
        0.23484647274017334,
        1.0409058332443237,
        0.1827203333377838
      ],
      "min": [
        -0.24865540862083435,
        0.778522253036499,
        -0.13283798098564148
      ],
      "type": "VEC3"
    },
    {
      "bufferView": 2,
      "byteOffset": 156924,
      "componentType": 5126,
      "count": 4715,
      "max": [
        0.9993705153465271,
        0.9999853372573853,
        0.9997637867927551
      ],
      "min": [
        -0.9988604187965393,
        -0.9999467730522156,
        -0.9999512434005737
      ],
      "type": "VEC3"
    },
    {
      "bufferView": 3,
      "byteOffset": 66896,
      "componentType": 5126,
      "count": 4715,
      "max": [
        0.9998849630355835,
        0.9995711445808411,
        0.9995095133781433,
        1.0
      ],
      "min": [
        -0.9998781681060791,
        -0.9999773502349854,
        -0.9996358156204224,
        -1.0
      ],
      "type": "VEC4"
    },
    {
      "bufferView": 1,
      "byteOffset": 100344,
      "componentType": 5126,
      "count": 4715,
      "max": [
        0.9906741380691528,
        0.9921061396598816
      ],
      "min": [
        0.003662109375,
        0.003662109375
      ],
      "type": "VEC2"
    },
    {
      "bufferView": 1,
      "byteOffset": 138064,
      "componentType": 5126,
      "count": 4715,
      "max": [
        0.9906741380691528,
        0.9921061396598816
      ],
      "min": [
        0.003662109375,
        0.003662109375
      ],
      "type": "VEC2"
    },
    {
      "bufferView": 1,
      "byteOffset": 175784,
      "componentType": 5126,
      "count": 4715,
      "max": [
        0.9906741380691528,
        0.9921061396598816
      ],
      "min": [
        0.003662109375,
        0.003662109375
      ],
      "type": "VEC2"
    },
    {
      "bufferView": 0,
      "byteOffset": 83172,
      "componentType": 5125,
      "count": 14250,
      "type": "SCALAR"
    },
    {
      "bufferView": 2,
      "byteOffset": 213504,
      "componentType": 5126,
      "count": 1413,
      "max": [
        0.5475836396217346,
        0.1075359508395195,
        0.11623787879943848
      ],
      "min": [
        -0.17369239032268524,
        -0.24030807614326477,
        -0.36773180961608887
      ],
      "type": "VEC3"
    },
    {
      "bufferView": 2,
      "byteOffset": 230460,
      "componentType": 5126,
      "count": 1413,
      "max": [
        0.9997158646583557,
        0.9997465014457703,
        0.9934905171394348
      ],
      "min": [
        -0.9988614320755005,
        -0.9998639822006226,
        -0.9997857809066772
      ],
      "type": "VEC3"
    },
    {
      "bufferView": 3,
      "byteOffset": 142336,
      "componentType": 5126,
      "count": 1413,
      "max": [
        0.9995808005332947,
        0.9989704489707947,
        0.998790442943573,
        1.0
      ],
      "min": [
        -0.9990277886390686,
        -0.9992050528526306,
        -0.9900471568107605,
        -1.0
      ],
      "type": "VEC4"
    },
    {
      "bufferView": 1,
      "byteOffset": 213504,
      "componentType": 5126,
      "count": 1413,
      "max": [
        0.8736684918403625,
        0.7858177423477173
      ],
      "min": [
        0.003662109375,
        0.003662109375
      ],
      "type": "VEC2"
    },
    {
      "bufferView": 1,
      "byteOffset": 224808,
      "componentType": 5126,
      "count": 1413,
      "max": [
        0.8736684918403625,
        0.7858177423477173
      ],
      "min": [
        0.003662109375,
        0.003662109375
      ],
      "type": "VEC2"
    },
    {
      "bufferView": 1,
      "byteOffset": 236112,
      "componentType": 5126,
      "count": 1413,
      "max": [
        0.8736684918403625,
        0.7858177423477173
      ],
      "min": [
        0.003662109375,
        0.003662109375
      ],
      "type": "VEC2"
    },
    {
      "bufferView": 0,
      "byteOffset": 140172,
      "componentType": 5125,
      "count": 5094,
      "type": "SCALAR"
    },
    {
      "bufferView": 2,
      "byteOffset": 247416,
      "componentType": 5126,
      "count": 8584,
      "max": [
        0.2913011610507965,
        0.018056461587548256,
        0.08470790088176727
      ],
      "min": [
        -0.12106454372406006,
        -0.02021302469074726,
        -0.10237608104944229
      ],
      "type": "VEC3"
    },
    {
      "bufferView": 2,
      "byteOffset": 350424,
      "componentType": 5126,
      "count": 8584,
      "max": [
        0.9999978542327881,
        1.0,
        0.999999463558197
      ],
      "min": [
        -0.9999948740005493,
        -1.0,
        -0.9999746680259705
      ],
      "type": "VEC3"
    },
    {
      "bufferView": 3,
      "byteOffset": 164944,
      "componentType": 5126,
      "count": 8584,
      "max": [
        0.999999463558197,
        1.0,
        0.9999858736991882,
        -1.0
      ],
      "min": [
        -0.9999737739562988,
        -1.0,
        -0.9999895095825195,
        -1.0
      ],
      "type": "VEC4"
    },
    {
      "bufferView": 1,
      "byteOffset": 247416,
      "componentType": 5126,
      "count": 8584,
      "max": [
        0.9994747638702393,
        0.9994791150093079
      ],
      "min": [
        0.0005199909210205078,
        0.005220949649810791
      ],
      "type": "VEC2"
    },
    {
      "bufferView": 1,
      "byteOffset": 316088,
      "componentType": 5126,
      "count": 8584,
      "max": [
        0.9994747638702393,
        0.9994791150093079
      ],
      "min": [
        0.0005199909210205078,
        0.005220949649810791
      ],
      "type": "VEC2"
    },
    {
      "bufferView": 0,
      "byteOffset": 160548,
      "componentType": 5125,
      "count": 16689,
      "type": "SCALAR"
    },
    {
      "bufferView": 2,
      "byteOffset": 453432,
      "componentType": 5126,
      "count": 6996,
      "max": [
        0.35984358191490173,
        0.7241848111152649,
        0.2709616422653198
      ],
      "min": [
        -0.06962805986404419,
        -0.06041620671749115,
        -0.1246965229511261
      ],
      "type": "VEC3"
    },
    {
      "bufferView": 2,
      "byteOffset": 537384,
      "componentType": 5126,
      "count": 6996,
      "max": [
        1.0,
        1.0,
        1.0
      ],
      "min": [
        -1.0,
        -1.0,
        -1.0
      ],
      "type": "VEC3"
    },
    {
      "bufferView": 3,
      "byteOffset": 302288,
      "componentType": 5126,
      "count": 6996,
      "max": [
        0.9996427893638611,
        0.9999979138374329,
        0.9998733997344971,
        1.0
      ],
      "min": [
        -0.9999727010726929,
        -0.9999713897705078,
        -1.0,
        -1.0
      ],
      "type": "VEC4"
    },
    {
      "bufferView": 1,
      "byteOffset": 384760,
      "componentType": 5126,
      "count": 6996,
      "max": [
        0.9564951658248901,
        0.991385817527771
      ],
      "min": [
        0.003662109375,
        0.0036622139159590006
      ],
      "type": "VEC2"
    },
    {
      "bufferView": 1,
      "byteOffset": 440728,
      "componentType": 5126,
      "count": 6996,
      "max": [
        0.9564951658248901,
        0.991385817527771
      ],
      "min": [
        0.003662109375,
        0.0036622139159590006
      ],
      "type": "VEC2"
    },
    {
      "bufferView": 1,
      "byteOffset": 496696,
      "componentType": 5126,
      "count": 6996,
      "max": [
        0.9564951658248901,
        0.991385817527771
      ],
      "min": [
        0.003662109375,
        0.0036622139159590006
      ],
      "type": "VEC2"
    },
    {
      "bufferView": 0,
      "byteOffset": 227304,
      "componentType": 5125,
      "count": 21204,
      "type": "SCALAR"
    },
    {
      "bufferView": 2,
      "byteOffset": 621336,
      "componentType": 5126,
      "count": 5551,
      "max": [
        0.0721597969532013,
        0.06652863323688507,
        0.2556682825088501
      ],
      "min": [
        -0.07014095038175583,
        -0.09174390137195587,
        -0.005977612920105457
      ],
      "type": "VEC3"
    },
    {
      "bufferView": 2,
      "byteOffset": 687948,
      "componentType": 5126,
      "count": 5551,
      "max": [
        1.0,
        0.9999962449073792,
        1.0
      ],
      "min": [
        -1.0,
        -0.9999961853027344,
        -1.0
      ],
      "type": "VEC3"
    },
    {
      "bufferView": 3,
      "byteOffset": 414224,
      "componentType": 5126,
      "count": 5551,
      "max": [
        0.9996522068977356,
        0.9999989867210388,
        0.9990994930267334,
        1.0
      ],
      "min": [
        -0.9999971389770508,
        -0.9999833106994629,
        -0.9999958872795105,
        -1.0
      ],
      "type": "VEC4"
    },
    {
      "bufferView": 1,
      "byteOffset": 552664,
      "componentType": 5126,
      "count": 5551,
      "max": [
        0.986099362373352,
        0.9922884106636047
      ],
      "min": [
        0.004054654389619827,
        0.0036718931514769793
      ],
      "type": "VEC2"
    },
    {
      "bufferView": 1,
      "byteOffset": 597072,
      "componentType": 5126,
      "count": 5551,
      "max": [
        0.986099362373352,
        0.9922884106636047
      ],
      "min": [
        0.004054654389619827,
        0.0036718931514769793
      ],
      "type": "VEC2"
    },
    {
      "bufferView": 1,
      "byteOffset": 641480,
      "componentType": 5126,
      "count": 5551,
      "max": [
        0.986099362373352,
        0.9922884106636047
      ],
      "min": [
        0.004054654389619827,
        0.0036718931514769793
      ],
      "type": "VEC2"
    },
    {
      "bufferView": 0,
      "byteOffset": 312120,
      "componentType": 5125,
      "count": 17142,
      "type": "SCALAR"
    },
    {
      "bufferView": 2,
      "byteOffset": 754560,
      "componentType": 5126,
      "count": 6434,
      "max": [
        0.4029640853404999,
        1.5576597452163696,
        0.249323308467865
      ],
      "min": [
        -0.40648460388183594,
        0.15357230603694916,
        -0.15585798025131226
      ],
      "type": "VEC3"
    },
    {
      "bufferView": 2,
      "byteOffset": 831768,
      "componentType": 5126,
      "count": 6434,
      "max": [
        0.9994584321975708,
        0.9998058676719666,
        0.9995346069335938
      ],
      "min": [
        -0.9994202256202698,
        -0.999819815158844,
        -0.999731183052063
      ],
      "type": "VEC3"
    },
    {
      "bufferView": 3,
      "byteOffset": 503040,
      "componentType": 5126,
      "count": 6434,
      "max": [
        0.9998851418495178,
        0.9997235536575317,
        0.9999375343322754,
        1.0
      ],
      "min": [
        -0.9983620643615723,
        -0.9998906850814819,
        -0.9999505877494812,
        -1.0
      ],
      "type": "VEC4"
    },
    {
      "bufferView": 1,
      "byteOffset": 685888,
      "componentType": 5126,
      "count": 6434,
      "max": [
        0.996337890625,
        0.9864722490310669
      ],
      "min": [
        0.011110982857644558,
        0.01096301805227995
      ],
      "type": "VEC2"
    },
    {
      "bufferView": 1,
      "byteOffset": 737360,
      "componentType": 5126,
      "count": 6434,
      "max": [
        0.996337890625,
        0.9864722490310669
      ],
      "min": [
        0.011110982857644558,
        0.01096301805227995
      ],
      "type": "VEC2"
    },
    {
      "bufferView": 1,
      "byteOffset": 788832,
      "componentType": 5126,
      "count": 6434,
      "max": [
        0.996337890625,
        0.9864722490310669
      ],
      "min": [
        0.011110982857644558,
        0.01096301805227995
      ],
      "type": "VEC2"
    },
    {
      "bufferView": 0,
      "byteOffset": 380688,
      "componentType": 5125,
      "count": 34287,
      "type": "SCALAR"
    },
    {
      "bufferView": 2,
      "byteOffset": 908976,
      "componentType": 5126,
      "count": 1296,
      "max": [
        0.40193021297454834,
        1.6118028163909912,
        0.22219902276992798
      ],
      "min": [
        -0.3005528450012207,
        0.0996151939034462,
        -0.27845948934555054
      ],
      "type": "VEC3"
    },
    {
      "bufferView": 2,
      "byteOffset": 924528,
      "componentType": 5126,
      "count": 1296,
      "max": [
        0.9986438751220703,
        0.9975213408470154,
        0.9999884963035583
      ],
      "min": [
        -0.9996406435966492,
        -0.8876311779022217,
        -0.9998822808265686
      ],
      "type": "VEC3"
    },
    {
      "bufferView": 3,
      "byteOffset": 605984,
      "componentType": 5126,
      "count": 1296,
      "max": [
        0.6090798377990723,
        0.9994672536849976,
        0.7860034108161926,
        1.0
      ],
      "min": [
        -0.9999716281890869,
        -0.8921763896942139,
        -0.8358148336410522,
        -1.0
      ],
      "type": "VEC4"
    },
    {
      "bufferView": 1,
      "byteOffset": 840304,
      "componentType": 5126,
      "count": 1296,
      "max": [
        0.3097999095916748,
        0.759124755859375
      ],
      "min": [
        0.010761682875454426,
        0.01102109719067812
      ],
      "type": "VEC2"
    },
    {
      "bufferView": 1,
      "byteOffset": 850672,
      "componentType": 5126,
      "count": 1296,
      "max": [
        0.3097999095916748,
        0.759124755859375
      ],
      "min": [
        0.010761682875454426,
        0.01102109719067812
      ],
      "type": "VEC2"
    },
    {
      "bufferView": 1,
      "byteOffset": 861040,
      "componentType": 5126,
      "count": 1296,
      "max": [
        0.3097999095916748,
        0.759124755859375
      ],
      "min": [
        0.010761682875454426,
        0.01102109719067812
      ],
      "type": "VEC2"
    },
    {
      "bufferView": 0,
      "byteOffset": 517836,
      "componentType": 5125,
      "count": 7107,
      "type": "SCALAR"
    },
    {
      "bufferView": 2,
      "byteOffset": 940080,
      "componentType": 5126,
      "count": 3215,
      "max": [
        0.11118485778570175,
        0.07365894317626953,
        0.12171658128499985
      ],
      "min": [
        -0.13019904494285583,
        -0.23087608814239502,
        -0.13667643070220947
      ],
      "type": "VEC3"
    },
    {
      "bufferView": 2,
      "byteOffset": 978660,
      "componentType": 5126,
      "count": 3215,
      "max": [
        0.999599039554596,
        0.9991955757141113,
        0.999522864818573
      ],
      "min": [
        -0.9999977350234985,
        -0.9994251132011414,
        -0.999356210231781
      ],
      "type": "VEC3"
    },
    {
      "bufferView": 3,
      "byteOffset": 626720,
      "componentType": 5126,
      "count": 3215,
      "max": [
        0.9997931122779846,
        0.9999918341636658,
        0.9995317459106445,
        1.0
      ],
      "min": [
        -0.999834418296814,
        -0.9993534088134766,
        -0.9999290704727173,
        -1.0
      ],
      "type": "VEC4"
    },
    {
      "bufferView": 1,
      "byteOffset": 871408,
      "componentType": 5126,
      "count": 3215,
      "max": [
        0.9956127405166626,
        0.9653961062431335
      ],
      "min": [
        0.009357715025544167,
        0.19553206861019135
      ],
      "type": "VEC2"
    },
    {
      "bufferView": 1,
      "byteOffset": 897128,
      "componentType": 5126,
      "count": 3215,
      "max": [
        0.9956127405166626,
        0.9653961062431335
      ],
      "min": [
        0.009357715025544167,
        0.19553206861019135
      ],
      "type": "VEC2"
    },
    {
      "bufferView": 1,
      "byteOffset": 922848,
      "componentType": 5126,
      "count": 3215,
      "max": [
        0.9956127405166626,
        0.9653961062431335
      ],
      "min": [
        0.009357715025544167,
        0.19553206861019135
      ],
      "type": "VEC2"
    },
    {
      "bufferView": 0,
      "byteOffset": 546264,
      "componentType": 5125,
      "count": 12405,
      "type": "SCALAR"
    },
    {
      "bufferView": 2,
      "byteOffset": 1017240,
      "componentType": 5126,
      "count": 1872,
      "max": [
        0.4188497066497803,
        1.0385905504226685,
        0.26986074447631836
      ],
      "min": [
        -0.38469770550727844,
        -0.014546619728207588,
        -0.20698003470897675
      ],
      "type": "VEC3"
    },
    {
      "bufferView": 2,
      "byteOffset": 1039704,
      "componentType": 5126,
      "count": 1872,
      "max": [
        0.9990720748901367,
        0.9999608993530273,
        0.9933357238769531
      ],
      "min": [
        -0.9970808625221252,
        -0.9999732971191406,
        -0.9993959665298462
      ],
      "type": "VEC3"
    },
    {
      "bufferView": 3,
      "byteOffset": 678160,
      "componentType": 5126,
      "count": 1872,
      "max": [
        0.9995951652526855,
        0.9993358850479126,
        0.9999994039535522,
        1.0
      ],
      "min": [
        -0.9978623390197754,
        -0.9989146590232849,
        -0.9999999403953552,
        1.0
      ],
      "type": "VEC4"
    },
    {
      "bufferView": 1,
      "byteOffset": 948568,
      "componentType": 5126,
      "count": 1872,
      "max": [
        0.9118790030479431,
        0.9823092222213745
      ],
      "min": [
        0.009357173927128315,
        0.012257258407771587
      ],
      "type": "VEC2"
    },
    {
      "bufferView": 1,
      "byteOffset": 963544,
      "componentType": 5126,
      "count": 1872,
      "max": [
        0.9118790030479431,
        0.9823092222213745
      ],
      "min": [
        0.009357173927128315,
        0.012257258407771587
      ],
      "type": "VEC2"
    },
    {
      "bufferView": 1,
      "byteOffset": 978520,
      "componentType": 5126,
      "count": 1872,
      "max": [
        0.9118790030479431,
        0.9823092222213745
      ],
      "min": [
        0.009357173927128315,
        0.012257258407771587
      ],
      "type": "VEC2"
    },
    {
      "bufferView": 0,
      "byteOffset": 595884,
      "componentType": 5125,
      "count": 9168,
      "type": "SCALAR"
    }
  ],
  "asset": {
    "extras": {
      "author": "sweetcheeses (https://sketchfab.com/sweetcheeses)",
      "license": "CC-BY-NC-4.0 (http://creativecommons.org/licenses/by-nc/4.0/)",
      "source": "https://sketchfab.com/3d-models/star-wars-the-mandalorian-din-djarin-e70db49d54f04cdfbdbbd2e36f84f0a6",
      "title": "Star Wars The Mandalorian Din Djarin"
    },
    "generator": "Sketchfab-16.10.0",
    "version": "2.0"
  },
  "bufferViews": [
    {
      "buffer": 0,
      "byteLength": 632556,
      "name": "floatBufferViews",
      "target": 34963
    },
    {
      "buffer": 0,
      "byteLength": 993496,
      "byteOffset": 632556,
      "byteStride": 8,
      "name": "floatBufferViews",
      "target": 34962
    },
    {
      "buffer": 0,
      "byteLength": 1062168,
      "byteOffset": 1626052,
      "byteStride": 12,
      "name": "floatBufferViews",
      "target": 34962
    },
    {
      "buffer": 0,
      "byteLength": 708112,
      "byteOffset": 2688220,
      "byteStride": 16,
      "name": "floatBufferViews",
      "target": 34962
    }
  ],
  "buffers": [
    {
      "byteLength": 3396332,
      "uri": "scene.bin"
    }
  ],
  "images": [
    {
      "uri": "textures/Armor_baseColor.png"
    },
    {
      "uri": "textures/Armor_metallicRoughness.png"
    },
    {
      "uri": "textures/Armor_normal.png"
    },
    {
      "uri": "textures/Scene_-_Root_baseColor.png"
    },
    {
      "uri": "textures/Scene_-_Root_metallicRoughness.png"
    },
    {
      "uri": "textures/Scene_-_Root_normal.png"
    },
    {
      "uri": "textures/Body_baseColor.png"
    },
    {
      "uri": "textures/Body_metallicRoughness.png"
    },
    {
      "uri": "textures/Body_normal.png"
    }
  ],
  "materials": [
    {
      "doubleSided": true,
      "name": "Armor",
      "normalTexture": {
        "index": 2
      },
      "occlusionTexture": {
        "index": 1
      },
      "pbrMetallicRoughness": {
        "baseColorTexture": {
          "index": 0
        },
        "metallicRoughnessTexture": {
          "index": 1
        }
      }
    },
    {
      "doubleSided": true,
      "name": "Scene_-_Root",
      "normalTexture": {
        "index": 5
      },
      "pbrMetallicRoughness": {
        "baseColorTexture": {
          "index": 3
        },
        "metallicRoughnessTexture": {
          "index": 4
        },
        "roughnessFactor": 0.4612450699200317
      }
    },
    {
      "alphaCutoff": 0.345857885185149,
      "alphaMode": "MASK",
      "doubleSided": true,
      "name": "Body",
      "normalTexture": {
        "index": 8
      },
      "occlusionTexture": {
        "index": 7
      },
      "pbrMetallicRoughness": {
        "baseColorTexture": {
          "index": 6
        },
        "metallicRoughnessTexture": {
          "index": 7
        }
      }
    }
  ],
  "meshes": [
    {
      "name": "Cape_LP_Armor_0",
      "primitives": [
        {
          "attributes": {
            "NORMAL": 1,
            "POSITION": 0,
            "TANGENT": 2,
            "TEXCOORD_0": 3,
            "TEXCOORD_1": 4,
            "TEXCOORD_2": 5
          },
          "indices": 6,
          "material": 0,
          "mode": 4
        }
      ]
    },
    {
      "name": "Body Armor_LP_Armor_0",
      "primitives": [
        {
          "attributes": {
            "NORMAL": 8,
            "POSITION": 7,
            "TANGENT": 9,
            "TEXCOORD_0": 10,
            "TEXCOORD_1": 11,
            "TEXCOORD_2": 12
          },
          "indices": 13,
          "material": 0,
          "mode": 4
        }
      ]
    },
    {
      "name": "Ammo Belt_LP_Armor_0",
      "primitives": [
        {
          "attributes": {
            "NORMAL": 15,
            "POSITION": 14,
            "TANGENT": 16,
            "TEXCOORD_0": 17,
            "TEXCOORD_1": 18,
            "TEXCOORD_2": 19
          },
          "indices": 20,
          "material": 0,
          "mode": 4
        }
      ]
    },
    {
      "name": "Belt_LP_Armor_0",
      "primitives": [
        {
          "attributes": {
            "NORMAL": 22,
            "POSITION": 21,
            "TANGENT": 23,
            "TEXCOORD_0": 24,
            "TEXCOORD_1": 25,
            "TEXCOORD_2": 26
          },
          "indices": 27,
          "material": 0,
          "mode": 4
        }
      ]
    },
    {
      "name": "Leg Armor_LP_Armor_0",
      "primitives": [
        {
          "attributes": {
            "NORMAL": 29,
            "POSITION": 28,
            "TANGENT": 30,
            "TEXCOORD_0": 31,
            "TEXCOORD_1": 32,
            "TEXCOORD_2": 33
          },
          "indices": 34,
          "material": 0,
          "mode": 4
        }
      ]
    },
    {
      "name": "Gun_Scene_-_Root_0",
      "primitives": [
        {
          "attributes": {
            "NORMAL": 36,
            "POSITION": 35,
            "TANGENT": 37,
            "TEXCOORD_0": 38,
            "TEXCOORD_1": 39
          },
          "indices": 40,
          "material": 1,
          "mode": 4
        }
      ]
    },
    {
      "name": "Arm Gauntlet R_LP.001_Armor_0",
      "primitives": [
        {
          "attributes": {
            "NORMAL": 42,
            "POSITION": 41,
            "TANGENT": 43,
            "TEXCOORD_0": 44,
            "TEXCOORD_1": 45,
            "TEXCOORD_2": 46
          },
          "indices": 47,
          "material": 0,
          "mode": 4
        }
      ]
    },
    {
      "name": "Arm Gauntlet L_LP.001_Armor_0",
      "primitives": [
        {
          "attributes": {
            "NORMAL": 49,
            "POSITION": 48,
            "TANGENT": 50,
            "TEXCOORD_0": 51,
            "TEXCOORD_1": 52,
            "TEXCOORD_2": 53
          },
          "indices": 54,
          "material": 0,
          "mode": 4
        }
      ]
    },
    {
      "name": "Body_LP_Body_0",
      "primitives": [
        {
          "attributes": {
            "NORMAL": 56,
            "POSITION": 55,
            "TANGENT": 57,
            "TEXCOORD_0": 58,
            "TEXCOORD_1": 59,
            "TEXCOORD_2": 60
          },
          "indices": 61,
          "material": 2,
          "mode": 4
        }
      ]
    },
    {
      "name": "Cape_LP.001_Body_0",
      "primitives": [
        {
          "attributes": {
            "NORMAL": 63,
            "POSITION": 62,
            "TANGENT": 64,
            "TEXCOORD_0": 65,
            "TEXCOORD_1": 66,
            "TEXCOORD_2": 67
          },
          "indices": 68,
          "material": 2,
          "mode": 4
        }
      ]
    },
    {
      "name": "Helmet_LP_Body_0",
      "primitives": [
        {
          "attributes": {
            "NORMAL": 70,
            "POSITION": 69,
            "TANGENT": 71,
            "TEXCOORD_0": 72,
            "TEXCOORD_1": 73,
            "TEXCOORD_2": 74
          },
          "indices": 75,
          "material": 2,
          "mode": 4
        }
      ]
    },
    {
      "name": "Shoe_LP_Body_0",
      "primitives": [
        {
          "attributes": {
            "NORMAL": 77,
            "POSITION": 76,
            "TANGENT": 78,
            "TEXCOORD_0": 79,
            "TEXCOORD_1": 80,
            "TEXCOORD_2": 81
          },
          "indices": 82,
          "material": 2,
          "mode": 4
        }
      ]
    }
  ],
  "nodes": [
    {
      "children": [
        1
      ],
      "matrix": [
        1.0,
        0.0,
        0.0,
        0.0,
        0.0,
        2.220446049250313e-16,
        -1.0,
        0.0,
        0.0,
        1.0,
        2.220446049250313e-16,
        0.0,
        0.0,
        0.0,
        0.0,
        1.0
      ],
      "name": "Sketchfab_model"
    },
    {
      "children": [
        2
      ],
      "matrix": [
        0.009999999776482582,
        0.0,
        0.0,
        0.0,
        0.0,
        0.0,
        0.009999999776482582,
        0.0,
        0.0,
        -0.009999999776482582,
        0.0,
        0.0,
        0.0,
        0.0,
        0.0,
        1.0
      ],
      "name": "3797cc252c584528a804ad467afc74ae.fbx"
    },
    {
      "children": [
        3,
        5,
        7,
        9,
        11,
        13,
        15,
        17,
        19,
        21,
        23,
        25
      ],
      "name": "RootNode"
    },
    {
      "children": [
        4
      ],
      "matrix": [
        100.0,
        -4.4703485357899815e-08,
        -1.1175853992240194e-08,
        0.0,
        4.470348376318517e-08,
        99.99999999999898,
        -1.426928264436351e-05,
        0.0,
        1.1175857813155316e-08,
        1.4269279378378903e-05,
        99.99997711181538,
        0.0,
        -1.2516975402832031e-06,
        -1.9073486328125e-06,
        2.3283075734070735e-07,
        1.0
      ],
      "name": "Cape_LP"
    },
    {
      "mesh": 0,
      "name": "Cape_LP_Armor_0"
    },
    {
      "children": [
        6
      ],
      "matrix": [
        100.0,
        -5.39139666244637e-07,
        1.73744718612312e-07,
        0.0,
        5.635461809399956e-07,
        97.79140967212491,
        -20.900722340116257,
        0.0,
        -5.7223320528832406e-08,
        20.900720745517688,
        97.79140221123245,
        0.0,
        -1.49011739836169e-07,
        144.81541442871094,
        15.15031623840332,
        1.0
      ],
      "name": "Body Armor_LP"
    },
    {
      "mesh": 1,
      "name": "Body Armor_LP_Armor_0"
    },
    {
      "children": [
        8
      ],
      "matrix": [
        100.0,
        -4.265149639046097e-22,
        -4.238487397696695e-24,
        0.0,
        4.265149632637634e-22,
        99.99999999999886,
        -1.511957918864931e-05,
        0.0,
        4.238551884964366e-24,
        1.511957918864931e-05,
        99.99999999999886,
        0.0,
        -1.2434497875801753e-14,
        -7.277354598045349e-06,
        5.49424980338109e-13,
        1.0
      ],
      "name": "Ammo Belt_LP"
    },
    {
      "mesh": 2,
      "name": "Ammo Belt_LP_Armor_0"
    },
    {
      "children": [
        10
      ],
      "matrix": [
        100.0,
        -4.4703485357899815e-08,
        -1.1175853992240194e-08,
        0.0,
        4.470348376318517e-08,
        99.99999999999898,
        -1.426928264436351e-05,
        0.0,
        1.1175857813155316e-08,
        1.4269279378378903e-05,
        99.99997711181538,
        0.0,
        -1.2516975402832031e-06,
        -1.9073486328125e-06,
        2.3283075734070735e-07,
        1.0
      ],
      "name": "Belt_LP"
    },
    {
      "mesh": 3,
      "name": "Belt_LP_Armor_0"
    },
    {
      "children": [
        12
      ],
      "matrix": [
        99.13680240920938,
        -11.777292784527676,
        5.761189861812747,
        0.0,
        6.849707056811242,
        9.056879327361166,
        -99.35318037227339,
        0.0,
        11.179330076662776,
        98.8901831967247,
        9.785409871602157,
        0.0,
        -16.43675994873047,
        42.55453109741211,
        -5.40133810043335,
        1.0
      ],
      "name": "Leg Armor_LP"
    },
    {
      "mesh": 4,
      "name": "Leg Armor_LP_Armor_0"
    },
    {
      "children": [
        14
      ],
      "matrix": [
        -9.104688258899575,
        -86.57534608168815,
        50.27062811491756,
        0.0,
        99.6407432525018,
        -2.9441775982257243,
        12.975861555092965,
        0.0,
        -9.702876538411017,
        51.003545323326115,
        86.08024375130287,
        0.0,
        -35.38068389892578,
        77.9502182006836,
        11.460040092468262,
        1.0
      ],
      "name": "Gun"
    },
    {
      "mesh": 5,
      "name": "Gun_Scene_-_Root_0"
    },
    {
      "children": [
        16
      ],
      "matrix": [
        40.39410507124054,
        23.335617593441608,
        88.45205906537848,
        0.0,
        87.40923279533348,
        -38.363852160063345,
        -29.796633093239826,
        0.0,
        26.980386759574223,
        89.35134268313142,
        -35.894216318880176,
        0.0,
        -37.423606872558594,
        93.31767272949219,
        3.9855334758758545,
        1.0
      ],
      "name": "Arm Gauntlet R_LP.001"
    },
    {
      "mesh": 6,
      "name": "Arm Gauntlet R_LP.001_Armor_0"
    },
    {
      "children": [
        18
      ],
      "matrix": [
        11.433683356196097,
        -29.662873796405638,
        -94.81237434495416,
        0.0,
        -95.42497821851609,
        -29.821637449798448,
        -2.177600957399473,
        0.0,
        -27.62866140301561,
        90.72366064369498,
        -31.715500037148143,
        0.0,
        36.384586334228516,
        95.13064575195313,
        4.607691764831543,
        1.0
      ],
      "name": "Arm Gauntlet L_LP.001"
    },
    {
      "mesh": 7,
      "name": "Arm Gauntlet L_LP.001_Armor_0"
    },
    {
      "children": [
        20
      ],
      "matrix": [
        99.99999999999999,
        2.682210231697014e-07,
        1.0803342220810923e-06,
        0.0,
        -2.6822079714893934e-07,
        99.99997711181524,
        -1.5238787718801695e-05,
        0.0,
        -1.0803342629547216e-06,
        1.5238791203786521e-05,
        99.99999999999883,
        0.0,
        -8.773058652877808e-07,
        1.8626488795803198e-08,
        5.578622221946716e-07,
        1.0
      ],
      "name": "Body_LP"
    },
    {
      "mesh": 8,
      "name": "Body_LP_Body_0"
    },
    {
      "children": [
        22
      ],
      "matrix": [
        100.0,
        -4.4703485357899815e-08,
        -1.1175853992240194e-08,
        0.0,
        4.470348376318517e-08,
        99.99999999999898,
        -1.426928264436351e-05,
        0.0,
        1.1175857813155316e-08,
        1.4269279378378903e-05,
        99.99997711181538,
        0.0,
        -1.2516975402832031e-06,
        -1.9073486328125e-06,
        2.3283075734070735e-07,
        1.0
      ],
      "name": "Cape_LP.001"
    },
    {
      "mesh": 9,
      "name": "Cape_LP.001_Body_0"
    },
    {
      "children": [
        24
      ],
      "matrix": [
        100.0,
        -2.064122016018694e-15,
        -9.614867232883891e-17,
        0.0,
        2.0641215842041587e-15,
        99.56696454056161,
        9.295966573861648,
        0.0,
        -9.614777816894117e-17,
        -9.295966573861648,
        99.56696454056161,
        0.0,
        -0.3546655476093292,
        174.81112670898438,
        12.10351848602295,
        1.0
      ],
      "name": "Helmet_LP"
    },
    {
      "mesh": 10,
      "name": "Helmet_LP_Body_0"
    },
    {
      "children": [
        26
      ],
      "matrix": [
        99.99999999999999,
        2.682210231697014e-07,
        1.0803342220810923e-06,
        0.0,
        -2.6822079714893934e-07,
        99.99997711181524,
        -1.5238787718801695e-05,
        0.0,
        -1.0803342629547216e-06,
        1.5238791203786521e-05,
        99.99999999999883,
        0.0,
        -8.773058652877808e-07,
        1.8626488795803198e-08,
        5.578622221946716e-07,
        1.0
      ],
      "name": "Shoe_LP"
    },
    {
      "mesh": 11,
      "name": "Shoe_LP_Body_0"
    }
  ],
  "samplers": [
    {
      "magFilter": 9729,
      "minFilter": 9987,
      "wrapS": 10497,
      "wrapT": 10497
    },
    {
      "magFilter": 9728,
      "minFilter": 9728,
      "wrapS": 10497,
      "wrapT": 10497
    }
  ],
  "scene": 0,
  "scenes": [
    {
      "name": "Sketchfab_Scene",
      "nodes": [
        0
      ]
    }
  ],
  "textures": [
    {
      "sampler": 0,
      "source": 0
    },
    {
      "sampler": 0,
      "source": 1
    },
    {
      "sampler": 0,
      "source": 2
    },
    {
      "sampler": 0,
      "source": 3
    },
    {
      "sampler": 1,
      "source": 4
    },
    {
      "sampler": 0,
      "source": 5
    },
    {
      "sampler": 0,
      "source": 6
    },
    {
      "sampler": 0,
      "source": 7
    },
    {
      "sampler": 0,
      "source": 8
    }
  ]
}
