{
  "accessors": [
    {
      "bufferView": 2,
      "componentType": 5126,
      "count": 3312,
      "max": [
        -274.48883056640625,
        413.802001953125,
        273.8572692871094
      ],
      "min": [
        -884.2848510742188,
        -308.4560546875,
        -17.990074157714844
      ],
      "type": "VEC3"
    },
    {
      "bufferView": 2,
      "byteOffset": 39744,
      "componentType": 5126,
      "count": 3312,
      "max": [
        1.0,
        0.9999779462814331,
        1.0
      ],
      "min": [
        -1.0,
        -0.9998414516448975,
        -0.9857438206672668
      ],
      "type": "VEC3"
    },
    {
      "bufferView": 1,
      "componentType": 5126,
      "count": 3312,
      "max": [
        2.998502016067505,
        5.997003078460693
      ],
      "min": [
        0.0014990000054240227,
        0.002997000003233552
      ],
      "type": "VEC2"
    },
    {
      "bufferView": 0,
      "componentType": 5125,
      "count": 7146,
      "type": "SCALAR"
    },
    {
      "bufferView": 2,
      "byteOffset": 79488,
      "componentType": 5126,
      "count": 3284,
      "max": [
        -785.825927734375,
        170.17230224609375,
        273.8572692871094
      ],
      "min": [
        -1215.019775390625,
        -308.4560546875,
        -17.990102767944336
      ],
      "type": "VEC3"
    },
    {
      "bufferView": 2,
      "byteOffset": 118896,
      "componentType": 5126,
      "count": 3284,
      "max": [
        1.0,
        1.0,
        1.0
      ],
      "min": [
        -1.0,
        -1.0,
        -0.9857438206672668
      ],
      "type": "VEC3"
    },
    {
      "bufferView": 1,
      "byteOffset": 26496,
      "componentType": 5126,
      "count": 3284,
      "max": [
        2.998502016067505,
        5.997003078460693
      ],
      "min": [
        0.0014990000054240227,
        0.002997000003233552
      ],
      "type": "VEC2"
    },
    {
      "bufferView": 0,
      "byteOffset": 28584,
      "componentType": 5125,
      "count": 7068,
      "type": "SCALAR"
    },
    {
      "bufferView": 2,
      "byteOffset": 158304,
      "componentType": 5126,
      "count": 3302,
      "max": [
        -20.4387264251709,
        445.3257751464844,
        273.8572692871094
      ],
      "min": [
        -1002.7432861328125,
        -276.9322509765625,
        -17.990079879760742
      ],
      "type": "VEC3"
    },
    {
      "bufferView": 2,
      "byteOffset": 197928,
      "componentType": 5126,
      "count": 3302,
      "max": [
        1.0,
        0.9998413920402527,
        1.0
      ],
      "min": [
        -1.0,
        -0.9999779462814331,
        -0.9857441782951355
      ],
      "type": "VEC3"
    },
    {
      "bufferView": 1,
      "byteOffset": 52768,
      "componentType": 5126,
      "count": 3302,
      "max": [
        2.998502016067505,
        5.997003078460693
      ],
      "min": [
        0.0014990000054240227,
        0.002997000003233552
      ],
      "type": "VEC2"
    },
    {
      "bufferView": 0,
      "byteOffset": 56856,
      "componentType": 5125,
      "count": 7068,
      "type": "SCALAR"
    },
    {
      "bufferView": 2,
      "byteOffset": 237552,
      "componentType": 5126,
      "count": 3278,
      "max": [
        -17.52142333984375,
        445.3257751464844,
        273.85723876953125
      ],
      "min": [
        -491.40618896484375,
        309.6261291503906,
        -17.990079879760742
      ],
      "type": "VEC3"
    },
    {
      "bufferView": 2,
      "byteOffset": 276888,
      "componentType": 5126,
      "count": 3278,
      "max": [
        1.0,
        0.9998413324356079,
        1.0
      ],
      "min": [
        -1.0,
        -0.9999779462814331,
        -0.9857441782951355
      ],
      "type": "VEC3"
    },
    {
      "bufferView": 1,
      "byteOffset": 79184,
      "componentType": 5126,
      "count": 3278,
      "max": [
        2.998502016067505,
        5.997003078460693
      ],
      "min": [
        0.0014990000054240227,
        0.002997000003233552
      ],
      "type": "VEC2"
    },
    {
      "bufferView": 0,
      "byteOffset": 85128,
      "componentType": 5125,
      "count": 7068,
      "type": "SCALAR"
    },
    {
      "bufferView": 2,
      "byteOffset": 316224,
      "componentType": 5126,
      "count": 4739,
      "max": [
        139.0647735595703,
        419.6781005859375,
        286.603515625
      ],
      "min": [
        -1198.19384765625,
        -299.0744934082031,
        -23.532861709594727
      ],
      "type": "VEC3"
    },
    {
      "bufferView": 2,
      "byteOffset": 373092,
      "componentType": 5126,
      "count": 4739,
      "max": [
        1.0,
        1.0,
        1.0
      ],
      "min": [
        -1.0,
        -1.0,
        -1.0
      ],
      "type": "VEC3"
    },
    {
      "bufferView": 1,
      "byteOffset": 105408,
      "componentType": 5126,
      "count": 4739,
      "max": [
        3.998002052307129,
        5.997003078460693
      ],
      "min": [
        -0.23821799457073212,
        -0.07498999685049057
      ],
      "type": "VEC2"
    },
    {
      "bufferView": 0,
      "byteOffset": 113400,
      "componentType": 5125,
      "count": 10155,
      "type": "SCALAR"
    },
    {
      "bufferView": 2,
      "byteOffset": 429960,
      "componentType": 5126,
      "count": 4589,
      "max": [
        55.23490905761719,
        403.2230529785156,
        288.3683776855469
      ],
      "min": [
        -1038.6973876953125,
        -268.7364501953125,
        -14.477261543273926
      ],
      "type": "VEC3"
    },
    {
      "bufferView": 2,
      "byteOffset": 485028,
      "componentType": 5126,
      "count": 4589,
      "max": [
        1.0,
        1.0,
        1.0
      ],
      "min": [
        -1.0,
        -1.0,
        -1.0
      ],
      "type": "VEC3"
    },
    {
      "bufferView": 1,
      "byteOffset": 143320,
      "componentType": 5126,
      "count": 4589,
      "max": [
        2.238218069076538,
        2.998502016067505
      ],
      "min": [
        -0.23821799457073212,
        -0.07498999685049057
      ],
      "type": "VEC2"
    },
    {
      "bufferView": 0,
      "byteOffset": 154020,
      "componentType": 5125,
      "count": 10173,
      "type": "SCALAR"
    },
    {
      "bufferView": 2,
      "byteOffset": 540096,
      "componentType": 5126,
      "count": 2860,
      "max": [
        -298.54351806640625,
        -34.34925842285156,
        83.0911636352539
      ],
      "min": [
        -407.19293212890625,
        -84.86095428466797,
        -14.477261543273926
      ],
      "type": "VEC3"
    },
    {
      "bufferView": 2,
      "byteOffset": 574416,
      "componentType": 5126,
      "count": 2860,
      "max": [
        0.9999984502792358,
        0.9956634044647217,
        1.0
      ],
      "min": [
        -0.9999984502792358,
        -0.9999889135360718,
        -0.9972143769264221
      ],
      "type": "VEC3"
    },
    {
      "bufferView": 1,
      "byteOffset": 180032,
      "componentType": 5126,
      "count": 2860,
      "max": [
        0.9994999766349792,
        2.998502016067505
      ],
      "min": [
        0.0005000000237487257,
        0.0014979999978095293
      ],
      "type": "VEC2"
    },
    {
      "bufferView": 0,
      "byteOffset": 194712,
      "componentType": 5125,
      "count": 7260,
      "type": "SCALAR"
    },
    {
      "bufferView": 2,
      "byteOffset": 608736,
      "componentType": 5126,
      "count": 2858,
      "max": [
        -437.0326843261719,
        207.77667236328125,
        83.0911636352539
      ],
      "min": [
        -811.9212646484375,
        136.78948974609375,
        -14.874123573303223
      ],
      "type": "VEC3"
    },
    {
      "bufferView": 2,
      "byteOffset": 643032,
      "componentType": 5126,
      "count": 2858,
      "max": [
        0.9999984502792358,
        0.9999889135360718,
        1.0
      ],
      "min": [
        -0.9999983906745911,
        -0.995664656162262,
        -0.9992734789848328
      ],
      "type": "VEC3"
    },
    {
      "bufferView": 1,
      "byteOffset": 202912,
      "componentType": 5126,
      "count": 2858,
      "max": [
        0.9994999766349792,
        2.998502016067505
      ],
      "min": [
        0.0005000000237487257,
        0.0014979999978095293
      ],
      "type": "VEC2"
    },
    {
      "bufferView": 0,
      "byteOffset": 223752,
      "componentType": 5125,
      "count": 7260,
      "type": "SCALAR"
    },
    {
      "bufferView": 2,
      "byteOffset": 677328,
      "componentType": 5126,
      "count": 2856,
      "max": [
        -298.54351806640625,
        207.7766571044922,
        83.0911636352539
      ],
      "min": [
        -407.19293212890625,
        157.2649688720703,
        -14.477261543273926
      ],
      "type": "VEC3"
    },
    {
      "bufferView": 2,
      "byteOffset": 711600,
      "componentType": 5126,
      "count": 2856,
      "max": [
        0.9999984502792358,
        0.9999889135360718,
        1.0
      ],
      "min": [
        -0.9999983906745911,
        -0.995664656162262,
        -0.9972143769264221
      ],
      "type": "VEC3"
    },
    {
      "bufferView": 1,
      "byteOffset": 225776,
      "componentType": 5126,
      "count": 2856,
      "max": [
        0.9994999766349792,
        2.998502016067505
      ],
      "min": [
        0.0005000000237487257,
        0.0014979999978095293
      ],
      "type": "VEC2"
    },
    {
      "bufferView": 0,
      "byteOffset": 252792,
      "componentType": 5125,
      "count": 7260,
      "type": "SCALAR"
    },
    {
      "bufferView": 2,
      "byteOffset": 745872,
      "componentType": 5126,
      "count": 7543,
      "max": [
        -212.27000427246094,
        159.91531372070312,
        37.164825439453125
      ],
      "min": [
        -846.263671875,
        -33.14961242675781,
        -17.80669403076172
      ],
      "type": "VEC3"
    },
    {
      "bufferView": 2,
      "byteOffset": 836388,
      "componentType": 5126,
      "count": 7543,
      "max": [
        1.0,
        1.0,
        1.0
      ],
      "min": [
        -1.0,
        -1.0,
        -1.0
      ],
      "type": "VEC3"
    },
    {
      "bufferView": 1,
      "byteOffset": 248624,
      "componentType": 5126,
      "count": 7543,
      "max": [
        5.997003078460693,
        2.998502016067505
      ],
      "min": [
        -0.9871320128440857,
        0.0014979999978095293
      ],
      "type": "VEC2"
    },
    {
      "bufferView": 0,
      "byteOffset": 281832,
      "componentType": 5125,
      "count": 19332,
      "type": "SCALAR"
    },
    {
      "bufferView": 2,
      "byteOffset": 926904,
      "componentType": 5126,
      "count": 1632,
      "max": [
        -17.521347045898438,
        -172.75637817382812,
        273.8572692871094
      ],
      "min": [
        -234.43861389160156,
        -308.4560546875,
        -17.990074157714844
      ],
      "type": "VEC3"
    },
    {
      "bufferView": 2,
      "byteOffset": 946488,
      "componentType": 5126,
      "count": 1632,
      "max": [
        1.0,
        0.9999779462814331,
        1.0
      ],
      "min": [
        -1.0,
        -0.9998413920402527,
        -0.9857437610626221
      ],
      "type": "VEC3"
    },
    {
      "bufferView": 1,
      "byteOffset": 308968,
      "componentType": 5126,
      "count": 1632,
      "max": [
        2.998502016067505,
        5.997003078460693
      ],
      "min": [
        0.0014990000054240227,
        0.002997000003233552
      ],
      "type": "VEC2"
    },
    {
      "bufferView": 0,
      "byteOffset": 359160,
      "componentType": 5125,
      "count": 3456,
      "type": "SCALAR"
    },
    {
      "bufferView": 2,
      "byteOffset": 966072,
      "componentType": 5126,
      "count": 9187,
      "max": [
        95.28890228271484,
        445.3257751464844,
        286.4159851074219
      ],
      "min": [
        -1215.019775390625,
        -282.5497741699219,
        -24.70948600769043
      ],
      "type": "VEC3"
    },
    {
      "bufferView": 2,
      "byteOffset": 1076316,
      "componentType": 5126,
      "count": 9187,
      "max": [
        1.0,
        1.0,
        1.0
      ],
      "min": [
        -1.0,
        -1.0,
        -1.0
      ],
      "type": "VEC3"
    },
    {
      "bufferView": 1,
      "byteOffset": 322024,
      "componentType": 5126,
      "count": 9187,
      "max": [
        5.835105895996094,
        5.997003078460693
      ],
      "min": [
        0.0,
        0.0
      ],
      "type": "VEC2"
    },
    {
      "bufferView": 0,
      "byteOffset": 372984,
      "componentType": 5125,
      "count": 22467,
      "type": "SCALAR"
    },
    {
      "bufferView": 2,
      "byteOffset": 1186560,
      "componentType": 5126,
      "count": 7871,
      "max": [
        88.70606231689453,
        410.42327880859375,
        286.50604248046875
      ],
      "min": [
        -993.2269897460938,
        -274.1529846191406,
        28.80645751953125
      ],
      "type": "VEC3"
    },
    {
      "bufferView": 2,
      "byteOffset": 1281012,
      "componentType": 5126,
      "count": 7871,
      "max": [
        1.0,
        1.0,
        1.0
      ],
      "min": [
        -1.0,
        -1.0,
        -1.0
      ],
      "type": "VEC3"
    },
    {
      "bufferView": 1,
      "byteOffset": 395520,
      "componentType": 5126,
      "count": 7871,
      "max": [
        4.997501850128174,
        4.997501850128174
      ],
      "min": [
        0.0,
        0.0
      ],
      "type": "VEC2"
    },
    {
      "bufferView": 0,
      "byteOffset": 462852,
      "componentType": 5125,
      "count": 25068,
      "type": "SCALAR"
    },
    {
      "bufferView": 2,
      "byteOffset": 1375464,
      "componentType": 5126,
      "count": 9992,
      "max": [
        95.28890991210938,
        419.6781005859375,
        286.4159851074219
      ],
      "min": [
        -1198.19384765625,
        -341.39215087890625,
        -35.31970977783203
      ],
      "type": "VEC3"
    },
    {
      "bufferView": 2,
      "byteOffset": 1495368,
      "componentType": 5126,
      "count": 9992,
      "max": [
        1.0,
        1.0,
        1.0
      ],
      "min": [
        -1.0,
        -1.0,
        -1.0
      ],
      "type": "VEC3"
    },
    {
      "bufferView": 1,
      "byteOffset": 458488,
      "componentType": 5126,
      "count": 9992,
      "max": [
        5.835105895996094,
        5.997003078460693
      ],
      "min": [
        0.0004990000161342323,
        0.0014979999978095293
      ],
      "type": "VEC2"
    },
    {
      "bufferView": 0,
      "byteOffset": 563124,
      "componentType": 5125,
      "count": 21630,
      "type": "SCALAR"
    },
    {
      "bufferView": 2,
      "byteOffset": 1615272,
      "componentType": 5126,
      "count": 9769,
      "max": [
        38.77176284790039,
        386.7416687011719,
        285.9073486328125
      ],
      "min": [
        -1001.3215942382812,
        -341.39215087890625,
        -35.31970977783203
      ],
      "type": "VEC3"
    },
    {
      "bufferView": 2,
      "byteOffset": 1732500,
      "componentType": 5126,
      "count": 9769,
      "max": [
        1.0,
        1.0,
        1.0
      ],
      "min": [
        -1.0,
        -1.0,
        -1.0
      ],
      "type": "VEC3"
    },
    {
      "bufferView": 1,
      "byteOffset": 538424,
      "componentType": 5126,
      "count": 9769,
      "max": [
        5.793325901031494,
        5.997003078460693
      ],
      "min": [
        0.0004990000161342323,
        0.0014979999978095293
      ],
      "type": "VEC2"
    },
    {
      "bufferView": 0,
      "byteOffset": 649644,
      "componentType": 5125,
      "count": 19158,
      "type": "SCALAR"
    },
    {
      "bufferView": 2,
      "byteOffset": 1849728,
      "componentType": 5126,
      "count": 7425,
      "max": [
        -217.73809814453125,
        478.26190185546875,
        285.9073791503906
      ],
      "min": [
        -1039.29736328125,
        299.5000305175781,
        -35.31970977783203
      ],
      "type": "VEC3"
    },
    {
      "bufferView": 2,
      "byteOffset": 1938828,
      "componentType": 5126,
      "count": 7425,
      "max": [
        1.0,
        0.9633924961090088,
        1.0
      ],
      "min": [
        -1.0,
        -1.0,
        -1.0
      ],
      "type": "VEC3"
    },
    {
      "bufferView": 1,
      "byteOffset": 616576,
      "componentType": 5126,
      "count": 7425,
      "max": [
        0.9995009899139404,
        2.9985010623931885
      ],
      "min": [
        0.0004990000161342323,
        0.0014979999978095293
      ],
      "type": "VEC2"
    },
    {
      "bufferView": 0,
      "byteOffset": 726276,
      "componentType": 5125,
      "count": 8736,
      "type": "SCALAR"
    },
    {
      "bufferView": 2,
      "byteOffset": 2027928,
      "componentType": 5126,
      "count": 8916,
      "max": [
        99.6977767944336,
        478.26190185546875,
        285.9073486328125
      ],
      "min": [
        -1248.1640625,
        -303.3054504394531,
        -35.31970977783203
      ],
      "type": "VEC3"
    },
    {
      "bufferView": 2,
      "byteOffset": 2134920,
      "componentType": 5126,
      "count": 8916,
      "max": [
        1.0,
        1.0,
        1.0
      ],
      "min": [
        -1.0,
        -1.0,
        -1.0
      ],
      "type": "VEC3"
    },
    {
      "bufferView": 1,
      "byteOffset": 675976,
      "componentType": 5126,
      "count": 8916,
      "max": [
        1.0,
        2.9985010623931885
      ],
      "min": [
        0.0,
        0.0
      ],
      "type": "VEC2"
    },
    {
      "bufferView": 0,
      "byteOffset": 761220,
      "componentType": 5125,
      "count": 12054,
      "type": "SCALAR"
    },
    {
      "bufferView": 2,
      "byteOffset": 2241912,
      "componentType": 5126,
      "count": 7890,
      "max": [
        38.77178192138672,
        478.26190185546875,
        285.9073486328125
      ],
      "min": [
        -1035.0880126953125,
        -341.39215087890625,
        -35.319740295410156
      ],
      "type": "VEC3"
    },
    {
      "bufferView": 2,
      "byteOffset": 2336592,
      "componentType": 5126,
      "count": 7890,
      "max": [
        1.0,
        1.0,
        1.0
      ],
      "min": [
        -1.0,
        -1.0,
        -1.0
      ],
      "type": "VEC3"
    },
    {
      "bufferView": 1,
      "byteOffset": 747304,
      "componentType": 5126,
      "count": 7890,
      "max": [
        0.9995009899139404,
        2.9985010623931885
      ],
      "min": [
        0.0004990000161342323,
        0.0014979999978095293
      ],
      "type": "VEC2"
    },
    {
      "bufferView": 0,
      "byteOffset": 809436,
      "componentType": 5125,
      "count": 9672,
      "type": "SCALAR"
    },
    {
      "bufferView": 2,
      "byteOffset": 2431272,
      "componentType": 5126,
      "count": 7922,
      "max": [
        -240.36492919921875,
        382.9745178222656,
        285.9073486328125
      ],
      "min": [
        -1128.2340087890625,
        -341.39215087890625,
        -35.31970977783203
      ],
      "type": "VEC3"
    },
    {
      "bufferView": 2,
      "byteOffset": 2526336,
      "componentType": 5126,
      "count": 7922,
      "max": [
        1.0,
        1.0,
        1.0
      ],
      "min": [
        -1.0,
        -0.9633933305740356,
        -1.0
      ],
      "type": "VEC3"
    },
    {
      "bufferView": 1,
      "byteOffset": 810424,
      "componentType": 5126,
      "count": 7922,
      "max": [
        0.9995009899139404,
        2.9985010623931885
      ],
      "min": [
        0.0004990000161342323,
        0.0014979999978095293
      ],
      "type": "VEC2"
    },
    {
      "bufferView": 0,
      "byteOffset": 848124,
      "componentType": 5125,
      "count": 9618,
      "type": "SCALAR"
    },
    {
      "bufferView": 2,
      "byteOffset": 2621400,
      "componentType": 5126,
      "count": 9433,
      "max": [
        -331.36785888671875,
        478.26190185546875,
        285.9073791503906
      ],
      "min": [
        -1248.1640625,
        -249.8719024658203,
        -35.31970977783203
      ],
      "type": "VEC3"
    },
    {
      "bufferView": 2,
      "byteOffset": 2734596,
      "componentType": 5126,
      "count": 9433,
      "max": [
        1.0,
        1.0,
        1.0
      ],
      "min": [
        -1.0,
        -1.0,
        -1.0
      ],
      "type": "VEC3"
    },
    {
      "bufferView": 1,
      "byteOffset": 873800,
      "componentType": 5126,
      "count": 9433,
      "max": [
        0.9995009899139404,
        2.998502016067505
      ],
      "min": [
        0.0004990000161342323,
        0.0014979999978095293
      ],
      "type": "VEC2"
    },
    {
      "bufferView": 0,
      "byteOffset": 886596,
      "componentType": 5125,
      "count": 12033,
      "type": "SCALAR"
    },
    {
      "bufferView": 2,
      "byteOffset": 2847792,
      "componentType": 5126,
      "count": 9999,
      "max": [
        -367.7881164550781,
        -34.34925842285156,
        83.0911636352539
      ],
      "min": [
        -682.070556640625,
        -84.86095428466797,
        -14.477263450622559
      ],
      "type": "VEC3"
    },
    {
      "bufferView": 2,
      "byteOffset": 2967780,
      "componentType": 5126,
      "count": 9999,
      "max": [
        1.0,
        1.0,
        1.0
      ],
      "min": [
        -1.0,
        -0.9999996423721313,
        -1.0
      ],
      "type": "VEC3"
    },
    {
      "bufferView": 1,
      "byteOffset": 949264,
      "componentType": 5126,
      "count": 9999,
      "max": [
        0.9994999766349792,
        2.998502016067505
      ],
      "min": [
        0.0005000000237487257,
        0.0014979999978095293
      ],
      "type": "VEC2"
    },
    {
      "bufferView": 0,
      "byteOffset": 934728,
      "componentType": 5125,
      "count": 12597,
      "type": "SCALAR"
    },
    {
      "bufferView": 2,
      "byteOffset": 3087768,
      "componentType": 5126,
      "count": 5702,
      "max": [
        164.7464141845703,
        1176.1904296875,
        433.99932861328125
      ],
      "min": [
        -1216.9150390625,
        -1068.8594970703125,
        -128.69432067871094
      ],
      "type": "VEC3"
    },
    {
      "bufferView": 2,
      "byteOffset": 3156192,
      "componentType": 5126,
      "count": 5702,
      "max": [
        1.0,
        1.0,
        1.0
      ],
      "min": [
        -1.0,
        -1.0,
        -1.0
      ],
      "type": "VEC3"
    },
    {
      "bufferView": 1,
      "byteOffset": 1029256,
      "componentType": 5126,
      "count": 5702,
      "max": [
        2.238218069076538,
        2.99466609954834
      ],
      "min": [
        -0.23821799457073212,
        -0.07498999685049057
      ],
      "type": "VEC2"
    },
    {
      "bufferView": 0,
      "byteOffset": 985116,
      "componentType": 5125,
      "count": 14973,
      "type": "SCALAR"
    },
    {
      "bufferView": 2,
      "byteOffset": 3224616,
      "componentType": 5126,
      "count": 9992,
      "max": [
        128.7467498779297,
        1192.05029296875,
        288.9210510253906
      ],
      "min": [
        -1216.9150390625,
        -1068.8594970703125,
        -128.69432067871094
      ],
      "type": "VEC3"
    },
    {
      "bufferView": 2,
      "byteOffset": 3344520,
      "componentType": 5126,
      "count": 9992,
      "max": [
        1.0,
        1.0,
        1.0
      ],
      "min": [
        -1.0,
        -1.0,
        -1.0
      ],
      "type": "VEC3"
    },
    {
      "bufferView": 1,
      "byteOffset": 1074872,
      "componentType": 5126,
      "count": 9992,
      "max": [
        2.238218069076538,
        2.998502016067505
      ],
      "min": [
        -0.23821799457073212,
        -0.07498999685049057
      ],
      "type": "VEC2"
    },
    {
      "bufferView": 0,
      "byteOffset": 1045008,
      "componentType": 5125,
      "count": 11460,
      "type": "SCALAR"
    },
    {
      "bufferView": 2,
      "byteOffset": 3464424,
      "componentType": 5126,
      "count": 9175,
      "max": [
        196.0915069580078,
        1188.984375,
        286.603515625
      ],
      "min": [
        -1176.6004638671875,
        -277.3089904785156,
        -72.57255554199219
      ],
      "type": "VEC3"
    },
    {
      "bufferView": 2,
      "byteOffset": 3574524,
      "componentType": 5126,
      "count": 9175,
      "max": [
        1.0,
        1.0,
        1.0
      ],
      "min": [
        -1.0,
        -1.0,
        -1.0
      ],
      "type": "VEC3"
    },
    {
      "bufferView": 1,
      "byteOffset": 1154808,
      "componentType": 5126,
      "count": 9175,
      "max": [
        9.995004653930664,
        4.997501850128174
      ],
      "min": [
        -0.02500000037252903,
        0.0
      ],
      "type": "VEC2"
    },
    {
      "bufferView": 0,
      "byteOffset": 1090848,
      "componentType": 5125,
      "count": 39213,
      "type": "SCALAR"
    },
    {
      "bufferView": 2,
      "byteOffset": 3684624,
      "componentType": 5126,
      "count": 8644,
      "max": [
        -245.0529022216797,
        384.3963623046875,
        211.42971801757812
      ],
      "min": [
        -1030.2760009765625,
        -203.22396850585938,
        33.49411392211914
      ],
      "type": "VEC3"
    },
    {
      "bufferView": 2,
      "byteOffset": 3788352,
      "componentType": 5126,
      "count": 8644,
      "max": [
        1.0,
        1.0,
        1.0
      ],
      "min": [
        -1.0,
        -1.0,
        -1.0
      ],
      "type": "VEC3"
    },
    {
      "bufferView": 1,
      "byteOffset": 1228208,
      "componentType": 5126,
      "count": 8644,
      "max": [
        1.0,
        1.0
      ],
      "min": [
        -0.02500000037252903,
        0.0
      ],
      "type": "VEC2"
    },
    {
      "bufferView": 0,
      "byteOffset": 1247700,
      "componentType": 5125,
      "count": 45480,
      "type": "SCALAR"
    },
    {
      "bufferView": 2,
      "byteOffset": 3892080,
      "componentType": 5126,
      "count": 8680,
      "max": [
        145.7317657470703,
        448.1776123046875,
        253.41346740722656
      ],
      "min": [
        -1154.3936767578125,
        -311.3078308105469,
        -20.0
      ],
      "type": "VEC3"
    },
    {
      "bufferView": 2,
      "byteOffset": 3996240,
      "componentType": 5126,
      "count": 8680,
      "max": [
        1.0,
        1.0,
        1.0
      ],
      "min": [
        -1.0,
        -1.0,
        -1.0
      ],
      "type": "VEC3"
    },
    {
      "bufferView": 1,
      "byteOffset": 1297360,
      "componentType": 5126,
      "count": 8680,
      "max": [
        14.992506980895996,
        9.995004653930664
      ],
      "min": [
        -0.02500000037252903,
        0.0
      ],
      "type": "VEC2"
    },
    {
      "bufferView": 0,
      "byteOffset": 1429620,
      "componentType": 5125,
      "count": 23337,
      "type": "SCALAR"
    },
    {
      "bufferView": 2,
      "byteOffset": 4100400,
      "componentType": 5126,
      "count": 9407,
      "max": [
        -298.54351806640625,
        207.77667236328125,
        83.0911636352539
      ],
      "min": [
        -811.9212646484375,
        -84.80408477783203,
        -14.874123573303223
      ],
      "type": "VEC3"
    },
    {
      "bufferView": 2,
      "byteOffset": 4213284,
      "componentType": 5126,
      "count": 9407,
      "max": [
        1.0,
        1.0,
        1.0
      ],
      "min": [
        -1.0,
        -1.0,
        -1.0
      ],
      "type": "VEC3"
    },
    {
      "bufferView": 1,
      "byteOffset": 1366800,
      "componentType": 5126,
      "count": 9407,
      "max": [
        0.9994999766349792,
        2.998502016067505
      ],
      "min": [
        0.0005000000237487257,
        0.0014979999978095293
      ],
      "type": "VEC2"
    },
    {
      "bufferView": 0,
      "byteOffset": 1522968,
      "componentType": 5125,
      "count": 14919,
      "type": "SCALAR"
    },
    {
      "bufferView": 2,
      "byteOffset": 4326168,
      "componentType": 5126,
      "count": 9007,
      "max": [
        -575.5219116210938,
        339.064697265625,
        241.02902221679688
      ],
      "min": [
        -1028.0211181640625,
        137.25738525390625,
        -14.477263450622559
      ],
      "type": "VEC3"
    },
    {
      "bufferView": 2,
      "byteOffset": 4434252,
      "componentType": 5126,
      "count": 9007,
      "max": [
        1.0,
        0.9999996423721313,
        1.0
      ],
      "min": [
        -1.0,
        -1.0,
        -1.0
      ],
      "type": "VEC3"
    },
    {
      "bufferView": 1,
      "byteOffset": 1442056,
      "componentType": 5126,
      "count": 9007,
      "max": [
        1.3526500463485718,
        2.998502016067505
      ],
      "min": [
        0.0005000000237487257,
        0.0014979999978095293
      ],
      "type": "VEC2"
    },
    {
      "bufferView": 0,
      "byteOffset": 1582644,
      "componentType": 5125,
      "count": 10569,
      "type": "SCALAR"
    },
    {
      "bufferView": 2,
      "byteOffset": 4542336,
      "componentType": 5126,
      "count": 20,
      "max": [
        61.938629150390625,
        352.2021179199219,
        191.5389404296875
      ],
      "min": [
        31.444530487060547,
        -215.14930725097656,
        121.38233947753906
      ],
      "type": "VEC3"
    },
    {
      "bufferView": 2,
      "byteOffset": 4542576,
      "componentType": 5126,
      "count": 20,
      "max": [
        -0.9169356226921082,
        0.00036599987652152777,
        -0.39858514070510864
      ],
      "min": [
        -0.9171313643455505,
        -0.00036599987652152777,
        -0.39903485774993896
      ],
      "type": "VEC3"
    },
    {
      "bufferView": 1,
      "byteOffset": 1514112,
      "componentType": 5126,
      "count": 20,
      "max": [
        0.0,
        0.8900619745254517
      ],
      "min": [
        0.0,
        0.3802730143070221
      ],
      "type": "VEC2"
    },
    {
      "bufferView": 0,
      "byteOffset": 1624920,
      "componentType": 5125,
      "count": 24,
      "type": "SCALAR"
    },
    {
      "bufferView": 2,
      "byteOffset": 4542816,
      "componentType": 5126,
      "count": 264,
      "max": [
        -15.306144714355469,
        410.8739929199219,
        167.6844024658203
      ],
      "min": [
        -1191.7301025390625,
        -276.17181396484375,
        52.85881805419922
      ],
      "type": "VEC3"
    },
    {
      "bufferView": 2,
      "byteOffset": 4545984,
      "componentType": 5126,
      "count": 264,
      "max": [
        1.0,
        1.0,
        0.9859217405319214
      ],
      "min": [
        -1.0,
        -1.0,
        -0.9859203696250916
      ],
      "type": "VEC3"
    },
    {
      "bufferView": 1,
      "byteOffset": 1514272,
      "componentType": 5126,
      "count": 264,
      "max": [
        1.0,
        1.0
      ],
      "min": [
        0.0,
        0.0
      ],
      "type": "VEC2"
    },
    {
      "bufferView": 0,
      "byteOffset": 1625016,
      "componentType": 5125,
      "count": 396,
      "type": "SCALAR"
    }
  ],
  "asset": {
    "extras": {
      "author": "lazae (https://sketchfab.com/lazae)",
      "license": "CC-BY-4.0 (http://creativecommons.org/licenses/by/4.0/)",
      "source": "https://sketchfab.com/3d-models/star-wars-mustafar-control-room-1e5f5e8a5bc546e1a778fc94fb452bda",
      "title": "Star Wars - Mustafar Control Room"
    },
    "generator": "Sketchfab-12.56.0",
    "version": "2.0"
  },
  "bufferViews": [
    {
      "buffer": 0,
      "byteLength": 1626600,
      "name": "floatBufferViews",
      "target": 34963
    },
    {
      "buffer": 0,
      "byteLength": 1516384,
      "byteOffset": 1626600,
      "byteStride": 8,
      "name": "floatBufferViews",
      "target": 34962
    },
    {
      "buffer": 0,
      "byteLength": 4549152,
      "byteOffset": 3142984,
      "byteStride": 12,
      "name": "floatBufferViews",
      "target": 34962
    }
  ],
  "buffers": [
    {
      "byteLength": 7692136,
      "uri": "scene.bin"
    }
  ],
  "materials": [
    {
      "doubleSided": true,
      "name": "Mustafar_Structure",
      "pbrMetallicRoughness": {
        "baseColorFactor": [
          0.12,
          0.13,
          0.16,
          1.0
        ],
        "metallicFactor": 0.5,
        "roughnessFactor": 0.5
      }
    },
    {
      "doubleSided": true,
      "name": "Mustafar_Floor",
      "pbrMetallicRoughness": {
        "baseColorFactor": [
          0.08,
          0.09,
          0.11,
          1.0
        ],
        "metallicFactor": 0.7,
        "roughnessFactor": 0.3
      }
    },
    {
      "alphaMode": "BLEND",
      "doubleSided": true,
      "name": "Mustafar_Window",
      "pbrMetallicRoughness": {
        "baseColorFactor": [
          0.12,
          0.09,
          0.07,
          0.35
        ],
        "metallicFactor": 0.8,
        "roughnessFactor": 0.1
      }
    },
    {
      "doubleSided": true,
      "name": "Mustafar_Consoles",
      "pbrMetallicRoughness": {
        "baseColorFactor": [
          0.06,
          0.07,
          0.08,
          1.0
        ],
        "metallicFactor": 0.4,
        "roughnessFactor": 0.5
      },
      "emissiveFactor": [
        0.25,
        0.1,
        0.02
      ]
    },
    {
      "doubleSided": true,
      "name": "Mustafar_TacticalTable",
      "pbrMetallicRoughness": {
        "baseColorFactor": [
          0.05,
          0.06,
          0.07,
          1.0
        ],
        "metallicFactor": 0.5,
        "roughnessFactor": 0.4
      },
      "emissiveFactor": [
        0.05,
        0.25,
        0.4
      ]
    },
    {
      "doubleSided": true,
      "name": "Mustafar_ExteriorRock",
      "pbrMetallicRoughness": {
        "baseColorFactor": [
          0.05,
          0.03,
          0.02,
          1.0
        ],
        "metallicFactor": 0.1,
        "roughnessFactor": 0.9
      },
      "emissiveFactor": [
        0.45,
        0.12,
        0.02
      ]
    },
    {
      "doubleSided": true,
      "name": "Mustafar_Trim",
      "pbrMetallicRoughness": {
        "baseColorFactor": [
          0.22,
          0.16,
          0.11,
          1.0
        ],
        "metallicFactor": 0.7,
        "roughnessFactor": 0.35
      }
    }
  ],
  "meshes": [
    {
      "name": "Object_0",
      "primitives": [
        {
          "attributes": {
            "NORMAL": 1,
            "POSITION": 0,
            "TEXCOORD_0": 2
          },
          "indices": 3,
          "material": 0,
          "mode": 4
        }
      ]
    },
    {
      "name": "Object_1",
      "primitives": [
        {
          "attributes": {
            "NORMAL": 5,
            "POSITION": 4,
            "TEXCOORD_0": 6
          },
          "indices": 7,
          "material": 0,
          "mode": 4
        }
      ]
    },
    {
      "name": "Object_2",
      "primitives": [
        {
          "attributes": {
            "NORMAL": 9,
            "POSITION": 8,
            "TEXCOORD_0": 10
          },
          "indices": 11,
          "material": 0,
          "mode": 4
        }
      ]
    },
    {
      "name": "Object_3",
      "primitives": [
        {
          "attributes": {
            "NORMAL": 13,
            "POSITION": 12,
            "TEXCOORD_0": 14
          },
          "indices": 15,
          "material": 0,
          "mode": 4
        }
      ]
    },
    {
      "name": "Object_4",
      "primitives": [
        {
          "attributes": {
            "NORMAL": 17,
            "POSITION": 16,
            "TEXCOORD_0": 18
          },
          "indices": 19,
          "material": 6,
          "mode": 4
        }
      ]
    },
    {
      "name": "Object_5",
      "primitives": [
        {
          "attributes": {
            "NORMAL": 21,
            "POSITION": 20,
            "TEXCOORD_0": 22
          },
          "indices": 23,
          "material": 0,
          "mode": 4
        }
      ]
    },
    {
      "name": "Object_6",
      "primitives": [
        {
          "attributes": {
            "NORMAL": 25,
            "POSITION": 24,
            "TEXCOORD_0": 26
          },
          "indices": 27,
          "material": 3,
          "mode": 4
        }
      ]
    },
    {
      "name": "Object_7",
      "primitives": [
        {
          "attributes": {
            "NORMAL": 29,
            "POSITION": 28,
            "TEXCOORD_0": 30
          },
          "indices": 31,
          "material": 3,
          "mode": 4
        }
      ]
    },
    {
      "name": "Object_8",
      "primitives": [
        {
          "attributes": {
            "NORMAL": 33,
            "POSITION": 32,
            "TEXCOORD_0": 34
          },
          "indices": 35,
          "material": 3,
          "mode": 4
        }
      ]
    },
    {
      "name": "Object_9",
      "primitives": [
        {
          "attributes": {
            "NORMAL": 37,
            "POSITION": 36,
            "TEXCOORD_0": 38
          },
          "indices": 39,
          "material": 1,
          "mode": 4
        }
      ]
    },
    {
      "name": "Object_10",
      "primitives": [
        {
          "attributes": {
            "NORMAL": 41,
            "POSITION": 40,
            "TEXCOORD_0": 42
          },
          "indices": 43,
          "material": 0,
          "mode": 4
        }
      ]
    },
    {
      "name": "Object_11",
      "primitives": [
        {
          "attributes": {
            "NORMAL": 45,
            "POSITION": 44,
            "TEXCOORD_0": 46
          },
          "indices": 47,
          "material": 0,
          "mode": 4
        }
      ]
    },
    {
      "name": "Object_12",
      "primitives": [
        {
          "attributes": {
            "NORMAL": 49,
            "POSITION": 48,
            "TEXCOORD_0": 50
          },
          "indices": 51,
          "material": 6,
          "mode": 4
        }
      ]
    },
    {
      "name": "Object_13",
      "primitives": [
        {
          "attributes": {
            "NORMAL": 53,
            "POSITION": 52,
            "TEXCOORD_0": 54
          },
          "indices": 55,
          "material": 0,
          "mode": 4
        }
      ]
    },
    {
      "name": "Object_14",
      "primitives": [
        {
          "attributes": {
            "NORMAL": 57,
            "POSITION": 56,
            "TEXCOORD_0": 58
          },
          "indices": 59,
          "material": 0,
          "mode": 4
        }
      ]
    },
    {
      "name": "Object_15",
      "primitives": [
        {
          "attributes": {
            "NORMAL": 61,
            "POSITION": 60,
            "TEXCOORD_0": 62
          },
          "indices": 63,
          "material": 0,
          "mode": 4
        }
      ]
    },
    {
      "name": "Object_16",
      "primitives": [
        {
          "attributes": {
            "NORMAL": 65,
            "POSITION": 64,
            "TEXCOORD_0": 66
          },
          "indices": 67,
          "material": 0,
          "mode": 4
        }
      ]
    },
    {
      "name": "Object_17",
      "primitives": [
        {
          "attributes": {
            "NORMAL": 69,
            "POSITION": 68,
            "TEXCOORD_0": 70
          },
          "indices": 71,
          "material": 0,
          "mode": 4
        }
      ]
    },
    {
      "name": "Object_18",
      "primitives": [
        {
          "attributes": {
            "NORMAL": 73,
            "POSITION": 72,
            "TEXCOORD_0": 74
          },
          "indices": 75,
          "material": 0,
          "mode": 4
        }
      ]
    },
    {
      "name": "Object_19",
      "primitives": [
        {
          "attributes": {
            "NORMAL": 77,
            "POSITION": 76,
            "TEXCOORD_0": 78
          },
          "indices": 79,
          "material": 0,
          "mode": 4
        }
      ]
    },
    {
      "name": "Object_20",
      "primitives": [
        {
          "attributes": {
            "NORMAL": 81,
            "POSITION": 80,
            "TEXCOORD_0": 82
          },
          "indices": 83,
          "material": 3,
          "mode": 4
        }
      ]
    },
    {
      "name": "Object_21",
      "primitives": [
        {
          "attributes": {
            "NORMAL": 85,
            "POSITION": 84,
            "TEXCOORD_0": 86
          },
          "indices": 87,
          "material": 5,
          "mode": 4
        }
      ]
    },
    {
      "name": "Object_22",
      "primitives": [
        {
          "attributes": {
            "NORMAL": 89,
            "POSITION": 88,
            "TEXCOORD_0": 90
          },
          "indices": 91,
          "material": 5,
          "mode": 4
        }
      ]
    },
    {
      "name": "Object_23",
      "primitives": [
        {
          "attributes": {
            "NORMAL": 93,
            "POSITION": 92,
            "TEXCOORD_0": 94
          },
          "indices": 95,
          "material": 0,
          "mode": 4
        }
      ]
    },
    {
      "name": "Object_24",
      "primitives": [
        {
          "attributes": {
            "NORMAL": 97,
            "POSITION": 96,
            "TEXCOORD_0": 98
          },
          "indices": 99,
          "material": 6,
          "mode": 4
        }
      ]
    },
    {
      "name": "Object_25",
      "primitives": [
        {
          "attributes": {
            "NORMAL": 101,
            "POSITION": 100,
            "TEXCOORD_0": 102
          },
          "indices": 103,
          "material": 0,
          "mode": 4
        }
      ]
    },
    {
      "name": "Object_26",
      "primitives": [
        {
          "attributes": {
            "NORMAL": 105,
            "POSITION": 104,
            "TEXCOORD_0": 106
          },
          "indices": 107,
          "material": 4,
          "mode": 4
        }
      ]
    },
    {
      "name": "Object_27",
      "primitives": [
        {
          "attributes": {
            "NORMAL": 109,
            "POSITION": 108,
            "TEXCOORD_0": 110
          },
          "indices": 111,
          "material": 0,
          "mode": 4
        }
      ]
    },
    {
      "name": "Object_28",
      "primitives": [
        {
          "attributes": {
            "NORMAL": 113,
            "POSITION": 112,
            "TEXCOORD_0": 114
          },
          "indices": 115,
          "material": 0,
          "mode": 4
        }
      ]
    },
    {
      "name": "Object_29",
      "primitives": [
        {
          "attributes": {
            "NORMAL": 117,
            "POSITION": 116,
            "TEXCOORD_0": 118
          },
          "indices": 119,
          "material": 2,
          "mode": 4
        }
      ]
    }
  ],
  "nodes": [
    {
      "children": [
        1
      ],
      "matrix": [
        1.0,
        0.0,
        0.0,
        0.0,
        0.0,
        2.220446049250313e-16,
        -1.0,
        0.0,
        0.0,
        1.0,
        2.220446049250313e-16,
        0.0,
        0.0,
        0.0,
        0.0,
        1.0
      ],
      "name": "Sketchfab_model"
    },
    {
      "children": [
        2,
        3,
        4,
        5,
        6,
        7,
        8,
        9,
        10,
        11,
        12,
        13,
        14,
        15,
        16,
        17,
        18,
        19,
        20,
        21,
        22,
        23,
        24,
        25,
        26,
        27,
        28,
        29,
        30,
        31
      ],
      "name": "Mustafar.obj.cleaner.materialmerger.gles"
    },
    {
      "mesh": 0,
      "name": "Object_2"
    },
    {
      "mesh": 1,
      "name": "Object_3"
    },
    {
      "mesh": 2,
      "name": "Object_4"
    },
    {
      "mesh": 3,
      "name": "Object_5"
    },
    {
      "mesh": 4,
      "name": "Object_6"
    },
    {
      "mesh": 5,
      "name": "Object_7"
    },
    {
      "mesh": 6,
      "name": "Object_8"
    },
    {
      "mesh": 7,
      "name": "Object_9"
    },
    {
      "mesh": 8,
      "name": "Object_10"
    },
    {
      "mesh": 9,
      "name": "Object_11"
    },
    {
      "mesh": 10,
      "name": "Object_12"
    },
    {
      "mesh": 11,
      "name": "Object_13"
    },
    {
      "mesh": 12,
      "name": "Object_14"
    },
    {
      "mesh": 13,
      "name": "Object_15"
    },
    {
      "mesh": 14,
      "name": "Object_16"
    },
    {
      "mesh": 15,
      "name": "Object_17"
    },
    {
      "mesh": 16,
      "name": "Object_18"
    },
    {
      "mesh": 17,
      "name": "Object_19"
    },
    {
      "mesh": 18,
      "name": "Object_20"
    },
    {
      "mesh": 19,
      "name": "Object_21"
    },
    {
      "mesh": 20,
      "name": "Object_22"
    },
    {
      "mesh": 21,
      "name": "Object_23"
    },
    {
      "mesh": 22,
      "name": "Object_24"
    },
    {
      "mesh": 23,
      "name": "Object_25"
    },
    {
      "mesh": 24,
      "name": "Object_26"
    },
    {
      "mesh": 25,
      "name": "Object_27"
    },
    {
      "mesh": 26,
      "name": "Object_28"
    },
    {
      "mesh": 27,
      "name": "Object_29"
    },
    {
      "mesh": 28,
      "name": "Object_30"
    },
    {
      "mesh": 29,
      "name": "Object_31"
    }
  ],
  "scene": 0,
  "scenes": [
    {
      "name": "Sketchfab_Scene",
      "nodes": [
        0
      ]
    }
  ]
}