{
  "accessors": [
    {
      "bufferView": 2,
      "componentType": 5126,
      "count": 1354,
      "max": [
        0.809128999710083,
        1.4366940259933472,
        1.4141709804534912
      ],
      "min": [
        -0.8012830018997192,
        -0.8416439890861511,
        -0.0006309999735094607
      ],
      "type": "VEC3"
    },
    {
      "bufferView": 2,
      "byteOffset": 16248,
      "componentType": 5126,
      "count": 1354,
      "max": [
        1.0,
        1.0,
        1.0
      ],
      "min": [
        -1.0,
        -1.0,
        -1.0
      ],
      "type": "VEC3"
    },
    {
      "bufferView": 1,
      "componentType": 5126,
      "count": 1354,
      "max": [
        1.0,
        0.9856500029563904
      ],
      "min": [
        0.0,
        0.0
      ],
      "type": "VEC2"
    },
    {
      "bufferView": 0,
      "componentType": 5125,
      "count": 3126,
      "type": "SCALAR"
    },
    {
      "bufferView": 2,
      "byteOffset": 32496,
      "componentType": 5126,
      "count": 1379,
      "max": [
        0.6031969785690308,
        1.2132149934768677,
        2.0919740200042725
      ],
      "min": [
        -0.6043879985809326,
        -0.2335990071296692,
        0.8974930047988892
      ],
      "type": "VEC3"
    },
    {
      "bufferView": 2,
      "byteOffset": 49044,
      "componentType": 5126,
      "count": 1379,
      "max": [
        1.0,
        1.0,
        1.0
      ],
      "min": [
        -1.0,
        -1.0,
        -1.0
      ],
      "type": "VEC3"
    },
    {
      "bufferView": 1,
      "byteOffset": 10832,
      "componentType": 5126,
      "count": 1379,
      "max": [
        1.0,
        1.0
      ],
      "min": [
        -0.00279999990016222,
        0.0
      ],
      "type": "VEC2"
    },
    {
      "bufferView": 0,
      "byteOffset": 12504,
      "componentType": 5125,
      "count": 3243,
      "type": "SCALAR"
    },
    {
      "bufferView": 2,
      "byteOffset": 65592,
      "componentType": 5126,
      "count": 681,
      "max": [
        0.5700979828834534,
        0.9763209819793701,
        2.0827279090881348
      ],
      "min": [
        -0.5660489797592163,
        -0.19791600108146667,
        1.4941049814224243
      ],
      "type": "VEC3"
    },
    {
      "bufferView": 2,
      "byteOffset": 73764,
      "componentType": 5126,
      "count": 681,
      "max": [
        1.0,
        0.9946326017379761,
        1.0
      ],
      "min": [
        -1.0,
        -0.9426833987236023,
        -1.0
      ],
      "type": "VEC3"
    },
    {
      "bufferView": 1,
      "byteOffset": 21864,
      "componentType": 5126,
      "count": 681,
      "max": [
        0.9861199855804443,
        0.9986600279808044
      ],
      "min": [
        0.0013699999544769526,
        0.148389995098114
      ],
      "type": "VEC2"
    },
    {
      "bufferView": 0,
      "byteOffset": 25476,
      "componentType": 5125,
      "count": 1338,
      "type": "SCALAR"
    }
  ],
  "asset": {
    "extras": {
      "author": "S🅾️Meme star wars (https://sketchfab.com/dylantrooper7)",
      "license": "CC-BY-4.0 (http://creativecommons.org/licenses/by/4.0/)",
      "source": "https://sketchfab.com/3d-models/star-wars-battlefront-droideka-f3688d384b2042b6a8fc3360f64b9a48",
      "title": "Star Wars Battlefront - Droideka"
    },
    "generator": "Sketchfab-12.63.0",
    "version": "2.0"
  },
  "bufferViews": [
    {
      "buffer": 0,
      "byteLength": 30828,
      "name": "floatBufferViews",
      "target": 34963
    },
    {
      "buffer": 0,
      "byteLength": 27312,
      "byteOffset": 30828,
      "byteStride": 8,
      "name": "floatBufferViews",
      "target": 34962
    },
    {
      "buffer": 0,
      "byteLength": 81936,
      "byteOffset": 58140,
      "byteStride": 12,
      "name": "floatBufferViews",
      "target": 34962
    }
  ],
  "buffers": [
    {
      "byteLength": 140076,
      "uri": "scene.bin"
    }
  ],
  "images": [
    {
      "uri": "textures/Shape.005_baseColor.png"
    }
  ],
  "materials": [
    {
      "doubleSided": true,
      "name": "Shape.005",
      "pbrMetallicRoughness": {
        "baseColorTexture": {
          "index": 0
        },
        "metallicFactor": 0.0
      }
    },
    {
      "doubleSided": true,
      "name": "Shape.006",
      "pbrMetallicRoughness": {
        "baseColorTexture": {
          "index": 0
        },
        "metallicFactor": 0.0
      }
    },
    {
      "doubleSided": true,
      "name": "Shape.007",
      "pbrMetallicRoughness": {
        "baseColorTexture": {
          "index": 0
        },
        "metallicFactor": 0.0
      }
    }
  ],
  "meshes": [
    {
      "name": "Object_0",
      "primitives": [
        {
          "attributes": {
            "NORMAL": 1,
            "POSITION": 0,
            "TEXCOORD_0": 2
          },
          "indices": 3,
          "material": 0,
          "mode": 4
        }
      ]
    },
    {
      "name": "Object_1",
      "primitives": [
        {
          "attributes": {
            "NORMAL": 5,
            "POSITION": 4,
            "TEXCOORD_0": 6
          },
          "indices": 7,
          "material": 1,
          "mode": 4
        }
      ]
    },
    {
      "name": "Object_2",
      "primitives": [
        {
          "attributes": {
            "NORMAL": 9,
            "POSITION": 8,
            "TEXCOORD_0": 10
          },
          "indices": 11,
          "material": 2,
          "mode": 4
        }
      ]
    }
  ],
  "nodes": [
    {
      "children": [
        1
      ],
      "matrix": [
        1.0,
        0.0,
        0.0,
        0.0,
        0.0,
        2.220446049250313e-16,
        -1.0,
        0.0,
        0.0,
        1.0,
        2.220446049250313e-16,
        0.0,
        0.0,
        0.0,
        0.0,
        1.0
      ],
      "name": "Sketchfab_model"
    },
    {
      "children": [
        2,
        3,
        4
      ],
      "name": "cis_inf_droideka.obj.cleaner.materialmerger.gles"
    },
    {
      "mesh": 0,
      "name": "Object_2"
    },
    {
      "mesh": 1,
      "name": "Object_3"
    },
    {
      "mesh": 2,
      "name": "Object_4"
    }
  ],
  "samplers": [
    {
      "magFilter": 9729,
      "minFilter": 9987,
      "wrapS": 10497,
      "wrapT": 10497
    }
  ],
  "scene": 0,
  "scenes": [
    {
      "name": "Sketchfab_Scene",
      "nodes": [
        0
      ]
    }
  ],
  "textures": [
    {
      "sampler": 0,
      "source": 0
    }
  ]
}
