{
  "accessors": [
    {
      "bufferView": 2,
      "componentType": 5126,
      "count": 982,
      "max": [
        3.022130012512207,
        -1.0552200078964233,
        2.767009973526001
      ],
      "min": [
        -3.022130012512207,
        -10.880370140075684,
        -1.1862399578094482
      ],
      "type": "VEC3"
    },
    {
      "bufferView": 2,
      "byteOffset": 11784,
      "componentType": 5126,
      "count": 982,
      "max": [
        1.0,
        1.0,
        1.0
      ],
      "min": [
        -1.0,
        -1.0,
        -1.0
      ],
      "type": "VEC3"
    },
    {
      "bufferView": 0,
      "componentType": 5125,
      "count": 1752,
      "type": "SCALAR"
    },
    {
      "bufferView": 2,
      "byteOffset": 23568,
      "componentType": 5126,
      "count": 80,
      "max": [
        2.511579990386963,
        -3.352829933166504,
        1.507580041885376
      ],
      "min": [
        -0.5408400297164917,
        -7.355440139770508,
        0.71697998046875
      ],
      "type": "VEC3"
    },
    {
      "bufferView": 2,
      "byteOffset": 24528,
      "componentType": 5126,
      "count": 80,
      "max": [
        1.0,
        0.9988197684288025,
        0.9341000914573669
      ],
      "min": [
        -1.0,
        -0.9988197684288025,
        -0.9341000914573669
      ],
      "type": "VEC3"
    },
    {
      "bufferView": 0,
      "byteOffset": 7008,
      "componentType": 5125,
      "count": 120,
      "type": "SCALAR"
    },
    {
      "bufferView": 2,
      "byteOffset": 25488,
      "componentType": 5126,
      "count": 60,
      "max": [
        2.3278400897979736,
        -5.501719951629639,
        0.9867100119590759
      ],
      "min": [
        -0.3066299855709076,
        -6.914229869842529,
        0.7169100046157837
      ],
      "type": "VEC3"
    },
    {
      "bufferView": 2,
      "byteOffset": 26208,
      "componentType": 5126,
      "count": 60,
      "max": [
        1.0,
        0.9726252555847168,
        0.8932567238807678
      ],
      "min": [
        -1.0,
        -0.9726252555847168,
        -0.8932567238807678
      ],
      "type": "VEC3"
    },
    {
      "bufferView": 0,
      "byteOffset": 7488,
      "componentType": 5125,
      "count": 90,
      "type": "SCALAR"
    },
    {
      "bufferView": 2,
      "byteOffset": 26928,
      "componentType": 5126,
      "count": 60,
      "max": [
        0.24548999965190887,
        -4.392139911651611,
        1.507580041885376
      ],
      "min": [
        -2.4821701049804688,
        -7.355440139770508,
        0.7169100046157837
      ],
      "type": "VEC3"
    },
    {
      "bufferView": 2,
      "byteOffset": 27648,
      "componentType": 5126,
      "count": 60,
      "max": [
        1.0,
        0.9988197684288025,
        0.9341000914573669
      ],
      "min": [
        -1.0,
        -0.9988197684288025,
        -0.9341000914573669
      ],
      "type": "VEC3"
    },
    {
      "bufferView": 0,
      "byteOffset": 7848,
      "componentType": 5125,
      "count": 90,
      "type": "SCALAR"
    },
    {
      "bufferView": 2,
      "byteOffset": 28368,
      "componentType": 5126,
      "count": 44,
      "max": [
        1.2859899997711182,
        -6.840909957885742,
        1.414720058441162
      ],
      "min": [
        -1.5092400312423706,
        -7.136819839477539,
        1.05771005153656
      ],
      "type": "VEC3"
    },
    {
      "bufferView": 2,
      "byteOffset": 28896,
      "componentType": 5126,
      "count": 44,
      "max": [
        2.0000006770715117e-05,
        0.7699291706085205,
        0.6381510496139526
      ],
      "min": [
        -1.0000016118283384e-05,
        0.7699112892150879,
        0.6381293535232544
      ],
      "type": "VEC3"
    },
    {
      "bufferView": 0,
      "byteOffset": 8208,
      "componentType": 5125,
      "count": 60,
      "type": "SCALAR"
    },
    {
      "bufferView": 2,
      "byteOffset": 29424,
      "componentType": 5126,
      "count": 60,
      "max": [
        0.25290998816490173,
        3.856149911880493,
        -0.18106000125408173
      ],
      "min": [
        -0.25290998816490173,
        -3.423870086669922,
        -0.5996999740600586
      ],
      "type": "VEC3"
    },
    {
      "bufferView": 2,
      "byteOffset": 30144,
      "componentType": 5126,
      "count": 60,
      "max": [
        1.0,
        1.0,
        0.0
      ],
      "min": [
        -1.0,
        -1.0,
        -1.0
      ],
      "type": "VEC3"
    },
    {
      "bufferView": 0,
      "byteOffset": 8448,
      "componentType": 5125,
      "count": 150,
      "type": "SCALAR"
    },
    {
      "bufferView": 2,
      "byteOffset": 30864,
      "componentType": 5126,
      "count": 15074,
      "max": [
        2.144700050354004,
        4.363009929656982,
        5.275859832763672
      ],
      "min": [
        -2.144700050354004,
        -4.629479885101318,
        -0.6891300082206726
      ],
      "type": "VEC3"
    },
    {
      "bufferView": 2,
      "byteOffset": 211752,
      "componentType": 5126,
      "count": 15074,
      "max": [
        1.0,
        1.0,
        1.0
      ],
      "min": [
        -1.0,
        -1.0,
        -1.0
      ],
      "type": "VEC3"
    },
    {
      "bufferView": 1,
      "componentType": 5126,
      "count": 15074,
      "max": [
        60.49673080444336,
        60.49066925048828
      ],
      "min": [
        -43.10322189331055,
        -35.60321044921875
      ],
      "type": "VEC2"
    },
    {
      "bufferView": 0,
      "byteOffset": 9048,
      "componentType": 5125,
      "count": 29052,
      "type": "SCALAR"
    },
    {
      "bufferView": 2,
      "byteOffset": 392640,
      "componentType": 5126,
      "count": 144,
      "max": [
        1.9810500144958496,
        4.27564001083374,
        0.09362000226974487
      ],
      "min": [
        -1.9810500144958496,
        4.27564001083374,
        -0.09362000226974487
      ],
      "type": "VEC3"
    },
    {
      "bufferView": 2,
      "byteOffset": 394368,
      "componentType": 5126,
      "count": 144,
      "max": [
        0.0,
        1.0,
        0.0
      ],
      "min": [
        0.0,
        1.0,
        0.0
      ],
      "type": "VEC3"
    },
    {
      "bufferView": 1,
      "byteOffset": 120592,
      "componentType": 5126,
      "count": 144,
      "max": [
        0.0,
        0.0
      ],
      "min": [
        0.0,
        0.0
      ],
      "type": "VEC2"
    },
    {
      "bufferView": 0,
      "byteOffset": 125256,
      "componentType": 5125,
      "count": 396,
      "type": "SCALAR"
    },
    {
      "bufferView": 2,
      "byteOffset": 396096,
      "componentType": 5126,
      "count": 40,
      "max": [
        0.1673000007867813,
        3.238919973373413,
        1.3997600078582764
      ],
      "min": [
        -0.1673000007867813,
        2.1934800148010254,
        1.2076599597930908
      ],
      "type": "VEC3"
    },
    {
      "bufferView": 2,
      "byteOffset": 396576,
      "componentType": 5126,
      "count": 40,
      "max": [
        1.0,
        -0.0,
        0.0
      ],
      "min": [
        -1.0,
        -0.0,
        0.0
      ],
      "type": "VEC3"
    },
    {
      "bufferView": 1,
      "byteOffset": 121744,
      "componentType": 5126,
      "count": 40,
      "max": [
        0.0,
        0.0
      ],
      "min": [
        0.0,
        0.0
      ],
      "type": "VEC2"
    },
    {
      "bufferView": 0,
      "byteOffset": 126840,
      "componentType": 5125,
      "count": 60,
      "type": "SCALAR"
    },
    {
      "bufferView": 2,
      "byteOffset": 397056,
      "componentType": 5126,
      "count": 216,
      "max": [
        0.3626500070095062,
        0.5133600234985352,
        1.2561099529266357
      ],
      "min": [
        -0.3626500070095062,
        0.4352099895477295,
        0.968779981136322
      ],
      "type": "VEC3"
    },
    {
      "bufferView": 2,
      "byteOffset": 399648,
      "componentType": 5126,
      "count": 216,
      "max": [
        1.0,
        1.0,
        0.0
      ],
      "min": [
        -1.0,
        -0.0,
        0.0
      ],
      "type": "VEC3"
    },
    {
      "bufferView": 1,
      "byteOffset": 122064,
      "componentType": 5126,
      "count": 216,
      "max": [
        0.0,
        0.0
      ],
      "min": [
        0.0,
        0.0
      ],
      "type": "VEC2"
    },
    {
      "bufferView": 0,
      "byteOffset": 127080,
      "componentType": 5125,
      "count": 324,
      "type": "SCALAR"
    },
    {
      "bufferView": 2,
      "byteOffset": 402240,
      "componentType": 5126,
      "count": 2993,
      "max": [
        2.112380027770996,
        4.37224006652832,
        5.340060234069824
      ],
      "min": [
        -2.112380027770996,
        -5.0406599044799805,
        -0.6786100268363953
      ],
      "type": "VEC3"
    },
    {
      "bufferView": 2,
      "byteOffset": 438156,
      "componentType": 5126,
      "count": 2993,
      "max": [
        1.0,
        1.0,
        1.0
      ],
      "min": [
        -1.0,
        -1.0,
        -1.0
      ],
      "type": "VEC3"
    },
    {
      "bufferView": 0,
      "byteOffset": 128376,
      "componentType": 5125,
      "count": 8157,
      "type": "SCALAR"
    },
    {
      "bufferView": 2,
      "byteOffset": 474072,
      "componentType": 5126,
      "count": 50,
      "max": [
        0.864080011844635,
        3.944200038909912,
        1.2510900497436523
      ],
      "min": [
        -0.864080011844635,
        -0.41986000537872314,
        -0.40066999197006226
      ],
      "type": "VEC3"
    },
    {
      "bufferView": 2,
      "byteOffset": 474672,
      "componentType": 5126,
      "count": 50,
      "max": [
        0.0036200096365064383,
        1.0,
        0.0033000153489410877
      ],
      "min": [
        -0.0036200096365064383,
        -1.0,
        -9.999999747378752e-06
      ],
      "type": "VEC3"
    },
    {
      "bufferView": 0,
      "byteOffset": 161004,
      "componentType": 5125,
      "count": 84,
      "type": "SCALAR"
    },
    {
      "bufferView": 2,
      "byteOffset": 475272,
      "componentType": 5126,
      "count": 8,
      "max": [
        0.6392199993133545,
        2.5780699253082275,
        -0.4274199903011322
      ],
      "min": [
        -0.6392199993133545,
        1.7998299598693848,
        -0.4274199903011322
      ],
      "type": "VEC3"
    },
    {
      "bufferView": 2,
      "byteOffset": 475368,
      "componentType": 5126,
      "count": 8,
      "max": [
        0.0,
        -0.0,
        -1.0
      ],
      "min": [
        0.0,
        -0.0,
        -1.0
      ],
      "type": "VEC3"
    },
    {
      "bufferView": 0,
      "byteOffset": 161340,
      "componentType": 5125,
      "count": 12,
      "type": "SCALAR"
    },
    {
      "bufferView": 2,
      "byteOffset": 475464,
      "componentType": 5126,
      "count": 13142,
      "max": [
        4.757160186767578,
        1.6345900297164917,
        2.9195001125335693
      ],
      "min": [
        -0.04820000007748604,
        -3.876499891281128,
        -0.23903000354766846
      ],
      "type": "VEC3"
    },
    {
      "bufferView": 2,
      "byteOffset": 633168,
      "componentType": 5126,
      "count": 13142,
      "max": [
        1.0,
        1.0,
        1.0
      ],
      "min": [
        -1.0,
        -1.0,
        -1.0
      ],
      "type": "VEC3"
    },
    {
      "bufferView": 1,
      "byteOffset": 123792,
      "componentType": 5126,
      "count": 13142,
      "max": [
        2.0636000633239746,
        1.8728200197219849
      ],
      "min": [
        -0.5545300245285034,
        -1.1029900312423706
      ],
      "type": "VEC2"
    },
    {
      "bufferView": 0,
      "byteOffset": 161388,
      "componentType": 5125,
      "count": 27528,
      "type": "SCALAR"
    },
    {
      "bufferView": 2,
      "byteOffset": 790872,
      "componentType": 5126,
      "count": 82,
      "max": [
        4.304460048675537,
        1.265120029449463,
        2.6115000247955322
      ],
      "min": [
        0.4628300070762634,
        -3.709199905395508,
        -0.1915999948978424
      ],
      "type": "VEC3"
    },
    {
      "bufferView": 2,
      "byteOffset": 791856,
      "componentType": 5126,
      "count": 82,
      "max": [
        0.5626707077026367,
        0.0,
        0.8271286487579346
      ],
      "min": [
        -0.5628266334533691,
        -1.0,
        -0.8317501544952393
      ],
      "type": "VEC3"
    },
    {
      "bufferView": 1,
      "byteOffset": 228928,
      "componentType": 5126,
      "count": 82,
      "max": [
        0.0,
        0.0
      ],
      "min": [
        0.0,
        0.0
      ],
      "type": "VEC2"
    },
    {
      "bufferView": 0,
      "byteOffset": 271500,
      "componentType": 5125,
      "count": 192,
      "type": "SCALAR"
    },
    {
      "bufferView": 2,
      "byteOffset": 792840,
      "componentType": 5126,
      "count": 1360,
      "max": [
        4.050260066986084,
        0.8804100155830383,
        2.466789960861206
      ],
      "min": [
        0.8908799886703491,
        -0.9178299903869629,
        0.19312000274658203
      ],
      "type": "VEC3"
    },
    {
      "bufferView": 2,
      "byteOffset": 809160,
      "componentType": 5126,
      "count": 1360,
      "max": [
        0.9959976077079773,
        0.0,
        0.8313218951225281
      ],
      "min": [
        -0.9959976077079773,
        0.0,
        -0.8313295841217041
      ],
      "type": "VEC3"
    },
    {
      "bufferView": 1,
      "byteOffset": 229584,
      "componentType": 5126,
      "count": 1360,
      "max": [
        0.0,
        0.0
      ],
      "min": [
        0.0,
        0.0
      ],
      "type": "VEC2"
    },
    {
      "bufferView": 0,
      "byteOffset": 272268,
      "componentType": 5125,
      "count": 2040,
      "type": "SCALAR"
    },
    {
      "bufferView": 2,
      "byteOffset": 825480,
      "componentType": 5126,
      "count": 12639,
      "max": [
        4.736760139465332,
        1.6345900297164917,
        0.23362000286579132
      ],
      "min": [
        -0.04820000007748604,
        -3.876499891281128,
        -2.9532899856567383
      ],
      "type": "VEC3"
    },
    {
      "bufferView": 2,
      "byteOffset": 977148,
      "componentType": 5126,
      "count": 12639,
      "max": [
        1.0,
        1.0,
        1.0
      ],
      "min": [
        -1.0,
        -1.0,
        -1.0
      ],
      "type": "VEC3"
    },
    {
      "bufferView": 1,
      "byteOffset": 240464,
      "componentType": 5126,
      "count": 12639,
      "max": [
        2.0636000633239746,
        1.8728200197219849
      ],
      "min": [
        -0.5545300245285034,
        -1.1029900312423706
      ],
      "type": "VEC2"
    },
    {
      "bufferView": 0,
      "byteOffset": 280428,
      "componentType": 5125,
      "count": 26838,
      "type": "SCALAR"
    },
    {
      "bufferView": 2,
      "byteOffset": 1128816,
      "componentType": 5126,
      "count": 18,
      "max": [
        4.282839775085449,
        1.265120029449463,
        -0.02418999932706356
      ],
      "min": [
        0.4626699984073639,
        -1.1793800592422485,
        -2.6424601078033447
      ],
      "type": "VEC3"
    },
    {
      "bufferView": 2,
      "byteOffset": 1129032,
      "componentType": 5126,
      "count": 18,
      "max": [
        0.5686201453208923,
        0.0,
        0.8277252912521362
      ],
      "min": [
        -0.5679701566696167,
        0.0,
        -0.8230492472648621
      ],
      "type": "VEC3"
    },
    {
      "bufferView": 1,
      "byteOffset": 341576,
      "componentType": 5126,
      "count": 18,
      "max": [
        0.0,
        0.0
      ],
      "min": [
        0.0,
        0.0
      ],
      "type": "VEC2"
    },
    {
      "bufferView": 0,
      "byteOffset": 387780,
      "componentType": 5125,
      "count": 30,
      "type": "SCALAR"
    },
    {
      "bufferView": 2,
      "byteOffset": 1129248,
      "componentType": 5126,
      "count": 1372,
      "max": [
        4.286089897155762,
        1.265120029449463,
        0.049469999969005585
      ],
      "min": [
        0.5083500146865845,
        -1.1793800592422485,
        -2.5619900226593018
      ],
      "type": "VEC3"
    },
    {
      "bufferView": 2,
      "byteOffset": 1145712,
      "componentType": 5126,
      "count": 1372,
      "max": [
        0.9953272342681885,
        0.0,
        0.8272923827171326
      ],
      "min": [
        -0.9953272342681885,
        0.0,
        -0.8273001909255981
      ],
      "type": "VEC3"
    },
    {
      "bufferView": 1,
      "byteOffset": 341720,
      "componentType": 5126,
      "count": 1372,
      "max": [
        0.0,
        0.0
      ],
      "min": [
        0.0,
        0.0
      ],
      "type": "VEC2"
    },
    {
      "bufferView": 0,
      "byteOffset": 387900,
      "componentType": 5125,
      "count": 2064,
      "type": "SCALAR"
    },
    {
      "bufferView": 2,
      "byteOffset": 1162176,
      "componentType": 5126,
      "count": 3744,
      "max": [
        2.778130054473877,
        1.7653299570083618,
        0.11286000162363052
      ],
      "min": [
        -0.04820000007748604,
        -2.0509700775146484,
        -0.08008000254631042
      ],
      "type": "VEC3"
    },
    {
      "bufferView": 2,
      "byteOffset": 1207104,
      "componentType": 5126,
      "count": 3744,
      "max": [
        1.0,
        1.0,
        1.0
      ],
      "min": [
        -1.0,
        -1.0,
        -1.0
      ],
      "type": "VEC3"
    },
    {
      "bufferView": 0,
      "byteOffset": 396156,
      "componentType": 5125,
      "count": 6612,
      "type": "SCALAR"
    },
    {
      "bufferView": 2,
      "byteOffset": 1252032,
      "componentType": 5126,
      "count": 3746,
      "max": [
        0.04820000007748604,
        1.7653299570083618,
        0.11286000162363052
      ],
      "min": [
        -2.778130054473877,
        -2.0509700775146484,
        -0.08008000254631042
      ],
      "type": "VEC3"
    },
    {
      "bufferView": 2,
      "byteOffset": 1296984,
      "componentType": 5126,
      "count": 3746,
      "max": [
        1.0,
        1.0,
        1.0
      ],
      "min": [
        -1.0,
        -1.0,
        -1.0
      ],
      "type": "VEC3"
    },
    {
      "bufferView": 0,
      "byteOffset": 422604,
      "componentType": 5125,
      "count": 6612,
      "type": "SCALAR"
    },
    {
      "bufferView": 2,
      "byteOffset": 1341936,
      "componentType": 5126,
      "count": 68,
      "max": [
        0.36247000098228455,
        0.417059987783432,
        0.0022100000642240047
      ],
      "min": [
        -0.009460000321269035,
        -0.4206700026988983,
        -0.12387999892234802
      ],
      "type": "VEC3"
    },
    {
      "bufferView": 2,
      "byteOffset": 1342752,
      "componentType": 5126,
      "count": 68,
      "max": [
        1.0,
        1.0,
        1.0
      ],
      "min": [
        -1.0,
        -1.0,
        -1.0
      ],
      "type": "VEC3"
    },
    {
      "bufferView": 0,
      "byteOffset": 449052,
      "componentType": 5125,
      "count": 108,
      "type": "SCALAR"
    },
    {
      "bufferView": 2,
      "byteOffset": 1343568,
      "componentType": 5126,
      "count": 706,
      "max": [
        0.13249999284744263,
        -1.7809300422668457,
        0.06480000168085098
      ],
      "min": [
        -0.13249999284744263,
        -2.690269947052002,
        -0.5752500295639038
      ],
      "type": "VEC3"
    },
    {
      "bufferView": 2,
      "byteOffset": 1352040,
      "componentType": 5126,
      "count": 706,
      "max": [
        1.0,
        1.0,
        1.0
      ],
      "min": [
        -1.0,
        -1.0,
        -1.0
      ],
      "type": "VEC3"
    },
    {
      "bufferView": 0,
      "byteOffset": 449484,
      "componentType": 5125,
      "count": 1812,
      "type": "SCALAR"
    },
    {
      "bufferView": 2,
      "byteOffset": 1360512,
      "componentType": 5126,
      "count": 56,
      "max": [
        0.14192000031471252,
        0.8772500157356262,
        0.005179999861866236
      ],
      "min": [
        -0.0014100000262260437,
        -0.11112000048160553,
        -0.009460000321269035
      ],
      "type": "VEC3"
    },
    {
      "bufferView": 2,
      "byteOffset": 1361184,
      "componentType": 5126,
      "count": 56,
      "max": [
        1.0,
        1.0,
        1.0
      ],
      "min": [
        -0.9997863173484802,
        -1.0,
        -1.0
      ],
      "type": "VEC3"
    },
    {
      "bufferView": 0,
      "byteOffset": 456732,
      "componentType": 5125,
      "count": 84,
      "type": "SCALAR"
    },
    {
      "bufferView": 2,
      "byteOffset": 1361856,
      "componentType": 5126,
      "count": 56,
      "max": [
        0.001230000052601099,
        0.8772500157356262,
        0.005179999861866236
      ],
      "min": [
        -0.1421000063419342,
        -0.11112000048160553,
        -0.009460000321269035
      ],
      "type": "VEC3"
    },
    {
      "bufferView": 2,
      "byteOffset": 1362528,
      "componentType": 5126,
      "count": 56,
      "max": [
        0.9997863173484802,
        1.0,
        1.0
      ],
      "min": [
        -1.0,
        -1.0,
        -1.0
      ],
      "type": "VEC3"
    },
    {
      "bufferView": 0,
      "byteOffset": 457068,
      "componentType": 5125,
      "count": 84,
      "type": "SCALAR"
    },
    {
      "bufferView": 2,
      "byteOffset": 1363200,
      "componentType": 5126,
      "count": 68,
      "max": [
        0.009460000321269035,
        0.417059987783432,
        0.0022100000642240047
      ],
      "min": [
        -0.36247000098228455,
        -0.4206700026988983,
        -0.12387999892234802
      ],
      "type": "VEC3"
    },
    {
      "bufferView": 2,
      "byteOffset": 1364016,
      "componentType": 5126,
      "count": 68,
      "max": [
        1.0,
        1.0,
        1.0
      ],
      "min": [
        -1.0,
        -1.0,
        -1.0
      ],
      "type": "VEC3"
    },
    {
      "bufferView": 0,
      "byteOffset": 457404,
      "componentType": 5125,
      "count": 108,
      "type": "SCALAR"
    },
    {
      "bufferView": 2,
      "byteOffset": 1364832,
      "componentType": 5126,
      "count": 2404,
      "max": [
        0.6232100129127502,
        2.562160015106201,
        0.029769999906420708
      ],
      "min": [
        -0.6232100129127502,
        1.796489953994751,
        -0.6450099945068359
      ],
      "type": "VEC3"
    },
    {
      "bufferView": 2,
      "byteOffset": 1393680,
      "componentType": 5126,
      "count": 2404,
      "max": [
        1.0,
        1.0,
        1.0
      ],
      "min": [
        -1.0,
        -1.0,
        -1.0
      ],
      "type": "VEC3"
    },
    {
      "bufferView": 0,
      "byteOffset": 457836,
      "componentType": 5125,
      "count": 6444,
      "type": "SCALAR"
    },
    {
      "bufferView": 2,
      "byteOffset": 1422528,
      "componentType": 5126,
      "count": 3212,
      "max": [
        0.3902199864387512,
        0.0750499963760376,
        0.10924000293016434
      ],
      "min": [
        -0.3902199864387512,
        -9.310859680175781,
        -1.518049955368042
      ],
      "type": "VEC3"
    },
    {
      "bufferView": 2,
      "byteOffset": 1461072,
      "componentType": 5126,
      "count": 3212,
      "max": [
        1.0,
        1.0,
        1.0
      ],
      "min": [
        -1.0,
        -1.0,
        -1.0
      ],
      "type": "VEC3"
    },
    {
      "bufferView": 1,
      "byteOffset": 352696,
      "componentType": 5126,
      "count": 3212,
      "max": [
        0.0,
        0.0
      ],
      "min": [
        0.0,
        0.0
      ],
      "type": "VEC2"
    },
    {
      "bufferView": 0,
      "byteOffset": 483612,
      "componentType": 5125,
      "count": 7578,
      "type": "SCALAR"
    },
    {
      "bufferView": 2,
      "byteOffset": 1499616,
      "componentType": 5126,
      "count": 12,
      "max": [
        0.25527000427246094,
        0.049219999462366104,
        0.09453000128269196
      ],
      "min": [
        -0.25527000427246094,
        -9.299369812011719,
        -1.290470004081726
      ],
      "type": "VEC3"
    },
    {
      "bufferView": 2,
      "byteOffset": 1499760,
      "componentType": 5126,
      "count": 12,
      "max": [
        0.0,
        0.9089840650558472,
        0.41683101654052734
      ],
      "min": [
        0.0,
        -1.0,
        0.0
      ],
      "type": "VEC3"
    },
    {
      "bufferView": 1,
      "byteOffset": 378392,
      "componentType": 5126,
      "count": 12,
      "max": [
        0.0,
        0.0
      ],
      "min": [
        0.0,
        0.0
      ],
      "type": "VEC2"
    },
    {
      "bufferView": 0,
      "byteOffset": 513924,
      "componentType": 5125,
      "count": 18,
      "type": "SCALAR"
    },
    {
      "bufferView": 2,
      "byteOffset": 1499904,
      "componentType": 5126,
      "count": 371,
      "max": [
        0.8400499820709229,
        -0.4337199926376343,
        0.9991899728775024
      ],
      "min": [
        -0.8400499820709229,
        -2.905210018157959,
        0.461899995803833
      ],
      "type": "VEC3"
    },
    {
      "bufferView": 2,
      "byteOffset": 1504356,
      "componentType": 5126,
      "count": 371,
      "max": [
        1.0,
        1.0,
        1.0
      ],
      "min": [
        -1.0,
        -1.0,
        -1.0
      ],
      "type": "VEC3"
    },
    {
      "bufferView": 0,
      "byteOffset": 513996,
      "componentType": 5125,
      "count": 726,
      "type": "SCALAR"
    },
    {
      "bufferView": 2,
      "byteOffset": 1508808,
      "componentType": 5126,
      "count": 28,
      "max": [
        0.8251399993896484,
        -0.6403300166130066,
        0.9777399897575378
      ],
      "min": [
        -0.8251399993896484,
        -2.843139886856079,
        0.5280600190162659
      ],
      "type": "VEC3"
    },
    {
      "bufferView": 2,
      "byteOffset": 1509144,
      "componentType": 5126,
      "count": 28,
      "max": [
        0.741951584815979,
        0.0015399981057271361,
        0.9999988079071045
      ],
      "min": [
        -0.741951584815979,
        -0.31151989102363586,
        0.657258927822113
      ],
      "type": "VEC3"
    },
    {
      "bufferView": 0,
      "byteOffset": 516900,
      "componentType": 5125,
      "count": 48,
      "type": "SCALAR"
    },
    {
      "bufferView": 2,
      "byteOffset": 1509480,
      "componentType": 5126,
      "count": 7572,
      "max": [
        2.122380018234253,
        4.37224006652832,
        1.0001800060272217
      ],
      "min": [
        -2.122380018234253,
        -5.043489933013916,
        -4.973360061645508
      ],
      "type": "VEC3"
    },
    {
      "bufferView": 2,
      "byteOffset": 1600344,
      "componentType": 5126,
      "count": 7572,
      "max": [
        1.0,
        1.0,
        1.0
      ],
      "min": [
        -1.0,
        -1.0,
        -1.0
      ],
      "type": "VEC3"
    },
    {
      "bufferView": 0,
      "byteOffset": 517092,
      "componentType": 5125,
      "count": 21471,
      "type": "SCALAR"
    },
    {
      "bufferView": 2,
      "byteOffset": 1691208,
      "componentType": 5126,
      "count": 192,
      "max": [
        2.073390007019043,
        -1.4999300241470337,
        -4.069149971008301
      ],
      "min": [
        -2.073390007019043,
        -3.069119930267334,
        -4.7612199783325195
      ],
      "type": "VEC3"
    },
    {
      "bufferView": 2,
      "byteOffset": 1693512,
      "componentType": 5126,
      "count": 192,
      "max": [
        1.0,
        1.0,
        1.0
      ],
      "min": [
        -1.0,
        -1.0,
        -1.0
      ],
      "type": "VEC3"
    },
    {
      "bufferView": 0,
      "byteOffset": 602976,
      "componentType": 5125,
      "count": 528,
      "type": "SCALAR"
    },
    {
      "bufferView": 2,
      "byteOffset": 1695816,
      "componentType": 5126,
      "count": 416,
      "max": [
        1.9757299423217773,
        4.364950180053711,
        0.2862800061702728
      ],
      "min": [
        -1.9757299423217773,
        4.1371002197265625,
        -0.2862800061702728
      ],
      "type": "VEC3"
    },
    {
      "bufferView": 2,
      "byteOffset": 1700808,
      "componentType": 5126,
      "count": 416,
      "max": [
        1.0,
        1.0,
        1.0
      ],
      "min": [
        -1.0,
        0.0,
        -1.0
      ],
      "type": "VEC3"
    },
    {
      "bufferView": 0,
      "byteOffset": 605088,
      "componentType": 5125,
      "count": 960,
      "type": "SCALAR"
    },
    {
      "bufferView": 2,
      "byteOffset": 1705800,
      "componentType": 5126,
      "count": 5664,
      "max": [
        1.9982999563217163,
        -1.478119969367981,
        0.256089985370636
      ],
      "min": [
        -1.9982999563217163,
        -1.7138500213623047,
        -0.256089985370636
      ],
      "type": "VEC3"
    },
    {
      "bufferView": 2,
      "byteOffset": 1773768,
      "componentType": 5126,
      "count": 5664,
      "max": [
        1.0,
        0.0,
        1.0
      ],
      "min": [
        -1.0,
        -1.0,
        -1.0
      ],
      "type": "VEC3"
    },
    {
      "bufferView": 0,
      "byteOffset": 608928,
      "componentType": 5125,
      "count": 14040,
      "type": "SCALAR"
    },
    {
      "bufferView": 2,
      "byteOffset": 1841736,
      "componentType": 5126,
      "count": 3196,
      "max": [
        0.3527500033378601,
        -1.4021600484848022,
        3.6027801036834717
      ],
      "min": [
        -0.3527500033378601,
        -1.8611700534820557,
        2.3839199542999268
      ],
      "type": "VEC3"
    },
    {
      "bufferView": 2,
      "byteOffset": 1880088,
      "componentType": 5126,
      "count": 3196,
      "max": [
        1.0,
        1.0,
        1.0
      ],
      "min": [
        -1.0,
        -1.0,
        -1.0
      ],
      "type": "VEC3"
    },
    {
      "bufferView": 0,
      "byteOffset": 665088,
      "componentType": 5125,
      "count": 8544,
      "type": "SCALAR"
    },
    {
      "bufferView": 2,
      "byteOffset": 1918440,
      "componentType": 5126,
      "count": 80,
      "max": [
        0.32203999161720276,
        -1.6104999780654907,
        3.0101699829101562
      ],
      "min": [
        -0.32203999161720276,
        -1.6551899909973145,
        2.4811999797821045
      ],
      "type": "VEC3"
    },
    {
      "bufferView": 2,
      "byteOffset": 1919400,
      "componentType": 5126,
      "count": 80,
      "max": [
        0.0,
        0.0,
        -1.0
      ],
      "min": [
        0.0,
        0.0,
        -1.0
      ],
      "type": "VEC3"
    },
    {
      "bufferView": 0,
      "byteOffset": 699264,
      "componentType": 5125,
      "count": 216,
      "type": "SCALAR"
    },
    {
      "bufferView": 3,
      "componentType": 5126,
      "count": 52,
      "max": [
        2.541670083999634
      ],
      "min": [
        0.041669998317956924
      ],
      "type": "SCALAR"
    },
    {
      "bufferView": 5,
      "componentType": 5126,
      "count": 52,
      "max": [
        0.0,
        0.38457998633384705,
        0.0,
        1.0
      ],
      "min": [
        0.0,
        -0.29875001311302185,
        0.0,
        0.9230899810791016
      ],
      "type": "VEC4"
    },
    {
      "bufferView": 3,
      "byteOffset": 208,
      "componentType": 5126,
      "count": 52,
      "max": [
        2.541670083999634
      ],
      "min": [
        0.041669998317956924
      ],
      "type": "SCALAR"
    },
    {
      "bufferView": 5,
      "byteOffset": 832,
      "componentType": 5126,
      "count": 52,
      "max": [
        0.0,
        0.9999899864196777,
        0.0,
        0.38791000843048096
      ],
      "min": [
        0.0,
        -0.9998199939727783,
        0.0,
        0.0036299999337643385
      ],
      "type": "VEC4"
    },
    {
      "bufferView": 3,
      "byteOffset": 416,
      "componentType": 5126,
      "count": 52,
      "max": [
        2.541670083999634
      ],
      "min": [
        0.041669998317956924
      ],
      "type": "SCALAR"
    },
    {
      "bufferView": 5,
      "byteOffset": 1664,
      "componentType": 5126,
      "count": 52,
      "max": [
        0.0,
        -0.3791399896144867,
        -0.0,
        0.9253399968147278
      ],
      "min": [
        0.0,
        -0.6531599760055542,
        -0.0,
        0.7572199702262878
      ],
      "type": "VEC4"
    },
    {
      "bufferView": 3,
      "byteOffset": 624,
      "componentType": 5126,
      "count": 52,
      "max": [
        2.541670083999634
      ],
      "min": [
        0.041669998317956924
      ],
      "type": "SCALAR"
    },
    {
      "bufferView": 5,
      "byteOffset": 2496,
      "componentType": 5126,
      "count": 52,
      "max": [
        -0.0,
        0.6531599760055542,
        0.0,
        0.9253399968147278
      ],
      "min": [
        -0.0,
        0.3791399896144867,
        0.0,
        0.7572199702262878
      ],
      "type": "VEC4"
    },
    {
      "bufferView": 3,
      "byteOffset": 832,
      "componentType": 5126,
      "count": 52,
      "max": [
        2.541670083999634
      ],
      "min": [
        0.041669998317956924
      ],
      "type": "SCALAR"
    },
    {
      "bufferView": 5,
      "byteOffset": 3328,
      "componentType": 5126,
      "count": 52,
      "max": [
        0.0,
        0.766040027141571,
        0.0,
        1.0
      ],
      "min": [
        0.0,
        0.0,
        0.0,
        0.6427900195121765
      ],
      "type": "VEC4"
    },
    {
      "bufferView": 3,
      "byteOffset": 1040,
      "componentType": 5126,
      "count": 27,
      "max": [
        2.541670083999634
      ],
      "min": [
        0.041669998317956924
      ],
      "type": "SCALAR"
    },
    {
      "bufferView": 4,
      "componentType": 5126,
      "count": 27,
      "max": [
        0.0,
        0.08287999778985977,
        0.0
      ],
      "min": [
        0.0,
        0.08287999778985977,
        -0.4243200123310089
      ],
      "type": "VEC3"
    },
    {
      "bufferView": 3,
      "byteOffset": 1148,
      "componentType": 5126,
      "count": 1,
      "max": [
        0.041669998317956924
      ],
      "min": [
        0.041669998317956924
      ],
      "type": "SCALAR"
    },
    {
      "bufferView": 5,
      "byteOffset": 4160,
      "componentType": 5126,
      "count": 1,
      "max": [
        0.0,
        0.0,
        0.0,
        1.0
      ],
      "min": [
        0.0,
        0.0,
        0.0,
        1.0
      ],
      "type": "VEC4"
    },
    {
      "bufferView": 3,
      "byteOffset": 1152,
      "componentType": 5126,
      "count": 52,
      "max": [
        2.541670083999634
      ],
      "min": [
        0.041669998317956924
      ],
      "type": "SCALAR"
    },
    {
      "bufferView": 5,
      "byteOffset": 4176,
      "componentType": 5126,
      "count": 52,
      "max": [
        0.0,
        0.748960018157959,
        0.0,
        1.0
      ],
      "min": [
        0.0,
        0.0,
        0.0,
        0.6626200079917908
      ],
      "type": "VEC4"
    },
    {
      "bufferView": 3,
      "byteOffset": 1360,
      "componentType": 5126,
      "count": 52,
      "max": [
        2.541670083999634
      ],
      "min": [
        0.041669998317956924
      ],
      "type": "SCALAR"
    },
    {
      "bufferView": 5,
      "byteOffset": 5008,
      "componentType": 5126,
      "count": 52,
      "max": [
        0.0,
        0.0,
        0.0,
        1.0
      ],
      "min": [
        0.0,
        -0.748960018157959,
        0.0,
        0.6626200079917908
      ],
      "type": "VEC4"
    },
    {
      "bufferView": 3,
      "byteOffset": 1568,
      "componentType": 5126,
      "count": 52,
      "max": [
        2.541670083999634
      ],
      "min": [
        0.041669998317956924
      ],
      "type": "SCALAR"
    },
    {
      "bufferView": 5,
      "byteOffset": 5840,
      "componentType": 5126,
      "count": 52,
      "max": [
        0.0,
        0.0,
        0.0,
        1.0
      ],
      "min": [
        0.0,
        -0.766040027141571,
        0.0,
        0.6427900195121765
      ],
      "type": "VEC4"
    },
    {
      "bufferView": 3,
      "byteOffset": 1776,
      "componentType": 5126,
      "count": 27,
      "max": [
        2.541670083999634
      ],
      "min": [
        0.041669998317956924
      ],
      "type": "SCALAR"
    },
    {
      "bufferView": 4,
      "byteOffset": 324,
      "componentType": 5126,
      "count": 27,
      "max": [
        0.0,
        0.0,
        0.0
      ],
      "min": [
        0.0,
        0.0,
        -0.3547999858856201
      ],
      "type": "VEC3"
    },
    {
      "bufferView": 3,
      "byteOffset": 1884,
      "componentType": 5126,
      "count": 1,
      "max": [
        0.041669998317956924
      ],
      "min": [
        0.041669998317956924
      ],
      "type": "SCALAR"
    },
    {
      "bufferView": 5,
      "byteOffset": 6672,
      "componentType": 5126,
      "count": 1,
      "max": [
        0.0,
        0.0,
        0.0,
        1.0
      ],
      "min": [
        0.0,
        0.0,
        0.0,
        1.0
      ],
      "type": "VEC4"
    }
  ],
  "animations": [
    {
      "channels": [
        {
          "sampler": 0,
          "target": {
            "node": 20,
            "path": "rotation"
          }
        },
        {
          "sampler": 1,
          "target": {
            "node": 24,
            "path": "rotation"
          }
        },
        {
          "sampler": 2,
          "target": {
            "node": 28,
            "path": "rotation"
          }
        },
        {
          "sampler": 3,
          "target": {
            "node": 30,
            "path": "rotation"
          }
        },
        {
          "sampler": 4,
          "target": {
            "node": 32,
            "path": "rotation"
          }
        },
        {
          "sampler": 5,
          "target": {
            "node": 34,
            "path": "translation"
          }
        },
        {
          "sampler": 6,
          "target": {
            "node": 34,
            "path": "rotation"
          }
        },
        {
          "sampler": 7,
          "target": {
            "node": 36,
            "path": "rotation"
          }
        },
        {
          "sampler": 8,
          "target": {
            "node": 38,
            "path": "rotation"
          }
        },
        {
          "sampler": 9,
          "target": {
            "node": 40,
            "path": "rotation"
          }
        },
        {
          "sampler": 10,
          "target": {
            "node": 42,
            "path": "translation"
          }
        },
        {
          "sampler": 11,
          "target": {
            "node": 42,
            "path": "rotation"
          }
        }
      ],
      "name": "Landing",
      "samplers": [
        {
          "input": 123,
          "interpolation": "LINEAR",
          "output": 124
        },
        {
          "input": 125,
          "interpolation": "LINEAR",
          "output": 126
        },
        {
          "input": 127,
          "interpolation": "LINEAR",
          "output": 128
        },
        {
          "input": 129,
          "interpolation": "LINEAR",
          "output": 130
        },
        {
          "input": 131,
          "interpolation": "LINEAR",
          "output": 132
        },
        {
          "input": 133,
          "interpolation": "LINEAR",
          "output": 134
        },
        {
          "input": 135,
          "interpolation": "LINEAR",
          "output": 136
        },
        {
          "input": 137,
          "interpolation": "LINEAR",
          "output": 138
        },
        {
          "input": 139,
          "interpolation": "LINEAR",
          "output": 140
        },
        {
          "input": 141,
          "interpolation": "LINEAR",
          "output": 142
        },
        {
          "input": 143,
          "interpolation": "LINEAR",
          "output": 144
        },
        {
          "input": 145,
          "interpolation": "LINEAR",
          "output": 146
        }
      ]
    }
  ],
  "asset": {
    "extras": {
      "author": "Daniel (https://sketchfab.com/DanielAndersson)",
      "license": "CC-BY-4.0 (http://creativecommons.org/licenses/by/4.0/)",
      "source": "https://sketchfab.com/3d-models/star-wars-alpha-class-xg-1-star-wing-b07306d348a44991ae7d0bbcff95fe90",
      "title": "Star Wars: Alpha-class Xg-1 Star Wing"
    },
    "generator": "Sketchfab-12.67.0",
    "version": "2.0"
  },
  "bufferViews": [
    {
      "buffer": 0,
      "byteLength": 700128,
      "name": "floatBufferViews",
      "target": 34963
    },
    {
      "buffer": 0,
      "byteLength": 378488,
      "byteOffset": 700128,
      "byteStride": 8,
      "name": "floatBufferViews",
      "target": 34962
    },
    {
      "buffer": 0,
      "byteLength": 1920360,
      "byteOffset": 1078616,
      "byteStride": 12,
      "name": "floatBufferViews",
      "target": 34962
    },
    {
      "buffer": 0,
      "byteLength": 1888,
      "byteOffset": 2998976,
      "name": "floatBufferViews"
    },
    {
      "buffer": 0,
      "byteLength": 648,
      "byteOffset": 3000864,
      "byteStride": 12,
      "name": "floatBufferViews"
    },
    {
      "buffer": 0,
      "byteLength": 6688,
      "byteOffset": 3001512,
      "byteStride": 16,
      "name": "floatBufferViews"
    }
  ],
  "buffers": [
    {
      "byteLength": 3008200,
      "uri": "scene.bin"
    }
  ],
  "materials": [
    {
      "doubleSided": true,
      "name": "ScratchedMetal",
      "pbrMetallicRoughness": {
        "baseColorFactor": [
          0.22,
          0.26,
          0.32,
          1.0
        ],
        "metallicFactor": 0.35,
        "roughnessFactor": 0.4
      }
    },
    {
      "doubleSided": true,
      "emissiveFactor": [
        0.3200000285999998,
        0.004173769439999998,
        0.012416770320000024
      ],
      "name": "RedGlow",
      "pbrMetallicRoughness": {
        "baseColorFactor": [
          0.9504074916579607,
          0.0013395930110341266,
          0.0013395930110341266,
          1.0
        ],
        "roughnessFactor": 0.6
      }
    },
    {
      "doubleSided": true,
      "name": "YellowGlow",
      "pbrMetallicRoughness": {
        "baseColorFactor": [
          0.8648245820318258,
          1.0,
          0.0,
          1.0
        ],
        "roughnessFactor": 0.6
      }
    },
    {
      "doubleSided": true,
      "emissiveFactor": [
        1.0,
        1.0,
        1.0
      ],
      "name": "WhiteLight",
      "pbrMetallicRoughness": {
        "roughnessFactor": 0.6
      }
    },
    {
      "doubleSided": true,
      "name": "Dark",
      "pbrMetallicRoughness": {
        "baseColorFactor": [
          0.0,
          0.0,
          0.0,
          1.0
        ],
        "metallicFactor": 0.0,
        "roughnessFactor": 0.0
      }
    },
    {
      "doubleSided": true,
      "emissiveFactor": [
        0.01989360225163104,
        0.03636479218830839,
        0.9632423932306148
      ],
      "name": "BlueEngineGlow",
      "pbrMetallicRoughness": {
        "baseColorFactor": [
          0.06586929209658969,
          0.22514622556508887,
          0.9117889721365602,
          1.0
        ],
        "metallicFactor": 0.22732469512195122,
        "roughnessFactor": 0.6
      }
    },
    {
      "doubleSided": true,
      "name": "ScratchedMetalDark",
      "pbrMetallicRoughness": {
        "baseColorFactor": [
          0.22,
          0.26,
          0.32,
          1.0
        ],
        "metallicFactor": 0.35,
        "roughnessFactor": 0.4
      }
    },
    {
      "alphaMode": "BLEND",
      "doubleSided": true,
      "name": "Glass",
      "pbrMetallicRoughness": {
        "baseColorFactor": [
          0.03858753884586705,
          0.03858753884586705,
          0.03858753884586705,
          0.934641768292683
        ],
        "metallicFactor": 0.0,
        "roughnessFactor": 0.44683689024390244
      }
    }
  ],
  "meshes": [
    {
      "name": "Cockpit_0",
      "primitives": [
        {
          "attributes": {
            "NORMAL": 1,
            "POSITION": 0
          },
          "indices": 2,
          "material": 0,
          "mode": 4
        }
      ]
    },
    {
      "name": "Cockpit_1",
      "primitives": [
        {
          "attributes": {
            "NORMAL": 4,
            "POSITION": 3
          },
          "indices": 5,
          "material": 1,
          "mode": 4
        }
      ]
    },
    {
      "name": "Cockpit_2",
      "primitives": [
        {
          "attributes": {
            "NORMAL": 7,
            "POSITION": 6
          },
          "indices": 8,
          "material": 2,
          "mode": 4
        }
      ]
    },
    {
      "name": "Cockpit_3",
      "primitives": [
        {
          "attributes": {
            "NORMAL": 10,
            "POSITION": 9
          },
          "indices": 11,
          "material": 3,
          "mode": 4
        }
      ]
    },
    {
      "name": "Cockpit_4",
      "primitives": [
        {
          "attributes": {
            "NORMAL": 13,
            "POSITION": 12
          },
          "indices": 14,
          "material": 4,
          "mode": 4
        }
      ]
    },
    {
      "name": "MainHull2_0",
      "primitives": [
        {
          "attributes": {
            "NORMAL": 16,
            "POSITION": 15
          },
          "indices": 17,
          "material": 0,
          "mode": 4
        }
      ]
    },
    {
      "name": "Greebles3_0",
      "primitives": [
        {
          "attributes": {
            "NORMAL": 19,
            "POSITION": 18,
            "TEXCOORD_0": 20
          },
          "indices": 21,
          "material": 0,
          "mode": 4
        }
      ]
    },
    {
      "name": "Greebles3_1",
      "primitives": [
        {
          "attributes": {
            "NORMAL": 23,
            "POSITION": 22,
            "TEXCOORD_0": 24
          },
          "indices": 25,
          "material": 5,
          "mode": 4
        }
      ]
    },
    {
      "name": "Greebles3_2",
      "primitives": [
        {
          "attributes": {
            "NORMAL": 27,
            "POSITION": 26,
            "TEXCOORD_0": 28
          },
          "indices": 29,
          "material": 4,
          "mode": 4
        }
      ]
    },
    {
      "name": "Greebles3_3",
      "primitives": [
        {
          "attributes": {
            "NORMAL": 31,
            "POSITION": 30,
            "TEXCOORD_0": 32
          },
          "indices": 33,
          "material": 6,
          "mode": 4
        }
      ]
    },
    {
      "name": "MainHull_0",
      "primitives": [
        {
          "attributes": {
            "NORMAL": 35,
            "POSITION": 34
          },
          "indices": 36,
          "material": 0,
          "mode": 4
        }
      ]
    },
    {
      "name": "MainHull_1",
      "primitives": [
        {
          "attributes": {
            "NORMAL": 38,
            "POSITION": 37
          },
          "indices": 39,
          "material": 4,
          "mode": 4
        }
      ]
    },
    {
      "name": "MainHull_2",
      "primitives": [
        {
          "attributes": {
            "NORMAL": 41,
            "POSITION": 40
          },
          "indices": 42,
          "material": 6,
          "mode": 4
        }
      ]
    },
    {
      "name": "LowerWingLeft_0",
      "primitives": [
        {
          "attributes": {
            "NORMAL": 44,
            "POSITION": 43,
            "TEXCOORD_0": 45
          },
          "indices": 46,
          "material": 0,
          "mode": 4
        }
      ]
    },
    {
      "name": "LowerWingLeft_1",
      "primitives": [
        {
          "attributes": {
            "NORMAL": 48,
            "POSITION": 47,
            "TEXCOORD_0": 49
          },
          "indices": 50,
          "material": 4,
          "mode": 4
        }
      ]
    },
    {
      "name": "LowerWingLeft_2",
      "primitives": [
        {
          "attributes": {
            "NORMAL": 52,
            "POSITION": 51,
            "TEXCOORD_0": 53
          },
          "indices": 54,
          "material": 6,
          "mode": 4
        }
      ]
    },
    {
      "name": "LowerWingRight_0",
      "primitives": [
        {
          "attributes": {
            "NORMAL": 56,
            "POSITION": 55,
            "TEXCOORD_0": 57
          },
          "indices": 58,
          "material": 0,
          "mode": 4
        }
      ]
    },
    {
      "name": "LowerWingRight_1",
      "primitives": [
        {
          "attributes": {
            "NORMAL": 60,
            "POSITION": 59,
            "TEXCOORD_0": 61
          },
          "indices": 62,
          "material": 4,
          "mode": 4
        }
      ]
    },
    {
      "name": "LowerWingRight_2",
      "primitives": [
        {
          "attributes": {
            "NORMAL": 64,
            "POSITION": 63,
            "TEXCOORD_0": 65
          },
          "indices": 66,
          "material": 6,
          "mode": 4
        }
      ]
    },
    {
      "name": "UpperWingLeft_0",
      "primitives": [
        {
          "attributes": {
            "NORMAL": 68,
            "POSITION": 67
          },
          "indices": 69,
          "material": 0,
          "mode": 4
        }
      ]
    },
    {
      "name": "UpperWingRight_0",
      "primitives": [
        {
          "attributes": {
            "NORMAL": 71,
            "POSITION": 70
          },
          "indices": 72,
          "material": 0,
          "mode": 4
        }
      ]
    },
    {
      "name": "LandingGearHatchBackRight_0",
      "primitives": [
        {
          "attributes": {
            "NORMAL": 74,
            "POSITION": 73
          },
          "indices": 75,
          "material": 0,
          "mode": 4
        }
      ]
    },
    {
      "name": "LandingGearFront_0",
      "primitives": [
        {
          "attributes": {
            "NORMAL": 77,
            "POSITION": 76
          },
          "indices": 78,
          "material": 6,
          "mode": 4
        }
      ]
    },
    {
      "name": "LandingGearHatchFrontRight_0",
      "primitives": [
        {
          "attributes": {
            "NORMAL": 80,
            "POSITION": 79
          },
          "indices": 81,
          "material": 0,
          "mode": 4
        }
      ]
    },
    {
      "name": "LandingGearHatchFrontLeft_0",
      "primitives": [
        {
          "attributes": {
            "NORMAL": 83,
            "POSITION": 82
          },
          "indices": 84,
          "material": 0,
          "mode": 4
        }
      ]
    },
    {
      "name": "LandingGearHatchBackLeft_0",
      "primitives": [
        {
          "attributes": {
            "NORMAL": 86,
            "POSITION": 85
          },
          "indices": 87,
          "material": 0,
          "mode": 4
        }
      ]
    },
    {
      "name": "LandingGearBack_0",
      "primitives": [
        {
          "attributes": {
            "NORMAL": 89,
            "POSITION": 88
          },
          "indices": 90,
          "material": 6,
          "mode": 4
        }
      ]
    },
    {
      "name": "Greebles1_0",
      "primitives": [
        {
          "attributes": {
            "NORMAL": 92,
            "POSITION": 91,
            "TEXCOORD_0": 93
          },
          "indices": 94,
          "material": 0,
          "mode": 4
        }
      ]
    },
    {
      "name": "Greebles1_1",
      "primitives": [
        {
          "attributes": {
            "NORMAL": 96,
            "POSITION": 95,
            "TEXCOORD_0": 97
          },
          "indices": 98,
          "material": 4,
          "mode": 4
        }
      ]
    },
    {
      "name": "CockpitHatch_0",
      "primitives": [
        {
          "attributes": {
            "NORMAL": 100,
            "POSITION": 99
          },
          "indices": 101,
          "material": 0,
          "mode": 4
        }
      ]
    },
    {
      "name": "CockpitHatch_1",
      "primitives": [
        {
          "attributes": {
            "NORMAL": 103,
            "POSITION": 102
          },
          "indices": 104,
          "material": 7,
          "mode": 4
        }
      ]
    },
    {
      "name": "MainHullPlates_0",
      "primitives": [
        {
          "attributes": {
            "NORMAL": 106,
            "POSITION": 105
          },
          "indices": 107,
          "material": 0,
          "mode": 4
        }
      ]
    },
    {
      "name": "MainHullPlates_1",
      "primitives": [
        {
          "attributes": {
            "NORMAL": 109,
            "POSITION": 108
          },
          "indices": 110,
          "material": 6,
          "mode": 4
        }
      ]
    },
    {
      "name": "Greebles2_0",
      "primitives": [
        {
          "attributes": {
            "NORMAL": 112,
            "POSITION": 111
          },
          "indices": 113,
          "material": 0,
          "mode": 4
        }
      ]
    },
    {
      "name": "Missiles_0",
      "primitives": [
        {
          "attributes": {
            "NORMAL": 115,
            "POSITION": 114
          },
          "indices": 116,
          "material": 0,
          "mode": 4
        }
      ]
    },
    {
      "name": "UpperCanon_0",
      "primitives": [
        {
          "attributes": {
            "NORMAL": 118,
            "POSITION": 117
          },
          "indices": 119,
          "material": 0,
          "mode": 4
        }
      ]
    },
    {
      "name": "UpperCanon_1",
      "primitives": [
        {
          "attributes": {
            "NORMAL": 121,
            "POSITION": 120
          },
          "indices": 122,
          "material": 4,
          "mode": 4
        }
      ]
    }
  ],
  "nodes": [
    {
      "children": [
        1
      ],
      "matrix": [
        1.0,
        0.0,
        0.0,
        0.0,
        0.0,
        2.220446049250313e-16,
        -1.0,
        0.0,
        0.0,
        1.0,
        2.220446049250313e-16,
        0.0,
        0.0,
        0.0,
        0.0,
        1.0
      ],
      "name": "Sketchfab_model"
    },
    {
      "children": [
        2
      ],
      "name": "Root"
    },
    {
      "children": [
        3,
        9,
        11,
        16,
        20,
        24,
        28,
        30,
        32,
        34,
        36,
        38,
        40,
        42,
        44,
        47,
        50,
        53,
        55,
        57
      ],
      "name": "Alpha-class Xg-1 Star Wing"
    },
    {
      "children": [
        4,
        5,
        6,
        7,
        8
      ],
      "matrix": [
        0.27589,
        0.0,
        0.0,
        0.0,
        0.0,
        0.27589,
        0.0,
        0.0,
        0.0,
        0.0,
        0.27589,
        0.0,
        0.0,
        0.0,
        0.0,
        1.0
      ],
      "name": "Cockpit"
    },
    {
      "mesh": 0,
      "name": "Cockpit_0"
    },
    {
      "mesh": 1,
      "name": "Cockpit_1"
    },
    {
      "mesh": 2,
      "name": "Cockpit_2"
    },
    {
      "mesh": 3,
      "name": "Cockpit_3"
    },
    {
      "mesh": 4,
      "name": "Cockpit_4"
    },
    {
      "children": [
        10
      ],
      "name": "MainHull2"
    },
    {
      "mesh": 5,
      "name": "MainHull2_0"
    },
    {
      "children": [
        12,
        13,
        14,
        15
      ],
      "name": "Greebles3"
    },
    {
      "mesh": 6,
      "name": "Greebles3_0"
    },
    {
      "mesh": 7,
      "name": "Greebles3_1"
    },
    {
      "mesh": 8,
      "name": "Greebles3_2"
    },
    {
      "mesh": 9,
      "name": "Greebles3_3"
    },
    {
      "children": [
        17,
        18,
        19
      ],
      "name": "MainHull"
    },
    {
      "mesh": 10,
      "name": "MainHull_0"
    },
    {
      "mesh": 11,
      "name": "MainHull_1"
    },
    {
      "mesh": 12,
      "name": "MainHull_2"
    },
    {
      "children": [
        21,
        22,
        23
      ],
      "name": "LowerWingLeft",
      "rotation": [
        0.0,
        0.3845805823802948,
        0.0,
        0.9230914115905762
      ],
      "translation": [
        2.0343399047851562,
        2.251120090484619,
        -0.24260999262332916
      ]
    },
    {
      "mesh": 13,
      "name": "LowerWingLeft_0"
    },
    {
      "mesh": 14,
      "name": "LowerWingLeft_1"
    },
    {
      "mesh": 15,
      "name": "LowerWingLeft_2"
    },
    {
      "children": [
        25,
        26,
        27
      ],
      "name": "LowerWingRight",
      "rotation": [
        0.0,
        0.9216976761817932,
        0.0,
        0.38790902495384216
      ],
      "translation": [
        -2.0343399047851562,
        2.251120090484619,
        -0.24260999262332916
      ]
    },
    {
      "mesh": 16,
      "name": "LowerWingRight_0"
    },
    {
      "mesh": 17,
      "name": "LowerWingRight_1"
    },
    {
      "mesh": 18,
      "name": "LowerWingRight_2"
    },
    {
      "children": [
        29
      ],
      "name": "UpperWingLeft",
      "rotation": [
        0.0,
        -0.3791397511959076,
        -0.0,
        0.9253394603729248
      ],
      "translation": [
        2.0288000106811523,
        2.251120090484619,
        0.22653000056743622
      ]
    },
    {
      "mesh": 19,
      "name": "UpperWingLeft_0"
    },
    {
      "children": [
        31
      ],
      "name": "UpperWingRight",
      "rotation": [
        -0.0,
        0.3791397511959076,
        0.0,
        0.9253394603729248
      ],
      "translation": [
        -2.0288000106811523,
        2.251120090484619,
        0.22653000056743622
      ]
    },
    {
      "mesh": 20,
      "name": "UpperWingRight_0"
    },
    {
      "children": [
        33
      ],
      "name": "LandingGearHatchBackRight",
      "translation": [
        -0.6754299998283386,
        2.190920114517212,
        -0.5547299981117249
      ]
    },
    {
      "mesh": 21,
      "name": "LandingGearHatchBackRight_0"
    },
    {
      "children": [
        35
      ],
      "name": "LandingGearFront",
      "translation": [
        0.0,
        0.08287999778985977,
        0.0
      ]
    },
    {
      "mesh": 22,
      "name": "LandingGearFront_0"
    },
    {
      "children": [
        37
      ],
      "name": "LandingGearHatchFrontRight",
      "translation": [
        -0.14328999817371368,
        -2.5897700786590576,
        -0.5961499810218811
      ]
    },
    {
      "mesh": 23,
      "name": "LandingGearHatchFrontRight_0"
    },
    {
      "children": [
        39
      ],
      "name": "LandingGearHatchFrontLeft",
      "translation": [
        0.14328999817371368,
        -2.5897700786590576,
        -0.5961499810218811
      ]
    },
    {
      "mesh": 24,
      "name": "LandingGearHatchFrontLeft_0"
    },
    {
      "children": [
        41
      ],
      "name": "LandingGearHatchBackLeft",
      "translation": [
        0.6754299998283386,
        2.190920114517212,
        -0.5547299981117249
      ]
    },
    {
      "mesh": 25,
      "name": "LandingGearHatchBackLeft_0"
    },
    {
      "children": [
        43
      ],
      "name": "LandingGearBack"
    },
    {
      "mesh": 26,
      "name": "LandingGearBack_0"
    },
    {
      "children": [
        45,
        46
      ],
      "matrix": [
        1.0,
        0.0,
        0.0,
        0.0,
        0.0,
        1.0,
        0.0,
        0.0,
        0.0,
        0.0,
        1.0,
        0.0,
        0.0,
        4.231000000000001,
        0.96938,
        1.0
      ],
      "name": "Greebles1"
    },
    {
      "mesh": 27,
      "name": "Greebles1_0"
    },
    {
      "mesh": 28,
      "name": "Greebles1_1"
    },
    {
      "children": [
        48,
        49
      ],
      "name": "CockpitHatch"
    },
    {
      "mesh": 29,
      "name": "CockpitHatch_0"
    },
    {
      "mesh": 30,
      "name": "CockpitHatch_1"
    },
    {
      "children": [
        51,
        52
      ],
      "matrix": [
        1.0,
        0.0,
        0.0,
        0.0,
        0.0,
        1.0,
        0.0,
        0.0,
        0.0,
        0.0,
        1.0,
        0.0,
        0.0,
        0.0,
        4.34006,
        1.0
      ],
      "name": "MainHullPlates"
    },
    {
      "mesh": 31,
      "name": "MainHullPlates_0"
    },
    {
      "mesh": 32,
      "name": "MainHullPlates_1"
    },
    {
      "children": [
        54
      ],
      "name": "Greebles2"
    },
    {
      "mesh": 33,
      "name": "Greebles2_0"
    },
    {
      "children": [
        56
      ],
      "name": "Missiles"
    },
    {
      "mesh": 34,
      "name": "Missiles_0"
    },
    {
      "children": [
        58,
        59
      ],
      "matrix": [
        1.0,
        0.0,
        0.0,
        0.0,
        0.0,
        -0.0,
        -1.0,
        0.0,
        0.0,
        1.0,
        -0.0,
        0.0,
        -0.0,
        -2.65283,
        -0.11878000000000002,
        1.0
      ],
      "name": "UpperCanon"
    },
    {
      "mesh": 35,
      "name": "UpperCanon_0"
    },
    {
      "mesh": 36,
      "name": "UpperCanon_1"
    }
  ],
  "scene": 0,
  "scenes": [
    {
      "name": "Sketchfab_Scene",
      "nodes": [
        0
      ]
    }
  ]
}