{
  "accessors": [
    {
      "bufferView": 2,
      "componentType": 5126,
      "count": 712,
      "max": [
        4.360209941864014,
        9.82606029510498,
        1.450510025024414
      ],
      "min": [
        -4.360209941864014,
        -2.128070116043091,
        -1.4910900592803955
      ],
      "type": "VEC3"
    },
    {
      "bufferView": 2,
      "byteOffset": 8544,
      "componentType": 5126,
      "count": 712,
      "max": [
        1.0,
        1.0,
        1.0
      ],
      "min": [
        -1.0,
        -1.0,
        -1.0
      ],
      "type": "VEC3"
    },
    {
      "bufferView": 1,
      "componentType": 5126,
      "count": 712,
      "max": [
        0.0,
        0.0
      ],
      "min": [
        0.0,
        0.0
      ],
      "type": "VEC2"
    },
    {
      "bufferView": 0,
      "componentType": 5125,
      "count": 3324,
      "type": "SCALAR"
    },
    {
      "bufferView": 2,
      "byteOffset": 17088,
      "componentType": 5126,
      "count": 1856,
      "max": [
        3.6831700801849365,
        -1.1770000457763672,
        -1.7732499837875366
      ],
      "min": [
        -3.6831700801849365,
        -1.543720006942749,
        -2.139970064163208
      ],
      "type": "VEC3"
    },
    {
      "bufferView": 2,
      "byteOffset": 39360,
      "componentType": 5126,
      "count": 1856,
      "max": [
        1.0,
        1.0,
        1.0
      ],
      "min": [
        -1.0,
        -1.0,
        -1.0
      ],
      "type": "VEC3"
    },
    {
      "bufferView": 1,
      "byteOffset": 5696,
      "componentType": 5126,
      "count": 1856,
      "max": [
        0.0,
        0.0
      ],
      "min": [
        0.0,
        0.0
      ],
      "type": "VEC2"
    },
    {
      "bufferView": 0,
      "byteOffset": 13296,
      "componentType": 5125,
      "count": 11112,
      "type": "SCALAR"
    },
    {
      "bufferView": 2,
      "byteOffset": 61632,
      "componentType": 5126,
      "count": 546,
      "max": [
        4.360209941864014,
        -1.3079999685287476,
        0.309579998254776
      ],
      "min": [
        -4.360209941864014,
        -9.855019569396973,
        -1.4910900592803955
      ],
      "type": "VEC3"
    },
    {
      "bufferView": 2,
      "byteOffset": 68184,
      "componentType": 5126,
      "count": 546,
      "max": [
        1.0,
        0.7071068286895752,
        1.0
      ],
      "min": [
        -1.0,
        -1.0,
        -1.0
      ],
      "type": "VEC3"
    },
    {
      "bufferView": 1,
      "byteOffset": 20544,
      "componentType": 5126,
      "count": 546,
      "max": [
        1.0,
        1.0
      ],
      "min": [
        0.0,
        0.0
      ],
      "type": "VEC2"
    },
    {
      "bufferView": 0,
      "byteOffset": 57744,
      "componentType": 5125,
      "count": 1971,
      "type": "SCALAR"
    },
    {
      "bufferView": 2,
      "byteOffset": 74736,
      "componentType": 5126,
      "count": 234,
      "max": [
        3.6981499195098877,
        -1.9692800045013428,
        0.23152999579906464
      ],
      "min": [
        -3.6981499195098877,
        -5.256120204925537,
        -0.08406999707221985
      ],
      "type": "VEC3"
    },
    {
      "bufferView": 2,
      "byteOffset": 77544,
      "componentType": 5126,
      "count": 234,
      "max": [
        0.9960190057754517,
        0.9971311092376709,
        1.0
      ],
      "min": [
        -0.9960190057754517,
        -0.9971311092376709,
        -0.00043001340236514807
      ],
      "type": "VEC3"
    },
    {
      "bufferView": 1,
      "byteOffset": 24912,
      "componentType": 5126,
      "count": 234,
      "max": [
        1.0,
        1.0
      ],
      "min": [
        0.0,
        0.0
      ],
      "type": "VEC2"
    },
    {
      "bufferView": 0,
      "byteOffset": 65628,
      "componentType": 5125,
      "count": 846,
      "type": "SCALAR"
    },
    {
      "bufferView": 2,
      "byteOffset": 80352,
      "componentType": 5126,
      "count": 22,
      "max": [
        3.6981499195098877,
        -6.084259986877441,
        0.22970999777317047
      ],
      "min": [
        -3.6981499195098877,
        -8.266730308532715,
        0.22874000668525696
      ],
      "type": "VEC3"
    },
    {
      "bufferView": 2,
      "byteOffset": 80616,
      "componentType": 5126,
      "count": 22,
      "max": [
        0.0,
        -0.0004300128493923694,
        0.9999999403953552
      ],
      "min": [
        0.0,
        -0.0004300128493923694,
        0.9999999403953552
      ],
      "type": "VEC3"
    },
    {
      "bufferView": 1,
      "byteOffset": 26784,
      "componentType": 5126,
      "count": 22,
      "max": [
        1.0,
        1.0
      ],
      "min": [
        0.0,
        0.0
      ],
      "type": "VEC2"
    },
    {
      "bufferView": 0,
      "byteOffset": 69012,
      "componentType": 5125,
      "count": 60,
      "type": "SCALAR"
    },
    {
      "bufferView": 2,
      "byteOffset": 80880,
      "componentType": 5126,
      "count": 20,
      "max": [
        -2.043950080871582,
        -8.856080055236816,
        -0.08574000000953674
      ],
      "min": [
        -3.3949100971221924,
        -9.52914047241211,
        -0.6497200131416321
      ],
      "type": "VEC3"
    },
    {
      "bufferView": 2,
      "byteOffset": 81120,
      "componentType": 5126,
      "count": 20,
      "max": [
        0.0,
        -0.642250657081604,
        0.7664946913719177
      ],
      "min": [
        0.0,
        -0.642250657081604,
        0.7664946913719177
      ],
      "type": "VEC3"
    },
    {
      "bufferView": 1,
      "byteOffset": 26960,
      "componentType": 5126,
      "count": 20,
      "max": [
        1.0,
        1.0
      ],
      "min": [
        0.0,
        0.0
      ],
      "type": "VEC2"
    },
    {
      "bufferView": 0,
      "byteOffset": 69252,
      "componentType": 5125,
      "count": 54,
      "type": "SCALAR"
    },
    {
      "bufferView": 2,
      "byteOffset": 81360,
      "componentType": 5126,
      "count": 22,
      "max": [
        3.5856900215148926,
        -8.856080055236816,
        -0.08574000000953674
      ],
      "min": [
        -1.1468299627304077,
        -9.529150009155273,
        -0.6497200131416321
      ],
      "type": "VEC3"
    },
    {
      "bufferView": 2,
      "byteOffset": 81624,
      "componentType": 5126,
      "count": 22,
      "max": [
        0.0,
        -0.642250657081604,
        0.7664946913719177
      ],
      "min": [
        0.0,
        -0.642250657081604,
        0.7664946913719177
      ],
      "type": "VEC3"
    },
    {
      "bufferView": 1,
      "byteOffset": 27120,
      "componentType": 5126,
      "count": 22,
      "max": [
        1.0,
        1.0
      ],
      "min": [
        0.0,
        0.0
      ],
      "type": "VEC2"
    },
    {
      "bufferView": 0,
      "byteOffset": 69468,
      "componentType": 5125,
      "count": 60,
      "type": "SCALAR"
    },
    {
      "bufferView": 2,
      "byteOffset": 81888,
      "componentType": 5126,
      "count": 20,
      "max": [
        2.4910099506378174,
        -3.163559913635254,
        -0.08370999991893768
      ],
      "min": [
        1.6755900382995605,
        -3.97898006439209,
        -0.08406999707221985
      ],
      "type": "VEC3"
    },
    {
      "bufferView": 2,
      "byteOffset": 82128,
      "componentType": 5126,
      "count": 20,
      "max": [
        0.0,
        -0.0004300128493923694,
        0.9999999403953552
      ],
      "min": [
        0.0,
        -0.0004300128493923694,
        0.9999999403953552
      ],
      "type": "VEC3"
    },
    {
      "bufferView": 1,
      "byteOffset": 27296,
      "componentType": 5126,
      "count": 20,
      "max": [
        1.0,
        1.0
      ],
      "min": [
        0.0,
        0.0
      ],
      "type": "VEC2"
    },
    {
      "bufferView": 0,
      "byteOffset": 69708,
      "componentType": 5125,
      "count": 54,
      "type": "SCALAR"
    },
    {
      "bufferView": 2,
      "byteOffset": 82368,
      "componentType": 5126,
      "count": 28,
      "max": [
        3.687730073928833,
        7.201149940490723,
        1.3082900047302246
      ],
      "min": [
        -3.7240800857543945,
        -0.7354999780654907,
        0.231330007314682
      ],
      "type": "VEC3"
    },
    {
      "bufferView": 2,
      "byteOffset": 82704,
      "componentType": 5126,
      "count": 28,
      "max": [
        0.0004300127911847085,
        0.0004300128493923694,
        1.0
      ],
      "min": [
        0.0,
        -0.6311651468276978,
        0.7756485939025879
      ],
      "type": "VEC3"
    },
    {
      "bufferView": 1,
      "byteOffset": 27456,
      "componentType": 5126,
      "count": 28,
      "max": [
        1.0,
        1.0
      ],
      "min": [
        0.0,
        0.0
      ],
      "type": "VEC2"
    },
    {
      "bufferView": 0,
      "byteOffset": 69924,
      "componentType": 5125,
      "count": 78,
      "type": "SCALAR"
    },
    {
      "bufferView": 2,
      "byteOffset": 83040,
      "componentType": 5126,
      "count": 36,
      "max": [
        3.692539930343628,
        5.24675989151001,
        0.23134000599384308
      ],
      "min": [
        -1.0009499788284302,
        1.8667399883270264,
        0.22987000644207
      ],
      "type": "VEC3"
    },
    {
      "bufferView": 2,
      "byteOffset": 83472,
      "componentType": 5126,
      "count": 36,
      "max": [
        0.0,
        0.0004300128493923694,
        0.9999999403953552
      ],
      "min": [
        0.0,
        0.0004300128493923694,
        0.9999999403953552
      ],
      "type": "VEC3"
    },
    {
      "bufferView": 1,
      "byteOffset": 27680,
      "componentType": 5126,
      "count": 36,
      "max": [
        1.0,
        1.0
      ],
      "min": [
        0.0,
        0.0
      ],
      "type": "VEC2"
    },
    {
      "bufferView": 0,
      "byteOffset": 70236,
      "componentType": 5125,
      "count": 108,
      "type": "SCALAR"
    },
    {
      "bufferView": 2,
      "byteOffset": 83904,
      "componentType": 5126,
      "count": 6,
      "max": [
        3.240920066833496,
        5.001969814300537,
        0.12666000425815582
      ],
      "min": [
        -0.5493199825286865,
        2.111530065536499,
        0.12540000677108765
      ],
      "type": "VEC3"
    },
    {
      "bufferView": 2,
      "byteOffset": 83976,
      "componentType": 5126,
      "count": 6,
      "max": [
        0.0,
        0.0004300128493923694,
        0.9999999403953552
      ],
      "min": [
        0.0,
        0.0004300128493923694,
        0.9999999403953552
      ],
      "type": "VEC3"
    },
    {
      "bufferView": 1,
      "byteOffset": 27968,
      "componentType": 5126,
      "count": 6,
      "max": [
        1.0,
        1.0
      ],
      "min": [
        0.0,
        0.0
      ],
      "type": "VEC2"
    },
    {
      "bufferView": 0,
      "byteOffset": 70668,
      "componentType": 5125,
      "count": 12,
      "type": "SCALAR"
    },
    {
      "bufferView": 2,
      "byteOffset": 84048,
      "componentType": 5126,
      "count": 23,
      "max": [
        -1.389050006866455,
        9.134349822998047,
        1.3510799407958984
      ],
      "min": [
        -3.3086299896240234,
        7.904029846191406,
        1.3510799407958984
      ],
      "type": "VEC3"
    },
    {
      "bufferView": 2,
      "byteOffset": 84324,
      "componentType": 5126,
      "count": 23,
      "max": [
        0.0,
        0.0,
        1.0
      ],
      "min": [
        0.0,
        0.0,
        1.0
      ],
      "type": "VEC3"
    },
    {
      "bufferView": 1,
      "byteOffset": 28016,
      "componentType": 5126,
      "count": 23,
      "max": [
        0.0,
        0.0
      ],
      "min": [
        0.0,
        0.0
      ],
      "type": "VEC2"
    },
    {
      "bufferView": 0,
      "byteOffset": 70716,
      "componentType": 5125,
      "count": 63,
      "type": "SCALAR"
    },
    {
      "bufferView": 2,
      "byteOffset": 84600,
      "componentType": 5126,
      "count": 24,
      "max": [
        -2.538249969482422,
        6.653389930725098,
        0.7426000237464905
      ],
      "min": [
        -3.138859987258911,
        6.238619804382324,
        0.3278200030326843
      ],
      "type": "VEC3"
    },
    {
      "bufferView": 2,
      "byteOffset": 84888,
      "componentType": 5126,
      "count": 24,
      "max": [
        1.0,
        0.775570809841156,
        0.775570809841156
      ],
      "min": [
        -1.0,
        -0.775570809841156,
        -0.775570809841156
      ],
      "type": "VEC3"
    },
    {
      "bufferView": 1,
      "byteOffset": 28200,
      "componentType": 5126,
      "count": 24,
      "max": [
        0.0,
        0.0
      ],
      "min": [
        0.0,
        0.0
      ],
      "type": "VEC2"
    },
    {
      "bufferView": 0,
      "byteOffset": 70968,
      "componentType": 5125,
      "count": 36,
      "type": "SCALAR"
    },
    {
      "bufferView": 2,
      "byteOffset": 85176,
      "componentType": 5126,
      "count": 24,
      "max": [
        -2.3418400287628174,
        5.748239994049072,
        0.2893800139427185
      ],
      "min": [
        -3.2794299125671387,
        5.350059986114502,
        0.22994999587535858
      ],
      "type": "VEC3"
    },
    {
      "bufferView": 2,
      "byteOffset": 85464,
      "componentType": 5126,
      "count": 24,
      "max": [
        1.0,
        1.0,
        1.0
      ],
      "min": [
        -1.0,
        -1.0,
        -1.0
      ],
      "type": "VEC3"
    },
    {
      "bufferView": 1,
      "byteOffset": 28392,
      "componentType": 5126,
      "count": 24,
      "max": [
        0.0,
        0.0
      ],
      "min": [
        0.0,
        0.0
      ],
      "type": "VEC2"
    },
    {
      "bufferView": 0,
      "byteOffset": 71112,
      "componentType": 5125,
      "count": 36,
      "type": "SCALAR"
    },
    {
      "bufferView": 2,
      "byteOffset": 85752,
      "componentType": 5126,
      "count": 24,
      "max": [
        3.5101099014282227,
        -0.14462000131607056,
        0.2893800139427185
      ],
      "min": [
        2.784019947052002,
        -0.49897998571395874,
        0.2320300042629242
      ],
      "type": "VEC3"
    },
    {
      "bufferView": 2,
      "byteOffset": 86040,
      "componentType": 5126,
      "count": 24,
      "max": [
        1.0,
        1.0,
        1.0
      ],
      "min": [
        -1.0,
        -1.0,
        -1.0
      ],
      "type": "VEC3"
    },
    {
      "bufferView": 1,
      "byteOffset": 28584,
      "componentType": 5126,
      "count": 24,
      "max": [
        1.0,
        1.0
      ],
      "min": [
        0.0,
        0.0
      ],
      "type": "VEC2"
    },
    {
      "bufferView": 0,
      "byteOffset": 71256,
      "componentType": 5125,
      "count": 36,
      "type": "SCALAR"
    },
    {
      "bufferView": 2,
      "byteOffset": 86328,
      "componentType": 5126,
      "count": 24,
      "max": [
        -2.3418400287628174,
        2.7483301162719727,
        0.2893800139427185
      ],
      "min": [
        -3.2794299125671387,
        2.3501598834991455,
        0.22994999587535858
      ],
      "type": "VEC3"
    },
    {
      "bufferView": 2,
      "byteOffset": 86616,
      "componentType": 5126,
      "count": 24,
      "max": [
        1.0,
        1.0,
        1.0
      ],
      "min": [
        -1.0,
        -1.0,
        -1.0
      ],
      "type": "VEC3"
    },
    {
      "bufferView": 1,
      "byteOffset": 28776,
      "componentType": 5126,
      "count": 24,
      "max": [
        0.0,
        0.0
      ],
      "min": [
        0.0,
        0.0
      ],
      "type": "VEC2"
    },
    {
      "bufferView": 0,
      "byteOffset": 71400,
      "componentType": 5125,
      "count": 36,
      "type": "SCALAR"
    },
    {
      "bufferView": 2,
      "byteOffset": 86904,
      "componentType": 5126,
      "count": 24,
      "max": [
        -2.3418400287628174,
        3.815310001373291,
        0.2893800139427185
      ],
      "min": [
        -3.2794299125671387,
        3.4171299934387207,
        0.22994999587535858
      ],
      "type": "VEC3"
    },
    {
      "bufferView": 2,
      "byteOffset": 87192,
      "componentType": 5126,
      "count": 24,
      "max": [
        1.0,
        1.0,
        1.0
      ],
      "min": [
        -1.0,
        -1.0,
        -1.0
      ],
      "type": "VEC3"
    },
    {
      "bufferView": 1,
      "byteOffset": 28968,
      "componentType": 5126,
      "count": 24,
      "max": [
        0.0,
        0.0
      ],
      "min": [
        0.0,
        0.0
      ],
      "type": "VEC2"
    },
    {
      "bufferView": 0,
      "byteOffset": 71544,
      "componentType": 5125,
      "count": 36,
      "type": "SCALAR"
    },
    {
      "bufferView": 2,
      "byteOffset": 87480,
      "componentType": 5126,
      "count": 24,
      "max": [
        -2.3418400287628174,
        4.820429801940918,
        0.2893800139427185
      ],
      "min": [
        -3.2794299125671387,
        4.42225980758667,
        0.22994999587535858
      ],
      "type": "VEC3"
    },
    {
      "bufferView": 2,
      "byteOffset": 87768,
      "componentType": 5126,
      "count": 24,
      "max": [
        1.0,
        1.0,
        1.0
      ],
      "min": [
        -1.0,
        -1.0,
        -1.0
      ],
      "type": "VEC3"
    },
    {
      "bufferView": 1,
      "byteOffset": 29160,
      "componentType": 5126,
      "count": 24,
      "max": [
        0.0,
        0.0
      ],
      "min": [
        0.0,
        0.0
      ],
      "type": "VEC2"
    },
    {
      "bufferView": 0,
      "byteOffset": 71688,
      "componentType": 5125,
      "count": 36,
      "type": "SCALAR"
    },
    {
      "bufferView": 2,
      "byteOffset": 88056,
      "componentType": 5126,
      "count": 24,
      "max": [
        -0.6436200141906738,
        -0.16141000390052795,
        0.2893800139427185
      ],
      "min": [
        -1.126289963722229,
        -0.48219001293182373,
        0.2320300042629242
      ],
      "type": "VEC3"
    },
    {
      "bufferView": 2,
      "byteOffset": 88344,
      "componentType": 5126,
      "count": 24,
      "max": [
        1.0,
        1.0,
        1.0
      ],
      "min": [
        -1.0,
        -1.0,
        -1.0
      ],
      "type": "VEC3"
    },
    {
      "bufferView": 1,
      "byteOffset": 29352,
      "componentType": 5126,
      "count": 24,
      "max": [
        0.0,
        0.0
      ],
      "min": [
        0.0,
        0.0
      ],
      "type": "VEC2"
    },
    {
      "bufferView": 0,
      "byteOffset": 71832,
      "componentType": 5125,
      "count": 36,
      "type": "SCALAR"
    },
    {
      "bufferView": 2,
      "byteOffset": 88632,
      "componentType": 5126,
      "count": 24,
      "max": [
        0.7584999799728394,
        -0.16141000390052795,
        0.2893800139427185
      ],
      "min": [
        0.2758199870586395,
        -0.48219001293182373,
        0.2320300042629242
      ],
      "type": "VEC3"
    },
    {
      "bufferView": 2,
      "byteOffset": 88920,
      "componentType": 5126,
      "count": 24,
      "max": [
        1.0,
        1.0,
        1.0
      ],
      "min": [
        -1.0,
        -1.0,
        -1.0
      ],
      "type": "VEC3"
    },
    {
      "bufferView": 1,
      "byteOffset": 29544,
      "componentType": 5126,
      "count": 24,
      "max": [
        0.0,
        0.0
      ],
      "min": [
        0.0,
        0.0
      ],
      "type": "VEC2"
    },
    {
      "bufferView": 0,
      "byteOffset": 71976,
      "componentType": 5125,
      "count": 36,
      "type": "SCALAR"
    },
    {
      "bufferView": 2,
      "byteOffset": 89208,
      "componentType": 5126,
      "count": 24,
      "max": [
        2.1454501152038574,
        -0.16141000390052795,
        0.2893800139427185
      ],
      "min": [
        1.6627800464630127,
        -0.48219001293182373,
        0.2320300042629242
      ],
      "type": "VEC3"
    },
    {
      "bufferView": 2,
      "byteOffset": 89496,
      "componentType": 5126,
      "count": 24,
      "max": [
        1.0,
        1.0,
        1.0
      ],
      "min": [
        -1.0,
        -1.0,
        -1.0
      ],
      "type": "VEC3"
    },
    {
      "bufferView": 1,
      "byteOffset": 29736,
      "componentType": 5126,
      "count": 24,
      "max": [
        0.0,
        0.0
      ],
      "min": [
        0.0,
        0.0
      ],
      "type": "VEC2"
    },
    {
      "bufferView": 0,
      "byteOffset": 72120,
      "componentType": 5125,
      "count": 36,
      "type": "SCALAR"
    },
    {
      "bufferView": 2,
      "byteOffset": 89784,
      "componentType": 5126,
      "count": 24,
      "max": [
        3.5101099014282227,
        0.20973999798297882,
        0.2893800139427185
      ],
      "min": [
        2.784019947052002,
        -0.14462000131607056,
        0.2320300042629242
      ],
      "type": "VEC3"
    },
    {
      "bufferView": 2,
      "byteOffset": 90072,
      "componentType": 5126,
      "count": 24,
      "max": [
        1.0,
        1.0,
        1.0
      ],
      "min": [
        -1.0,
        -1.0,
        -1.0
      ],
      "type": "VEC3"
    },
    {
      "bufferView": 1,
      "byteOffset": 29928,
      "componentType": 5126,
      "count": 24,
      "max": [
        1.0,
        1.0
      ],
      "min": [
        0.0,
        0.0
      ],
      "type": "VEC2"
    },
    {
      "bufferView": 0,
      "byteOffset": 72264,
      "componentType": 5125,
      "count": 36,
      "type": "SCALAR"
    },
    {
      "bufferView": 2,
      "byteOffset": 90360,
      "componentType": 5126,
      "count": 24,
      "max": [
        3.5101099014282227,
        0.5641099810600281,
        0.2893800139427185
      ],
      "min": [
        2.784019947052002,
        0.20973999798297882,
        0.2320300042629242
      ],
      "type": "VEC3"
    },
    {
      "bufferView": 2,
      "byteOffset": 90648,
      "componentType": 5126,
      "count": 24,
      "max": [
        1.0,
        1.0,
        1.0
      ],
      "min": [
        -1.0,
        -1.0,
        -1.0
      ],
      "type": "VEC3"
    },
    {
      "bufferView": 1,
      "byteOffset": 30120,
      "componentType": 5126,
      "count": 24,
      "max": [
        1.0,
        1.0
      ],
      "min": [
        0.0,
        0.0
      ],
      "type": "VEC2"
    },
    {
      "bufferView": 0,
      "byteOffset": 72408,
      "componentType": 5125,
      "count": 36,
      "type": "SCALAR"
    },
    {
      "bufferView": 2,
      "byteOffset": 90936,
      "componentType": 5126,
      "count": 42,
      "max": [
        3.7500200271606445,
        9.82606029510498,
        1.125499963760376
      ],
      "min": [
        -3.7500200271606445,
        9.8260498046875,
        -1.1335099935531616
      ],
      "type": "VEC3"
    },
    {
      "bufferView": 2,
      "byteOffset": 91440,
      "componentType": 5126,
      "count": 42,
      "max": [
        9.000000136438757e-05,
        1.0,
        2.9999999242136255e-05
      ],
      "min": [
        -2.9999999242136255e-05,
        1.0,
        0.0
      ],
      "type": "VEC3"
    },
    {
      "bufferView": 1,
      "byteOffset": 30312,
      "componentType": 5126,
      "count": 42,
      "max": [
        1.0,
        1.0
      ],
      "min": [
        0.0,
        0.0
      ],
      "type": "VEC2"
    },
    {
      "bufferView": 0,
      "byteOffset": 72552,
      "componentType": 5125,
      "count": 150,
      "type": "SCALAR"
    },
    {
      "bufferView": 2,
      "byteOffset": 91944,
      "componentType": 5126,
      "count": 693,
      "max": [
        1.5695300102233887,
        9.914649963378906,
        1.084190011024475
      ],
      "min": [
        1.2214699983596802,
        9.8260498046875,
        0.05561000108718872
      ],
      "type": "VEC3"
    },
    {
      "bufferView": 2,
      "byteOffset": 100260,
      "componentType": 5126,
      "count": 693,
      "max": [
        1.0,
        1.0,
        0.9951854944229126
      ],
      "min": [
        -1.0,
        -1.0,
        -0.9951844215393066
      ],
      "type": "VEC3"
    },
    {
      "bufferView": 1,
      "byteOffset": 30648,
      "componentType": 5126,
      "count": 693,
      "max": [
        1.0,
        1.0
      ],
      "min": [
        0.0,
        0.0
      ],
      "type": "VEC2"
    },
    {
      "bufferView": 0,
      "byteOffset": 73152,
      "componentType": 5125,
      "count": 948,
      "type": "SCALAR"
    },
    {
      "bufferView": 2,
      "byteOffset": 108576,
      "componentType": 5126,
      "count": 315,
      "max": [
        1.549720048904419,
        9.929630279541016,
        1.061310052871704
      ],
      "min": [
        1.2412899732589722,
        9.836400032043457,
        0.7528700232505798
      ],
      "type": "VEC3"
    },
    {
      "bufferView": 2,
      "byteOffset": 112356,
      "componentType": 5126,
      "count": 315,
      "max": [
        0.9869914054870605,
        1.0,
        0.9928401708602905
      ],
      "min": [
        -0.9869914054870605,
        0.03330029919743538,
        -0.9928401708602905
      ],
      "type": "VEC3"
    },
    {
      "bufferView": 1,
      "byteOffset": 36192,
      "componentType": 5126,
      "count": 315,
      "max": [
        1.0,
        1.0
      ],
      "min": [
        0.0,
        0.0
      ],
      "type": "VEC2"
    },
    {
      "bufferView": 0,
      "byteOffset": 76944,
      "componentType": 5125,
      "count": 1440,
      "type": "SCALAR"
    },
    {
      "bufferView": 2,
      "byteOffset": 116136,
      "componentType": 5126,
      "count": 315,
      "max": [
        1.549720048904419,
        9.929630279541016,
        1.061310052871704
      ],
      "min": [
        1.2412899732589722,
        9.836400032043457,
        0.7528700232505798
      ],
      "type": "VEC3"
    },
    {
      "bufferView": 2,
      "byteOffset": 119916,
      "componentType": 5126,
      "count": 315,
      "max": [
        0.9869914054870605,
        1.0,
        0.9928401708602905
      ],
      "min": [
        -0.9869914054870605,
        0.03330029919743538,
        -0.9928401708602905
      ],
      "type": "VEC3"
    },
    {
      "bufferView": 1,
      "byteOffset": 38712,
      "componentType": 5126,
      "count": 315,
      "max": [
        1.0,
        1.0
      ],
      "min": [
        0.0,
        0.0
      ],
      "type": "VEC2"
    },
    {
      "bufferView": 0,
      "byteOffset": 82704,
      "componentType": 5125,
      "count": 1440,
      "type": "SCALAR"
    },
    {
      "bufferView": 2,
      "byteOffset": 123696,
      "componentType": 5126,
      "count": 693,
      "max": [
        1.5695300102233887,
        9.914649963378906,
        1.084190011024475
      ],
      "min": [
        1.2214699983596802,
        9.8260498046875,
        0.05561000108718872
      ],
      "type": "VEC3"
    },
    {
      "bufferView": 2,
      "byteOffset": 132012,
      "componentType": 5126,
      "count": 693,
      "max": [
        1.0,
        1.0,
        0.9951854944229126
      ],
      "min": [
        -1.0,
        -1.0,
        -0.9951844215393066
      ],
      "type": "VEC3"
    },
    {
      "bufferView": 1,
      "byteOffset": 41232,
      "componentType": 5126,
      "count": 693,
      "max": [
        1.0,
        1.0
      ],
      "min": [
        0.0,
        0.0
      ],
      "type": "VEC2"
    },
    {
      "bufferView": 0,
      "byteOffset": 88464,
      "componentType": 5125,
      "count": 948,
      "type": "SCALAR"
    },
    {
      "bufferView": 2,
      "byteOffset": 140328,
      "componentType": 5126,
      "count": 315,
      "max": [
        1.549720048904419,
        9.919289588928223,
        1.061310052871704
      ],
      "min": [
        1.2412899732589722,
        9.82606029510498,
        0.7528700232505798
      ],
      "type": "VEC3"
    },
    {
      "bufferView": 2,
      "byteOffset": 144108,
      "componentType": 5126,
      "count": 315,
      "max": [
        0.9869914054870605,
        1.0,
        0.9928401708602905
      ],
      "min": [
        -0.9869914054870605,
        0.03330107033252716,
        -0.9928401708602905
      ],
      "type": "VEC3"
    },
    {
      "bufferView": 1,
      "byteOffset": 46776,
      "componentType": 5126,
      "count": 315,
      "max": [
        1.0,
        1.0
      ],
      "min": [
        0.0,
        0.0
      ],
      "type": "VEC2"
    },
    {
      "bufferView": 0,
      "byteOffset": 92256,
      "componentType": 5125,
      "count": 1440,
      "type": "SCALAR"
    },
    {
      "bufferView": 2,
      "byteOffset": 147888,
      "componentType": 5126,
      "count": 315,
      "max": [
        1.549720048904419,
        9.919289588928223,
        1.061310052871704
      ],
      "min": [
        1.2412899732589722,
        9.82606029510498,
        0.7528700232505798
      ],
      "type": "VEC3"
    },
    {
      "bufferView": 2,
      "byteOffset": 151668,
      "componentType": 5126,
      "count": 315,
      "max": [
        0.9869914054870605,
        1.0,
        0.9928401708602905
      ],
      "min": [
        -0.9869914054870605,
        0.03330107033252716,
        -0.9928401708602905
      ],
      "type": "VEC3"
    },
    {
      "bufferView": 1,
      "byteOffset": 49296,
      "componentType": 5126,
      "count": 315,
      "max": [
        1.0,
        1.0
      ],
      "min": [
        0.0,
        0.0
      ],
      "type": "VEC2"
    },
    {
      "bufferView": 0,
      "byteOffset": 98016,
      "componentType": 5125,
      "count": 1440,
      "type": "SCALAR"
    },
    {
      "bufferView": 2,
      "byteOffset": 155448,
      "componentType": 5126,
      "count": 216,
      "max": [
        3.4108099937438965,
        0.6050999760627747,
        9.914649963378906
      ],
      "min": [
        -3.4108099937438965,
        0.11111000180244446,
        9.8260498046875
      ],
      "type": "VEC3"
    },
    {
      "bufferView": 2,
      "byteOffset": 158040,
      "componentType": 5126,
      "count": 216,
      "max": [
        1.0,
        1.0,
        1.0
      ],
      "min": [
        -1.0,
        -1.0,
        0.0
      ],
      "type": "VEC3"
    },
    {
      "bufferView": 1,
      "byteOffset": 51816,
      "componentType": 5126,
      "count": 216,
      "max": [
        1.0,
        1.0
      ],
      "min": [
        0.0,
        0.0
      ],
      "type": "VEC2"
    },
    {
      "bufferView": 0,
      "byteOffset": 103776,
      "componentType": 5125,
      "count": 366,
      "type": "SCALAR"
    },
    {
      "bufferView": 2,
      "byteOffset": 160632,
      "componentType": 5126,
      "count": 40,
      "max": [
        3.0769600868225098,
        9.914640426635742,
        -0.23939000070095062
      ],
      "min": [
        -3.0833499431610107,
        9.837180137634277,
        -0.47161999344825745
      ],
      "type": "VEC3"
    },
    {
      "bufferView": 2,
      "byteOffset": 161112,
      "componentType": 5126,
      "count": 40,
      "max": [
        1.0,
        1.0,
        1.0
      ],
      "min": [
        -1.0,
        0.0,
        -1.0
      ],
      "type": "VEC3"
    },
    {
      "bufferView": 1,
      "byteOffset": 53544,
      "componentType": 5126,
      "count": 40,
      "max": [
        1.0,
        1.0
      ],
      "min": [
        0.0,
        0.0
      ],
      "type": "VEC2"
    },
    {
      "bufferView": 0,
      "byteOffset": 105240,
      "componentType": 5125,
      "count": 60,
      "type": "SCALAR"
    },
    {
      "bufferView": 2,
      "byteOffset": 161592,
      "componentType": 5126,
      "count": 2564,
      "max": [
        5.528520107269287,
        10.369609832763672,
        1.0899100303649902
      ],
      "min": [
        3.8498899936676025,
        9.8260498046875,
        0.0028200000524520874
      ],
      "type": "VEC3"
    },
    {
      "bufferView": 2,
      "byteOffset": 192360,
      "componentType": 5126,
      "count": 2564,
      "max": [
        1.0,
        1.0,
        0.9951873421669006
      ],
      "min": [
        -1.0,
        -0.00229006283916533,
        -0.9951873421669006
      ],
      "type": "VEC3"
    },
    {
      "bufferView": 1,
      "byteOffset": 53864,
      "componentType": 5126,
      "count": 2564,
      "max": [
        1.0,
        1.0
      ],
      "min": [
        0.0,
        0.0
      ],
      "type": "VEC2"
    },
    {
      "bufferView": 0,
      "byteOffset": 105480,
      "componentType": 5125,
      "count": 11130,
      "type": "SCALAR"
    },
    {
      "bufferView": 2,
      "byteOffset": 223128,
      "componentType": 5126,
      "count": 172,
      "max": [
        -1.8490300178527832,
        -0.03674999997019768,
        9.952460289001465
      ],
      "min": [
        -3.3632800579071045,
        -0.9799900054931641,
        9.8260498046875
      ],
      "type": "VEC3"
    },
    {
      "bufferView": 2,
      "byteOffset": 225192,
      "componentType": 5126,
      "count": 172,
      "max": [
        1.0,
        1.0,
        1.0
      ],
      "min": [
        -1.0,
        -1.0,
        -1.0
      ],
      "type": "VEC3"
    },
    {
      "bufferView": 1,
      "byteOffset": 74376,
      "componentType": 5126,
      "count": 172,
      "max": [
        1.0,
        1.0
      ],
      "min": [
        0.0,
        0.0
      ],
      "type": "VEC2"
    },
    {
      "bufferView": 0,
      "byteOffset": 150000,
      "componentType": 5125,
      "count": 462,
      "type": "SCALAR"
    },
    {
      "bufferView": 2,
      "byteOffset": 227256,
      "componentType": 5126,
      "count": 40,
      "max": [
        -2.6287899017333984,
        10.029250144958496,
        0.9287999868392944
      ],
      "min": [
        -3.2818899154663086,
        9.932820320129395,
        0.5702099800109863
      ],
      "type": "VEC3"
    },
    {
      "bufferView": 2,
      "byteOffset": 227736,
      "componentType": 5126,
      "count": 40,
      "max": [
        1.0,
        1.0,
        1.0
      ],
      "min": [
        -1.0,
        0.0,
        -1.0
      ],
      "type": "VEC3"
    },
    {
      "bufferView": 1,
      "byteOffset": 75752,
      "componentType": 5126,
      "count": 40,
      "max": [
        1.0,
        1.0
      ],
      "min": [
        0.0,
        0.0
      ],
      "type": "VEC2"
    },
    {
      "bufferView": 0,
      "byteOffset": 151848,
      "componentType": 5125,
      "count": 72,
      "type": "SCALAR"
    },
    {
      "bufferView": 2,
      "byteOffset": 228216,
      "componentType": 5126,
      "count": 76,
      "max": [
        -9.691659927368164,
        -0.1370600014925003,
        3.2636001110076904
      ],
      "min": [
        -10.097610473632813,
        -0.9489499926567078,
        1.6351399421691895
      ],
      "type": "VEC3"
    },
    {
      "bufferView": 2,
      "byteOffset": 229128,
      "componentType": 5126,
      "count": 76,
      "max": [
        0.9999999403953552,
        0.9951853156089783,
        1.0
      ],
      "min": [
        -0.9994615316390991,
        -0.9951853156089783,
        -1.0
      ],
      "type": "VEC3"
    },
    {
      "bufferView": 1,
      "byteOffset": 76072,
      "componentType": 5126,
      "count": 76,
      "max": [
        1.0,
        1.0
      ],
      "min": [
        0.0,
        0.0
      ],
      "type": "VEC2"
    },
    {
      "bufferView": 0,
      "byteOffset": 152136,
      "componentType": 5125,
      "count": 192,
      "type": "SCALAR"
    },
    {
      "bufferView": 2,
      "byteOffset": 230040,
      "componentType": 5126,
      "count": 40,
      "max": [
        0.6766200065612793,
        9.914640426635742,
        -0.23939000070095062
      ],
      "min": [
        -0.6830099821090698,
        9.837180137634277,
        -0.47161999344825745
      ],
      "type": "VEC3"
    },
    {
      "bufferView": 2,
      "byteOffset": 230520,
      "componentType": 5126,
      "count": 40,
      "max": [
        1.0,
        1.0,
        1.0
      ],
      "min": [
        -1.0,
        0.0,
        -1.0
      ],
      "type": "VEC3"
    },
    {
      "bufferView": 1,
      "byteOffset": 76680,
      "componentType": 5126,
      "count": 40,
      "max": [
        1.0,
        1.0
      ],
      "min": [
        0.0,
        0.0
      ],
      "type": "VEC2"
    },
    {
      "bufferView": 0,
      "byteOffset": 152904,
      "componentType": 5125,
      "count": 60,
      "type": "SCALAR"
    },
    {
      "bufferView": 2,
      "byteOffset": 231000,
      "componentType": 5126,
      "count": 40,
      "max": [
        1.4767400026321411,
        9.914640426635742,
        -0.23939000070095062
      ],
      "min": [
        -1.4831199645996094,
        9.837180137634277,
        -0.47161999344825745
      ],
      "type": "VEC3"
    },
    {
      "bufferView": 2,
      "byteOffset": 231480,
      "componentType": 5126,
      "count": 40,
      "max": [
        1.0,
        1.0,
        1.0
      ],
      "min": [
        -1.0,
        0.0,
        -1.0
      ],
      "type": "VEC3"
    },
    {
      "bufferView": 1,
      "byteOffset": 77000,
      "componentType": 5126,
      "count": 40,
      "max": [
        1.0,
        1.0
      ],
      "min": [
        0.0,
        0.0
      ],
      "type": "VEC2"
    },
    {
      "bufferView": 0,
      "byteOffset": 153144,
      "componentType": 5125,
      "count": 60,
      "type": "SCALAR"
    },
    {
      "bufferView": 2,
      "byteOffset": 231960,
      "componentType": 5126,
      "count": 40,
      "max": [
        2.2768499851226807,
        9.914640426635742,
        -0.23939000070095062
      ],
      "min": [
        -2.2832400798797607,
        9.837180137634277,
        -0.47161999344825745
      ],
      "type": "VEC3"
    },
    {
      "bufferView": 2,
      "byteOffset": 232440,
      "componentType": 5126,
      "count": 40,
      "max": [
        1.0,
        1.0,
        1.0
      ],
      "min": [
        -1.0,
        0.0,
        -1.0
      ],
      "type": "VEC3"
    },
    {
      "bufferView": 1,
      "byteOffset": 77320,
      "componentType": 5126,
      "count": 40,
      "max": [
        1.0,
        1.0
      ],
      "min": [
        0.0,
        0.0
      ],
      "type": "VEC2"
    },
    {
      "bufferView": 0,
      "byteOffset": 153384,
      "componentType": 5125,
      "count": 60,
      "type": "SCALAR"
    },
    {
      "bufferView": 2,
      "byteOffset": 232920,
      "componentType": 5126,
      "count": 4,
      "max": [
        -1.9304300546646118,
        -0.08793999999761581,
        9.932820320129395
      ],
      "min": [
        -3.2818899154663086,
        -0.9287999868392944,
        9.932820320129395
      ],
      "type": "VEC3"
    },
    {
      "bufferView": 2,
      "byteOffset": 232968,
      "componentType": 5126,
      "count": 4,
      "max": [
        0.0,
        0.0,
        1.0
      ],
      "min": [
        0.0,
        0.0,
        1.0
      ],
      "type": "VEC3"
    },
    {
      "bufferView": 1,
      "byteOffset": 77640,
      "componentType": 5126,
      "count": 4,
      "max": [
        1.0,
        1.0
      ],
      "min": [
        0.0,
        0.0
      ],
      "type": "VEC2"
    },
    {
      "bufferView": 0,
      "byteOffset": 153624,
      "componentType": 5125,
      "count": 6,
      "type": "SCALAR"
    },
    {
      "bufferView": 2,
      "byteOffset": 233016,
      "componentType": 5126,
      "count": 4,
      "max": [
        -2.665479898452759,
        10.012330055236816,
        0.8953700065612793
      ],
      "min": [
        -3.2451999187469482,
        10.012330055236816,
        0.6036400198936462
      ],
      "type": "VEC3"
    },
    {
      "bufferView": 2,
      "byteOffset": 233064,
      "componentType": 5126,
      "count": 4,
      "max": [
        0.0,
        1.0,
        -0.0
      ],
      "min": [
        0.0,
        1.0,
        -0.0
      ],
      "type": "VEC3"
    },
    {
      "bufferView": 1,
      "byteOffset": 77672,
      "componentType": 5126,
      "count": 4,
      "max": [
        1.0,
        1.0
      ],
      "min": [
        0.0,
        0.0
      ],
      "type": "VEC2"
    },
    {
      "bufferView": 0,
      "byteOffset": 153648,
      "componentType": 5125,
      "count": 6,
      "type": "SCALAR"
    },
    {
      "bufferView": 2,
      "byteOffset": 233112,
      "componentType": 5126,
      "count": 24,
      "max": [
        -1.5778100490570068,
        8.912440299987793,
        1.4173599481582642
      ],
      "min": [
        -2.371000051498413,
        8.119250297546387,
        1.381019949913025
      ],
      "type": "VEC3"
    },
    {
      "bufferView": 2,
      "byteOffset": 233400,
      "componentType": 5126,
      "count": 24,
      "max": [
        1.0,
        1.0,
        1.0
      ],
      "min": [
        -1.0,
        -1.0,
        -1.0
      ],
      "type": "VEC3"
    },
    {
      "bufferView": 1,
      "byteOffset": 77704,
      "componentType": 5126,
      "count": 24,
      "max": [
        1.0,
        1.0
      ],
      "min": [
        0.0,
        0.0
      ],
      "type": "VEC2"
    },
    {
      "bufferView": 0,
      "byteOffset": 153672,
      "componentType": 5125,
      "count": 36,
      "type": "SCALAR"
    },
    {
      "bufferView": 2,
      "byteOffset": 233688,
      "componentType": 5126,
      "count": 24,
      "max": [
        -2.540220022201538,
        8.912440299987793,
        1.4505000114440918
      ],
      "min": [
        -3.1504600048065186,
        8.73429012298584,
        1.3510799407958984
      ],
      "type": "VEC3"
    },
    {
      "bufferView": 2,
      "byteOffset": 233976,
      "componentType": 5126,
      "count": 24,
      "max": [
        1.0,
        1.0,
        1.0
      ],
      "min": [
        -1.0,
        -1.0,
        -1.0
      ],
      "type": "VEC3"
    },
    {
      "bufferView": 1,
      "byteOffset": 77896,
      "componentType": 5126,
      "count": 24,
      "max": [
        1.0,
        1.0
      ],
      "min": [
        0.0,
        0.0
      ],
      "type": "VEC2"
    },
    {
      "bufferView": 0,
      "byteOffset": 153816,
      "componentType": 5125,
      "count": 36,
      "type": "SCALAR"
    },
    {
      "bufferView": 2,
      "byteOffset": 234264,
      "componentType": 5126,
      "count": 24,
      "max": [
        -2.9285500049591064,
        -8.622679710388184,
        3.023519992828369
      ],
      "min": [
        -3.174269914627075,
        -9.034640312194824,
        2.876039981842041
      ],
      "type": "VEC3"
    },
    {
      "bufferView": 2,
      "byteOffset": 234552,
      "componentType": 5126,
      "count": 24,
      "max": [
        1.0,
        0.9636774063110352,
        0.9636774063110352
      ],
      "min": [
        -1.0,
        -0.9636774063110352,
        -0.9636774063110352
      ],
      "type": "VEC3"
    },
    {
      "bufferView": 1,
      "byteOffset": 78088,
      "componentType": 5126,
      "count": 24,
      "max": [
        1.0,
        1.0
      ],
      "min": [
        0.0,
        0.0
      ],
      "type": "VEC2"
    },
    {
      "bufferView": 0,
      "byteOffset": 153960,
      "componentType": 5125,
      "count": 36,
      "type": "SCALAR"
    }
  ],
  "asset": {
    "extras": {
      "author": "Stu (https://sketchfab.com/ebifa)",
      "license": "CC-BY-4.0 (http://creativecommons.org/licenses/by/4.0/)",
      "source": "https://sketchfab.com/3d-models/tricorder-mk-vii-328d87358b0c44b79b16826d1d3dfb69",
      "title": "Tricorder Mk VII"
    },
    "generator": "Sketchfab-12.68.0",
    "version": "2.0"
  },
  "bufferViews": [
    {
      "buffer": 0,
      "byteLength": 154104,
      "name": "floatBufferViews",
      "target": 34963
    },
    {
      "buffer": 0,
      "byteLength": 78280,
      "byteOffset": 154104,
      "byteStride": 8,
      "name": "floatBufferViews",
      "target": 34962
    },
    {
      "buffer": 0,
      "byteLength": 234840,
      "byteOffset": 232384,
      "byteStride": 12,
      "name": "floatBufferViews",
      "target": 34962
    }
  ],
  "buffers": [
    {
      "byteLength": 467224,
      "uri": "scene.bin"
    }
  ],
  "images": [
    {
      "uri": "textures/ID_Light_baseColor.png"
    },
    {
      "uri": "textures/material_baseColor.png"
    },
    {
      "uri": "textures/material_2_baseColor.png"
    },
    {
      "uri": "textures/Green_3_baseColor.png"
    },
    {
      "uri": "textures/Green_3_metallicRoughness.png"
    },
    {
      "uri": "textures/Blue_Cylinder_baseColor.png"
    },
    {
      "uri": "textures/Blue_Cylinder_metallicRoughness.png"
    },
    {
      "uri": "textures/Clear_Cylinder_baseColor.png"
    },
    {
      "uri": "textures/Clear_Cylinder_metallicRoughness.png"
    },
    {
      "uri": "textures/Front_Base_baseColor.png"
    },
    {
      "uri": "textures/Front_Base_metallicRoughness.png"
    },
    {
      "uri": "textures/Material.008_baseColor.png"
    },
    {
      "uri": "textures/Material.005_metallicRoughness.png"
    },
    {
      "uri": "textures/Screen_baseColor.png"
    },
    {
      "uri": "textures/Screen_metallicRoughness.png"
    },
    {
      "uri": "textures/Screen_Srnd_baseColor.png"
    },
    {
      "uri": "textures/Large_baseColor.png"
    },
    {
      "uri": "textures/Button_baseColor.png"
    },
    {
      "uri": "textures/Make_baseColor.png"
    },
    {
      "uri": "textures/Material_baseColor.png"
    },
    {
      "uri": "textures/material_38_baseColor.png"
    },
    {
      "uri": "textures/Intership_baseColor.png"
    },
    {
      "uri": "textures/Body_baseColor.png"
    }
  ],
  "materials": [
    {
      "doubleSided": true,
      "emissiveFactor": [
        1.0,
        1.0,
        1.0
      ],
      "emissiveTexture": {
        "index": 0
      },
      "name": "ID_Light",
      "pbrMetallicRoughness": {
        "baseColorTexture": {
          "index": 0
        },
        "metallicFactor": 0.0
      }
    },
    {
      "doubleSided": true,
      "emissiveFactor": [
        1.0,
        1.0,
        1.0
      ],
      "emissiveTexture": {
        "index": 1
      },
      "name": "material",
      "pbrMetallicRoughness": {
        "baseColorTexture": {
          "index": 1
        },
        "metallicFactor": 0.0,
        "roughnessFactor": 0.6
      }
    },
    {
      "doubleSided": true,
      "emissiveFactor": [
        1.0,
        1.0,
        1.0
      ],
      "emissiveTexture": {
        "index": 0
      },
      "name": "material_2",
      "pbrMetallicRoughness": {
        "baseColorTexture": {
          "index": 2
        },
        "metallicFactor": 0.0,
        "roughnessFactor": 0.6
      }
    },
    {
      "doubleSided": true,
      "emissiveFactor": [
        1.0,
        1.0,
        1.0
      ],
      "emissiveTexture": {
        "index": 0
      },
      "name": "Red_LED_1",
      "pbrMetallicRoughness": {
        "baseColorTexture": {
          "index": 0
        },
        "metallicFactor": 0.0,
        "roughnessFactor": 0.6
      }
    },
    {
      "doubleSided": true,
      "name": "Black_Bit",
      "pbrMetallicRoughness": {
        "baseColorFactor": [
          0.0,
          0.0,
          0.0,
          1.0
        ],
        "metallicFactor": 0.0
      }
    },
    {
      "doubleSided": true,
      "emissiveFactor": [
        0.30000000000000004,
        0.30000000000000004,
        0.30000000000000004
      ],
      "emissiveTexture": {
        "index": 3
      },
      "name": "Green_3",
      "pbrMetallicRoughness": {
        "baseColorTexture": {
          "index": 3
        },
        "metallicFactor": 0.0,
        "metallicRoughnessTexture": {
          "index": 4
        },
        "roughnessFactor": 0.3
      }
    },
    {
      "doubleSided": true,
      "emissiveFactor": [
        1.0,
        1.0,
        1.0
      ],
      "emissiveTexture": {
        "index": 3
      },
      "name": "Green_2",
      "pbrMetallicRoughness": {
        "baseColorTexture": {
          "index": 3
        },
        "metallicFactor": 0.0,
        "metallicRoughnessTexture": {
          "index": 4
        },
        "roughnessFactor": 0.6
      }
    },
    {
      "doubleSided": true,
      "name": "Green_1",
      "pbrMetallicRoughness": {
        "baseColorFactor": [
          0.46,
          0.46,
          0.46,
          1.0
        ],
        "baseColorTexture": {
          "index": 3
        },
        "metallicFactor": 0.0,
        "roughnessFactor": 0.42
      }
    },
    {
      "doubleSided": true,
      "emissiveFactor": [
        1.0,
        1.0,
        1.0
      ],
      "emissiveTexture": {
        "index": 5
      },
      "name": "Blue_Cylinder",
      "pbrMetallicRoughness": {
        "baseColorTexture": {
          "index": 5
        },
        "metallicFactor": 0.99,
        "metallicRoughnessTexture": {
          "index": 6
        },
        "roughnessFactor": 0.0
      }
    },
    {
      "doubleSided": true,
      "name": "Front_Red_Square_Surround"
    },
    {
      "doubleSided": true,
      "name": "Black_Bit_Bevel",
      "pbrMetallicRoughness": {
        "metallicFactor": 0.0
      }
    },
    {
      "alphaMode": "BLEND",
      "doubleSided": true,
      "emissiveFactor": [
        0.7000000000000001,
        0.7000000000000001,
        0.7000000000000001
      ],
      "emissiveTexture": {
        "index": 5
      },
      "name": "Clear_Cylinder",
      "pbrMetallicRoughness": {
        "baseColorTexture": {
          "index": 7
        },
        "metallicFactor": 0.0,
        "metallicRoughnessTexture": {
          "index": 8
        },
        "roughnessFactor": 0.37
      }
    },
    {
      "doubleSided": true,
      "name": "Green_4",
      "pbrMetallicRoughness": {
        "baseColorFactor": [
          0.45,
          0.45,
          0.45,
          1.0
        ],
        "baseColorTexture": {
          "index": 3
        },
        "metallicFactor": 0.0,
        "roughnessFactor": 0.28
      }
    },
    {
      "doubleSided": true,
      "name": "Front_Bevel",
      "pbrMetallicRoughness": {
        "baseColorFactor": [
          0.051766289830066425,
          0.051766289830066425,
          0.051766289830066425,
          1.0
        ],
        "metallicFactor": 0.0,
        "roughnessFactor": 0.44
      }
    },
    {
      "doubleSided": true,
      "emissiveFactor": [
        1.0,
        1.0,
        1.0
      ],
      "emissiveTexture": {
        "index": 0
      },
      "name": "Red_LED_2",
      "pbrMetallicRoughness": {
        "baseColorTexture": {
          "index": 0
        },
        "metallicFactor": 0.0,
        "roughnessFactor": 0.6
      }
    },
    {
      "doubleSided": true,
      "name": "Bevel_1",
      "pbrMetallicRoughness": {
        "metallicFactor": 0.0
      }
    },
    {
      "doubleSided": true,
      "emissiveFactor": [
        1.0,
        1.0,
        1.0
      ],
      "emissiveTexture": {
        "index": 1
      },
      "name": "Green_LED_1",
      "pbrMetallicRoughness": {
        "baseColorTexture": {
          "index": 1
        },
        "metallicFactor": 0.0,
        "roughnessFactor": 0.0
      }
    },
    {
      "doubleSided": true,
      "name": "Green_LED_2",
      "pbrMetallicRoughness": {
        "baseColorTexture": {
          "index": 1
        },
        "metallicFactor": 0.0,
        "roughnessFactor": 0.0
      }
    },
    {
      "doubleSided": true,
      "name": "Bevel_2",
      "pbrMetallicRoughness": {
        "metallicFactor": 0.0,
        "roughnessFactor": 0.99
      }
    },
    {
      "doubleSided": true,
      "name": "Front_Base",
      "pbrMetallicRoughness": {
        "baseColorTexture": {
          "index": 9
        },
        "metallicFactor": 0.0,
        "metallicRoughnessTexture": {
          "index": 10
        }
      }
    },
    {
      "doubleSided": true,
      "emissiveFactor": [
        1.0,
        1.0,
        1.0
      ],
      "emissiveTexture": {
        "index": 1
      },
      "name": "Light_3",
      "pbrMetallicRoughness": {
        "baseColorTexture": {
          "index": 1
        },
        "metallicFactor": 0.0,
        "roughnessFactor": 0.6
      }
    },
    {
      "doubleSided": true,
      "emissiveFactor": [
        0.7000000000000001,
        0.7000000000000001,
        0.7000000000000001
      ],
      "emissiveTexture": {
        "index": 1
      },
      "name": "Light_2",
      "pbrMetallicRoughness": {
        "baseColorTexture": {
          "index": 1
        },
        "metallicFactor": 0.0,
        "roughnessFactor": 0.6
      }
    },
    {
      "alphaMode": "BLEND",
      "doubleSided": true,
      "emissiveFactor": [
        1.0,
        1.0,
        1.0
      ],
      "emissiveTexture": {
        "index": 1
      },
      "name": "Material.008",
      "pbrMetallicRoughness": {
        "baseColorTexture": {
          "index": 11
        },
        "metallicFactor": 0.0,
        "roughnessFactor": 0.6
      }
    },
    {
      "doubleSided": true,
      "name": "Material.007",
      "pbrMetallicRoughness": {
        "baseColorFactor": [
          0.34,
          0.34,
          0.34,
          1.0
        ],
        "baseColorTexture": {
          "index": 1
        },
        "metallicFactor": 0.0,
        "roughnessFactor": 0.96
      }
    },
    {
      "doubleSided": true,
      "name": "Material.006",
      "pbrMetallicRoughness": {
        "baseColorFactor": [
          0.35000000000000003,
          0.35000000000000003,
          0.35000000000000003,
          1.0
        ],
        "baseColorTexture": {
          "index": 1
        },
        "metallicFactor": 0.0,
        "roughnessFactor": 0.6
      }
    },
    {
      "doubleSided": true,
      "emissiveFactor": [
        1.0,
        1.0,
        1.0
      ],
      "emissiveTexture": {
        "index": 1
      },
      "name": "Material.005",
      "pbrMetallicRoughness": {
        "baseColorFactor": [
          0.0,
          0.0,
          0.0,
          1.0
        ],
        "metallicRoughnessTexture": {
          "index": 12
        },
        "roughnessFactor": 0.6
      }
    },
    {
      "doubleSided": true,
      "name": "Material.004",
      "pbrMetallicRoughness": {
        "baseColorFactor": [
          0.35000000000000003,
          0.35000000000000003,
          0.35000000000000003,
          1.0
        ],
        "baseColorTexture": {
          "index": 1
        },
        "metallicFactor": 0.0,
        "roughnessFactor": 0.6
      }
    },
    {
      "doubleSided": true,
      "name": "Material.003",
      "pbrMetallicRoughness": {
        "baseColorFactor": [
          0.36,
          0.36,
          0.36,
          1.0
        ],
        "baseColorTexture": {
          "index": 1
        },
        "metallicFactor": 0.0,
        "roughnessFactor": 0.6
      }
    },
    {
      "doubleSided": true,
      "emissiveFactor": [
        0.1,
        0.1,
        0.1
      ],
      "emissiveTexture": {
        "index": 1
      },
      "name": "Light_1",
      "pbrMetallicRoughness": {
        "baseColorTexture": {
          "index": 1
        },
        "metallicFactor": 0.0,
        "roughnessFactor": 0.89
      }
    },
    {
      "doubleSided": true,
      "name": "Material.002",
      "pbrMetallicRoughness": {
        "baseColorFactor": [
          0.4,
          0.4,
          0.4,
          1.0
        ],
        "baseColorTexture": {
          "index": 1
        },
        "metallicFactor": 0.0,
        "roughnessFactor": 0.91
      }
    },
    {
      "doubleSided": true,
      "emissiveFactor": [
        1.0,
        1.0,
        1.0
      ],
      "emissiveTexture": {
        "index": 0
      },
      "name": "Material.001",
      "pbrMetallicRoughness": {
        "baseColorTexture": {
          "index": 0
        },
        "metallicFactor": 0.0,
        "roughnessFactor": 0.6
      }
    },
    {
      "doubleSided": true,
      "name": "OnOff",
      "pbrMetallicRoughness": {
        "baseColorTexture": {
          "index": 9
        },
        "metallicFactor": 0.0
      }
    },
    {
      "doubleSided": true,
      "emissiveFactor": [
        1.0,
        1.0,
        1.0
      ],
      "emissiveTexture": {
        "index": 13
      },
      "name": "Screen",
      "pbrMetallicRoughness": {
        "baseColorTexture": {
          "index": 13
        },
        "metallicFactor": 0.0,
        "metallicRoughnessTexture": {
          "index": 14
        }
      }
    },
    {
      "doubleSided": true,
      "name": "Screen_Srnd",
      "pbrMetallicRoughness": {
        "baseColorTexture": {
          "index": 15
        },
        "metallicFactor": 0.0
      }
    },
    {
      "doubleSided": true,
      "name": "Large",
      "pbrMetallicRoughness": {
        "baseColorTexture": {
          "index": 16
        },
        "metallicFactor": 0.0
      }
    },
    {
      "doubleSided": true,
      "name": "Button",
      "pbrMetallicRoughness": {
        "baseColorTexture": {
          "index": 17
        },
        "metallicFactor": 0.0,
        "roughnessFactor": 0.6
      }
    },
    {
      "doubleSided": true,
      "name": "Make",
      "pbrMetallicRoughness": {
        "baseColorTexture": {
          "index": 18
        },
        "metallicFactor": 0.0
      }
    },
    {
      "doubleSided": true,
      "name": "Material",
      "pbrMetallicRoughness": {
        "baseColorTexture": {
          "index": 19
        },
        "metallicFactor": 0.0
      }
    },
    {
      "doubleSided": true,
      "name": "material_38",
      "pbrMetallicRoughness": {
        "baseColorTexture": {
          "index": 20
        },
        "metallicFactor": 0.0
      }
    },
    {
      "doubleSided": true,
      "name": "Intership",
      "pbrMetallicRoughness": {
        "baseColorTexture": {
          "index": 21
        },
        "metallicFactor": 0.0
      }
    },
    {
      "doubleSided": true,
      "name": "Body",
      "pbrMetallicRoughness": {
        "baseColorTexture": {
          "index": 22
        },
        "metallicFactor": 0.08
      }
    }
  ],
  "meshes": [
    {
      "name": "Cube_0",
      "primitives": [
        {
          "attributes": {
            "NORMAL": 1,
            "POSITION": 0,
            "TEXCOORD_0": 2
          },
          "indices": 3,
          "material": 40,
          "mode": 4
        }
      ]
    },
    {
      "name": "Hinge_0",
      "primitives": [
        {
          "attributes": {
            "NORMAL": 5,
            "POSITION": 4,
            "TEXCOORD_0": 6
          },
          "indices": 7,
          "material": 40,
          "mode": 4
        }
      ]
    },
    {
      "name": "Lower_0",
      "primitives": [
        {
          "attributes": {
            "NORMAL": 9,
            "POSITION": 8,
            "TEXCOORD_0": 10
          },
          "indices": 11,
          "material": 40,
          "mode": 4
        }
      ]
    },
    {
      "name": "Intership_0",
      "primitives": [
        {
          "attributes": {
            "NORMAL": 13,
            "POSITION": 12,
            "TEXCOORD_0": 14
          },
          "indices": 15,
          "material": 39,
          "mode": 4
        }
      ]
    },
    {
      "name": "IE_0",
      "primitives": [
        {
          "attributes": {
            "NORMAL": 17,
            "POSITION": 16,
            "TEXCOORD_0": 18
          },
          "indices": 19,
          "material": 38,
          "mode": 4
        }
      ]
    },
    {
      "name": "ID_0",
      "primitives": [
        {
          "attributes": {
            "NORMAL": 21,
            "POSITION": 20,
            "TEXCOORD_0": 22
          },
          "indices": 23,
          "material": 37,
          "mode": 4
        }
      ]
    },
    {
      "name": "Make_0",
      "primitives": [
        {
          "attributes": {
            "NORMAL": 25,
            "POSITION": 24,
            "TEXCOORD_0": 26
          },
          "indices": 27,
          "material": 36,
          "mode": 4
        }
      ]
    },
    {
      "name": "Button 2_0",
      "primitives": [
        {
          "attributes": {
            "NORMAL": 29,
            "POSITION": 28,
            "TEXCOORD_0": 30
          },
          "indices": 31,
          "material": 35,
          "mode": 4
        }
      ]
    },
    {
      "name": "Large_0",
      "primitives": [
        {
          "attributes": {
            "NORMAL": 33,
            "POSITION": 32,
            "TEXCOORD_0": 34
          },
          "indices": 35,
          "material": 34,
          "mode": 4
        }
      ]
    },
    {
      "name": "Screen Srnd_0",
      "primitives": [
        {
          "attributes": {
            "NORMAL": 37,
            "POSITION": 36,
            "TEXCOORD_0": 38
          },
          "indices": 39,
          "material": 33,
          "mode": 4
        }
      ]
    },
    {
      "name": "Screen_0",
      "primitives": [
        {
          "attributes": {
            "NORMAL": 41,
            "POSITION": 40,
            "TEXCOORD_0": 42
          },
          "indices": 43,
          "material": 32,
          "mode": 4
        }
      ]
    },
    {
      "name": "OnOff_0",
      "primitives": [
        {
          "attributes": {
            "NORMAL": 45,
            "POSITION": 44,
            "TEXCOORD_0": 46
          },
          "indices": 47,
          "material": 31,
          "mode": 4
        }
      ]
    },
    {
      "name": "PWR_0",
      "primitives": [
        {
          "attributes": {
            "NORMAL": 49,
            "POSITION": 48,
            "TEXCOORD_0": 50
          },
          "indices": 51,
          "material": 30,
          "mode": 4
        }
      ]
    },
    {
      "name": "Alpha_0",
      "primitives": [
        {
          "attributes": {
            "NORMAL": 53,
            "POSITION": 52,
            "TEXCOORD_0": 54
          },
          "indices": 55,
          "material": 29,
          "mode": 4
        }
      ]
    },
    {
      "name": "Light 1_0",
      "primitives": [
        {
          "attributes": {
            "NORMAL": 57,
            "POSITION": 56,
            "TEXCOORD_0": 58
          },
          "indices": 59,
          "material": 28,
          "mode": 4
        }
      ]
    },
    {
      "name": "Delta_0",
      "primitives": [
        {
          "attributes": {
            "NORMAL": 61,
            "POSITION": 60,
            "TEXCOORD_0": 62
          },
          "indices": 63,
          "material": 27,
          "mode": 4
        }
      ]
    },
    {
      "name": "Gamma_0",
      "primitives": [
        {
          "attributes": {
            "NORMAL": 65,
            "POSITION": 64,
            "TEXCOORD_0": 66
          },
          "indices": 67,
          "material": 26,
          "mode": 4
        }
      ]
    },
    {
      "name": "Beta_0",
      "primitives": [
        {
          "attributes": {
            "NORMAL": 69,
            "POSITION": 68,
            "TEXCOORD_0": 70
          },
          "indices": 71,
          "material": 25,
          "mode": 4
        }
      ]
    },
    {
      "name": "Geo_0",
      "primitives": [
        {
          "attributes": {
            "NORMAL": 73,
            "POSITION": 72,
            "TEXCOORD_0": 74
          },
          "indices": 75,
          "material": 24,
          "mode": 4
        }
      ]
    },
    {
      "name": "Met_0",
      "primitives": [
        {
          "attributes": {
            "NORMAL": 77,
            "POSITION": 76,
            "TEXCOORD_0": 78
          },
          "indices": 79,
          "material": 23,
          "mode": 4
        }
      ]
    },
    {
      "name": "Bio_0",
      "primitives": [
        {
          "attributes": {
            "NORMAL": 81,
            "POSITION": 80,
            "TEXCOORD_0": 82
          },
          "indices": 83,
          "material": 22,
          "mode": 4
        }
      ]
    },
    {
      "name": "Light 2_0",
      "primitives": [
        {
          "attributes": {
            "NORMAL": 85,
            "POSITION": 84,
            "TEXCOORD_0": 86
          },
          "indices": 87,
          "material": 21,
          "mode": 4
        }
      ]
    },
    {
      "name": "Light 3_0",
      "primitives": [
        {
          "attributes": {
            "NORMAL": 89,
            "POSITION": 88,
            "TEXCOORD_0": 90
          },
          "indices": 91,
          "material": 20,
          "mode": 4
        }
      ]
    },
    {
      "name": "Cube.001_0",
      "primitives": [
        {
          "attributes": {
            "NORMAL": 93,
            "POSITION": 92,
            "TEXCOORD_0": 94
          },
          "indices": 95,
          "material": 19,
          "mode": 4
        }
      ]
    },
    {
      "name": "Green 2 Bevel_0",
      "primitives": [
        {
          "attributes": {
            "NORMAL": 97,
            "POSITION": 96,
            "TEXCOORD_0": 98
          },
          "indices": 99,
          "material": 18,
          "mode": 4
        }
      ]
    },
    {
      "name": "Green LED 2_0",
      "primitives": [
        {
          "attributes": {
            "NORMAL": 101,
            "POSITION": 100,
            "TEXCOORD_0": 102
          },
          "indices": 103,
          "material": 17,
          "mode": 4
        }
      ]
    },
    {
      "name": "Green LED 1_0",
      "primitives": [
        {
          "attributes": {
            "NORMAL": 105,
            "POSITION": 104,
            "TEXCOORD_0": 106
          },
          "indices": 107,
          "material": 16,
          "mode": 4
        }
      ]
    },
    {
      "name": "Green 1 Bevel_0",
      "primitives": [
        {
          "attributes": {
            "NORMAL": 109,
            "POSITION": 108,
            "TEXCOORD_0": 110
          },
          "indices": 111,
          "material": 15,
          "mode": 4
        }
      ]
    },
    {
      "name": "Red LED 1_0",
      "primitives": [
        {
          "attributes": {
            "NORMAL": 113,
            "POSITION": 112,
            "TEXCOORD_0": 114
          },
          "indices": 115,
          "material": 3,
          "mode": 4
        }
      ]
    },
    {
      "name": "Red LED 2_0",
      "primitives": [
        {
          "attributes": {
            "NORMAL": 117,
            "POSITION": 116,
            "TEXCOORD_0": 118
          },
          "indices": 119,
          "material": 14,
          "mode": 4
        }
      ]
    },
    {
      "name": "Green Front Bevel_0",
      "primitives": [
        {
          "attributes": {
            "NORMAL": 121,
            "POSITION": 120,
            "TEXCOORD_0": 122
          },
          "indices": 123,
          "material": 13,
          "mode": 4
        }
      ]
    },
    {
      "name": "Green 4_0",
      "primitives": [
        {
          "attributes": {
            "NORMAL": 125,
            "POSITION": 124,
            "TEXCOORD_0": 126
          },
          "indices": 127,
          "material": 12,
          "mode": 4
        }
      ]
    },
    {
      "name": "Clear Cylinder_0",
      "primitives": [
        {
          "attributes": {
            "NORMAL": 129,
            "POSITION": 128,
            "TEXCOORD_0": 130
          },
          "indices": 131,
          "material": 11,
          "mode": 4
        }
      ]
    },
    {
      "name": "Black bit white bevel_0",
      "primitives": [
        {
          "attributes": {
            "NORMAL": 133,
            "POSITION": 132,
            "TEXCOORD_0": 134
          },
          "indices": 135,
          "material": 10,
          "mode": 4
        }
      ]
    },
    {
      "name": "Front Red Square Surround_0",
      "primitives": [
        {
          "attributes": {
            "NORMAL": 137,
            "POSITION": 136,
            "TEXCOORD_0": 138
          },
          "indices": 139,
          "material": 9,
          "mode": 4
        }
      ]
    },
    {
      "name": "Ring Sense Inner (blue)_0",
      "primitives": [
        {
          "attributes": {
            "NORMAL": 141,
            "POSITION": 140,
            "TEXCOORD_0": 142
          },
          "indices": 143,
          "material": 8,
          "mode": 4
        }
      ]
    },
    {
      "name": "Green 1_0",
      "primitives": [
        {
          "attributes": {
            "NORMAL": 145,
            "POSITION": 144,
            "TEXCOORD_0": 146
          },
          "indices": 147,
          "material": 7,
          "mode": 4
        }
      ]
    },
    {
      "name": "Green 2_0",
      "primitives": [
        {
          "attributes": {
            "NORMAL": 149,
            "POSITION": 148,
            "TEXCOORD_0": 150
          },
          "indices": 151,
          "material": 6,
          "mode": 4
        }
      ]
    },
    {
      "name": "Green 3_0",
      "primitives": [
        {
          "attributes": {
            "NORMAL": 153,
            "POSITION": 152,
            "TEXCOORD_0": 154
          },
          "indices": 155,
          "material": 5,
          "mode": 4
        }
      ]
    },
    {
      "name": "Black bit_0",
      "primitives": [
        {
          "attributes": {
            "NORMAL": 157,
            "POSITION": 156,
            "TEXCOORD_0": 158
          },
          "indices": 159,
          "material": 4,
          "mode": 4
        }
      ]
    },
    {
      "name": "Front Red Square_0",
      "primitives": [
        {
          "attributes": {
            "NORMAL": 161,
            "POSITION": 160,
            "TEXCOORD_0": 162
          },
          "indices": 163,
          "material": 3,
          "mode": 4
        }
      ]
    },
    {
      "name": "On_0",
      "primitives": [
        {
          "attributes": {
            "NORMAL": 165,
            "POSITION": 164,
            "TEXCOORD_0": 166
          },
          "indices": 167,
          "material": 2,
          "mode": 4
        }
      ]
    },
    {
      "name": "Off_0",
      "primitives": [
        {
          "attributes": {
            "NORMAL": 169,
            "POSITION": 168,
            "TEXCOORD_0": 170
          },
          "indices": 171,
          "material": 1,
          "mode": 4
        }
      ]
    },
    {
      "name": "ID Light_0",
      "primitives": [
        {
          "attributes": {
            "NORMAL": 173,
            "POSITION": 172,
            "TEXCOORD_0": 174
          },
          "indices": 175,
          "material": 0,
          "mode": 4
        }
      ]
    }
  ],
  "nodes": [
    {
      "children": [
        1
      ],
      "matrix": [
        1.0,
        0.0,
        0.0,
        0.0,
        0.0,
        2.220446049250313e-16,
        -1.0,
        0.0,
        0.0,
        1.0,
        2.220446049250313e-16,
        0.0,
        0.0,
        0.0,
        0.0,
        1.0
      ],
      "name": "Sketchfab_model"
    },
    {
      "children": [
        2,
        4,
        6,
        8,
        10,
        12,
        14,
        16,
        18,
        20,
        22,
        24,
        26,
        28,
        30,
        32,
        34,
        36,
        38,
        40,
        42,
        44,
        46,
        48,
        50,
        52,
        54,
        56,
        58,
        60,
        62,
        64,
        66,
        68,
        70,
        72,
        74,
        76,
        78,
        80,
        82,
        84,
        86,
        88,
        90
      ],
      "name": "Root"
    },
    {
      "children": [
        3
      ],
      "matrix": [
        -0.29086000000000006,
        0.9551700000000001,
        -0.05519000000000001,
        0.0,
        -0.7711,
        -0.19988000000000003,
        0.6045200000000001,
        0.0,
        0.5663900000000001,
        0.21839000000000003,
        0.7946700000000001,
        0.0,
        4.076250000000001,
        1.00545,
        5.903860000000001,
        1.0
      ],
      "name": "Lamp"
    },
    {
      "name": "Lamp"
    },
    {
      "children": [
        5
      ],
      "name": "Cube"
    },
    {
      "mesh": 0,
      "name": "Cube_0"
    },
    {
      "children": [
        7
      ],
      "matrix": [
        1.0,
        0.0,
        0.0,
        0.0,
        0.0,
        1.0,
        0.0,
        0.0,
        0.0,
        0.0,
        1.0,
        0.0,
        0.0,
        0.0,
        2.2661900000000004,
        1.0
      ],
      "name": "Hinge"
    },
    {
      "mesh": 1,
      "name": "Hinge_0"
    },
    {
      "children": [
        9
      ],
      "matrix": [
        1.0,
        0.0,
        0.0,
        0.0,
        0.0,
        0.91066,
        -0.41315,
        0.0,
        -0.0,
        0.41315,
        0.91066,
        0.0,
        0.0,
        -0.26069,
        -0.52137,
        1.0
      ],
      "name": "Lower"
    },
    {
      "mesh": 2,
      "name": "Lower_0"
    },
    {
      "children": [
        11
      ],
      "matrix": [
        1.0,
        0.0,
        0.0,
        0.0,
        0.0,
        0.91066,
        -0.41315,
        0.0,
        -0.0,
        0.41315,
        0.91066,
        0.0,
        0.0,
        -0.26069,
        -0.52137,
        1.0
      ],
      "name": "Intership"
    },
    {
      "mesh": 3,
      "name": "Intership_0"
    },
    {
      "children": [
        13
      ],
      "matrix": [
        1.0,
        0.0,
        0.0,
        0.0,
        0.0,
        0.91066,
        -0.41315,
        0.0,
        -0.0,
        0.41315,
        0.91066,
        0.0,
        0.0,
        -0.26069,
        -0.52137,
        1.0
      ],
      "name": "IE"
    },
    {
      "mesh": 4,
      "name": "IE_0"
    },
    {
      "children": [
        15
      ],
      "matrix": [
        1.0,
        0.0,
        0.0,
        0.0,
        0.0,
        0.91066,
        -0.41315,
        0.0,
        -0.0,
        0.41315,
        0.91066,
        0.0,
        0.0,
        -0.26069,
        -0.52137,
        1.0
      ],
      "name": "ID"
    },
    {
      "mesh": 5,
      "name": "ID_0"
    },
    {
      "children": [
        17
      ],
      "matrix": [
        1.0,
        0.0,
        0.0,
        0.0,
        0.0,
        0.91066,
        -0.41315,
        0.0,
        -0.0,
        0.41315,
        0.91066,
        0.0,
        0.0,
        -0.26069,
        -0.52137,
        1.0
      ],
      "name": "Make"
    },
    {
      "mesh": 6,
      "name": "Make_0"
    },
    {
      "children": [
        19
      ],
      "matrix": [
        1.0,
        0.0,
        0.0,
        0.0,
        0.0,
        0.91066,
        -0.41315,
        0.0,
        -0.0,
        0.41315,
        0.91066,
        0.0,
        0.0,
        -0.26069,
        -0.52137,
        1.0
      ],
      "name": "Button 2"
    },
    {
      "mesh": 7,
      "name": "Button 2_0"
    },
    {
      "children": [
        21
      ],
      "name": "Large"
    },
    {
      "mesh": 8,
      "name": "Large_0"
    },
    {
      "children": [
        23
      ],
      "name": "Screen Srnd"
    },
    {
      "mesh": 9,
      "name": "Screen Srnd_0"
    },
    {
      "children": [
        25
      ],
      "name": "Screen"
    },
    {
      "mesh": 10,
      "name": "Screen_0"
    },
    {
      "children": [
        27
      ],
      "name": "OnOff"
    },
    {
      "mesh": 11,
      "name": "OnOff_0"
    },
    {
      "children": [
        29
      ],
      "name": "PWR"
    },
    {
      "mesh": 12,
      "name": "PWR_0"
    },
    {
      "children": [
        31
      ],
      "name": "Alpha"
    },
    {
      "mesh": 13,
      "name": "Alpha_0"
    },
    {
      "children": [
        33
      ],
      "name": "Light 1"
    },
    {
      "mesh": 14,
      "name": "Light 1_0"
    },
    {
      "children": [
        35
      ],
      "name": "Delta"
    },
    {
      "mesh": 15,
      "name": "Delta_0"
    },
    {
      "children": [
        37
      ],
      "name": "Gamma"
    },
    {
      "mesh": 16,
      "name": "Gamma_0"
    },
    {
      "children": [
        39
      ],
      "name": "Beta"
    },
    {
      "mesh": 17,
      "name": "Beta_0"
    },
    {
      "children": [
        41
      ],
      "name": "Geo"
    },
    {
      "mesh": 18,
      "name": "Geo_0"
    },
    {
      "children": [
        43
      ],
      "name": "Met"
    },
    {
      "mesh": 19,
      "name": "Met_0"
    },
    {
      "children": [
        45
      ],
      "name": "Bio"
    },
    {
      "mesh": 20,
      "name": "Bio_0"
    },
    {
      "children": [
        47
      ],
      "name": "Light 2"
    },
    {
      "mesh": 21,
      "name": "Light 2_0"
    },
    {
      "children": [
        49
      ],
      "name": "Light 3"
    },
    {
      "mesh": 22,
      "name": "Light 3_0"
    },
    {
      "children": [
        51
      ],
      "name": "Cube.001"
    },
    {
      "mesh": 23,
      "name": "Cube.001_0"
    },
    {
      "children": [
        53
      ],
      "matrix": [
        1.0,
        0.0,
        0.0,
        0.0,
        0.0,
        1.0,
        0.0,
        0.0,
        0.0,
        0.0,
        1.0,
        0.0,
        -0.8137300000000001,
        0.0,
        0.0,
        1.0
      ],
      "name": "Green 2 Bevel"
    },
    {
      "mesh": 24,
      "name": "Green 2 Bevel_0"
    },
    {
      "children": [
        55
      ],
      "matrix": [
        1.0,
        0.0,
        0.0,
        0.0,
        0.0,
        1.0,
        0.0,
        0.0,
        0.0,
        0.0,
        1.0,
        0.0,
        -0.8137300000000001,
        0.0,
        0.0,
        1.0
      ],
      "name": "Green LED 2"
    },
    {
      "mesh": 25,
      "name": "Green LED 2_0"
    },
    {
      "children": [
        57
      ],
      "matrix": [
        1.0,
        0.0,
        0.0,
        0.0,
        0.0,
        1.0,
        0.0,
        0.0,
        0.0,
        0.0,
        1.0,
        0.0,
        -1.3277599999999998,
        0.0,
        0.0,
        1.0
      ],
      "name": "Green LED 1"
    },
    {
      "mesh": 26,
      "name": "Green LED 1_0"
    },
    {
      "children": [
        59
      ],
      "matrix": [
        1.0,
        0.0,
        0.0,
        0.0,
        0.0,
        1.0,
        0.0,
        0.0,
        0.0,
        0.0,
        1.0,
        0.0,
        -1.3277599999999998,
        0.0,
        0.0,
        1.0
      ],
      "name": "Green 1 Bevel"
    },
    {
      "mesh": 27,
      "name": "Green 1 Bevel_0"
    },
    {
      "children": [
        61
      ],
      "matrix": [
        1.0,
        0.0,
        0.0,
        0.0,
        0.0,
        1.0,
        0.0,
        0.0,
        0.0,
        0.0,
        1.0,
        0.0,
        -2.48543,
        0.0,
        0.0,
        1.0
      ],
      "name": "Red LED 1"
    },
    {
      "mesh": 28,
      "name": "Red LED 1_0"
    },
    {
      "children": [
        63
      ],
      "matrix": [
        1.0,
        0.0,
        0.0,
        0.0,
        0.0,
        1.0,
        0.0,
        0.0,
        0.0,
        0.0,
        1.0,
        0.0,
        -2.48543,
        0.0,
        -0.57896,
        1.0
      ],
      "name": "Red LED 2"
    },
    {
      "mesh": 29,
      "name": "Red LED 2_0"
    },
    {
      "children": [
        65
      ],
      "matrix": [
        1.0,
        0.0,
        0.0,
        0.0,
        0.0,
        0.0,
        -1.0,
        0.0,
        -0.0,
        1.0,
        0.0,
        0.0,
        0.0,
        0.0,
        0.0,
        1.0
      ],
      "name": "Green Front Bevel"
    },
    {
      "mesh": 30,
      "name": "Green Front Bevel_0"
    },
    {
      "children": [
        67
      ],
      "name": "Green 4"
    },
    {
      "mesh": 31,
      "name": "Green 4_0"
    },
    {
      "children": [
        69
      ],
      "matrix": [
        1.0,
        0.0,
        0.0,
        0.0,
        0.0,
        1.0,
        0.0,
        0.0,
        0.0,
        0.0,
        1.0,
        0.0,
        -2.2411200000000004,
        0.0,
        0.0,
        1.0
      ],
      "name": "Clear Cylinder"
    },
    {
      "mesh": 32,
      "name": "Clear Cylinder_0"
    },
    {
      "children": [
        71
      ],
      "matrix": [
        1.0,
        0.0,
        0.0,
        0.0,
        0.0,
        0.0,
        -1.0,
        0.0,
        -0.0,
        1.0,
        0.0,
        0.0,
        0.0,
        0.0,
        0.0,
        1.0
      ],
      "name": "Black bit white bevel"
    },
    {
      "mesh": 33,
      "name": "Black bit white bevel_0"
    },
    {
      "children": [
        73
      ],
      "name": "Front Red Square Surround"
    },
    {
      "mesh": 34,
      "name": "Front Red Square Surround_0"
    },
    {
      "children": [
        75
      ],
      "matrix": [
        0.0,
        -1.0,
        0.0,
        0.0,
        0.0,
        0.0,
        -1.0,
        0.0,
        1.0,
        0.0,
        0.0,
        0.0,
        0.0,
        0.0,
        0.0,
        1.0
      ],
      "name": "Ring Sense Inner (blue)"
    },
    {
      "mesh": 35,
      "name": "Ring Sense Inner (blue)_0"
    },
    {
      "children": [
        77
      ],
      "name": "Green 1"
    },
    {
      "mesh": 36,
      "name": "Green 1_0"
    },
    {
      "children": [
        79
      ],
      "name": "Green 2"
    },
    {
      "mesh": 37,
      "name": "Green 2_0"
    },
    {
      "children": [
        81
      ],
      "name": "Green 3"
    },
    {
      "mesh": 38,
      "name": "Green 3_0"
    },
    {
      "children": [
        83
      ],
      "matrix": [
        1.0,
        0.0,
        0.0,
        0.0,
        0.0,
        0.0,
        -1.0,
        0.0,
        -0.0,
        1.0,
        0.0,
        0.0,
        0.0,
        0.0,
        0.0,
        1.0
      ],
      "name": "Black bit"
    },
    {
      "mesh": 39,
      "name": "Black bit_0"
    },
    {
      "children": [
        85
      ],
      "name": "Front Red Square"
    },
    {
      "mesh": 40,
      "name": "Front Red Square_0"
    },
    {
      "children": [
        87
      ],
      "name": "On"
    },
    {
      "mesh": 41,
      "name": "On_0"
    },
    {
      "children": [
        89
      ],
      "name": "Off"
    },
    {
      "mesh": 42,
      "name": "Off_0"
    },
    {
      "children": [
        91
      ],
      "name": "ID Light"
    },
    {
      "mesh": 43,
      "name": "ID Light_0"
    }
  ],
  "samplers": [
    {
      "magFilter": 9729,
      "minFilter": 9987,
      "wrapS": 10497,
      "wrapT": 10497
    }
  ],
  "scene": 0,
  "scenes": [
    {
      "name": "Sketchfab_Scene",
      "nodes": [
        0
      ]
    }
  ],
  "textures": [
    {
      "sampler": 0,
      "source": 0
    },
    {
      "sampler": 0,
      "source": 1
    },
    {
      "sampler": 0,
      "source": 2
    },
    {
      "sampler": 0,
      "source": 3
    },
    {
      "sampler": 0,
      "source": 4
    },
    {
      "sampler": 0,
      "source": 5
    },
    {
      "sampler": 0,
      "source": 6
    },
    {
      "sampler": 0,
      "source": 7
    },
    {
      "sampler": 0,
      "source": 8
    },
    {
      "sampler": 0,
      "source": 9
    },
    {
      "sampler": 0,
      "source": 10
    },
    {
      "sampler": 0,
      "source": 11
    },
    {
      "sampler": 0,
      "source": 12
    },
    {
      "sampler": 0,
      "source": 13
    },
    {
      "sampler": 0,
      "source": 14
    },
    {
      "sampler": 0,
      "source": 15
    },
    {
      "sampler": 0,
      "source": 16
    },
    {
      "sampler": 0,
      "source": 17
    },
    {
      "sampler": 0,
      "source": 18
    },
    {
      "sampler": 0,
      "source": 19
    },
    {
      "sampler": 0,
      "source": 20
    },
    {
      "sampler": 0,
      "source": 21
    },
    {
      "sampler": 0,
      "source": 22
    }
  ]
}
