{
  "accessors": [
    {
      "bufferView": 2,
      "componentType": 5126,
      "count": 1012,
      "max": [
        211.67970275878906,
        78.05269622802734,
        0.2418999969959259
      ],
      "min": [
        -211.67970275878906,
        -83.38809967041016,
        -183.95469665527344
      ],
      "type": "VEC3"
    },
    {
      "bufferView": 2,
      "byteOffset": 12144,
      "componentType": 5126,
      "count": 1012,
      "max": [
        0.9975777268409729,
        0.9975779056549072,
        -0.06327187269926071
      ],
      "min": [
        -0.9975788593292236,
        -0.9975777864456177,
        -1.0
      ],
      "type": "VEC3"
    },
    {
      "bufferView": 1,
      "componentType": 5126,
      "count": 1012,
      "max": [
        0.19840000569820404,
        0.9995999932289124
      ],
      "min": [
        0.0005000000237487257,
        0.800599992275238
      ],
      "type": "VEC2"
    },
    {
      "bufferView": 0,
      "componentType": 5125,
      "count": 5616,
      "type": "SCALAR"
    },
    {
      "bufferView": 2,
      "byteOffset": 24288,
      "componentType": 5126,
      "count": 80,
      "max": [
        115.36940002441406,
        -18.981000900268555,
        218.91799926757813
      ],
      "min": [
        -115.36940002441406,
        -27.53700065612793,
        216.9342041015625
      ],
      "type": "VEC3"
    },
    {
      "bufferView": 2,
      "byteOffset": 25248,
      "componentType": 5126,
      "count": 80,
      "max": [
        1.0,
        0.9984315037727356,
        1.0
      ],
      "min": [
        -1.0,
        -0.9984315037727356,
        -5.087769022793509e-05
      ],
      "type": "VEC3"
    },
    {
      "bufferView": 1,
      "byteOffset": 8096,
      "componentType": 5126,
      "count": 80,
      "max": [
        0.9998999834060669,
        0.9987999796867371
      ],
      "min": [
        0.00279999990016222,
        0.001500000013038516
      ],
      "type": "VEC2"
    },
    {
      "bufferView": 0,
      "byteOffset": 22464,
      "componentType": 5125,
      "count": 120,
      "type": "SCALAR"
    },
    {
      "bufferView": 2,
      "byteOffset": 26208,
      "componentType": 5126,
      "count": 1138,
      "max": [
        227.86419677734375,
        -24.57710075378418,
        -136.36659240722656
      ],
      "min": [
        -227.86419677734375,
        -51.02180099487305,
        -592.094970703125
      ],
      "type": "VEC3"
    },
    {
      "bufferView": 2,
      "byteOffset": 39864,
      "componentType": 5126,
      "count": 1138,
      "max": [
        0.9999959468841553,
        2.6787807655637152e-05,
        1.0
      ],
      "min": [
        -0.9999958276748657,
        -1.0,
        -0.9990382790565491
      ],
      "type": "VEC3"
    },
    {
      "bufferView": 1,
      "byteOffset": 8736,
      "componentType": 5126,
      "count": 1138,
      "max": [
        1.0,
        1.0
      ],
      "min": [
        0.0,
        0.0
      ],
      "type": "VEC2"
    },
    {
      "bufferView": 0,
      "byteOffset": 22944,
      "componentType": 5125,
      "count": 4653,
      "type": "SCALAR"
    },
    {
      "bufferView": 2,
      "byteOffset": 53520,
      "componentType": 5126,
      "count": 1622,
      "max": [
        233.90719604492188,
        -0.8406000137329102,
        -130.32359313964844
      ],
      "min": [
        -233.9073028564453,
        -42.16130065917969,
        -598.1381225585938
      ],
      "type": "VEC3"
    },
    {
      "bufferView": 2,
      "byteOffset": 72984,
      "componentType": 5126,
      "count": 1622,
      "max": [
        0.9998941421508789,
        1.0,
        0.9998942017555237
      ],
      "min": [
        -0.9999974966049194,
        -1.0,
        -0.9998941421508789
      ],
      "type": "VEC3"
    },
    {
      "bufferView": 1,
      "byteOffset": 17840,
      "componentType": 5126,
      "count": 1622,
      "max": [
        0.9998999834060669,
        0.9998000264167786
      ],
      "min": [
        0.0003000000142492354,
        -0.0
      ],
      "type": "VEC2"
    },
    {
      "bufferView": 0,
      "byteOffset": 41556,
      "componentType": 5125,
      "count": 4776,
      "type": "SCALAR"
    },
    {
      "bufferView": 2,
      "byteOffset": 92448,
      "componentType": 5126,
      "count": 10240,
      "max": [
        135.92359924316406,
        86.21589660644531,
        221.04620361328125
      ],
      "min": [
        -135.92359924316406,
        -70.57270050048828,
        -364.2309875488281
      ],
      "type": "VEC3"
    },
    {
      "bufferView": 2,
      "byteOffset": 215328,
      "componentType": 5126,
      "count": 10240,
      "max": [
        1.0,
        1.0,
        1.0
      ],
      "min": [
        -1.0,
        -1.0,
        -1.0
      ],
      "type": "VEC3"
    },
    {
      "bufferView": 1,
      "byteOffset": 30816,
      "componentType": 5126,
      "count": 10240,
      "max": [
        0.9986000061035156,
        0.9998000264167786
      ],
      "min": [
        0.0,
        0.0017000000225380063
      ],
      "type": "VEC2"
    },
    {
      "bufferView": 0,
      "byteOffset": 60660,
      "componentType": 5125,
      "count": 33582,
      "type": "SCALAR"
    },
    {
      "bufferView": 2,
      "byteOffset": 338208,
      "componentType": 5126,
      "count": 10002,
      "max": [
        212.7512969970703,
        79.12429809570313,
        368.6925048828125
      ],
      "min": [
        -212.7512969970703,
        -84.45960235595703,
        -213.5841064453125
      ],
      "type": "VEC3"
    },
    {
      "bufferView": 2,
      "byteOffset": 458232,
      "componentType": 5126,
      "count": 10002,
      "max": [
        1.0,
        1.0,
        1.0
      ],
      "min": [
        -1.0,
        -1.0,
        -1.0
      ],
      "type": "VEC3"
    },
    {
      "bufferView": 1,
      "byteOffset": 112736,
      "componentType": 5126,
      "count": 10002,
      "max": [
        0.9990000128746033,
        0.9991999864578247
      ],
      "min": [
        0.0019000000320374966,
        0.11129999905824661
      ],
      "type": "VEC2"
    },
    {
      "bufferView": 0,
      "byteOffset": 194988,
      "componentType": 5125,
      "count": 32676,
      "type": "SCALAR"
    }
  ],
  "asset": {
    "extras": {
      "author": "Major Stress (https://sketchfab.com/MajorStress)",
      "license": "CC-BY-4.0 (http://creativecommons.org/licenses/by/4.0/)",
      "source": "https://sketchfab.com/3d-models/tyr-class-space-control-ship-v2-4978d9884a7847cc99b453c18fde7f5d",
      "title": "Tyr Class Space Control Ship v2"
    },
    "generator": "Sketchfab-12.65.0",
    "version": "2.0"
  },
  "bufferViews": [
    {
      "buffer": 0,
      "byteLength": 325692,
      "name": "floatBufferViews",
      "target": 34963
    },
    {
      "buffer": 0,
      "byteLength": 192752,
      "byteOffset": 325692,
      "byteStride": 8,
      "name": "floatBufferViews",
      "target": 34962
    },
    {
      "buffer": 0,
      "byteLength": 578256,
      "byteOffset": 518444,
      "byteStride": 12,
      "name": "floatBufferViews",
      "target": 34962
    }
  ],
  "buffers": [
    {
      "byteLength": 1096700,
      "uri": "scene.bin"
    }
  ],
  "extensionsRequired": [
    "KHR_materials_pbrSpecularGlossiness"
  ],
  "extensionsUsed": [
    "KHR_materials_pbrSpecularGlossiness"
  ],
  "images": [
    {
      "uri": "textures/Tyr_01_diffuse.png"
    },
    {
      "uri": "textures/Tyr_01_specularGlossiness.png"
    },
    {
      "uri": "textures/Tyr_01_emissive.png"
    },
    {
      "uri": "textures/Tyr_02_diffuse.png"
    },
    {
      "uri": "textures/Tyr_02_specularGlossiness.png"
    },
    {
      "uri": "textures/Tyr_02_emissive.png"
    },
    {
      "uri": "textures/Tyr_03_diffuse.png"
    },
    {
      "uri": "textures/Tyr_03_specularGlossiness.png"
    },
    {
      "uri": "textures/Tyr_03_emissive.png"
    },
    {
      "uri": "textures/Tyr_04_diffuse.png"
    },
    {
      "uri": "textures/Tyr_04_specularGlossiness.png"
    },
    {
      "uri": "textures/Tyr_04_emissive.png"
    },
    {
      "uri": "textures/Tyr_Bussard_diffuse.png"
    },
    {
      "uri": "textures/Tyr_Bussard_specularGlossiness.png"
    },
    {
      "uri": "textures/Tyr_Bussard_emissive.png"
    },
    {
      "uri": "textures/Tyr_Impulse_diffuse.png"
    },
    {
      "uri": "textures/Tyr_Impulse_specularGlossiness.png"
    }
  ],
  "materials": [
    {
      "emissiveFactor": [
        1.0,
        1.0,
        1.0
      ],
      "emissiveTexture": {
        "index": 2
      },
      "extensions": {
        "KHR_materials_pbrSpecularGlossiness": {
          "diffuseFactor": [
            1.0,
            1.0,
            1.0,
            1.0
          ],
          "diffuseTexture": {
            "index": 0
          },
          "glossinessFactor": 0.6,
          "specularFactor": [
            1.0,
            1.0,
            1.0
          ],
          "specularGlossinessTexture": {
            "index": 1
          }
        }
      },
      "name": "Tyr_01"
    },
    {
      "emissiveFactor": [
        1.0,
        1.0,
        1.0
      ],
      "emissiveTexture": {
        "index": 5
      },
      "extensions": {
        "KHR_materials_pbrSpecularGlossiness": {
          "diffuseFactor": [
            1.0,
            1.0,
            1.0,
            1.0
          ],
          "diffuseTexture": {
            "index": 3
          },
          "glossinessFactor": 0.6,
          "specularFactor": [
            1.0,
            1.0,
            1.0
          ],
          "specularGlossinessTexture": {
            "index": 4
          }
        }
      },
      "name": "Tyr_02"
    },
    {
      "emissiveFactor": [
        1.0,
        1.0,
        1.0
      ],
      "emissiveTexture": {
        "index": 8
      },
      "extensions": {
        "KHR_materials_pbrSpecularGlossiness": {
          "diffuseFactor": [
            1.0,
            1.0,
            1.0,
            1.0
          ],
          "diffuseTexture": {
            "index": 6
          },
          "glossinessFactor": 0.6,
          "specularFactor": [
            1.0,
            1.0,
            1.0
          ],
          "specularGlossinessTexture": {
            "index": 7
          }
        }
      },
      "name": "Tyr_03"
    },
    {
      "emissiveFactor": [
        1.0,
        1.0,
        1.0
      ],
      "emissiveTexture": {
        "index": 11
      },
      "extensions": {
        "KHR_materials_pbrSpecularGlossiness": {
          "diffuseFactor": [
            1.0,
            1.0,
            1.0,
            1.0
          ],
          "diffuseTexture": {
            "index": 9
          },
          "glossinessFactor": 0.6,
          "specularFactor": [
            1.0,
            1.0,
            1.0
          ],
          "specularGlossinessTexture": {
            "index": 10
          }
        }
      },
      "name": "Tyr_04"
    },
    {
      "emissiveFactor": [
        1.0,
        1.0,
        1.0
      ],
      "emissiveTexture": {
        "index": 14
      },
      "extensions": {
        "KHR_materials_pbrSpecularGlossiness": {
          "diffuseFactor": [
            1.0,
            1.0,
            1.0,
            1.0
          ],
          "diffuseTexture": {
            "index": 12
          },
          "glossinessFactor": 1.0,
          "specularFactor": [
            1.0,
            1.0,
            1.0
          ],
          "specularGlossinessTexture": {
            "index": 13
          }
        }
      },
      "name": "Tyr_Bussard"
    },
    {
      "emissiveFactor": [
        1.0,
        1.0,
        1.0
      ],
      "emissiveTexture": {
        "index": 15
      },
      "extensions": {
        "KHR_materials_pbrSpecularGlossiness": {
          "diffuseFactor": [
            1.0,
            1.0,
            1.0,
            1.0
          ],
          "diffuseTexture": {
            "index": 15
          },
          "glossinessFactor": 1.0,
          "specularFactor": [
            1.0,
            1.0,
            1.0
          ],
          "specularGlossinessTexture": {
            "index": 16
          }
        }
      },
      "name": "Tyr_Impulse"
    }
  ],
  "meshes": [
    {
      "name": "Object_0",
      "primitives": [
        {
          "attributes": {
            "NORMAL": 1,
            "POSITION": 0,
            "TEXCOORD_0": 2
          },
          "indices": 3,
          "material": 4,
          "mode": 4
        }
      ]
    },
    {
      "name": "Object_1",
      "primitives": [
        {
          "attributes": {
            "NORMAL": 5,
            "POSITION": 4,
            "TEXCOORD_0": 6
          },
          "indices": 7,
          "material": 5,
          "mode": 4
        }
      ]
    },
    {
      "name": "Object_2",
      "primitives": [
        {
          "attributes": {
            "NORMAL": 9,
            "POSITION": 8,
            "TEXCOORD_0": 10
          },
          "indices": 11,
          "material": 0,
          "mode": 4
        }
      ]
    },
    {
      "name": "Object_3",
      "primitives": [
        {
          "attributes": {
            "NORMAL": 13,
            "POSITION": 12,
            "TEXCOORD_0": 14
          },
          "indices": 15,
          "material": 1,
          "mode": 4
        }
      ]
    },
    {
      "name": "Object_4",
      "primitives": [
        {
          "attributes": {
            "NORMAL": 17,
            "POSITION": 16,
            "TEXCOORD_0": 18
          },
          "indices": 19,
          "material": 2,
          "mode": 4
        }
      ]
    },
    {
      "name": "Object_5",
      "primitives": [
        {
          "attributes": {
            "NORMAL": 21,
            "POSITION": 20,
            "TEXCOORD_0": 22
          },
          "indices": 23,
          "material": 3,
          "mode": 4
        }
      ]
    }
  ],
  "nodes": [
    {
      "children": [
        1
      ],
      "matrix": [
        1.0,
        0.0,
        0.0,
        0.0,
        0.0,
        -1.0,
        -4.440892098500626e-16,
        0.0,
        0.0,
        4.440892098500626e-16,
        -1.0,
        0.0,
        0.0,
        -113.84649658203122,
        -115.60281372070315,
        1.0
      ],
      "name": "Sketchfab_model"
    },
    {
      "children": [
        2,
        3,
        4,
        5,
        6,
        7
      ],
      "name": "Fed_TOS_Tyr.obj.cleaner.materialmerger.gles"
    },
    {
      "mesh": 0,
      "name": "Object_2"
    },
    {
      "mesh": 1,
      "name": "Object_3"
    },
    {
      "mesh": 2,
      "name": "Object_4"
    },
    {
      "mesh": 3,
      "name": "Object_5"
    },
    {
      "mesh": 4,
      "name": "Object_6"
    },
    {
      "mesh": 5,
      "name": "Object_7"
    }
  ],
  "samplers": [
    {
      "magFilter": 9729,
      "minFilter": 9987,
      "wrapS": 10497,
      "wrapT": 10497
    }
  ],
  "scene": 0,
  "scenes": [
    {
      "name": "Sketchfab_Scene",
      "nodes": [
        0
      ]
    }
  ],
  "textures": [
    {
      "sampler": 0,
      "source": 0
    },
    {
      "sampler": 0,
      "source": 1
    },
    {
      "sampler": 0,
      "source": 2
    },
    {
      "sampler": 0,
      "source": 3
    },
    {
      "sampler": 0,
      "source": 4
    },
    {
      "sampler": 0,
      "source": 5
    },
    {
      "sampler": 0,
      "source": 6
    },
    {
      "sampler": 0,
      "source": 7
    },
    {
      "sampler": 0,
      "source": 8
    },
    {
      "sampler": 0,
      "source": 9
    },
    {
      "sampler": 0,
      "source": 10
    },
    {
      "sampler": 0,
      "source": 11
    },
    {
      "sampler": 0,
      "source": 12
    },
    {
      "sampler": 0,
      "source": 13
    },
    {
      "sampler": 0,
      "source": 14
    },
    {
      "sampler": 0,
      "source": 15
    },
    {
      "sampler": 0,
      "source": 16
    }
  ]
}
