{
  "accessors": [
    {
      "bufferView": 2,
      "componentType": 5126,
      "count": 794,
      "max": [
        5.039735794067383,
        5.3459649085998535,
        -1.7032865285873413
      ],
      "min": [
        1.6717990636825562,
        3.2400569915771484,
        -3.931696653366089
      ],
      "type": "VEC3"
    },
    {
      "bufferView": 2,
      "byteOffset": 9528,
      "componentType": 5126,
      "count": 794,
      "max": [
        0.9123323559761047,
        0.9999995827674866,
        1.0
      ],
      "min": [
        -0.9978476762771606,
        -0.9980546832084656,
        -1.0
      ],
      "type": "VEC3"
    },
    {
      "bufferView": 1,
      "componentType": 5126,
      "count": 794,
      "max": [
        0.875,
        1.0
      ],
      "min": [
        0.125,
        0.0
      ],
      "type": "VEC2"
    },
    {
      "bufferView": 0,
      "componentType": 5125,
      "count": 1920,
      "type": "SCALAR"
    },
    {
      "bufferView": 2,
      "byteOffset": 19056,
      "componentType": 5126,
      "count": 28,
      "max": [
        5.039735794067383,
        5.327969551086426,
        -2.9778289794921875
      ],
      "min": [
        1.736952781677246,
        3.275641679763794,
        -3.669351577758789
      ],
      "type": "VEC3"
    },
    {
      "bufferView": 2,
      "byteOffset": 19392,
      "componentType": 5126,
      "count": 28,
      "max": [
        0.9117318391799927,
        0.997917652130127,
        0.724931538105011
      ],
      "min": [
        -0.06450224667787552,
        0.2904635965824127,
        -0.7249234914779663
      ],
      "type": "VEC3"
    },
    {
      "bufferView": 1,
      "byteOffset": 6352,
      "componentType": 5126,
      "count": 28,
      "max": [
        0.625,
        0.5
      ],
      "min": [
        0.375,
        0.25
      ],
      "type": "VEC2"
    },
    {
      "bufferView": 0,
      "byteOffset": 7680,
      "componentType": 5125,
      "count": 48,
      "type": "SCALAR"
    },
    {
      "bufferView": 2,
      "byteOffset": 19728,
      "componentType": 5126,
      "count": 145,
      "max": [
        3.9566164016723633,
        5.0505242347717285,
        -0.8584346175193787
      ],
      "min": [
        3.006167411804199,
        4.133553504943848,
        -1.8542406558990479
      ],
      "type": "VEC3"
    },
    {
      "bufferView": 2,
      "byteOffset": 21468,
      "componentType": 5126,
      "count": 145,
      "max": [
        0.9941497445106506,
        0.998930037021637,
        0.9930858612060547
      ],
      "min": [
        -0.999963641166687,
        -0.9989299774169922,
        -0.9930859208106995
      ],
      "type": "VEC3"
    },
    {
      "bufferView": 1,
      "byteOffset": 6576,
      "componentType": 5126,
      "count": 145,
      "max": [
        0.65625,
        1.0
      ],
      "min": [
        0.3437499701976776,
        -7.450580596923828e-08
      ],
      "type": "VEC2"
    },
    {
      "bufferView": 0,
      "byteOffset": 7872,
      "componentType": 5125,
      "count": 480,
      "type": "SCALAR"
    },
    {
      "bufferView": 2,
      "byteOffset": 23208,
      "componentType": 5126,
      "count": 356,
      "max": [
        3.746454954147339,
        4.895970344543457,
        -0.3078579306602478
      ],
      "min": [
        3.0259432792663574,
        4.2064971923828125,
        -0.9364786148071289
      ],
      "type": "VEC3"
    },
    {
      "bufferView": 2,
      "byteOffset": 27480,
      "componentType": 5126,
      "count": 356,
      "max": [
        0.9615726470947266,
        0.9989300966262817,
        0.993086040019989
      ],
      "min": [
        -0.9615737199783325,
        -0.9989301562309265,
        -0.9930859804153442
      ],
      "type": "VEC3"
    },
    {
      "bufferView": 1,
      "byteOffset": 7736,
      "componentType": 5126,
      "count": 356,
      "max": [
        0.65625,
        1.0
      ],
      "min": [
        0.34375,
        0.0
      ],
      "type": "VEC2"
    },
    {
      "bufferView": 0,
      "byteOffset": 9792,
      "componentType": 5125,
      "count": 720,
      "type": "SCALAR"
    },
    {
      "bufferView": 2,
      "byteOffset": 31752,
      "componentType": 5126,
      "count": 383,
      "max": [
        3.694378137588501,
        4.878148555755615,
        1.064733624458313
      ],
      "min": [
        2.9197280406951904,
        4.182102203369141,
        -0.38634657859802246
      ],
      "type": "VEC3"
    },
    {
      "bufferView": 2,
      "byteOffset": 36348,
      "componentType": 5126,
      "count": 383,
      "max": [
        0.9941496849060059,
        0.9989302754402161,
        0.9930860996246338
      ],
      "min": [
        -0.9999434947967529,
        -0.9999931454658508,
        -0.9930860996246338
      ],
      "type": "VEC3"
    },
    {
      "bufferView": 1,
      "byteOffset": 10584,
      "componentType": 5126,
      "count": 383,
      "max": [
        0.65625,
        1.0
      ],
      "min": [
        0.3437499701976776,
        -7.450580596923828e-08
      ],
      "type": "VEC2"
    },
    {
      "bufferView": 0,
      "byteOffset": 12672,
      "componentType": 5125,
      "count": 1314,
      "type": "SCALAR"
    },
    {
      "bufferView": 2,
      "byteOffset": 40944,
      "componentType": 5126,
      "count": 972,
      "max": [
        3.39572811126709,
        4.665015697479248,
        1.7867462635040283
      ],
      "min": [
        2.9365243911743164,
        4.248790264129639,
        1.0200523138046265
      ],
      "type": "VEC3"
    },
    {
      "bufferView": 2,
      "byteOffset": 52608,
      "componentType": 5126,
      "count": 972,
      "max": [
        0.9972614645957947,
        0.9988698363304138,
        0.9978389739990234
      ],
      "min": [
        -0.9972590804100037,
        -0.9989286065101624,
        -0.9980377554893494
      ],
      "type": "VEC3"
    },
    {
      "bufferView": 1,
      "byteOffset": 13648,
      "componentType": 5126,
      "count": 972,
      "max": [
        0.65625,
        1.0
      ],
      "min": [
        0.3437499403953552,
        -8.940696716308594e-08
      ],
      "type": "VEC2"
    },
    {
      "bufferView": 0,
      "byteOffset": 17928,
      "componentType": 5125,
      "count": 2832,
      "type": "SCALAR"
    },
    {
      "bufferView": 2,
      "byteOffset": 64272,
      "componentType": 5126,
      "count": 447,
      "max": [
        4.201568126678467,
        5.179766654968262,
        2.7535934448242188
      ],
      "min": [
        1.4730737209320068,
        3.348825693130493,
        1.6284765005111694
      ],
      "type": "VEC3"
    },
    {
      "bufferView": 2,
      "byteOffset": 69636,
      "componentType": 5126,
      "count": 447,
      "max": [
        0.9414640665054321,
        0.9960364103317261,
        0.9990078210830688
      ],
      "min": [
        -0.9338381290435791,
        -0.9969377517700195,
        -0.9978358745574951
      ],
      "type": "VEC3"
    },
    {
      "bufferView": 1,
      "byteOffset": 21424,
      "componentType": 5126,
      "count": 447,
      "max": [
        0.875,
        1.0
      ],
      "min": [
        0.125,
        0.0
      ],
      "type": "VEC2"
    },
    {
      "bufferView": 0,
      "byteOffset": 29256,
      "componentType": 5125,
      "count": 996,
      "type": "SCALAR"
    },
    {
      "bufferView": 2,
      "byteOffset": 75000,
      "componentType": 5126,
      "count": 4,
      "max": [
        3.613461494445801,
        5.0306501388549805,
        2.6674423217773438
      ],
      "min": [
        2.8296008110046387,
        4.502834320068359,
        1.8059293031692505
      ],
      "type": "VEC3"
    },
    {
      "bufferView": 2,
      "byteOffset": 75048,
      "componentType": 5126,
      "count": 4,
      "max": [
        0.55715012550354,
        0.826580822467804,
        0.07968021929264069
      ],
      "min": [
        0.557149350643158,
        0.8265802264213562,
        0.0796789601445198
      ],
      "type": "VEC3"
    },
    {
      "bufferView": 1,
      "byteOffset": 25000,
      "componentType": 5126,
      "count": 4,
      "max": [
        0.5416666269302368,
        0.5
      ],
      "min": [
        0.4583333134651184,
        0.25
      ],
      "type": "VEC2"
    },
    {
      "bufferView": 0,
      "byteOffset": 33240,
      "componentType": 5125,
      "count": 6,
      "type": "SCALAR"
    },
    {
      "bufferView": 2,
      "byteOffset": 75096,
      "componentType": 5126,
      "count": 126,
      "max": [
        3.2789041996002197,
        4.647780895233154,
        3.1657187938690186
      ],
      "min": [
        2.73042631149292,
        4.127605438232422,
        2.6132726669311523
      ],
      "type": "VEC3"
    },
    {
      "bufferView": 2,
      "byteOffset": 76608,
      "componentType": 5126,
      "count": 126,
      "max": [
        0.994149386882782,
        0.998930037021637,
        0.9930856823921204
      ],
      "min": [
        -0.9941491484642029,
        -0.9989302158355713,
        -0.9930854439735413
      ],
      "type": "VEC3"
    },
    {
      "bufferView": 1,
      "byteOffset": 25032,
      "componentType": 5126,
      "count": 126,
      "max": [
        0.65625,
        1.0
      ],
      "min": [
        0.3437499701976776,
        -7.450580596923828e-08
      ],
      "type": "VEC2"
    },
    {
      "bufferView": 0,
      "byteOffset": 33264,
      "componentType": 5125,
      "count": 480,
      "type": "SCALAR"
    },
    {
      "bufferView": 2,
      "byteOffset": 78120,
      "componentType": 5126,
      "count": 958,
      "max": [
        3.168203115463257,
        4.567487716674805,
        3.5753650665283203
      ],
      "min": [
        2.7421936988830566,
        4.165490627288818,
        3.1141908168792725
      ],
      "type": "VEC3"
    },
    {
      "bufferView": 2,
      "byteOffset": 89616,
      "componentType": 5126,
      "count": 958,
      "max": [
        0.99564528465271,
        0.9985865950584412,
        0.9999102354049683
      ],
      "min": [
        -0.995662271976471,
        -0.998786211013794,
        -0.9999237656593323
      ],
      "type": "VEC3"
    },
    {
      "bufferView": 1,
      "byteOffset": 26040,
      "componentType": 5126,
      "count": 958,
      "max": [
        0.65625,
        1.0
      ],
      "min": [
        0.3437499403953552,
        -8.940696716308594e-08
      ],
      "type": "VEC2"
    },
    {
      "bufferView": 0,
      "byteOffset": 35184,
      "componentType": 5125,
      "count": 2832,
      "type": "SCALAR"
    },
    {
      "bufferView": 2,
      "byteOffset": 101112,
      "componentType": 5126,
      "count": 286,
      "max": [
        3.175715208053589,
        4.6022539138793945,
        3.658247232437134
      ],
      "min": [
        2.680933713912964,
        4.107685565948486,
        3.5259740352630615
      ],
      "type": "VEC3"
    },
    {
      "bufferView": 2,
      "byteOffset": 104544,
      "componentType": 5126,
      "count": 286,
      "max": [
        0.989624559879303,
        0.993880033493042,
        0.9930856823921204
      ],
      "min": [
        -0.9896253347396851,
        -0.9938797950744629,
        -0.9930856227874756
      ],
      "type": "VEC3"
    },
    {
      "bufferView": 1,
      "byteOffset": 33704,
      "componentType": 5126,
      "count": 286,
      "max": [
        0.6447744965553284,
        0.9880656003952026
      ],
      "min": [
        0.3552253544330597,
        0.011016023345291615
      ],
      "type": "VEC2"
    },
    {
      "bufferView": 0,
      "byteOffset": 46512,
      "componentType": 5125,
      "count": 720,
      "type": "SCALAR"
    },
    {
      "bufferView": 2,
      "byteOffset": 107976,
      "componentType": 5126,
      "count": 84,
      "max": [
        3.0435001850128174,
        4.473150253295898,
        8.220361709594727
      ],
      "min": [
        2.307551860809326,
        4.0200629234313965,
        3.617237091064453
      ],
      "type": "VEC3"
    },
    {
      "bufferView": 2,
      "byteOffset": 108984,
      "componentType": 5126,
      "count": 84,
      "max": [
        0.9941491484642029,
        0.9989299178123474,
        0.9930872917175293
      ],
      "min": [
        -0.9941492080688477,
        -0.9989297986030579,
        -0.9930869936943054
      ],
      "type": "VEC3"
    },
    {
      "bufferView": 1,
      "byteOffset": 35992,
      "componentType": 5126,
      "count": 84,
      "max": [
        0.65625,
        1.0
      ],
      "min": [
        0.3437499701976776,
        -7.450580596923828e-08
      ],
      "type": "VEC2"
    },
    {
      "bufferView": 0,
      "byteOffset": 49392,
      "componentType": 5125,
      "count": 240,
      "type": "SCALAR"
    },
    {
      "bufferView": 2,
      "byteOffset": 109992,
      "componentType": 5126,
      "count": 178,
      "max": [
        2.617697238922119,
        4.337001800537109,
        9.02034854888916
      ],
      "min": [
        2.1506121158599854,
        3.906412124633789,
        8.186858177185059
      ],
      "type": "VEC3"
    },
    {
      "bufferView": 2,
      "byteOffset": 112128,
      "componentType": 5126,
      "count": 178,
      "max": [
        0.9979140162467957,
        0.9999967217445374,
        0.9990994930267334
      ],
      "min": [
        -0.996012806892395,
        -0.9996259808540344,
        -0.9930877089500427
      ],
      "type": "VEC3"
    },
    {
      "bufferView": 1,
      "byteOffset": 36664,
      "componentType": 5126,
      "count": 178,
      "max": [
        0.65625,
        1.0
      ],
      "min": [
        0.3437499701976776,
        -7.450580596923828e-08
      ],
      "type": "VEC2"
    },
    {
      "bufferView": 0,
      "byteOffset": 50352,
      "componentType": 5125,
      "count": 720,
      "type": "SCALAR"
    },
    {
      "bufferView": 2,
      "byteOffset": 114264,
      "componentType": 5126,
      "count": 150,
      "max": [
        2.4942493438720703,
        4.278409957885742,
        9.759459495544434
      ],
      "min": [
        2.1093482971191406,
        3.8927688598632813,
        8.992634773254395
      ],
      "type": "VEC3"
    },
    {
      "bufferView": 2,
      "byteOffset": 116064,
      "componentType": 5126,
      "count": 150,
      "max": [
        0.9992149472236633,
        0.9916660189628601,
        0.9931005239486694
      ],
      "min": [
        -0.9941495060920715,
        -0.9916704297065735,
        -0.9930886030197144
      ],
      "type": "VEC3"
    },
    {
      "bufferView": 1,
      "byteOffset": 38088,
      "componentType": 5126,
      "count": 150,
      "max": [
        0.65625,
        0.998860776424408
      ],
      "min": [
        0.3482903242111206,
        0.001139223575592041
      ],
      "type": "VEC2"
    },
    {
      "bufferView": 0,
      "byteOffset": 53232,
      "componentType": 5125,
      "count": 546,
      "type": "SCALAR"
    },
    {
      "bufferView": 2,
      "byteOffset": 117864,
      "componentType": 5126,
      "count": 158,
      "max": [
        0.41078808903694153,
        5.189394950866699,
        -3.3226780891418457
      ],
      "min": [
        -0.031802207231521606,
        5.085001468658447,
        -3.7652692794799805
      ],
      "type": "VEC3"
    },
    {
      "bufferView": 2,
      "byteOffset": 119760,
      "componentType": 5126,
      "count": 158,
      "max": [
        1.0,
        1.0,
        1.0
      ],
      "min": [
        -1.0,
        -1.0,
        -1.0
      ],
      "type": "VEC3"
    },
    {
      "bufferView": 1,
      "byteOffset": 39288,
      "componentType": 5126,
      "count": 158,
      "max": [
        0.875,
        1.0
      ],
      "min": [
        0.125,
        0.0
      ],
      "type": "VEC2"
    },
    {
      "bufferView": 0,
      "byteOffset": 55416,
      "componentType": 5125,
      "count": 360,
      "type": "SCALAR"
    },
    {
      "bufferView": 2,
      "byteOffset": 121656,
      "componentType": 5126,
      "count": 44,
      "max": [
        1.630897045135498,
        4.748178482055664,
        -3.4486937522888184
      ],
      "min": [
        1.5289254188537598,
        3.4285664558410645,
        -4.657201290130615
      ],
      "type": "VEC3"
    },
    {
      "bufferView": 2,
      "byteOffset": 122184,
      "componentType": 5126,
      "count": 44,
      "max": [
        1.0,
        1.0,
        1.0
      ],
      "min": [
        -1.0,
        -1.0,
        -1.0
      ],
      "type": "VEC3"
    },
    {
      "bufferView": 1,
      "byteOffset": 40552,
      "componentType": 5126,
      "count": 44,
      "max": [
        0.875,
        0.75
      ],
      "min": [
        0.125,
        0.0
      ],
      "type": "VEC2"
    },
    {
      "bufferView": 0,
      "byteOffset": 56856,
      "componentType": 5125,
      "count": 78,
      "type": "SCALAR"
    },
    {
      "bufferView": 2,
      "byteOffset": 122712,
      "componentType": 5126,
      "count": 44,
      "max": [
        1.3220112323760986,
        4.952622413635254,
        -3.4486937522888184
      ],
      "min": [
        1.2200396060943604,
        3.3348474502563477,
        -4.657201290130615
      ],
      "type": "VEC3"
    },
    {
      "bufferView": 2,
      "byteOffset": 123240,
      "componentType": 5126,
      "count": 44,
      "max": [
        1.0,
        1.0,
        1.0
      ],
      "min": [
        -1.0,
        -1.0,
        -1.0
      ],
      "type": "VEC3"
    },
    {
      "bufferView": 1,
      "byteOffset": 40904,
      "componentType": 5126,
      "count": 44,
      "max": [
        0.875,
        0.75
      ],
      "min": [
        0.125,
        0.0
      ],
      "type": "VEC2"
    },
    {
      "bufferView": 0,
      "byteOffset": 57168,
      "componentType": 5125,
      "count": 78,
      "type": "SCALAR"
    },
    {
      "bufferView": 2,
      "byteOffset": 123768,
      "componentType": 5126,
      "count": 44,
      "max": [
        1.0075907707214355,
        4.952622413635254,
        -3.4486937522888184
      ],
      "min": [
        0.9056192636489868,
        3.3348474502563477,
        -4.657201290130615
      ],
      "type": "VEC3"
    },
    {
      "bufferView": 2,
      "byteOffset": 124296,
      "componentType": 5126,
      "count": 44,
      "max": [
        1.0,
        1.0,
        1.0
      ],
      "min": [
        -1.0,
        -1.0,
        -1.0
      ],
      "type": "VEC3"
    },
    {
      "bufferView": 1,
      "byteOffset": 41256,
      "componentType": 5126,
      "count": 44,
      "max": [
        0.875,
        0.75
      ],
      "min": [
        0.125,
        0.0
      ],
      "type": "VEC2"
    },
    {
      "bufferView": 0,
      "byteOffset": 57480,
      "componentType": 5125,
      "count": 78,
      "type": "SCALAR"
    },
    {
      "bufferView": 2,
      "byteOffset": 124824,
      "componentType": 5126,
      "count": 44,
      "max": [
        0.6870265603065491,
        4.952622413635254,
        -3.4486937522888184
      ],
      "min": [
        0.5850551128387451,
        3.3348474502563477,
        -4.657201290130615
      ],
      "type": "VEC3"
    },
    {
      "bufferView": 2,
      "byteOffset": 125352,
      "componentType": 5126,
      "count": 44,
      "max": [
        1.0,
        1.0,
        1.0
      ],
      "min": [
        -1.0,
        -1.0,
        -1.0
      ],
      "type": "VEC3"
    },
    {
      "bufferView": 1,
      "byteOffset": 41608,
      "componentType": 5126,
      "count": 44,
      "max": [
        0.875,
        0.75
      ],
      "min": [
        0.125,
        0.0
      ],
      "type": "VEC2"
    },
    {
      "bufferView": 0,
      "byteOffset": 57792,
      "componentType": 5125,
      "count": 78,
      "type": "SCALAR"
    },
    {
      "bufferView": 2,
      "byteOffset": 125880,
      "componentType": 5126,
      "count": 44,
      "max": [
        0.38606947660446167,
        4.952622413635254,
        -3.4486937522888184
      ],
      "min": [
        0.28409796953201294,
        3.3348474502563477,
        -4.657201290130615
      ],
      "type": "VEC3"
    },
    {
      "bufferView": 2,
      "byteOffset": 126408,
      "componentType": 5126,
      "count": 44,
      "max": [
        1.0,
        1.0,
        1.0
      ],
      "min": [
        -1.0,
        -1.0,
        -1.0
      ],
      "type": "VEC3"
    },
    {
      "bufferView": 1,
      "byteOffset": 41960,
      "componentType": 5126,
      "count": 44,
      "max": [
        0.875,
        0.75
      ],
      "min": [
        0.125,
        0.0
      ],
      "type": "VEC2"
    },
    {
      "bufferView": 0,
      "byteOffset": 58104,
      "componentType": 5125,
      "count": 78,
      "type": "SCALAR"
    },
    {
      "bufferView": 2,
      "byteOffset": 126936,
      "componentType": 5126,
      "count": 49,
      "max": [
        1.9955220222473145,
        4.481132984161377,
        -3.4636855125427246
      ],
      "min": [
        1.8759186267852783,
        3.6412782669067383,
        -4.6721930503845215
      ],
      "type": "VEC3"
    },
    {
      "bufferView": 2,
      "byteOffset": 127524,
      "componentType": 5126,
      "count": 49,
      "max": [
        0.9999457001686096,
        1.0,
        0.9982452988624573
      ],
      "min": [
        -0.9996991157531738,
        -1.0,
        -1.0
      ],
      "type": "VEC3"
    },
    {
      "bufferView": 1,
      "byteOffset": 42312,
      "componentType": 5126,
      "count": 49,
      "max": [
        0.875,
        0.75
      ],
      "min": [
        0.125,
        0.0
      ],
      "type": "VEC2"
    },
    {
      "bufferView": 0,
      "byteOffset": 58416,
      "componentType": 5125,
      "count": 99,
      "type": "SCALAR"
    },
    {
      "bufferView": 2,
      "byteOffset": 128112,
      "componentType": 5126,
      "count": 49,
      "max": [
        2.2984163761138916,
        4.388275623321533,
        -3.4636855125427246
      ],
      "min": [
        2.1788129806518555,
        3.795076847076416,
        -4.6721930503845215
      ],
      "type": "VEC3"
    },
    {
      "bufferView": 2,
      "byteOffset": 128700,
      "componentType": 5126,
      "count": 49,
      "max": [
        0.9999138116836548,
        1.0,
        0.9942589402198792
      ],
      "min": [
        -0.9993324279785156,
        -1.0,
        -1.0
      ],
      "type": "VEC3"
    },
    {
      "bufferView": 1,
      "byteOffset": 42704,
      "componentType": 5126,
      "count": 49,
      "max": [
        0.875,
        0.75
      ],
      "min": [
        0.125,
        0.0
      ],
      "type": "VEC2"
    },
    {
      "bufferView": 0,
      "byteOffset": 58812,
      "componentType": 5125,
      "count": 99,
      "type": "SCALAR"
    },
    {
      "bufferView": 2,
      "byteOffset": 129288,
      "componentType": 5126,
      "count": 819,
      "max": [
        4.048664093017578,
        5.053128719329834,
        -3.8876562118530273
      ],
      "min": [
        3.146930694580078,
        4.148563385009766,
        -4.799797058105469
      ],
      "type": "VEC3"
    },
    {
      "bufferView": 2,
      "byteOffset": 139116,
      "componentType": 5126,
      "count": 819,
      "max": [
        0.9998260736465454,
        0.99994957447052,
        0.9998711347579956
      ],
      "min": [
        -0.9983612298965454,
        -0.9999498128890991,
        -0.9998714327812195
      ],
      "type": "VEC3"
    },
    {
      "bufferView": 1,
      "byteOffset": 43096,
      "componentType": 5126,
      "count": 819,
      "max": [
        0.65625,
        1.0
      ],
      "min": [
        0.3437499701976776,
        -7.450580596923828e-08
      ],
      "type": "VEC2"
    },
    {
      "bufferView": 0,
      "byteOffset": 59208,
      "componentType": 5125,
      "count": 2514,
      "type": "SCALAR"
    },
    {
      "bufferView": 2,
      "byteOffset": 148944,
      "componentType": 5126,
      "count": 38,
      "max": [
        4.62191104888916,
        5.754032611846924,
        -1.795318841934204
      ],
      "min": [
        3.3177270889282227,
        4.698450565338135,
        -2.9912028312683105
      ],
      "type": "VEC3"
    },
    {
      "bufferView": 2,
      "byteOffset": 149400,
      "componentType": 5126,
      "count": 38,
      "max": [
        0.8728904128074646,
        0.8641191720962524,
        0.9161403775215149
      ],
      "min": [
        -0.8728883862495422,
        -0.7996858954429626,
        -0.9161394834518433
      ],
      "type": "VEC3"
    },
    {
      "bufferView": 1,
      "byteOffset": 49648,
      "componentType": 5126,
      "count": 38,
      "max": [
        0.875,
        1.0
      ],
      "min": [
        0.125,
        0.0
      ],
      "type": "VEC2"
    },
    {
      "bufferView": 0,
      "byteOffset": 69264,
      "componentType": 5125,
      "count": 60,
      "type": "SCALAR"
    },
    {
      "bufferView": 2,
      "byteOffset": 149856,
      "componentType": 5126,
      "count": 164,
      "max": [
        0.24567610025405884,
        5.48674201965332,
        -3.462679862976074
      ],
      "min": [
        0.1333097219467163,
        5.189394474029541,
        -3.5750460624694824
      ],
      "type": "VEC3"
    },
    {
      "bufferView": 2,
      "byteOffset": 151824,
      "componentType": 5126,
      "count": 164,
      "max": [
        1.0,
        1.0,
        1.0
      ],
      "min": [
        -1.0,
        -1.0,
        -1.0
      ],
      "type": "VEC3"
    },
    {
      "bufferView": 1,
      "byteOffset": 49952,
      "componentType": 5126,
      "count": 164,
      "max": [
        0.65625,
        1.0
      ],
      "min": [
        0.3437499701976776,
        -7.450580596923828e-08
      ],
      "type": "VEC2"
    },
    {
      "bufferView": 0,
      "byteOffset": 69504,
      "componentType": 5125,
      "count": 480,
      "type": "SCALAR"
    },
    {
      "bufferView": 2,
      "byteOffset": 153792,
      "componentType": 5126,
      "count": 425,
      "max": [
        0.24854198098182678,
        5.665651321411133,
        -3.395565986633301
      ],
      "min": [
        0.0955442488193512,
        5.45404577255249,
        -3.7637710571289063
      ],
      "type": "VEC3"
    },
    {
      "bufferView": 2,
      "byteOffset": 158892,
      "componentType": 5126,
      "count": 425,
      "max": [
        1.0,
        1.0,
        1.0
      ],
      "min": [
        -1.0,
        -1.0,
        -1.0
      ],
      "type": "VEC3"
    },
    {
      "bufferView": 1,
      "byteOffset": 51264,
      "componentType": 5126,
      "count": 425,
      "max": [
        0.875,
        1.0
      ],
      "min": [
        0.125,
        -1.862645149230957e-09
      ],
      "type": "VEC2"
    },
    {
      "bufferView": 0,
      "byteOffset": 71424,
      "componentType": 5125,
      "count": 1014,
      "type": "SCALAR"
    },
    {
      "bufferView": 2,
      "byteOffset": 163992,
      "componentType": 5126,
      "count": 267,
      "max": [
        0.21830753982067108,
        5.6081438064575195,
        -3.763770341873169
      ],
      "min": [
        0.16063444316387177,
        5.481316089630127,
        -4.331006050109863
      ],
      "type": "VEC3"
    },
    {
      "bufferView": 2,
      "byteOffset": 167196,
      "componentType": 5126,
      "count": 267,
      "max": [
        0.9927791953086853,
        0.9894149303436279,
        1.0
      ],
      "min": [
        -0.9922353625297546,
        -1.0,
        -1.0
      ],
      "type": "VEC3"
    },
    {
      "bufferView": 1,
      "byteOffset": 54664,
      "componentType": 5126,
      "count": 267,
      "max": [
        0.875,
        1.0
      ],
      "min": [
        -0.0,
        0.0
      ],
      "type": "VEC2"
    },
    {
      "bufferView": 0,
      "byteOffset": 75480,
      "componentType": 5125,
      "count": 696,
      "type": "SCALAR"
    },
    {
      "bufferView": 2,
      "byteOffset": 170400,
      "componentType": 5126,
      "count": 126,
      "max": [
        -2.3875532150268555,
        4.647780895233154,
        3.1657187938690186
      ],
      "min": [
        -2.9360311031341553,
        4.127605438232422,
        2.6132726669311523
      ],
      "type": "VEC3"
    },
    {
      "bufferView": 2,
      "byteOffset": 171912,
      "componentType": 5126,
      "count": 126,
      "max": [
        0.9941492676734924,
        0.9989301562309265,
        0.9930857419967651
      ],
      "min": [
        -0.9941492676734924,
        -0.9989301562309265,
        -0.9930852651596069
      ],
      "type": "VEC3"
    },
    {
      "bufferView": 1,
      "byteOffset": 56800,
      "componentType": 5126,
      "count": 126,
      "max": [
        0.65625,
        1.0
      ],
      "min": [
        0.3437499701976776,
        -7.450580596923828e-08
      ],
      "type": "VEC2"
    },
    {
      "bufferView": 0,
      "byteOffset": 78264,
      "componentType": 5125,
      "count": 480,
      "type": "SCALAR"
    },
    {
      "bufferView": 2,
      "byteOffset": 173424,
      "componentType": 5126,
      "count": 447,
      "max": [
        -1.1302006244659424,
        5.179766654968262,
        2.7535934448242188
      ],
      "min": [
        -3.8586950302124023,
        3.348825693130493,
        1.6284765005111694
      ],
      "type": "VEC3"
    },
    {
      "bufferView": 2,
      "byteOffset": 178788,
      "componentType": 5126,
      "count": 447,
      "max": [
        0.9338381290435791,
        0.9960364103317261,
        0.9990078210830688
      ],
      "min": [
        -0.9414640665054321,
        -0.9969377517700195,
        -0.9978358745574951
      ],
      "type": "VEC3"
    },
    {
      "bufferView": 1,
      "byteOffset": 57808,
      "componentType": 5126,
      "count": 447,
      "max": [
        0.875,
        1.0
      ],
      "min": [
        0.125,
        0.0
      ],
      "type": "VEC2"
    },
    {
      "bufferView": 0,
      "byteOffset": 80184,
      "componentType": 5125,
      "count": 996,
      "type": "SCALAR"
    },
    {
      "bufferView": 2,
      "byteOffset": 184152,
      "componentType": 5126,
      "count": 4,
      "max": [
        -2.486727714538574,
        5.0306501388549805,
        2.6674423217773438
      ],
      "min": [
        -3.2705883979797363,
        4.502834320068359,
        1.8059293031692505
      ],
      "type": "VEC3"
    },
    {
      "bufferView": 2,
      "byteOffset": 184200,
      "componentType": 5126,
      "count": 4,
      "max": [
        -0.557149350643158,
        0.8265807032585144,
        0.07968032360076904
      ],
      "min": [
        -0.5571500062942505,
        0.8265803456306458,
        0.07967950403690338
      ],
      "type": "VEC3"
    },
    {
      "bufferView": 1,
      "byteOffset": 61384,
      "componentType": 5126,
      "count": 4,
      "max": [
        0.5416666269302368,
        0.5
      ],
      "min": [
        0.4583333134651184,
        0.25
      ],
      "type": "VEC2"
    },
    {
      "bufferView": 0,
      "byteOffset": 84168,
      "componentType": 5125,
      "count": 6,
      "type": "SCALAR"
    },
    {
      "bufferView": 2,
      "byteOffset": 184248,
      "componentType": 5126,
      "count": 150,
      "max": [
        -1.7664752006530762,
        4.278409957885742,
        9.759459495544434
      ],
      "min": [
        -2.151376247406006,
        3.8927688598632813,
        8.992634773254395
      ],
      "type": "VEC3"
    },
    {
      "bufferView": 2,
      "byteOffset": 186048,
      "componentType": 5126,
      "count": 150,
      "max": [
        0.9941495060920715,
        0.9916659593582153,
        0.9931027293205261
      ],
      "min": [
        -0.9992150068283081,
        -0.991670548915863,
        -0.9930877089500427
      ],
      "type": "VEC3"
    },
    {
      "bufferView": 1,
      "byteOffset": 61416,
      "componentType": 5126,
      "count": 150,
      "max": [
        0.65625,
        0.998860776424408
      ],
      "min": [
        0.3482903242111206,
        0.001139223575592041
      ],
      "type": "VEC2"
    },
    {
      "bufferView": 0,
      "byteOffset": 84192,
      "componentType": 5125,
      "count": 546,
      "type": "SCALAR"
    },
    {
      "bufferView": 2,
      "byteOffset": 187848,
      "componentType": 5126,
      "count": 178,
      "max": [
        -1.807739019393921,
        4.337001800537109,
        9.02034854888916
      ],
      "min": [
        -2.2748241424560547,
        3.906412124633789,
        8.186858177185059
      ],
      "type": "VEC3"
    },
    {
      "bufferView": 2,
      "byteOffset": 189984,
      "componentType": 5126,
      "count": 178,
      "max": [
        0.996012806892395,
        0.9999967217445374,
        0.9990993738174438
      ],
      "min": [
        -0.9979138970375061,
        -0.9996259212493896,
        -0.9930875897407532
      ],
      "type": "VEC3"
    },
    {
      "bufferView": 1,
      "byteOffset": 62616,
      "componentType": 5126,
      "count": 178,
      "max": [
        0.65625,
        1.0
      ],
      "min": [
        0.3437499701976776,
        -7.450580596923828e-08
      ],
      "type": "VEC2"
    },
    {
      "bufferView": 0,
      "byteOffset": 86376,
      "componentType": 5125,
      "count": 720,
      "type": "SCALAR"
    },
    {
      "bufferView": 2,
      "byteOffset": 192120,
      "componentType": 5126,
      "count": 84,
      "max": [
        -1.9646787643432617,
        4.473150253295898,
        8.220361709594727
      ],
      "min": [
        -2.700627088546753,
        4.0200629234313965,
        3.617237091064453
      ],
      "type": "VEC3"
    },
    {
      "bufferView": 2,
      "byteOffset": 193128,
      "componentType": 5126,
      "count": 84,
      "max": [
        0.9941492080688477,
        0.9989299178123474,
        0.9930880069732666
      ],
      "min": [
        -0.9941490888595581,
        -0.9989297986030579,
        -0.9930864572525024
      ],
      "type": "VEC3"
    },
    {
      "bufferView": 1,
      "byteOffset": 64040,
      "componentType": 5126,
      "count": 84,
      "max": [
        0.65625,
        1.0
      ],
      "min": [
        0.3437499701976776,
        -7.450580596923828e-08
      ],
      "type": "VEC2"
    },
    {
      "bufferView": 0,
      "byteOffset": 89256,
      "componentType": 5125,
      "count": 240,
      "type": "SCALAR"
    },
    {
      "bufferView": 2,
      "byteOffset": 194136,
      "componentType": 5126,
      "count": 792,
      "max": [
        -1.3289259672164917,
        5.3459649085998535,
        -1.7032865285873413
      ],
      "min": [
        -4.696862697601318,
        3.2400569915771484,
        -3.931696653366089
      ],
      "type": "VEC3"
    },
    {
      "bufferView": 2,
      "byteOffset": 203640,
      "componentType": 5126,
      "count": 792,
      "max": [
        0.9978476762771606,
        0.9999995827674866,
        1.0
      ],
      "min": [
        -0.9123323559761047,
        -0.9980546832084656,
        -1.0
      ],
      "type": "VEC3"
    },
    {
      "bufferView": 1,
      "byteOffset": 64712,
      "componentType": 5126,
      "count": 792,
      "max": [
        0.875,
        1.0
      ],
      "min": [
        0.125,
        0.0
      ],
      "type": "VEC2"
    },
    {
      "bufferView": 0,
      "byteOffset": 90216,
      "componentType": 5125,
      "count": 1914,
      "type": "SCALAR"
    },
    {
      "bufferView": 2,
      "byteOffset": 213144,
      "componentType": 5126,
      "count": 32,
      "max": [
        -1.3289259672164917,
        5.327969551086426,
        -1.7033075094223022
      ],
      "min": [
        -4.696862697601318,
        3.275641679763794,
        -3.931696653366089
      ],
      "type": "VEC3"
    },
    {
      "bufferView": 2,
      "byteOffset": 213528,
      "componentType": 5126,
      "count": 32,
      "max": [
        0.48673325777053833,
        0.997917652130127,
        0.724932849407196
      ],
      "min": [
        -0.9117318391799927,
        -0.8743634819984436,
        -0.7249272465705872
      ],
      "type": "VEC3"
    },
    {
      "bufferView": 1,
      "byteOffset": 71048,
      "componentType": 5126,
      "count": 32,
      "max": [
        0.625,
        1.0
      ],
      "min": [
        0.375,
        0.25
      ],
      "type": "VEC2"
    },
    {
      "bufferView": 0,
      "byteOffset": 97872,
      "componentType": 5125,
      "count": 54,
      "type": "SCALAR"
    },
    {
      "bufferView": 2,
      "byteOffset": 213912,
      "componentType": 5126,
      "count": 44,
      "max": [
        -1.1860523223876953,
        4.748178482055664,
        -3.4486937522888184
      ],
      "min": [
        -1.2880239486694336,
        3.4285664558410645,
        -4.657201290130615
      ],
      "type": "VEC3"
    },
    {
      "bufferView": 2,
      "byteOffset": 214440,
      "componentType": 5126,
      "count": 44,
      "max": [
        1.0,
        1.0,
        1.0
      ],
      "min": [
        -1.0,
        -1.0,
        -1.0
      ],
      "type": "VEC3"
    },
    {
      "bufferView": 1,
      "byteOffset": 71304,
      "componentType": 5126,
      "count": 44,
      "max": [
        0.875,
        0.75
      ],
      "min": [
        0.125,
        0.0
      ],
      "type": "VEC2"
    },
    {
      "bufferView": 0,
      "byteOffset": 98088,
      "componentType": 5125,
      "count": 78,
      "type": "SCALAR"
    },
    {
      "bufferView": 2,
      "byteOffset": 214968,
      "componentType": 5126,
      "count": 38,
      "max": [
        -2.974853992462158,
        5.754032611846924,
        -1.795318841934204
      ],
      "min": [
        -4.279038429260254,
        4.698450565338135,
        -2.9912028312683105
      ],
      "type": "VEC3"
    },
    {
      "bufferView": 2,
      "byteOffset": 215424,
      "componentType": 5126,
      "count": 38,
      "max": [
        0.8728904128074646,
        0.8641180396080017,
        0.916139543056488
      ],
      "min": [
        -0.8728936910629272,
        -0.7996859550476074,
        -0.9161393642425537
      ],
      "type": "VEC3"
    },
    {
      "bufferView": 1,
      "byteOffset": 71656,
      "componentType": 5126,
      "count": 38,
      "max": [
        0.875,
        1.0
      ],
      "min": [
        0.125,
        0.0
      ],
      "type": "VEC2"
    },
    {
      "bufferView": 0,
      "byteOffset": 98400,
      "componentType": 5125,
      "count": 60,
      "type": "SCALAR"
    },
    {
      "bufferView": 2,
      "byteOffset": 215880,
      "componentType": 5126,
      "count": 286,
      "max": [
        -2.3380606174468994,
        4.6022539138793945,
        3.658247232437134
      ],
      "min": [
        -2.8328421115875244,
        4.107685565948486,
        3.5259740352630615
      ],
      "type": "VEC3"
    },
    {
      "bufferView": 2,
      "byteOffset": 219312,
      "componentType": 5126,
      "count": 286,
      "max": [
        0.9896254539489746,
        0.993880033493042,
        0.9930856823921204
      ],
      "min": [
        -0.9896246194839478,
        -0.9938800930976868,
        -0.9930856823921204
      ],
      "type": "VEC3"
    },
    {
      "bufferView": 1,
      "byteOffset": 71960,
      "componentType": 5126,
      "count": 286,
      "max": [
        0.6447744965553284,
        0.9880656003952026
      ],
      "min": [
        0.3552253544330597,
        0.011016023345291615
      ],
      "type": "VEC2"
    },
    {
      "bufferView": 0,
      "byteOffset": 98640,
      "componentType": 5125,
      "count": 720,
      "type": "SCALAR"
    },
    {
      "bufferView": 2,
      "byteOffset": 222744,
      "componentType": 5126,
      "count": 958,
      "max": [
        -2.399320602416992,
        4.567487716674805,
        3.5753650665283203
      ],
      "min": [
        -2.8253300189971924,
        4.165490627288818,
        3.1141908168792725
      ],
      "type": "VEC3"
    },
    {
      "bufferView": 2,
      "byteOffset": 234240,
      "componentType": 5126,
      "count": 958,
      "max": [
        0.995662271976471,
        0.9985865950584412,
        0.9999102354049683
      ],
      "min": [
        -0.99564528465271,
        -0.998786211013794,
        -0.9999237656593323
      ],
      "type": "VEC3"
    },
    {
      "bufferView": 1,
      "byteOffset": 74248,
      "componentType": 5126,
      "count": 958,
      "max": [
        0.65625,
        1.0
      ],
      "min": [
        0.3437499403953552,
        -8.940696716308594e-08
      ],
      "type": "VEC2"
    },
    {
      "bufferView": 0,
      "byteOffset": 101520,
      "componentType": 5125,
      "count": 2832,
      "type": "SCALAR"
    },
    {
      "bufferView": 2,
      "byteOffset": 245736,
      "componentType": 5126,
      "count": 44,
      "max": [
        -0.5627461671829224,
        4.952622413635254,
        -3.4486937522888184
      ],
      "min": [
        -0.6647176742553711,
        3.3348474502563477,
        -4.657201290130615
      ],
      "type": "VEC3"
    },
    {
      "bufferView": 2,
      "byteOffset": 246264,
      "componentType": 5126,
      "count": 44,
      "max": [
        1.0,
        1.0,
        1.0
      ],
      "min": [
        -1.0,
        -1.0,
        -1.0
      ],
      "type": "VEC3"
    },
    {
      "bufferView": 1,
      "byteOffset": 81912,
      "componentType": 5126,
      "count": 44,
      "max": [
        0.875,
        0.75
      ],
      "min": [
        0.125,
        0.0
      ],
      "type": "VEC2"
    },
    {
      "bufferView": 0,
      "byteOffset": 112848,
      "componentType": 5125,
      "count": 78,
      "type": "SCALAR"
    },
    {
      "bufferView": 2,
      "byteOffset": 246792,
      "componentType": 5126,
      "count": 44,
      "max": [
        -0.8771665096282959,
        4.952622413635254,
        -3.4486937522888184
      ],
      "min": [
        -0.9791381359100342,
        3.3348474502563477,
        -4.657201290130615
      ],
      "type": "VEC3"
    },
    {
      "bufferView": 2,
      "byteOffset": 247320,
      "componentType": 5126,
      "count": 44,
      "max": [
        1.0,
        1.0,
        1.0
      ],
      "min": [
        -1.0,
        -1.0,
        -1.0
      ],
      "type": "VEC3"
    },
    {
      "bufferView": 1,
      "byteOffset": 82264,
      "componentType": 5126,
      "count": 44,
      "max": [
        0.875,
        0.75
      ],
      "min": [
        0.125,
        0.0
      ],
      "type": "VEC2"
    },
    {
      "bufferView": 0,
      "byteOffset": 113160,
      "componentType": 5125,
      "count": 78,
      "type": "SCALAR"
    },
    {
      "bufferView": 2,
      "byteOffset": 247848,
      "componentType": 5126,
      "count": 49,
      "max": [
        -1.5330455303192139,
        4.481132984161377,
        -3.4636855125427246
      ],
      "min": [
        -1.6526488065719604,
        3.6412782669067383,
        -4.6721930503845215
      ],
      "type": "VEC3"
    },
    {
      "bufferView": 2,
      "byteOffset": 248436,
      "componentType": 5126,
      "count": 49,
      "max": [
        0.9996991157531738,
        1.0,
        0.9982452988624573
      ],
      "min": [
        -0.9999457001686096,
        -1.0,
        -1.0
      ],
      "type": "VEC3"
    },
    {
      "bufferView": 1,
      "byteOffset": 82616,
      "componentType": 5126,
      "count": 49,
      "max": [
        0.875,
        0.75
      ],
      "min": [
        0.125,
        0.0
      ],
      "type": "VEC2"
    },
    {
      "bufferView": 0,
      "byteOffset": 113472,
      "componentType": 5125,
      "count": 99,
      "type": "SCALAR"
    },
    {
      "bufferView": 2,
      "byteOffset": 249024,
      "componentType": 5126,
      "count": 44,
      "max": [
        0.07754671573638916,
        4.952622413635254,
        -3.4486937522888184
      ],
      "min": [
        -0.024424850940704346,
        3.3348474502563477,
        -4.657201290130615
      ],
      "type": "VEC3"
    },
    {
      "bufferView": 2,
      "byteOffset": 249552,
      "componentType": 5126,
      "count": 44,
      "max": [
        1.0,
        1.0,
        1.0
      ],
      "min": [
        -1.0,
        -1.0,
        -1.0
      ],
      "type": "VEC3"
    },
    {
      "bufferView": 1,
      "byteOffset": 83008,
      "componentType": 5126,
      "count": 44,
      "max": [
        0.875,
        0.75
      ],
      "min": [
        0.125,
        0.0
      ],
      "type": "VEC2"
    },
    {
      "bufferView": 0,
      "byteOffset": 113868,
      "componentType": 5125,
      "count": 78,
      "type": "SCALAR"
    },
    {
      "bufferView": 2,
      "byteOffset": 250080,
      "componentType": 5126,
      "count": 44,
      "max": [
        -0.24218201637268066,
        4.952622413635254,
        -3.4486937522888184
      ],
      "min": [
        -0.3441534638404846,
        3.3348474502563477,
        -4.657201290130615
      ],
      "type": "VEC3"
    },
    {
      "bufferView": 2,
      "byteOffset": 250608,
      "componentType": 5126,
      "count": 44,
      "max": [
        1.0,
        1.0,
        1.0
      ],
      "min": [
        -1.0,
        -1.0,
        -1.0
      ],
      "type": "VEC3"
    },
    {
      "bufferView": 1,
      "byteOffset": 83360,
      "componentType": 5126,
      "count": 44,
      "max": [
        0.875,
        0.75
      ],
      "min": [
        0.125,
        0.0
      ],
      "type": "VEC2"
    },
    {
      "bufferView": 0,
      "byteOffset": 114180,
      "componentType": 5125,
      "count": 78,
      "type": "SCALAR"
    },
    {
      "bufferView": 2,
      "byteOffset": 251136,
      "componentType": 5126,
      "count": 819,
      "max": [
        -2.8040575981140137,
        5.053128719329834,
        -3.8876562118530273
      ],
      "min": [
        -3.7057912349700928,
        4.148563385009766,
        -4.799797058105469
      ],
      "type": "VEC3"
    },
    {
      "bufferView": 2,
      "byteOffset": 260964,
      "componentType": 5126,
      "count": 819,
      "max": [
        0.9983616471290588,
        0.9999495148658752,
        0.9998711943626404
      ],
      "min": [
        -0.9998260736465454,
        -0.9999499320983887,
        -0.9998713731765747
      ],
      "type": "VEC3"
    },
    {
      "bufferView": 1,
      "byteOffset": 83712,
      "componentType": 5126,
      "count": 819,
      "max": [
        0.65625,
        1.0
      ],
      "min": [
        0.3437499701976776,
        -7.450580596923828e-08
      ],
      "type": "VEC2"
    },
    {
      "bufferView": 0,
      "byteOffset": 114492,
      "componentType": 5125,
      "count": 2514,
      "type": "SCALAR"
    },
    {
      "bufferView": 2,
      "byteOffset": 270792,
      "componentType": 5126,
      "count": 49,
      "max": [
        -1.835939884185791,
        4.388275623321533,
        -3.4636855125427246
      ],
      "min": [
        -1.9555433988571167,
        3.795076847076416,
        -4.6721930503845215
      ],
      "type": "VEC3"
    },
    {
      "bufferView": 2,
      "byteOffset": 271380,
      "componentType": 5126,
      "count": 49,
      "max": [
        0.9993323683738708,
        1.0,
        0.9942589402198792
      ],
      "min": [
        -0.9999138116836548,
        -1.0,
        -1.0
      ],
      "type": "VEC3"
    },
    {
      "bufferView": 1,
      "byteOffset": 90264,
      "componentType": 5126,
      "count": 49,
      "max": [
        0.875,
        0.75
      ],
      "min": [
        0.125,
        0.0
      ],
      "type": "VEC2"
    },
    {
      "bufferView": 0,
      "byteOffset": 124548,
      "componentType": 5125,
      "count": 99,
      "type": "SCALAR"
    },
    {
      "bufferView": 2,
      "byteOffset": 271968,
      "componentType": 5126,
      "count": 383,
      "max": [
        -2.576854944229126,
        4.878148555755615,
        1.064733624458313
      ],
      "min": [
        -3.3515052795410156,
        4.182102203369141,
        -0.38634657859802246
      ],
      "type": "VEC3"
    },
    {
      "bufferView": 2,
      "byteOffset": 276564,
      "componentType": 5126,
      "count": 383,
      "max": [
        0.9999434947967529,
        0.9989303946495056,
        0.9930862188339233
      ],
      "min": [
        -0.9941497445106506,
        -0.9999932050704956,
        -0.9930859804153442
      ],
      "type": "VEC3"
    },
    {
      "bufferView": 1,
      "byteOffset": 90656,
      "componentType": 5126,
      "count": 383,
      "max": [
        0.65625,
        1.0
      ],
      "min": [
        0.3437499701976776,
        -7.450580596923828e-08
      ],
      "type": "VEC2"
    },
    {
      "bufferView": 0,
      "byteOffset": 124944,
      "componentType": 5125,
      "count": 1314,
      "type": "SCALAR"
    },
    {
      "bufferView": 2,
      "byteOffset": 281160,
      "componentType": 5126,
      "count": 974,
      "max": [
        -2.593651294708252,
        4.665015697479248,
        1.7867462635040283
      ],
      "min": [
        -3.0528550148010254,
        4.248790264129639,
        1.0200523138046265
      ],
      "type": "VEC3"
    },
    {
      "bufferView": 2,
      "byteOffset": 292848,
      "componentType": 5126,
      "count": 974,
      "max": [
        0.9972590804100037,
        0.9988694787025452,
        0.9978389739990234
      ],
      "min": [
        -0.9972614645957947,
        -0.9989280104637146,
        -0.9980377554893494
      ],
      "type": "VEC3"
    },
    {
      "bufferView": 1,
      "byteOffset": 93720,
      "componentType": 5126,
      "count": 974,
      "max": [
        0.65625,
        1.0
      ],
      "min": [
        0.3437499403953552,
        -8.940696716308594e-08
      ],
      "type": "VEC2"
    },
    {
      "bufferView": 0,
      "byteOffset": 130200,
      "componentType": 5125,
      "count": 2832,
      "type": "SCALAR"
    },
    {
      "bufferView": 2,
      "byteOffset": 304536,
      "componentType": 5126,
      "count": 356,
      "max": [
        -2.683070182800293,
        4.895970344543457,
        -0.3078579306602478
      ],
      "min": [
        -3.4035816192626953,
        4.2064971923828125,
        -0.9364786148071289
      ],
      "type": "VEC3"
    },
    {
      "bufferView": 2,
      "byteOffset": 308808,
      "componentType": 5126,
      "count": 356,
      "max": [
        0.9615723490715027,
        0.9989300966262817,
        0.993086040019989
      ],
      "min": [
        -0.9615723490715027,
        -0.9989302754402161,
        -0.993086040019989
      ],
      "type": "VEC3"
    },
    {
      "bufferView": 1,
      "byteOffset": 101512,
      "componentType": 5126,
      "count": 356,
      "max": [
        0.65625,
        1.0
      ],
      "min": [
        0.34375,
        0.0
      ],
      "type": "VEC2"
    },
    {
      "bufferView": 0,
      "byteOffset": 141528,
      "componentType": 5125,
      "count": 720,
      "type": "SCALAR"
    },
    {
      "bufferView": 2,
      "byteOffset": 313080,
      "componentType": 5126,
      "count": 145,
      "max": [
        -2.6632943153381348,
        5.0505242347717285,
        -0.8584346175193787
      ],
      "min": [
        -3.613743305206299,
        4.133553504943848,
        -1.8542406558990479
      ],
      "type": "VEC3"
    },
    {
      "bufferView": 2,
      "byteOffset": 314820,
      "componentType": 5126,
      "count": 145,
      "max": [
        0.999963641166687,
        0.9989299774169922,
        0.9930858612060547
      ],
      "min": [
        -0.9941496849060059,
        -0.9989299774169922,
        -0.9930859208106995
      ],
      "type": "VEC3"
    },
    {
      "bufferView": 1,
      "byteOffset": 104360,
      "componentType": 5126,
      "count": 145,
      "max": [
        0.65625,
        1.0
      ],
      "min": [
        0.3437499701976776,
        -7.450580596923828e-08
      ],
      "type": "VEC2"
    },
    {
      "bufferView": 0,
      "byteOffset": 144408,
      "componentType": 5125,
      "count": 480,
      "type": "SCALAR"
    },
    {
      "bufferView": 2,
      "byteOffset": 316560,
      "componentType": 5126,
      "count": 822,
      "max": [
        5.808895587921143,
        6.347869396209717,
        7.887450695037842
      ],
      "min": [
        -5.466022491455078,
        2.7319538593292236,
        -4.642001628875732
      ],
      "type": "VEC3"
    },
    {
      "bufferView": 2,
      "byteOffset": 326424,
      "componentType": 5126,
      "count": 822,
      "max": [
        1.0,
        1.0,
        1.0
      ],
      "min": [
        -1.0,
        -0.999954342842102,
        -1.0
      ],
      "type": "VEC3"
    },
    {
      "bufferView": 1,
      "byteOffset": 105520,
      "componentType": 5126,
      "count": 822,
      "max": [
        0.875,
        1.0
      ],
      "min": [
        0.47499001026153564,
        0.0
      ],
      "type": "VEC2"
    },
    {
      "bufferView": 0,
      "byteOffset": 146328,
      "componentType": 5125,
      "count": 2100,
      "type": "SCALAR"
    },
    {
      "bufferView": 2,
      "byteOffset": 336288,
      "componentType": 5126,
      "count": 23,
      "max": [
        1.24028742313385,
        5.144601821899414,
        6.737832069396973
      ],
      "min": [
        -0.8974143266677856,
        3.93603515625,
        -3.70001220703125
      ],
      "type": "VEC3"
    },
    {
      "bufferView": 2,
      "byteOffset": 336564,
      "componentType": 5126,
      "count": 23,
      "max": [
        0.01937955804169178,
        0.9994768500328064,
        0.5068962574005127
      ],
      "min": [
        -0.019379492849111557,
        -0.9997735023498535,
        -0.02616294100880623
      ],
      "type": "VEC3"
    },
    {
      "bufferView": 1,
      "byteOffset": 112096,
      "componentType": 5126,
      "count": 23,
      "max": [
        0.544202446937561,
        0.7491401433944702
      ],
      "min": [
        0.5195175409317017,
        0.0
      ],
      "type": "VEC2"
    },
    {
      "bufferView": 0,
      "byteOffset": 154728,
      "componentType": 5125,
      "count": 33,
      "type": "SCALAR"
    },
    {
      "bufferView": 2,
      "byteOffset": 336840,
      "componentType": 5126,
      "count": 50,
      "max": [
        1.4704067707061768,
        6.2045135498046875,
        4.540605545043945
      ],
      "min": [
        -1.1275336742401123,
        5.164083957672119,
        -1.6976051330566406
      ],
      "type": "VEC3"
    },
    {
      "bufferView": 2,
      "byteOffset": 337440,
      "componentType": 5126,
      "count": 50,
      "max": [
        0.8863577246665955,
        1.0,
        0.5868162512779236
      ],
      "min": [
        -0.8863577246665955,
        0.46136659383773804,
        -0.7189862132072449
      ],
      "type": "VEC3"
    },
    {
      "bufferView": 1,
      "byteOffset": 112280,
      "componentType": 5126,
      "count": 50,
      "max": [
        0.5408138632774353,
        0.709671676158905
      ],
      "min": [
        0.5253849029541016,
        0.5450538396835327
      ],
      "type": "VEC2"
    },
    {
      "bufferView": 0,
      "byteOffset": 154860,
      "componentType": 5125,
      "count": 84,
      "type": "SCALAR"
    },
    {
      "bufferView": 2,
      "byteOffset": 338040,
      "componentType": 5126,
      "count": 130,
      "max": [
        4.34446907043457,
        4.902491569519043,
        7.887450695037842
      ],
      "min": [
        -4.001595973968506,
        3.281581163406372,
        -3.9894165992736816
      ],
      "type": "VEC3"
    },
    {
      "bufferView": 2,
      "byteOffset": 339600,
      "componentType": 5126,
      "count": 130,
      "max": [
        0.3258039951324463,
        0.8996220231056213,
        0.8996188640594482
      ],
      "min": [
        -0.3270636796951294,
        -0.979473352432251,
        -0.8996188640594482
      ],
      "type": "VEC3"
    },
    {
      "bufferView": 1,
      "byteOffset": 112680,
      "componentType": 5126,
      "count": 130,
      "max": [
        0.7083333134651184,
        0.5450538396835327
      ],
      "min": [
        0.5408138632774353,
        0.0
      ],
      "type": "VEC2"
    },
    {
      "bufferView": 0,
      "byteOffset": 155196,
      "componentType": 5125,
      "count": 198,
      "type": "SCALAR"
    }
  ],
  "asset": {
    "extras": {
      "author": "Mannerberg (https://sketchfab.com/Mannerberg)",
      "license": "CC-BY-4.0 (http://creativecommons.org/licenses/by/4.0/)",
      "source": "https://sketchfab.com/3d-models/star-wars-snowspeeder-t-47-33d35352edeb4c5c8ae92daf44c6a87b",
      "title": "[Star wars] Snowspeeder T-47"
    },
    "generator": "Sketchfab-12.66.0",
    "version": "2.0"
  },
  "bufferViews": [
    {
      "buffer": 0,
      "byteLength": 155988,
      "name": "floatBufferViews",
      "target": 34963
    },
    {
      "buffer": 0,
      "byteLength": 113720,
      "byteOffset": 155988,
      "byteStride": 8,
      "name": "floatBufferViews",
      "target": 34962
    },
    {
      "buffer": 0,
      "byteLength": 341160,
      "byteOffset": 269708,
      "byteStride": 12,
      "name": "floatBufferViews",
      "target": 34962
    }
  ],
  "buffers": [
    {
      "byteLength": 610868,
      "uri": "scene.bin"
    }
  ],
  "materials": [
    {
      "doubleSided": true,
      "name": "white",
      "pbrMetallicRoughness": {
        "baseColorFactor": [
          0.5319200000000001,
          0.5319200000000001,
          0.5319200000000001,
          1.0
        ],
        "metallicFactor": 0.0,
        "roughnessFactor": 0.6
      }
    },
    {
      "doubleSided": true,
      "name": "orange",
      "pbrMetallicRoughness": {
        "baseColorFactor": [
          0.46424000000000004,
          0.17816,
          0.0,
          1.0
        ],
        "metallicFactor": 0.0,
        "roughnessFactor": 0.6
      }
    },
    {
      "doubleSided": true,
      "name": "metal",
      "pbrMetallicRoughness": {
        "baseColorFactor": [
          0.04136000000000001,
          0.04136000000000001,
          0.04136000000000001,
          1.0
        ],
        "metallicFactor": 0.0,
        "roughnessFactor": 0.6
      }
    },
    {
      "doubleSided": true,
      "name": "black",
      "pbrMetallicRoughness": {
        "baseColorFactor": [
          0.030320000000000003,
          0.030320000000000003,
          0.030320000000000003,
          1.0
        ],
        "metallicFactor": 0.0,
        "roughnessFactor": 0.6
      }
    },
    {
      "doubleSided": true,
      "name": "lambert1",
      "pbrMetallicRoughness": {
        "baseColorFactor": [
          0.3283135,
          0.3283135,
          0.3283135,
          1.0
        ],
        "metallicFactor": 0.0,
        "roughnessFactor": 0.6
      }
    },
    {
      "doubleSided": true,
      "name": "window",
      "pbrMetallicRoughness": {
        "baseColorFactor": [
          0.28592000000000006,
          0.2897600000000002,
          0.66728,
          1.0
        ],
        "metallicFactor": 0.0,
        "roughnessFactor": 0.6
      }
    }
  ],
  "meshes": [
    {
      "name": "pCube7_white_0",
      "primitives": [
        {
          "attributes": {
            "NORMAL": 1,
            "POSITION": 0,
            "TEXCOORD_0": 2
          },
          "indices": 3,
          "material": 0,
          "mode": 4
        }
      ]
    },
    {
      "name": "pCube7_orange_0",
      "primitives": [
        {
          "attributes": {
            "NORMAL": 5,
            "POSITION": 4,
            "TEXCOORD_0": 6
          },
          "indices": 7,
          "material": 1,
          "mode": 4
        }
      ]
    },
    {
      "name": "pCylinder1_white_0",
      "primitives": [
        {
          "attributes": {
            "NORMAL": 9,
            "POSITION": 8,
            "TEXCOORD_0": 10
          },
          "indices": 11,
          "material": 0,
          "mode": 4
        }
      ]
    },
    {
      "name": "pCylinder2_metal_0",
      "primitives": [
        {
          "attributes": {
            "NORMAL": 13,
            "POSITION": 12,
            "TEXCOORD_0": 14
          },
          "indices": 15,
          "material": 2,
          "mode": 4
        }
      ]
    },
    {
      "name": "pCylinder3_white_0",
      "primitives": [
        {
          "attributes": {
            "NORMAL": 17,
            "POSITION": 16,
            "TEXCOORD_0": 18
          },
          "indices": 19,
          "material": 0,
          "mode": 4
        }
      ]
    },
    {
      "name": "pCylinder4_metal_0",
      "primitives": [
        {
          "attributes": {
            "NORMAL": 21,
            "POSITION": 20,
            "TEXCOORD_0": 22
          },
          "indices": 23,
          "material": 2,
          "mode": 4
        }
      ]
    },
    {
      "name": "pCube9_white_0",
      "primitives": [
        {
          "attributes": {
            "NORMAL": 25,
            "POSITION": 24,
            "TEXCOORD_0": 26
          },
          "indices": 27,
          "material": 0,
          "mode": 4
        }
      ]
    },
    {
      "name": "pCube9_orange_0",
      "primitives": [
        {
          "attributes": {
            "NORMAL": 29,
            "POSITION": 28,
            "TEXCOORD_0": 30
          },
          "indices": 31,
          "material": 1,
          "mode": 4
        }
      ]
    },
    {
      "name": "pCylinder5_white_0",
      "primitives": [
        {
          "attributes": {
            "NORMAL": 33,
            "POSITION": 32,
            "TEXCOORD_0": 34
          },
          "indices": 35,
          "material": 0,
          "mode": 4
        }
      ]
    },
    {
      "name": "pCylinder6_metal_0",
      "primitives": [
        {
          "attributes": {
            "NORMAL": 37,
            "POSITION": 36,
            "TEXCOORD_0": 38
          },
          "indices": 39,
          "material": 2,
          "mode": 4
        }
      ]
    },
    {
      "name": "pCylinder7_white_0",
      "primitives": [
        {
          "attributes": {
            "NORMAL": 41,
            "POSITION": 40,
            "TEXCOORD_0": 42
          },
          "indices": 43,
          "material": 0,
          "mode": 4
        }
      ]
    },
    {
      "name": "pCylinder8_white_0",
      "primitives": [
        {
          "attributes": {
            "NORMAL": 45,
            "POSITION": 44,
            "TEXCOORD_0": 46
          },
          "indices": 47,
          "material": 0,
          "mode": 4
        }
      ]
    },
    {
      "name": "pCylinder9_white_0",
      "primitives": [
        {
          "attributes": {
            "NORMAL": 49,
            "POSITION": 48,
            "TEXCOORD_0": 50
          },
          "indices": 51,
          "material": 0,
          "mode": 4
        }
      ]
    },
    {
      "name": "pCylinder10_black_0",
      "primitives": [
        {
          "attributes": {
            "NORMAL": 53,
            "POSITION": 52,
            "TEXCOORD_0": 54
          },
          "indices": 55,
          "material": 3,
          "mode": 4
        }
      ]
    },
    {
      "name": "pCube34_lambert1_0",
      "primitives": [
        {
          "attributes": {
            "NORMAL": 57,
            "POSITION": 56,
            "TEXCOORD_0": 58
          },
          "indices": 59,
          "material": 4,
          "mode": 4
        }
      ]
    },
    {
      "name": "pCube37_black_0",
      "primitives": [
        {
          "attributes": {
            "NORMAL": 61,
            "POSITION": 60,
            "TEXCOORD_0": 62
          },
          "indices": 63,
          "material": 3,
          "mode": 4
        }
      ]
    },
    {
      "name": "pCube38_black_0",
      "primitives": [
        {
          "attributes": {
            "NORMAL": 65,
            "POSITION": 64,
            "TEXCOORD_0": 66
          },
          "indices": 67,
          "material": 3,
          "mode": 4
        }
      ]
    },
    {
      "name": "pCube39_black_0",
      "primitives": [
        {
          "attributes": {
            "NORMAL": 69,
            "POSITION": 68,
            "TEXCOORD_0": 70
          },
          "indices": 71,
          "material": 3,
          "mode": 4
        }
      ]
    },
    {
      "name": "pCube40_black_0",
      "primitives": [
        {
          "attributes": {
            "NORMAL": 73,
            "POSITION": 72,
            "TEXCOORD_0": 74
          },
          "indices": 75,
          "material": 3,
          "mode": 4
        }
      ]
    },
    {
      "name": "pCube41_black_0",
      "primitives": [
        {
          "attributes": {
            "NORMAL": 77,
            "POSITION": 76,
            "TEXCOORD_0": 78
          },
          "indices": 79,
          "material": 3,
          "mode": 4
        }
      ]
    },
    {
      "name": "pCube42_black_0",
      "primitives": [
        {
          "attributes": {
            "NORMAL": 81,
            "POSITION": 80,
            "TEXCOORD_0": 82
          },
          "indices": 83,
          "material": 3,
          "mode": 4
        }
      ]
    },
    {
      "name": "pCube43_black_0",
      "primitives": [
        {
          "attributes": {
            "NORMAL": 85,
            "POSITION": 84,
            "TEXCOORD_0": 86
          },
          "indices": 87,
          "material": 3,
          "mode": 4
        }
      ]
    },
    {
      "name": "pCylinder11_white_0",
      "primitives": [
        {
          "attributes": {
            "NORMAL": 89,
            "POSITION": 88,
            "TEXCOORD_0": 90
          },
          "indices": 91,
          "material": 0,
          "mode": 4
        }
      ]
    },
    {
      "name": "pCube44_lambert1_0",
      "primitives": [
        {
          "attributes": {
            "NORMAL": 93,
            "POSITION": 92,
            "TEXCOORD_0": 94
          },
          "indices": 95,
          "material": 4,
          "mode": 4
        }
      ]
    },
    {
      "name": "pCylinder14_black_0",
      "primitives": [
        {
          "attributes": {
            "NORMAL": 97,
            "POSITION": 96,
            "TEXCOORD_0": 98
          },
          "indices": 99,
          "material": 3,
          "mode": 4
        }
      ]
    },
    {
      "name": "pCube46_metal_0",
      "primitives": [
        {
          "attributes": {
            "NORMAL": 101,
            "POSITION": 100,
            "TEXCOORD_0": 102
          },
          "indices": 103,
          "material": 2,
          "mode": 4
        }
      ]
    },
    {
      "name": "pCube52_black_0",
      "primitives": [
        {
          "attributes": {
            "NORMAL": 105,
            "POSITION": 104,
            "TEXCOORD_0": 106
          },
          "indices": 107,
          "material": 3,
          "mode": 4
        }
      ]
    },
    {
      "name": "pCylinder15_white_0",
      "primitives": [
        {
          "attributes": {
            "NORMAL": 109,
            "POSITION": 108,
            "TEXCOORD_0": 110
          },
          "indices": 111,
          "material": 0,
          "mode": 4
        }
      ]
    },
    {
      "name": "pCube53_white_0",
      "primitives": [
        {
          "attributes": {
            "NORMAL": 113,
            "POSITION": 112,
            "TEXCOORD_0": 114
          },
          "indices": 115,
          "material": 0,
          "mode": 4
        }
      ]
    },
    {
      "name": "pCube53_orange_0",
      "primitives": [
        {
          "attributes": {
            "NORMAL": 117,
            "POSITION": 116,
            "TEXCOORD_0": 118
          },
          "indices": 119,
          "material": 1,
          "mode": 4
        }
      ]
    },
    {
      "name": "pCylinder16_black_0",
      "primitives": [
        {
          "attributes": {
            "NORMAL": 121,
            "POSITION": 120,
            "TEXCOORD_0": 122
          },
          "indices": 123,
          "material": 3,
          "mode": 4
        }
      ]
    },
    {
      "name": "pCylinder17_white_0",
      "primitives": [
        {
          "attributes": {
            "NORMAL": 125,
            "POSITION": 124,
            "TEXCOORD_0": 126
          },
          "indices": 127,
          "material": 0,
          "mode": 4
        }
      ]
    },
    {
      "name": "pCylinder18_white_0",
      "primitives": [
        {
          "attributes": {
            "NORMAL": 129,
            "POSITION": 128,
            "TEXCOORD_0": 130
          },
          "indices": 131,
          "material": 0,
          "mode": 4
        }
      ]
    },
    {
      "name": "pCube54_white_0",
      "primitives": [
        {
          "attributes": {
            "NORMAL": 133,
            "POSITION": 132,
            "TEXCOORD_0": 134
          },
          "indices": 135,
          "material": 0,
          "mode": 4
        }
      ]
    },
    {
      "name": "pCube54_orange_0",
      "primitives": [
        {
          "attributes": {
            "NORMAL": 137,
            "POSITION": 136,
            "TEXCOORD_0": 138
          },
          "indices": 139,
          "material": 1,
          "mode": 4
        }
      ]
    },
    {
      "name": "pCube55_black_0",
      "primitives": [
        {
          "attributes": {
            "NORMAL": 141,
            "POSITION": 140,
            "TEXCOORD_0": 142
          },
          "indices": 143,
          "material": 3,
          "mode": 4
        }
      ]
    },
    {
      "name": "pCube57_lambert1_0",
      "primitives": [
        {
          "attributes": {
            "NORMAL": 145,
            "POSITION": 144,
            "TEXCOORD_0": 146
          },
          "indices": 147,
          "material": 4,
          "mode": 4
        }
      ]
    },
    {
      "name": "pCylinder19_white_0",
      "primitives": [
        {
          "attributes": {
            "NORMAL": 149,
            "POSITION": 148,
            "TEXCOORD_0": 150
          },
          "indices": 151,
          "material": 0,
          "mode": 4
        }
      ]
    },
    {
      "name": "pCylinder20_metal_0",
      "primitives": [
        {
          "attributes": {
            "NORMAL": 153,
            "POSITION": 152,
            "TEXCOORD_0": 154
          },
          "indices": 155,
          "material": 2,
          "mode": 4
        }
      ]
    },
    {
      "name": "pCube58_black_0",
      "primitives": [
        {
          "attributes": {
            "NORMAL": 157,
            "POSITION": 156,
            "TEXCOORD_0": 158
          },
          "indices": 159,
          "material": 3,
          "mode": 4
        }
      ]
    },
    {
      "name": "pCube59_black_0",
      "primitives": [
        {
          "attributes": {
            "NORMAL": 161,
            "POSITION": 160,
            "TEXCOORD_0": 162
          },
          "indices": 163,
          "material": 3,
          "mode": 4
        }
      ]
    },
    {
      "name": "pCube60_black_0",
      "primitives": [
        {
          "attributes": {
            "NORMAL": 165,
            "POSITION": 164,
            "TEXCOORD_0": 166
          },
          "indices": 167,
          "material": 3,
          "mode": 4
        }
      ]
    },
    {
      "name": "pCube61_black_0",
      "primitives": [
        {
          "attributes": {
            "NORMAL": 169,
            "POSITION": 168,
            "TEXCOORD_0": 170
          },
          "indices": 171,
          "material": 3,
          "mode": 4
        }
      ]
    },
    {
      "name": "pCube62_black_0",
      "primitives": [
        {
          "attributes": {
            "NORMAL": 173,
            "POSITION": 172,
            "TEXCOORD_0": 174
          },
          "indices": 175,
          "material": 3,
          "mode": 4
        }
      ]
    },
    {
      "name": "pCylinder21_white_0",
      "primitives": [
        {
          "attributes": {
            "NORMAL": 177,
            "POSITION": 176,
            "TEXCOORD_0": 178
          },
          "indices": 179,
          "material": 0,
          "mode": 4
        }
      ]
    },
    {
      "name": "pCube63_black_0",
      "primitives": [
        {
          "attributes": {
            "NORMAL": 181,
            "POSITION": 180,
            "TEXCOORD_0": 182
          },
          "indices": 183,
          "material": 3,
          "mode": 4
        }
      ]
    },
    {
      "name": "pCylinder22_white_0",
      "primitives": [
        {
          "attributes": {
            "NORMAL": 185,
            "POSITION": 184,
            "TEXCOORD_0": 186
          },
          "indices": 187,
          "material": 0,
          "mode": 4
        }
      ]
    },
    {
      "name": "pCylinder23_metal_0",
      "primitives": [
        {
          "attributes": {
            "NORMAL": 189,
            "POSITION": 188,
            "TEXCOORD_0": 190
          },
          "indices": 191,
          "material": 2,
          "mode": 4
        }
      ]
    },
    {
      "name": "pCylinder24_metal_0",
      "primitives": [
        {
          "attributes": {
            "NORMAL": 193,
            "POSITION": 192,
            "TEXCOORD_0": 194
          },
          "indices": 195,
          "material": 2,
          "mode": 4
        }
      ]
    },
    {
      "name": "pCylinder25_white_0",
      "primitives": [
        {
          "attributes": {
            "NORMAL": 197,
            "POSITION": 196,
            "TEXCOORD_0": 198
          },
          "indices": 199,
          "material": 0,
          "mode": 4
        }
      ]
    },
    {
      "name": "pCube64_white_0",
      "primitives": [
        {
          "attributes": {
            "NORMAL": 201,
            "POSITION": 200,
            "TEXCOORD_0": 202
          },
          "indices": 203,
          "material": 0,
          "mode": 4
        }
      ]
    },
    {
      "name": "pCube64_orange_0",
      "primitives": [
        {
          "attributes": {
            "NORMAL": 205,
            "POSITION": 204,
            "TEXCOORD_0": 206
          },
          "indices": 207,
          "material": 1,
          "mode": 4
        }
      ]
    },
    {
      "name": "pCube64_window_0",
      "primitives": [
        {
          "attributes": {
            "NORMAL": 209,
            "POSITION": 208,
            "TEXCOORD_0": 210
          },
          "indices": 211,
          "material": 5,
          "mode": 4
        }
      ]
    },
    {
      "name": "pCube64_black_0",
      "primitives": [
        {
          "attributes": {
            "NORMAL": 213,
            "POSITION": 212,
            "TEXCOORD_0": 214
          },
          "indices": 215,
          "material": 3,
          "mode": 4
        }
      ]
    }
  ],
  "nodes": [
    {
      "children": [
        1
      ],
      "matrix": [
        1.0,
        0.0,
        0.0,
        0.0,
        0.0,
        2.220446049250313e-16,
        -1.0,
        0.0,
        0.0,
        1.0,
        2.220446049250313e-16,
        0.0,
        0.0,
        0.0,
        0.0,
        1.0
      ],
      "name": "Sketchfab_model"
    },
    {
      "children": [
        2
      ],
      "matrix": [
        1.0,
        0.0,
        0.0,
        0.0,
        0.0,
        0.0,
        1.0,
        0.0,
        0.0,
        -1.0,
        0.0,
        0.0,
        0.0,
        0.0,
        0.0,
        1.0
      ],
      "name": "9763375d40e94c98ad46cfb59667ed03.fbx"
    },
    {
      "children": [
        3,
        6,
        8,
        10,
        12,
        14,
        17,
        19,
        21,
        23,
        25,
        27,
        29,
        31,
        33,
        35,
        37,
        39,
        41,
        43,
        45,
        47,
        49,
        51,
        53,
        55,
        57,
        60,
        62,
        64,
        66,
        69,
        71,
        73,
        75,
        77,
        79,
        81,
        83,
        85,
        87,
        89,
        91,
        93,
        95,
        97,
        99
      ],
      "name": "RootNode"
    },
    {
      "children": [
        4,
        5
      ],
      "name": "pCube7"
    },
    {
      "mesh": 0,
      "name": "pCube7_white_0"
    },
    {
      "mesh": 1,
      "name": "pCube7_orange_0"
    },
    {
      "children": [
        7
      ],
      "name": "pCylinder1"
    },
    {
      "mesh": 2,
      "name": "pCylinder1_white_0"
    },
    {
      "children": [
        9
      ],
      "name": "pCylinder2"
    },
    {
      "mesh": 3,
      "name": "pCylinder2_metal_0"
    },
    {
      "children": [
        11
      ],
      "name": "pCylinder3"
    },
    {
      "mesh": 4,
      "name": "pCylinder3_white_0"
    },
    {
      "children": [
        13
      ],
      "name": "pCylinder4"
    },
    {
      "mesh": 5,
      "name": "pCylinder4_metal_0"
    },
    {
      "children": [
        15,
        16
      ],
      "name": "pCube9"
    },
    {
      "mesh": 6,
      "name": "pCube9_white_0"
    },
    {
      "mesh": 7,
      "name": "pCube9_orange_0"
    },
    {
      "children": [
        18
      ],
      "name": "pCylinder5"
    },
    {
      "mesh": 8,
      "name": "pCylinder5_white_0"
    },
    {
      "children": [
        20
      ],
      "name": "pCylinder6"
    },
    {
      "mesh": 9,
      "name": "pCylinder6_metal_0"
    },
    {
      "children": [
        22
      ],
      "name": "pCylinder7"
    },
    {
      "mesh": 10,
      "name": "pCylinder7_white_0"
    },
    {
      "children": [
        24
      ],
      "name": "pCylinder8"
    },
    {
      "mesh": 11,
      "name": "pCylinder8_white_0"
    },
    {
      "children": [
        26
      ],
      "name": "pCylinder9"
    },
    {
      "mesh": 12,
      "name": "pCylinder9_white_0"
    },
    {
      "children": [
        28
      ],
      "name": "pCylinder10"
    },
    {
      "mesh": 13,
      "name": "pCylinder10_black_0"
    },
    {
      "children": [
        30
      ],
      "name": "pCube34"
    },
    {
      "mesh": 14,
      "name": "pCube34_lambert1_0"
    },
    {
      "children": [
        32
      ],
      "name": "pCube37"
    },
    {
      "mesh": 15,
      "name": "pCube37_black_0"
    },
    {
      "children": [
        34
      ],
      "name": "pCube38"
    },
    {
      "mesh": 16,
      "name": "pCube38_black_0"
    },
    {
      "children": [
        36
      ],
      "name": "pCube39"
    },
    {
      "mesh": 17,
      "name": "pCube39_black_0"
    },
    {
      "children": [
        38
      ],
      "name": "pCube40"
    },
    {
      "mesh": 18,
      "name": "pCube40_black_0"
    },
    {
      "children": [
        40
      ],
      "name": "pCube41"
    },
    {
      "mesh": 19,
      "name": "pCube41_black_0"
    },
    {
      "children": [
        42
      ],
      "name": "pCube42"
    },
    {
      "mesh": 20,
      "name": "pCube42_black_0"
    },
    {
      "children": [
        44
      ],
      "name": "pCube43"
    },
    {
      "mesh": 21,
      "name": "pCube43_black_0"
    },
    {
      "children": [
        46
      ],
      "name": "pCylinder11"
    },
    {
      "mesh": 22,
      "name": "pCylinder11_white_0"
    },
    {
      "children": [
        48
      ],
      "name": "pCube44"
    },
    {
      "mesh": 23,
      "name": "pCube44_lambert1_0"
    },
    {
      "children": [
        50
      ],
      "name": "pCylinder14"
    },
    {
      "mesh": 24,
      "name": "pCylinder14_black_0"
    },
    {
      "children": [
        52
      ],
      "name": "pCube46"
    },
    {
      "mesh": 25,
      "name": "pCube46_metal_0"
    },
    {
      "children": [
        54
      ],
      "name": "pCube52"
    },
    {
      "mesh": 26,
      "name": "pCube52_black_0"
    },
    {
      "children": [
        56
      ],
      "name": "pCylinder15"
    },
    {
      "mesh": 27,
      "name": "pCylinder15_white_0"
    },
    {
      "children": [
        58,
        59
      ],
      "name": "pCube53"
    },
    {
      "mesh": 28,
      "name": "pCube53_white_0"
    },
    {
      "mesh": 29,
      "name": "pCube53_orange_0"
    },
    {
      "children": [
        61
      ],
      "name": "pCylinder16"
    },
    {
      "mesh": 30,
      "name": "pCylinder16_black_0"
    },
    {
      "children": [
        63
      ],
      "name": "pCylinder17"
    },
    {
      "mesh": 31,
      "name": "pCylinder17_white_0"
    },
    {
      "children": [
        65
      ],
      "name": "pCylinder18"
    },
    {
      "mesh": 32,
      "name": "pCylinder18_white_0"
    },
    {
      "children": [
        67,
        68
      ],
      "name": "pCube54"
    },
    {
      "mesh": 33,
      "name": "pCube54_white_0"
    },
    {
      "mesh": 34,
      "name": "pCube54_orange_0"
    },
    {
      "children": [
        70
      ],
      "name": "pCube55"
    },
    {
      "mesh": 35,
      "name": "pCube55_black_0"
    },
    {
      "children": [
        72
      ],
      "name": "pCube57"
    },
    {
      "mesh": 36,
      "name": "pCube57_lambert1_0"
    },
    {
      "children": [
        74
      ],
      "name": "pCylinder19"
    },
    {
      "mesh": 37,
      "name": "pCylinder19_white_0"
    },
    {
      "children": [
        76
      ],
      "name": "pCylinder20"
    },
    {
      "mesh": 38,
      "name": "pCylinder20_metal_0"
    },
    {
      "children": [
        78
      ],
      "name": "pCube58"
    },
    {
      "mesh": 39,
      "name": "pCube58_black_0"
    },
    {
      "children": [
        80
      ],
      "name": "pCube59"
    },
    {
      "mesh": 40,
      "name": "pCube59_black_0"
    },
    {
      "children": [
        82
      ],
      "name": "pCube60"
    },
    {
      "mesh": 41,
      "name": "pCube60_black_0"
    },
    {
      "children": [
        84
      ],
      "name": "pCube61"
    },
    {
      "mesh": 42,
      "name": "pCube61_black_0"
    },
    {
      "children": [
        86
      ],
      "name": "pCube62"
    },
    {
      "mesh": 43,
      "name": "pCube62_black_0"
    },
    {
      "children": [
        88
      ],
      "name": "pCylinder21"
    },
    {
      "mesh": 44,
      "name": "pCylinder21_white_0"
    },
    {
      "children": [
        90
      ],
      "name": "pCube63"
    },
    {
      "mesh": 45,
      "name": "pCube63_black_0"
    },
    {
      "children": [
        92
      ],
      "name": "pCylinder22"
    },
    {
      "mesh": 46,
      "name": "pCylinder22_white_0"
    },
    {
      "children": [
        94
      ],
      "name": "pCylinder23"
    },
    {
      "mesh": 47,
      "name": "pCylinder23_metal_0"
    },
    {
      "children": [
        96
      ],
      "name": "pCylinder24"
    },
    {
      "mesh": 48,
      "name": "pCylinder24_metal_0"
    },
    {
      "children": [
        98
      ],
      "name": "pCylinder25"
    },
    {
      "mesh": 49,
      "name": "pCylinder25_white_0"
    },
    {
      "children": [
        100,
        101,
        102,
        103
      ],
      "name": "pCube64"
    },
    {
      "mesh": 50,
      "name": "pCube64_white_0"
    },
    {
      "mesh": 51,
      "name": "pCube64_orange_0"
    },
    {
      "mesh": 52,
      "name": "pCube64_window_0"
    },
    {
      "mesh": 53,
      "name": "pCube64_black_0"
    }
  ],
  "scene": 0,
  "scenes": [
    {
      "name": "Sketchfab_Scene",
      "nodes": [
        0
      ]
    }
  ]
}
