{
  "accessors": [
    {
      "bufferView": 2,
      "componentType": 5126,
      "count": 1703,
      "max": [
        1.2101088762283325,
        2.0014939308166504,
        0.3896092474460602
      ],
      "min": [
        -1.3702917098999023,
        -1.7930272817611694,
        0.20961883664131165
      ],
      "type": "VEC3"
    },
    {
      "bufferView": 2,
      "byteOffset": 20436,
      "componentType": 5126,
      "count": 1703,
      "max": [
        1.0,
        1.0,
        1.0
      ],
      "min": [
        -1.0,
        -1.0,
        -1.0
      ],
      "type": "VEC3"
    },
    {
      "bufferView": 3,
      "componentType": 5126,
      "count": 1703,
      "max": [
        1.0,
        1.0,
        1.0,
        1.0
      ],
      "min": [
        -0.9999909996986389,
        -1.0,
        -1.0,
        -1.0
      ],
      "type": "VEC4"
    },
    {
      "bufferView": 1,
      "componentType": 5126,
      "count": 1703,
      "max": [
        0.7422735691070557,
        0.9946557283401489
      ],
      "min": [
        0.005344398785382509,
        0.005344394128769636
      ],
      "type": "VEC2"
    },
    {
      "bufferView": 0,
      "componentType": 5125,
      "count": 4791,
      "type": "SCALAR"
    },
    {
      "bufferView": 2,
      "byteOffset": 40872,
      "componentType": 5126,
      "count": 4,
      "max": [
        0.8752058148384094,
        1.645190715789795,
        0.3494007885456085
      ],
      "min": [
        -1.0518591403961182,
        0.2963353097438812,
        0.34940075874328613
      ],
      "type": "VEC3"
    },
    {
      "bufferView": 2,
      "byteOffset": 40920,
      "componentType": 5126,
      "count": 4,
      "max": [
        0.0,
        -2.2094527096783168e-08,
        1.0
      ],
      "min": [
        0.0,
        -2.2094528873140007e-08,
        1.0
      ],
      "type": "VEC3"
    },
    {
      "bufferView": 1,
      "byteOffset": 13624,
      "componentType": 5126,
      "count": 4,
      "max": [
        0.6999197006225586,
        0.9999163150787354
      ],
      "min": [
        8.363692177226767e-05,
        8.365271060029045e-05
      ],
      "type": "VEC2"
    },
    {
      "bufferView": 0,
      "byteOffset": 19164,
      "componentType": 5125,
      "count": 6,
      "type": "SCALAR"
    },
    {
      "bufferView": 2,
      "byteOffset": 40968,
      "componentType": 5126,
      "count": 1703,
      "max": [
        1.2101088762283325,
        2.0014939308166504,
        0.3896092474460602
      ],
      "min": [
        -1.3702917098999023,
        -1.7930272817611694,
        0.20961883664131165
      ],
      "type": "VEC3"
    },
    {
      "bufferView": 2,
      "byteOffset": 61404,
      "componentType": 5126,
      "count": 1703,
      "max": [
        1.0,
        1.0,
        1.0
      ],
      "min": [
        -1.0,
        -1.0,
        -1.0
      ],
      "type": "VEC3"
    },
    {
      "bufferView": 3,
      "byteOffset": 27248,
      "componentType": 5126,
      "count": 1703,
      "max": [
        1.0,
        1.0,
        1.0,
        1.0
      ],
      "min": [
        -0.9999909996986389,
        -1.0,
        -1.0,
        -1.0
      ],
      "type": "VEC4"
    },
    {
      "bufferView": 1,
      "byteOffset": 13656,
      "componentType": 5126,
      "count": 1703,
      "max": [
        0.7422735691070557,
        0.9946557283401489
      ],
      "min": [
        0.005344398785382509,
        0.005344394128769636
      ],
      "type": "VEC2"
    },
    {
      "bufferView": 0,
      "byteOffset": 19188,
      "componentType": 5125,
      "count": 4791,
      "type": "SCALAR"
    },
    {
      "bufferView": 2,
      "byteOffset": 81840,
      "componentType": 5126,
      "count": 4,
      "max": [
        0.8752058148384094,
        1.645190715789795,
        0.3494007885456085
      ],
      "min": [
        -1.0518591403961182,
        0.2963353097438812,
        0.34940075874328613
      ],
      "type": "VEC3"
    },
    {
      "bufferView": 2,
      "byteOffset": 81888,
      "componentType": 5126,
      "count": 4,
      "max": [
        0.0,
        -2.2094527096783168e-08,
        1.0
      ],
      "min": [
        0.0,
        -2.2094528873140007e-08,
        1.0
      ],
      "type": "VEC3"
    },
    {
      "bufferView": 1,
      "byteOffset": 27280,
      "componentType": 5126,
      "count": 4,
      "max": [
        0.6999197006225586,
        0.9999163150787354
      ],
      "min": [
        8.363692177226767e-05,
        8.365271060029045e-05
      ],
      "type": "VEC2"
    },
    {
      "bufferView": 0,
      "byteOffset": 38352,
      "componentType": 5125,
      "count": 6,
      "type": "SCALAR"
    },
    {
      "bufferView": 2,
      "byteOffset": 81936,
      "componentType": 5126,
      "count": 1703,
      "max": [
        1.2101088762283325,
        2.0014939308166504,
        0.3896092474460602
      ],
      "min": [
        -1.3702917098999023,
        -1.7930272817611694,
        0.20961883664131165
      ],
      "type": "VEC3"
    },
    {
      "bufferView": 2,
      "byteOffset": 102372,
      "componentType": 5126,
      "count": 1703,
      "max": [
        1.0,
        1.0,
        1.0
      ],
      "min": [
        -1.0,
        -1.0,
        -1.0
      ],
      "type": "VEC3"
    },
    {
      "bufferView": 3,
      "byteOffset": 54496,
      "componentType": 5126,
      "count": 1703,
      "max": [
        1.0,
        1.0,
        1.0,
        1.0
      ],
      "min": [
        -0.9999909996986389,
        -1.0,
        -1.0,
        -1.0
      ],
      "type": "VEC4"
    },
    {
      "bufferView": 1,
      "byteOffset": 27312,
      "componentType": 5126,
      "count": 1703,
      "max": [
        0.7422735691070557,
        0.9946557283401489
      ],
      "min": [
        0.005344398785382509,
        0.005344394128769636
      ],
      "type": "VEC2"
    },
    {
      "bufferView": 0,
      "byteOffset": 38376,
      "componentType": 5125,
      "count": 4791,
      "type": "SCALAR"
    },
    {
      "bufferView": 2,
      "byteOffset": 122808,
      "componentType": 5126,
      "count": 4,
      "max": [
        0.8752058148384094,
        1.645190715789795,
        0.3494007885456085
      ],
      "min": [
        -1.0518591403961182,
        0.2963353097438812,
        0.34940075874328613
      ],
      "type": "VEC3"
    },
    {
      "bufferView": 2,
      "byteOffset": 122856,
      "componentType": 5126,
      "count": 4,
      "max": [
        0.0,
        -2.2094527096783168e-08,
        1.0
      ],
      "min": [
        0.0,
        -2.2094528873140007e-08,
        1.0
      ],
      "type": "VEC3"
    },
    {
      "bufferView": 1,
      "byteOffset": 40936,
      "componentType": 5126,
      "count": 4,
      "max": [
        0.6999197006225586,
        0.9999163150787354
      ],
      "min": [
        8.363692177226767e-05,
        8.365271060029045e-05
      ],
      "type": "VEC2"
    },
    {
      "bufferView": 0,
      "byteOffset": 57540,
      "componentType": 5125,
      "count": 6,
      "type": "SCALAR"
    },
    {
      "bufferView": 2,
      "byteOffset": 122904,
      "componentType": 5126,
      "count": 1703,
      "max": [
        1.2101088762283325,
        2.0014939308166504,
        0.3896092474460602
      ],
      "min": [
        -1.3702917098999023,
        -1.7930272817611694,
        0.20961883664131165
      ],
      "type": "VEC3"
    },
    {
      "bufferView": 2,
      "byteOffset": 143340,
      "componentType": 5126,
      "count": 1703,
      "max": [
        1.0,
        1.0,
        1.0
      ],
      "min": [
        -1.0,
        -1.0,
        -1.0
      ],
      "type": "VEC3"
    },
    {
      "bufferView": 3,
      "byteOffset": 81744,
      "componentType": 5126,
      "count": 1703,
      "max": [
        1.0,
        1.0,
        1.0,
        1.0
      ],
      "min": [
        -0.9999909996986389,
        -1.0,
        -1.0,
        -1.0
      ],
      "type": "VEC4"
    },
    {
      "bufferView": 1,
      "byteOffset": 40968,
      "componentType": 5126,
      "count": 1703,
      "max": [
        0.7422735691070557,
        0.9946557283401489
      ],
      "min": [
        0.005344398785382509,
        0.005344394128769636
      ],
      "type": "VEC2"
    },
    {
      "bufferView": 0,
      "byteOffset": 57564,
      "componentType": 5125,
      "count": 4791,
      "type": "SCALAR"
    },
    {
      "bufferView": 2,
      "byteOffset": 163776,
      "componentType": 5126,
      "count": 4,
      "max": [
        0.8752058148384094,
        1.645190715789795,
        0.3494007885456085
      ],
      "min": [
        -1.0518591403961182,
        0.2963353097438812,
        0.34940075874328613
      ],
      "type": "VEC3"
    },
    {
      "bufferView": 2,
      "byteOffset": 163824,
      "componentType": 5126,
      "count": 4,
      "max": [
        0.0,
        -2.2094527096783168e-08,
        1.0
      ],
      "min": [
        0.0,
        -2.2094528873140007e-08,
        1.0
      ],
      "type": "VEC3"
    },
    {
      "bufferView": 1,
      "byteOffset": 54592,
      "componentType": 5126,
      "count": 4,
      "max": [
        0.6999197006225586,
        0.9999163150787354
      ],
      "min": [
        8.363692177226767e-05,
        8.365271060029045e-05
      ],
      "type": "VEC2"
    },
    {
      "bufferView": 0,
      "byteOffset": 76728,
      "componentType": 5125,
      "count": 6,
      "type": "SCALAR"
    }
  ],
  "asset": {
    "extras": {
      "author": "Crazy Canadian (https://sketchfab.com/CrazyCanadian)",
      "license": "CC-BY-NC-4.0 (http://creativecommons.org/licenses/by-nc/4.0/)",
      "source": "https://sketchfab.com/3d-models/star-trek-voyager-small-padds-e0bd145ec2f74e89a217529d7da45f31",
      "title": "Star Trek Voyager Small PADDs"
    },
    "generator": "Sketchfab-15.70.0",
    "version": "2.0"
  },
  "bufferViews": [
    {
      "buffer": 0,
      "byteLength": 76752,
      "name": "floatBufferViews",
      "target": 34963
    },
    {
      "buffer": 0,
      "byteLength": 54624,
      "byteOffset": 76752,
      "byteStride": 8,
      "name": "floatBufferViews",
      "target": 34962
    },
    {
      "buffer": 0,
      "byteLength": 163872,
      "byteOffset": 131376,
      "byteStride": 12,
      "name": "floatBufferViews",
      "target": 34962
    },
    {
      "buffer": 0,
      "byteLength": 108992,
      "byteOffset": 295248,
      "byteStride": 16,
      "name": "floatBufferViews",
      "target": 34962
    }
  ],
  "buffers": [
    {
      "byteLength": 404240,
      "uri": "scene.bin"
    }
  ],
  "images": [
    {
      "uri": "textures/PADD_baseColor.png"
    },
    {
      "uri": "textures/PADD_metallicRoughness.png"
    },
    {
      "uri": "textures/PADD_normal.png"
    },
    {
      "uri": "textures/Screen_baseColor.png"
    },
    {
      "uri": "textures/PADD_black_baseColor.png"
    },
    {
      "uri": "textures/PADD_red_baseColor.png"
    },
    {
      "uri": "textures/PADD_blue_baseColor.png"
    }
  ],
  "materials": [
    {
      "doubleSided": true,
      "name": "PADD",
      "normalTexture": {
        "index": 2
      },
      "occlusionTexture": {
        "index": 1
      },
      "pbrMetallicRoughness": {
        "baseColorTexture": {
          "index": 0
        },
        "metallicRoughnessTexture": {
          "index": 1
        }
      }
    },
    {
      "doubleSided": true,
      "name": "Screen",
      "pbrMetallicRoughness": {
        "baseColorTexture": {
          "index": 3
        },
        "metallicFactor": 0.0,
        "roughnessFactor": 0.11428606258609549
      }
    },
    {
      "doubleSided": true,
      "name": "PADD_black",
      "normalTexture": {
        "index": 2
      },
      "occlusionTexture": {
        "index": 1
      },
      "pbrMetallicRoughness": {
        "baseColorTexture": {
          "index": 4
        },
        "metallicRoughnessTexture": {
          "index": 1
        }
      }
    },
    {
      "doubleSided": true,
      "name": "PADD_red",
      "normalTexture": {
        "index": 2
      },
      "occlusionTexture": {
        "index": 1
      },
      "pbrMetallicRoughness": {
        "baseColorTexture": {
          "index": 5
        },
        "metallicRoughnessTexture": {
          "index": 1
        }
      }
    },
    {
      "doubleSided": true,
      "name": "PADD_blue",
      "normalTexture": {
        "index": 2
      },
      "occlusionTexture": {
        "index": 1
      },
      "pbrMetallicRoughness": {
        "baseColorTexture": {
          "index": 6
        },
        "metallicRoughnessTexture": {
          "index": 1
        }
      }
    }
  ],
  "meshes": [
    {
      "name": "Cube.003_PADD_0",
      "primitives": [
        {
          "attributes": {
            "NORMAL": 1,
            "POSITION": 0,
            "TANGENT": 2,
            "TEXCOORD_0": 3
          },
          "indices": 4,
          "material": 0,
          "mode": 4
        }
      ]
    },
    {
      "name": "Cube.004_Screen_0",
      "primitives": [
        {
          "attributes": {
            "NORMAL": 6,
            "POSITION": 5,
            "TEXCOORD_0": 7
          },
          "indices": 8,
          "material": 1,
          "mode": 4
        }
      ]
    },
    {
      "name": "Cube.006_PADD_black_0",
      "primitives": [
        {
          "attributes": {
            "NORMAL": 10,
            "POSITION": 9,
            "TANGENT": 11,
            "TEXCOORD_0": 12
          },
          "indices": 13,
          "material": 2,
          "mode": 4
        }
      ]
    },
    {
      "name": "Cube.005_Screen_0",
      "primitives": [
        {
          "attributes": {
            "NORMAL": 15,
            "POSITION": 14,
            "TEXCOORD_0": 16
          },
          "indices": 17,
          "material": 1,
          "mode": 4
        }
      ]
    },
    {
      "name": "Cube.007_PADD_red_0",
      "primitives": [
        {
          "attributes": {
            "NORMAL": 19,
            "POSITION": 18,
            "TANGENT": 20,
            "TEXCOORD_0": 21
          },
          "indices": 22,
          "material": 3,
          "mode": 4
        }
      ]
    },
    {
      "name": "Cube.008_Screen_0",
      "primitives": [
        {
          "attributes": {
            "NORMAL": 24,
            "POSITION": 23,
            "TEXCOORD_0": 25
          },
          "indices": 26,
          "material": 1,
          "mode": 4
        }
      ]
    },
    {
      "name": "Cube.010_PADD_blue_0",
      "primitives": [
        {
          "attributes": {
            "NORMAL": 28,
            "POSITION": 27,
            "TANGENT": 29,
            "TEXCOORD_0": 30
          },
          "indices": 31,
          "material": 4,
          "mode": 4
        }
      ]
    },
    {
      "name": "Cube.009_Screen_0",
      "primitives": [
        {
          "attributes": {
            "NORMAL": 33,
            "POSITION": 32,
            "TEXCOORD_0": 34
          },
          "indices": 35,
          "material": 1,
          "mode": 4
        }
      ]
    }
  ],
  "nodes": [
    {
      "children": [
        1
      ],
      "matrix": [
        0.05856020003557205,
        0.0,
        0.0,
        0.0,
        0.0,
        1.30029764812294e-17,
        -0.05856020003557205,
        0.0,
        0.0,
        0.05856020003557205,
        1.30029764812294e-17,
        0.0,
        0.0,
        0.0,
        0.0,
        1.0
      ],
      "name": "Sketchfab_model"
    },
    {
      "children": [
        2
      ],
      "matrix": [
        0.009999999776482582,
        0.0,
        0.0,
        0.0,
        0.0,
        0.0,
        0.009999999776482582,
        0.0,
        0.0,
        -0.009999999776482582,
        0.0,
        0.0,
        0.0,
        0.0,
        0.0,
        1.0
      ],
      "name": "6e31e99efea74ab1acc8e6df6421d1fc.fbx"
    },
    {
      "children": [
        3,
        7,
        11,
        15
      ],
      "name": "RootNode"
    },
    {
      "children": [
        4,
        5
      ],
      "matrix": [
        100.0,
        0.0,
        0.0,
        0.0,
        -0.0,
        -2.8212996916465727e-05,
        -99.99999999999602,
        0.0,
        0.0,
        99.99999999999602,
        -2.8212996916465727e-05,
        0.0,
        -430.1651916503906,
        0.0,
        0.0,
        1.0
      ],
      "name": "Cube.003"
    },
    {
      "mesh": 0,
      "name": "Cube.003_PADD_0"
    },
    {
      "children": [
        6
      ],
      "matrix": [
        1.0,
        0.0,
        0.0,
        0.0,
        0.0,
        1.0,
        -5.293955920339378e-23,
        0.0,
        0.0,
        5.293955920339378e-23,
        1.0,
        0.0,
        0.0,
        0.0,
        0.0,
        1.0
      ],
      "name": "Cube.004"
    },
    {
      "mesh": 1,
      "name": "Cube.004_Screen_0"
    },
    {
      "children": [
        8,
        9
      ],
      "matrix": [
        100.0,
        0.0,
        0.0,
        0.0,
        -0.0,
        -2.8212996916465727e-05,
        -99.99999999999602,
        0.0,
        0.0,
        99.99999999999602,
        -2.8212996916465727e-05,
        0.0,
        -135.6578826904297,
        0.0,
        0.0,
        1.0
      ],
      "name": "Cube.006"
    },
    {
      "mesh": 2,
      "name": "Cube.006_PADD_black_0"
    },
    {
      "children": [
        10
      ],
      "matrix": [
        1.0,
        0.0,
        0.0,
        0.0,
        0.0,
        1.0,
        -5.293955920339378e-23,
        0.0,
        0.0,
        5.293955920339378e-23,
        1.0,
        0.0,
        0.0,
        0.0,
        0.0,
        1.0
      ],
      "name": "Cube.005"
    },
    {
      "mesh": 3,
      "name": "Cube.005_Screen_0"
    },
    {
      "children": [
        12,
        13
      ],
      "matrix": [
        100.0,
        0.0,
        0.0,
        0.0,
        0.0,
        -2.8212996916465727e-05,
        -99.99999999999602,
        0.0,
        0.0,
        99.99999999999602,
        -2.8212996916465727e-05,
        0.0,
        445.2740783691406,
        0.0,
        0.0,
        1.0
      ],
      "name": "Cube.007"
    },
    {
      "mesh": 4,
      "name": "Cube.007_PADD_red_0"
    },
    {
      "children": [
        14
      ],
      "matrix": [
        1.0,
        0.0,
        0.0,
        0.0,
        0.0,
        1.0,
        -5.293955920339378e-23,
        0.0,
        0.0,
        5.293955920339378e-23,
        1.0,
        0.0,
        0.0,
        0.0,
        0.0,
        1.0
      ],
      "name": "Cube.008"
    },
    {
      "mesh": 5,
      "name": "Cube.008_Screen_0"
    },
    {
      "children": [
        16,
        17
      ],
      "matrix": [
        100.0,
        0.0,
        0.0,
        0.0,
        0.0,
        -2.8212996916465727e-05,
        -99.99999999999602,
        0.0,
        0.0,
        99.99999999999602,
        -2.8212996916465727e-05,
        0.0,
        150.7667236328125,
        0.0,
        0.0,
        1.0
      ],
      "name": "Cube.010"
    },
    {
      "mesh": 6,
      "name": "Cube.010_PADD_blue_0"
    },
    {
      "children": [
        18
      ],
      "matrix": [
        1.0,
        0.0,
        0.0,
        0.0,
        0.0,
        1.0,
        -5.293955920339378e-23,
        0.0,
        0.0,
        5.293955920339378e-23,
        1.0,
        0.0,
        0.0,
        0.0,
        0.0,
        1.0
      ],
      "name": "Cube.009"
    },
    {
      "mesh": 7,
      "name": "Cube.009_Screen_0"
    }
  ],
  "samplers": [
    {
      "magFilter": 9729,
      "minFilter": 9987,
      "wrapS": 10497,
      "wrapT": 10497
    }
  ],
  "scene": 0,
  "scenes": [
    {
      "name": "Sketchfab_Scene",
      "nodes": [
        0
      ]
    }
  ],
  "textures": [
    {
      "sampler": 0,
      "source": 0
    },
    {
      "sampler": 0,
      "source": 1
    },
    {
      "sampler": 0,
      "source": 2
    },
    {
      "sampler": 0,
      "source": 3
    },
    {
      "sampler": 0,
      "source": 4
    },
    {
      "sampler": 0,
      "source": 5
    },
    {
      "sampler": 0,
      "source": 6
    }
  ]
}
