{
  "accessors": [
    {
      "bufferView": 2,
      "componentType": 5126,
      "count": 1781,
      "max": [
        1.731058955192566,
        -2.5895609855651855,
        -0.14340700209140778
      ],
      "min": [
        -1.723114013671875,
        -2.5908889770507812,
        -0.5660179853439331
      ],
      "type": "VEC3"
    },
    {
      "bufferView": 2,
      "byteOffset": 21372,
      "componentType": 5126,
      "count": 1781,
      "max": [
        0.16990579664707184,
        -0.9838335514068604,
        0.0845017358660698
      ],
      "min": [
        -0.16990675032138824,
        -0.9999985694885254,
        -0.08399709314107895
      ],
      "type": "VEC3"
    },
    {
      "bufferView": 1,
      "componentType": 5126,
      "count": 1781,
      "max": [
        0.7245129942893982,
        0.8345310091972351
      ],
      "min": [
        0.5740799903869629,
        0.8013629913330078
      ],
      "type": "VEC2"
    },
    {
      "bufferView": 0,
      "componentType": 5125,
      "count": 8448,
      "type": "SCALAR"
    },
    {
      "bufferView": 2,
      "byteOffset": 42744,
      "componentType": 5126,
      "count": 7862,
      "max": [
        0.36567598581314087,
        0.23051999509334564,
        -0.040314000099897385
      ],
      "min": [
        -0.35789498686790466,
        -0.09594400227069855,
        -0.18346400558948517
      ],
      "type": "VEC3"
    },
    {
      "bufferView": 2,
      "byteOffset": 137088,
      "componentType": 5126,
      "count": 7862,
      "max": [
        0.5055148601531982,
        0.21560038626194,
        0.9659770131111145
      ],
      "min": [
        0.17539897561073303,
        -0.21560761332511902,
        -0.9659770131111145
      ],
      "type": "VEC3"
    },
    {
      "bufferView": 3,
      "componentType": 5126,
      "count": 7862,
      "max": [
        0.9710675477981567,
        0.9820733070373535,
        0.4496842622756958,
        1.0
      ],
      "min": [
        -0.9713006615638733,
        -0.7445363402366638,
        -0.397699773311615,
        -1.0
      ],
      "type": "VEC4"
    },
    {
      "bufferView": 1,
      "byteOffset": 14248,
      "componentType": 5126,
      "count": 7862,
      "max": [
        0.6767590045928955,
        0.772674024105072
      ],
      "min": [
        0.009424000047147274,
        0.4010860025882721
      ],
      "type": "VEC2"
    },
    {
      "bufferView": 0,
      "byteOffset": 33792,
      "componentType": 5125,
      "count": 44544,
      "type": "SCALAR"
    },
    {
      "bufferView": 2,
      "byteOffset": 231432,
      "componentType": 5126,
      "count": 65532,
      "max": [
        2.0284159183502197,
        5.248020172119141,
        0.06669700145721436
      ],
      "min": [
        -2.0364201068878174,
        -3.271773099899292,
        -0.6351029872894287
      ],
      "type": "VEC3"
    },
    {
      "bufferView": 2,
      "byteOffset": 1017816,
      "componentType": 5126,
      "count": 65532,
      "max": [
        0.9998310208320618,
        0.9999979734420776,
        0.9999982118606567
      ],
      "min": [
        -0.9834058284759521,
        -0.9999960660934448,
        -0.9999991655349731
      ],
      "type": "VEC3"
    },
    {
      "bufferView": 3,
      "byteOffset": 125792,
      "componentType": 5126,
      "count": 65532,
      "max": [
        0.9999725818634033,
        0.9997230768203735,
        0.999869704246521,
        1.0
      ],
      "min": [
        -1.0,
        -0.9999524354934692,
        -0.9977656602859497,
        -1.0
      ],
      "type": "VEC4"
    },
    {
      "bufferView": 1,
      "byteOffset": 77144,
      "componentType": 5126,
      "count": 65532,
      "max": [
        0.9971280097961426,
        0.9987329840660095
      ],
      "min": [
        0.005601000040769577,
        0.0078119998797774315
      ],
      "type": "VEC2"
    },
    {
      "bufferView": 0,
      "byteOffset": 211968,
      "componentType": 5125,
      "count": 374514,
      "type": "SCALAR"
    },
    {
      "bufferView": 2,
      "byteOffset": 1804200,
      "componentType": 5126,
      "count": 65532,
      "max": [
        1.7249490022659302,
        5.248932838439941,
        0.015262999571859837
      ],
      "min": [
        -1.8857489824295044,
        -5.46272087097168,
        -0.6699230074882507
      ],
      "type": "VEC3"
    },
    {
      "bufferView": 2,
      "byteOffset": 2590584,
      "componentType": 5126,
      "count": 65532,
      "max": [
        0.9999998807907104,
        1.0,
        0.9999998807907104
      ],
      "min": [
        -0.9999998807907104,
        -0.9999992847442627,
        -0.9999998807907104
      ],
      "type": "VEC3"
    },
    {
      "bufferView": 3,
      "byteOffset": 1174304,
      "componentType": 5126,
      "count": 65532,
      "max": [
        1.0,
        0.999934732913971,
        1.0,
        1.0
      ],
      "min": [
        -1.0,
        -0.9998616576194763,
        -1.0,
        -1.0
      ],
      "type": "VEC4"
    },
    {
      "bufferView": 1,
      "byteOffset": 601400,
      "componentType": 5126,
      "count": 65532,
      "max": [
        0.9849290251731873,
        0.9942790269851685
      ],
      "min": [
        0.004848000127822161,
        0.0157919991761446
      ],
      "type": "VEC2"
    },
    {
      "bufferView": 0,
      "byteOffset": 1710024,
      "componentType": 5125,
      "count": 375240,
      "type": "SCALAR"
    },
    {
      "bufferView": 2,
      "byteOffset": 3376968,
      "componentType": 5126,
      "count": 43166,
      "max": [
        1.7684710025787354,
        5.248927116394043,
        0.06635099649429321
      ],
      "min": [
        -2.0021369457244873,
        -3.251046895980835,
        -0.665028989315033
      ],
      "type": "VEC3"
    },
    {
      "bufferView": 2,
      "byteOffset": 3894960,
      "componentType": 5126,
      "count": 43166,
      "max": [
        1.0,
        1.0,
        1.0
      ],
      "min": [
        -1.0,
        -0.9987397789955139,
        -1.0
      ],
      "type": "VEC3"
    },
    {
      "bufferView": 3,
      "byteOffset": 2222816,
      "componentType": 5126,
      "count": 43166,
      "max": [
        1.0,
        1.0,
        1.0,
        1.0
      ],
      "min": [
        -1.0,
        -1.0,
        -1.0,
        -1.0
      ],
      "type": "VEC4"
    },
    {
      "bufferView": 1,
      "byteOffset": 1125656,
      "componentType": 5126,
      "count": 43166,
      "max": [
        0.9858909845352173,
        0.9966030120849609
      ],
      "min": [
        0.0,
        0.0
      ],
      "type": "VEC2"
    },
    {
      "bufferView": 0,
      "byteOffset": 3210984,
      "componentType": 5125,
      "count": 241926,
      "type": "SCALAR"
    }
  ],
  "asset": {
    "extras": {
      "author": "hobbit84 (https://sketchfab.com/hobbit84)",
      "license": "CC-BY-NC-4.0 (http://creativecommons.org/licenses/by-nc/4.0/)",
      "source": "https://sketchfab.com/3d-models/naboo-royal-starship-j-type-327-nubian-f631077977754b5591298ecfa201380b",
      "title": "Naboo Royal Starship (J-type 327 Nubian)"
    },
    "generator": "Sketchfab-12.68.0",
    "version": "2.0"
  },
  "bufferViews": [
    {
      "buffer": 0,
      "byteLength": 4178688,
      "name": "floatBufferViews",
      "target": 34963
    },
    {
      "buffer": 0,
      "byteLength": 1470984,
      "byteOffset": 4178688,
      "byteStride": 8,
      "name": "floatBufferViews",
      "target": 34962
    },
    {
      "buffer": 0,
      "byteLength": 4412952,
      "byteOffset": 5649672,
      "byteStride": 12,
      "name": "floatBufferViews",
      "target": 34962
    },
    {
      "buffer": 0,
      "byteLength": 2913472,
      "byteOffset": 10062624,
      "byteStride": 16,
      "name": "floatBufferViews",
      "target": 34962
    }
  ],
  "buffers": [
    {
      "byteLength": 12976096,
      "uri": "scene.bin"
    }
  ],
  "images": [
    {
      "uri": "textures/aiwindow.002_baseColor.png"
    },
    {
      "uri": "textures/aiwindow.002_metallicRoughness.png"
    },
    {
      "uri": "textures/aiwindow.002_normal.png"
    },
    {
      "uri": "textures/blinn1.002_baseColor.png"
    },
    {
      "uri": "textures/blinn1.002_metallicRoughness.png"
    },
    {
      "uri": "textures/blinn1.002_normal.png"
    }
  ],
  "materials": [
    {
      "doubleSided": true,
      "name": "Material.002",
      "pbrMetallicRoughness": {
        "baseColorFactor": [
          0.94,
          0.96,
          0.98,
          1.0
        ],
        "metallicFactor": 0.98,
        "roughnessFactor": 0.08
      }
    },
    {
      "doubleSided": true,
      "name": "aiwindow.002",
      "normalTexture": {
        "index": 2
      },
      "pbrMetallicRoughness": {
        "baseColorTexture": {
          "index": 0
        },
        "metallicRoughnessTexture": {
          "index": 1
        },
        "roughnessFactor": 0.6
      }
    },
    {
      "doubleSided": true,
      "name": "blinn1.002",
      "normalTexture": {
        "index": 5
      },
      "pbrMetallicRoughness": {
        "baseColorTexture": {
          "index": 3
        },
        "metallicRoughnessTexture": {
          "index": 4
        },
        "roughnessFactor": 0.08,
        "baseColorFactor": [
          0.94,
          0.96,
          0.98,
          1.0
        ],
        "metallicFactor": 0.98
      }
    }
  ],
  "meshes": [
    {
      "name": "Object_0",
      "primitives": [
        {
          "attributes": {
            "NORMAL": 1,
            "POSITION": 0,
            "TEXCOORD_0": 2
          },
          "indices": 3,
          "material": 0,
          "mode": 4
        }
      ]
    },
    {
      "name": "Object_1",
      "primitives": [
        {
          "attributes": {
            "NORMAL": 5,
            "POSITION": 4,
            "TANGENT": 6,
            "TEXCOORD_0": 7
          },
          "indices": 8,
          "material": 1,
          "mode": 4
        }
      ]
    },
    {
      "name": "Object_2",
      "primitives": [
        {
          "attributes": {
            "NORMAL": 10,
            "POSITION": 9,
            "TANGENT": 11,
            "TEXCOORD_0": 12
          },
          "indices": 13,
          "material": 2,
          "mode": 4
        }
      ]
    },
    {
      "name": "Object_3",
      "primitives": [
        {
          "attributes": {
            "NORMAL": 15,
            "POSITION": 14,
            "TANGENT": 16,
            "TEXCOORD_0": 17
          },
          "indices": 18,
          "material": 2,
          "mode": 4
        }
      ]
    },
    {
      "name": "Object_4",
      "primitives": [
        {
          "attributes": {
            "NORMAL": 20,
            "POSITION": 19,
            "TANGENT": 21,
            "TEXCOORD_0": 22
          },
          "indices": 23,
          "material": 2,
          "mode": 4
        }
      ]
    }
  ],
  "nodes": [
    {
      "children": [
        1
      ],
      "matrix": [
        -1.0,
        -2.832769343193999e-16,
        -4.504636734104249e-32,
        0.0,
        -2.770065955897755e-32,
        -6.123234262925839e-17,
        1.0,
        0.0,
        -2.832769343193999e-16,
        1.0,
        6.123234262925839e-17,
        0.0,
        -0.00800633430480957,
        -4.747016158385435e-17,
        0.21378660202026367,
        1.0
      ],
      "name": "Sketchfab_model"
    },
    {
      "children": [
        2,
        3,
        4,
        5,
        6
      ],
      "name": "J-type 327.obj.cleaner.materialmerger.gles"
    },
    {
      "mesh": 0,
      "name": "Object_2"
    },
    {
      "mesh": 1,
      "name": "Object_3"
    },
    {
      "mesh": 2,
      "name": "Object_4"
    },
    {
      "mesh": 3,
      "name": "Object_5"
    },
    {
      "mesh": 4,
      "name": "Object_6"
    }
  ],
  "samplers": [
    {
      "magFilter": 9729,
      "minFilter": 9987,
      "wrapS": 10497,
      "wrapT": 10497
    }
  ],
  "scene": 0,
  "scenes": [
    {
      "name": "Sketchfab_Scene",
      "nodes": [
        0
      ]
    }
  ],
  "textures": [
    {
      "sampler": 0,
      "source": 0
    },
    {
      "sampler": 0,
      "source": 1
    },
    {
      "sampler": 0,
      "source": 2
    },
    {
      "sampler": 0,
      "source": 3
    },
    {
      "sampler": 0,
      "source": 4
    },
    {
      "sampler": 0,
      "source": 5
    }
  ]
}