{
  "accessors": [
    {
      "bufferView": 2,
      "componentType": 5126,
      "count": 2864,
      "max": [
        330.4599914550781,
        29.53499984741211,
        404.8299865722656
      ],
      "min": [
        -330.4599914550781,
        -54.27560043334961,
        185.7270050048828
      ],
      "type": "VEC3"
    },
    {
      "bufferView": 2,
      "byteOffset": 34368,
      "componentType": 5126,
      "count": 2864,
      "max": [
        1.0,
        0.9999970197677612,
        1.0
      ],
      "min": [
        -1.0,
        -1.0,
        -0.9999988675117493
      ],
      "type": "VEC3"
    },
    {
      "bufferView": 1,
      "componentType": 5126,
      "count": 2864,
      "max": [
        1.0,
        1.0
      ],
      "min": [
        -0.2500019967556,
        1.1920899822825959e-07
      ],
      "type": "VEC2"
    },
    {
      "bufferView": 0,
      "componentType": 5125,
      "count": 13248,
      "type": "SCALAR"
    },
    {
      "bufferView": 2,
      "byteOffset": 68736,
      "componentType": 5126,
      "count": 2192,
      "max": [
        330.4309997558594,
        29.505800247192383,
        345.74700927734375
      ],
      "min": [
        -330.4309997558594,
        -54.24639892578125,
        85.28350067138672
      ],
      "type": "VEC3"
    },
    {
      "bufferView": 2,
      "byteOffset": 95040,
      "componentType": 5126,
      "count": 2192,
      "max": [
        0.9998703598976135,
        0.9998736381530762,
        0.16765300929546356
      ],
      "min": [
        -0.9998703598976135,
        -0.9998736381530762,
        -1.0
      ],
      "type": "VEC3"
    },
    {
      "bufferView": 1,
      "byteOffset": 22912,
      "componentType": 5126,
      "count": 2192,
      "max": [
        1.0,
        1.0
      ],
      "min": [
        -0.021947000175714493,
        0.0
      ],
      "type": "VEC2"
    },
    {
      "bufferView": 0,
      "byteOffset": 52992,
      "componentType": 5125,
      "count": 9120,
      "type": "SCALAR"
    },
    {
      "bufferView": 2,
      "byteOffset": 121344,
      "componentType": 5126,
      "count": 1810,
      "max": [
        8.552720069885254,
        18.84119987487793,
        100.40499877929688
      ],
      "min": [
        -630.698974609375,
        -43.5817985534668,
        -177.31500244140625
      ],
      "type": "VEC3"
    },
    {
      "bufferView": 2,
      "byteOffset": 143064,
      "componentType": 5126,
      "count": 1810,
      "max": [
        0.9999904632568359,
        0.9999906420707703,
        0.5118211507797241
      ],
      "min": [
        -0.9999904632568359,
        -0.9999906420707703,
        -0.9999327659606934
      ],
      "type": "VEC3"
    },
    {
      "bufferView": 1,
      "byteOffset": 40448,
      "componentType": 5126,
      "count": 1810,
      "max": [
        0.9970600008964539,
        1.0
      ],
      "min": [
        -0.2497899979352951,
        0.0
      ],
      "type": "VEC2"
    },
    {
      "bufferView": 0,
      "byteOffset": 89472,
      "componentType": 5125,
      "count": 9510,
      "type": "SCALAR"
    },
    {
      "bufferView": 2,
      "byteOffset": 164784,
      "componentType": 5126,
      "count": 2398,
      "max": [
        34.214900970458984,
        74.19100189208984,
        45.239498138427734
      ],
      "min": [
        -34.21500015258789,
        43.78369903564453,
        -97.63500213623047
      ],
      "type": "VEC3"
    },
    {
      "bufferView": 2,
      "byteOffset": 193560,
      "componentType": 5126,
      "count": 2398,
      "max": [
        0.9411370158195496,
        0.9986293315887451,
        0.9987946152687073
      ],
      "min": [
        -0.941132664680481,
        -0.998629093170166,
        -0.8888826966285706
      ],
      "type": "VEC3"
    },
    {
      "bufferView": 1,
      "byteOffset": 54928,
      "componentType": 5126,
      "count": 2398,
      "max": [
        1.0,
        1.0
      ],
      "min": [
        0.0,
        0.0
      ],
      "type": "VEC2"
    },
    {
      "bufferView": 0,
      "byteOffset": 127512,
      "componentType": 5125,
      "count": 7272,
      "type": "SCALAR"
    },
    {
      "bufferView": 2,
      "byteOffset": 222336,
      "componentType": 5126,
      "count": 1597,
      "max": [
        35.58729934692383,
        75.11370086669922,
        48.69260025024414
      ],
      "min": [
        -35.58729934692383,
        43.180999755859375,
        -99.6177978515625
      ],
      "type": "VEC3"
    },
    {
      "bufferView": 2,
      "byteOffset": 241500,
      "componentType": 5126,
      "count": 1597,
      "max": [
        0.9448765516281128,
        1.0,
        0.9365946054458618
      ],
      "min": [
        -0.9448765516281128,
        -1.0,
        -0.9411335587501526
      ],
      "type": "VEC3"
    },
    {
      "bufferView": 1,
      "byteOffset": 74112,
      "componentType": 5126,
      "count": 1597,
      "max": [
        0.3614409863948822,
        0.8924880027770996
      ],
      "min": [
        0.0005280000041238964,
        0.3624579906463623
      ],
      "type": "VEC2"
    },
    {
      "bufferView": 0,
      "byteOffset": 156600,
      "componentType": 5125,
      "count": 5124,
      "type": "SCALAR"
    },
    {
      "bufferView": 2,
      "byteOffset": 260664,
      "componentType": 5126,
      "count": 1457,
      "max": [
        5.052700042724609,
        48.77980041503906,
        45.75019836425781
      ],
      "min": [
        -5.052710056304932,
        44.71780014038086,
        33.5536994934082
      ],
      "type": "VEC3"
    },
    {
      "bufferView": 2,
      "byteOffset": 278148,
      "componentType": 5126,
      "count": 1457,
      "max": [
        1.0,
        1.0,
        0.6477448344230652
      ],
      "min": [
        -1.0,
        -1.0,
        -0.7004258632659912
      ],
      "type": "VEC3"
    },
    {
      "bufferView": 1,
      "byteOffset": 86888,
      "componentType": 5126,
      "count": 1457,
      "max": [
        1.0,
        1.0211000442504883
      ],
      "min": [
        0.0,
        -0.021100999787449837
      ],
      "type": "VEC2"
    },
    {
      "bufferView": 0,
      "byteOffset": 177096,
      "componentType": 5125,
      "count": 4329,
      "type": "SCALAR"
    },
    {
      "bufferView": 2,
      "byteOffset": 295632,
      "componentType": 5126,
      "count": 2092,
      "max": [
        16.11389923095703,
        49.59109878540039,
        46.070499420166016
      ],
      "min": [
        -16.11400032043457,
        44.600101470947266,
        21.225799560546875
      ],
      "type": "VEC3"
    },
    {
      "bufferView": 2,
      "byteOffset": 320736,
      "componentType": 5126,
      "count": 2092,
      "max": [
        1.0,
        1.0,
        0.9953112602233887
      ],
      "min": [
        -1.0,
        -1.0,
        -0.8644092679023743
      ],
      "type": "VEC3"
    },
    {
      "bufferView": 1,
      "byteOffset": 98544,
      "componentType": 5126,
      "count": 2092,
      "max": [
        0.5299990177154541,
        0.9881370067596436
      ],
      "min": [
        0.382097989320755,
        0.39205801486968994
      ],
      "type": "VEC2"
    },
    {
      "bufferView": 0,
      "byteOffset": 194412,
      "componentType": 5125,
      "count": 6228,
      "type": "SCALAR"
    },
    {
      "bufferView": 2,
      "byteOffset": 345840,
      "componentType": 5126,
      "count": 80,
      "max": [
        34.19139862060547,
        46.50270080566406,
        -33.63880157470703
      ],
      "min": [
        -34.19139862060547,
        43.17890167236328,
        -66.8550033569336
      ],
      "type": "VEC3"
    },
    {
      "bufferView": 2,
      "byteOffset": 346800,
      "componentType": 5126,
      "count": 80,
      "max": [
        1.0,
        1.0,
        1.0
      ],
      "min": [
        -1.0,
        -1.0,
        -1.0
      ],
      "type": "VEC3"
    },
    {
      "bufferView": 1,
      "byteOffset": 115280,
      "componentType": 5126,
      "count": 80,
      "max": [
        0.28171199560165405,
        0.41759198904037476
      ],
      "min": [
        0.2008810043334961,
        0.36242198944091797
      ],
      "type": "VEC2"
    },
    {
      "bufferView": 0,
      "byteOffset": 219324,
      "componentType": 5125,
      "count": 120,
      "type": "SCALAR"
    },
    {
      "bufferView": 2,
      "byteOffset": 347760,
      "componentType": 5126,
      "count": 848,
      "max": [
        29.80500030517578,
        43.716800689697266,
        -30.936399459838867
      ],
      "min": [
        -29.80500030517578,
        36.216400146484375,
        -66.29560089111328
      ],
      "type": "VEC3"
    },
    {
      "bufferView": 2,
      "byteOffset": 357936,
      "componentType": 5126,
      "count": 848,
      "max": [
        1.0,
        1.0,
        1.0
      ],
      "min": [
        -1.0,
        -1.0,
        -1.0
      ],
      "type": "VEC3"
    },
    {
      "bufferView": 1,
      "byteOffset": 115920,
      "componentType": 5126,
      "count": 848,
      "max": [
        0.28035101294517517,
        0.3713510036468506
      ],
      "min": [
        0.19430500268936157,
        0.24685600399971008
      ],
      "type": "VEC2"
    },
    {
      "bufferView": 0,
      "byteOffset": 219804,
      "componentType": 5125,
      "count": 1872,
      "type": "SCALAR"
    },
    {
      "bufferView": 2,
      "byteOffset": 368112,
      "componentType": 5126,
      "count": 68,
      "max": [
        32.68040084838867,
        72.10669708251953,
        53.68330001831055
      ],
      "min": [
        -32.68040084838867,
        -42.90639877319336,
        -98.37449645996094
      ],
      "type": "VEC3"
    },
    {
      "bufferView": 2,
      "byteOffset": 368928,
      "componentType": 5126,
      "count": 68,
      "max": [
        0.9994983673095703,
        0.9993676543235779,
        0.9377106428146362
      ],
      "min": [
        -0.9994562268257141,
        -0.751684844493866,
        -0.9999788999557495
      ],
      "type": "VEC3"
    },
    {
      "bufferView": 1,
      "byteOffset": 122704,
      "componentType": 5126,
      "count": 68,
      "max": [
        1.0,
        1.0
      ],
      "min": [
        0.0,
        0.0
      ],
      "type": "VEC2"
    },
    {
      "bufferView": 0,
      "byteOffset": 227292,
      "componentType": 5125,
      "count": 177,
      "type": "SCALAR"
    },
    {
      "bufferView": 2,
      "byteOffset": 369744,
      "componentType": 5126,
      "count": 376,
      "max": [
        33.48400115966797,
        73.2300033569336,
        -86.68360137939453
      ],
      "min": [
        -33.48400115966797,
        42.598899841308594,
        -103.43299865722656
      ],
      "type": "VEC3"
    },
    {
      "bufferView": 2,
      "byteOffset": 374256,
      "componentType": 5126,
      "count": 376,
      "max": [
        1.0,
        1.0,
        0.9682379961013794
      ],
      "min": [
        -1.0,
        -1.0,
        -0.9431838989257813
      ],
      "type": "VEC3"
    },
    {
      "bufferView": 1,
      "byteOffset": 123248,
      "componentType": 5126,
      "count": 376,
      "max": [
        1.0,
        1.0070600509643555
      ],
      "min": [
        0.0,
        -0.05783490091562271
      ],
      "type": "VEC2"
    },
    {
      "bufferView": 0,
      "byteOffset": 228000,
      "componentType": 5125,
      "count": 882,
      "type": "SCALAR"
    },
    {
      "bufferView": 2,
      "byteOffset": 378768,
      "componentType": 5126,
      "count": 96,
      "max": [
        30.479000091552734,
        43.46440124511719,
        -15.844200134277344
      ],
      "min": [
        -30.479000091552734,
        41.67210006713867,
        -90.04930114746094
      ],
      "type": "VEC3"
    },
    {
      "bufferView": 2,
      "byteOffset": 379920,
      "componentType": 5126,
      "count": 96,
      "max": [
        0.9986295104026794,
        1.0,
        0.9986306428909302
      ],
      "min": [
        -0.9986295104026794,
        -1.0,
        -0.9986292123794556
      ],
      "type": "VEC3"
    },
    {
      "bufferView": 1,
      "byteOffset": 126256,
      "componentType": 5126,
      "count": 96,
      "max": [
        0.9958850145339966,
        0.9925649762153625
      ],
      "min": [
        0.004435000009834766,
        0.00716305011883378
      ],
      "type": "VEC2"
    },
    {
      "bufferView": 0,
      "byteOffset": 231528,
      "componentType": 5125,
      "count": 144,
      "type": "SCALAR"
    },
    {
      "bufferView": 2,
      "byteOffset": 381072,
      "componentType": 5126,
      "count": 2569,
      "max": [
        18.896699905395508,
        70.3584976196289,
        -81.20010375976563
      ],
      "min": [
        -18.88479995727539,
        32.715301513671875,
        -101.03099822998047
      ],
      "type": "VEC3"
    },
    {
      "bufferView": 2,
      "byteOffset": 411900,
      "componentType": 5126,
      "count": 2569,
      "max": [
        0.9997456669807434,
        0.9999207854270935,
        0.9999454617500305
      ],
      "min": [
        -0.9997521042823792,
        -0.9979031085968018,
        -0.9999412298202515
      ],
      "type": "VEC3"
    },
    {
      "bufferView": 1,
      "byteOffset": 127024,
      "componentType": 5126,
      "count": 2569,
      "max": [
        0.8400390148162842,
        1.0273200273513794
      ],
      "min": [
        0.16013799607753754,
        -0.017968900501728058
      ],
      "type": "VEC2"
    },
    {
      "bufferView": 0,
      "byteOffset": 232104,
      "componentType": 5125,
      "count": 7413,
      "type": "SCALAR"
    },
    {
      "bufferView": 2,
      "byteOffset": 442728,
      "componentType": 5126,
      "count": 840,
      "max": [
        27.693500518798828,
        53.29970169067383,
        -86.3916015625
      ],
      "min": [
        -27.693500518798828,
        48.46659851074219,
        -89.47699737548828
      ],
      "type": "VEC3"
    },
    {
      "bufferView": 2,
      "byteOffset": 452808,
      "componentType": 5126,
      "count": 840,
      "max": [
        1.0,
        0.9958152174949646,
        0.9757887721061707
      ],
      "min": [
        -1.0,
        -0.9478663802146912,
        -0.9864903688430786
      ],
      "type": "VEC3"
    },
    {
      "bufferView": 1,
      "byteOffset": 147576,
      "componentType": 5126,
      "count": 840,
      "max": [
        0.998341977596283,
        0.5025429725646973
      ],
      "min": [
        0.0016210000030696392,
        0.37880900502204895
      ],
      "type": "VEC2"
    },
    {
      "bufferView": 0,
      "byteOffset": 261756,
      "componentType": 5125,
      "count": 2898,
      "type": "SCALAR"
    },
    {
      "bufferView": 2,
      "byteOffset": 462888,
      "componentType": 5126,
      "count": 184,
      "max": [
        27.786500930786133,
        53.03670120239258,
        -87.45580291748047
      ],
      "min": [
        -27.784500122070313,
        45.78369903564453,
        -95.63179779052734
      ],
      "type": "VEC3"
    },
    {
      "bufferView": 2,
      "byteOffset": 465096,
      "componentType": 5126,
      "count": 184,
      "max": [
        1.0,
        0.9987316131591797,
        0.9969697594642639
      ],
      "min": [
        -1.0,
        -0.9986223578453064,
        -0.9792987704277039
      ],
      "type": "VEC3"
    },
    {
      "bufferView": 1,
      "byteOffset": 154296,
      "componentType": 5126,
      "count": 184,
      "max": [
        1.0000200271606445,
        0.5132480263710022
      ],
      "min": [
        -1.700000029813964e-05,
        0.35130101442337036
      ],
      "type": "VEC2"
    },
    {
      "bufferView": 0,
      "byteOffset": 273348,
      "componentType": 5125,
      "count": 546,
      "type": "SCALAR"
    },
    {
      "bufferView": 2,
      "byteOffset": 467304,
      "componentType": 5126,
      "count": 234,
      "max": [
        22.250499725341797,
        37.329898834228516,
        -59.130001068115234
      ],
      "min": [
        -22.082700729370117,
        -16.568599700927734,
        -81.65170288085938
      ],
      "type": "VEC3"
    },
    {
      "bufferView": 2,
      "byteOffset": 470112,
      "componentType": 5126,
      "count": 234,
      "max": [
        0.9635668992996216,
        0.9949767589569092,
        0.9984173774719238
      ],
      "min": [
        -0.9553658962249756,
        -0.9893494844436646,
        -0.9972687363624573
      ],
      "type": "VEC3"
    },
    {
      "bufferView": 1,
      "byteOffset": 155768,
      "componentType": 5126,
      "count": 234,
      "max": [
        0.0,
        1.0
      ],
      "min": [
        0.0,
        1.0
      ],
      "type": "VEC2"
    },
    {
      "bufferView": 0,
      "byteOffset": 275532,
      "componentType": 5125,
      "count": 1392,
      "type": "SCALAR"
    },
    {
      "bufferView": 2,
      "byteOffset": 472920,
      "componentType": 5126,
      "count": 354,
      "max": [
        21.14299964904785,
        -20.684600830078125,
        -16.216400146484375
      ],
      "min": [
        -21.141000747680664,
        -30.430299758911133,
        -60.57749938964844
      ],
      "type": "VEC3"
    },
    {
      "bufferView": 2,
      "byteOffset": 477168,
      "componentType": 5126,
      "count": 354,
      "max": [
        0.9998864531517029,
        0.9999593496322632,
        0.9940800070762634
      ],
      "min": [
        -0.9998860955238342,
        -0.999861478805542,
        -0.9999984502792358
      ],
      "type": "VEC3"
    },
    {
      "bufferView": 1,
      "byteOffset": 157640,
      "componentType": 5126,
      "count": 354,
      "max": [
        0.0,
        1.0
      ],
      "min": [
        0.0,
        1.0
      ],
      "type": "VEC2"
    },
    {
      "bufferView": 0,
      "byteOffset": 281100,
      "componentType": 5125,
      "count": 2112,
      "type": "SCALAR"
    },
    {
      "bufferView": 2,
      "byteOffset": 481416,
      "componentType": 5126,
      "count": 1442,
      "max": [
        10.72760009765625,
        64.19129943847656,
        -79.44429779052734
      ],
      "min": [
        -10.725299835205078,
        44.19169998168945,
        -88.4541015625
      ],
      "type": "VEC3"
    },
    {
      "bufferView": 2,
      "byteOffset": 498720,
      "componentType": 5126,
      "count": 1442,
      "max": [
        0.9975443482398987,
        0.9953264594078064,
        0.999937117099762
      ],
      "min": [
        -0.9975121021270752,
        -0.9985764622688293,
        -0.9910463690757751
      ],
      "type": "VEC3"
    },
    {
      "bufferView": 1,
      "byteOffset": 160472,
      "componentType": 5126,
      "count": 1442,
      "max": [
        0.0,
        1.0
      ],
      "min": [
        0.0,
        1.0
      ],
      "type": "VEC2"
    },
    {
      "bufferView": 0,
      "byteOffset": 289548,
      "componentType": 5125,
      "count": 8592,
      "type": "SCALAR"
    },
    {
      "bufferView": 2,
      "byteOffset": 516024,
      "componentType": 5126,
      "count": 62,
      "max": [
        23.097000122070313,
        47.32120132446289,
        25.92530059814453
      ],
      "min": [
        -23.912799835205078,
        32.21900177001953,
        -18.989599227905273
      ],
      "type": "VEC3"
    },
    {
      "bufferView": 2,
      "byteOffset": 516768,
      "componentType": 5126,
      "count": 62,
      "max": [
        1.0,
        1.0,
        0.1078590378165245
      ],
      "min": [
        -1.0,
        0.0,
        0.0
      ],
      "type": "VEC3"
    },
    {
      "bufferView": 1,
      "byteOffset": 172008,
      "componentType": 5126,
      "count": 62,
      "max": [
        1.0,
        0.8823419809341431
      ],
      "min": [
        -5.96045985901128e-08,
        0.011708400212228298
      ],
      "type": "VEC2"
    },
    {
      "bufferView": 0,
      "byteOffset": 323916,
      "componentType": 5125,
      "count": 150,
      "type": "SCALAR"
    },
    {
      "bufferView": 2,
      "byteOffset": 517512,
      "componentType": 5126,
      "count": 650,
      "max": [
        19.383699417114258,
        52.746700286865234,
        23.140499114990234
      ],
      "min": [
        -20.199499130249023,
        30.237300872802734,
        -23.170900344848633
      ],
      "type": "VEC3"
    },
    {
      "bufferView": 2,
      "byteOffset": 525312,
      "componentType": 5126,
      "count": 650,
      "max": [
        0.9980267882347107,
        0.9816328883171082,
        0.9226058721542358
      ],
      "min": [
        -0.9980267882347107,
        -0.973887026309967,
        -0.9222696423530579
      ],
      "type": "VEC3"
    },
    {
      "bufferView": 1,
      "byteOffset": 172504,
      "componentType": 5126,
      "count": 650,
      "max": [
        0.9210100173950195,
        0.9553560018539429
      ],
      "min": [
        0.07898920029401779,
        0.06289210170507431
      ],
      "type": "VEC2"
    },
    {
      "bufferView": 0,
      "byteOffset": 324516,
      "componentType": 5125,
      "count": 1950,
      "type": "SCALAR"
    },
    {
      "bufferView": 2,
      "byteOffset": 533112,
      "componentType": 5126,
      "count": 599,
      "max": [
        24.75160026550293,
        47.148101806640625,
        6.7345499992370605
      ],
      "min": [
        -25.369800567626953,
        25.75819969177246,
        -21.288000106811523
      ],
      "type": "VEC3"
    },
    {
      "bufferView": 2,
      "byteOffset": 540300,
      "componentType": 5126,
      "count": 599,
      "max": [
        1.0,
        0.9909759759902954,
        0.9037060141563416
      ],
      "min": [
        -1.0,
        -0.9895259737968445,
        -0.995319128036499
      ],
      "type": "VEC3"
    },
    {
      "bufferView": 1,
      "byteOffset": 177704,
      "componentType": 5126,
      "count": 599,
      "max": [
        0.998852014541626,
        0.7772579789161682
      ],
      "min": [
        -0.0011480000102892518,
        -0.0037989600095897913
      ],
      "type": "VEC2"
    },
    {
      "bufferView": 0,
      "byteOffset": 332316,
      "componentType": 5125,
      "count": 1224,
      "type": "SCALAR"
    },
    {
      "bufferView": 2,
      "byteOffset": 547488,
      "componentType": 5126,
      "count": 8684,
      "max": [
        17.669200897216797,
        52.74919891357422,
        -15.993000030517578
      ],
      "min": [
        -18.484899520874023,
        36.9911003112793,
        -22.775400161743164
      ],
      "type": "VEC3"
    },
    {
      "bufferView": 2,
      "byteOffset": 651696,
      "componentType": 5126,
      "count": 8684,
      "max": [
        1.0,
        0.9987943768501282,
        0.999997615814209
      ],
      "min": [
        -1.0,
        -0.9990620017051697,
        -0.9928684830665588
      ],
      "type": "VEC3"
    },
    {
      "bufferView": 1,
      "byteOffset": 182496,
      "componentType": 5126,
      "count": 8684,
      "max": [
        3.343240034516737e+38,
        3.2226700336832535e+38
      ],
      "min": [
        -3.1826400616171985e+38,
        -8.538339719234693e+37
      ],
      "type": "VEC2"
    },
    {
      "bufferView": 0,
      "byteOffset": 337212,
      "componentType": 5125,
      "count": 15027,
      "type": "SCALAR"
    },
    {
      "bufferView": 2,
      "byteOffset": 755904,
      "componentType": 5126,
      "count": 312,
      "max": [
        24.742399215698242,
        45.01150131225586,
        28.558700561523438
      ],
      "min": [
        -25.374399185180664,
        24.728500366210938,
        -18.33930015563965
      ],
      "type": "VEC3"
    },
    {
      "bufferView": 2,
      "byteOffset": 759648,
      "componentType": 5126,
      "count": 312,
      "max": [
        0.9743417501449585,
        1.0,
        0.991621732711792
      ],
      "min": [
        -0.9640262126922607,
        -0.9995222091674805,
        -0.1289999783039093
      ],
      "type": "VEC3"
    },
    {
      "bufferView": 1,
      "byteOffset": 251968,
      "componentType": 5126,
      "count": 312,
      "max": [
        0.5686060190200806,
        0.886676013469696
      ],
      "min": [
        0.3823150098323822,
        0.0849049985408783
      ],
      "type": "VEC2"
    },
    {
      "bufferView": 0,
      "byteOffset": 397320,
      "componentType": 5125,
      "count": 672,
      "type": "SCALAR"
    },
    {
      "bufferView": 2,
      "byteOffset": 763392,
      "componentType": 5126,
      "count": 700,
      "max": [
        19.383699417114258,
        50.310298919677734,
        -20.328399658203125
      ],
      "min": [
        -20.199399948120117,
        35.3317985534668,
        -25.02790069580078
      ],
      "type": "VEC3"
    },
    {
      "bufferView": 2,
      "byteOffset": 771792,
      "componentType": 5126,
      "count": 700,
      "max": [
        0.9980267882347107,
        0.9993019104003906,
        0.19082596898078918
      ],
      "min": [
        -0.9980267882347107,
        -0.9738907814025879,
        -0.9995771050453186
      ],
      "type": "VEC3"
    },
    {
      "bufferView": 1,
      "byteOffset": 254464,
      "componentType": 5126,
      "count": 700,
      "max": [
        0.9766070246696472,
        0.9827409982681274
      ],
      "min": [
        0.008937999606132507,
        0.017356999218463898
      ],
      "type": "VEC2"
    },
    {
      "bufferView": 0,
      "byteOffset": 400008,
      "componentType": 5125,
      "count": 3300,
      "type": "SCALAR"
    },
    {
      "bufferView": 2,
      "byteOffset": 780192,
      "componentType": 5126,
      "count": 18657,
      "max": [
        26.128400802612305,
        111.76599884033203,
        -111.16999816894531
      ],
      "min": [
        -26.128400802612305,
        79.7886962890625,
        -166.77499389648438
      ],
      "type": "VEC3"
    },
    {
      "bufferView": 2,
      "byteOffset": 1004076,
      "componentType": 5126,
      "count": 18657,
      "max": [
        1.0,
        1.0,
        1.0
      ],
      "min": [
        -1.0,
        -1.0,
        -1.0
      ],
      "type": "VEC3"
    },
    {
      "bufferView": 1,
      "byteOffset": 260064,
      "componentType": 5126,
      "count": 18657,
      "max": [
        1.0078099966049194,
        1.0354299545288086
      ],
      "min": [
        -0.012567000463604927,
        -0.002395869931206107
      ],
      "type": "VEC2"
    },
    {
      "bufferView": 0,
      "byteOffset": 413208,
      "componentType": 5125,
      "count": 73164,
      "type": "SCALAR"
    },
    {
      "bufferView": 2,
      "byteOffset": 1227960,
      "componentType": 5126,
      "count": 2174,
      "max": [
        15.752099990844727,
        110.73200225830078,
        -122.4280014038086
      ],
      "min": [
        -15.664899826049805,
        104.73600006103516,
        -153.8300018310547
      ],
      "type": "VEC3"
    },
    {
      "bufferView": 2,
      "byteOffset": 1254048,
      "componentType": 5126,
      "count": 2174,
      "max": [
        1.0,
        1.0,
        1.0
      ],
      "min": [
        -1.0,
        -0.4875510632991791,
        -1.0
      ],
      "type": "VEC3"
    },
    {
      "bufferView": 1,
      "byteOffset": 409320,
      "componentType": 5126,
      "count": 2174,
      "max": [
        1.0,
        1.0
      ],
      "min": [
        0.0,
        0.0
      ],
      "type": "VEC2"
    },
    {
      "bufferView": 0,
      "byteOffset": 705864,
      "componentType": 5125,
      "count": 8841,
      "type": "SCALAR"
    },
    {
      "bufferView": 2,
      "byteOffset": 1280136,
      "componentType": 5126,
      "count": 4567,
      "max": [
        25.970300674438477,
        103.6989974975586,
        -111.97699737548828
      ],
      "min": [
        -25.903400421142578,
        85.50160217285156,
        -164.1179962158203
      ],
      "type": "VEC3"
    },
    {
      "bufferView": 2,
      "byteOffset": 1334940,
      "componentType": 5126,
      "count": 4567,
      "max": [
        1.0,
        1.0,
        0.9990354776382446
      ],
      "min": [
        -1.0,
        -1.0,
        -0.9981771111488342
      ],
      "type": "VEC3"
    },
    {
      "bufferView": 1,
      "byteOffset": 426712,
      "componentType": 5126,
      "count": 4567,
      "max": [
        0.997967004776001,
        0.7301440238952637
      ],
      "min": [
        -0.0026740001048892736,
        0.027518000453710556
      ],
      "type": "VEC2"
    },
    {
      "bufferView": 0,
      "byteOffset": 741228,
      "componentType": 5125,
      "count": 16428,
      "type": "SCALAR"
    },
    {
      "bufferView": 2,
      "byteOffset": 1389744,
      "componentType": 5126,
      "count": 282,
      "max": [
        4.64484977722168,
        102.23600006103516,
        -113.90299987792969
      ],
      "min": [
        -4.690690040588379,
        94.57599639892578,
        -119.2750015258789
      ],
      "type": "VEC3"
    },
    {
      "bufferView": 2,
      "byteOffset": 1393128,
      "componentType": 5126,
      "count": 282,
      "max": [
        1.0,
        0.8546358346939087,
        0.980679452419281
      ],
      "min": [
        -1.0,
        -0.8546376824378967,
        -0.9806826114654541
      ],
      "type": "VEC3"
    },
    {
      "bufferView": 1,
      "byteOffset": 463248,
      "componentType": 5126,
      "count": 282,
      "max": [
        0.2563999891281128,
        0.726019024848938
      ],
      "min": [
        0.2436619997024536,
        0.7201780080795288
      ],
      "type": "VEC2"
    },
    {
      "bufferView": 0,
      "byteOffset": 806940,
      "componentType": 5125,
      "count": 1440,
      "type": "SCALAR"
    },
    {
      "bufferView": 2,
      "byteOffset": 1396512,
      "componentType": 5126,
      "count": 146,
      "max": [
        0.3332340121269226,
        91.67649841308594,
        -113.09200286865234
      ],
      "min": [
        -5.370069980621338,
        85.93409729003906,
        -115.92400360107422
      ],
      "type": "VEC3"
    },
    {
      "bufferView": 2,
      "byteOffset": 1398264,
      "componentType": 5126,
      "count": 146,
      "max": [
        0.9661681056022644,
        0.9512495398521423,
        0.9979730248451233
      ],
      "min": [
        -0.9661669731140137,
        -0.9512506127357483,
        -0.997973620891571
      ],
      "type": "VEC3"
    },
    {
      "bufferView": 1,
      "byteOffset": 465504,
      "componentType": 5126,
      "count": 146,
      "max": [
        0.2574799954891205,
        0.7149789929389954
      ],
      "min": [
        0.24953800439834595,
        0.7047709822654724
      ],
      "type": "VEC2"
    },
    {
      "bufferView": 0,
      "byteOffset": 812700,
      "componentType": 5125,
      "count": 576,
      "type": "SCALAR"
    },
    {
      "bufferView": 2,
      "byteOffset": 1400016,
      "componentType": 5126,
      "count": 18,
      "max": [
        10.541099548339844,
        93.4822998046875,
        -113.60700225830078
      ],
      "min": [
        8.009039878845215,
        87.87680053710938,
        -115.63800048828125
      ],
      "type": "VEC3"
    },
    {
      "bufferView": 2,
      "byteOffset": 1400232,
      "componentType": 5126,
      "count": 18,
      "max": [
        -0.27722787857055664,
        -0.11827802658081055,
        -0.8442497253417969
      ],
      "min": [
        -0.40971121191978455,
        -0.3745989203453064,
        -0.9468952417373657
      ],
      "type": "VEC3"
    },
    {
      "bufferView": 1,
      "byteOffset": 466672,
      "componentType": 5126,
      "count": 18,
      "max": [
        0.950357973575592,
        0.9423059821128845
      ],
      "min": [
        0.07017599791288376,
        0.05769209936261177
      ],
      "type": "VEC2"
    },
    {
      "bufferView": 0,
      "byteOffset": 815004,
      "componentType": 5125,
      "count": 48,
      "type": "SCALAR"
    },
    {
      "bufferView": 2,
      "byteOffset": 1400448,
      "componentType": 5126,
      "count": 61,
      "max": [
        -11.410900115966797,
        91.26940155029297,
        -112.35199737548828
      ],
      "min": [
        -13.759599685668945,
        88.70890045166016,
        -113.75700378417969
      ],
      "type": "VEC3"
    },
    {
      "bufferView": 2,
      "byteOffset": 1401180,
      "componentType": 5126,
      "count": 61,
      "max": [
        -0.18032699823379517,
        0.5191611051559448,
        0.972736120223999
      ],
      "min": [
        -0.7332756519317627,
        -0.10887497663497925,
        0.6382380127906799
      ],
      "type": "VEC3"
    },
    {
      "bufferView": 1,
      "byteOffset": 466816,
      "componentType": 5126,
      "count": 61,
      "max": [
        0.26916998624801636,
        0.7151989936828613
      ],
      "min": [
        0.2660990059375763,
        0.7108590006828308
      ],
      "type": "VEC2"
    },
    {
      "bufferView": 0,
      "byteOffset": 815196,
      "componentType": 5125,
      "count": 270,
      "type": "SCALAR"
    },
    {
      "bufferView": 2,
      "byteOffset": 1401912,
      "componentType": 5126,
      "count": 61,
      "max": [
        8.756250381469727,
        91.26940155029297,
        -164.97799682617188
      ],
      "min": [
        6.094840049743652,
        88.70880126953125,
        -165.6439971923828
      ],
      "type": "VEC3"
    },
    {
      "bufferView": 2,
      "byteOffset": 1402644,
      "componentType": 5126,
      "count": 61,
      "max": [
        0.24005703628063202,
        0.10887502133846283,
        0.9998115301132202
      ],
      "min": [
        -0.3868369162082672,
        -0.5191910862922668,
        0.8475891947746277
      ],
      "type": "VEC3"
    },
    {
      "bufferView": 1,
      "byteOffset": 467304,
      "componentType": 5126,
      "count": 61,
      "max": [
        0.2441360056400299,
        0.6606960296630859
      ],
      "min": [
        0.24157199263572693,
        0.656436026096344
      ],
      "type": "VEC2"
    },
    {
      "bufferView": 0,
      "byteOffset": 816276,
      "componentType": 5125,
      "count": 270,
      "type": "SCALAR"
    },
    {
      "bufferView": 2,
      "byteOffset": 1403376,
      "componentType": 5126,
      "count": 146,
      "max": [
        0.7031930088996887,
        92.25460052490234,
        -160.927001953125
      ],
      "min": [
        -3.931689977645874,
        87.59120178222656,
        -163.3159942626953
      ],
      "type": "VEC3"
    },
    {
      "bufferView": 2,
      "byteOffset": 1405128,
      "componentType": 5126,
      "count": 146,
      "max": [
        0.9659028649330139,
        0.9423875212669373,
        0.999388575553894
      ],
      "min": [
        -0.9659029841423035,
        -0.9423848986625671,
        -0.9993879795074463
      ],
      "type": "VEC3"
    },
    {
      "bufferView": 1,
      "byteOffset": 467792,
      "componentType": 5126,
      "count": 146,
      "max": [
        0.2538529932498932,
        0.6651769876480103
      ],
      "min": [
        0.2493090033531189,
        0.6571959853172302
      ],
      "type": "VEC2"
    },
    {
      "bufferView": 0,
      "byteOffset": 817356,
      "componentType": 5125,
      "count": 576,
      "type": "SCALAR"
    },
    {
      "bufferView": 2,
      "byteOffset": 1406880,
      "componentType": 5126,
      "count": 65,
      "max": [
        -5.227789878845215,
        110.62200164794922,
        -147.0919952392578
      ],
      "min": [
        -7.901020050048828,
        104.51499938964844,
        -151.31700134277344
      ],
      "type": "VEC3"
    },
    {
      "bufferView": 2,
      "byteOffset": 1407660,
      "componentType": 5126,
      "count": 65,
      "max": [
        0.08486306667327881,
        0.9813817739486694,
        0.5164650678634644
      ],
      "min": [
        -0.48900583386421204,
        -0.8533111214637756,
        -0.6668570637702942
      ],
      "type": "VEC3"
    },
    {
      "bufferView": 1,
      "byteOffset": 468960,
      "componentType": 5126,
      "count": 65,
      "max": [
        0.2583779990673065,
        0.7032319903373718
      ],
      "min": [
        0.2555370032787323,
        0.69623202085495
      ],
      "type": "VEC2"
    },
    {
      "bufferView": 0,
      "byteOffset": 819660,
      "componentType": 5125,
      "count": 276,
      "type": "SCALAR"
    },
    {
      "bufferView": 2,
      "byteOffset": 1408440,
      "componentType": 5126,
      "count": 3625,
      "max": [
        249.66600036621094,
        37.160499572753906,
        368.3240051269531
      ],
      "min": [
        -249.66600036621094,
        -16.209199905395508,
        176.25999450683594
      ],
      "type": "VEC3"
    },
    {
      "bufferView": 2,
      "byteOffset": 1451940,
      "componentType": 5126,
      "count": 3625,
      "max": [
        0.9995383620262146,
        1.0,
        1.0
      ],
      "min": [
        -0.9998788833618164,
        -0.999930739402771,
        -0.9785799980163574
      ],
      "type": "VEC3"
    },
    {
      "bufferView": 1,
      "byteOffset": 469480,
      "componentType": 5126,
      "count": 3625,
      "max": [
        1.0,
        1.0
      ],
      "min": [
        -0.0,
        0.0
      ],
      "type": "VEC2"
    },
    {
      "bufferView": 0,
      "byteOffset": 820764,
      "componentType": 5125,
      "count": 17679,
      "type": "SCALAR"
    },
    {
      "bufferView": 2,
      "byteOffset": 1495440,
      "componentType": 5126,
      "count": 3404,
      "max": [
        249.98599243164063,
        47.36880111694336,
        217.00799560546875
      ],
      "min": [
        -249.98599243164063,
        -22.19659996032715,
        -832.7420043945313
      ],
      "type": "VEC3"
    },
    {
      "bufferView": 2,
      "byteOffset": 1536288,
      "componentType": 5126,
      "count": 3404,
      "max": [
        0.999991774559021,
        0.9999980926513672,
        0.4798300564289093
      ],
      "min": [
        -0.9999916553497314,
        -0.9999348521232605,
        -1.0
      ],
      "type": "VEC3"
    },
    {
      "bufferView": 1,
      "byteOffset": 498480,
      "componentType": 5126,
      "count": 3404,
      "max": [
        1.0,
        1.0
      ],
      "min": [
        2.983469826745022e-08,
        2.3841900542720396e-07
      ],
      "type": "VEC2"
    },
    {
      "bufferView": 0,
      "byteOffset": 891480,
      "componentType": 5125,
      "count": 16986,
      "type": "SCALAR"
    },
    {
      "bufferView": 2,
      "byteOffset": 1577136,
      "componentType": 5126,
      "count": 3270,
      "max": [
        79.70760345458984,
        24.45159912109375,
        227.1230010986328
      ],
      "min": [
        -79.70760345458984,
        -41.652000427246094,
        -514.0380249023438
      ],
      "type": "VEC3"
    },
    {
      "bufferView": 2,
      "byteOffset": 1616376,
      "componentType": 5126,
      "count": 3270,
      "max": [
        0.9999940395355225,
        0.9999990463256836,
        1.0
      ],
      "min": [
        -0.9999998807907104,
        -0.9996616244316101,
        -0.9911490082740784
      ],
      "type": "VEC3"
    },
    {
      "bufferView": 1,
      "byteOffset": 525712,
      "componentType": 5126,
      "count": 3270,
      "max": [
        0.9726459980010986,
        1.0
      ],
      "min": [
        0.0009040000149980187,
        0.0
      ],
      "type": "VEC2"
    },
    {
      "bufferView": 0,
      "byteOffset": 959424,
      "componentType": 5125,
      "count": 14205,
      "type": "SCALAR"
    },
    {
      "bufferView": 2,
      "byteOffset": 1655616,
      "componentType": 5126,
      "count": 707,
      "max": [
        20.682899475097656,
        -1.312880039215088,
        -59.79169845581055
      ],
      "min": [
        -20.48240089416504,
        -18.452199935913086,
        -107.53299713134766
      ],
      "type": "VEC3"
    },
    {
      "bufferView": 2,
      "byteOffset": 1664100,
      "componentType": 5126,
      "count": 707,
      "max": [
        0.512670636177063,
        0.9826671481132507,
        0.43160852789878845
      ],
      "min": [
        -0.513701856136322,
        -0.8673260807991028,
        -0.2966584265232086
      ],
      "type": "VEC3"
    },
    {
      "bufferView": 1,
      "byteOffset": 551872,
      "componentType": 5126,
      "count": 707,
      "max": [
        0.9702990055084229,
        0.8232970237731934
      ],
      "min": [
        0.0,
        0.0
      ],
      "type": "VEC2"
    },
    {
      "bufferView": 0,
      "byteOffset": 1016244,
      "componentType": 5125,
      "count": 855,
      "type": "SCALAR"
    },
    {
      "bufferView": 2,
      "byteOffset": 1672584,
      "componentType": 5126,
      "count": 478,
      "max": [
        20.583599090576172,
        4.693840026855469,
        -59.79779815673828
      ],
      "min": [
        -20.58180046081543,
        -19.94029998779297,
        -107.53900146484375
      ],
      "type": "VEC3"
    },
    {
      "bufferView": 2,
      "byteOffset": 1678320,
      "componentType": 5126,
      "count": 478,
      "max": [
        1.0,
        1.0,
        1.0
      ],
      "min": [
        -1.0,
        -0.999502956867218,
        -1.0
      ],
      "type": "VEC3"
    },
    {
      "bufferView": 1,
      "byteOffset": 557528,
      "componentType": 5126,
      "count": 478,
      "max": [
        0.9241229891777039,
        0.8297899961471558
      ],
      "min": [
        0.0,
        0.0
      ],
      "type": "VEC2"
    },
    {
      "bufferView": 0,
      "byteOffset": 1019664,
      "componentType": 5125,
      "count": 591,
      "type": "SCALAR"
    },
    {
      "bufferView": 2,
      "byteOffset": 1684056,
      "componentType": 5126,
      "count": 2718,
      "max": [
        39.58399963378906,
        80.59950256347656,
        50.232398986816406
      ],
      "min": [
        -39.58399963378906,
        27.715700149536133,
        -347.2929992675781
      ],
      "type": "VEC3"
    },
    {
      "bufferView": 2,
      "byteOffset": 1716672,
      "componentType": 5126,
      "count": 2718,
      "max": [
        0.9999929070472717,
        1.0,
        1.0
      ],
      "min": [
        -0.9999916553497314,
        -0.9998714923858643,
        -0.5624558329582214
      ],
      "type": "VEC3"
    },
    {
      "bufferView": 1,
      "byteOffset": 561352,
      "componentType": 5126,
      "count": 2718,
      "max": [
        0.9614239931106567,
        0.9967290163040161
      ],
      "min": [
        0.003220000071451068,
        0.11255499720573425
      ],
      "type": "VEC2"
    },
    {
      "bufferView": 0,
      "byteOffset": 1022028,
      "componentType": 5125,
      "count": 13530,
      "type": "SCALAR"
    },
    {
      "bufferView": 2,
      "byteOffset": 1749288,
      "componentType": 5126,
      "count": 392,
      "max": [
        39.21649932861328,
        81.56649780273438,
        -99.00509643554688
      ],
      "min": [
        -39.167301177978516,
        21.858400344848633,
        -177.43800354003906
      ],
      "type": "VEC3"
    },
    {
      "bufferView": 2,
      "byteOffset": 1753992,
      "componentType": 5126,
      "count": 392,
      "max": [
        0.9999987483024597,
        1.0,
        0.9999887347221375
      ],
      "min": [
        -0.9999987483024597,
        -0.0016281201969832182,
        -0.9999803304672241
      ],
      "type": "VEC3"
    },
    {
      "bufferView": 1,
      "byteOffset": 583096,
      "componentType": 5126,
      "count": 392,
      "max": [
        0.5497080087661743,
        1.0
      ],
      "min": [
        0.35991400480270386,
        0.0
      ],
      "type": "VEC2"
    },
    {
      "bufferView": 0,
      "byteOffset": 1076148,
      "componentType": 5125,
      "count": 1152,
      "type": "SCALAR"
    },
    {
      "bufferView": 2,
      "byteOffset": 1758696,
      "componentType": 5126,
      "count": 326,
      "max": [
        40.673301696777344,
        30.78700065612793,
        237.66200256347656
      ],
      "min": [
        31.751300811767578,
        21.64229965209961,
        150.42799377441406
      ],
      "type": "VEC3"
    },
    {
      "bufferView": 2,
      "byteOffset": 1762608,
      "componentType": 5126,
      "count": 326,
      "max": [
        1.0,
        0.9999995231628418,
        0.9999978542327881
      ],
      "min": [
        -1.0,
        -0.9999992251396179,
        -0.9999978542327881
      ],
      "type": "VEC3"
    },
    {
      "bufferView": 1,
      "byteOffset": 586232,
      "componentType": 5126,
      "count": 326,
      "max": [
        1.0010000467300415,
        1.0
      ],
      "min": [
        -0.04287499934434891,
        0.0
      ],
      "type": "VEC2"
    },
    {
      "bufferView": 0,
      "byteOffset": 1080756,
      "componentType": 5125,
      "count": 1056,
      "type": "SCALAR"
    },
    {
      "bufferView": 2,
      "byteOffset": 1766520,
      "componentType": 5126,
      "count": 326,
      "max": [
        -31.751300811767578,
        30.78700065612793,
        237.66200256347656
      ],
      "min": [
        -40.673301696777344,
        21.64229965209961,
        150.42799377441406
      ],
      "type": "VEC3"
    },
    {
      "bufferView": 2,
      "byteOffset": 1770432,
      "componentType": 5126,
      "count": 326,
      "max": [
        1.0,
        0.9999992251396179,
        0.9999978542327881
      ],
      "min": [
        -1.0,
        -0.9999995231628418,
        -0.9999978542327881
      ],
      "type": "VEC3"
    },
    {
      "bufferView": 1,
      "byteOffset": 588840,
      "componentType": 5126,
      "count": 326,
      "max": [
        1.0428800582885742,
        1.0
      ],
      "min": [
        -0.0010010000551119447,
        0.0
      ],
      "type": "VEC2"
    },
    {
      "bufferView": 0,
      "byteOffset": 1084980,
      "componentType": 5125,
      "count": 1056,
      "type": "SCALAR"
    }
  ],
  "asset": {
    "extras": {
      "author": "StarWars-Universe (https://sketchfab.com/SWU)",
      "license": "CC-BY-NC-SA-4.0 (http://creativecommons.org/licenses/by-nc-sa/4.0/)",
      "source": "https://sketchfab.com/3d-models/naboo-starfighter-02cc1149843c4f9c90821a95b39f1dc9",
      "title": "Naboo Starfighter"
    },
    "generator": "Sketchfab-15.56.0",
    "version": "2.0"
  },
  "bufferViews": [
    {
      "buffer": 0,
      "byteLength": 1089204,
      "name": "floatBufferViews",
      "target": 34963
    },
    {
      "buffer": 0,
      "byteLength": 591448,
      "byteOffset": 1089204,
      "byteStride": 8,
      "name": "floatBufferViews",
      "target": 34962
    },
    {
      "buffer": 0,
      "byteLength": 1774344,
      "byteOffset": 1680652,
      "byteStride": 12,
      "name": "floatBufferViews",
      "target": 34962
    }
  ],
  "buffers": [
    {
      "byteLength": 3454996,
      "uri": "scene.bin"
    }
  ],
  "extensionsUsed": [
    "KHR_materials_specular",
    "KHR_texture_transform",
    "KHR_materials_emissive_strength"
  ],
  "images": [
    {
      "uri": "textures/Engines_A_baseColor.jpeg"
    },
    {
      "uri": "textures/Engines_B_baseColor.jpeg"
    },
    {
      "uri": "textures/Engines_C_baseColor.jpeg"
    },
    {
      "uri": "textures/Cockpit_baseColor.jpeg"
    },
    {
      "uri": "textures/Cockpit_Walls_baseColor.jpeg"
    },
    {
      "uri": "textures/Cockpit_Bow_baseColor.jpeg"
    },
    {
      "uri": "textures/Metal_Reflective_baseColor.jpeg"
    },
    {
      "uri": "textures/Seat_Back_baseColor.jpeg"
    },
    {
      "uri": "textures/Mat_Seats_baseColor.jpeg"
    },
    {
      "uri": "textures/Console_Top_baseColor.jpeg"
    },
    {
      "uri": "textures/Console_Front_baseColor.jpeg"
    },
    {
      "uri": "textures/R2_Head_baseColor.jpeg"
    },
    {
      "uri": "textures/R2_Head_metallicRoughness.png"
    },
    {
      "uri": "textures/R2_Panels_Top_baseColor.jpeg"
    },
    {
      "uri": "textures/R2_Panels_baseColor.jpeg"
    },
    {
      "uri": "textures/Hull_Dorsal_A_baseColor.jpeg"
    },
    {
      "uri": "textures/Hull_Dorsal_B_baseColor.jpeg"
    },
    {
      "uri": "textures/Hull_Ventral_baseColor.jpeg"
    }
  ],
  "materials": [
    {
      "doubleSided": true,
      "extensions": {
        "KHR_materials_specular": {
          "specularColorFactor": [
            1.0,
            1.0,
            1.0
          ],
          "specularFactor": 1.0
        }
      },
      "name": "Engines_A",
      "pbrMetallicRoughness": {
        "baseColorTexture": {
          "index": 0
        },
        "roughnessFactor": 0.0
      }
    },
    {
      "doubleSided": true,
      "name": "Engines_B",
      "pbrMetallicRoughness": {
        "baseColorTexture": {
          "index": 1
        },
        "metallicFactor": 0.5,
        "roughnessFactor": 0.3
      }
    },
    {
      "doubleSided": true,
      "name": "Engines_C",
      "pbrMetallicRoughness": {
        "baseColorTexture": {
          "index": 2
        },
        "metallicFactor": 0.5,
        "roughnessFactor": 0.3
      }
    },
    {
      "alphaMode": "BLEND",
      "extensions": {
        "KHR_materials_specular": {
          "specularColorFactor": [
            1.0,
            1.0,
            1.0
          ],
          "specularFactor": 0.3239583015441895
        }
      },
      "name": "Glass",
      "pbrMetallicRoughness": {
        "baseColorFactor": [
          1.0,
          1.0,
          1.0,
          0.7151991166408707
        ],
        "roughnessFactor": 0.0
      }
    },
    {
      "doubleSided": true,
      "name": "Cockpit",
      "pbrMetallicRoughness": {
        "baseColorTexture": {
          "index": 3
        },
        "metallicFactor": 0.5,
        "roughnessFactor": 0.3
      }
    },
    {
      "doubleSided": true,
      "name": "Front_Panel_Grey",
      "pbrMetallicRoughness": {
        "baseColorFactor": [
          0.4441929079451651,
          0.4441929079451651,
          0.4441929079451651,
          1.0
        ],
        "roughnessFactor": 0.09612163807611046
      }
    },
    {
      "doubleSided": true,
      "name": "Cockpit_Walls",
      "pbrMetallicRoughness": {
        "baseColorTexture": {
          "index": 4
        },
        "metallicFactor": 0.0,
        "roughnessFactor": 0.6
      }
    },
    {
      "doubleSided": true,
      "name": "Cockpit_Bow",
      "pbrMetallicRoughness": {
        "baseColorTexture": {
          "index": 5
        },
        "metallicFactor": 0.0,
        "roughnessFactor": 0.6
      }
    },
    {
      "doubleSided": true,
      "name": "Metal_Reflective",
      "pbrMetallicRoughness": {
        "baseColorFactor": [
          0.699895222981771,
          0.699895222981771,
          0.699895222981771,
          1.0
        ],
        "baseColorTexture": {
          "index": 6
        },
        "metallicFactor": 0.4420335877616451,
        "roughnessFactor": 0.17159333618931802
      }
    },
    {
      "doubleSided": true,
      "name": "Seat_Back",
      "pbrMetallicRoughness": {
        "baseColorTexture": {
          "index": 7
        },
        "metallicFactor": 0.4420335877616451,
        "roughnessFactor": 0.3225367324157331
      }
    },
    {
      "doubleSided": true,
      "name": "Mat_Seats",
      "pbrMetallicRoughness": {
        "baseColorTexture": {
          "index": 8
        },
        "metallicFactor": 0.6621593739251671,
        "roughnessFactor": 0.3728511978245381
      }
    },
    {
      "doubleSided": true,
      "name": "Console_Top",
      "pbrMetallicRoughness": {
        "baseColorTexture": {
          "index": 9
        },
        "metallicFactor": 0.5,
        "roughnessFactor": 0.18417195254151927
      }
    },
    {
      "doubleSided": true,
      "name": "Console_Front",
      "pbrMetallicRoughness": {
        "baseColorTexture": {
          "index": 10
        },
        "metallicFactor": 0.0,
        "roughnessFactor": 0.6
      }
    },
    {
      "doubleSided": true,
      "name": "Consolle_Side",
      "pbrMetallicRoughness": {
        "baseColorTexture": {
          "index": 9
        },
        "metallicFactor": 0.0,
        "roughnessFactor": 0.6
      }
    },
    {
      "doubleSided": true,
      "extensions": {
        "KHR_materials_specular": {
          "specularColorFactor": [
            1.0,
            1.0,
            1.0
          ],
          "specularFactor": 0.0
        }
      },
      "name": "R2_Head",
      "pbrMetallicRoughness": {
        "baseColorTexture": {
          "extensions": {
            "KHR_texture_transform": {
              "scale": [
                -0.9999999999999996,
                1
              ]
            }
          },
          "index": 11
        },
        "metallicRoughnessTexture": {
          "extensions": {
            "KHR_texture_transform": {
              "scale": [
                -0.9999999999999996,
                1
              ]
            }
          },
          "index": 12
        }
      }
    },
    {
      "doubleSided": true,
      "name": "R2_Panels_Top",
      "pbrMetallicRoughness": {
        "baseColorTexture": {
          "index": 13
        },
        "metallicFactor": 0.8445493110320854,
        "roughnessFactor": 0.16530402801321736
      }
    },
    {
      "doubleSided": true,
      "extensions": {
        "KHR_materials_specular": {
          "specularColorFactor": [
            1.0,
            1.0,
            1.0
          ],
          "specularFactor": 0.036458301544189456
        }
      },
      "name": "R2_Panels",
      "pbrMetallicRoughness": {
        "baseColorFactor": [
          0.9927083015441894,
          0.9927083015441894,
          0.9927083015441894,
          1.0
        ],
        "baseColorTexture": {
          "index": 14
        },
        "metallicFactor": 0.9739583015441895,
        "roughnessFactor": 0.8885416984558105
      }
    },
    {
      "doubleSided": true,
      "name": "R2_Sensors_1",
      "pbrMetallicRoughness": {
        "baseColorFactor": [
          0.03675253325264408,
          0.03675253325264408,
          0.03675253325264408,
          1.0
        ],
        "roughnessFactor": 0.0
      }
    },
    {
      "alphaMode": "BLEND",
      "doubleSided": true,
      "emissiveFactor": [
        0.7665614189803082,
        0.0018275443114334352,
        0.0018275443114334352
      ],
      "extensions": {
        "KHR_materials_emissive_strength": {
          "emissiveStrength": 10.0
        }
      },
      "name": "R2_Sensors_2",
      "pbrMetallicRoughness": {
        "baseColorFactor": [
          0.7999999999999999,
          0.0,
          0.25411800000000007,
          0.95
        ],
        "metallicFactor": 0.0,
        "roughnessFactor": 0.6
      }
    },
    {
      "doubleSided": true,
      "emissiveFactor": [
        0.005254667099337979,
        0.030607606115929796,
        0.19413198274092816
      ],
      "extensions": {
        "KHR_materials_emissive_strength": {
          "emissiveStrength": 8.193920783276829
        }
      },
      "name": "R2_Sensors_3",
      "pbrMetallicRoughness": {
        "baseColorFactor": [
          0.0878431,
          0.106667,
          0.373333,
          1.0
        ],
        "metallicFactor": 0.0,
        "roughnessFactor": 0.6
      }
    },
    {
      "alphaMode": "BLEND",
      "doubleSided": true,
      "emissiveFactor": [
        0.18448175387821603,
        0.05909971765391011,
        0.22752360530265733
      ],
      "name": "R2_Sensors_4",
      "pbrMetallicRoughness": {
        "baseColorFactor": [
          0.16941200000000003,
          0.05960780000000003,
          0.225882,
          0.95
        ],
        "metallicFactor": 0.0,
        "roughnessFactor": 0.6
      }
    },
    {
      "alphaMode": "BLEND",
      "doubleSided": true,
      "emissiveFactor": [
        1.0,
        1.0,
        1.0
      ],
      "extensions": {
        "KHR_materials_emissive_strength": {
          "emissiveStrength": 1.4014679530881486
        }
      },
      "name": "R2_Sensors_5",
      "pbrMetallicRoughness": {
        "baseColorFactor": [
          0.04705880000000003,
          0.07215689999999998,
          0.21333300000000005,
          0.95
        ],
        "metallicFactor": 0.0,
        "roughnessFactor": 0.6
      }
    },
    {
      "alphaMode": "BLEND",
      "doubleSided": true,
      "emissiveFactor": [
        0.667162779707386,
        0.021764622973567814,
        0.021764622973567814
      ],
      "extensions": {
        "KHR_materials_emissive_strength": {
          "emissiveStrength": 6.495807575729659
        }
      },
      "name": "R2_Sensors_6",
      "pbrMetallicRoughness": {
        "baseColorFactor": [
          0.26666699999999993,
          0.034509799999999986,
          0.028235299999999987,
          0.95
        ],
        "metallicFactor": 0.0,
        "roughnessFactor": 0.6
      }
    },
    {
      "alphaMode": "BLEND",
      "doubleSided": true,
      "emissiveFactor": [
        0.1717234471995979,
        0.09003617121481008,
        0.04457510674838365
      ],
      "extensions": {
        "KHR_materials_emissive_strength": {
          "emissiveStrength": 2.2190780159812302
        }
      },
      "name": "R2_Sensors_7",
      "pbrMetallicRoughness": {
        "baseColorFactor": [
          0.260392,
          0.0815686,
          0.0,
          0.95
        ],
        "metallicFactor": 0.0,
        "roughnessFactor": 0.6
      }
    },
    {
      "doubleSided": true,
      "extensions": {
        "KHR_materials_specular": {
          "specularColorFactor": [
            1.0,
            1.0,
            1.0
          ],
          "specularFactor": 1.0
        }
      },
      "name": "Hull_Dorsal_A",
      "pbrMetallicRoughness": {
        "baseColorTexture": {
          "index": 15
        },
        "roughnessFactor": 0.0
      }
    },
    {
      "doubleSided": true,
      "name": "Hull_Dorsal_B",
      "pbrMetallicRoughness": {
        "baseColorTexture": {
          "index": 16
        },
        "metallicFactor": 0.5552411349314563,
        "roughnessFactor": 0.3
      }
    },
    {
      "doubleSided": true,
      "extensions": {
        "KHR_materials_specular": {
          "specularColorFactor": [
            1.0,
            1.0,
            1.0
          ],
          "specularFactor": 1.0
        }
      },
      "name": "Hull_Ventral",
      "pbrMetallicRoughness": {
        "baseColorTexture": {
          "index": 17
        },
        "roughnessFactor": 0.0
      }
    },
    {
      "doubleSided": true,
      "name": "AMDS",
      "pbrMetallicRoughness": {
        "baseColorTexture": {
          "index": 3
        },
        "metallicFactor": 0.5,
        "roughnessFactor": 0.3
      }
    },
    {
      "doubleSided": true,
      "name": "Laser",
      "pbrMetallicRoughness": {
        "baseColorTexture": {
          "index": 5
        },
        "roughnessFactor": 0.12127887078051297
      }
    }
  ],
  "meshes": [
    {
      "name": "Material1",
      "primitives": [
        {
          "attributes": {
            "NORMAL": 1,
            "POSITION": 0,
            "TEXCOORD_0": 2
          },
          "indices": 3,
          "material": 0,
          "mode": 4
        }
      ]
    },
    {
      "name": "Material1",
      "primitives": [
        {
          "attributes": {
            "NORMAL": 5,
            "POSITION": 4,
            "TEXCOORD_0": 6
          },
          "indices": 7,
          "material": 1,
          "mode": 4
        }
      ]
    },
    {
      "name": "Material1",
      "primitives": [
        {
          "attributes": {
            "NORMAL": 9,
            "POSITION": 8,
            "TEXCOORD_0": 10
          },
          "indices": 11,
          "material": 2,
          "mode": 4
        }
      ]
    },
    {
      "name": "Material1",
      "primitives": [
        {
          "attributes": {
            "NORMAL": 13,
            "POSITION": 12,
            "TEXCOORD_0": 14
          },
          "indices": 15,
          "material": 3,
          "mode": 4
        }
      ]
    },
    {
      "name": "Material1",
      "primitives": [
        {
          "attributes": {
            "NORMAL": 17,
            "POSITION": 16,
            "TEXCOORD_0": 18
          },
          "indices": 19,
          "material": 4,
          "mode": 4
        }
      ]
    },
    {
      "name": "Material1",
      "primitives": [
        {
          "attributes": {
            "NORMAL": 21,
            "POSITION": 20,
            "TEXCOORD_0": 22
          },
          "indices": 23,
          "material": 5,
          "mode": 4
        }
      ]
    },
    {
      "name": "Material1",
      "primitives": [
        {
          "attributes": {
            "NORMAL": 25,
            "POSITION": 24,
            "TEXCOORD_0": 26
          },
          "indices": 27,
          "material": 4,
          "mode": 4
        }
      ]
    },
    {
      "name": "Material1",
      "primitives": [
        {
          "attributes": {
            "NORMAL": 29,
            "POSITION": 28,
            "TEXCOORD_0": 30
          },
          "indices": 31,
          "material": 4,
          "mode": 4
        }
      ]
    },
    {
      "name": "Material1",
      "primitives": [
        {
          "attributes": {
            "NORMAL": 33,
            "POSITION": 32,
            "TEXCOORD_0": 34
          },
          "indices": 35,
          "material": 4,
          "mode": 4
        }
      ]
    },
    {
      "name": "Material1",
      "primitives": [
        {
          "attributes": {
            "NORMAL": 37,
            "POSITION": 36,
            "TEXCOORD_0": 38
          },
          "indices": 39,
          "material": 6,
          "mode": 4
        }
      ]
    },
    {
      "name": "Material1",
      "primitives": [
        {
          "attributes": {
            "NORMAL": 41,
            "POSITION": 40,
            "TEXCOORD_0": 42
          },
          "indices": 43,
          "material": 7,
          "mode": 4
        }
      ]
    },
    {
      "name": "Material1",
      "primitives": [
        {
          "attributes": {
            "NORMAL": 45,
            "POSITION": 44,
            "TEXCOORD_0": 46
          },
          "indices": 47,
          "material": 8,
          "mode": 4
        }
      ]
    },
    {
      "name": "Material1",
      "primitives": [
        {
          "attributes": {
            "NORMAL": 49,
            "POSITION": 48,
            "TEXCOORD_0": 50
          },
          "indices": 51,
          "material": 9,
          "mode": 4
        }
      ]
    },
    {
      "name": "Material1",
      "primitives": [
        {
          "attributes": {
            "NORMAL": 53,
            "POSITION": 52,
            "TEXCOORD_0": 54
          },
          "indices": 55,
          "material": 8,
          "mode": 4
        }
      ]
    },
    {
      "name": "Material1",
      "primitives": [
        {
          "attributes": {
            "NORMAL": 57,
            "POSITION": 56,
            "TEXCOORD_0": 58
          },
          "indices": 59,
          "material": 9,
          "mode": 4
        }
      ]
    },
    {
      "name": "Material1",
      "primitives": [
        {
          "attributes": {
            "NORMAL": 61,
            "POSITION": 60,
            "TEXCOORD_0": 62
          },
          "indices": 63,
          "material": 10,
          "mode": 4
        }
      ]
    },
    {
      "name": "Material1",
      "primitives": [
        {
          "attributes": {
            "NORMAL": 65,
            "POSITION": 64,
            "TEXCOORD_0": 66
          },
          "indices": 67,
          "material": 10,
          "mode": 4
        }
      ]
    },
    {
      "name": "Material1",
      "primitives": [
        {
          "attributes": {
            "NORMAL": 69,
            "POSITION": 68,
            "TEXCOORD_0": 70
          },
          "indices": 71,
          "material": 10,
          "mode": 4
        }
      ]
    },
    {
      "name": "Material1",
      "primitives": [
        {
          "attributes": {
            "NORMAL": 73,
            "POSITION": 72,
            "TEXCOORD_0": 74
          },
          "indices": 75,
          "material": 11,
          "mode": 4
        }
      ]
    },
    {
      "name": "Material1",
      "primitives": [
        {
          "attributes": {
            "NORMAL": 77,
            "POSITION": 76,
            "TEXCOORD_0": 78
          },
          "indices": 79,
          "material": 11,
          "mode": 4
        }
      ]
    },
    {
      "name": "Material1",
      "primitives": [
        {
          "attributes": {
            "NORMAL": 81,
            "POSITION": 80,
            "TEXCOORD_0": 82
          },
          "indices": 83,
          "material": 12,
          "mode": 4
        }
      ]
    },
    {
      "name": "Material1",
      "primitives": [
        {
          "attributes": {
            "NORMAL": 85,
            "POSITION": 84,
            "TEXCOORD_0": 86
          },
          "indices": 87,
          "material": 12,
          "mode": 4
        }
      ]
    },
    {
      "name": "Material1",
      "primitives": [
        {
          "attributes": {
            "NORMAL": 89,
            "POSITION": 88,
            "TEXCOORD_0": 90
          },
          "indices": 91,
          "material": 13,
          "mode": 4
        }
      ]
    },
    {
      "name": "Material1",
      "primitives": [
        {
          "attributes": {
            "NORMAL": 93,
            "POSITION": 92,
            "TEXCOORD_0": 94
          },
          "indices": 95,
          "material": 8,
          "mode": 4
        }
      ]
    },
    {
      "name": "Material1",
      "primitives": [
        {
          "attributes": {
            "NORMAL": 97,
            "POSITION": 96,
            "TEXCOORD_0": 98
          },
          "indices": 99,
          "material": 14,
          "mode": 4
        }
      ]
    },
    {
      "name": "Material1",
      "primitives": [
        {
          "attributes": {
            "NORMAL": 101,
            "POSITION": 100,
            "TEXCOORD_0": 102
          },
          "indices": 103,
          "material": 15,
          "mode": 4
        }
      ]
    },
    {
      "name": "Material1",
      "primitives": [
        {
          "attributes": {
            "NORMAL": 105,
            "POSITION": 104,
            "TEXCOORD_0": 106
          },
          "indices": 107,
          "material": 16,
          "mode": 4
        }
      ]
    },
    {
      "name": "Material1",
      "primitives": [
        {
          "attributes": {
            "NORMAL": 109,
            "POSITION": 108,
            "TEXCOORD_0": 110
          },
          "indices": 111,
          "material": 17,
          "mode": 4
        }
      ]
    },
    {
      "name": "Material1",
      "primitives": [
        {
          "attributes": {
            "NORMAL": 113,
            "POSITION": 112,
            "TEXCOORD_0": 114
          },
          "indices": 115,
          "material": 18,
          "mode": 4
        }
      ]
    },
    {
      "name": "Material1",
      "primitives": [
        {
          "attributes": {
            "NORMAL": 117,
            "POSITION": 116,
            "TEXCOORD_0": 118
          },
          "indices": 119,
          "material": 19,
          "mode": 4
        }
      ]
    },
    {
      "name": "Material1",
      "primitives": [
        {
          "attributes": {
            "NORMAL": 121,
            "POSITION": 120,
            "TEXCOORD_0": 122
          },
          "indices": 123,
          "material": 20,
          "mode": 4
        }
      ]
    },
    {
      "name": "Material1",
      "primitives": [
        {
          "attributes": {
            "NORMAL": 125,
            "POSITION": 124,
            "TEXCOORD_0": 126
          },
          "indices": 127,
          "material": 21,
          "mode": 4
        }
      ]
    },
    {
      "name": "Material1",
      "primitives": [
        {
          "attributes": {
            "NORMAL": 129,
            "POSITION": 128,
            "TEXCOORD_0": 130
          },
          "indices": 131,
          "material": 22,
          "mode": 4
        }
      ]
    },
    {
      "name": "Material1",
      "primitives": [
        {
          "attributes": {
            "NORMAL": 133,
            "POSITION": 132,
            "TEXCOORD_0": 134
          },
          "indices": 135,
          "material": 23,
          "mode": 4
        }
      ]
    },
    {
      "name": "Material1",
      "primitives": [
        {
          "attributes": {
            "NORMAL": 137,
            "POSITION": 136,
            "TEXCOORD_0": 138
          },
          "indices": 139,
          "material": 24,
          "mode": 4
        }
      ]
    },
    {
      "name": "Material1",
      "primitives": [
        {
          "attributes": {
            "NORMAL": 141,
            "POSITION": 140,
            "TEXCOORD_0": 142
          },
          "indices": 143,
          "material": 25,
          "mode": 4
        }
      ]
    },
    {
      "name": "Material1",
      "primitives": [
        {
          "attributes": {
            "NORMAL": 145,
            "POSITION": 144,
            "TEXCOORD_0": 146
          },
          "indices": 147,
          "material": 26,
          "mode": 4
        }
      ]
    },
    {
      "name": "Material1",
      "primitives": [
        {
          "attributes": {
            "NORMAL": 149,
            "POSITION": 148,
            "TEXCOORD_0": 150
          },
          "indices": 151,
          "material": 26,
          "mode": 4
        }
      ]
    },
    {
      "name": "Material1",
      "primitives": [
        {
          "attributes": {
            "NORMAL": 153,
            "POSITION": 152,
            "TEXCOORD_0": 154
          },
          "indices": 155,
          "material": 26,
          "mode": 4
        }
      ]
    },
    {
      "name": "Material1",
      "primitives": [
        {
          "attributes": {
            "NORMAL": 157,
            "POSITION": 156,
            "TEXCOORD_0": 158
          },
          "indices": 159,
          "material": 4,
          "mode": 4
        }
      ]
    },
    {
      "name": "Material1",
      "primitives": [
        {
          "attributes": {
            "NORMAL": 161,
            "POSITION": 160,
            "TEXCOORD_0": 162
          },
          "indices": 163,
          "material": 27,
          "mode": 4
        }
      ]
    },
    {
      "name": "Material1",
      "primitives": [
        {
          "attributes": {
            "NORMAL": 165,
            "POSITION": 164,
            "TEXCOORD_0": 166
          },
          "indices": 167,
          "material": 28,
          "mode": 4
        }
      ]
    },
    {
      "name": "Material1",
      "primitives": [
        {
          "attributes": {
            "NORMAL": 169,
            "POSITION": 168,
            "TEXCOORD_0": 170
          },
          "indices": 171,
          "material": 28,
          "mode": 4
        }
      ]
    }
  ],
  "nodes": [
    {
      "children": [
        1
      ],
      "matrix": [
        1.0,
        0.0,
        0.0,
        0.0,
        0.0,
        2.220446049250313e-16,
        -1.0,
        0.0,
        0.0,
        1.0,
        2.220446049250313e-16,
        0.0,
        0.0,
        0.0,
        0.0,
        1.0
      ],
      "name": "Sketchfab_model"
    },
    {
      "children": [
        2
      ],
      "matrix": [
        1.0,
        0.0,
        0.0,
        0.0,
        0.0,
        -4.371139006309477e-08,
        0.999999999999999,
        0.0,
        0.0,
        -0.999999999999999,
        -4.371139006309477e-08,
        0.0,
        0.0,
        0.0,
        0.0,
        1.0
      ],
      "name": "Collada visual scene group"
    },
    {
      "children": [
        3,
        17,
        30,
        63,
        84
      ],
      "name": "Naboo_N-1_Fighter"
    },
    {
      "children": [
        4,
        11,
        14
      ],
      "matrix": [
        1.0,
        0.0,
        0.0,
        0.0,
        0.0,
        2.220446049250313e-16,
        1.0,
        0.0,
        0.0,
        -1.0,
        2.220446049250313e-16,
        0.0,
        0.0,
        0.0,
        0.0,
        1.0
      ],
      "name": "Engines"
    },
    {
      "children": [
        5,
        7,
        9
      ],
      "matrix": [
        1.0,
        0.0,
        0.0,
        0.0,
        0.0,
        1.0,
        0.0,
        0.0,
        0.0,
        0.0,
        1.0,
        0.0,
        288.0039978027344,
        128.41099548339844,
        12.37030029296875,
        1.0
      ],
      "name": "Engine_L"
    },
    {
      "children": [
        6
      ],
      "matrix": [
        1.0,
        0.0,
        0.0,
        0.0,
        0.0,
        2.220446049250313e-16,
        -1.0,
        0.0,
        0.0,
        1.0,
        2.220446049250313e-16,
        0.0,
        -288.0039978027344,
        -128.41099548339844,
        -12.37030029296875,
        1.0
      ],
      "name": "Engine_L_A"
    },
    {
      "mesh": 0,
      "name": "Material1"
    },
    {
      "children": [
        8
      ],
      "matrix": [
        1.0,
        0.0,
        0.0,
        0.0,
        0.0,
        2.220446049250313e-16,
        -1.0,
        0.0,
        0.0,
        1.0,
        2.220446049250313e-16,
        0.0,
        -288.0039978027344,
        -128.41099548339844,
        -12.37030029296875,
        1.0
      ],
      "name": "Engine_L_B"
    },
    {
      "mesh": 1,
      "name": "Material1"
    },
    {
      "children": [
        10
      ],
      "matrix": [
        1.0,
        0.0,
        0.0,
        0.0,
        0.0,
        2.220446049250313e-16,
        -1.0,
        0.0,
        0.0,
        1.0,
        2.220446049250313e-16,
        0.0,
        23.069499969482422,
        -128.41099548339844,
        -12.37030029296875,
        1.0
      ],
      "name": "Engine_L_C"
    },
    {
      "mesh": 2,
      "name": "Material1"
    },
    {
      "children": [
        12,
        13
      ],
      "matrix": [
        1.0,
        0.0,
        0.0,
        0.0,
        0.0,
        2.220446049250313e-16,
        -1.0,
        0.0,
        0.0,
        1.0,
        2.220446049250313e-16,
        0.0,
        288.0039978027344,
        93.20339965820313,
        12.37030029296875,
        1.0
      ],
      "name": "FX_Engine_L"
    },
    {
      "matrix": [
        1.0582599639892578,
        2.5919893551304757e-16,
        0.0,
        0.0,
        -2.5919893551304757e-16,
        1.0582599639892578,
        0.0,
        0.0,
        0.0,
        0.0,
        1.0582599639892578,
        0.0,
        0.08224490284919739,
        0.06221010163426399,
        0.015514800325036049,
        1.0
      ],
      "name": "FX_Engine_1"
    },
    {
      "matrix": [
        1.0582599639892578,
        2.5919893551304757e-16,
        0.0,
        0.0,
        -2.5919893551304757e-16,
        1.0582599639892578,
        0.0,
        0.0,
        0.0,
        0.0,
        1.0582599639892578,
        0.0,
        0.08224490284919739,
        0.06221010163426399,
        0.015514800325036049,
        1.0
      ],
      "name": "FX_Engine_2"
    },
    {
      "children": [
        15,
        16
      ],
      "matrix": [
        1.0,
        0.0,
        0.0,
        0.0,
        0.0,
        2.220446049250313e-16,
        -1.0,
        0.0,
        0.0,
        1.0,
        2.220446049250313e-16,
        0.0,
        -288.0039978027344,
        93.20339965820313,
        12.37030029296875,
        1.0
      ],
      "name": "FX_Engine_R"
    },
    {
      "matrix": [
        1.0582599639892578,
        2.5919893551304757e-16,
        0.0,
        0.0,
        -2.5919893551304757e-16,
        1.0582599639892578,
        0.0,
        0.0,
        0.0,
        0.0,
        1.0582599639892578,
        0.0,
        0.08224490284919739,
        0.06221010163426399,
        0.015514800325036049,
        1.0
      ],
      "name": "FX_Engine_1"
    },
    {
      "matrix": [
        1.0582599639892578,
        2.5919893551304757e-16,
        0.0,
        0.0,
        -2.5919893551304757e-16,
        1.0582599639892578,
        0.0,
        0.0,
        0.0,
        0.0,
        1.0582599639892578,
        0.0,
        0.08224490284919739,
        0.06221010163426399,
        0.015514800325036049,
        1.0
      ],
      "name": "FX_Engine_2"
    },
    {
      "children": [
        18,
        20,
        22,
        24,
        26,
        28
      ],
      "matrix": [
        1.0,
        0.0,
        0.0,
        0.0,
        0.0,
        2.220446049250313e-16,
        1.0,
        0.0,
        0.0,
        -1.0,
        2.220446049250313e-16,
        0.0,
        -8.11100017017452e-06,
        49.74440002441406,
        -6.590169906616211,
        1.0
      ],
      "name": "Window"
    },
    {
      "children": [
        19
      ],
      "matrix": [
        1.0,
        0.0,
        0.0,
        0.0,
        0.0,
        2.220446049250313e-16,
        -1.0,
        0.0,
        0.0,
        1.0,
        2.220446049250313e-16,
        0.0,
        8.11100017017452e-06,
        6.590169906616211,
        49.74440002441406,
        1.0
      ],
      "name": "Window_Glass"
    },
    {
      "mesh": 3,
      "name": "Material1"
    },
    {
      "children": [
        21
      ],
      "matrix": [
        1.0,
        0.0,
        0.0,
        0.0,
        0.0,
        2.220446049250313e-16,
        -1.0,
        0.0,
        0.0,
        1.0,
        2.220446049250313e-16,
        0.0,
        8.11100017017452e-06,
        6.590169906616211,
        49.74440002441406,
        1.0
      ],
      "name": "Window_Frame"
    },
    {
      "mesh": 4,
      "name": "Material1"
    },
    {
      "children": [
        23
      ],
      "matrix": [
        1.0,
        0.0,
        0.0,
        0.0,
        0.0,
        2.220446049250313e-16,
        -1.0,
        0.0,
        0.0,
        1.0,
        2.220446049250313e-16,
        0.0,
        8.11100017017452e-06,
        6.590169906616211,
        49.74440002441406,
        1.0
      ],
      "name": "Front_Panel_Grey"
    },
    {
      "mesh": 5,
      "name": "Material1"
    },
    {
      "children": [
        25
      ],
      "matrix": [
        1.0,
        0.0,
        0.0,
        0.0,
        0.0,
        2.220446049250313e-16,
        -1.0,
        0.0,
        0.0,
        1.0,
        2.220446049250313e-16,
        0.0,
        8.11100017017452e-06,
        6.590169906616211,
        49.74440002441406,
        1.0
      ],
      "name": "Front_Panel_Yellow"
    },
    {
      "mesh": 6,
      "name": "Material1"
    },
    {
      "children": [
        27
      ],
      "matrix": [
        1.0,
        0.0,
        0.0,
        0.0,
        0.0,
        2.220446049250313e-16,
        -1.0,
        0.0,
        0.0,
        1.0,
        2.220446049250313e-16,
        0.0,
        8.11100017017452e-06,
        6.590169906616211,
        49.74440002441406,
        1.0
      ],
      "name": "Slay_1"
    },
    {
      "mesh": 7,
      "name": "Material1"
    },
    {
      "children": [
        29
      ],
      "matrix": [
        1.0,
        0.0,
        0.0,
        0.0,
        0.0,
        2.220446049250313e-16,
        -1.0,
        0.0,
        0.0,
        1.0,
        2.220446049250313e-16,
        0.0,
        8.11100017017452e-06,
        6.590169906616211,
        49.74440002441406,
        1.0
      ],
      "name": "Slay_2"
    },
    {
      "mesh": 8,
      "name": "Material1"
    },
    {
      "children": [
        31,
        33,
        35,
        37,
        39,
        41,
        43,
        50
      ],
      "matrix": [
        1.0,
        0.0,
        0.0,
        0.0,
        0.0,
        2.220446049250313e-16,
        1.0,
        0.0,
        0.0,
        -1.0,
        2.220446049250313e-16,
        0.0,
        -0.1619960069656372,
        16.178499221801758,
        -44.974300384521484,
        1.0
      ],
      "name": "Inside"
    },
    {
      "children": [
        32
      ],
      "matrix": [
        1.0,
        0.0,
        0.0,
        0.0,
        0.0,
        2.220446049250313e-16,
        -1.0,
        0.0,
        0.0,
        1.0,
        2.220446049250313e-16,
        0.0,
        0.1619960069656372,
        44.974300384521484,
        16.178499221801758,
        1.0
      ],
      "name": "Cockpit_Walls"
    },
    {
      "mesh": 9,
      "name": "Material1"
    },
    {
      "children": [
        34
      ],
      "matrix": [
        1.0,
        0.0,
        0.0,
        0.0,
        0.0,
        2.220446049250313e-16,
        -1.0,
        0.0,
        0.0,
        1.0,
        2.220446049250313e-16,
        0.0,
        0.1619960069656372,
        44.974300384521484,
        16.178499221801758,
        1.0
      ],
      "name": "Cockpit_Bow"
    },
    {
      "mesh": 10,
      "name": "Material1"
    },
    {
      "children": [
        36
      ],
      "matrix": [
        1.0,
        0.0,
        0.0,
        0.0,
        0.0,
        2.220446049250313e-16,
        -1.0,
        0.0,
        0.0,
        1.0,
        2.220446049250313e-16,
        0.0,
        0.1619960069656372,
        44.974300384521484,
        16.178499221801758,
        1.0
      ],
      "name": "Stripes"
    },
    {
      "mesh": 11,
      "name": "Material1"
    },
    {
      "children": [
        38
      ],
      "matrix": [
        1.0,
        0.0,
        0.0,
        0.0,
        0.0,
        2.220446049250313e-16,
        -1.0,
        0.0,
        0.0,
        1.0,
        2.220446049250313e-16,
        0.0,
        0.1619960069656372,
        44.974300384521484,
        16.178499221801758,
        1.0
      ],
      "name": "Seat_Back"
    },
    {
      "mesh": 12,
      "name": "Material1"
    },
    {
      "children": [
        40
      ],
      "matrix": [
        1.0,
        0.0,
        0.0,
        0.0,
        0.0,
        2.220446049250313e-16,
        -1.0,
        0.0,
        0.0,
        1.0,
        2.220446049250313e-16,
        0.0,
        0.1619960069656372,
        44.974300384521484,
        16.178499221801758,
        1.0
      ],
      "name": "Seat_Back_A1"
    },
    {
      "mesh": 13,
      "name": "Material1"
    },
    {
      "children": [
        42
      ],
      "matrix": [
        1.0,
        0.0,
        0.0,
        0.0,
        0.0,
        2.220446049250313e-16,
        -1.0,
        0.0,
        0.0,
        1.0,
        2.220446049250313e-16,
        0.0,
        0.1619960069656372,
        44.974300384521484,
        16.178499221801758,
        1.0
      ],
      "name": "Seat_Back_A2"
    },
    {
      "mesh": 14,
      "name": "Material1"
    },
    {
      "children": [
        44,
        46,
        48
      ],
      "matrix": [
        1.0,
        0.0,
        0.0,
        0.0,
        0.0,
        2.220446049250313e-16,
        -1.0,
        0.0,
        0.0,
        1.0,
        2.220446049250313e-16,
        0.0,
        0.1619960069656372,
        44.974300384521484,
        16.178499221801758,
        1.0
      ],
      "name": "Seats"
    },
    {
      "children": [
        45
      ],
      "matrix": [
        1.0,
        0.0,
        0.0,
        0.0,
        0.0,
        1.0,
        0.0,
        0.0,
        0.0,
        0.0,
        1.0,
        0.0,
        0.0,
        2.598360140382283e-07,
        4.3653400894072547e-07,
        1.0
      ],
      "name": "Seat_B1"
    },
    {
      "mesh": 15,
      "name": "Material1"
    },
    {
      "children": [
        47
      ],
      "matrix": [
        1.0,
        0.0,
        0.0,
        0.0,
        0.0,
        1.0,
        0.0,
        0.0,
        0.0,
        0.0,
        1.0,
        0.0,
        0.0,
        2.598360140382283e-07,
        4.3653400894072547e-07,
        1.0
      ],
      "name": "Seat_B2"
    },
    {
      "mesh": 16,
      "name": "Material1"
    },
    {
      "children": [
        49
      ],
      "matrix": [
        1.0,
        0.0,
        0.0,
        0.0,
        0.0,
        1.0,
        0.0,
        0.0,
        0.0,
        0.0,
        1.0,
        0.0,
        0.0,
        2.598360140382283e-07,
        4.3653400894072547e-07,
        1.0
      ],
      "name": "Seat_B3"
    },
    {
      "mesh": 17,
      "name": "Material1"
    },
    {
      "children": [
        51,
        55,
        59,
        61
      ],
      "matrix": [
        1.0,
        0.0,
        0.0,
        0.0,
        0.0,
        2.220446049250313e-16,
        -1.0,
        0.0,
        0.0,
        1.0,
        2.220446049250313e-16,
        0.0,
        0.1619960069656372,
        44.974300384521484,
        16.178499221801758,
        1.0
      ],
      "name": "Command_Console"
    },
    {
      "children": [
        52,
        53
      ],
      "name": "Console_Top"
    },
    {
      "mesh": 18,
      "name": "Material1"
    },
    {
      "children": [
        54
      ],
      "name": "Scopes"
    },
    {
      "mesh": 19,
      "name": "Material1"
    },
    {
      "children": [
        56,
        57
      ],
      "name": "Console_Front"
    },
    {
      "mesh": 20,
      "name": "Material1"
    },
    {
      "children": [
        58
      ],
      "name": "Scopes_Front"
    },
    {
      "mesh": 21,
      "name": "Material1"
    },
    {
      "children": [
        60
      ],
      "name": "Console_Side"
    },
    {
      "mesh": 22,
      "name": "Material1"
    },
    {
      "children": [
        62
      ],
      "name": "Scopes_Metal_Rings"
    },
    {
      "mesh": 23,
      "name": "Material1"
    },
    {
      "children": [
        64,
        66,
        68,
        70,
        72,
        74,
        76,
        78,
        80,
        82
      ],
      "matrix": [
        1.0,
        0.0,
        0.0,
        0.0,
        0.0,
        2.220446049250313e-16,
        1.0,
        0.0,
        0.0,
        -1.0,
        2.220446049250313e-16,
        0.0,
        -1.6550899744033813,
        98.2697982788086,
        -139.18299865722656,
        1.0
      ],
      "name": "Astromech_Droid"
    },
    {
      "children": [
        65
      ],
      "matrix": [
        1.0,
        0.0,
        0.0,
        0.0,
        0.0,
        2.220446049250313e-16,
        -1.0,
        0.0,
        0.0,
        1.0,
        2.220446049250313e-16,
        0.0,
        1.6550899744033813,
        139.18299865722656,
        98.26969909667969,
        1.0
      ],
      "name": "R2_Head"
    },
    {
      "mesh": 24,
      "name": "Material1"
    },
    {
      "children": [
        67
      ],
      "matrix": [
        1.0,
        0.0,
        0.0,
        0.0,
        0.0,
        2.220446049250313e-16,
        -1.0,
        0.0,
        0.0,
        1.0,
        2.220446049250313e-16,
        0.0,
        1.6550899744033813,
        139.18299865722656,
        98.26969909667969,
        1.0
      ],
      "name": "R2_Panels_Top"
    },
    {
      "mesh": 25,
      "name": "Material1"
    },
    {
      "children": [
        69
      ],
      "matrix": [
        1.0,
        0.0,
        0.0,
        0.0,
        0.0,
        2.220446049250313e-16,
        -1.0,
        0.0,
        0.0,
        1.0,
        2.220446049250313e-16,
        0.0,
        1.6550899744033813,
        139.18299865722656,
        98.26969909667969,
        1.0
      ],
      "name": "R2_Panels_Side"
    },
    {
      "mesh": 26,
      "name": "Material1"
    },
    {
      "children": [
        71
      ],
      "matrix": [
        1.0,
        0.0,
        0.0,
        0.0,
        0.0,
        2.220446049250313e-16,
        -1.0,
        0.0,
        0.0,
        1.0,
        2.220446049250313e-16,
        0.0,
        1.6550899744033813,
        139.18299865722656,
        98.26969909667969,
        1.0
      ],
      "name": "Sensor_1"
    },
    {
      "mesh": 27,
      "name": "Material1"
    },
    {
      "children": [
        73
      ],
      "matrix": [
        1.0,
        0.0,
        0.0,
        0.0,
        0.0,
        2.220446049250313e-16,
        -1.0,
        0.0,
        0.0,
        1.0,
        2.220446049250313e-16,
        0.0,
        1.6550899744033813,
        139.18299865722656,
        98.26969909667969,
        1.0
      ],
      "name": "Sensor_2"
    },
    {
      "mesh": 28,
      "name": "Material1"
    },
    {
      "children": [
        75
      ],
      "matrix": [
        1.0,
        0.0,
        0.0,
        0.0,
        0.0,
        2.220446049250313e-16,
        -1.0,
        0.0,
        0.0,
        1.0,
        2.220446049250313e-16,
        0.0,
        1.6550899744033813,
        139.18299865722656,
        98.26969909667969,
        1.0
      ],
      "name": "Sensor_3"
    },
    {
      "mesh": 29,
      "name": "Material1"
    },
    {
      "children": [
        77
      ],
      "matrix": [
        1.0,
        0.0,
        0.0,
        0.0,
        0.0,
        2.220446049250313e-16,
        -1.0,
        0.0,
        0.0,
        1.0,
        2.220446049250313e-16,
        0.0,
        1.6550899744033813,
        139.18299865722656,
        98.26969909667969,
        1.0
      ],
      "name": "Sensor_4"
    },
    {
      "mesh": 30,
      "name": "Material1"
    },
    {
      "children": [
        79
      ],
      "matrix": [
        1.0,
        0.0,
        0.0,
        0.0,
        0.0,
        2.220446049250313e-16,
        -1.0,
        0.0,
        0.0,
        1.0,
        2.220446049250313e-16,
        0.0,
        1.6550899744033813,
        139.18299865722656,
        98.26969909667969,
        1.0
      ],
      "name": "Sensor_5"
    },
    {
      "mesh": 31,
      "name": "Material1"
    },
    {
      "children": [
        81
      ],
      "matrix": [
        1.0,
        0.0,
        0.0,
        0.0,
        0.0,
        2.220446049250313e-16,
        -1.0,
        0.0,
        0.0,
        1.0,
        2.220446049250313e-16,
        0.0,
        1.6550899744033813,
        139.18299865722656,
        98.26969909667969,
        1.0
      ],
      "name": "Sensor_6"
    },
    {
      "mesh": 32,
      "name": "Material1"
    },
    {
      "children": [
        83
      ],
      "matrix": [
        1.0,
        0.0,
        0.0,
        0.0,
        0.0,
        2.220446049250313e-16,
        -1.0,
        0.0,
        0.0,
        1.0,
        2.220446049250313e-16,
        0.0,
        1.6550899744033813,
        139.18299865722656,
        98.26969909667969,
        1.0
      ],
      "name": "Sensor_7"
    },
    {
      "mesh": 33,
      "name": "Material1"
    },
    {
      "children": [
        85,
        87,
        89,
        95,
        97,
        99,
        101
      ],
      "name": "Hull"
    },
    {
      "children": [
        86
      ],
      "name": "Hull_Dorsal_A"
    },
    {
      "mesh": 34,
      "name": "Material1"
    },
    {
      "children": [
        88
      ],
      "name": "Hull_Dorsal_B"
    },
    {
      "mesh": 35,
      "name": "Material1"
    },
    {
      "children": [
        90,
        91,
        93
      ],
      "matrix": [
        1.6200000047683716,
        0.0,
        0.0,
        0.0,
        0.0,
        1.6200000047683716,
        0.0,
        0.0,
        0.0,
        0.0,
        1.6200000047683716,
        0.0,
        0.0,
        0.0,
        0.0,
        1.0
      ],
      "name": "Hull_Ventral"
    },
    {
      "mesh": 36,
      "name": "Material1"
    },
    {
      "children": [
        92
      ],
      "name": "AMDSS"
    },
    {
      "mesh": 37,
      "name": "Material1"
    },
    {
      "children": [
        94
      ],
      "name": "AMDSS_Wall"
    },
    {
      "mesh": 38,
      "name": "Material1"
    },
    {
      "children": [
        96
      ],
      "name": "Cockpit"
    },
    {
      "mesh": 39,
      "name": "Material1"
    },
    {
      "children": [
        98
      ],
      "matrix": [
        1.0,
        0.0,
        0.0,
        0.0,
        0.0,
        1.0,
        0.0,
        0.0,
        0.0,
        0.0,
        1.0,
        0.0,
        0.0,
        -5.392330137965473e-08,
        -1.4283100426837336e-06,
        1.0
      ],
      "name": "AMDS"
    },
    {
      "mesh": 40,
      "name": "Material1"
    },
    {
      "children": [
        100
      ],
      "name": "Laser_L"
    },
    {
      "mesh": 41,
      "name": "Material1"
    },
    {
      "children": [
        102
      ],
      "name": "Laser_R"
    },
    {
      "mesh": 42,
      "name": "Material1"
    }
  ],
  "samplers": [
    {
      "magFilter": 9729,
      "minFilter": 9987,
      "wrapS": 10497,
      "wrapT": 10497
    }
  ],
  "scene": 0,
  "scenes": [
    {
      "name": "Sketchfab_Scene",
      "nodes": [
        0
      ]
    }
  ],
  "textures": [
    {
      "sampler": 0,
      "source": 0
    },
    {
      "sampler": 0,
      "source": 1
    },
    {
      "sampler": 0,
      "source": 2
    },
    {
      "sampler": 0,
      "source": 3
    },
    {
      "sampler": 0,
      "source": 4
    },
    {
      "sampler": 0,
      "source": 5
    },
    {
      "sampler": 0,
      "source": 6
    },
    {
      "sampler": 0,
      "source": 7
    },
    {
      "sampler": 0,
      "source": 8
    },
    {
      "sampler": 0,
      "source": 9
    },
    {
      "sampler": 0,
      "source": 10
    },
    {
      "sampler": 0,
      "source": 11
    },
    {
      "sampler": 0,
      "source": 12
    },
    {
      "sampler": 0,
      "source": 13
    },
    {
      "sampler": 0,
      "source": 14
    },
    {
      "sampler": 0,
      "source": 15
    },
    {
      "sampler": 0,
      "source": 16
    },
    {
      "sampler": 0,
      "source": 17
    }
  ]
}
