{
  "accessors": [
    {
      "bufferView": 3,
      "componentType": 5126,
      "count": 6835,
      "max": [
        -0.043960824608802795,
        1.7949731349945068,
        0.15756629407405853
      ],
      "min": [
        -0.2947925925254822,
        1.4785624742507935,
        -0.12342079728841782
      ],
      "type": "VEC3"
    },
    {
      "bufferView": 3,
      "byteOffset": 82020,
      "componentType": 5126,
      "count": 6835,
      "max": [
        0.9999929070472717,
        0.9998384118080139,
        0.9999866485595703
      ],
      "min": [
        -0.9999964237213135,
        -0.9999873042106628,
        -0.9997355341911316
      ],
      "type": "VEC3"
    },
    {
      "bufferView": 4,
      "componentType": 5126,
      "count": 6835,
      "max": [
        0.9999295473098755,
        0.9999304413795471,
        0.9999210834503174,
        1.0
      ],
      "min": [
        -0.9999996423721313,
        -0.9999562501907349,
        -0.9999997019767761,
        -1.0
      ],
      "type": "VEC4"
    },
    {
      "bufferView": 4,
      "byteOffset": 109360,
      "componentType": 5126,
      "count": 6835,
      "max": [
        1.0,
        1.0,
        1.0,
        1.0
      ],
      "min": [
        0.9960784316062927,
        0.9960784316062927,
        0.9960784316062927,
        1.0
      ],
      "type": "VEC4"
    },
    {
      "bufferView": 2,
      "componentType": 5126,
      "count": 6835,
      "max": [
        0.9928153157234192,
        0.9897254109382629
      ],
      "min": [
        0.0020348653197288513,
        0.00493389368057251
      ],
      "type": "VEC2"
    },
    {
      "bufferView": 2,
      "byteOffset": 54680,
      "componentType": 5126,
      "count": 6835,
      "max": [
        0.7710634469985962,
        0.41317838430404663
      ],
      "min": [
        0.0,
        0.0
      ],
      "type": "VEC2"
    },
    {
      "bufferView": 2,
      "byteOffset": 109360,
      "componentType": 5126,
      "count": 6835,
      "max": [
        0.0,
        0.0
      ],
      "min": [
        0.0,
        0.0
      ],
      "type": "VEC2"
    },
    {
      "bufferView": 1,
      "componentType": 5125,
      "count": 21234,
      "type": "SCALAR"
    },
    {
      "bufferView": 3,
      "byteOffset": 164040,
      "componentType": 5126,
      "count": 23626,
      "max": [
        5.190627098083496,
        -0.03191240504384041,
        1.2399592399597168
      ],
      "min": [
        -3.0567703247070313,
        -9.456925392150879,
        -0.9820297360420227
      ],
      "type": "VEC3"
    },
    {
      "bufferView": 3,
      "byteOffset": 447552,
      "componentType": 5126,
      "count": 23626,
      "max": [
        1.0,
        0.9999908208847046,
        1.0
      ],
      "min": [
        -1.0,
        -1.0,
        -1.0
      ],
      "type": "VEC3"
    },
    {
      "bufferView": 4,
      "byteOffset": 218720,
      "componentType": 5126,
      "count": 23626,
      "max": [
        0.9999998807907104,
        0.9999997615814209,
        0.9999997019767761,
        1.0
      ],
      "min": [
        -1.0,
        -0.9999997615814209,
        -0.9999871850013733,
        -1.0
      ],
      "type": "VEC4"
    },
    {
      "bufferView": 4,
      "byteOffset": 596736,
      "componentType": 5126,
      "count": 23626,
      "max": [
        1.0,
        1.0,
        1.0,
        1.0
      ],
      "min": [
        1.0,
        1.0,
        1.0,
        1.0
      ],
      "type": "VEC4"
    },
    {
      "bufferView": 2,
      "byteOffset": 164040,
      "componentType": 5126,
      "count": 23626,
      "max": [
        0.998046875,
        0.9983129501342773
      ],
      "min": [
        0.00130462646484375,
        0.0062112957239151
      ],
      "type": "VEC2"
    },
    {
      "bufferView": 2,
      "byteOffset": 353048,
      "componentType": 5126,
      "count": 23626,
      "max": [
        0.9925802946090698,
        0.9932870268821716
      ],
      "min": [
        -1.0423469543457031,
        -0.7529414892196655
      ],
      "type": "VEC2"
    },
    {
      "bufferView": 2,
      "byteOffset": 542056,
      "componentType": 5126,
      "count": 23626,
      "max": [
        0.0,
        0.0
      ],
      "min": [
        0.0,
        0.0
      ],
      "type": "VEC2"
    },
    {
      "bufferView": 1,
      "byteOffset": 84936,
      "componentType": 5125,
      "count": 72246,
      "type": "SCALAR"
    },
    {
      "bufferView": 3,
      "byteOffset": 731064,
      "componentType": 5126,
      "count": 2713,
      "max": [
        9.903599739074707,
        -4.277758598327637,
        1.6936272382736206
      ],
      "min": [
        -6.017783164978027,
        -17.909774780273438,
        -1.3648844957351685
      ],
      "type": "VEC3"
    },
    {
      "bufferView": 3,
      "byteOffset": 763620,
      "componentType": 5126,
      "count": 2713,
      "max": [
        0.9999260902404785,
        0.9991160035133362,
        0.9998085498809814
      ],
      "min": [
        -0.9998594522476196,
        -0.9947399497032166,
        -0.9999943971633911
      ],
      "type": "VEC3"
    },
    {
      "bufferView": 4,
      "byteOffset": 974752,
      "componentType": 5126,
      "count": 2713,
      "max": [
        0.9982861280441284,
        0.99888676404953,
        0.9973407983779907,
        1.0
      ],
      "min": [
        -0.9999999403953552,
        -0.998873770236969,
        -0.9990875124931335,
        1.0
      ],
      "type": "VEC4"
    },
    {
      "bufferView": 2,
      "byteOffset": 731064,
      "componentType": 5126,
      "count": 2713,
      "max": [
        0.9976515173912048,
        0.9661875367164612
      ],
      "min": [
        0.0015955835115164518,
        0.0015955835115164518
      ],
      "type": "VEC2"
    },
    {
      "bufferView": 1,
      "byteOffset": 373920,
      "componentType": 5125,
      "count": 13347,
      "type": "SCALAR"
    },
    {
      "bufferView": 5,
      "componentType": 5126,
      "count": 66,
      "max": [
        290.7685852050781,
        283.0865478515625,
        235.70376586914063,
        0.0,
        145.37240600585938,
        290.7685852050781,
        290.3235778808594,
        0.0,
        289.99700927734375,
        289.382568359375,
        290.7685546875,
        0.0,
        117.50057220458984,
        301.7215576171875,
        428.8336181640625,
        1.0
      ],
      "min": [
        -289.8172302246094,
        -283.0865173339844,
        -237.9071502685547,
        0.0,
        -152.35618591308594,
        -289.5124206542969,
        -282.33099365234375,
        0.0,
        -289.9873962402344,
        -76.087646484375,
        -58.608341217041016,
        0.0,
        -102.42692565917969,
        -448.0770263671875,
        -18.25806999206543,
        1.0
      ],
      "type": "MAT4"
    },
    {
      "bufferView": 0,
      "componentType": 5123,
      "count": 6835,
      "type": "VEC4"
    },
    {
      "bufferView": 4,
      "byteOffset": 1018160,
      "componentType": 5126,
      "count": 6835,
      "max": [
        1.0,
        0.0,
        0.0,
        0.0
      ],
      "min": [
        1.0,
        0.0,
        0.0,
        0.0
      ],
      "type": "VEC4"
    },
    {
      "bufferView": 0,
      "byteOffset": 54680,
      "componentType": 5123,
      "count": 23626,
      "type": "VEC4"
    },
    {
      "bufferView": 4,
      "byteOffset": 1127520,
      "componentType": 5126,
      "count": 23626,
      "max": [
        1.0,
        0.4996865391731262,
        0.1889933943748474,
        0.0
      ],
      "min": [
        0.47124189138412476,
        0.0,
        0.0,
        0.0
      ],
      "type": "VEC4"
    },
    {
      "bufferView": 0,
      "byteOffset": 243688,
      "componentType": 5123,
      "count": 2713,
      "type": "VEC4"
    },
    {
      "bufferView": 4,
      "byteOffset": 1505536,
      "componentType": 5126,
      "count": 2713,
      "max": [
        1.0,
        0.4998106062412262,
        0.310720294713974,
        0.1926804929971695
      ],
      "min": [
        0.0,
        0.0,
        0.0,
        0.0
      ],
      "type": "VEC4"
    },
    {
      "bufferView": 6,
      "componentType": 5126,
      "count": 1,
      "max": [
        0.0
      ],
      "min": [
        0.0
      ],
      "type": "SCALAR"
    },
    {
      "bufferView": 7,
      "componentType": 5126,
      "count": 1,
      "max": [
        -1.4210854715202004e-14,
        10.786949157714844,
        1.4185905456542969e-05
      ],
      "min": [
        -1.4210854715202004e-14,
        10.786949157714844,
        1.4185905456542969e-05
      ],
      "type": "VEC3"
    },
    {
      "bufferView": 6,
      "byteOffset": 4,
      "componentType": 5126,
      "count": 1,
      "max": [
        0.0
      ],
      "min": [
        0.0
      ],
      "type": "SCALAR"
    },
    {
      "bufferView": 7,
      "byteOffset": 12,
      "componentType": 5126,
      "count": 1,
      "max": [
        8.702278137207031e-06,
        12.447827339172363,
        2.613663673400879e-05
      ],
      "min": [
        8.702278137207031e-06,
        12.447827339172363,
        2.613663673400879e-05
      ],
      "type": "VEC3"
    },
    {
      "bufferView": 6,
      "byteOffset": 8,
      "componentType": 5126,
      "count": 1,
      "max": [
        0.0
      ],
      "min": [
        0.0
      ],
      "type": "SCALAR"
    },
    {
      "bufferView": 7,
      "byteOffset": 24,
      "componentType": 5126,
      "count": 1,
      "max": [
        -8.659521102905273,
        12.679481506347656,
        2.519118547439575
      ],
      "min": [
        -8.659521102905273,
        12.679481506347656,
        2.519118547439575
      ],
      "type": "VEC3"
    },
    {
      "bufferView": 6,
      "byteOffset": 12,
      "componentType": 5126,
      "count": 1,
      "max": [
        0.0
      ],
      "min": [
        0.0
      ],
      "type": "SCALAR"
    },
    {
      "bufferView": 7,
      "byteOffset": 36,
      "componentType": 5126,
      "count": 1,
      "max": [
        -1.430511474609375e-06,
        7.591550827026367,
        -1.4901166878189542e-07
      ],
      "min": [
        -1.430511474609375e-06,
        7.591550827026367,
        -1.4901166878189542e-07
      ],
      "type": "VEC3"
    },
    {
      "bufferView": 6,
      "byteOffset": 16,
      "componentType": 5126,
      "count": 1,
      "max": [
        0.0
      ],
      "min": [
        0.0
      ],
      "type": "SCALAR"
    },
    {
      "bufferView": 7,
      "byteOffset": 48,
      "componentType": 5126,
      "count": 1,
      "max": [
        4.76837158203125e-07,
        8.353721618652344,
        5.662441253662109e-06
      ],
      "min": [
        4.76837158203125e-07,
        8.353721618652344,
        5.662441253662109e-06
      ],
      "type": "VEC3"
    },
    {
      "bufferView": 6,
      "byteOffset": 20,
      "componentType": 5126,
      "count": 1,
      "max": [
        0.0
      ],
      "min": [
        0.0
      ],
      "type": "SCALAR"
    },
    {
      "bufferView": 7,
      "byteOffset": 60,
      "componentType": 5126,
      "count": 1,
      "max": [
        -9.463944435119629,
        37.21408462524414,
        -0.1655702143907547
      ],
      "min": [
        -9.463944435119629,
        37.21408462524414,
        -0.1655702143907547
      ],
      "type": "VEC3"
    },
    {
      "bufferView": 6,
      "byteOffset": 24,
      "componentType": 5126,
      "count": 1,
      "max": [
        0.0
      ],
      "min": [
        0.0
      ],
      "type": "SCALAR"
    },
    {
      "bufferView": 7,
      "byteOffset": 72,
      "componentType": 5126,
      "count": 1,
      "max": [
        7.62939453125e-06,
        8.482654571533203,
        -2.5033950805664063e-06
      ],
      "min": [
        7.62939453125e-06,
        8.482654571533203,
        -2.5033950805664063e-06
      ],
      "type": "VEC3"
    },
    {
      "bufferView": 6,
      "byteOffset": 28,
      "componentType": 5126,
      "count": 1,
      "max": [
        0.0
      ],
      "min": [
        0.0
      ],
      "type": "SCALAR"
    },
    {
      "bufferView": 7,
      "byteOffset": 84,
      "componentType": 5126,
      "count": 1,
      "max": [
        1.9073486328125e-06,
        9.022563934326172,
        3.135204315185547e-05
      ],
      "min": [
        1.9073486328125e-06,
        9.022563934326172,
        3.135204315185547e-05
      ],
      "type": "VEC3"
    },
    {
      "bufferView": 6,
      "byteOffset": 32,
      "componentType": 5126,
      "count": 1,
      "max": [
        0.0
      ],
      "min": [
        0.0
      ],
      "type": "SCALAR"
    },
    {
      "bufferView": 7,
      "byteOffset": 96,
      "componentType": 5126,
      "count": 1,
      "max": [
        6.67572021484375e-06,
        7.6106343269348145,
        -1.1444091796875e-05
      ],
      "min": [
        6.67572021484375e-06,
        7.6106343269348145,
        -1.1444091796875e-05
      ],
      "type": "VEC3"
    },
    {
      "bufferView": 6,
      "byteOffset": 36,
      "componentType": 5126,
      "count": 1,
      "max": [
        0.0
      ],
      "min": [
        0.0
      ],
      "type": "SCALAR"
    },
    {
      "bufferView": 7,
      "byteOffset": 108,
      "componentType": 5126,
      "count": 1,
      "max": [
        0.0,
        7.987079620361328,
        -1.0251998901367188e-05
      ],
      "min": [
        0.0,
        7.987079620361328,
        -1.0251998901367188e-05
      ],
      "type": "VEC3"
    },
    {
      "bufferView": 6,
      "byteOffset": 40,
      "componentType": 5126,
      "count": 1,
      "max": [
        0.0
      ],
      "min": [
        0.0
      ],
      "type": "SCALAR"
    },
    {
      "bufferView": 7,
      "byteOffset": 120,
      "componentType": 5126,
      "count": 1,
      "max": [
        3.8106164932250977,
        37.10399627685547,
        0.23437952995300293
      ],
      "min": [
        3.8106164932250977,
        37.10399627685547,
        0.23437952995300293
      ],
      "type": "VEC3"
    },
    {
      "bufferView": 6,
      "byteOffset": 44,
      "componentType": 5126,
      "count": 1,
      "max": [
        0.0
      ],
      "min": [
        0.0
      ],
      "type": "SCALAR"
    },
    {
      "bufferView": 7,
      "byteOffset": 132,
      "componentType": 5126,
      "count": 1,
      "max": [
        -9.5367431640625e-07,
        5.517029285430908,
        1.4781951904296875e-05
      ],
      "min": [
        -9.5367431640625e-07,
        5.517029285430908,
        1.4781951904296875e-05
      ],
      "type": "VEC3"
    },
    {
      "bufferView": 6,
      "byteOffset": 48,
      "componentType": 5126,
      "count": 1,
      "max": [
        0.0
      ],
      "min": [
        0.0
      ],
      "type": "SCALAR"
    },
    {
      "bufferView": 7,
      "byteOffset": 144,
      "componentType": 5126,
      "count": 1,
      "max": [
        -1.9073486328125e-06,
        6.716273784637451,
        2.3245811462402344e-05
      ],
      "min": [
        -1.9073486328125e-06,
        6.716273784637451,
        2.3245811462402344e-05
      ],
      "type": "VEC3"
    },
    {
      "bufferView": 6,
      "byteOffset": 52,
      "componentType": 5126,
      "count": 1,
      "max": [
        0.0
      ],
      "min": [
        0.0
      ],
      "type": "SCALAR"
    },
    {
      "bufferView": 7,
      "byteOffset": 156,
      "componentType": 5126,
      "count": 1,
      "max": [
        9.370641708374023,
        35.42409896850586,
        0.6852001547813416
      ],
      "min": [
        9.370641708374023,
        35.42409896850586,
        0.6852001547813416
      ],
      "type": "VEC3"
    },
    {
      "bufferView": 6,
      "byteOffset": 56,
      "componentType": 5126,
      "count": 1,
      "max": [
        0.0
      ],
      "min": [
        0.0
      ],
      "type": "SCALAR"
    },
    {
      "bufferView": 7,
      "byteOffset": 168,
      "componentType": 5126,
      "count": 1,
      "max": [
        0.0,
        75.65550994873047,
        -4.172325134277344e-05
      ],
      "min": [
        0.0,
        75.65550994873047,
        -4.172325134277344e-05
      ],
      "type": "VEC3"
    },
    {
      "bufferView": 6,
      "byteOffset": 60,
      "componentType": 5126,
      "count": 1,
      "max": [
        0.0
      ],
      "min": [
        0.0
      ],
      "type": "SCALAR"
    },
    {
      "bufferView": 7,
      "byteOffset": 180,
      "componentType": 5126,
      "count": 1,
      "max": [
        2.86102294921875e-06,
        75.26495361328125,
        -2.3603439331054688e-05
      ],
      "min": [
        2.86102294921875e-06,
        75.26495361328125,
        -2.3603439331054688e-05
      ],
      "type": "VEC3"
    },
    {
      "bufferView": 6,
      "byteOffset": 64,
      "componentType": 5126,
      "count": 1,
      "max": [
        0.0
      ],
      "min": [
        0.0
      ],
      "type": "SCALAR"
    },
    {
      "bufferView": 7,
      "byteOffset": 192,
      "componentType": 5126,
      "count": 1,
      "max": [
        -1.0728836059570313e-06,
        35.754005432128906,
        -1.4066696166992188e-05
      ],
      "min": [
        -1.0728836059570313e-06,
        35.754005432128906,
        -1.4066696166992188e-05
      ],
      "type": "VEC3"
    },
    {
      "bufferView": 6,
      "byteOffset": 68,
      "componentType": 5126,
      "count": 1,
      "max": [
        0.0
      ],
      "min": [
        0.0
      ],
      "type": "SCALAR"
    },
    {
      "bufferView": 7,
      "byteOffset": 204,
      "componentType": 5126,
      "count": 1,
      "max": [
        1.4781951904296875e-05,
        10.685018539428711,
        1.5974044799804688e-05
      ],
      "min": [
        1.4781951904296875e-05,
        10.685018539428711,
        1.5974044799804688e-05
      ],
      "type": "VEC3"
    },
    {
      "bufferView": 6,
      "byteOffset": 72,
      "componentType": 5126,
      "count": 1,
      "max": [
        0.0
      ],
      "min": [
        0.0
      ],
      "type": "SCALAR"
    },
    {
      "bufferView": 7,
      "byteOffset": 216,
      "componentType": 5126,
      "count": 1,
      "max": [
        -5.4836273193359375e-06,
        12.376243591308594,
        1.3738870620727539e-05
      ],
      "min": [
        -5.4836273193359375e-06,
        12.376243591308594,
        1.3738870620727539e-05
      ],
      "type": "VEC3"
    },
    {
      "bufferView": 6,
      "byteOffset": 76,
      "componentType": 5126,
      "count": 1,
      "max": [
        0.0
      ],
      "min": [
        0.0
      ],
      "type": "SCALAR"
    },
    {
      "bufferView": 7,
      "byteOffset": 228,
      "componentType": 5126,
      "count": 1,
      "max": [
        -2.384185791015625e-07,
        7.006885528564453,
        2.1226704120635986e-05
      ],
      "min": [
        -2.384185791015625e-07,
        7.006885528564453,
        2.1226704120635986e-05
      ],
      "type": "VEC3"
    },
    {
      "bufferView": 6,
      "byteOffset": 80,
      "componentType": 5126,
      "count": 1,
      "max": [
        0.0
      ],
      "min": [
        0.0
      ],
      "type": "SCALAR"
    },
    {
      "bufferView": 7,
      "byteOffset": 240,
      "componentType": 5126,
      "count": 1,
      "max": [
        2.384185791015625e-07,
        7.552333831787109,
        2.489238977432251e-05
      ],
      "min": [
        2.384185791015625e-07,
        7.552333831787109,
        2.489238977432251e-05
      ],
      "type": "VEC3"
    },
    {
      "bufferView": 6,
      "byteOffset": 84,
      "componentType": 5126,
      "count": 1,
      "max": [
        0.0
      ],
      "min": [
        0.0
      ],
      "type": "SCALAR"
    },
    {
      "bufferView": 7,
      "byteOffset": 252,
      "componentType": 5126,
      "count": 1,
      "max": [
        10.525625228881836,
        38.966312408447266,
        0.21416112780570984
      ],
      "min": [
        10.525625228881836,
        38.966312408447266,
        0.21416112780570984
      ],
      "type": "VEC3"
    },
    {
      "bufferView": 6,
      "byteOffset": 88,
      "componentType": 5126,
      "count": 1,
      "max": [
        0.0
      ],
      "min": [
        0.0
      ],
      "type": "SCALAR"
    },
    {
      "bufferView": 7,
      "byteOffset": 264,
      "componentType": 5126,
      "count": 1,
      "max": [
        -1.1920928955078125e-06,
        8.129239082336426,
        -2.16066837310791e-05
      ],
      "min": [
        -1.1920928955078125e-06,
        8.129239082336426,
        -2.16066837310791e-05
      ],
      "type": "VEC3"
    },
    {
      "bufferView": 6,
      "byteOffset": 92,
      "componentType": 5126,
      "count": 1,
      "max": [
        0.0
      ],
      "min": [
        0.0
      ],
      "type": "SCALAR"
    },
    {
      "bufferView": 7,
      "byteOffset": 276,
      "componentType": 5126,
      "count": 1,
      "max": [
        5.960464477539063e-07,
        8.656824111938477,
        4.920363426208496e-05
      ],
      "min": [
        5.960464477539063e-07,
        8.656824111938477,
        4.920363426208496e-05
      ],
      "type": "VEC3"
    },
    {
      "bufferView": 6,
      "byteOffset": 96,
      "componentType": 5126,
      "count": 1,
      "max": [
        0.0
      ],
      "min": [
        0.0
      ],
      "type": "SCALAR"
    },
    {
      "bufferView": 7,
      "byteOffset": 288,
      "componentType": 5126,
      "count": 1,
      "max": [
        3.3954057693481445,
        38.662445068359375,
        0.32199278473854065
      ],
      "min": [
        3.3954057693481445,
        38.662445068359375,
        0.32199278473854065
      ],
      "type": "VEC3"
    },
    {
      "bufferView": 6,
      "byteOffset": 100,
      "componentType": 5126,
      "count": 1,
      "max": [
        0.0
      ],
      "min": [
        0.0
      ],
      "type": "SCALAR"
    },
    {
      "bufferView": 7,
      "byteOffset": 300,
      "componentType": 5126,
      "count": 1,
      "max": [
        -3.337860107421875e-06,
        7.276182651519775,
        -6.973743438720703e-06
      ],
      "min": [
        -3.337860107421875e-06,
        7.276182651519775,
        -6.973743438720703e-06
      ],
      "type": "VEC3"
    },
    {
      "bufferView": 6,
      "byteOffset": 104,
      "componentType": 5126,
      "count": 1,
      "max": [
        0.0
      ],
      "min": [
        0.0
      ],
      "type": "SCALAR"
    },
    {
      "bufferView": 7,
      "byteOffset": 312,
      "componentType": 5126,
      "count": 1,
      "max": [
        -4.76837158203125e-07,
        6.994696617126465,
        -1.728534698486328e-05
      ],
      "min": [
        -4.76837158203125e-07,
        6.994696617126465,
        -1.728534698486328e-05
      ],
      "type": "VEC3"
    },
    {
      "bufferView": 6,
      "byteOffset": 108,
      "componentType": 5126,
      "count": 1,
      "max": [
        0.0
      ],
      "min": [
        0.0
      ],
      "type": "SCALAR"
    },
    {
      "bufferView": 7,
      "byteOffset": 324,
      "componentType": 5126,
      "count": 1,
      "max": [
        -3.928600311279297,
        38.95909881591797,
        0.24562406539916992
      ],
      "min": [
        -3.928600311279297,
        38.95909881591797,
        0.24562406539916992
      ],
      "type": "VEC3"
    },
    {
      "bufferView": 6,
      "byteOffset": 112,
      "componentType": 5126,
      "count": 1,
      "max": [
        0.0
      ],
      "min": [
        0.0
      ],
      "type": "SCALAR"
    },
    {
      "bufferView": 7,
      "byteOffset": 336,
      "componentType": 5126,
      "count": 1,
      "max": [
        1.9073486328125e-06,
        4.930510520935059,
        -1.3709068298339844e-06
      ],
      "min": [
        1.9073486328125e-06,
        4.930510520935059,
        -1.3709068298339844e-06
      ],
      "type": "VEC3"
    },
    {
      "bufferView": 6,
      "byteOffset": 116,
      "componentType": 5126,
      "count": 1,
      "max": [
        0.0
      ],
      "min": [
        0.0
      ],
      "type": "SCALAR"
    },
    {
      "bufferView": 7,
      "byteOffset": 348,
      "componentType": 5126,
      "count": 1,
      "max": [
        -9.5367431640625e-07,
        4.8565144538879395,
        -2.0682811737060547e-05
      ],
      "min": [
        -9.5367431640625e-07,
        4.8565144538879395,
        -2.0682811737060547e-05
      ],
      "type": "VEC3"
    },
    {
      "bufferView": 6,
      "byteOffset": 120,
      "componentType": 5126,
      "count": 1,
      "max": [
        0.0
      ],
      "min": [
        0.0
      ],
      "type": "SCALAR"
    },
    {
      "bufferView": 7,
      "byteOffset": 360,
      "componentType": 5126,
      "count": 1,
      "max": [
        -9.99242877960205,
        39.17470932006836,
        0.5226155519485474
      ],
      "min": [
        -9.99242877960205,
        39.17470932006836,
        0.5226155519485474
      ],
      "type": "VEC3"
    },
    {
      "bufferView": 6,
      "byteOffset": 124,
      "componentType": 5126,
      "count": 1,
      "max": [
        0.0
      ],
      "min": [
        0.0
      ],
      "type": "SCALAR"
    },
    {
      "bufferView": 7,
      "byteOffset": 372,
      "componentType": 5126,
      "count": 1,
      "max": [
        -3.814697265625e-06,
        75.74491119384766,
        1.33514404296875e-05
      ],
      "min": [
        -3.814697265625e-06,
        75.74491119384766,
        1.33514404296875e-05
      ],
      "type": "VEC3"
    },
    {
      "bufferView": 6,
      "byteOffset": 128,
      "componentType": 5126,
      "count": 1,
      "max": [
        0.0
      ],
      "min": [
        0.0
      ],
      "type": "SCALAR"
    },
    {
      "bufferView": 7,
      "byteOffset": 384,
      "componentType": 5126,
      "count": 1,
      "max": [
        -2.86102294921875e-06,
        75.39793395996094,
        3.2901763916015625e-05
      ],
      "min": [
        -2.86102294921875e-06,
        75.39793395996094,
        3.2901763916015625e-05
      ],
      "type": "VEC3"
    },
    {
      "bufferView": 6,
      "byteOffset": 132,
      "componentType": 5126,
      "count": 1,
      "max": [
        0.0
      ],
      "min": [
        0.0
      ],
      "type": "SCALAR"
    },
    {
      "bufferView": 7,
      "byteOffset": 396,
      "componentType": 5126,
      "count": 1,
      "max": [
        -1.0132789611816406e-06,
        45.4227409362793,
        -1.430511474609375e-06
      ],
      "min": [
        -1.0132789611816406e-06,
        45.4227409362793,
        -1.430511474609375e-06
      ],
      "type": "VEC3"
    },
    {
      "bufferView": 6,
      "byteOffset": 136,
      "componentType": 5126,
      "count": 1,
      "max": [
        0.0
      ],
      "min": [
        0.0
      ],
      "type": "SCALAR"
    },
    {
      "bufferView": 7,
      "byteOffset": 408,
      "componentType": 5126,
      "count": 1,
      "max": [
        -7.096678018569946e-07,
        123.74675750732422,
        2.771615982055664e-06
      ],
      "min": [
        -7.096678018569946e-07,
        123.74675750732422,
        2.771615982055664e-06
      ],
      "type": "VEC3"
    },
    {
      "bufferView": 6,
      "byteOffset": 140,
      "componentType": 5126,
      "count": 1,
      "max": [
        0.0
      ],
      "min": [
        0.0
      ],
      "type": "SCALAR"
    },
    {
      "bufferView": 7,
      "byteOffset": 420,
      "componentType": 5126,
      "count": 1,
      "max": [
        -1.691281795501709e-06,
        117.43993377685547,
        -8.568167686462402e-08
      ],
      "min": [
        -1.691281795501709e-06,
        117.43993377685547,
        -8.568167686462402e-08
      ],
      "type": "VEC3"
    },
    {
      "bufferView": 6,
      "byteOffset": 144,
      "componentType": 5126,
      "count": 1,
      "max": [
        0.0
      ],
      "min": [
        0.0
      ],
      "type": "SCALAR"
    },
    {
      "bufferView": 7,
      "byteOffset": 432,
      "componentType": 5126,
      "count": 1,
      "max": [
        2.516433596611023e-06,
        123.73189544677734,
        5.103647708892822e-07
      ],
      "min": [
        2.516433596611023e-06,
        123.73189544677734,
        5.103647708892822e-07
      ],
      "type": "VEC3"
    }
  ],
  "animations": [
    {
      "channels": [
        {
          "sampler": 0,
          "target": {
            "node": 20,
            "path": "translation"
          }
        },
        {
          "sampler": 1,
          "target": {
            "node": 19,
            "path": "translation"
          }
        },
        {
          "sampler": 2,
          "target": {
            "node": 18,
            "path": "translation"
          }
        },
        {
          "sampler": 3,
          "target": {
            "node": 24,
            "path": "translation"
          }
        },
        {
          "sampler": 4,
          "target": {
            "node": 23,
            "path": "translation"
          }
        },
        {
          "sampler": 5,
          "target": {
            "node": 22,
            "path": "translation"
          }
        },
        {
          "sampler": 6,
          "target": {
            "node": 28,
            "path": "translation"
          }
        },
        {
          "sampler": 7,
          "target": {
            "node": 27,
            "path": "translation"
          }
        },
        {
          "sampler": 8,
          "target": {
            "node": 32,
            "path": "translation"
          }
        },
        {
          "sampler": 9,
          "target": {
            "node": 31,
            "path": "translation"
          }
        },
        {
          "sampler": 10,
          "target": {
            "node": 30,
            "path": "translation"
          }
        },
        {
          "sampler": 11,
          "target": {
            "node": 36,
            "path": "translation"
          }
        },
        {
          "sampler": 12,
          "target": {
            "node": 35,
            "path": "translation"
          }
        },
        {
          "sampler": 13,
          "target": {
            "node": 34,
            "path": "translation"
          }
        },
        {
          "sampler": 14,
          "target": {
            "node": 17,
            "path": "translation"
          }
        },
        {
          "sampler": 15,
          "target": {
            "node": 16,
            "path": "translation"
          }
        },
        {
          "sampler": 16,
          "target": {
            "node": 15,
            "path": "translation"
          }
        },
        {
          "sampler": 17,
          "target": {
            "node": 44,
            "path": "translation"
          }
        },
        {
          "sampler": 18,
          "target": {
            "node": 43,
            "path": "translation"
          }
        },
        {
          "sampler": 19,
          "target": {
            "node": 48,
            "path": "translation"
          }
        },
        {
          "sampler": 20,
          "target": {
            "node": 47,
            "path": "translation"
          }
        },
        {
          "sampler": 21,
          "target": {
            "node": 46,
            "path": "translation"
          }
        },
        {
          "sampler": 22,
          "target": {
            "node": 52,
            "path": "translation"
          }
        },
        {
          "sampler": 23,
          "target": {
            "node": 51,
            "path": "translation"
          }
        },
        {
          "sampler": 24,
          "target": {
            "node": 50,
            "path": "translation"
          }
        },
        {
          "sampler": 25,
          "target": {
            "node": 56,
            "path": "translation"
          }
        },
        {
          "sampler": 26,
          "target": {
            "node": 55,
            "path": "translation"
          }
        },
        {
          "sampler": 27,
          "target": {
            "node": 54,
            "path": "translation"
          }
        },
        {
          "sampler": 28,
          "target": {
            "node": 60,
            "path": "translation"
          }
        },
        {
          "sampler": 29,
          "target": {
            "node": 59,
            "path": "translation"
          }
        },
        {
          "sampler": 30,
          "target": {
            "node": 58,
            "path": "translation"
          }
        },
        {
          "sampler": 31,
          "target": {
            "node": 41,
            "path": "translation"
          }
        },
        {
          "sampler": 32,
          "target": {
            "node": 40,
            "path": "translation"
          }
        },
        {
          "sampler": 33,
          "target": {
            "node": 65,
            "path": "translation"
          }
        },
        {
          "sampler": 34,
          "target": {
            "node": 63,
            "path": "translation"
          }
        },
        {
          "sampler": 35,
          "target": {
            "node": 69,
            "path": "translation"
          }
        },
        {
          "sampler": 36,
          "target": {
            "node": 68,
            "path": "translation"
          }
        }
      ],
      "name": "CT_Armature|T-Pose",
      "samplers": [
        {
          "input": 28,
          "interpolation": "LINEAR",
          "output": 29
        },
        {
          "input": 30,
          "interpolation": "LINEAR",
          "output": 31
        },
        {
          "input": 32,
          "interpolation": "LINEAR",
          "output": 33
        },
        {
          "input": 34,
          "interpolation": "LINEAR",
          "output": 35
        },
        {
          "input": 36,
          "interpolation": "LINEAR",
          "output": 37
        },
        {
          "input": 38,
          "interpolation": "LINEAR",
          "output": 39
        },
        {
          "input": 40,
          "interpolation": "LINEAR",
          "output": 41
        },
        {
          "input": 42,
          "interpolation": "LINEAR",
          "output": 43
        },
        {
          "input": 44,
          "interpolation": "LINEAR",
          "output": 45
        },
        {
          "input": 46,
          "interpolation": "LINEAR",
          "output": 47
        },
        {
          "input": 48,
          "interpolation": "LINEAR",
          "output": 49
        },
        {
          "input": 50,
          "interpolation": "LINEAR",
          "output": 51
        },
        {
          "input": 52,
          "interpolation": "LINEAR",
          "output": 53
        },
        {
          "input": 54,
          "interpolation": "LINEAR",
          "output": 55
        },
        {
          "input": 56,
          "interpolation": "LINEAR",
          "output": 57
        },
        {
          "input": 58,
          "interpolation": "LINEAR",
          "output": 59
        },
        {
          "input": 60,
          "interpolation": "LINEAR",
          "output": 61
        },
        {
          "input": 62,
          "interpolation": "LINEAR",
          "output": 63
        },
        {
          "input": 64,
          "interpolation": "LINEAR",
          "output": 65
        },
        {
          "input": 66,
          "interpolation": "LINEAR",
          "output": 67
        },
        {
          "input": 68,
          "interpolation": "LINEAR",
          "output": 69
        },
        {
          "input": 70,
          "interpolation": "LINEAR",
          "output": 71
        },
        {
          "input": 72,
          "interpolation": "LINEAR",
          "output": 73
        },
        {
          "input": 74,
          "interpolation": "LINEAR",
          "output": 75
        },
        {
          "input": 76,
          "interpolation": "LINEAR",
          "output": 77
        },
        {
          "input": 78,
          "interpolation": "LINEAR",
          "output": 79
        },
        {
          "input": 80,
          "interpolation": "LINEAR",
          "output": 81
        },
        {
          "input": 82,
          "interpolation": "LINEAR",
          "output": 83
        },
        {
          "input": 84,
          "interpolation": "LINEAR",
          "output": 85
        },
        {
          "input": 86,
          "interpolation": "LINEAR",
          "output": 87
        },
        {
          "input": 88,
          "interpolation": "LINEAR",
          "output": 89
        },
        {
          "input": 90,
          "interpolation": "LINEAR",
          "output": 91
        },
        {
          "input": 92,
          "interpolation": "LINEAR",
          "output": 93
        },
        {
          "input": 94,
          "interpolation": "LINEAR",
          "output": 95
        },
        {
          "input": 96,
          "interpolation": "LINEAR",
          "output": 97
        },
        {
          "input": 98,
          "interpolation": "LINEAR",
          "output": 99
        },
        {
          "input": 100,
          "interpolation": "LINEAR",
          "output": 101
        }
      ]
    }
  ],
  "asset": {
    "extras": {
      "author": "Admiral Tributon (https://sketchfab.com/doctor10)",
      "license": "CC-BY-4.0 (http://creativecommons.org/licenses/by/4.0/)",
      "source": "https://sketchfab.com/3d-models/clone-trooper-tup-phase2-259e8d4aface4ca987a334445d688700",
      "title": "Clone Trooper Tup (Phase2)"
    },
    "generator": "Sketchfab-12.66.0",
    "version": "2.0"
  },
  "bufferViews": [
    {
      "buffer": 0,
      "byteLength": 265392,
      "byteStride": 8,
      "name": "shortBufferViews",
      "target": 34962
    },
    {
      "buffer": 0,
      "byteLength": 427308,
      "byteOffset": 265392,
      "name": "floatBufferViews",
      "target": 34963
    },
    {
      "buffer": 0,
      "byteLength": 752768,
      "byteOffset": 692700,
      "byteStride": 8,
      "name": "floatBufferViews",
      "target": 34962
    },
    {
      "buffer": 0,
      "byteLength": 796176,
      "byteOffset": 1445468,
      "byteStride": 12,
      "name": "floatBufferViews",
      "target": 34962
    },
    {
      "buffer": 0,
      "byteLength": 1548944,
      "byteOffset": 2241644,
      "byteStride": 16,
      "name": "floatBufferViews",
      "target": 34962
    },
    {
      "buffer": 0,
      "byteLength": 4224,
      "byteOffset": 3790588,
      "name": "floatBufferViews"
    },
    {
      "buffer": 0,
      "byteLength": 148,
      "byteOffset": 3794812,
      "name": "floatBufferViews"
    },
    {
      "buffer": 0,
      "byteLength": 444,
      "byteOffset": 3794960,
      "byteStride": 12,
      "name": "floatBufferViews"
    }
  ],
  "buffers": [
    {
      "byteLength": 3795404,
      "uri": "scene.bin"
    }
  ],
  "images": [
    {
      "uri": "textures/Phase2_Helmet_baseColor.png"
    },
    {
      "uri": "textures/Phase2_Helmet_metallicRoughness.png"
    },
    {
      "uri": "textures/Phase2_Helmet_normal.png"
    },
    {
      "uri": "textures/Clone_P2_Armor_baseColor.png"
    },
    {
      "uri": "textures/Clone_P2_Armor_metallicRoughness.png"
    },
    {
      "uri": "textures/Clone_P2_Armor_normal.png"
    },
    {
      "uri": "textures/Undersuit_baseColor.png"
    },
    {
      "uri": "textures/Undersuit_metallicRoughness.png"
    },
    {
      "uri": "textures/Undersuit_normal.png"
    }
  ],
  "materials": [
    {
      "doubleSided": true,
      "name": "Phase2_Helmet",
      "normalTexture": {
        "index": 2
      },
      "pbrMetallicRoughness": {
        "baseColorTexture": {
          "index": 0
        },
        "metallicRoughnessTexture": {
          "index": 1
        }
      }
    },
    {
      "doubleSided": true,
      "name": "Clone_P2_Armor",
      "normalTexture": {
        "index": 5
      },
      "pbrMetallicRoughness": {
        "baseColorTexture": {
          "index": 3
        },
        "metallicRoughnessTexture": {
          "index": 4
        }
      }
    },
    {
      "doubleSided": true,
      "name": "Undersuit",
      "normalTexture": {
        "index": 8
      },
      "pbrMetallicRoughness": {
        "baseColorTexture": {
          "index": 6
        },
        "metallicRoughnessTexture": {
          "index": 7
        }
      }
    }
  ],
  "meshes": [
    {
      "name": "Phase2_Helmet_Phase2_Helmet_0",
      "primitives": [
        {
          "attributes": {
            "COLOR_0": 3,
            "JOINTS_0": 22,
            "NORMAL": 1,
            "POSITION": 0,
            "TANGENT": 2,
            "TEXCOORD_0": 4,
            "TEXCOORD_1": 5,
            "TEXCOORD_2": 6,
            "WEIGHTS_0": 23
          },
          "indices": 7,
          "material": 0,
          "mode": 4
        }
      ]
    },
    {
      "name": "Clone_P2_Armor_Clone_P2_Armor_0",
      "primitives": [
        {
          "attributes": {
            "COLOR_0": 11,
            "JOINTS_0": 24,
            "NORMAL": 9,
            "POSITION": 8,
            "TANGENT": 10,
            "TEXCOORD_0": 12,
            "TEXCOORD_1": 13,
            "TEXCOORD_2": 14,
            "WEIGHTS_0": 25
          },
          "indices": 15,
          "material": 1,
          "mode": 4
        }
      ]
    },
    {
      "name": "Undersuit_Undersuit_0",
      "primitives": [
        {
          "attributes": {
            "JOINTS_0": 26,
            "NORMAL": 17,
            "POSITION": 16,
            "TANGENT": 18,
            "TEXCOORD_0": 19,
            "WEIGHTS_0": 27
          },
          "indices": 20,
          "material": 2,
          "mode": 4
        }
      ]
    }
  ],
  "nodes": [
    {
      "children": [
        1
      ],
      "matrix": [
        1.0,
        0.0,
        0.0,
        0.0,
        0.0,
        2.220446049250313e-16,
        -1.0,
        0.0,
        0.0,
        1.0,
        2.220446049250313e-16,
        0.0,
        0.0,
        0.0,
        0.0,
        1.0
      ],
      "name": "Sketchfab_model"
    },
    {
      "children": [
        2
      ],
      "matrix": [
        1.0,
        0.0,
        0.0,
        0.0,
        0.0,
        0.0,
        1.0,
        0.0,
        0.0,
        -1.0,
        0.0,
        0.0,
        0.0,
        0.0,
        0.0,
        1.0
      ],
      "name": "Clone Trooper (Phase2) [Rigged].fbx"
    },
    {
      "children": [
        3
      ],
      "name": "Object_2"
    },
    {
      "children": [
        4,
        78,
        79,
        80
      ],
      "name": "RootNode"
    },
    {
      "children": [
        5
      ],
      "name": "CT_Armature",
      "rotation": [
        8.146033536604591e-08,
        0.0,
        0.0,
        1.0
      ],
      "translation": [
        -49.451656341552734,
        0.0,
        0.0
      ]
    },
    {
      "children": [
        6,
        73,
        75,
        77,
        72,
        74,
        76
      ],
      "name": "Object_5"
    },
    {
      "children": [
        7
      ],
      "name": "_rootJoint"
    },
    {
      "children": [
        8,
        62,
        67
      ],
      "name": "Hips_01",
      "rotation": [
        -1.7065631254808977e-06,
        3.275212293374352e-06,
        -0.00010409211972728372,
        1.0
      ],
      "scale": [
        1.0,
        0.9999999403953552,
        1.0
      ],
      "translation": [
        0.0032947659492492676,
        285.75469970703125,
        -3.182265043258667
      ]
    },
    {
      "children": [
        9
      ],
      "name": "Spine_02",
      "rotation": [
        -0.03556978330016136,
        -6.9759366851940285e-06,
        0.00010390973329776898,
        0.9993671774864197
      ],
      "scale": [
        0.9999999403953552,
        0.9999999403953552,
        1.0
      ],
      "translation": [
        -6.648399164532748e-09,
        30.32978630065918,
        7.796366929824217e-08
      ]
    },
    {
      "children": [
        10
      ],
      "name": "Spine1_03",
      "rotation": [
        -7.078051567077637e-08,
        -1.3785887362227633e-11,
        3.601587361679037e-10,
        1.0
      ],
      "translation": [
        4.157882926847378e-10,
        33.4435920715332,
        -2.384187382631353e-06
      ]
    },
    {
      "children": [
        11,
        14,
        38
      ],
      "name": "Spine2_04",
      "rotation": [
        -3.725290298461914e-09,
        1.3876939528034704e-11,
        -3.4926744829633094e-10,
        1.0
      ],
      "translation": [
        -1.4281908988778014e-09,
        38.2211799621582,
        -1.879385536085465e-12
      ]
    },
    {
      "children": [
        12
      ],
      "name": "Neck_05",
      "rotation": [
        0.035571563988924026,
        -1.8917757985126293e-12,
        2.8827409209730703e-11,
        0.9993671178817749
      ],
      "scale": [
        0.9999998807907104,
        0.9999999403953552,
        0.9999998211860657
      ],
      "translation": [
        4.565876565720828e-10,
        42.9989013671875,
        4.7683697630418465e-06
      ]
    },
    {
      "children": [
        13
      ],
      "name": "Head_06",
      "rotation": [
        1.2107192581822801e-08,
        6.7694277574522645e-18,
        -2.9103826987286752e-11,
        1.0
      ],
      "translation": [
        1.3891110484109959e-11,
        18.88665771484375,
        1.460565044908435e-06
      ]
    },
    {
      "name": "Head_end_064",
      "rotation": [
        -1.3234889800848443e-23,
        1.2924697071141057e-26,
        1.155650411269672e-28,
        1.0
      ],
      "translation": [
        7.105427357601002e-15,
        77.7760009765625,
        0.0
      ]
    },
    {
      "children": [
        15
      ],
      "name": "LeftShoulder_07",
      "rotation": [
        -0.5154306888580322,
        -0.4828695058822632,
        0.5195644497871399,
        -0.48085445165634155
      ],
      "scale": [
        0.9999997615814209,
        0.9999997615814209,
        0.9999995827674866
      ],
      "translation": [
        17.597543716430664,
        38.88019561767578,
        -0.31130409240722656
      ]
    },
    {
      "children": [
        16
      ],
      "name": "LeftArm_08",
      "rotation": [
        0.2866448163986206,
        0.12402192503213882,
        0.016651669517159462,
        0.9498294591903687
      ],
      "scale": [
        1.0,
        0.9999997615814209,
        0.9999998211860657
      ],
      "translation": [
        2.7120113372802734e-06,
        35.754005432128906,
        1.621246337890625e-05
      ]
    },
    {
      "children": [
        17
      ],
      "name": "LeftForeArm_09",
      "rotation": [
        3.9545631125292857e-07,
        -0.0038048920687288046,
        2.9403895496216137e-07,
        0.9999927878379822
      ],
      "scale": [
        1.0,
        0.9999998211860657,
        1.0
      ],
      "translation": [
        9.5367431640625e-06,
        75.26492309570313,
        -8.821487426757813e-06
      ]
    },
    {
      "children": [
        18,
        22,
        26,
        30,
        34
      ],
      "name": "LeftHand_010",
      "rotation": [
        3.2653440484864404e-06,
        -0.06937393546104431,
        -0.04936501756310463,
        0.9963685870170593
      ],
      "scale": [
        0.9999998211860657,
        1.0000001192092896,
        1.0
      ],
      "translation": [
        8.58306884765625e-06,
        75.65544891357422,
        -2.0503997802734375e-05
      ]
    },
    {
      "children": [
        19
      ],
      "name": "LeftHandThumb1_011",
      "rotation": [
        0.21352402865886688,
        0.06372423470020294,
        0.3147865831851959,
        0.9226354360580444
      ],
      "scale": [
        0.9999999403953552,
        0.9999999403953552,
        0.9999997615814209
      ],
      "translation": [
        -8.659521102905273,
        12.679469108581543,
        2.5191261768341064
      ]
    },
    {
      "children": [
        20
      ],
      "name": "LeftHandThumb2_012",
      "rotation": [
        -1.1437185776230763e-06,
        -5.464888454298489e-05,
        -0.009746902622282505,
        0.999952495098114
      ],
      "scale": [
        1.0,
        1.0,
        0.9999998807907104
      ],
      "translation": [
        9.179115295410156e-06,
        12.447796821594238,
        2.3633241653442383e-05
      ]
    },
    {
      "children": [
        21
      ],
      "name": "LeftHandThumb3_013",
      "rotation": [
        -6.128572294983314e-06,
        0.00047751449164934456,
        -0.01235827524214983,
        0.9999235272407532
      ],
      "scale": [
        0.9999998807907104,
        0.9999998807907104,
        0.9999998807907104
      ],
      "translation": [
        -1.0013580322265625e-05,
        10.786937713623047,
        -3.4570693969726563e-06
      ]
    },
    {
      "name": "LeftHandThumb3_end_055",
      "rotation": [
        4.163336342344337e-17,
        -2.7755575615628914e-17,
        1.1555579666323415e-33,
        1.0
      ],
      "translation": [
        7.105427357601002e-15,
        9.46194076538086,
        0.0
      ]
    },
    {
      "children": [
        23
      ],
      "name": "LeftHandIndex1_014",
      "rotation": [
        0.0032548962626606226,
        0.0038340557366609573,
        0.054536107927560806,
        0.9984991550445557
      ],
      "scale": [
        0.9999998211860657,
        0.9999998807907104,
        0.9999998211860657
      ],
      "translation": [
        -9.463943481445313,
        37.21410369873047,
        -0.16556274890899658
      ]
    },
    {
      "children": [
        24
      ],
      "name": "LeftHandIndex2_015",
      "rotation": [
        -1.010728851724707e-06,
        -0.0003304094134364277,
        -0.004685887135565281,
        0.9999889731407166
      ],
      "scale": [
        1.0000001192092896,
        0.9999998211860657,
        0.9999998807907104
      ],
      "translation": [
        9.5367431640625e-07,
        8.353738784790039,
        2.822279930114746e-05
      ]
    },
    {
      "children": [
        25
      ],
      "name": "LeftHandIndex3_016",
      "rotation": [
        -5.041616987000452e-06,
        0.0007131182355806231,
        -0.008336970582604408,
        0.9999650120735168
      ],
      "scale": [
        1.0000001192092896,
        1.0,
        0.9999998211860657
      ],
      "translation": [
        -4.76837158203125e-07,
        7.5915679931640625,
        2.995133399963379e-05
      ]
    },
    {
      "name": "LeftHandIndex3_end_058",
      "rotation": [
        -5.1553813301685736e-17,
        8.943161021055963e-35,
        -1.734723475976807e-18,
        1.0
      ],
      "translation": [
        0.0,
        6.293909072875977,
        0.0
      ]
    },
    {
      "children": [
        27
      ],
      "name": "LeftHandMiddle1_017",
      "rotation": [
        -0.03550541028380394,
        0.001103243324905634,
        -0.03104304149746895,
        0.9988866448402405
      ],
      "translation": [
        -3.717294692993164,
        37.604305267333984,
        0.2585766017436981
      ]
    },
    {
      "children": [
        28
      ],
      "name": "LeftHandMiddle2_018",
      "rotation": [
        0.02454165369272232,
        -2.8879698632522377e-08,
        -5.2169770725640774e-08,
        0.99969881772995
      ],
      "scale": [
        1.0,
        1.0000001192092896,
        0.9999999403953552
      ],
      "translation": [
        9.5367431640625e-07,
        9.022578239440918,
        -6.973743438720703e-06
      ]
    },
    {
      "children": [
        29
      ],
      "name": "LeftHandMiddle3_019",
      "rotation": [
        -8.151426413860463e-07,
        -7.941411240608431e-06,
        -0.002381123136729002,
        0.9999972581863403
      ],
      "scale": [
        1.0,
        0.9999998807907104,
        0.9999999403953552
      ],
      "translation": [
        1.9073486328125e-06,
        8.48263931274414,
        -2.5033950805664063e-06
      ]
    },
    {
      "name": "LeftHandMiddle3_end_062",
      "rotation": [
        -2.1250362580715887e-17,
        -1.734723475976807e-17,
        1.3877787807814457e-17,
        1.0
      ],
      "translation": [
        0.0,
        7.232440948486328,
        0.0
      ]
    },
    {
      "children": [
        31
      ],
      "name": "LeftHandRing1_020",
      "rotation": [
        0.0028905977960675955,
        0.011104109697043896,
        0.050474464893341064,
        0.9986594319343567
      ],
      "scale": [
        0.9999999403953552,
        0.9999998807907104,
        1.0000001192092896
      ],
      "translation": [
        3.8106184005737305,
        37.104000091552734,
        0.23438751697540283
      ]
    },
    {
      "children": [
        32
      ],
      "name": "LeftHandRing2_021",
      "rotation": [
        3.1958583690538944e-07,
        4.8074904043460265e-05,
        0.0008935626829043031,
        0.9999997019767761
      ],
      "scale": [
        1.0,
        0.9999993443489075,
        0.9999996423721313
      ],
      "translation": [
        7.62939453125e-06,
        7.987081050872803,
        -2.2649765014648438e-06
      ]
    },
    {
      "children": [
        33
      ],
      "name": "LeftHandRing3_022",
      "rotation": [
        -2.928489095666009e-07,
        0.00023339575272984803,
        -0.006444972008466721,
        0.9999791979789734
      ],
      "scale": [
        0.9999995231628418,
        0.9999999403953552,
        1.0000001192092896
      ],
      "translation": [
        3.814697265625e-06,
        7.610639572143555,
        4.172325134277344e-06
      ]
    },
    {
      "name": "LeftHandRing3_end_061",
      "rotation": [
        -2.4828229749918052e-17,
        -1.0408340855860843e-17,
        -2.584206780847717e-34,
        1.0
      ],
      "translation": [
        0.0,
        5.842989921569824,
        0.0
      ]
    },
    {
      "children": [
        35
      ],
      "name": "LeftHandPinky1_023",
      "rotation": [
        0.0027708299458026886,
        0.013576515018939972,
        0.05042504146695137,
        0.9986318349838257
      ],
      "scale": [
        0.9999999403953552,
        0.9999998807907104,
        1.0000001192092896
      ],
      "translation": [
        9.370640754699707,
        35.424102783203125,
        0.6852084398269653
      ]
    },
    {
      "children": [
        36
      ],
      "name": "LeftHandPinky2_024",
      "rotation": [
        -3.512323019094765e-07,
        2.655899152159691e-05,
        -2.4285980543936603e-05,
        1.0
      ],
      "scale": [
        1.0,
        1.0000001192092896,
        1.0
      ],
      "translation": [
        9.5367431640625e-07,
        6.716274738311768,
        -1.430511474609375e-05
      ]
    },
    {
      "children": [
        37
      ],
      "name": "LeftHandPinky3_025",
      "rotation": [
        1.3195325436754501e-06,
        0.00020097613742109388,
        -0.004267335869371891,
        0.9999908804893494
      ],
      "scale": [
        1.0,
        0.9999998807907104,
        0.9999998807907104
      ],
      "translation": [
        -1.9073486328125e-06,
        5.517043113708496,
        7.510185241699219e-06
      ]
    },
    {
      "name": "LeftHandPinky3_end_063",
      "rotation": [
        -1.1600963245594897e-17,
        -1.3877787807814457e-17,
        2.6020852139652106e-18,
        1.0
      ],
      "translation": [
        -7.105427357601002e-15,
        4.377231121063232,
        -5.684341886080802e-14
      ]
    },
    {
      "children": [
        39
      ],
      "name": "RightShoulder_026",
      "rotation": [
        0.5160620212554932,
        -0.4824288487434387,
        0.5190107226371765,
        0.48121750354766846
      ],
      "scale": [
        0.9999995231628418,
        0.9999997019767761,
        0.9999998211860657
      ],
      "translation": [
        -17.59754753112793,
        38.87767791748047,
        -0.2760133743286133
      ]
    },
    {
      "children": [
        40
      ],
      "name": "RightArm_027",
      "rotation": [
        0.3006168305873871,
        -0.13316863775253296,
        -0.019822686910629272,
        0.9441941976547241
      ],
      "scale": [
        0.9999997615814209,
        1.0,
        1.000000238418579
      ],
      "translation": [
        2.175569534301758e-06,
        35.753997802734375,
        1.7344951629638672e-05
      ]
    },
    {
      "children": [
        41
      ],
      "name": "RightForeArm_028",
      "rotation": [
        7.300730544557155e-07,
        0.0051969727501273155,
        -1.952471961885749e-07,
        0.9999865889549255
      ],
      "scale": [
        0.9999998211860657,
        0.9999998211860657,
        0.9999999403953552
      ],
      "translation": [
        0.0,
        75.39794158935547,
        2.1457672119140625e-06
      ]
    },
    {
      "children": [
        42,
        46,
        50,
        54,
        58
      ],
      "name": "RightHand_029",
      "rotation": [
        -8.861951937433332e-05,
        0.09233782440423965,
        0.04397975653409958,
        0.9947561025619507
      ],
      "scale": [
        0.9999997019767761,
        0.9999998211860657,
        0.9999998807907104
      ],
      "translation": [
        9.5367431640625e-07,
        75.74488067626953,
        -1.1920928955078125e-06
      ]
    },
    {
      "children": [
        43
      ],
      "name": "RightHandThumb1_030",
      "rotation": [
        0.21984884142875671,
        -0.0681653842329979,
        -0.30154314637184143,
        0.9252522587776184
      ],
      "scale": [
        1.000000238418579,
        1.0,
        1.0000001192092896
      ],
      "translation": [
        8.767005920410156,
        12.573357582092285,
        2.092503786087036
      ]
    },
    {
      "children": [
        44
      ],
      "name": "RightHandThumb2_031",
      "rotation": [
        2.458797894178133e-07,
        2.166350168408826e-05,
        0.009293784387409687,
        0.9999569058418274
      ],
      "scale": [
        1.0,
        1.0,
        1.0000001192092896
      ],
      "translation": [
        -5.9604644775390625e-06,
        12.376203536987305,
        1.4871358871459961e-05
      ]
    },
    {
      "children": [
        45
      ],
      "name": "RightHandThumb3_032",
      "rotation": [
        2.887100549742172e-07,
        -1.6018752546642645e-07,
        0.0006881284061819315,
        0.9999997615814209
      ],
      "scale": [
        0.9999998807907104,
        0.9999999403953552,
        1.0
      ],
      "translation": [
        -1.9073486328125e-06,
        10.685004234313965,
        4.8160552978515625e-05
      ]
    },
    {
      "name": "RightHandThumb3_end_057",
      "rotation": [
        -1.3877787807814457e-17,
        -5.551115123125783e-17,
        -7.703719777548943e-34,
        1.0
      ],
      "translation": [
        1.1546319456101628e-14,
        8.833658218383789,
        -5.684341886080802e-14
      ]
    },
    {
      "children": [
        47
      ],
      "name": "RightHandIndex1_033",
      "rotation": [
        0.0041847736574709415,
        0.0007148646400310099,
        -0.04260999709367752,
        0.9990828633308411
      ],
      "scale": [
        1.000000238418579,
        0.9999999403953552,
        0.9999999403953552
      ],
      "translation": [
        10.525625228881836,
        38.9663200378418,
        0.21415352821350098
      ]
    },
    {
      "children": [
        48
      ],
      "name": "RightHandIndex2_034",
      "rotation": [
        -6.722120815538801e-08,
        -1.923227682709694e-05,
        0.0001554478076286614,
        1.0
      ],
      "scale": [
        1.0,
        1.0,
        1.0000001192092896
      ],
      "translation": [
        7.152557373046875e-07,
        7.5523529052734375,
        -5.584210157394409e-06
      ]
    },
    {
      "children": [
        49
      ],
      "name": "RightHandIndex3_035",
      "rotation": [
        5.874201747246843e-07,
        -0.00010903684596996754,
        -0.004618235398083925,
        0.9999893307685852
      ],
      "scale": [
        1.0,
        0.999999463558197,
        0.9999992847442627
      ],
      "translation": [
        7.152557373046875e-07,
        7.006891250610352,
        -2.450495958328247e-05
      ]
    },
    {
      "name": "RightHandIndex3_end_054",
      "rotation": [
        1.7293024651143796e-17,
        -8.673617379884035e-19,
        -1.3010426069826053e-18,
        1.0
      ],
      "translation": [
        0.0,
        5.514767169952393,
        0.0
      ]
    },
    {
      "children": [
        51
      ],
      "name": "RightHandMiddle1_036",
      "rotation": [
        0.004042815417051315,
        -0.0024173236452043056,
        -0.04175596684217453,
        0.999116837978363
      ],
      "scale": [
        1.0,
        0.9999998211860657,
        1.0
      ],
      "translation": [
        3.395404815673828,
        38.66246795654297,
        0.3219698667526245
      ]
    },
    {
      "children": [
        52
      ],
      "name": "RightHandMiddle2_037",
      "rotation": [
        2.3408125571222627e-07,
        7.50012623029761e-05,
        -0.002340288832783699,
        0.9999972581863403
      ],
      "scale": [
        0.9999998807907104,
        0.9999999403953552,
        0.9999995827674866
      ],
      "translation": [
        -3.0994415283203125e-06,
        8.656813621520996,
        3.392994403839111e-05
      ]
    },
    {
      "children": [
        53
      ],
      "name": "RightHandMiddle3_038",
      "rotation": [
        -1.5500413041991123e-07,
        -7.404470670735464e-05,
        -0.001960003050044179,
        0.9999980926513672
      ],
      "scale": [
        1.0,
        1.0000001192092896,
        1.0
      ],
      "translation": [
        -4.76837158203125e-07,
        8.129250526428223,
        2.421438694000244e-05
      ]
    },
    {
      "name": "RightHandMiddle3_end_059",
      "rotation": [
        -1.6425662913155392e-17,
        2.849398306393225e-35,
        -1.734723475976807e-18,
        1.0
      ],
      "translation": [
        0.0,
        6.721481800079346,
        0.0
      ]
    },
    {
      "children": [
        55
      ],
      "name": "RightHandRing1_039",
      "rotation": [
        0.0037829536013305187,
        -0.00841059535741806,
        -0.04359575733542442,
        0.9990066885948181
      ],
      "scale": [
        1.000000238418579,
        0.9999999403953552,
        1.000000238418579
      ],
      "translation": [
        -3.9286022186279297,
        38.95912170410156,
        0.24560873210430145
      ]
    },
    {
      "children": [
        56
      ],
      "name": "RightHandRing2_040",
      "rotation": [
        -5.041490567236906e-07,
        1.5730041695860564e-06,
        -0.00016651359328534454,
        1.0
      ],
      "scale": [
        0.9999998807907104,
        1.0,
        0.9999999403953552
      ],
      "translation": [
        -1.9073486328125e-06,
        6.994670391082764,
        -1.8477439880371094e-06
      ]
    },
    {
      "children": [
        57
      ],
      "name": "RightHandRing3_041",
      "rotation": [
        2.0245445853106503e-07,
        -3.57348426405224e-06,
        -0.0003871340595651418,
        0.9999999403953552
      ],
      "scale": [
        1.0,
        1.000000238418579,
        1.0000003576278687
      ],
      "translation": [
        -2.384185791015625e-06,
        7.276203632354736,
        -2.199411392211914e-05
      ]
    },
    {
      "name": "RightHandRing3_end_053",
      "rotation": [
        -6.515038617101176e-17,
        -1.734723475976807e-18,
        2.7647155398380363e-18,
        1.0
      ],
      "translation": [
        0.0,
        5.873905658721924,
        0.0
      ]
    },
    {
      "children": [
        59
      ],
      "name": "RightHandPinky1_042",
      "rotation": [
        0.003748972900211811,
        -0.009523204527795315,
        -0.04517855495214462,
        0.9989265203475952
      ],
      "translation": [
        -9.992427825927734,
        39.174705505371094,
        0.5225924849510193
      ]
    },
    {
      "children": [
        60
      ],
      "name": "RightHandPinky2_043",
      "rotation": [
        5.021448146180774e-07,
        -7.460385677404702e-05,
        -0.0002025976573349908,
        1.0
      ],
      "scale": [
        0.9999995231628418,
        0.9999998807907104,
        0.9999999403953552
      ],
      "translation": [
        2.384185791015625e-06,
        4.85650634765625,
        -5.245208740234375e-06
      ]
    },
    {
      "children": [
        61
      ],
      "name": "RightHandPinky3_044",
      "rotation": [
        -3.5908972222387092e-06,
        -0.0003289455780759454,
        0.005712426267564297,
        0.9999837279319763
      ],
      "scale": [
        0.9999995827674866,
        1.0,
        0.9999999403953552
      ],
      "translation": [
        9.5367431640625e-07,
        4.930517673492432,
        -1.0728836059570313e-06
      ]
    },
    {
      "name": "RightHandPinky3_end_060",
      "rotation": [
        1.2766480581016815e-17,
        6.938893903907228e-18,
        2.6020852139652106e-18,
        1.0
      ],
      "translation": [
        7.105427357601002e-15,
        3.4451844692230225,
        -5.684341886080802e-14
      ]
    },
    {
      "children": [
        63
      ],
      "name": "LeftUpLeg_045",
      "rotation": [
        0.001313939574174583,
        0.03113870695233345,
        0.9995124936103821,
        -0.0018554145935922861
      ],
      "scale": [
        0.9999772906303406,
        0.9999998211860657,
        0.9999971389770508
      ],
      "translation": [
        26.648818969726563,
        -15.865604400634766,
        2.5608534812927246
      ]
    },
    {
      "children": [
        64
      ],
      "name": "LeftLeg_046",
      "rotation": [
        -0.09395457804203033,
        0.0002554325037635863,
        -0.0034373372327536345,
        0.9955705404281616
      ],
      "scale": [
        0.9999999403953552,
        0.9999998211860657,
        1.0
      ],
      "translation": [
        -2.6132911443710327e-06,
        123.74678802490234,
        2.3171305656433105e-06
      ]
    },
    {
      "children": [
        65
      ],
      "name": "LeftFoot_047",
      "rotation": [
        0.5370405912399292,
        0.06804544478654861,
        0.004487214609980583,
        0.840795636177063
      ],
      "scale": [
        0.9999998807907104,
        0.9999998211860657,
        1.0000001192092896
      ],
      "translation": [
        2.032145857810974e-06,
        117.27950286865234,
        -1.4640390872955322e-06
      ]
    },
    {
      "children": [
        66
      ],
      "name": "LeftToeBase_048",
      "rotation": [
        0.30385926365852356,
        -0.031040694564580917,
        0.009906284511089325,
        0.952159583568573
      ],
      "scale": [
        1.0,
        1.000000238418579,
        1.0000001192092896
      ],
      "translation": [
        -1.0728836059570313e-06,
        45.4227409362793,
        -3.0994415283203125e-06
      ]
    },
    {
      "name": "LeftToeBase_end_056",
      "rotation": [
        3.009265538105056e-36,
        4.336808689942018e-19,
        -6.938893903907228e-18,
        1.0
      ],
      "translation": [
        0.0,
        20.406707763671875,
        0.0
      ]
    },
    {
      "children": [
        68
      ],
      "name": "RightUpLeg_049",
      "rotation": [
        -0.0011481549590826035,
        0.03146206960082054,
        0.9995030164718628,
        0.001653372193686664
      ],
      "scale": [
        0.9999877214431763,
        0.9999998807907104,
        0.9999991059303284
      ],
      "translation": [
        -26.648818969726563,
        -15.865594863891602,
        3.434664011001587
      ]
    },
    {
      "children": [
        69
      ],
      "name": "RightLeg_050",
      "rotation": [
        -0.09826558828353882,
        -0.0002720186021178961,
        0.0034613616298884153,
        0.9951542615890503
      ],
      "scale": [
        0.9999999403953552,
        0.9999997019767761,
        0.9999999403953552
      ],
      "translation": [
        1.4435499906539917e-06,
        123.73189544677734,
        5.066394805908203e-07
      ]
    },
    {
      "children": [
        70
      ],
      "name": "RightFoot_051",
      "rotation": [
        0.5458516478538513,
        -0.06621434539556503,
        -0.005010800436139107,
        0.8352463841438293
      ],
      "scale": [
        0.9999998807907104,
        1.0000001192092896,
        1.000000238418579
      ],
      "translation": [
        -1.4210854715202004e-14,
        117.43993377685547,
        -1.2665987014770508e-07
      ]
    },
    {
      "children": [
        71
      ],
      "name": "RightToeBase_052",
      "rotation": [
        0.2972107529640198,
        0.029942212626338005,
        -0.00932558998465538,
        0.9542967677116394
      ],
      "scale": [
        0.9999998211860657,
        0.9999998807907104,
        0.9999997615814209
      ],
      "translation": [
        -1.0728836059570313e-06,
        46.38206481933594,
        4.76837158203125e-07
      ]
    },
    {
      "name": "RightToeBase_end_00",
      "rotation": [
        -6.018531076210112e-36,
        -4.336808689942018e-19,
        -1.3877787807814457e-17,
        1.0
      ],
      "translation": [
        -1.4210854715202004e-14,
        20.78360939025879,
        8.881784197001252e-16
      ]
    },
    {
      "matrix": [
        290.7685852050781,
        -6.2286846753544915e-06,
        2.3841764958509106e-07,
        0.0,
        6.208292023923363e-06,
        290.38677325954245,
        14.895525550915812,
        0.0,
        -5.571883419604944e-07,
        -14.895525753473054,
        290.38677720837575,
        0.0,
        -49.24954605102539,
        470.852515193092,
        6.010292852107609,
        1.0
      ],
      "name": "Object_72"
    },
    {
      "mesh": 0,
      "name": "Object_73",
      "skin": 0
    },
    {
      "matrix": [
        283.63848876953125,
        -2.562999226422661e-06,
        2.0861576809399633e-07,
        0.0,
        2.5629988516547938e-06,
        283.6384549571807,
        9.413268904528855e-05,
        0.0,
        -2.0861659624522246e-07,
        -9.413269013685531e-05,
        283.6384582519447,
        0.0,
        -49.5519905090332,
        373.5653585555947,
        -7.340542347272389,
        1.0
      ],
      "name": "Object_74"
    },
    {
      "mesh": 1,
      "name": "Object_75",
      "skin": 0
    },
    {
      "matrix": [
        278.75872802734375,
        -1.490115844640783e-07,
        -5.960467615788975e-08,
        0.0,
        -5.96046763428013e-08,
        -3.4591442573619473e-07,
        -278.7587280273513,
        0.0,
        1.4901156662655315e-07,
        278.7586947967213,
        -3.4591438453184354e-07,
        0.0,
        -49.36660385131836,
        280.98345921659484,
        4.568239530833296e-05,
        1.0
      ],
      "name": "Object_76"
    },
    {
      "mesh": 2,
      "name": "Object_77",
      "skin": 0
    },
    {
      "name": "Phase2_Helmet",
      "rotation": [
        0.025622468441724777,
        -4.101138872947274e-10,
        -1.2021484252500159e-08,
        0.9996716976165771
      ],
      "scale": [
        290.7685852050781,
        290.7685546875,
        290.7685546875
      ],
      "translation": [
        -49.24954605102539,
        470.8525085449219,
        6.0102925300598145
      ]
    },
    {
      "name": "Clone_P2_Armor",
      "rotation": [
        1.6259522794825898e-07,
        2.3641141821961753e-10,
        -4.071520010029417e-09,
        1.0
      ],
      "scale": [
        283.63848876953125,
        283.6384582519531,
        283.6384582519531
      ],
      "translation": [
        -49.5519905090332,
        373.56536865234375,
        -7.340542316436768
      ]
    },
    {
      "name": "Undersuit",
      "rotation": [
        -0.7071068286895752,
        3.7042717782043155e-09,
        1.8899373732672586e-10,
        0.7071067094802856
      ],
      "scale": [
        278.75872802734375,
        278.75872802734375,
        278.7586975097656
      ],
      "translation": [
        -49.36660385131836,
        280.98345947265625,
        4.555449413601309e-05
      ]
    }
  ],
  "samplers": [
    {
      "magFilter": 9729,
      "minFilter": 9987,
      "wrapS": 10497,
      "wrapT": 10497
    }
  ],
  "scene": 0,
  "scenes": [
    {
      "name": "Sketchfab_Scene",
      "nodes": [
        0
      ]
    }
  ],
  "skins": [
    {
      "inverseBindMatrices": 21,
      "joints": [
        6,
        7,
        8,
        9,
        10,
        11,
        12,
        13,
        14,
        15,
        16,
        17,
        18,
        19,
        20,
        21,
        22,
        23,
        24,
        25,
        26,
        27,
        28,
        29,
        30,
        31,
        32,
        33,
        34,
        35,
        36,
        37,
        38,
        39,
        40,
        41,
        42,
        43,
        44,
        45,
        46,
        47,
        48,
        49,
        50,
        51,
        52,
        53,
        54,
        55,
        56,
        57,
        58,
        59,
        60,
        61,
        62,
        63,
        64,
        65,
        66,
        67,
        68,
        69,
        70,
        71
      ],
      "skeleton": 6
    }
  ],
  "textures": [
    {
      "sampler": 0,
      "source": 0
    },
    {
      "sampler": 0,
      "source": 1
    },
    {
      "sampler": 0,
      "source": 2
    },
    {
      "sampler": 0,
      "source": 3
    },
    {
      "sampler": 0,
      "source": 4
    },
    {
      "sampler": 0,
      "source": 5
    },
    {
      "sampler": 0,
      "source": 6
    },
    {
      "sampler": 0,
      "source": 7
    },
    {
      "sampler": 0,
      "source": 8
    }
  ]
}
