{
  "accessors": [
    {
      "bufferView": 3,
      "componentType": 5126,
      "count": 174,
      "max": [
        0.6087780594825745,
        4.832980632781982,
        -5.867488384246826
      ],
      "min": [
        0.3987780511379242,
        3.524519920349121,
        -6.077488422393799
      ],
      "type": "VEC3"
    },
    {
      "bufferView": 3,
      "byteOffset": 2088,
      "componentType": 5126,
      "count": 174,
      "max": [
        1.0,
        1.0,
        1.0
      ],
      "min": [
        -1.0,
        -1.0,
        -1.0
      ],
      "type": "VEC3"
    },
    {
      "bufferView": 2,
      "componentType": 5126,
      "count": 174,
      "max": [
        0.9315274953842163,
        0.8042259812355042
      ],
      "min": [
        0.8511016368865967,
        0.6118196249008179
      ],
      "type": "VEC2"
    },
    {
      "bufferView": 1,
      "componentType": 5125,
      "count": 552,
      "type": "SCALAR"
    },
    {
      "bufferView": 3,
      "byteOffset": 4176,
      "componentType": 5126,
      "count": 10438,
      "max": [
        2.566425085067749,
        3.532870292663574,
        0.9839804768562317
      ],
      "min": [
        -2.566425085067749,
        0.3267364501953125,
        -6.647667407989502
      ],
      "type": "VEC3"
    },
    {
      "bufferView": 3,
      "byteOffset": 129432,
      "componentType": 5126,
      "count": 10438,
      "max": [
        1.0,
        1.0,
        1.0
      ],
      "min": [
        -1.0,
        -1.0,
        -1.0
      ],
      "type": "VEC3"
    },
    {
      "bufferView": 2,
      "byteOffset": 1392,
      "componentType": 5126,
      "count": 10438,
      "max": [
        1.0,
        0.9955359101295471
      ],
      "min": [
        0.0,
        0.0
      ],
      "type": "VEC2"
    },
    {
      "bufferView": 1,
      "byteOffset": 2208,
      "componentType": 5125,
      "count": 28116,
      "type": "SCALAR"
    },
    {
      "bufferView": 3,
      "byteOffset": 254688,
      "componentType": 5126,
      "count": 1106,
      "max": [
        1.2463806867599487,
        3.04453706741333,
        1.4571889638900757
      ],
      "min": [
        -1.2463806867599487,
        0.8758714199066162,
        -6.5508928298950195
      ],
      "type": "VEC3"
    },
    {
      "bufferView": 3,
      "byteOffset": 267960,
      "componentType": 5126,
      "count": 1106,
      "max": [
        1.0,
        1.0,
        0.949181079864502
      ],
      "min": [
        -1.0,
        -1.0,
        -1.0
      ],
      "type": "VEC3"
    },
    {
      "bufferView": 2,
      "byteOffset": 84896,
      "componentType": 5126,
      "count": 1106,
      "max": [
        0.8266620635986328,
        1.0
      ],
      "min": [
        0.0,
        0.0
      ],
      "type": "VEC2"
    },
    {
      "bufferView": 1,
      "byteOffset": 114672,
      "componentType": 5125,
      "count": 2826,
      "type": "SCALAR"
    },
    {
      "bufferView": 3,
      "byteOffset": 281232,
      "componentType": 5126,
      "count": 3902,
      "max": [
        3.899959087371826,
        4.147172927856445,
        3.047882556915283
      ],
      "min": [
        -3.899959087371826,
        0.1990502029657364,
        -6.7200517654418945
      ],
      "type": "VEC3"
    },
    {
      "bufferView": 3,
      "byteOffset": 328056,
      "componentType": 5126,
      "count": 3902,
      "max": [
        1.0,
        1.0,
        1.0
      ],
      "min": [
        -1.0,
        -1.0,
        -1.0
      ],
      "type": "VEC3"
    },
    {
      "bufferView": 2,
      "byteOffset": 93744,
      "componentType": 5126,
      "count": 3902,
      "max": [
        0.9999999403953552,
        0.9968851804733276
      ],
      "min": [
        0.0,
        0.0
      ],
      "type": "VEC2"
    },
    {
      "bufferView": 1,
      "byteOffset": 125976,
      "componentType": 5125,
      "count": 12792,
      "type": "SCALAR"
    },
    {
      "bufferView": 5,
      "componentType": 5126,
      "count": 9,
      "max": [
        100.00001525878906,
        2.2203579048842394e-16,
        9.932121314629172e-14,
        0.0,
        9.931527036313378e-14,
        100.00000762939453,
        0.012745418585836887,
        0.0,
        3.838025546248208e-14,
        1.0000001192092896,
        100.00000762939453,
        0.0,
        2.401221990585327,
        3.2519683837890625,
        5.203946113586426,
        1.0
      ],
      "min": [
        1.0,
        -1.4991656462244596e-14,
        -6.278330602071946e-07,
        0.0,
        -6.278329465203569e-07,
        3.72529100900465e-08,
        -1.0000001192092896,
        0.0,
        -4.9549414864093894e-14,
        -0.012745418585836887,
        3.72529100900465e-08,
        0.0,
        -2.398778200149536,
        -3.101059675216675,
        0.0,
        1.0
      ],
      "type": "MAT4"
    },
    {
      "bufferView": 0,
      "componentType": 5123,
      "count": 174,
      "type": "VEC4"
    },
    {
      "bufferView": 4,
      "componentType": 5126,
      "count": 174,
      "max": [
        1.0,
        0.0,
        0.0,
        0.0
      ],
      "min": [
        1.0,
        0.0,
        0.0,
        0.0
      ],
      "type": "VEC4"
    },
    {
      "bufferView": 0,
      "byteOffset": 1392,
      "componentType": 5123,
      "count": 10438,
      "type": "VEC4"
    },
    {
      "bufferView": 4,
      "byteOffset": 2784,
      "componentType": 5126,
      "count": 10438,
      "max": [
        1.0,
        0.5,
        0.0,
        0.0
      ],
      "min": [
        0.5,
        0.0,
        0.0,
        0.0
      ],
      "type": "VEC4"
    },
    {
      "bufferView": 0,
      "byteOffset": 84896,
      "componentType": 5123,
      "count": 1106,
      "type": "VEC4"
    },
    {
      "bufferView": 4,
      "byteOffset": 169792,
      "componentType": 5126,
      "count": 1106,
      "max": [
        1.0,
        0.0,
        0.0,
        0.0
      ],
      "min": [
        1.0,
        0.0,
        0.0,
        0.0
      ],
      "type": "VEC4"
    },
    {
      "bufferView": 0,
      "byteOffset": 93744,
      "componentType": 5123,
      "count": 3902,
      "type": "VEC4"
    },
    {
      "bufferView": 4,
      "byteOffset": 187488,
      "componentType": 5126,
      "count": 3902,
      "max": [
        1.0,
        0.0,
        0.0,
        0.0
      ],
      "min": [
        1.0,
        0.0,
        0.0,
        0.0
      ],
      "type": "VEC4"
    },
    {
      "bufferView": 6,
      "componentType": 5126,
      "count": 259,
      "max": [
        6.25
      ],
      "min": [
        0.0
      ],
      "type": "SCALAR"
    },
    {
      "bufferView": 7,
      "componentType": 5126,
      "count": 259,
      "max": [
        4.5372335222282345e-08,
        0.57453453540802,
        1.998563289642334
      ],
      "min": [
        4.477015025372566e-08,
        0.57453453540802,
        1.998563289642334
      ],
      "type": "VEC3"
    },
    {
      "bufferView": 6,
      "byteOffset": 1036,
      "componentType": 5126,
      "count": 259,
      "max": [
        6.25
      ],
      "min": [
        0.0
      ],
      "type": "SCALAR"
    },
    {
      "bufferView": 8,
      "componentType": 5126,
      "count": 259,
      "max": [
        0.7476160526275635,
        -2.2245716024826834e-07,
        -2.0235499675891333e-07,
        0.7345792055130005
      ],
      "min": [
        0.6785229444503784,
        -2.4358610062336084e-07,
        -2.2537646771070285e-07,
        0.6641311645507813
      ],
      "type": "VEC4"
    },
    {
      "bufferView": 6,
      "byteOffset": 2072,
      "componentType": 5126,
      "count": 167,
      "max": [
        6.25
      ],
      "min": [
        0.0
      ],
      "type": "SCALAR"
    },
    {
      "bufferView": 7,
      "byteOffset": 3108,
      "componentType": 5126,
      "count": 167,
      "max": [
        5.939259500875593e-16,
        -2.4927423000335693,
        -0.32673466205596924
      ],
      "min": [
        4.718447854656915e-16,
        -2.4927425384521484,
        -0.3267346918582916
      ],
      "type": "VEC3"
    },
    {
      "bufferView": 6,
      "byteOffset": 2740,
      "componentType": 5126,
      "count": 299,
      "max": [
        6.25
      ],
      "min": [
        0.0
      ],
      "type": "SCALAR"
    },
    {
      "bufferView": 8,
      "byteOffset": 4144,
      "componentType": 5126,
      "count": 299,
      "max": [
        -0.6721588373184204,
        0.22584272921085358,
        0.1366485357284546,
        0.7051212191581726
      ],
      "min": [
        -0.7090845108032227,
        -0.1397956907749176,
        -0.22100137174129486,
        0.669593870639801
      ],
      "type": "VEC4"
    },
    {
      "bufferView": 6,
      "byteOffset": 3936,
      "componentType": 5126,
      "count": 4,
      "max": [
        6.25
      ],
      "min": [
        0.0
      ],
      "type": "SCALAR"
    },
    {
      "bufferView": 7,
      "byteOffset": 5112,
      "componentType": 5126,
      "count": 4,
      "max": [
        2.4000000953674316,
        0.3017725646495819,
        -0.19731537997722626
      ],
      "min": [
        2.4000000953674316,
        0.3017725348472595,
        -0.19731537997722626
      ],
      "type": "VEC3"
    },
    {
      "bufferView": 6,
      "byteOffset": 3952,
      "componentType": 5126,
      "count": 142,
      "max": [
        6.25
      ],
      "min": [
        0.0
      ],
      "type": "SCALAR"
    },
    {
      "bufferView": 8,
      "byteOffset": 8928,
      "componentType": 5126,
      "count": 142,
      "max": [
        0.08762942999601364,
        4.9770636152994194e-14,
        -3.5940997615429052e-22,
        1.0
      ],
      "min": [
        -7.450580596923828e-09,
        4.957917282559683e-14,
        -4.361373068928866e-15,
        0.9961531162261963
      ],
      "type": "VEC4"
    },
    {
      "bufferView": 6,
      "byteOffset": 4520,
      "componentType": 5126,
      "count": 4,
      "max": [
        6.25
      ],
      "min": [
        0.0
      ],
      "type": "SCALAR"
    },
    {
      "bufferView": 7,
      "byteOffset": 5160,
      "componentType": 5126,
      "count": 4,
      "max": [
        -2.4000000953674316,
        0.3017725646495819,
        -0.19731537997722626
      ],
      "min": [
        -2.4000000953674316,
        0.3017725348472595,
        -0.19731537997722626
      ],
      "type": "VEC3"
    },
    {
      "bufferView": 6,
      "byteOffset": 4536,
      "componentType": 5126,
      "count": 142,
      "max": [
        6.25
      ],
      "min": [
        0.0
      ],
      "type": "SCALAR"
    },
    {
      "bufferView": 8,
      "byteOffset": 11200,
      "componentType": 5126,
      "count": 142,
      "max": [
        0.08762942999601364,
        -4.935996069884742e-14,
        4.342089516851675e-15,
        1.0
      ],
      "min": [
        -7.450580596923828e-09,
        -4.9550576993297527e-14,
        3.817438274496733e-22,
        0.9961531162261963
      ],
      "type": "VEC4"
    },
    {
      "bufferView": 6,
      "byteOffset": 5104,
      "componentType": 5126,
      "count": 300,
      "max": [
        6.25
      ],
      "min": [
        0.0
      ],
      "type": "SCALAR"
    },
    {
      "bufferView": 7,
      "byteOffset": 5208,
      "componentType": 5126,
      "count": 300,
      "max": [
        0.055583350360393524,
        0.0009703660616651177,
        0.11485102772712708
      ],
      "min": [
        -1.3010426069826053e-18,
        -0.0007572003523819149,
        -0.09242434799671173
      ],
      "type": "VEC3"
    },
    {
      "bufferView": 6,
      "byteOffset": 6304,
      "componentType": 5126,
      "count": 1,
      "max": [
        0.0
      ],
      "min": [
        0.0
      ],
      "type": "SCALAR"
    },
    {
      "bufferView": 8,
      "byteOffset": 13472,
      "componentType": 5126,
      "count": 1,
      "max": [
        0.7115985751152039,
        -2.2055336046378216e-07,
        -2.2338252847475815e-07,
        0.7025862336158752
      ],
      "min": [
        0.7115985751152039,
        -2.2055336046378216e-07,
        -2.2338252847475815e-07,
        0.7025862336158752
      ],
      "type": "VEC4"
    },
    {
      "bufferView": 6,
      "byteOffset": 6308,
      "componentType": 5126,
      "count": 1,
      "max": [
        0.0
      ],
      "min": [
        0.0
      ],
      "type": "SCALAR"
    },
    {
      "bufferView": 8,
      "byteOffset": 13488,
      "componentType": 5126,
      "count": 1,
      "max": [
        -0.7084572911262512,
        1.7486253195203236e-14,
        -1.7395932377971615e-14,
        0.7057536840438843
      ],
      "min": [
        -0.7084572911262512,
        1.7486253195203236e-14,
        -1.7395932377971615e-14,
        0.7057536840438843
      ],
      "type": "VEC4"
    },
    {
      "bufferView": 6,
      "byteOffset": 6312,
      "componentType": 5126,
      "count": 1,
      "max": [
        0.0
      ],
      "min": [
        0.0
      ],
      "type": "SCALAR"
    },
    {
      "bufferView": 8,
      "byteOffset": 13504,
      "componentType": 5126,
      "count": 1,
      "max": [
        -7.450580596923828e-09,
        4.9770636152994194e-14,
        -3.5940997615429052e-22,
        1.0
      ],
      "min": [
        -7.450580596923828e-09,
        4.9770636152994194e-14,
        -3.5940997615429052e-22,
        1.0
      ],
      "type": "VEC4"
    },
    {
      "bufferView": 6,
      "byteOffset": 6316,
      "componentType": 5126,
      "count": 1,
      "max": [
        0.0
      ],
      "min": [
        0.0
      ],
      "type": "SCALAR"
    },
    {
      "bufferView": 8,
      "byteOffset": 13520,
      "componentType": 5126,
      "count": 1,
      "max": [
        -7.450580596923828e-09,
        -4.9550576993297527e-14,
        3.817438274496733e-22,
        1.0
      ],
      "min": [
        -7.450580596923828e-09,
        -4.9550576993297527e-14,
        3.817438274496733e-22,
        1.0
      ],
      "type": "VEC4"
    },
    {
      "bufferView": 6,
      "byteOffset": 6320,
      "componentType": 5126,
      "count": 1,
      "max": [
        0.0
      ],
      "min": [
        0.0
      ],
      "type": "SCALAR"
    },
    {
      "bufferView": 7,
      "byteOffset": 8808,
      "componentType": 5126,
      "count": 1,
      "max": [
        0.0,
        0.0,
        0.0
      ],
      "min": [
        0.0,
        0.0,
        0.0
      ],
      "type": "VEC3"
    }
  ],
  "animations": [
    {
      "channels": [
        {
          "sampler": 0,
          "target": {
            "node": 21,
            "path": "translation"
          }
        },
        {
          "sampler": 1,
          "target": {
            "node": 21,
            "path": "rotation"
          }
        },
        {
          "sampler": 2,
          "target": {
            "node": 20,
            "path": "translation"
          }
        },
        {
          "sampler": 3,
          "target": {
            "node": 20,
            "path": "rotation"
          }
        },
        {
          "sampler": 4,
          "target": {
            "node": 23,
            "path": "translation"
          }
        },
        {
          "sampler": 5,
          "target": {
            "node": 23,
            "path": "rotation"
          }
        },
        {
          "sampler": 6,
          "target": {
            "node": 25,
            "path": "translation"
          }
        },
        {
          "sampler": 7,
          "target": {
            "node": 25,
            "path": "rotation"
          }
        },
        {
          "sampler": 8,
          "target": {
            "node": 19,
            "path": "translation"
          }
        }
      ],
      "name": "Idle",
      "samplers": [
        {
          "input": 25,
          "interpolation": "LINEAR",
          "output": 26
        },
        {
          "input": 27,
          "interpolation": "LINEAR",
          "output": 28
        },
        {
          "input": 29,
          "interpolation": "LINEAR",
          "output": 30
        },
        {
          "input": 31,
          "interpolation": "LINEAR",
          "output": 32
        },
        {
          "input": 33,
          "interpolation": "LINEAR",
          "output": 34
        },
        {
          "input": 35,
          "interpolation": "LINEAR",
          "output": 36
        },
        {
          "input": 37,
          "interpolation": "LINEAR",
          "output": 38
        },
        {
          "input": 39,
          "interpolation": "LINEAR",
          "output": 40
        },
        {
          "input": 41,
          "interpolation": "LINEAR",
          "output": 42
        }
      ]
    },
    {
      "channels": [
        {
          "sampler": 0,
          "target": {
            "node": 21,
            "path": "rotation"
          }
        },
        {
          "sampler": 1,
          "target": {
            "node": 20,
            "path": "rotation"
          }
        },
        {
          "sampler": 2,
          "target": {
            "node": 23,
            "path": "rotation"
          }
        },
        {
          "sampler": 3,
          "target": {
            "node": 25,
            "path": "rotation"
          }
        },
        {
          "sampler": 4,
          "target": {
            "node": 19,
            "path": "translation"
          }
        }
      ],
      "name": "Static",
      "samplers": [
        {
          "input": 43,
          "interpolation": "LINEAR",
          "output": 44
        },
        {
          "input": 45,
          "interpolation": "LINEAR",
          "output": 46
        },
        {
          "input": 47,
          "interpolation": "LINEAR",
          "output": 48
        },
        {
          "input": 49,
          "interpolation": "LINEAR",
          "output": 50
        },
        {
          "input": 51,
          "interpolation": "LINEAR",
          "output": 52
        }
      ]
    }
  ],
  "asset": {
    "extras": {
      "author": "ARKON-83 (https://sketchfab.com/ARKON-83)",
      "license": "CC-BY-4.0 (http://creativecommons.org/licenses/by/4.0/)",
      "source": "https://sketchfab.com/3d-models/star-wars-aat-9ed126f4616a482fabee52b0e0d46e52",
      "title": "-Star Wars- AAT"
    },
    "generator": "Sketchfab-13.74.0",
    "version": "2.0"
  },
  "bufferViews": [
    {
      "buffer": 0,
      "byteLength": 124960,
      "byteStride": 8,
      "name": "shortBufferViews",
      "target": 34962
    },
    {
      "buffer": 0,
      "byteLength": 177144,
      "byteOffset": 124960,
      "name": "floatBufferViews",
      "target": 34963
    },
    {
      "buffer": 0,
      "byteLength": 124960,
      "byteOffset": 302104,
      "byteStride": 8,
      "name": "floatBufferViews",
      "target": 34962
    },
    {
      "buffer": 0,
      "byteLength": 374880,
      "byteOffset": 427064,
      "byteStride": 12,
      "name": "floatBufferViews",
      "target": 34962
    },
    {
      "buffer": 0,
      "byteLength": 249920,
      "byteOffset": 801944,
      "byteStride": 16,
      "name": "floatBufferViews",
      "target": 34962
    },
    {
      "buffer": 0,
      "byteLength": 576,
      "byteOffset": 1051864,
      "name": "floatBufferViews"
    },
    {
      "buffer": 0,
      "byteLength": 6324,
      "byteOffset": 1052440,
      "name": "floatBufferViews"
    },
    {
      "buffer": 0,
      "byteLength": 8820,
      "byteOffset": 1058764,
      "byteStride": 12,
      "name": "floatBufferViews"
    },
    {
      "buffer": 0,
      "byteLength": 13536,
      "byteOffset": 1067584,
      "byteStride": 16,
      "name": "floatBufferViews"
    }
  ],
  "buffers": [
    {
      "byteLength": 1081120,
      "uri": "scene.bin"
    }
  ],
  "images": [
    {
      "uri": "textures/Bake2_baseColor.png"
    },
    {
      "uri": "textures/Bake2_metallicRoughness.png"
    },
    {
      "uri": "textures/Bake3_baseColor.png"
    },
    {
      "uri": "textures/Bake3_metallicRoughness.png"
    },
    {
      "uri": "textures/Bake1_baseColor.png"
    },
    {
      "uri": "textures/Bake1_metallicRoughness.png"
    }
  ],
  "materials": [
    {
      "doubleSided": true,
      "name": "Bake2",
      "pbrMetallicRoughness": {
        "baseColorTexture": {
          "index": 0
        },
        "metallicFactor": 0.0,
        "metallicRoughnessTexture": {
          "index": 1
        }
      }
    },
    {
      "doubleSided": true,
      "name": "Bake3",
      "pbrMetallicRoughness": {
        "baseColorTexture": {
          "index": 2
        },
        "metallicFactor": 0.0,
        "metallicRoughnessTexture": {
          "index": 3
        }
      }
    },
    {
      "doubleSided": true,
      "name": "Bake1",
      "pbrMetallicRoughness": {
        "baseColorTexture": {
          "index": 4
        },
        "metallicFactor": 0.0,
        "metallicRoughnessTexture": {
          "index": 5
        }
      }
    }
  ],
  "meshes": [
    {
      "name": "Cylinder.002_Bake2_0",
      "primitives": [
        {
          "attributes": {
            "JOINTS_0": 17,
            "NORMAL": 1,
            "POSITION": 0,
            "TEXCOORD_0": 2,
            "TEXCOORD_1": 2,
            "WEIGHTS_0": 18
          },
          "indices": 3,
          "material": 0,
          "mode": 4
        }
      ]
    },
    {
      "name": "Cube.004_Bake3_0",
      "primitives": [
        {
          "attributes": {
            "JOINTS_0": 19,
            "NORMAL": 5,
            "POSITION": 4,
            "TEXCOORD_0": 6,
            "TEXCOORD_1": 6,
            "WEIGHTS_0": 20
          },
          "indices": 7,
          "material": 1,
          "mode": 4
        }
      ]
    },
    {
      "name": "Cube.005_Bake2_0",
      "primitives": [
        {
          "attributes": {
            "JOINTS_0": 21,
            "NORMAL": 9,
            "POSITION": 8,
            "TEXCOORD_0": 10,
            "TEXCOORD_1": 10,
            "WEIGHTS_0": 22
          },
          "indices": 11,
          "material": 0,
          "mode": 4
        }
      ]
    },
    {
      "name": "Base .002_Bake1_0",
      "primitives": [
        {
          "attributes": {
            "JOINTS_0": 23,
            "NORMAL": 13,
            "POSITION": 12,
            "TEXCOORD_0": 14,
            "TEXCOORD_1": 14,
            "WEIGHTS_0": 24
          },
          "indices": 15,
          "material": 2,
          "mode": 4
        }
      ]
    }
  ],
  "nodes": [
    {
      "children": [
        1
      ],
      "matrix": [
        0.2649473547935486,
        0.0,
        0.0,
        0.0,
        0.0,
        5.88301307210656e-17,
        -0.2649473547935486,
        0.0,
        0.0,
        0.2649473547935486,
        5.88301307210656e-17,
        0.0,
        0.0,
        0.0,
        0.0,
        1.0
      ],
      "name": "Sketchfab_model"
    },
    {
      "children": [
        2
      ],
      "matrix": [
        0.009999999776482582,
        0.0,
        0.0,
        0.0,
        0.0,
        0.0,
        0.009999999776482582,
        0.0,
        0.0,
        -0.009999999776482582,
        0.0,
        0.0,
        0.0,
        0.0,
        0.0,
        1.0
      ],
      "name": "27871dff8adf4011a3aba14193d7ab06.fbx"
    },
    {
      "children": [
        3
      ],
      "name": "Object_2"
    },
    {
      "children": [
        4,
        5,
        6,
        7,
        8
      ],
      "name": "RootNode"
    },
    {
      "name": "Cylinder.002",
      "rotation": [
        -0.7071068286895752,
        0.0,
        0.0,
        0.7071067094802856
      ],
      "scale": [
        100.0,
        100.0,
        100.0
      ],
      "translation": [
        69.8778076171875,
        378.0520324707031,
        -590.7488403320313
      ]
    },
    {
      "name": "Cube.004",
      "rotation": [
        -0.7071068286895752,
        0.0,
        0.0,
        0.7071067094802856
      ],
      "scale": [
        100.0,
        100.0,
        100.0
      ],
      "translation": [
        0.0,
        150.0,
        -29.999996185302734
      ]
    },
    {
      "name": "Cube.005",
      "rotation": [
        -0.7071068286895752,
        0.0,
        0.0,
        0.7071067094802856
      ],
      "scale": [
        100.0,
        100.0,
        100.0
      ],
      "translation": [
        0.0,
        150.0,
        -29.999996185302734
      ]
    },
    {
      "name": "Base .002",
      "rotation": [
        -0.7071068286895752,
        0.0,
        0.0,
        0.7071067094802856
      ],
      "scale": [
        100.0,
        100.0,
        100.0
      ]
    },
    {
      "children": [
        9
      ],
      "name": "Armature.001",
      "rotation": [
        -0.7071068286895752,
        0.0,
        0.0,
        0.7071067094802856
      ],
      "scale": [
        100.0,
        100.0,
        100.0
      ],
      "translation": [
        -0.12218952178955078,
        273.0000305175781,
        -274.74884033203125
      ]
    },
    {
      "children": [
        10,
        12,
        14,
        16,
        18,
        11,
        13,
        15,
        17
      ],
      "name": "Object_9"
    },
    {
      "children": [
        19
      ],
      "name": "_rootJoint"
    },
    {
      "matrix": [
        100.00001192092896,
        -1.1067720519734713e-21,
        1.1577166135019973e-22,
        0.0,
        1.1577165719545485e-22,
        -1.4290652633225568e-08,
        -100.00000846880572,
        0.0,
        1.1067720137828852e-21,
        100.00000846880572,
        -1.4290652633225568e-08,
        0.0,
        69.87781524658199,
        378.05204235870497,
        -590.7488766731803,
        1.0
      ],
      "name": "Object_11"
    },
    {
      "mesh": 0,
      "name": "Object_12",
      "skin": 0
    },
    {
      "matrix": [
        100.00001192092896,
        -1.1067720519734713e-21,
        1.1577166135019973e-22,
        0.0,
        1.1577165719545485e-22,
        -1.4290652633225568e-08,
        -100.00000846880572,
        0.0,
        1.1067720137828852e-21,
        100.00000846880572,
        -1.4290652633225568e-08,
        0.0,
        2.328309091359504e-08,
        149.99998000576852,
        -30.000013096981775,
        1.0
      ],
      "name": "Object_13"
    },
    {
      "mesh": 1,
      "name": "Object_14",
      "skin": 0
    },
    {
      "matrix": [
        100.00001192092896,
        -1.1067720519734713e-21,
        1.1577166135019973e-22,
        0.0,
        1.1577165719545485e-22,
        -1.4290652633225568e-08,
        -100.00000846880572,
        0.0,
        1.1067720137828852e-21,
        100.00000846880572,
        -1.4290652633225568e-08,
        0.0,
        2.328309091359504e-08,
        149.99998000576852,
        -30.000013096981775,
        1.0
      ],
      "name": "Object_15"
    },
    {
      "mesh": 2,
      "name": "Object_16",
      "skin": 0
    },
    {
      "matrix": [
        100.00001192092896,
        -1.1067720519734713e-21,
        1.1577166135019973e-22,
        0.0,
        1.1577165719545485e-22,
        -1.4290652633225568e-08,
        -100.00000846880572,
        0.0,
        1.1067720137828852e-21,
        100.00000846880572,
        -1.4290652633225568e-08,
        0.0,
        2.3283064212731297e-08,
        -2.197966205130797e-05,
        -4.99576981383143e-06,
        1.0
      ],
      "name": "Object_17"
    },
    {
      "mesh": 3,
      "name": "Object_18",
      "skin": 0
    },
    {
      "children": [
        20,
        23,
        25
      ],
      "name": "Body_00",
      "rotation": [
        0.9999900460243225,
        1.1052592130308993e-16,
        -1.1052197068848438e-16,
        0.004461110569536686
      ],
      "translation": [
        0.0391591340303421,
        0.0005755926249548793,
        0.06451001018285751
      ]
    },
    {
      "children": [
        21
      ],
      "name": "Head_01",
      "rotation": [
        -0.7049127817153931,
        -0.07140518724918365,
        0.06987448781728745,
        0.7022227644920349
      ],
      "scale": [
        1.0,
        0.9999999403953552,
        1.0
      ],
      "translation": [
        3.725290742551124e-09,
        -2.4927425384521484,
        -0.32673466205596924
      ]
    },
    {
      "children": [
        22
      ],
      "name": "Main Gun_02",
      "rotation": [
        0.7295717597007751,
        -2.1108827752414072e-07,
        -2.300066768157194e-07,
        0.6839042901992798
      ],
      "scale": [
        1.0,
        0.9999999403953552,
        1.0
      ],
      "translation": [
        9.475265905223296e-09,
        0.5745345950126648,
        1.9985634088516235
      ]
    },
    {
      "name": "Main Gun_end_05",
      "rotation": [
        4.81482486096809e-35,
        1.734723475976807e-18,
        -2.7755575615628914e-17,
        1.0
      ],
      "translation": [
        2.220446049250313e-16,
        0.9000000357627869,
        0.0
      ]
    },
    {
      "children": [
        24
      ],
      "name": "Gun .L_03",
      "rotation": [
        0.08762943744659424,
        4.9598637642724736e-14,
        4.342086552236359e-15,
        0.9961532354354858
      ],
      "scale": [
        1.0,
        0.9999998807907104,
        0.9999998807907104
      ],
      "translation": [
        2.4000000953674316,
        0.3017725348472595,
        -0.19731539487838745
      ]
    },
    {
      "name": "Gun .L_end_06",
      "rotation": [
        2.7755575615628914e-17,
        -7.296963373294359e-30,
        -1.5777218104420236e-30,
        1.0
      ],
      "translation": [
        4.440892098500626e-16,
        0.9999999403953552,
        -4.440892098500626e-16
      ]
    },
    {
      "children": [
        26
      ],
      "name": "Gun .R_04",
      "rotation": [
        0.08762943744659424,
        -4.934052298677383e-14,
        -4.361370951346498e-15,
        0.9961532354354858
      ],
      "scale": [
        1.0,
        0.9999998807907104,
        0.9999998807907104
      ],
      "translation": [
        -2.4000000953674316,
        0.3017725348472595,
        -0.19731539487838745
      ]
    },
    {
      "name": "Gun .R_end_07",
      "rotation": [
        2.7755575615628914e-17,
        -1.932709217791479e-29,
        0.0,
        1.0
      ],
      "translation": [
        0.0,
        0.9999999403953552,
        0.0
      ]
    }
  ],
  "samplers": [
    {
      "magFilter": 9729,
      "minFilter": 9987,
      "wrapS": 10497,
      "wrapT": 10497
    }
  ],
  "scene": 0,
  "scenes": [
    {
      "name": "Sketchfab_Scene",
      "nodes": [
        0
      ]
    }
  ],
  "skins": [
    {
      "inverseBindMatrices": 16,
      "joints": [
        10,
        19,
        20,
        21,
        22,
        23,
        24,
        25,
        26
      ],
      "skeleton": 10
    }
  ],
  "textures": [
    {
      "sampler": 0,
      "source": 0
    },
    {
      "sampler": 0,
      "source": 1
    },
    {
      "sampler": 0,
      "source": 2
    },
    {
      "sampler": 0,
      "source": 3
    },
    {
      "sampler": 0,
      "source": 4
    },
    {
      "sampler": 0,
      "source": 5
    }
  ]
}
