{
  "accessors": [
    {
      "bufferView": 2,
      "componentType": 5126,
      "count": 3304,
      "max": [
        27.551773071289063,
        25.427703857421875,
        92.89094543457031
      ],
      "min": [
        -27.551773071289063,
        -25.2117919921875,
        3.6901910305023193
      ],
      "type": "VEC3"
    },
    {
      "bufferView": 2,
      "byteOffset": 39648,
      "componentType": 5126,
      "count": 3304,
      "max": [
        1.0,
        0.9725642800331116,
        1.0
      ],
      "min": [
        -1.0,
        -0.9931424260139465,
        -0.9830586910247803
      ],
      "type": "VEC3"
    },
    {
      "bufferView": 3,
      "componentType": 5126,
      "count": 3304,
      "max": [
        1.0,
        1.0,
        1.0,
        1.0
      ],
      "min": [
        -1.0,
        -1.0,
        -1.0,
        -1.0
      ],
      "type": "VEC4"
    },
    {
      "bufferView": 1,
      "componentType": 5126,
      "count": 3304,
      "max": [
        0.9848889708518982,
        0.9959419965744019
      ],
      "min": [
        0.0,
        0.0
      ],
      "type": "VEC2"
    },
    {
      "bufferView": 0,
      "componentType": 5125,
      "count": 6762,
      "type": "SCALAR"
    },
    {
      "bufferView": 2,
      "byteOffset": 79296,
      "componentType": 5126,
      "count": 9881,
      "max": [
        27.174728393554688,
        19.96817970275879,
        89.4284439086914
      ],
      "min": [
        -27.174728393554688,
        -27.326444625854492,
        3.7086620330810547
      ],
      "type": "VEC3"
    },
    {
      "bufferView": 2,
      "byteOffset": 197868,
      "componentType": 5126,
      "count": 9881,
      "max": [
        1.0,
        1.0,
        0.9999988675117493
      ],
      "min": [
        -1.0,
        -1.0,
        -1.0
      ],
      "type": "VEC3"
    },
    {
      "bufferView": 3,
      "byteOffset": 52864,
      "componentType": 5126,
      "count": 9881,
      "max": [
        1.0,
        1.0,
        1.0,
        1.0
      ],
      "min": [
        -1.0,
        -1.0,
        -1.0,
        -1.0
      ],
      "type": "VEC4"
    },
    {
      "bufferView": 1,
      "byteOffset": 26432,
      "componentType": 5126,
      "count": 9881,
      "max": [
        0.9942209720611572,
        0.9903389811515808
      ],
      "min": [
        0.0,
        0.0
      ],
      "type": "VEC2"
    },
    {
      "bufferView": 0,
      "byteOffset": 27048,
      "componentType": 5125,
      "count": 38295,
      "type": "SCALAR"
    },
    {
      "bufferView": 2,
      "byteOffset": 316440,
      "componentType": 5126,
      "count": 9988,
      "max": [
        27.60150146484375,
        25.47498321533203,
        104.7965087890625
      ],
      "min": [
        -27.60150146484375,
        -27.326444625854492,
        3.7086610794067383
      ],
      "type": "VEC3"
    },
    {
      "bufferView": 2,
      "byteOffset": 436296,
      "componentType": 5126,
      "count": 9988,
      "max": [
        1.0,
        1.0,
        1.0
      ],
      "min": [
        -1.0,
        -1.0,
        -0.9999988675117493
      ],
      "type": "VEC3"
    },
    {
      "bufferView": 3,
      "byteOffset": 210960,
      "componentType": 5126,
      "count": 9988,
      "max": [
        1.0,
        0.9999999403953552,
        0.9999998807907104,
        1.0
      ],
      "min": [
        -1.0,
        -0.9999999403953552,
        -0.9999937415122986,
        -1.0
      ],
      "type": "VEC4"
    },
    {
      "bufferView": 1,
      "byteOffset": 105480,
      "componentType": 5126,
      "count": 9988,
      "max": [
        0.9990170001983643,
        0.9808689951896667
      ],
      "min": [
        0.0,
        0.0
      ],
      "type": "VEC2"
    },
    {
      "bufferView": 0,
      "byteOffset": 180228,
      "componentType": 5125,
      "count": 39795,
      "type": "SCALAR"
    },
    {
      "bufferView": 2,
      "byteOffset": 556152,
      "componentType": 5126,
      "count": 9997,
      "max": [
        27.602489471435547,
        25.480777740478516,
        63.58369064331055
      ],
      "min": [
        -24.855899810791016,
        -8.733750343322754,
        1.1776139736175537
      ],
      "type": "VEC3"
    },
    {
      "bufferView": 2,
      "byteOffset": 676116,
      "componentType": 5126,
      "count": 9997,
      "max": [
        1.0,
        0.9999804496765137,
        1.0
      ],
      "min": [
        -1.0,
        -1.0,
        -1.0
      ],
      "type": "VEC3"
    },
    {
      "bufferView": 3,
      "byteOffset": 370768,
      "componentType": 5126,
      "count": 9997,
      "max": [
        1.0,
        0.9999765157699585,
        1.0,
        1.0
      ],
      "min": [
        -1.0,
        -1.0,
        -1.0,
        -1.0
      ],
      "type": "VEC4"
    },
    {
      "bufferView": 1,
      "byteOffset": 185384,
      "componentType": 5126,
      "count": 9997,
      "max": [
        1.0,
        0.990776002407074
      ],
      "min": [
        0.0,
        0.0
      ],
      "type": "VEC2"
    },
    {
      "bufferView": 0,
      "byteOffset": 339408,
      "componentType": 5125,
      "count": 29790,
      "type": "SCALAR"
    },
    {
      "bufferView": 2,
      "byteOffset": 796080,
      "componentType": 5126,
      "count": 9990,
      "max": [
        26.426332473754883,
        25.480777740478516,
        93.6585464477539
      ],
      "min": [
        -27.602489471435547,
        -8.733750343322754,
        1.1776139736175537
      ],
      "type": "VEC3"
    },
    {
      "bufferView": 2,
      "byteOffset": 915960,
      "componentType": 5126,
      "count": 9990,
      "max": [
        1.0,
        0.9999805092811584,
        1.0
      ],
      "min": [
        -1.0,
        -1.0,
        -1.0
      ],
      "type": "VEC3"
    },
    {
      "bufferView": 3,
      "byteOffset": 530720,
      "componentType": 5126,
      "count": 9990,
      "max": [
        1.0,
        1.0,
        1.0,
        1.0
      ],
      "min": [
        -1.0,
        -1.0,
        -0.9999997615814209,
        -1.0
      ],
      "type": "VEC4"
    },
    {
      "bufferView": 1,
      "byteOffset": 265360,
      "componentType": 5126,
      "count": 9990,
      "max": [
        0.9996160268783569,
        0.9905470013618469
      ],
      "min": [
        0.0,
        0.0
      ],
      "type": "VEC2"
    },
    {
      "bufferView": 0,
      "byteOffset": 458568,
      "componentType": 5125,
      "count": 31452,
      "type": "SCALAR"
    },
    {
      "bufferView": 2,
      "byteOffset": 1035840,
      "componentType": 5126,
      "count": 9991,
      "max": [
        25.04175567626953,
        22.618593215942383,
        67.640380859375
      ],
      "min": [
        -27.036497116088867,
        -24.580276489257813,
        4.6831231117248535
      ],
      "type": "VEC3"
    },
    {
      "bufferView": 2,
      "byteOffset": 1155732,
      "componentType": 5126,
      "count": 9991,
      "max": [
        1.0,
        0.9995892643928528,
        1.0
      ],
      "min": [
        -1.0,
        -1.0,
        -1.0
      ],
      "type": "VEC3"
    },
    {
      "bufferView": 3,
      "byteOffset": 690560,
      "componentType": 5126,
      "count": 9991,
      "max": [
        1.0,
        1.0,
        0.9999977946281433,
        1.0
      ],
      "min": [
        -1.0,
        -1.0,
        -0.9999846816062927,
        -1.0
      ],
      "type": "VEC4"
    },
    {
      "bufferView": 1,
      "byteOffset": 345280,
      "componentType": 5126,
      "count": 9991,
      "max": [
        0.9990159869194031,
        0.9955450296401978
      ],
      "min": [
        0.0,
        0.0
      ],
      "type": "VEC2"
    },
    {
      "bufferView": 0,
      "byteOffset": 584376,
      "componentType": 5125,
      "count": 31482,
      "type": "SCALAR"
    },
    {
      "bufferView": 2,
      "byteOffset": 1275624,
      "componentType": 5126,
      "count": 9993,
      "max": [
        17.840068817138672,
        22.541366577148438,
        95.96155548095703
      ],
      "min": [
        -17.854398727416992,
        -25.32687759399414,
        17.015169143676758
      ],
      "type": "VEC3"
    },
    {
      "bufferView": 2,
      "byteOffset": 1395540,
      "componentType": 5126,
      "count": 9993,
      "max": [
        1.0,
        0.9995473623275757,
        0.9991786479949951
      ],
      "min": [
        -1.0,
        -0.9999521374702454,
        -0.9986372590065002
      ],
      "type": "VEC3"
    },
    {
      "bufferView": 3,
      "byteOffset": 850416,
      "componentType": 5126,
      "count": 9993,
      "max": [
        0.9999969601631165,
        0.9984418749809265,
        0.9991583228111267,
        1.0
      ],
      "min": [
        -0.9999988675117493,
        -0.9998571276664734,
        -0.9992862343788147,
        -1.0
      ],
      "type": "VEC4"
    },
    {
      "bufferView": 1,
      "byteOffset": 425208,
      "componentType": 5126,
      "count": 9993,
      "max": [
        0.9894589781761169,
        0.9793059825897217
      ],
      "min": [
        0.0,
        0.0
      ],
      "type": "VEC2"
    },
    {
      "bufferView": 0,
      "byteOffset": 710304,
      "componentType": 5125,
      "count": 30522,
      "type": "SCALAR"
    },
    {
      "bufferView": 2,
      "byteOffset": 1515456,
      "componentType": 5126,
      "count": 9941,
      "max": [
        25.222929000854492,
        17.844934463500977,
        74.3863525390625
      ],
      "min": [
        -16.980878829956055,
        -27.33687400817871,
        1.1776139736175537
      ],
      "type": "VEC3"
    },
    {
      "bufferView": 2,
      "byteOffset": 1634748,
      "componentType": 5126,
      "count": 9941,
      "max": [
        1.0,
        0.9999922513961792,
        1.0
      ],
      "min": [
        -1.0,
        -0.9999922513961792,
        -1.0
      ],
      "type": "VEC3"
    },
    {
      "bufferView": 3,
      "byteOffset": 1010304,
      "componentType": 5126,
      "count": 9941,
      "max": [
        1.0,
        1.0,
        0.9999763369560242,
        1.0
      ],
      "min": [
        -1.0,
        -1.0,
        -0.9999698996543884,
        -1.0
      ],
      "type": "VEC4"
    },
    {
      "bufferView": 1,
      "byteOffset": 505152,
      "componentType": 5126,
      "count": 9941,
      "max": [
        0.9993900060653687,
        0.9839720129966736
      ],
      "min": [
        0.0,
        0.003773000091314316
      ],
      "type": "VEC2"
    },
    {
      "bufferView": 0,
      "byteOffset": 832392,
      "componentType": 5125,
      "count": 31032,
      "type": "SCALAR"
    },
    {
      "bufferView": 2,
      "byteOffset": 1754040,
      "componentType": 5126,
      "count": 6841,
      "max": [
        18.02865982055664,
        22.601268768310547,
        92.94427490234375
      ],
      "min": [
        -18.02865982055664,
        -25.19590950012207,
        14.627375602722168
      ],
      "type": "VEC3"
    },
    {
      "bufferView": 2,
      "byteOffset": 1836132,
      "componentType": 5126,
      "count": 6841,
      "max": [
        1.0,
        0.9992508888244629,
        0.9990304708480835
      ],
      "min": [
        -1.0,
        -0.9992483854293823,
        -0.9998462200164795
      ],
      "type": "VEC3"
    },
    {
      "bufferView": 3,
      "byteOffset": 1169360,
      "componentType": 5126,
      "count": 6841,
      "max": [
        0.9999982118606567,
        0.9993112683296204,
        0.99507075548172,
        1.0
      ],
      "min": [
        -1.0,
        -0.9993346333503723,
        -0.9992509484291077,
        -1.0
      ],
      "type": "VEC4"
    },
    {
      "bufferView": 1,
      "byteOffset": 584680,
      "componentType": 5126,
      "count": 6841,
      "max": [
        0.9707159996032715,
        0.9959419965744019
      ],
      "min": [
        0.0,
        0.0
      ],
      "type": "VEC2"
    },
    {
      "bufferView": 0,
      "byteOffset": 956520,
      "componentType": 5125,
      "count": 19680,
      "type": "SCALAR"
    }
  ],
  "asset": {
    "extras": {
      "author": "Hunter Wiltse (https://sketchfab.com/hunterwiltse)",
      "license": "CC-BY-4.0 (http://creativecommons.org/licenses/by/4.0/)",
      "source": "https://sketchfab.com/3d-models/r5-j2-imperial-astromech-droid-2d1bf74e06a347449a20c8f2181aac78",
      "title": "R5-J2 Imperial Astromech Droid"
    },
    "generator": "Sketchfab-12.66.0",
    "version": "2.0"
  },
  "bufferViews": [
    {
      "buffer": 0,
      "byteLength": 1035240,
      "name": "floatBufferViews",
      "target": 34963
    },
    {
      "buffer": 0,
      "byteLength": 639408,
      "byteOffset": 1035240,
      "byteStride": 8,
      "name": "floatBufferViews",
      "target": 34962
    },
    {
      "buffer": 0,
      "byteLength": 1918224,
      "byteOffset": 1674648,
      "byteStride": 12,
      "name": "floatBufferViews",
      "target": 34962
    },
    {
      "buffer": 0,
      "byteLength": 1278816,
      "byteOffset": 3592872,
      "byteStride": 16,
      "name": "floatBufferViews",
      "target": 34962
    }
  ],
  "buffers": [
    {
      "byteLength": 4871688,
      "uri": "scene.bin"
    }
  ],
  "extensionsRequired": [
    "KHR_materials_pbrSpecularGlossiness"
  ],
  "extensionsUsed": [
    "KHR_materials_pbrSpecularGlossiness"
  ],
  "images": [
    {
      "uri": "textures/blinn1SG_diffuse.png"
    },
    {
      "uri": "textures/blinn1SG_specularGlossiness.png"
    },
    {
      "uri": "textures/blinn1SG_normal.png"
    }
  ],
  "materials": [
    {
      "doubleSided": true,
      "extensions": {
        "KHR_materials_pbrSpecularGlossiness": {
          "diffuseFactor": [
            1.0,
            1.0,
            1.0,
            1.0
          ],
          "diffuseTexture": {
            "index": 0
          },
          "glossinessFactor": 1.0,
          "specularFactor": [
            1.0,
            1.0,
            1.0
          ],
          "specularGlossinessTexture": {
            "index": 1
          }
        }
      },
      "name": "blinn1SG",
      "normalTexture": {
        "index": 2
      }
    }
  ],
  "meshes": [
    {
      "name": "Object_0",
      "primitives": [
        {
          "attributes": {
            "NORMAL": 1,
            "POSITION": 0,
            "TANGENT": 2,
            "TEXCOORD_0": 3
          },
          "indices": 4,
          "material": 0,
          "mode": 4
        }
      ]
    },
    {
      "name": "Object_1",
      "primitives": [
        {
          "attributes": {
            "NORMAL": 6,
            "POSITION": 5,
            "TANGENT": 7,
            "TEXCOORD_0": 8
          },
          "indices": 9,
          "material": 0,
          "mode": 4
        }
      ]
    },
    {
      "name": "Object_2",
      "primitives": [
        {
          "attributes": {
            "NORMAL": 11,
            "POSITION": 10,
            "TANGENT": 12,
            "TEXCOORD_0": 13
          },
          "indices": 14,
          "material": 0,
          "mode": 4
        }
      ]
    },
    {
      "name": "Object_3",
      "primitives": [
        {
          "attributes": {
            "NORMAL": 16,
            "POSITION": 15,
            "TANGENT": 17,
            "TEXCOORD_0": 18
          },
          "indices": 19,
          "material": 0,
          "mode": 4
        }
      ]
    },
    {
      "name": "Object_4",
      "primitives": [
        {
          "attributes": {
            "NORMAL": 21,
            "POSITION": 20,
            "TANGENT": 22,
            "TEXCOORD_0": 23
          },
          "indices": 24,
          "material": 0,
          "mode": 4
        }
      ]
    },
    {
      "name": "Object_5",
      "primitives": [
        {
          "attributes": {
            "NORMAL": 26,
            "POSITION": 25,
            "TANGENT": 27,
            "TEXCOORD_0": 28
          },
          "indices": 29,
          "material": 0,
          "mode": 4
        }
      ]
    },
    {
      "name": "Object_6",
      "primitives": [
        {
          "attributes": {
            "NORMAL": 31,
            "POSITION": 30,
            "TANGENT": 32,
            "TEXCOORD_0": 33
          },
          "indices": 34,
          "material": 0,
          "mode": 4
        }
      ]
    },
    {
      "name": "Object_7",
      "primitives": [
        {
          "attributes": {
            "NORMAL": 36,
            "POSITION": 35,
            "TANGENT": 37,
            "TEXCOORD_0": 38
          },
          "indices": 39,
          "material": 0,
          "mode": 4
        }
      ]
    },
    {
      "name": "Object_8",
      "primitives": [
        {
          "attributes": {
            "NORMAL": 41,
            "POSITION": 40,
            "TANGENT": 42,
            "TEXCOORD_0": 43
          },
          "indices": 44,
          "material": 0,
          "mode": 4
        }
      ]
    }
  ],
  "nodes": [
    {
      "children": [
        1
      ],
      "matrix": [
        1.0,
        0.0,
        0.0,
        0.0,
        0.0,
        2.220446049250313e-16,
        -1.0,
        0.0,
        0.0,
        1.0,
        2.220446049250313e-16,
        0.0,
        0.0,
        0.0,
        0.0,
        1.0
      ],
      "name": "Sketchfab_model"
    },
    {
      "children": [
        2,
        3,
        4,
        5,
        6,
        7,
        8,
        9,
        10
      ],
      "name": "R5J2Posed.obj.cleaner.materialmerger.gles"
    },
    {
      "mesh": 0,
      "name": "Object_2"
    },
    {
      "mesh": 1,
      "name": "Object_3"
    },
    {
      "mesh": 2,
      "name": "Object_4"
    },
    {
      "mesh": 3,
      "name": "Object_5"
    },
    {
      "mesh": 4,
      "name": "Object_6"
    },
    {
      "mesh": 5,
      "name": "Object_7"
    },
    {
      "mesh": 6,
      "name": "Object_8"
    },
    {
      "mesh": 7,
      "name": "Object_9"
    },
    {
      "mesh": 8,
      "name": "Object_10"
    }
  ],
  "samplers": [
    {
      "magFilter": 9729,
      "minFilter": 9987,
      "wrapS": 10497,
      "wrapT": 10497
    }
  ],
  "scene": 0,
  "scenes": [
    {
      "name": "Sketchfab_Scene",
      "nodes": [
        0
      ]
    }
  ],
  "textures": [
    {
      "sampler": 0,
      "source": 0
    },
    {
      "sampler": 0,
      "source": 1
    },
    {
      "sampler": 0,
      "source": 2
    }
  ]
}
