{
  "accessors": [
    {
      "bufferView": 2,
      "componentType": 5126,
      "count": 3022,
      "max": [
        70.7802963256836,
        17.573999404907227,
        7.706099987030029
      ],
      "min": [
        -70.77999877929688,
        -35.394901275634766,
        -152.01019287109375
      ],
      "type": "VEC3"
    },
    {
      "bufferView": 2,
      "byteOffset": 36264,
      "componentType": 5126,
      "count": 3022,
      "max": [
        1.0,
        1.0,
        1.0
      ],
      "min": [
        -1.0,
        -1.0,
        -1.0
      ],
      "type": "VEC3"
    },
    {
      "bufferView": 3,
      "componentType": 5126,
      "count": 3022,
      "max": [
        1.0,
        1.0,
        1.0,
        1.0
      ],
      "min": [
        -1.0,
        -1.0,
        -1.0,
        -1.0
      ],
      "type": "VEC4"
    },
    {
      "bufferView": 1,
      "componentType": 5126,
      "count": 3022,
      "max": [
        1.0,
        0.9998000264167786
      ],
      "min": [
        0.0017999999690800905,
        0.0
      ],
      "type": "VEC2"
    },
    {
      "bufferView": 0,
      "componentType": 5125,
      "count": 13077,
      "type": "SCALAR"
    },
    {
      "bufferView": 2,
      "byteOffset": 72528,
      "componentType": 5126,
      "count": 4411,
      "max": [
        71.34839630126953,
        -1.6721999645233154,
        -9.8818998336792
      ],
      "min": [
        -71.3478012084961,
        -30.79800033569336,
        -152.5782012939453
      ],
      "type": "VEC3"
    },
    {
      "bufferView": 2,
      "byteOffset": 125460,
      "componentType": 5126,
      "count": 4411,
      "max": [
        1.0,
        1.0,
        1.0
      ],
      "min": [
        -1.0,
        -1.0,
        -1.0
      ],
      "type": "VEC3"
    },
    {
      "bufferView": 3,
      "byteOffset": 48352,
      "componentType": 5126,
      "count": 4411,
      "max": [
        1.0,
        0.9980394244194031,
        1.0,
        1.0
      ],
      "min": [
        -1.0,
        -1.0,
        -1.0,
        -1.0
      ],
      "type": "VEC4"
    },
    {
      "bufferView": 1,
      "byteOffset": 24176,
      "componentType": 5126,
      "count": 4411,
      "max": [
        1.0,
        1.0
      ],
      "min": [
        0.0,
        0.003000000026077032
      ],
      "type": "VEC2"
    },
    {
      "bufferView": 0,
      "byteOffset": 52308,
      "componentType": 5125,
      "count": 21660,
      "type": "SCALAR"
    },
    {
      "bufferView": 2,
      "byteOffset": 178392,
      "componentType": 5126,
      "count": 8088,
      "max": [
        16.39859962463379,
        35.87580108642578,
        72.91259765625
      ],
      "min": [
        -16.398300170898438,
        -17.155399322509766,
        -58.21189880371094
      ],
      "type": "VEC3"
    },
    {
      "bufferView": 2,
      "byteOffset": 275448,
      "componentType": 5126,
      "count": 8088,
      "max": [
        1.0,
        1.0,
        1.0
      ],
      "min": [
        -1.0,
        -1.0,
        -1.0
      ],
      "type": "VEC3"
    },
    {
      "bufferView": 3,
      "byteOffset": 118928,
      "componentType": 5126,
      "count": 8088,
      "max": [
        1.0,
        1.0,
        1.0,
        1.0
      ],
      "min": [
        -1.0,
        -1.0,
        -1.0,
        -1.0
      ],
      "type": "VEC4"
    },
    {
      "bufferView": 1,
      "byteOffset": 59464,
      "componentType": 5126,
      "count": 8088,
      "max": [
        0.9984999895095825,
        0.9998999834060669
      ],
      "min": [
        0.0005000000237487257,
        0.0017999999690800905
      ],
      "type": "VEC2"
    },
    {
      "bufferView": 0,
      "byteOffset": 138948,
      "componentType": 5125,
      "count": 29961,
      "type": "SCALAR"
    },
    {
      "bufferView": 2,
      "byteOffset": 372504,
      "componentType": 5126,
      "count": 5806,
      "max": [
        53.321800231933594,
        6.769800186157227,
        152.5989990234375
      ],
      "min": [
        -53.321800231933594,
        -35.89059829711914,
        -1.5331000089645386
      ],
      "type": "VEC3"
    },
    {
      "bufferView": 2,
      "byteOffset": 442176,
      "componentType": 5126,
      "count": 5806,
      "max": [
        1.0,
        1.0,
        1.0
      ],
      "min": [
        -1.0,
        -1.0,
        -1.0
      ],
      "type": "VEC3"
    },
    {
      "bufferView": 3,
      "byteOffset": 248336,
      "componentType": 5126,
      "count": 5806,
      "max": [
        1.0,
        1.0,
        1.0,
        1.0
      ],
      "min": [
        -1.0,
        -1.0,
        -1.0,
        -1.0
      ],
      "type": "VEC4"
    },
    {
      "bufferView": 1,
      "byteOffset": 124168,
      "componentType": 5126,
      "count": 5806,
      "max": [
        0.9984999895095825,
        0.9987999796867371
      ],
      "min": [
        0.0012000000569969416,
        0.0008999999845400453
      ],
      "type": "VEC2"
    },
    {
      "bufferView": 0,
      "byteOffset": 258792,
      "componentType": 5125,
      "count": 22608,
      "type": "SCALAR"
    },
    {
      "bufferView": 2,
      "byteOffset": 511848,
      "componentType": 5126,
      "count": 32,
      "max": [
        9.163000106811523,
        -17.3927001953125,
        -5.6585001945495605
      ],
      "min": [
        -9.163000106811523,
        -21.137300491333008,
        -9.252300262451172
      ],
      "type": "VEC3"
    },
    {
      "bufferView": 2,
      "byteOffset": 512232,
      "componentType": 5126,
      "count": 32,
      "max": [
        0.9347583651542664,
        0.9967461824417114,
        0.9371663928031921
      ],
      "min": [
        -0.9347583651542664,
        -0.9921062588691711,
        0.0
      ],
      "type": "VEC3"
    },
    {
      "bufferView": 1,
      "byteOffset": 170616,
      "componentType": 5126,
      "count": 32,
      "max": [
        0.9979000091552734,
        0.9966999888420105
      ],
      "min": [
        0.002400000113993883,
        0.017500000074505806
      ],
      "type": "VEC2"
    },
    {
      "bufferView": 0,
      "byteOffset": 349224,
      "componentType": 5125,
      "count": 48,
      "type": "SCALAR"
    }
  ],
  "asset": {
    "extras": {
      "author": "Major Stress (https://sketchfab.com/MajorStress)",
      "license": "CC-BY-4.0 (http://creativecommons.org/licenses/by/4.0/)",
      "source": "https://sketchfab.com/3d-models/uss-enterprise-ncc-1701-a-c613e27541ca4b1d94c6a4e1c5d825c8",
      "title": "U.S.S. Enterprise NCC-1701-A"
    },
    "generator": "Sketchfab-16.72.0",
    "version": "2.0"
  },
  "bufferViews": [
    {
      "buffer": 0,
      "byteLength": 349416,
      "name": "floatBufferViews",
      "target": 34963
    },
    {
      "buffer": 0,
      "byteLength": 170872,
      "byteOffset": 349416,
      "byteStride": 8,
      "name": "floatBufferViews",
      "target": 34962
    },
    {
      "buffer": 0,
      "byteLength": 512616,
      "byteOffset": 520288,
      "byteStride": 12,
      "name": "floatBufferViews",
      "target": 34962
    },
    {
      "buffer": 0,
      "byteLength": 341232,
      "byteOffset": 1032904,
      "byteStride": 16,
      "name": "floatBufferViews",
      "target": 34962
    }
  ],
  "buffers": [
    {
      "byteLength": 1374136,
      "uri": "scene.bin"
    }
  ],
  "extensionsRequired": [
    "KHR_materials_pbrSpecularGlossiness"
  ],
  "extensionsUsed": [
    "KHR_materials_pbrSpecularGlossiness",
    "KHR_materials_emissive_strength"
  ],
  "images": [
    {
      "uri": "textures/Constitution_1_diffuse.png"
    },
    {
      "uri": "textures/Constitution_1_specularGlossiness.png"
    },
    {
      "uri": "textures/Constitution_1_emissive.png"
    },
    {
      "uri": "textures/Constitution_1_normal.png"
    },
    {
      "uri": "textures/Constitution_1_occlusion.png"
    },
    {
      "uri": "textures/Constitution_2_diffuse.png"
    },
    {
      "uri": "textures/Constitution_2_specularGlossiness.png"
    },
    {
      "uri": "textures/Constitution_2_emissive.png"
    },
    {
      "uri": "textures/Constitution_2_normal.png"
    },
    {
      "uri": "textures/Constitution_2_occlusion.png"
    },
    {
      "uri": "textures/Constitution_3_diffuse.png"
    },
    {
      "uri": "textures/Constitution_3_specularGlossiness.png"
    },
    {
      "uri": "textures/Constitution_3_emissive.png"
    },
    {
      "uri": "textures/Constitution_3_normal.png"
    },
    {
      "uri": "textures/Constitution_3_occlusion.png"
    },
    {
      "uri": "textures/Constitution_4_diffuse.png"
    },
    {
      "uri": "textures/Constitution_4_specularGlossiness.png"
    },
    {
      "uri": "textures/Constitution_4_emissive.png"
    },
    {
      "uri": "textures/Constitution_4_normal.png"
    },
    {
      "uri": "textures/Constitution_4_occlusion.png"
    },
    {
      "uri": "textures/Thruster_diffuse.png"
    },
    {
      "uri": "textures/Thruster_specularGlossiness.png"
    },
    {
      "uri": "textures/Thruster_emissive.png"
    }
  ],
  "materials": [
    {
      "emissiveFactor": [
        1.0,
        1.0,
        1.0
      ],
      "emissiveTexture": {
        "index": 2
      },
      "extensions": {
        "KHR_materials_emissive_strength": {
          "emissiveStrength": 4.0
        },
        "KHR_materials_pbrSpecularGlossiness": {
          "diffuseFactor": [
            1.0,
            1.0,
            1.0,
            1.0
          ],
          "diffuseTexture": {
            "index": 0
          },
          "glossinessFactor": 1.0,
          "specularFactor": [
            1.0,
            1.0,
            1.0
          ],
          "specularGlossinessTexture": {
            "index": 1
          }
        }
      },
      "name": "Constitution_1",
      "normalTexture": {
        "index": 3
      },
      "occlusionTexture": {
        "index": 4
      }
    },
    {
      "emissiveFactor": [
        1.0,
        1.0,
        1.0
      ],
      "emissiveTexture": {
        "index": 7
      },
      "extensions": {
        "KHR_materials_emissive_strength": {
          "emissiveStrength": 4.0
        },
        "KHR_materials_pbrSpecularGlossiness": {
          "diffuseFactor": [
            1.0,
            1.0,
            1.0,
            1.0
          ],
          "diffuseTexture": {
            "index": 5
          },
          "glossinessFactor": 1.0,
          "specularFactor": [
            1.0,
            1.0,
            1.0
          ],
          "specularGlossinessTexture": {
            "index": 6
          }
        }
      },
      "name": "Constitution_2",
      "normalTexture": {
        "index": 8
      },
      "occlusionTexture": {
        "index": 9
      }
    },
    {
      "emissiveFactor": [
        1.0,
        1.0,
        1.0
      ],
      "emissiveTexture": {
        "index": 12
      },
      "extensions": {
        "KHR_materials_emissive_strength": {
          "emissiveStrength": 4.0
        },
        "KHR_materials_pbrSpecularGlossiness": {
          "diffuseFactor": [
            1.0,
            1.0,
            1.0,
            1.0
          ],
          "diffuseTexture": {
            "index": 10
          },
          "glossinessFactor": 1.0,
          "specularFactor": [
            1.0,
            1.0,
            1.0
          ],
          "specularGlossinessTexture": {
            "index": 11
          }
        }
      },
      "name": "Constitution_3",
      "normalTexture": {
        "index": 13
      },
      "occlusionTexture": {
        "index": 14
      }
    },
    {
      "emissiveFactor": [
        1.0,
        1.0,
        1.0
      ],
      "emissiveTexture": {
        "index": 17
      },
      "extensions": {
        "KHR_materials_emissive_strength": {
          "emissiveStrength": 4.0
        },
        "KHR_materials_pbrSpecularGlossiness": {
          "diffuseFactor": [
            1.0,
            1.0,
            1.0,
            1.0
          ],
          "diffuseTexture": {
            "index": 15
          },
          "glossinessFactor": 1.0,
          "specularFactor": [
            1.0,
            1.0,
            1.0
          ],
          "specularGlossinessTexture": {
            "index": 16
          }
        }
      },
      "name": "Constitution_4",
      "normalTexture": {
        "index": 18
      },
      "occlusionTexture": {
        "index": 19
      }
    },
    {
      "emissiveFactor": [
        1.0,
        1.0,
        1.0
      ],
      "emissiveTexture": {
        "index": 22
      },
      "extensions": {
        "KHR_materials_emissive_strength": {
          "emissiveStrength": 5.0
        },
        "KHR_materials_pbrSpecularGlossiness": {
          "diffuseFactor": [
            1.0,
            1.0,
            1.0,
            1.0
          ],
          "diffuseTexture": {
            "index": 20
          },
          "glossinessFactor": 1.0,
          "specularFactor": [
            1.0,
            1.0,
            1.0
          ],
          "specularGlossinessTexture": {
            "index": 21
          }
        }
      },
      "name": "Thruster"
    }
  ],
  "meshes": [
    {
      "name": "Object_0",
      "primitives": [
        {
          "attributes": {
            "NORMAL": 1,
            "POSITION": 0,
            "TANGENT": 2,
            "TEXCOORD_0": 3
          },
          "indices": 4,
          "material": 0,
          "mode": 4
        }
      ]
    },
    {
      "name": "Object_1",
      "primitives": [
        {
          "attributes": {
            "NORMAL": 6,
            "POSITION": 5,
            "TANGENT": 7,
            "TEXCOORD_0": 8
          },
          "indices": 9,
          "material": 1,
          "mode": 4
        }
      ]
    },
    {
      "name": "Object_2",
      "primitives": [
        {
          "attributes": {
            "NORMAL": 11,
            "POSITION": 10,
            "TANGENT": 12,
            "TEXCOORD_0": 13
          },
          "indices": 14,
          "material": 2,
          "mode": 4
        }
      ]
    },
    {
      "name": "Object_3",
      "primitives": [
        {
          "attributes": {
            "NORMAL": 16,
            "POSITION": 15,
            "TANGENT": 17,
            "TEXCOORD_0": 18
          },
          "indices": 19,
          "material": 3,
          "mode": 4
        }
      ]
    },
    {
      "name": "Object_4",
      "primitives": [
        {
          "attributes": {
            "NORMAL": 21,
            "POSITION": 20,
            "TEXCOORD_0": 22
          },
          "indices": 23,
          "material": 4,
          "mode": 4
        }
      ]
    }
  ],
  "nodes": [
    {
      "children": [
        1
      ],
      "matrix": [
        -1.0,
        0.0,
        0.0,
        0.0,
        0.0,
        -1.0,
        0.0,
        0.0,
        0.0,
        0.0,
        1.0,
        0.0,
        0.0,
        0.0,
        0.0,
        1.0
      ],
      "name": "Sketchfab_model"
    },
    {
      "children": [
        2,
        3,
        4,
        5,
        6
      ],
      "name": "Enterprise-A.obj.cleaner.materialmerger.gles"
    },
    {
      "mesh": 0,
      "name": "Object_2"
    },
    {
      "mesh": 1,
      "name": "Object_3"
    },
    {
      "mesh": 2,
      "name": "Object_4"
    },
    {
      "mesh": 3,
      "name": "Object_5"
    },
    {
      "mesh": 4,
      "name": "Object_6"
    }
  ],
  "samplers": [
    {
      "magFilter": 9729,
      "minFilter": 9987,
      "wrapS": 10497,
      "wrapT": 10497
    }
  ],
  "scene": 0,
  "scenes": [
    {
      "name": "Sketchfab_Scene",
      "nodes": [
        0
      ]
    }
  ],
  "textures": [
    {
      "sampler": 0,
      "source": 0
    },
    {
      "sampler": 0,
      "source": 1
    },
    {
      "sampler": 0,
      "source": 2
    },
    {
      "sampler": 0,
      "source": 3
    },
    {
      "sampler": 0,
      "source": 4
    },
    {
      "sampler": 0,
      "source": 5
    },
    {
      "sampler": 0,
      "source": 6
    },
    {
      "sampler": 0,
      "source": 7
    },
    {
      "sampler": 0,
      "source": 8
    },
    {
      "sampler": 0,
      "source": 9
    },
    {
      "sampler": 0,
      "source": 10
    },
    {
      "sampler": 0,
      "source": 11
    },
    {
      "sampler": 0,
      "source": 12
    },
    {
      "sampler": 0,
      "source": 13
    },
    {
      "sampler": 0,
      "source": 14
    },
    {
      "sampler": 0,
      "source": 15
    },
    {
      "sampler": 0,
      "source": 16
    },
    {
      "sampler": 0,
      "source": 17
    },
    {
      "sampler": 0,
      "source": 18
    },
    {
      "sampler": 0,
      "source": 19
    },
    {
      "sampler": 0,
      "source": 20
    },
    {
      "sampler": 0,
      "source": 21
    },
    {
      "sampler": 0,
      "source": 22
    }
  ]
}
