{
  "accessors": [
    {
      "bufferView": 3,
      "componentType": 5126,
      "count": 5431,
      "max": [
        0.7242099046707153,
        4.0431294441223145,
        3.9247164726257324
      ],
      "min": [
        -0.7242099046707153,
        -0.005177308805286884,
        -6.187325954437256
      ],
      "type": "VEC3"
    },
    {
      "bufferView": 3,
      "byteOffset": 65172,
      "componentType": 5126,
      "count": 5431,
      "max": [
        0.9999078512191772,
        0.9999991655349731,
        0.9999682903289795
      ],
      "min": [
        -0.9999078512191772,
        -0.9999873638153076,
        -0.9944201111793518
      ],
      "type": "VEC3"
    },
    {
      "bufferView": 4,
      "componentType": 5126,
      "count": 5431,
      "max": [
        0.9999222159385681,
        0.9952827095985413,
        0.9998597502708435,
        1.0
      ],
      "min": [
        -0.9999222159385681,
        -0.9996964335441589,
        -0.9999586343765259,
        -1.0
      ],
      "type": "VEC4"
    },
    {
      "bufferView": 2,
      "componentType": 5126,
      "count": 5431,
      "max": [
        0.990234375,
        0.9892578125
      ],
      "min": [
        0.00948333740234375,
        0.01104736328125
      ],
      "type": "VEC2"
    },
    {
      "bufferView": 2,
      "byteOffset": 43448,
      "componentType": 5126,
      "count": 5431,
      "max": [
        0.994272768497467,
        0.9841534495353699
      ],
      "min": [
        0.009170128032565117,
        0.01584649831056595
      ],
      "type": "VEC2"
    },
    {
      "bufferView": 1,
      "componentType": 5125,
      "count": 25818,
      "type": "SCALAR"
    },
    {
      "bufferView": 5,
      "componentType": 5126,
      "count": 64,
      "max": [
        1.0,
        0.4188304543495178,
        1.0000005960464478,
        0.0,
        0.5102235078811646,
        1.0,
        0.25095054507255554,
        0.0,
        1.0,
        0.9903280735015869,
        1.0,
        0.0,
        2.4901905059814453,
        1.1413301229476929,
        1.1521388292312622,
        1.0
      ],
      "min": [
        -0.5891581773757935,
        -0.4188319444656372,
        -1.0000005960464478,
        0.0,
        -0.9943016767501831,
        -0.6415161490440369,
        -0.1736486405134201,
        0.0,
        -0.9999786615371704,
        -0.9189661741256714,
        -0.5648621320724487,
        0.0,
        -4.647473335266113,
        -3.811375141143799,
        -1.1521596908569336,
        1.0
      ],
      "type": "MAT4"
    },
    {
      "bufferView": 0,
      "componentType": 5123,
      "count": 5431,
      "type": "VEC4"
    },
    {
      "bufferView": 4,
      "byteOffset": 86896,
      "componentType": 5126,
      "count": 5431,
      "max": [
        1.0,
        0.5,
        0.2965916693210602,
        0.19999994337558746
      ],
      "min": [
        0.2666666805744171,
        0.0,
        0.0,
        0.0
      ],
      "type": "VEC4"
    }
  ],
  "asset": {
    "extras": {
      "author": "TheAquaticSpinosaurid (https://sketchfab.com/TheCyanSpino)",
      "license": "CC-BY-4.0 (http://creativecommons.org/licenses/by/4.0/)",
      "source": "https://sketchfab.com/3d-models/jwa-concavenator-00e3684319924cd7933badaefc61a231",
      "title": "JWA Concavenator"
    },
    "generator": "Sketchfab-16.35.0",
    "version": "2.0"
  },
  "bufferViews": [
    {
      "buffer": 0,
      "byteLength": 43448,
      "byteStride": 8,
      "name": "shortBufferViews",
      "target": 34962
    },
    {
      "buffer": 0,
      "byteLength": 103272,
      "byteOffset": 43448,
      "name": "floatBufferViews",
      "target": 34963
    },
    {
      "buffer": 0,
      "byteLength": 86896,
      "byteOffset": 146720,
      "byteStride": 8,
      "name": "floatBufferViews",
      "target": 34962
    },
    {
      "buffer": 0,
      "byteLength": 130344,
      "byteOffset": 233616,
      "byteStride": 12,
      "name": "floatBufferViews",
      "target": 34962
    },
    {
      "buffer": 0,
      "byteLength": 173792,
      "byteOffset": 363960,
      "byteStride": 16,
      "name": "floatBufferViews",
      "target": 34962
    },
    {
      "buffer": 0,
      "byteLength": 4096,
      "byteOffset": 537752,
      "name": "floatBufferViews"
    }
  ],
  "buffers": [
    {
      "byteLength": 541848,
      "uri": "scene.bin"
    }
  ],
  "images": [
    {
      "uri": "textures/Mat_Lab_Concavena_baseColor.png"
    },
    {
      "uri": "textures/Mat_Lab_Concavena_normal.png"
    }
  ],
  "materials": [
    {
      "doubleSided": true,
      "name": "Mat_Lab_Concavena",
      "normalTexture": {
        "index": 1
      },
      "pbrMetallicRoughness": {
        "baseColorTexture": {
          "index": 0
        },
        "metallicFactor": 0.0,
        "roughnessFactor": 0.9905425839099682
      }
    }
  ],
  "meshes": [
    {
      "name": "Mesh_Mat_Lab_Concavena_0",
      "primitives": [
        {
          "attributes": {
            "JOINTS_0": 7,
            "NORMAL": 1,
            "POSITION": 0,
            "TANGENT": 2,
            "TEXCOORD_0": 3,
            "TEXCOORD_1": 4,
            "TEXCOORD_2": 3,
            "WEIGHTS_0": 8
          },
          "indices": 5,
          "material": 0,
          "mode": 4
        }
      ]
    }
  ],
  "nodes": [
    {
      "children": [
        1
      ],
      "matrix": [
        1.0,
        0.0,
        0.0,
        0.0,
        0.0,
        2.220446049250313e-16,
        -1.0,
        0.0,
        0.0,
        1.0,
        2.220446049250313e-16,
        0.0,
        0.0,
        0.0,
        0.0,
        1.0
      ],
      "name": "Sketchfab_model"
    },
    {
      "children": [
        2
      ],
      "matrix": [
        0.009999999776482582,
        0.0,
        0.0,
        0.0,
        0.0,
        0.0,
        0.009999999776482582,
        0.0,
        0.0,
        -0.009999999776482582,
        0.0,
        0.0,
        0.0,
        0.0,
        0.0,
        1.0
      ],
      "name": "784e386a4a9844df91154a6b98667c7b.fbx"
    },
    {
      "children": [
        3
      ],
      "name": "RootNode"
    },
    {
      "children": [
        4
      ],
      "name": "Prefab_Lab_Concavena"
    },
    {
      "children": [
        5
      ],
      "name": "ModelRoot"
    },
    {
      "children": [
        6
      ],
      "matrix": [
        1.0,
        0.0,
        0.0,
        0.0,
        0.0,
        2.220446049250313e-16,
        -1.0,
        0.0,
        0.0,
        1.0,
        2.220446049250313e-16,
        0.0,
        0.0,
        0.0,
        0.0,
        1.0
      ],
      "name": "Bone_GSRT"
    },
    {
      "children": [
        7,
        72,
        71
      ],
      "name": "Object_6"
    },
    {
      "children": [
        8
      ],
      "name": "_rootJoint"
    },
    {
      "children": [
        9,
        12,
        13,
        14,
        15,
        16,
        17,
        18,
        19,
        20,
        22,
        23,
        24,
        25,
        26,
        27,
        28,
        29,
        31,
        32,
        33,
        34,
        35,
        36,
        37,
        38,
        39,
        40,
        41,
        42,
        43,
        44,
        46,
        47,
        48,
        49,
        50,
        51,
        52,
        53,
        55,
        56,
        57,
        58,
        60,
        61,
        62,
        63,
        64,
        65,
        66,
        68,
        69,
        70
      ],
      "name": "Bone_Root_01",
      "rotation": [
        0.7071068286895752,
        0.0,
        0.0,
        0.7071068286895752
      ]
    },
    {
      "children": [
        10,
        11
      ],
      "name": "Bone_Head_00",
      "rotation": [
        0.06392460316419601,
        -0.7042114734649658,
        -0.06392498314380646,
        0.7042112350463867
      ],
      "scale": [
        1.0000003576278687,
        1.0000004768371582,
        1.0
      ],
      "translation": [
        -6.835848580521997e-07,
        2.863722562789917,
        2.6921298503875732
      ]
    },
    {
      "name": "Vfx_Head_02",
      "rotation": [
        -1.580506925336067e-08,
        0.7071067094802856,
        1.580506747700383e-08,
        0.7071068286895752
      ],
      "scale": [
        0.9999998807907104,
        0.9999995231628418,
        0.9999996423721313
      ],
      "translation": [
        -1.5258788721439487e-07,
        0.4198068082332611,
        -7.2759574515531e-14
      ]
    },
    {
      "name": "Vfx_Mouth_03",
      "rotation": [
        -1.896608381457554e-07,
        0.7071067094802856,
        1.8966078130233655e-07,
        0.70710688829422
      ],
      "scale": [
        0.9999998807907104,
        0.999999463558197,
        0.9999996423721313
      ],
      "translation": [
        0.5226315259933472,
        -0.20076903700828552,
        0.0
      ]
    },
    {
      "name": "Bone_Jaw_04",
      "rotation": [
        0.16370542347431183,
        -0.687896192073822,
        -0.16370542347431183,
        0.6878953576087952
      ],
      "scale": [
        1.0000001192092896,
        0.9999997615814209,
        0.999999463558197
      ],
      "translation": [
        -1.1347232202751911e-06,
        2.63627552986145,
        2.808171033859253
      ]
    },
    {
      "name": "Bone_L_Arm_05",
      "rotation": [
        -0.5842317938804626,
        0.3983372151851654,
        0.5842325687408447,
        -0.3983377516269684
      ],
      "scale": [
        1.0000001192092896,
        1.0000004768371582,
        0.9999999403953552
      ],
      "translation": [
        -0.39489296078681946,
        1.97801673412323,
        1.6102138757705688
      ]
    },
    {
      "name": "Bone_L_Eyeball_06",
      "rotation": [
        0.0773085430264473,
        -0.45999088883399963,
        0.04024359583854675,
        0.8836358189582825
      ],
      "scale": [
        1.0000004768371582,
        0.9999998211860657,
        1.0
      ],
      "translation": [
        0.1486486941576004,
        2.885570526123047,
        3.1390492916107178
      ]
    },
    {
      "name": "Bone_L_Eyelid_Low_07",
      "rotation": [
        0.14982306957244873,
        -0.44172605872154236,
        -0.10148191452026367,
        0.8787107467651367
      ],
      "scale": [
        0.9999997019767761,
        1.000000238418579,
        0.9999999403953552
      ],
      "translation": [
        0.14864809811115265,
        2.885570526123047,
        3.139050006866455
      ]
    },
    {
      "name": "Bone_L_Eyelid_Up_08",
      "rotation": [
        -0.04925904422998428,
        -0.46383222937583923,
        0.276421457529068,
        0.8402525782585144
      ],
      "scale": [
        0.9999998807907104,
        1.000000238418579,
        0.9999997615814209
      ],
      "translation": [
        0.14864809811115265,
        2.885570526123047,
        3.139050006866455
      ]
    },
    {
      "name": "Bone_L_Finger1A_09",
      "rotation": [
        0.6180998086929321,
        -0.4691202938556671,
        -0.583418071269989,
        0.23979605734348297
      ],
      "scale": [
        1.000000238418579,
        1.0000003576278687,
        1.0
      ],
      "translation": [
        -0.47896045446395874,
        1.1607674360275269,
        1.701403021812439
      ]
    },
    {
      "name": "Bone_L_Finger1B_010",
      "rotation": [
        -0.6134779453277588,
        0.3682873845100403,
        0.6152809858322144,
        -0.330814927816391
      ],
      "scale": [
        1.0000004768371582,
        1.0000004768371582,
        1.000000238418579
      ],
      "translation": [
        -0.4087587296962738,
        1.1489325761795044,
        1.7452324628829956
      ]
    },
    {
      "name": "Bone_L_Finger1C_011",
      "rotation": [
        -0.5775699019432068,
        0.34543514251708984,
        0.5961087942123413,
        -0.4378834366798401
      ],
      "scale": [
        1.0000001192092896,
        1.0000001192092896,
        0.9999998807907104
      ],
      "translation": [
        -0.3225997984409332,
        1.1712085008621216,
        1.7629443407058716
      ]
    },
    {
      "children": [
        21
      ],
      "name": "Bone_L_Foot_012",
      "rotation": [
        0.36552152037620544,
        -0.6279534101486206,
        -0.32507625222206116,
        0.6053048372268677
      ],
      "scale": [
        1.0000005960464478,
        1.0000003576278687,
        1.0000001192092896
      ],
      "translation": [
        -0.41999927163124084,
        0.1499994844198227,
        -0.11999927461147308
      ]
    },
    {
      "name": "Vfx_BR_Foot_013",
      "rotation": [
        -0.36552146077156067,
        0.6279535889625549,
        0.3250756561756134,
        0.6053051352500916
      ],
      "scale": [
        1.0000001192092896,
        0.9999991059303284,
        0.9999992251396179
      ],
      "translation": [
        0.1278899759054184,
        -0.07821580022573471,
        0.005135764833539724
      ]
    },
    {
      "name": "Bone_L_FootIndex01_014",
      "rotation": [
        -0.0006896042032167315,
        -0.6049258708953857,
        0.0007583685219287872,
        0.7962812781333923
      ],
      "scale": [
        0.9999998807907104,
        1.0000005960464478,
        1.0000001192092896
      ],
      "translation": [
        -0.28244030475616455,
        0.08583676815032959,
        -0.11715132743120193
      ]
    },
    {
      "name": "Bone_L_FootIndex02_015",
      "rotation": [
        -0.011392118409276009,
        -0.6283894181251526,
        0.0014161907602101564,
        0.7778142094612122
      ],
      "scale": [
        0.9999998807907104,
        1.0000007152557373,
        1.0000001192092896
      ],
      "translation": [
        -0.23336316645145416,
        0.08621055632829666,
        0.059182021766901016
      ]
    },
    {
      "name": "Bone_L_FootMiddle01_016",
      "rotation": [
        -0.0007727908669039607,
        -0.7036859393119812,
        0.0006723736296407878,
        0.7105104923248291
      ],
      "scale": [
        1.0000005960464478,
        0.9999998807907104,
        1.0000004768371582
      ],
      "translation": [
        -0.41997984051704407,
        0.0860995203256607,
        -8.00574682102706e-08
      ]
    },
    {
      "name": "Bone_L_FootMiddle02_017",
      "rotation": [
        -0.011477983556687832,
        -0.7096560597419739,
        0.000163909382536076,
        0.7044548392295837
      ],
      "scale": [
        1.0000009536743164,
        1.0000001192092896,
        1.0000007152557373
      ],
      "translation": [
        -0.41821330785751343,
        0.08647343516349792,
        0.18302707374095917
      ]
    },
    {
      "name": "Bone_L_FootPinky01_018",
      "rotation": [
        0.017497152090072632,
        -0.8496874570846558,
        -0.027211608365178108,
        0.5262932777404785
      ],
      "scale": [
        1.0,
        1.0000007152557373,
        0.9999999403953552
      ],
      "translation": [
        -0.5545849204063416,
        0.09738557785749435,
        -0.0907992497086525
      ]
    },
    {
      "name": "Bone_L_FootPinky02_019",
      "rotation": [
        0.009809114970266819,
        -0.8386186957359314,
        -0.03137084096670151,
        0.54372638463974
      ],
      "scale": [
        1.0,
        1.0000007152557373,
        1.0
      ],
      "translation": [
        -0.6174160838127136,
        0.08915090560913086,
        0.03522710129618645
      ]
    },
    {
      "name": "Bone_L_ForeArm_020",
      "rotation": [
        0.24109694361686707,
        -0.6647344827651978,
        -0.24109721183776855,
        0.6647348999977112
      ],
      "scale": [
        1.0000007152557373,
        1.000000238418579,
        0.9999997019767761
      ],
      "translation": [
        -0.394893079996109,
        1.5584454536437988,
        1.4455606937408447
      ]
    },
    {
      "children": [
        30
      ],
      "name": "Bone_L_Hand_021",
      "rotation": [
        0.24109689891338348,
        -0.6647344827651978,
        -0.2410973459482193,
        0.6647348999977112
      ],
      "scale": [
        1.0000008344650269,
        1.0000004768371582,
        1.0
      ],
      "translation": [
        -0.3948929011821747,
        1.3403880596160889,
        1.7066221237182617
      ]
    },
    {
      "name": "Vfx_FR_Foot_022",
      "rotation": [
        -0.24109730124473572,
        0.664734423160553,
        0.2410971075296402,
        0.664734959602356
      ],
      "scale": [
        1.0000005960464478,
        0.999999463558197,
        0.9999985694885254
      ]
    },
    {
      "name": "Bone_L_Leg_023",
      "rotation": [
        0.6667593121528625,
        -0.32697710394859314,
        -0.6133436560630798,
        0.2689379155635834
      ],
      "scale": [
        1.0000001192092896,
        1.0000008344650269,
        0.9999997019767761
      ],
      "translation": [
        -0.4499998688697815,
        1.4499996900558472,
        0.0700005441904068
      ]
    },
    {
      "name": "Bone_L_Tarsal_024",
      "rotation": [
        0.3655214309692383,
        -0.6279533505439758,
        -0.325076162815094,
        0.6053051352500916
      ],
      "scale": [
        1.000000238418579,
        0.9999997615814209,
        0.9999997615814209
      ],
      "translation": [
        -0.41999948024749756,
        0.7699996829032898,
        -0.4999994933605194
      ]
    },
    {
      "name": "Bone_L_UpLeg_025",
      "rotation": [
        -0.48812541365623474,
        0.5596569776535034,
        0.4613511264324188,
        -0.48546165227890015
      ],
      "scale": [
        1.0000001192092896,
        1.0000005960464478,
        0.9999997019767761
      ],
      "translation": [
        -0.39379099011421204,
        2.5222721099853516,
        -0.030281176790595055
      ]
    },
    {
      "name": "Bone_Neck1_FK_026",
      "rotation": [
        -0.07539964467287064,
        -0.7030754089355469,
        0.07539927214384079,
        0.7030753493309021
      ],
      "scale": [
        1.0,
        1.0,
        0.9999998211860657
      ],
      "translation": [
        -1.5258777352755715e-07,
        2.5117502212524414,
        1.5559768676757813
      ]
    },
    {
      "name": "Bone_Neck2_FK_027",
      "rotation": [
        -0.14370188117027283,
        -0.6923509836196899,
        0.1437016874551773,
        0.6923508644104004
      ],
      "scale": [
        1.000000238418579,
        1.000000238418579,
        1.0000001192092896
      ],
      "translation": [
        -2.922317321463197e-07,
        2.6527459621429443,
        2.205784797668457
      ]
    },
    {
      "name": "Bone_Pelvis_028",
      "rotation": [
        0.02916705794632435,
        0.7065050601959229,
        0.029166869819164276,
        0.7065049409866333
      ],
      "translation": [
        1.1901590061652026e-15,
        2.5221974849700928,
        -0.03032206930220127
      ]
    },
    {
      "name": "Bone_R_Arm_029",
      "rotation": [
        -0.5842317938804626,
        0.3983372151851654,
        0.5842325687408447,
        -0.3983377516269684
      ],
      "scale": [
        0.9999999403953552,
        1.0000007152557373,
        1.0
      ],
      "translation": [
        0.39489296078681946,
        1.978016972541809,
        1.610215425491333
      ]
    },
    {
      "name": "Bone_R_Eyeball_030",
      "rotation": [
        0.04024365171790123,
        0.883635401725769,
        0.0773083046078682,
        -0.4599916338920593
      ],
      "scale": [
        1.0000005960464478,
        1.000000238418579,
        1.0
      ],
      "translation": [
        -0.14864955842494965,
        2.885571241378784,
        3.1390492916107178
      ]
    },
    {
      "name": "Bone_R_Eyelid_Low_031",
      "rotation": [
        -0.10148201137781143,
        0.8787106275558472,
        0.1498229056596756,
        -0.44172632694244385
      ],
      "scale": [
        1.000000238418579,
        1.0000004768371582,
        0.9999998211860657
      ],
      "translation": [
        -0.14864908158779144,
        2.885571241378784,
        3.1390492916107178
      ]
    },
    {
      "name": "Bone_R_Eyelid_Up_032",
      "rotation": [
        0.2764207720756531,
        0.8402514457702637,
        -0.04925818741321564,
        -0.46383482217788696
      ],
      "scale": [
        0.9999997615814209,
        1.000000238418579,
        0.9999995827674866
      ],
      "translation": [
        -0.14864908158779144,
        2.885571241378784,
        3.1390492916107178
      ]
    },
    {
      "name": "Bone_R_Finger1A_033",
      "rotation": [
        -0.46637609601020813,
        0.6243245005607605,
        -0.2410382777452469,
        0.578457236289978
      ],
      "scale": [
        0.9999999403953552,
        1.000000238418579,
        1.0000001192092896
      ],
      "translation": [
        0.4789600968360901,
        1.160767912864685,
        1.701404094696045
      ]
    },
    {
      "name": "Bone_R_Finger1B_034",
      "rotation": [
        -0.36607402563095093,
        0.6192179918289185,
        -0.33281195163726807,
        0.6097500324249268
      ],
      "scale": [
        0.9999999403953552,
        1.000000238418579,
        1.0
      ],
      "translation": [
        0.4087600111961365,
        1.1489332914352417,
        1.7452338933944702
      ]
    },
    {
      "name": "Bone_R_Finger1C_035",
      "rotation": [
        -0.34404072165489197,
        0.5830571055412292,
        -0.4398765563964844,
        0.5900754332542419
      ],
      "scale": [
        1.000000238418579,
        1.0000001192092896,
        1.0
      ],
      "translation": [
        0.3226000964641571,
        1.1712092161178589,
        1.7629457712173462
      ]
    },
    {
      "children": [
        45
      ],
      "name": "Bone_R_Foot_036",
      "rotation": [
        0.32507646083831787,
        -0.6053052544593811,
        -0.36552107334136963,
        0.6279531717300415
      ],
      "scale": [
        1.0000001192092896,
        1.0,
        0.9999998211860657
      ],
      "translation": [
        0.42000076174736023,
        0.14999926090240479,
        -0.12000022828578949
      ]
    },
    {
      "name": "Vfx_BL_Foot_037",
      "rotation": [
        -0.3250761926174164,
        0.6053053736686707,
        0.365520715713501,
        0.6279534101486206
      ],
      "scale": [
        1.0000004768371582,
        0.9999999403953552,
        0.9999996423721313
      ],
      "translation": [
        0.12779732048511505,
        -0.07815904170274734,
        -0.00513191195204854
      ]
    },
    {
      "name": "Bone_R_FootIndex01_038",
      "rotation": [
        -0.0005510558839887381,
        -0.7962810397148132,
        0.0008656331920064986,
        0.6049259901046753
      ],
      "scale": [
        0.9999995827674866,
        1.0000003576278687,
        1.0000001192092896
      ],
      "translation": [
        0.2824399471282959,
        0.08583666384220123,
        -0.11715128272771835
      ]
    },
    {
      "name": "Bone_R_FootIndex02_039",
      "rotation": [
        -0.0016989258583635092,
        -0.7778106331825256,
        0.011503529734909534,
        0.6283911466598511
      ],
      "scale": [
        0.9999995231628418,
        1.000000238418579,
        1.0000001192092896
      ],
      "translation": [
        0.2333628088235855,
        0.08618901669979095,
        0.05918215587735176
      ]
    },
    {
      "name": "Bone_R_FootMiddle01_040",
      "rotation": [
        -0.0006092970725148916,
        -0.7105109095573425,
        0.0007522256346419454,
        0.7036855220794678
      ],
      "scale": [
        0.9999997019767761,
        0.9999998807907104,
        1.000000238418579
      ],
      "translation": [
        0.41998007893562317,
        0.08609943836927414,
        -1.563514189228954e-07
      ]
    },
    {
      "name": "Bone_R_FootMiddle02_041",
      "rotation": [
        -0.0001155430290964432,
        -0.7044556736946106,
        0.011442049406468868,
        0.70965576171875
      ],
      "scale": [
        0.9999998211860657,
        1.0000004768371582,
        1.0000003576278687
      ],
      "translation": [
        0.41821330785751343,
        0.0864516943693161,
        0.18302692472934723
      ]
    },
    {
      "name": "Bone_R_FootPinky01_042",
      "rotation": [
        0.027211232110857964,
        -0.5262930989265442,
        -0.017497548833489418,
        0.8496875762939453
      ],
      "scale": [
        0.9999998807907104,
        1.0000003576278687,
        1.0000005960464478
      ],
      "translation": [
        0.5545800924301147,
        0.0973854809999466,
        -0.0907992497086525
      ]
    },
    {
      "name": "Bone_R_FootPinky02_043",
      "rotation": [
        0.031370654702186584,
        -0.5437260866165161,
        -0.009809792973101139,
        0.8386188745498657
      ],
      "scale": [
        0.9999998807907104,
        1.0000001192092896,
        1.0000004768371582
      ],
      "translation": [
        0.6174113154411316,
        0.08915077149868011,
        0.03522704541683197
      ]
    },
    {
      "name": "Bone_R_ForeArm_044",
      "rotation": [
        0.24109694361686707,
        -0.6647344827651978,
        -0.24109721183776855,
        0.6647348999977112
      ],
      "scale": [
        1.0000004768371582,
        0.9999999403953552,
        0.9999997019767761
      ],
      "translation": [
        0.39489269256591797,
        1.5584452152252197,
        1.4455626010894775
      ]
    },
    {
      "children": [
        54
      ],
      "name": "Bone_R_Hand_045",
      "rotation": [
        0.24109698832035065,
        -0.664734423160553,
        -0.24109725654125214,
        0.6647348999977112
      ],
      "scale": [
        1.0000003576278687,
        0.9999997019767761,
        1.0000001192092896
      ],
      "translation": [
        0.3948928415775299,
        1.3403875827789307,
        1.706623911857605
      ]
    },
    {
      "name": "Vfx_FL_Foot_046",
      "rotation": [
        -0.2410973757505417,
        0.664734423160553,
        0.24109725654125214,
        0.6647347807884216
      ],
      "scale": [
        1.0,
        0.999999463558197,
        1.000000238418579
      ],
      "translation": [
        -1.5258788721439487e-07,
        -1.5258788721439487e-07,
        0.0
      ]
    },
    {
      "name": "Bone_R_Leg_047",
      "rotation": [
        -0.6133431792259216,
        0.26893743872642517,
        0.6667596697807312,
        -0.32697755098342896
      ],
      "scale": [
        1.0000004768371582,
        1.0000009536743164,
        0.9999999403953552
      ],
      "translation": [
        0.450000524520874,
        1.4499996900558472,
        0.06999993324279785
      ]
    },
    {
      "name": "Bone_R_Tarsal_048",
      "rotation": [
        0.32496803998947144,
        -0.6052417755126953,
        -0.3656257092952728,
        0.6280096769332886
      ],
      "scale": [
        1.0000004768371582,
        1.0000007152557373,
        1.0
      ],
      "translation": [
        0.4200003445148468,
        0.7699995040893555,
        -0.5000002384185791
      ]
    },
    {
      "name": "Bone_R_UpLeg_049",
      "rotation": [
        0.4613514542579651,
        -0.4854612350463867,
        -0.48812517523765564,
        0.559657096862793
      ],
      "scale": [
        1.000000238418579,
        1.0000008344650269,
        1.0
      ],
      "translation": [
        0.3937905430793762,
        2.5222718715667725,
        -0.030281024053692818
      ]
    },
    {
      "children": [
        59
      ],
      "name": "Bone_Spine001_050",
      "rotation": [
        4.214685134229512e-08,
        -0.7071067094802856,
        4.214684778958144e-08,
        0.7071068286895752
      ],
      "translation": [
        1.1901590061652026e-15,
        2.5221974849700928,
        -0.03032206930220127
      ]
    },
    {
      "name": "Vfx_Hip_051",
      "rotation": [
        5.303433425751791e-08,
        0.7071066498756409,
        -5.303431649394952e-08,
        0.7071069478988647
      ],
      "scale": [
        0.9999999403953552,
        1.0000001192092896,
        1.0
      ]
    },
    {
      "name": "Bone_Spine002_052",
      "rotation": [
        0.004271922633051872,
        -0.7070939540863037,
        -0.0042732409201562405,
        0.7070937752723694
      ],
      "scale": [
        1.0,
        1.000000238418579,
        1.0
      ],
      "translation": [
        -1.4521501157105376e-07,
        2.5221974849700928,
        0.6915465593338013
      ]
    },
    {
      "name": "Bone_Tail1_053",
      "rotation": [
        0.024718889966607094,
        0.7066748738288879,
        0.024717101827263832,
        0.7066744565963745
      ],
      "scale": [
        0.9999995231628418,
        1.000000238418579,
        0.9999996423721313
      ],
      "translation": [
        -3.0517577442878974e-07,
        2.576741933822632,
        -0.6898136138916016
      ]
    },
    {
      "name": "Bone_Tail2_054",
      "rotation": [
        0.033970851451158524,
        0.7062899470329285,
        0.03396887704730034,
        0.7062907814979553
      ],
      "scale": [
        0.9999996423721313,
        1.0000001192092896,
        0.9999997615814209
      ],
      "translation": [
        -5.406072887126356e-07,
        2.623459815979004,
        -1.3568161725997925
      ]
    },
    {
      "name": "Bone_Tail3_055",
      "rotation": [
        0.019870858639478683,
        0.7068278193473816,
        0.019865963608026505,
        0.7068274021148682
      ],
      "scale": [
        0.9999996423721313,
        1.0000003576278687,
        0.9999997615814209
      ],
      "translation": [
        4.5232380330162414e-07,
        2.7001543045043945,
        -2.152278184890747
      ]
    },
    {
      "name": "Bone_Tail4_056",
      "rotation": [
        0.002312302589416504,
        0.7071027755737305,
        0.002297802362591028,
        0.7071032524108887
      ],
      "scale": [
        0.9999999403953552,
        1.0000003576278687,
        1.0000001192092896
      ],
      "translation": [
        -7.005925084513365e-08,
        2.75321364402771,
        -3.095341920852661
      ]
    },
    {
      "name": "Bone_Tail5_057",
      "rotation": [
        -0.030105307698249817,
        0.7064657807350159,
        -0.030105119571089745,
        0.706465482711792
      ],
      "scale": [
        0.9999996423721313,
        0.9999995827674866,
        1.0
      ],
      "translation": [
        6.350378498609643e-07,
        2.7606658935546875,
        -4.238379955291748
      ]
    },
    {
      "children": [
        67
      ],
      "name": "Bone_Tail6_058",
      "rotation": [
        -0.0688202753663063,
        0.7037498950958252,
        -0.06881990283727646,
        0.7037497162818909
      ],
      "scale": [
        0.9999994039535522,
        1.0,
        0.9999993443489075
      ],
      "translation": [
        3.939186683510343e-07,
        2.6730055809020996,
        -5.265053749084473
      ]
    },
    {
      "name": "Vfx_Tail_Tip_059",
      "rotation": [
        1.3697714962290775e-07,
        0.7071066498756409,
        -1.3697709277948888e-07,
        0.7071069478988647
      ],
      "scale": [
        1.0000011920928955,
        1.0000005960464478,
        0.9999999403953552
      ],
      "translation": [
        0.8798901438713074,
        0.0,
        -3.0517577442878974e-07
      ]
    },
    {
      "name": "Bone_Tongue1_060",
      "rotation": [
        -0.020092086866497993,
        -0.7068215608596802,
        0.020092744380235672,
        0.7068209648132324
      ],
      "scale": [
        1.0000004768371582,
        1.0000005960464478,
        1.0000001192092896
      ],
      "translation": [
        -1.0852481864276342e-06,
        2.5283219814300537,
        2.865554094314575
      ]
    },
    {
      "name": "Bone_Tongue2_061",
      "rotation": [
        0.12473485618829727,
        -0.6960182189941406,
        -0.12473541498184204,
        0.6960179209709167
      ],
      "scale": [
        1.000000238418579,
        1.0000008344650269,
        1.0000001192092896
      ],
      "translation": [
        -1.4929179315004149e-06,
        2.5569229125976563,
        3.3682188987731934
      ]
    },
    {
      "name": "Vfx_Root_062"
    },
    {
      "matrix": [
        0.9999999999999999,
        1.3234889800848443e-23,
        0.0,
        0.0,
        -1.3234889800848428e-23,
        0.9999999999999987,
        4.371138820139987e-08,
        0.0,
        5.785154058876342e-31,
        -4.371138820139987e-08,
        0.9999999999999987,
        0.0,
        2.6469779601696886e-23,
        4.440892098500626e-16,
        -2.220446049250313e-16,
        1.0
      ],
      "name": "Object_71"
    },
    {
      "mesh": 0,
      "name": "Object_72",
      "skin": 0
    }
  ],
  "samplers": [
    {
      "magFilter": 9729,
      "minFilter": 9987,
      "wrapS": 10497,
      "wrapT": 10497
    }
  ],
  "scene": 0,
  "scenes": [
    {
      "name": "Sketchfab_Scene",
      "nodes": [
        0
      ]
    }
  ],
  "skins": [
    {
      "inverseBindMatrices": 6,
      "joints": [
        7,
        8,
        9,
        10,
        11,
        12,
        13,
        14,
        15,
        16,
        17,
        18,
        19,
        20,
        21,
        22,
        23,
        24,
        25,
        26,
        27,
        28,
        29,
        30,
        31,
        32,
        33,
        34,
        35,
        36,
        37,
        38,
        39,
        40,
        41,
        42,
        43,
        44,
        45,
        46,
        47,
        48,
        49,
        50,
        51,
        52,
        53,
        54,
        55,
        56,
        57,
        58,
        59,
        60,
        61,
        62,
        63,
        64,
        65,
        66,
        67,
        68,
        69,
        70
      ],
      "skeleton": 7
    }
  ],
  "textures": [
    {
      "sampler": 0,
      "source": 0
    },
    {
      "sampler": 0,
      "source": 1
    }
  ]
}
