{
  "accessors": [
    {
      "bufferView": 2,
      "componentType": 5126,
      "count": 2913,
      "max": [
        1173.2666015625,
        2772.07080078125,
        766.538818359375
      ],
      "min": [
        -1173.189697265625,
        159.51870727539063,
        80.36965942382813
      ],
      "type": "VEC3"
    },
    {
      "bufferView": 2,
      "byteOffset": 34956,
      "componentType": 5126,
      "count": 2913,
      "max": [
        1.0,
        1.0,
        1.0
      ],
      "min": [
        -1.0,
        -1.0,
        -1.0
      ],
      "type": "VEC3"
    },
    {
      "bufferView": 0,
      "componentType": 5125,
      "count": 8535,
      "type": "SCALAR"
    },
    {
      "bufferView": 2,
      "byteOffset": 69912,
      "componentType": 5126,
      "count": 14421,
      "max": [
        1173.2666015625,
        2802.358154296875,
        930.7614135742188
      ],
      "min": [
        -1173.189697265625,
        159.51870727539063,
        15.75771713256836
      ],
      "type": "VEC3"
    },
    {
      "bufferView": 2,
      "byteOffset": 242964,
      "componentType": 5126,
      "count": 14421,
      "max": [
        1.0,
        1.0,
        1.0
      ],
      "min": [
        -1.0,
        -1.0,
        -1.0
      ],
      "type": "VEC3"
    },
    {
      "bufferView": 0,
      "byteOffset": 34140,
      "componentType": 5125,
      "count": 68940,
      "type": "SCALAR"
    },
    {
      "bufferView": 2,
      "byteOffset": 416016,
      "componentType": 5126,
      "count": 26,
      "max": [
        43.16938018798828,
        1807.562255859375,
        361.16265869140625
      ],
      "min": [
        -130.89303588867188,
        177.14044189453125,
        243.6589813232422
      ],
      "type": "VEC3"
    },
    {
      "bufferView": 0,
      "byteOffset": 309900,
      "componentType": 5125,
      "count": 44,
      "type": "SCALAR"
    },
    {
      "bufferView": 2,
      "byteOffset": 416328,
      "componentType": 5126,
      "count": 2360,
      "max": [
        131.4130096435547,
        2564.06689453125,
        257.7532653808594
      ],
      "min": [
        -131.33596801757813,
        6.718466758728027,
        236.33596801757813
      ],
      "type": "VEC3"
    },
    {
      "bufferView": 2,
      "byteOffset": 444648,
      "componentType": 5126,
      "count": 2360,
      "max": [
        0.9998700618743896,
        0.22468523681163788,
        0.8499012589454651
      ],
      "min": [
        -0.9998608827590942,
        -0.7666860222816467,
        -0.9754412770271301
      ],
      "type": "VEC3"
    },
    {
      "bufferView": 0,
      "byteOffset": 310076,
      "componentType": 5125,
      "count": 7650,
      "type": "SCALAR"
    },
    {
      "bufferView": 2,
      "byteOffset": 472968,
      "componentType": 5126,
      "count": 7223,
      "max": [
        468.3070983886719,
        2699.891357421875,
        930.395263671875
      ],
      "min": [
        -468.3070983886719,
        4.547474050965727e-13,
        182.59580993652344
      ],
      "type": "VEC3"
    },
    {
      "bufferView": 2,
      "byteOffset": 559644,
      "componentType": 5126,
      "count": 7223,
      "max": [
        1.0,
        0.9991227984428406,
        1.0
      ],
      "min": [
        -1.0,
        -0.9991227984428406,
        -1.0
      ],
      "type": "VEC3"
    },
    {
      "bufferView": 0,
      "byteOffset": 340676,
      "componentType": 5125,
      "count": 27039,
      "type": "SCALAR"
    },
    {
      "bufferView": 2,
      "byteOffset": 646320,
      "componentType": 5126,
      "count": 10530,
      "max": [
        887.3950805664063,
        2702.122802734375,
        405.8710021972656
      ],
      "min": [
        -887.3181762695313,
        4.547474050965727e-13,
        -0.505490779876709
      ],
      "type": "VEC3"
    },
    {
      "bufferView": 2,
      "byteOffset": 772680,
      "componentType": 5126,
      "count": 10530,
      "max": [
        1.0,
        1.0,
        1.0
      ],
      "min": [
        -1.0,
        -1.0,
        -1.0
      ],
      "type": "VEC3"
    },
    {
      "bufferView": 0,
      "byteOffset": 448832,
      "componentType": 5125,
      "count": 44427,
      "type": "SCALAR"
    },
    {
      "bufferView": 2,
      "byteOffset": 899040,
      "componentType": 5126,
      "count": 3556,
      "max": [
        898.3220825195313,
        2231.8330078125,
        421.2611083984375
      ],
      "min": [
        -898.2451171875,
        31.928091049194336,
        17.33579444885254
      ],
      "type": "VEC3"
    },
    {
      "bufferView": 2,
      "byteOffset": 941712,
      "componentType": 5126,
      "count": 3556,
      "max": [
        1.0,
        0.9994730949401855,
        1.0
      ],
      "min": [
        -1.0,
        -0.9988105893135071,
        -1.0
      ],
      "type": "VEC3"
    },
    {
      "bufferView": 0,
      "byteOffset": 626540,
      "componentType": 5125,
      "count": 15774,
      "type": "SCALAR"
    },
    {
      "bufferView": 2,
      "byteOffset": 984384,
      "componentType": 5126,
      "count": 2100,
      "max": [
        131.31407165527344,
        2241.940673828125,
        361.16265869140625
      ],
      "min": [
        -131.2370147705078,
        76.1053695678711,
        237.97201538085938
      ],
      "type": "VEC3"
    },
    {
      "bufferView": 2,
      "byteOffset": 1009584,
      "componentType": 5126,
      "count": 2100,
      "max": [
        0.9998700618743896,
        0.18297061324119568,
        0.7950456142425537
      ],
      "min": [
        -0.9998608827590942,
        -0.5978953838348389,
        -0.37081092596054077
      ],
      "type": "VEC3"
    },
    {
      "bufferView": 0,
      "byteOffset": 689636,
      "componentType": 5125,
      "count": 4995,
      "type": "SCALAR"
    },
    {
      "bufferView": 2,
      "byteOffset": 1034784,
      "componentType": 5126,
      "count": 968,
      "max": [
        873.9380493164063,
        2702.122802734375,
        656.0484619140625
      ],
      "min": [
        -873.861083984375,
        438.5611877441406,
        51.67021942138672
      ],
      "type": "VEC3"
    },
    {
      "bufferView": 2,
      "byteOffset": 1046400,
      "componentType": 5126,
      "count": 968,
      "max": [
        0.9999803900718689,
        0.9999500513076782,
        0.9992506504058838
      ],
      "min": [
        -0.9999803900718689,
        -0.9812597036361694,
        -0.9954156279563904
      ],
      "type": "VEC3"
    },
    {
      "bufferView": 0,
      "byteOffset": 709616,
      "componentType": 5125,
      "count": 4284,
      "type": "SCALAR"
    },
    {
      "bufferView": 2,
      "byteOffset": 1058016,
      "componentType": 5126,
      "count": 9,
      "max": [
        8.23377513885498,
        2613.244873046875,
        331.074951171875
      ],
      "min": [
        -8.156718254089355,
        2602.8564453125,
        324.07244873046875
      ],
      "type": "VEC3"
    },
    {
      "bufferView": 0,
      "byteOffset": 726752,
      "componentType": 5125,
      "count": 16,
      "type": "SCALAR"
    },
    {
      "bufferView": 2,
      "byteOffset": 1058124,
      "componentType": 5126,
      "count": 166,
      "max": [
        468.3070983886719,
        2505.513916015625,
        472.6744384765625
      ],
      "min": [
        -468.3070983886719,
        1208.502197265625,
        283.98114013671875
      ],
      "type": "VEC3"
    },
    {
      "bufferView": 2,
      "byteOffset": 1060116,
      "componentType": 5126,
      "count": 166,
      "max": [
        0.9839752912521362,
        0.2849453091621399,
        0.9981719255447388
      ],
      "min": [
        -0.9839509725570679,
        -0.6354386210441589,
        -0.9743040204048157
      ],
      "type": "VEC3"
    },
    {
      "bufferView": 0,
      "byteOffset": 726816,
      "componentType": 5125,
      "count": 468,
      "type": "SCALAR"
    },
    {
      "bufferView": 2,
      "byteOffset": 1062108,
      "componentType": 5126,
      "count": 59,
      "max": [
        32.47317886352539,
        209.3058624267578,
        341.92498779296875
      ],
      "min": [
        -32.3962287902832,
        178.83340454101563,
        336.769287109375
      ],
      "type": "VEC3"
    },
    {
      "bufferView": 0,
      "byteOffset": 728688,
      "componentType": 5125,
      "count": 262,
      "type": "SCALAR"
    },
    {
      "bufferView": 2,
      "byteOffset": 1062816,
      "componentType": 5126,
      "count": 6254,
      "max": [
        1174.4981689453125,
        1878.2119140625,
        341.92498779296875
      ],
      "min": [
        -1174.421142578125,
        178.83340454101563,
        -0.505490779876709
      ],
      "type": "VEC3"
    },
    {
      "bufferView": 2,
      "byteOffset": 1137864,
      "componentType": 5126,
      "count": 6254,
      "max": [
        1.0,
        0.9999992251396179,
        0.9999991655349731
      ],
      "min": [
        -1.0,
        -0.9999992251396179,
        -0.9999994039535522
      ],
      "type": "VEC3"
    },
    {
      "bufferView": 0,
      "byteOffset": 729736,
      "componentType": 5125,
      "count": 30303,
      "type": "SCALAR"
    },
    {
      "bufferView": 2,
      "byteOffset": 1212912,
      "componentType": 5126,
      "count": 124,
      "max": [
        131.2496795654297,
        1514.0833740234375,
        205.90602111816406
      ],
      "min": [
        -137.85540771484375,
        188.11582946777344,
        80.22040557861328
      ],
      "type": "VEC3"
    },
    {
      "bufferView": 2,
      "byteOffset": 1214400,
      "componentType": 5126,
      "count": 124,
      "max": [
        0.9955924153327942,
        0.7938698530197144,
        0.8547831177711487
      ],
      "min": [
        -0.9955924153327942,
        -0.392630010843277,
        -0.5659587979316711
      ],
      "type": "VEC3"
    },
    {
      "bufferView": 0,
      "byteOffset": 850948,
      "componentType": 5125,
      "count": 435,
      "type": "SCALAR"
    },
    {
      "bufferView": 2,
      "byteOffset": 1215888,
      "componentType": 5126,
      "count": 282,
      "max": [
        473.4080810546875,
        2802.358154296875,
        504.4930114746094
      ],
      "min": [
        -473.3311767578125,
        187.7746124267578,
        15.75771713256836
      ],
      "type": "VEC3"
    },
    {
      "bufferView": 0,
      "byteOffset": 852688,
      "componentType": 5125,
      "count": 1104,
      "type": "SCALAR"
    },
    {
      "bufferView": 2,
      "byteOffset": 1219272,
      "componentType": 5126,
      "count": 918,
      "max": [
        895.2440795898438,
        2802.358154296875,
        504.4930114746094
      ],
      "min": [
        -895.1671142578125,
        187.7746124267578,
        15.75771713256836
      ],
      "type": "VEC3"
    },
    {
      "bufferView": 2,
      "byteOffset": 1230288,
      "componentType": 5126,
      "count": 918,
      "max": [
        0.9999934434890747,
        0.9999938607215881,
        0.9999986886978149
      ],
      "min": [
        -1.0,
        -0.9999934434890747,
        -0.9999992251396179
      ],
      "type": "VEC3"
    },
    {
      "bufferView": 0,
      "byteOffset": 857104,
      "componentType": 5125,
      "count": 3906,
      "type": "SCALAR"
    },
    {
      "bufferView": 2,
      "byteOffset": 1241304,
      "componentType": 5126,
      "count": 11004,
      "max": [
        238.48394775390625,
        1484.4378662109375,
        424.6357116699219
      ],
      "min": [
        -238.40699768066406,
        187.7746124267578,
        8.875927925109863
      ],
      "type": "VEC3"
    },
    {
      "bufferView": 2,
      "byteOffset": 1373352,
      "componentType": 5126,
      "count": 11004,
      "max": [
        1.0,
        1.0,
        1.0
      ],
      "min": [
        -1.0,
        -1.0,
        -1.0
      ],
      "type": "VEC3"
    },
    {
      "bufferView": 0,
      "byteOffset": 872728,
      "componentType": 5125,
      "count": 30192,
      "type": "SCALAR"
    },
    {
      "bufferView": 2,
      "byteOffset": 1505400,
      "componentType": 5126,
      "count": 2139,
      "max": [
        15.801515579223633,
        2640.915771484375,
        740.396240234375
      ],
      "min": [
        -15.713003158569336,
        2425.833984375,
        469.2041931152344
      ],
      "type": "VEC3"
    },
    {
      "bufferView": 2,
      "byteOffset": 1531068,
      "componentType": 5126,
      "count": 2139,
      "max": [
        0.9994781017303467,
        0.11972460895776749,
        0.13124719262123108
      ],
      "min": [
        -0.9996752738952637,
        -0.1812756210565567,
        -0.03128214180469513
      ],
      "type": "VEC3"
    },
    {
      "bufferView": 0,
      "byteOffset": 993496,
      "componentType": 5125,
      "count": 6927,
      "type": "SCALAR"
    },
    {
      "bufferView": 2,
      "byteOffset": 1556736,
      "componentType": 5126,
      "count": 569,
      "max": [
        18.68488311767578,
        2674.52490234375,
        740.396240234375
      ],
      "min": [
        -18.607938766479492,
        2395.764404296875,
        428.113037109375
      ],
      "type": "VEC3"
    },
    {
      "bufferView": 2,
      "byteOffset": 1563564,
      "componentType": 5126,
      "count": 569,
      "max": [
        0.9993956685066223,
        0.09193924814462662,
        0.04744783416390419
      ],
      "min": [
        -0.9996756315231323,
        -0.004864646587520838,
        -0.029000647366046906
      ],
      "type": "VEC3"
    },
    {
      "bufferView": 0,
      "byteOffset": 1021204,
      "componentType": 5125,
      "count": 1479,
      "type": "SCALAR"
    },
    {
      "bufferView": 2,
      "byteOffset": 1570392,
      "componentType": 5126,
      "count": 2878,
      "max": [
        1174.4981689453125,
        2754.8818359375,
        525.228759765625
      ],
      "min": [
        -1174.421142578125,
        789.8215942382813,
        104.43521118164063
      ],
      "type": "VEC3"
    },
    {
      "bufferView": 2,
      "byteOffset": 1604928,
      "componentType": 5126,
      "count": 2878,
      "max": [
        0.9999803900718689,
        0.9902635812759399,
        0.9998998045921326
      ],
      "min": [
        -0.9999803900718689,
        -0.9999687671661377,
        -0.9994209408760071
      ],
      "type": "VEC3"
    },
    {
      "bufferView": 0,
      "byteOffset": 1027120,
      "componentType": 5125,
      "count": 13854,
      "type": "SCALAR"
    },
    {
      "bufferView": 2,
      "byteOffset": 1639464,
      "componentType": 5126,
      "count": 19514,
      "max": [
        102.68812561035156,
        1791.2947998046875,
        664.7477416992188
      ],
      "min": [
        -102.68812561035156,
        646.1365966796875,
        441.8044738769531
      ],
      "type": "VEC3"
    },
    {
      "bufferView": 2,
      "byteOffset": 1873632,
      "componentType": 5126,
      "count": 19514,
      "max": [
        0.9999933242797852,
        0.9983846545219421,
        0.9999995827674866
      ],
      "min": [
        -0.9999933242797852,
        -0.9983846545219421,
        -0.9999995827674866
      ],
      "type": "VEC3"
    },
    {
      "bufferView": 0,
      "byteOffset": 1082536,
      "componentType": 5125,
      "count": 93060,
      "type": "SCALAR"
    },
    {
      "bufferView": 2,
      "byteOffset": 2107800,
      "componentType": 5126,
      "count": 3553,
      "max": [
        468.3070983886719,
        1900.7564697265625,
        930.7614135742188
      ],
      "min": [
        -468.3070983886719,
        462.6214599609375,
        404.989990234375
      ],
      "type": "VEC3"
    },
    {
      "bufferView": 2,
      "byteOffset": 2150436,
      "componentType": 5126,
      "count": 3553,
      "max": [
        1.0,
        0.9991227984428406,
        0.9981719255447388
      ],
      "min": [
        -1.0,
        -0.8222765326499939,
        -0.9999976754188538
      ],
      "type": "VEC3"
    },
    {
      "bufferView": 0,
      "byteOffset": 1454776,
      "componentType": 5125,
      "count": 11358,
      "type": "SCALAR"
    },
    {
      "bufferView": 2,
      "byteOffset": 2193072,
      "componentType": 5126,
      "count": 90,
      "max": [
        19.292999267578125,
        573.07958984375,
        595.6096801757813
      ],
      "min": [
        -19.292999267578125,
        513.5361938476563,
        568.7479248046875
      ],
      "type": "VEC3"
    },
    {
      "bufferView": 2,
      "byteOffset": 2194152,
      "componentType": 5126,
      "count": 90,
      "max": [
        0.1293186992406845,
        -0.3614950180053711,
        0.9323740005493164
      ],
      "min": [
        -0.1293186992406845,
        -0.4576091766357422,
        0.8819355368614197
      ],
      "type": "VEC3"
    },
    {
      "bufferView": 0,
      "byteOffset": 1500208,
      "componentType": 5125,
      "count": 228,
      "type": "SCALAR"
    },
    {
      "bufferView": 2,
      "byteOffset": 2195232,
      "componentType": 5126,
      "count": 51,
      "max": [
        101.31210327148438,
        752.9879150390625,
        554.8671875
      ],
      "min": [
        94.53983306884766,
        705.8992309570313,
        507.06005859375
      ],
      "type": "VEC3"
    },
    {
      "bufferView": 2,
      "byteOffset": 2195844,
      "componentType": 5126,
      "count": 51,
      "max": [
        0.9961060881614685,
        0.00462321424856782,
        0.11286036670207977
      ],
      "min": [
        0.9916328191757202,
        -0.06714265048503876,
        0.057135697454214096
      ],
      "type": "VEC3"
    },
    {
      "bufferView": 0,
      "byteOffset": 1501120,
      "componentType": 5125,
      "count": 153,
      "type": "SCALAR"
    },
    {
      "bufferView": 2,
      "byteOffset": 2196456,
      "componentType": 5126,
      "count": 125,
      "max": [
        280.1962890625,
        1539.0556640625,
        501.5685729980469
      ],
      "min": [
        -101.26020050048828,
        1442.78125,
        457.6142883300781
      ],
      "type": "VEC3"
    },
    {
      "bufferView": 2,
      "byteOffset": 2197956,
      "componentType": 5126,
      "count": 125,
      "max": [
        0.9938868880271912,
        0.04183579608798027,
        0.9981719255447388
      ],
      "min": [
        -0.9938868880271912,
        0.00462321424856782,
        0.11030656099319458
      ],
      "type": "VEC3"
    },
    {
      "bufferView": 1,
      "componentType": 5126,
      "count": 125,
      "max": [
        5.003314018249512,
        1.0122350454330444
      ],
      "min": [
        -0.03100718930363655,
        -0.0015383580466732383
      ],
      "type": "VEC2"
    },
    {
      "bufferView": 0,
      "byteOffset": 1501732,
      "componentType": 5125,
      "count": 357,
      "type": "SCALAR"
    },
    {
      "bufferView": 2,
      "byteOffset": 2199456,
      "componentType": 5126,
      "count": 12,
      "max": [
        101.32740020751953,
        1508.9666748046875,
        512.5581665039063
      ],
      "min": [
        -235.55160522460938,
        1197.277587890625,
        460.2529296875
      ],
      "type": "VEC3"
    },
    {
      "bufferView": 2,
      "byteOffset": 2199600,
      "componentType": 5126,
      "count": 12,
      "max": [
        0.9938868880271912,
        0.04183579608798027,
        0.9981719255447388
      ],
      "min": [
        -0.9938868880271912,
        0.00462321424856782,
        0.11030656099319458
      ],
      "type": "VEC3"
    },
    {
      "bufferView": 1,
      "byteOffset": 1000,
      "componentType": 5126,
      "count": 12,
      "max": [
        -14.001179695129395,
        -3.02675199508667
      ],
      "min": [
        -15.002710342407227,
        -3.9990530014038086
      ],
      "type": "VEC2"
    },
    {
      "bufferView": 0,
      "byteOffset": 1503160,
      "componentType": 5125,
      "count": 18,
      "type": "SCALAR"
    },
    {
      "bufferView": 2,
      "byteOffset": 2199744,
      "componentType": 5126,
      "count": 7704,
      "max": [
        102.68812561035156,
        1791.2947998046875,
        647.0142822265625
      ],
      "min": [
        -102.68812561035156,
        1704.5938720703125,
        441.8044738769531
      ],
      "type": "VEC3"
    },
    {
      "bufferView": 0,
      "byteOffset": 1503232,
      "componentType": 5125,
      "count": 28224,
      "type": "SCALAR"
    },
    {
      "bufferView": 2,
      "byteOffset": 2292192,
      "componentType": 5126,
      "count": 52,
      "max": [
        221.05865478515625,
        2507.172607421875,
        527.7979736328125
      ],
      "min": [
        -220.98170471191406,
        260.40106201171875,
        20.340665817260742
      ],
      "type": "VEC3"
    },
    {
      "bufferView": 0,
      "byteOffset": 1616128,
      "componentType": 5125,
      "count": 52,
      "type": "SCALAR"
    },
    {
      "bufferView": 2,
      "byteOffset": 2292816,
      "componentType": 5126,
      "count": 13179,
      "max": [
        1173.2666015625,
        2772.07080078125,
        766.538818359375
      ],
      "min": [
        -1173.189697265625,
        4.547474050965727e-13,
        -0.505490779876709
      ],
      "type": "VEC3"
    },
    {
      "bufferView": 0,
      "byteOffset": 1616336,
      "componentType": 5125,
      "count": 53942,
      "type": "SCALAR"
    },
    {
      "bufferView": 2,
      "byteOffset": 2450964,
      "componentType": 5126,
      "count": 6087,
      "max": [
        468.3070983886719,
        2092.666015625,
        930.7614135742188
      ],
      "min": [
        -468.3070983886719,
        137.89559936523438,
        72.64909362792969
      ],
      "type": "VEC3"
    },
    {
      "bufferView": 0,
      "byteOffset": 1832104,
      "componentType": 5125,
      "count": 20382,
      "type": "SCALAR"
    },
    {
      "bufferView": 2,
      "byteOffset": 2524008,
      "componentType": 5126,
      "count": 3166,
      "max": [
        1174.4981689453125,
        2754.8818359375,
        421.2611083984375
      ],
      "min": [
        -1174.421142578125,
        305.4261474609375,
        17.33579444885254
      ],
      "type": "VEC3"
    },
    {
      "bufferView": 0,
      "byteOffset": 1913632,
      "componentType": 5125,
      "count": 17066,
      "type": "SCALAR"
    },
    {
      "bufferView": 2,
      "byteOffset": 2562000,
      "componentType": 5126,
      "count": 2866,
      "max": [
        238.48394775390625,
        1438.475341796875,
        176.5823516845703
      ],
      "min": [
        -238.40699768066406,
        296.1014099121094,
        8.875927925109863
      ],
      "type": "VEC3"
    },
    {
      "bufferView": 0,
      "byteOffset": 1981896,
      "componentType": 5125,
      "count": 13364,
      "type": "SCALAR"
    }
  ],
  "asset": {
    "extras": {
      "author": "SPACE UNITED (https://sketchfab.com/elijahb.evans28)",
      "license": "CC-BY-4.0 (http://creativecommons.org/licenses/by/4.0/)",
      "source": "https://sketchfab.com/3d-models/the-shuttle-carrier-aircraft-0e0dd080f17f49599312348ce10ebebe",
      "title": "The Shuttle Carrier Aircraft"
    },
    "generator": "Sketchfab-17.8.0",
    "version": "2.0"
  },
  "bufferViews": [
    {
      "buffer": 0,
      "byteLength": 2035352,
      "name": "floatBufferViews",
      "target": 34963
    },
    {
      "buffer": 0,
      "byteLength": 1096,
      "byteOffset": 2035352,
      "byteStride": 8,
      "name": "floatBufferViews",
      "target": 34962
    },
    {
      "buffer": 0,
      "byteLength": 2596392,
      "byteOffset": 2036448,
      "byteStride": 12,
      "name": "floatBufferViews",
      "target": 34962
    }
  ],
  "buffers": [
    {
      "byteLength": 4632840,
      "uri": "scene.bin"
    }
  ],
  "materials": [
    {
      "name": "edge_color000255",
      "pbrMetallicRoughness": {
        "metallicFactor": 0.0,
        "roughnessFactor": 0.6
      }
    },
    {
      "name": "material",
      "pbrMetallicRoughness": {
        "metallicFactor": 0.0,
        "roughnessFactor": 0.6
      }
    },
    {
      "name": "material_0",
      "pbrMetallicRoughness": {
        "baseColorFactor": [
          0.670588,
          0.690196,
          0.8,
          1.0
        ],
        "metallicFactor": 0.0,
        "roughnessFactor": 0.6
      }
    },
    {
      "name": "edge_color686868255",
      "pbrMetallicRoughness": {
        "metallicFactor": 0.0,
        "roughnessFactor": 0.6
      }
    },
    {
      "name": "DarkBlue_1",
      "pbrMetallicRoughness": {
        "baseColorFactor": [
          0.0,
          0.168628,
          0.498039,
          1.0
        ],
        "metallicFactor": 0.0,
        "roughnessFactor": 0.6
      }
    },
    {
      "name": "Bright_white",
      "pbrMetallicRoughness": {
        "metallicFactor": 0.0,
        "roughnessFactor": 0.6
      }
    },
    {
      "name": "Black",
      "pbrMetallicRoughness": {
        "baseColorFactor": [
          0.0,
          0.0,
          0.0,
          1.0
        ],
        "metallicFactor": 0.0,
        "roughnessFactor": 0.6
      }
    },
    {
      "name": "Gainsboro_1",
      "pbrMetallicRoughness": {
        "baseColorFactor": [
          0.776471,
          0.776471,
          0.776471,
          1.0
        ],
        "metallicFactor": 0.0,
        "roughnessFactor": 0.6
      }
    },
    {
      "alphaMode": "BLEND",
      "name": "Gray_Glass_1",
      "pbrMetallicRoughness": {
        "baseColorFactor": [
          0.266667,
          0.266667,
          0.266667,
          0.901961
        ],
        "metallicFactor": 0.0,
        "roughnessFactor": 0.6
      }
    },
    {
      "name": "Color_007",
      "pbrMetallicRoughness": {
        "baseColorFactor": [
          0.227451,
          0.227451,
          0.227451,
          1.0
        ],
        "metallicFactor": 0.0,
        "roughnessFactor": 0.6
      }
    },
    {
      "name": "edge_color585858255",
      "pbrMetallicRoughness": {
        "metallicFactor": 0.0,
        "roughnessFactor": 0.6
      }
    },
    {
      "name": "Color_005",
      "pbrMetallicRoughness": {
        "baseColorFactor": [
          0.447059,
          0.447059,
          0.447059,
          1.0
        ],
        "metallicFactor": 0.0,
        "roughnessFactor": 0.6
      }
    },
    {
      "name": "edge_color105105105255",
      "pbrMetallicRoughness": {
        "metallicFactor": 0.0,
        "roughnessFactor": 0.6
      }
    },
    {
      "name": "DimGray",
      "pbrMetallicRoughness": {
        "baseColorFactor": [
          0.411765,
          0.411765,
          0.411765,
          1.0
        ],
        "metallicFactor": 0.0,
        "roughnessFactor": 0.6
      }
    },
    {
      "name": "edge_color255255255255",
      "pbrMetallicRoughness": {
        "metallicFactor": 0.0,
        "roughnessFactor": 0.6
      }
    },
    {
      "name": "material_3",
      "pbrMetallicRoughness": {
        "metallicFactor": 0.0,
        "roughnessFactor": 0.6
      }
    },
    {
      "name": "edge_color198198198255",
      "pbrMetallicRoughness": {
        "metallicFactor": 0.0,
        "roughnessFactor": 0.6
      }
    },
    {
      "name": "edge_color220220220255",
      "pbrMetallicRoughness": {
        "metallicFactor": 0.0,
        "roughnessFactor": 0.6
      }
    },
    {
      "name": "Gainsboro",
      "pbrMetallicRoughness": {
        "baseColorFactor": [
          0.862745,
          0.862745,
          0.862745,
          1.0
        ],
        "metallicFactor": 0.0,
        "roughnessFactor": 0.6
      }
    },
    {
      "name": "Silver",
      "pbrMetallicRoughness": {
        "baseColorFactor": [
          0.752941,
          0.752941,
          0.752941,
          1.0
        ],
        "metallicFactor": 0.0,
        "roughnessFactor": 0.6
      }
    },
    {
      "name": "edge_color192192192255",
      "pbrMetallicRoughness": {
        "metallicFactor": 0.0,
        "roughnessFactor": 0.6
      }
    },
    {
      "name": "DarkBlue",
      "pbrMetallicRoughness": {
        "baseColorFactor": [
          0.0,
          0.0,
          0.545098,
          1.0
        ]
      }
    },
    {
      "name": "material_22",
      "pbrMetallicRoughness": {
        "baseColorFactor": [
          1.0,
          0.0,
          0.0,
          1.0
        ],
        "metallicFactor": 0.0,
        "roughnessFactor": 0.6
      }
    },
    {
      "name": "Color_002",
      "pbrMetallicRoughness": {
        "baseColorFactor": [
          0.776471,
          0.776471,
          0.776471,
          1.0
        ],
        "metallicFactor": 0.0,
        "roughnessFactor": 0.6
      }
    },
    {
      "name": "Color_006",
      "pbrMetallicRoughness": {
        "baseColorFactor": [
          0.337255,
          0.337255,
          0.337255,
          1.0
        ],
        "metallicFactor": 0.0,
        "roughnessFactor": 0.6
      }
    },
    {
      "name": "Color_008",
      "pbrMetallicRoughness": {
        "baseColorFactor": [
          0.117647,
          0.117647,
          0.117647,
          1.0
        ],
        "metallicFactor": 0.0,
        "roughnessFactor": 0.6
      }
    },
    {
      "name": "Color_009",
      "pbrMetallicRoughness": {
        "baseColorFactor": [
          0.0,
          0.0,
          0.0,
          1.0
        ],
        "metallicFactor": 0.0,
        "roughnessFactor": 0.6
      }
    },
    {
      "name": "Color_001",
      "pbrMetallicRoughness": {
        "baseColorFactor": [
          0.886274,
          0.886274,
          0.886274,
          1.0
        ],
        "metallicFactor": 0.0,
        "roughnessFactor": 0.6
      }
    },
    {
      "name": "nasa-logo",
      "pbrMetallicRoughness": {
        "metallicFactor": 0.0,
        "roughnessFactor": 0.6
      }
    },
    {
      "name": "OldGlory",
      "pbrMetallicRoughness": {
        "metallicFactor": 0.0,
        "roughnessFactor": 0.6
      }
    },
    {
      "name": "edge_color868686255",
      "pbrMetallicRoughness": {
        "metallicFactor": 0.0,
        "roughnessFactor": 0.6
      }
    }
  ],
  "meshes": [
    {
      "name": "Material2",
      "primitives": [
        {
          "attributes": {
            "NORMAL": 1,
            "POSITION": 0
          },
          "indices": 2,
          "material": 1,
          "mode": 4
        }
      ]
    },
    {
      "name": "Material2",
      "primitives": [
        {
          "attributes": {
            "NORMAL": 4,
            "POSITION": 3
          },
          "indices": 5,
          "material": 2,
          "mode": 4
        }
      ]
    },
    {
      "name": "Material5",
      "primitives": [
        {
          "attributes": {
            "POSITION": 6
          },
          "indices": 7,
          "material": 3,
          "mode": 1
        }
      ]
    },
    {
      "name": "Material3",
      "primitives": [
        {
          "attributes": {
            "NORMAL": 9,
            "POSITION": 8
          },
          "indices": 10,
          "material": 4,
          "mode": 4
        }
      ]
    },
    {
      "name": "Material3",
      "primitives": [
        {
          "attributes": {
            "NORMAL": 12,
            "POSITION": 11
          },
          "indices": 13,
          "material": 5,
          "mode": 4
        }
      ]
    },
    {
      "name": "Material2",
      "primitives": [
        {
          "attributes": {
            "NORMAL": 15,
            "POSITION": 14
          },
          "indices": 16,
          "material": 6,
          "mode": 4
        }
      ]
    },
    {
      "name": "Material2",
      "primitives": [
        {
          "attributes": {
            "NORMAL": 18,
            "POSITION": 17
          },
          "indices": 19,
          "material": 7,
          "mode": 4
        }
      ]
    },
    {
      "name": "Material3",
      "primitives": [
        {
          "attributes": {
            "NORMAL": 21,
            "POSITION": 20
          },
          "indices": 22,
          "material": 8,
          "mode": 4
        }
      ]
    },
    {
      "name": "Material3",
      "primitives": [
        {
          "attributes": {
            "NORMAL": 24,
            "POSITION": 23
          },
          "indices": 25,
          "material": 9,
          "mode": 4
        }
      ]
    },
    {
      "name": "Material5",
      "primitives": [
        {
          "attributes": {
            "POSITION": 26
          },
          "indices": 27,
          "material": 10,
          "mode": 1
        }
      ]
    },
    {
      "name": "Material3",
      "primitives": [
        {
          "attributes": {
            "NORMAL": 29,
            "POSITION": 28
          },
          "indices": 30,
          "material": 11,
          "mode": 4
        }
      ]
    },
    {
      "name": "Material4",
      "primitives": [
        {
          "attributes": {
            "POSITION": 31
          },
          "indices": 32,
          "material": 12,
          "mode": 1
        }
      ]
    },
    {
      "name": "Material3",
      "primitives": [
        {
          "attributes": {
            "NORMAL": 34,
            "POSITION": 33
          },
          "indices": 35,
          "material": 13,
          "mode": 4
        }
      ]
    },
    {
      "name": "Material3",
      "primitives": [
        {
          "attributes": {
            "NORMAL": 37,
            "POSITION": 36
          },
          "indices": 38,
          "material": 15,
          "mode": 4
        }
      ]
    },
    {
      "name": "Material4",
      "primitives": [
        {
          "attributes": {
            "POSITION": 39
          },
          "indices": 40,
          "material": 17,
          "mode": 1
        }
      ]
    },
    {
      "name": "Material3",
      "primitives": [
        {
          "attributes": {
            "NORMAL": 42,
            "POSITION": 41
          },
          "indices": 43,
          "material": 18,
          "mode": 4
        }
      ]
    },
    {
      "name": "Material2",
      "primitives": [
        {
          "attributes": {
            "NORMAL": 45,
            "POSITION": 44
          },
          "indices": 46,
          "material": 19,
          "mode": 4
        }
      ]
    },
    {
      "name": "Material3",
      "primitives": [
        {
          "attributes": {
            "NORMAL": 48,
            "POSITION": 47
          },
          "indices": 49,
          "material": 21,
          "mode": 4
        }
      ]
    },
    {
      "name": "Material3",
      "primitives": [
        {
          "attributes": {
            "NORMAL": 51,
            "POSITION": 50
          },
          "indices": 52,
          "material": 22,
          "mode": 4
        }
      ]
    },
    {
      "name": "Material3",
      "primitives": [
        {
          "attributes": {
            "NORMAL": 54,
            "POSITION": 53
          },
          "indices": 55,
          "material": 23,
          "mode": 4
        }
      ]
    },
    {
      "name": "Material2",
      "primitives": [
        {
          "attributes": {
            "NORMAL": 57,
            "POSITION": 56
          },
          "indices": 58,
          "material": 24,
          "mode": 4
        }
      ]
    },
    {
      "name": "Material3",
      "primitives": [
        {
          "attributes": {
            "NORMAL": 60,
            "POSITION": 59
          },
          "indices": 61,
          "material": 25,
          "mode": 4
        }
      ]
    },
    {
      "name": "Material3",
      "primitives": [
        {
          "attributes": {
            "NORMAL": 63,
            "POSITION": 62
          },
          "indices": 64,
          "material": 26,
          "mode": 4
        }
      ]
    },
    {
      "name": "Material3",
      "primitives": [
        {
          "attributes": {
            "NORMAL": 66,
            "POSITION": 65
          },
          "indices": 67,
          "material": 27,
          "mode": 4
        }
      ]
    },
    {
      "name": "Material3",
      "primitives": [
        {
          "attributes": {
            "NORMAL": 69,
            "POSITION": 68,
            "TEXCOORD_0": 70
          },
          "indices": 71,
          "material": 28,
          "mode": 4
        }
      ]
    },
    {
      "name": "Material3",
      "primitives": [
        {
          "attributes": {
            "NORMAL": 73,
            "POSITION": 72,
            "TEXCOORD_0": 74
          },
          "indices": 75,
          "material": 29,
          "mode": 4
        }
      ]
    },
    {
      "name": "Material3",
      "primitives": [
        {
          "attributes": {
            "POSITION": 76
          },
          "indices": 77,
          "material": 30,
          "mode": 1
        }
      ]
    },
    {
      "name": "Material2",
      "primitives": [
        {
          "attributes": {
            "POSITION": 78
          },
          "indices": 79,
          "material": 0,
          "mode": 1
        }
      ]
    },
    {
      "name": "Material4",
      "primitives": [
        {
          "attributes": {
            "POSITION": 80
          },
          "indices": 81,
          "material": 0,
          "mode": 1
        }
      ]
    },
    {
      "name": "Material2",
      "primitives": [
        {
          "attributes": {
            "POSITION": 82
          },
          "indices": 83,
          "material": 14,
          "mode": 1
        }
      ]
    },
    {
      "name": "Material2",
      "primitives": [
        {
          "attributes": {
            "POSITION": 84
          },
          "indices": 85,
          "material": 16,
          "mode": 1
        }
      ]
    },
    {
      "name": "Material2",
      "primitives": [
        {
          "attributes": {
            "POSITION": 86
          },
          "indices": 87,
          "material": 20,
          "mode": 1
        }
      ]
    }
  ],
  "nodes": [
    {
      "children": [
        1
      ],
      "matrix": [
        1.0,
        0.0,
        0.0,
        0.0,
        0.0,
        2.220446049250313e-16,
        -1.0,
        0.0,
        0.0,
        1.0,
        2.220446049250313e-16,
        0.0,
        0.0,
        0.0,
        0.0,
        1.0
      ],
      "name": "Sketchfab_model"
    },
    {
      "children": [
        2,
        3,
        4,
        5,
        6,
        7,
        8,
        9,
        10,
        11,
        12,
        13,
        14,
        15,
        16,
        17,
        18,
        19,
        20,
        21,
        22,
        23,
        24,
        25,
        26,
        27,
        28,
        29,
        30,
        31,
        32,
        33,
        34
      ],
      "name": "Collada visual scene group"
    },
    {
      "mesh": 0,
      "name": "Material2"
    },
    {
      "mesh": 1,
      "name": "Material2"
    },
    {
      "mesh": 2,
      "name": "Material5"
    },
    {
      "mesh": 3,
      "name": "Material3"
    },
    {
      "mesh": 4,
      "name": "Material3"
    },
    {
      "mesh": 5,
      "name": "Material2"
    },
    {
      "mesh": 6,
      "name": "Material2"
    },
    {
      "mesh": 7,
      "name": "Material3"
    },
    {
      "mesh": 8,
      "name": "Material3"
    },
    {
      "mesh": 9,
      "name": "Material5"
    },
    {
      "mesh": 10,
      "name": "Material3"
    },
    {
      "mesh": 11,
      "name": "Material4"
    },
    {
      "mesh": 12,
      "name": "Material3"
    },
    {
      "mesh": 13,
      "name": "Material3"
    },
    {
      "mesh": 14,
      "name": "Material4"
    },
    {
      "mesh": 15,
      "name": "Material3"
    },
    {
      "mesh": 16,
      "name": "Material2"
    },
    {
      "mesh": 17,
      "name": "Material3"
    },
    {
      "mesh": 18,
      "name": "Material3"
    },
    {
      "mesh": 19,
      "name": "Material3"
    },
    {
      "mesh": 20,
      "name": "Material2"
    },
    {
      "mesh": 21,
      "name": "Material3"
    },
    {
      "mesh": 22,
      "name": "Material3"
    },
    {
      "mesh": 23,
      "name": "Material3"
    },
    {
      "mesh": 24,
      "name": "Material3"
    },
    {
      "mesh": 25,
      "name": "Material3"
    },
    {
      "mesh": 26,
      "name": "Material3"
    },
    {
      "mesh": 27,
      "name": "Material2"
    },
    {
      "mesh": 28,
      "name": "Material4"
    },
    {
      "mesh": 29,
      "name": "Material2"
    },
    {
      "mesh": 30,
      "name": "Material2"
    },
    {
      "mesh": 31,
      "name": "Material2"
    },
    {
      "children": [
        35
      ],
      "name": "SketchUp"
    },
    {
      "children": [
        36
      ],
      "matrix": [
        0.6316128,
        0.7752841,
        -2.775558e-17,
        0.0,
        -0.3075703,
        0.2505731,
        0.9179399,
        0.0,
        0.7116641,
        -0.5797825,
        0.3967195,
        0.0,
        1677.471,
        -33.44861,
        1232.871,
        1.0
      ],
      "name": "skp_camera_Last_Saved_SketchUp_View"
    },
    {
      "name": "ID1"
    }
  ],
  "scene": 0,
  "scenes": [
    {
      "name": "Sketchfab_Scene",
      "nodes": [
        0
      ]
    }
  ]
}
