{
  "accessors": [
    {
      "bufferView": 2,
      "componentType": 5126,
      "count": 68,
      "max": [
        -0.4335919916629791,
        0.13106299936771393,
        0.7314609885215759
      ],
      "min": [
        -0.43732699751853943,
        0.1286499947309494,
        0.6048460006713867
      ],
      "type": "VEC3"
    },
    {
      "bufferView": 2,
      "byteOffset": 816,
      "componentType": 5126,
      "count": 68,
      "max": [
        1.0,
        0.9738393425941467,
        1.0
      ],
      "min": [
        -1.0,
        -0.9738393425941467,
        -1.0
      ],
      "type": "VEC3"
    },
    {
      "bufferView": 3,
      "componentType": 5126,
      "count": 68,
      "max": [
        1.0,
        1.0,
        0.9993258714675903,
        1.0
      ],
      "min": [
        -1.0,
        -1.0,
        -0.9993258714675903,
        1.0
      ],
      "type": "VEC4"
    },
    {
      "bufferView": 1,
      "componentType": 5126,
      "count": 68,
      "max": [
        0.949999988079071,
        1.0
      ],
      "min": [
        -0.05000000074505806,
        0.0
      ],
      "type": "VEC2"
    },
    {
      "bufferView": 0,
      "componentType": 5125,
      "count": 240,
      "type": "SCALAR"
    },
    {
      "bufferView": 2,
      "byteOffset": 1632,
      "componentType": 5126,
      "count": 68,
      "max": [
        -0.4335919916629791,
        -0.12824399769306183,
        0.9548029899597168
      ],
      "min": [
        -0.43732699751853943,
        -0.13065700232982635,
        0.8281880021095276
      ],
      "type": "VEC3"
    },
    {
      "bufferView": 2,
      "byteOffset": 2448,
      "componentType": 5126,
      "count": 68,
      "max": [
        1.0,
        0.9738393425941467,
        1.0
      ],
      "min": [
        -1.0,
        -0.9738393425941467,
        -1.0
      ],
      "type": "VEC3"
    },
    {
      "bufferView": 3,
      "byteOffset": 1088,
      "componentType": 5126,
      "count": 68,
      "max": [
        1.0,
        1.0,
        0.9993258714675903,
        1.0
      ],
      "min": [
        -1.0,
        -1.0,
        -0.9993258714675903,
        1.0
      ],
      "type": "VEC4"
    },
    {
      "bufferView": 1,
      "byteOffset": 544,
      "componentType": 5126,
      "count": 68,
      "max": [
        0.949999988079071,
        1.0
      ],
      "min": [
        -0.05000000074505806,
        0.0
      ],
      "type": "VEC2"
    },
    {
      "bufferView": 0,
      "byteOffset": 960,
      "componentType": 5125,
      "count": 240,
      "type": "SCALAR"
    },
    {
      "bufferView": 2,
      "byteOffset": 3264,
      "componentType": 5126,
      "count": 68,
      "max": [
        0.43792399764060974,
        0.13106299936771393,
        1.0
      ],
      "min": [
        0.43418899178504944,
        0.1286499947309494,
        0.873386025428772
      ],
      "type": "VEC3"
    },
    {
      "bufferView": 2,
      "byteOffset": 4080,
      "componentType": 5126,
      "count": 68,
      "max": [
        1.0,
        0.9738393425941467,
        1.0
      ],
      "min": [
        -1.0,
        -0.9738393425941467,
        -1.0
      ],
      "type": "VEC3"
    },
    {
      "bufferView": 3,
      "byteOffset": 2176,
      "componentType": 5126,
      "count": 68,
      "max": [
        1.0,
        1.0,
        0.9993258714675903,
        1.0
      ],
      "min": [
        -1.0,
        -1.0,
        -0.9993258714675903,
        1.0
      ],
      "type": "VEC4"
    },
    {
      "bufferView": 1,
      "byteOffset": 1088,
      "componentType": 5126,
      "count": 68,
      "max": [
        0.949999988079071,
        1.0
      ],
      "min": [
        -0.05000000074505806,
        0.0
      ],
      "type": "VEC2"
    },
    {
      "bufferView": 0,
      "byteOffset": 1920,
      "componentType": 5125,
      "count": 240,
      "type": "SCALAR"
    },
    {
      "bufferView": 2,
      "byteOffset": 4896,
      "componentType": 5126,
      "count": 68,
      "max": [
        0.43792399764060974,
        -0.12824399769306183,
        0.8162310123443604
      ],
      "min": [
        0.43418899178504944,
        -0.13065700232982635,
        0.6896169781684875
      ],
      "type": "VEC3"
    },
    {
      "bufferView": 2,
      "byteOffset": 5712,
      "componentType": 5126,
      "count": 68,
      "max": [
        1.0,
        0.9738393425941467,
        1.0
      ],
      "min": [
        -1.0,
        -0.9738393425941467,
        -1.0
      ],
      "type": "VEC3"
    },
    {
      "bufferView": 3,
      "byteOffset": 3264,
      "componentType": 5126,
      "count": 68,
      "max": [
        1.0,
        1.0,
        0.9993258714675903,
        1.0
      ],
      "min": [
        -1.0,
        -1.0,
        -0.9993258714675903,
        1.0
      ],
      "type": "VEC4"
    },
    {
      "bufferView": 1,
      "byteOffset": 1632,
      "componentType": 5126,
      "count": 68,
      "max": [
        0.949999988079071,
        1.0
      ],
      "min": [
        -0.05000000074505806,
        0.0
      ],
      "type": "VEC2"
    },
    {
      "bufferView": 0,
      "byteOffset": 2880,
      "componentType": 5125,
      "count": 240,
      "type": "SCALAR"
    },
    {
      "bufferView": 2,
      "byteOffset": 6528,
      "componentType": 5126,
      "count": 68,
      "max": [
        0.43792399764060974,
        -0.12824399769306183,
        0.19289599359035492
      ],
      "min": [
        0.43418899178504944,
        -0.13065700232982635,
        0.06628110259771347
      ],
      "type": "VEC3"
    },
    {
      "bufferView": 2,
      "byteOffset": 7344,
      "componentType": 5126,
      "count": 68,
      "max": [
        1.0,
        0.9738393425941467,
        1.0
      ],
      "min": [
        -1.0,
        -0.9738393425941467,
        -1.0
      ],
      "type": "VEC3"
    },
    {
      "bufferView": 3,
      "byteOffset": 4352,
      "componentType": 5126,
      "count": 68,
      "max": [
        1.0,
        1.0,
        0.9993258714675903,
        1.0
      ],
      "min": [
        -1.0,
        -1.0,
        -0.9993258714675903,
        1.0
      ],
      "type": "VEC4"
    },
    {
      "bufferView": 1,
      "byteOffset": 2176,
      "componentType": 5126,
      "count": 68,
      "max": [
        0.949999988079071,
        1.0
      ],
      "min": [
        -0.05000000074505806,
        0.0
      ],
      "type": "VEC2"
    },
    {
      "bufferView": 0,
      "byteOffset": 3840,
      "componentType": 5125,
      "count": 240,
      "type": "SCALAR"
    },
    {
      "bufferView": 2,
      "byteOffset": 8160,
      "componentType": 5126,
      "count": 68,
      "max": [
        0.43792399764060974,
        0.13106299936771393,
        0.09759339690208435
      ],
      "min": [
        0.43418899178504944,
        0.1286499947309494,
        -0.029021000489592552
      ],
      "type": "VEC3"
    },
    {
      "bufferView": 2,
      "byteOffset": 8976,
      "componentType": 5126,
      "count": 68,
      "max": [
        1.0,
        0.9738393425941467,
        1.0
      ],
      "min": [
        -1.0,
        -0.9738393425941467,
        -1.0
      ],
      "type": "VEC3"
    },
    {
      "bufferView": 3,
      "byteOffset": 5440,
      "componentType": 5126,
      "count": 68,
      "max": [
        1.0,
        1.0,
        0.9993258714675903,
        1.0
      ],
      "min": [
        -1.0,
        -1.0,
        -0.9993258714675903,
        1.0
      ],
      "type": "VEC4"
    },
    {
      "bufferView": 1,
      "byteOffset": 2720,
      "componentType": 5126,
      "count": 68,
      "max": [
        0.949999988079071,
        1.0
      ],
      "min": [
        -0.05000000074505806,
        0.0
      ],
      "type": "VEC2"
    },
    {
      "bufferView": 0,
      "byteOffset": 4800,
      "componentType": 5125,
      "count": 240,
      "type": "SCALAR"
    },
    {
      "bufferView": 2,
      "byteOffset": 9792,
      "componentType": 5126,
      "count": 68,
      "max": [
        -0.4335919916629791,
        -0.12824399769306183,
        0.11321599781513214
      ],
      "min": [
        -0.43732699751853943,
        -0.13065700232982635,
        -0.013398700393736362
      ],
      "type": "VEC3"
    },
    {
      "bufferView": 2,
      "byteOffset": 10608,
      "componentType": 5126,
      "count": 68,
      "max": [
        1.0,
        0.9738393425941467,
        1.0
      ],
      "min": [
        -1.0,
        -0.9738393425941467,
        -1.0
      ],
      "type": "VEC3"
    },
    {
      "bufferView": 3,
      "byteOffset": 6528,
      "componentType": 5126,
      "count": 68,
      "max": [
        1.0,
        1.0,
        0.9993258714675903,
        1.0
      ],
      "min": [
        -1.0,
        -1.0,
        -0.9993258714675903,
        1.0
      ],
      "type": "VEC4"
    },
    {
      "bufferView": 1,
      "byteOffset": 3264,
      "componentType": 5126,
      "count": 68,
      "max": [
        0.949999988079071,
        1.0
      ],
      "min": [
        -0.05000000074505806,
        0.0
      ],
      "type": "VEC2"
    },
    {
      "bufferView": 0,
      "byteOffset": 5760,
      "componentType": 5125,
      "count": 240,
      "type": "SCALAR"
    },
    {
      "bufferView": 2,
      "byteOffset": 11424,
      "componentType": 5126,
      "count": 68,
      "max": [
        -0.4335919916629791,
        0.13106299936771393,
        0.188633993268013
      ],
      "min": [
        -0.43732699751853943,
        0.1286499947309494,
        0.06201909855008125
      ],
      "type": "VEC3"
    },
    {
      "bufferView": 2,
      "byteOffset": 12240,
      "componentType": 5126,
      "count": 68,
      "max": [
        1.0,
        0.9738393425941467,
        1.0
      ],
      "min": [
        -1.0,
        -0.9738393425941467,
        -1.0
      ],
      "type": "VEC3"
    },
    {
      "bufferView": 3,
      "byteOffset": 7616,
      "componentType": 5126,
      "count": 68,
      "max": [
        1.0,
        1.0,
        0.9993258714675903,
        1.0
      ],
      "min": [
        -1.0,
        -1.0,
        -0.9993258714675903,
        1.0
      ],
      "type": "VEC4"
    },
    {
      "bufferView": 1,
      "byteOffset": 3808,
      "componentType": 5126,
      "count": 68,
      "max": [
        0.949999988079071,
        1.0
      ],
      "min": [
        -0.05000000074505806,
        0.0
      ],
      "type": "VEC2"
    },
    {
      "bufferView": 0,
      "byteOffset": 6720,
      "componentType": 5125,
      "count": 240,
      "type": "SCALAR"
    },
    {
      "bufferView": 2,
      "byteOffset": 13056,
      "componentType": 5126,
      "count": 14211,
      "max": [
        -0.04729180037975311,
        0.008577809669077396,
        -0.27819201350212097
      ],
      "min": [
        -0.46932101249694824,
        -0.15868499875068665,
        -1.0
      ],
      "type": "VEC3"
    },
    {
      "bufferView": 2,
      "byteOffset": 183588,
      "componentType": 5126,
      "count": 14211,
      "max": [
        1.0,
        1.0,
        1.0
      ],
      "min": [
        -1.0,
        -1.0,
        -1.0
      ],
      "type": "VEC3"
    },
    {
      "bufferView": 3,
      "byteOffset": 8704,
      "componentType": 5126,
      "count": 14211,
      "max": [
        1.0,
        1.0,
        1.0,
        1.0
      ],
      "min": [
        -1.0,
        -1.0,
        -1.0,
        -1.0
      ],
      "type": "VEC4"
    },
    {
      "bufferView": 1,
      "byteOffset": 4352,
      "componentType": 5126,
      "count": 14211,
      "max": [
        0.9993159770965576,
        0.9994999766349792
      ],
      "min": [
        0.0005000000237487257,
        0.0005000000237487257
      ],
      "type": "VEC2"
    },
    {
      "bufferView": 0,
      "byteOffset": 7680,
      "componentType": 5125,
      "count": 31479,
      "type": "SCALAR"
    },
    {
      "bufferView": 2,
      "byteOffset": 354120,
      "componentType": 5126,
      "count": 14249,
      "max": [
        -0.04792090132832527,
        0.15868499875068665,
        -0.27819201350212097
      ],
      "min": [
        -0.46994999051094055,
        -0.008577859960496426,
        -1.0
      ],
      "type": "VEC3"
    },
    {
      "bufferView": 2,
      "byteOffset": 525108,
      "componentType": 5126,
      "count": 14249,
      "max": [
        1.0,
        1.0,
        1.0
      ],
      "min": [
        -1.0,
        -1.0,
        -1.0
      ],
      "type": "VEC3"
    },
    {
      "bufferView": 3,
      "byteOffset": 236080,
      "componentType": 5126,
      "count": 14249,
      "max": [
        1.0,
        1.0,
        1.0,
        1.0
      ],
      "min": [
        -1.0,
        -1.0,
        -1.0,
        -1.0
      ],
      "type": "VEC4"
    },
    {
      "bufferView": 1,
      "byteOffset": 118040,
      "componentType": 5126,
      "count": 14249,
      "max": [
        0.9993159770965576,
        0.9994999766349792
      ],
      "min": [
        0.0005000000237487257,
        0.0005000000237487257
      ],
      "type": "VEC2"
    },
    {
      "bufferView": 0,
      "byteOffset": 133596,
      "componentType": 5125,
      "count": 31488,
      "type": "SCALAR"
    },
    {
      "bufferView": 2,
      "byteOffset": 696096,
      "componentType": 5126,
      "count": 13963,
      "max": [
        0.46994999051094055,
        0.008577819913625717,
        -0.27819201350212097
      ],
      "min": [
        0.04792099818587303,
        -0.15868499875068665,
        -1.0
      ],
      "type": "VEC3"
    },
    {
      "bufferView": 2,
      "byteOffset": 863652,
      "componentType": 5126,
      "count": 13963,
      "max": [
        1.0,
        1.0,
        1.0
      ],
      "min": [
        -1.0,
        -1.0,
        -1.0
      ],
      "type": "VEC3"
    },
    {
      "bufferView": 3,
      "byteOffset": 464064,
      "componentType": 5126,
      "count": 13963,
      "max": [
        1.0,
        1.0,
        1.0,
        1.0
      ],
      "min": [
        -1.0,
        -1.0,
        -1.0,
        -1.0
      ],
      "type": "VEC4"
    },
    {
      "bufferView": 1,
      "byteOffset": 232032,
      "componentType": 5126,
      "count": 13963,
      "max": [
        0.9993159770965576,
        0.9994999766349792
      ],
      "min": [
        0.0005000000237487257,
        0.0005000000237487257
      ],
      "type": "VEC2"
    },
    {
      "bufferView": 0,
      "byteOffset": 259548,
      "componentType": 5125,
      "count": 31488,
      "type": "SCALAR"
    },
    {
      "bufferView": 2,
      "byteOffset": 1031208,
      "componentType": 5126,
      "count": 13963,
      "max": [
        0.4697679877281189,
        0.15868499875068665,
        -0.27819201350212097
      ],
      "min": [
        0.04773860052227974,
        -0.008577849715948105,
        -1.0
      ],
      "type": "VEC3"
    },
    {
      "bufferView": 2,
      "byteOffset": 1198764,
      "componentType": 5126,
      "count": 13963,
      "max": [
        1.0,
        1.0,
        1.0
      ],
      "min": [
        -1.0,
        -1.0,
        -1.0
      ],
      "type": "VEC3"
    },
    {
      "bufferView": 3,
      "byteOffset": 687472,
      "componentType": 5126,
      "count": 13963,
      "max": [
        1.0,
        1.0,
        1.0,
        1.0
      ],
      "min": [
        -1.0,
        -1.0,
        -1.0,
        1.0
      ],
      "type": "VEC4"
    },
    {
      "bufferView": 1,
      "byteOffset": 343736,
      "componentType": 5126,
      "count": 13963,
      "max": [
        0.9993159770965576,
        0.9994999766349792
      ],
      "min": [
        0.0005000000237487257,
        0.0005000000237487257
      ],
      "type": "VEC2"
    },
    {
      "bufferView": 0,
      "byteOffset": 385500,
      "componentType": 5125,
      "count": 31485,
      "type": "SCALAR"
    },
    {
      "bufferView": 2,
      "byteOffset": 1366320,
      "componentType": 5126,
      "count": 6946,
      "max": [
        0.0501164011657238,
        0.07746110111474991,
        -0.6258990168571472
      ],
      "min": [
        -0.04966050013899803,
        -0.04512539878487587,
        -0.9226899743080139
      ],
      "type": "VEC3"
    },
    {
      "bufferView": 2,
      "byteOffset": 1449672,
      "componentType": 5126,
      "count": 6946,
      "max": [
        1.0,
        1.0,
        1.0
      ],
      "min": [
        -1.0,
        -1.0,
        -1.0
      ],
      "type": "VEC3"
    },
    {
      "bufferView": 3,
      "byteOffset": 910880,
      "componentType": 5126,
      "count": 6946,
      "max": [
        1.0,
        1.0,
        1.0,
        1.0
      ],
      "min": [
        -1.0,
        -1.0,
        -1.0,
        -1.0
      ],
      "type": "VEC4"
    },
    {
      "bufferView": 1,
      "byteOffset": 455440,
      "componentType": 5126,
      "count": 6946,
      "max": [
        0.9994999766349792,
        0.9994999766349792
      ],
      "min": [
        0.0005000000237487257,
        0.0005000000237487257
      ],
      "type": "VEC2"
    },
    {
      "bufferView": 0,
      "byteOffset": 511440,
      "componentType": 5125,
      "count": 16005,
      "type": "SCALAR"
    },
    {
      "bufferView": 2,
      "byteOffset": 1533024,
      "componentType": 5126,
      "count": 7461,
      "max": [
        0.0846996009349823,
        0.08847139775753021,
        0.06843770295381546
      ],
      "min": [
        -0.08424379676580429,
        -0.09909559786319733,
        -0.9249669909477234
      ],
      "type": "VEC3"
    },
    {
      "bufferView": 2,
      "byteOffset": 1622556,
      "componentType": 5126,
      "count": 7461,
      "max": [
        1.0,
        1.0,
        1.0
      ],
      "min": [
        -1.0,
        -1.0,
        -1.0
      ],
      "type": "VEC3"
    },
    {
      "bufferView": 3,
      "byteOffset": 1022016,
      "componentType": 5126,
      "count": 7461,
      "max": [
        1.0,
        1.0,
        1.0,
        1.0
      ],
      "min": [
        -1.0,
        -1.0,
        -1.0,
        -1.0
      ],
      "type": "VEC4"
    },
    {
      "bufferView": 1,
      "byteOffset": 511008,
      "componentType": 5126,
      "count": 7461,
      "max": [
        0.9890859723091125,
        0.9994999766349792
      ],
      "min": [
        0.0005000000237487257,
        0.0005000000237487257
      ],
      "type": "VEC2"
    },
    {
      "bufferView": 0,
      "byteOffset": 575460,
      "componentType": 5125,
      "count": 14010,
      "type": "SCALAR"
    },
    {
      "bufferView": 2,
      "byteOffset": 1712088,
      "componentType": 5126,
      "count": 5789,
      "max": [
        0.020179400220513344,
        0.09636809676885605,
        -0.6032469868659973
      ],
      "min": [
        -0.020149899646639824,
        0.05667920038104057,
        -0.6409369707107544
      ],
      "type": "VEC3"
    },
    {
      "bufferView": 2,
      "byteOffset": 1781556,
      "componentType": 5126,
      "count": 5789,
      "max": [
        1.0,
        1.0,
        1.0
      ],
      "min": [
        -1.0,
        -1.0,
        -1.0
      ],
      "type": "VEC3"
    },
    {
      "bufferView": 3,
      "byteOffset": 1141392,
      "componentType": 5126,
      "count": 5789,
      "max": [
        1.0,
        1.0,
        1.0,
        1.0
      ],
      "min": [
        -1.0,
        -1.0,
        -1.0,
        -1.0
      ],
      "type": "VEC4"
    },
    {
      "bufferView": 1,
      "byteOffset": 570696,
      "componentType": 5126,
      "count": 5789,
      "max": [
        0.9994999766349792,
        0.9944519996643066
      ],
      "min": [
        0.0005000000237487257,
        0.0005000000237487257
      ],
      "type": "VEC2"
    },
    {
      "bufferView": 0,
      "byteOffset": 631500,
      "componentType": 5125,
      "count": 14853,
      "type": "SCALAR"
    }
  ],
  "asset": {
    "extras": {
      "author": "Anthony Schmidt (https://sketchfab.com/risto296)",
      "license": "CC-BY-4.0 (http://creativecommons.org/licenses/by/4.0/)",
      "source": "https://sketchfab.com/3d-models/dark-x-wing-f93f4fa8fb7f4ba19df58f5e1ce1e66c",
      "title": "Dark X-wing"
    },
    "generator": "Sketchfab-12.66.0",
    "version": "2.0"
  },
  "bufferViews": [
    {
      "buffer": 0,
      "byteLength": 690912,
      "name": "floatBufferViews",
      "target": 34963
    },
    {
      "buffer": 0,
      "byteLength": 617008,
      "byteOffset": 690912,
      "byteStride": 8,
      "name": "floatBufferViews",
      "target": 34962
    },
    {
      "buffer": 0,
      "byteLength": 1851024,
      "byteOffset": 1307920,
      "byteStride": 12,
      "name": "floatBufferViews",
      "target": 34962
    },
    {
      "buffer": 0,
      "byteLength": 1234016,
      "byteOffset": 3158944,
      "byteStride": 16,
      "name": "floatBufferViews",
      "target": 34962
    }
  ],
  "buffers": [
    {
      "byteLength": 4392960,
      "uri": "scene.bin"
    }
  ],
  "images": [
    {
      "uri": "textures/Astrodroid_baseColor.jpeg"
    },
    {
      "uri": "textures/Astrodroid_metallicRoughness.png"
    },
    {
      "uri": "textures/Astrodroid_normal.png"
    },
    {
      "uri": "textures/Body_baseColor.jpeg"
    },
    {
      "uri": "textures/Body_metallicRoughness.png"
    },
    {
      "uri": "textures/Body_normal.png"
    },
    {
      "uri": "textures/Engine_baseColor.jpeg"
    },
    {
      "uri": "textures/Engine_metallicRoughness.png"
    },
    {
      "uri": "textures/Engine_normal.png"
    },
    {
      "uri": "textures/Wing_baseColor.jpeg"
    },
    {
      "uri": "textures/Wing_metallicRoughness.png"
    },
    {
      "uri": "textures/Wing_emissive.jpeg"
    },
    {
      "uri": "textures/Wing_normal.png"
    },
    {
      "uri": "textures/Blasts_baseColor.png"
    },
    {
      "uri": "textures/Blasts_metallicRoughness.png"
    },
    {
      "uri": "textures/Blasts_normal.png"
    }
  ],
  "materials": [
    {
      "doubleSided": true,
      "name": "Astrodroid",
      "normalTexture": {
        "index": 2
      },
      "occlusionTexture": {
        "index": 1
      },
      "pbrMetallicRoughness": {
        "baseColorTexture": {
          "index": 0
        },
        "metallicRoughnessTexture": {
          "index": 1
        }
      }
    },
    {
      "doubleSided": true,
      "name": "Body",
      "normalTexture": {
        "index": 5
      },
      "occlusionTexture": {
        "index": 4
      },
      "pbrMetallicRoughness": {
        "baseColorTexture": {
          "index": 3
        },
        "metallicRoughnessTexture": {
          "index": 4
        }
      }
    },
    {
      "doubleSided": true,
      "name": "Engine",
      "normalTexture": {
        "index": 8
      },
      "occlusionTexture": {
        "index": 7
      },
      "pbrMetallicRoughness": {
        "baseColorTexture": {
          "index": 6
        },
        "metallicRoughnessTexture": {
          "index": 7
        }
      }
    },
    {
      "doubleSided": true,
      "emissiveFactor": [
        1.0,
        1.0,
        1.0
      ],
      "emissiveTexture": {
        "index": 11
      },
      "name": "Wing",
      "normalTexture": {
        "index": 12
      },
      "occlusionTexture": {
        "index": 10
      },
      "pbrMetallicRoughness": {
        "baseColorTexture": {
          "index": 9
        },
        "metallicRoughnessTexture": {
          "index": 10
        }
      }
    },
    {
      "alphaMode": "BLEND",
      "doubleSided": true,
      "name": "Blasts",
      "normalTexture": {
        "index": 15
      },
      "occlusionTexture": {
        "index": 14
      },
      "pbrMetallicRoughness": {
        "baseColorFactor": [
          1.0,
          1.0,
          1.0,
          0.0
        ],
        "baseColorTexture": {
          "index": 13
        },
        "metallicRoughnessTexture": {
          "index": 14
        }
      }
    }
  ],
  "meshes": [
    {
      "name": "defaultMaterial",
      "primitives": [
        {
          "attributes": {
            "NORMAL": 1,
            "POSITION": 0,
            "TANGENT": 2,
            "TEXCOORD_0": 3
          },
          "indices": 4,
          "material": 4,
          "mode": 4
        }
      ]
    },
    {
      "name": "defaultMaterial",
      "primitives": [
        {
          "attributes": {
            "NORMAL": 6,
            "POSITION": 5,
            "TANGENT": 7,
            "TEXCOORD_0": 8
          },
          "indices": 9,
          "material": 4,
          "mode": 4
        }
      ]
    },
    {
      "name": "defaultMaterial",
      "primitives": [
        {
          "attributes": {
            "NORMAL": 11,
            "POSITION": 10,
            "TANGENT": 12,
            "TEXCOORD_0": 13
          },
          "indices": 14,
          "material": 4,
          "mode": 4
        }
      ]
    },
    {
      "name": "defaultMaterial",
      "primitives": [
        {
          "attributes": {
            "NORMAL": 16,
            "POSITION": 15,
            "TANGENT": 17,
            "TEXCOORD_0": 18
          },
          "indices": 19,
          "material": 4,
          "mode": 4
        }
      ]
    },
    {
      "name": "defaultMaterial",
      "primitives": [
        {
          "attributes": {
            "NORMAL": 21,
            "POSITION": 20,
            "TANGENT": 22,
            "TEXCOORD_0": 23
          },
          "indices": 24,
          "material": 4,
          "mode": 4
        }
      ]
    },
    {
      "name": "defaultMaterial",
      "primitives": [
        {
          "attributes": {
            "NORMAL": 26,
            "POSITION": 25,
            "TANGENT": 27,
            "TEXCOORD_0": 28
          },
          "indices": 29,
          "material": 4,
          "mode": 4
        }
      ]
    },
    {
      "name": "defaultMaterial",
      "primitives": [
        {
          "attributes": {
            "NORMAL": 31,
            "POSITION": 30,
            "TANGENT": 32,
            "TEXCOORD_0": 33
          },
          "indices": 34,
          "material": 4,
          "mode": 4
        }
      ]
    },
    {
      "name": "defaultMaterial",
      "primitives": [
        {
          "attributes": {
            "NORMAL": 36,
            "POSITION": 35,
            "TANGENT": 37,
            "TEXCOORD_0": 38
          },
          "indices": 39,
          "material": 4,
          "mode": 4
        }
      ]
    },
    {
      "name": "defaultMaterial",
      "primitives": [
        {
          "attributes": {
            "NORMAL": 41,
            "POSITION": 40,
            "TANGENT": 42,
            "TEXCOORD_0": 43
          },
          "indices": 44,
          "material": 3,
          "mode": 4
        }
      ]
    },
    {
      "name": "defaultMaterial",
      "primitives": [
        {
          "attributes": {
            "NORMAL": 46,
            "POSITION": 45,
            "TANGENT": 47,
            "TEXCOORD_0": 48
          },
          "indices": 49,
          "material": 3,
          "mode": 4
        }
      ]
    },
    {
      "name": "defaultMaterial",
      "primitives": [
        {
          "attributes": {
            "NORMAL": 51,
            "POSITION": 50,
            "TANGENT": 52,
            "TEXCOORD_0": 53
          },
          "indices": 54,
          "material": 3,
          "mode": 4
        }
      ]
    },
    {
      "name": "defaultMaterial",
      "primitives": [
        {
          "attributes": {
            "NORMAL": 56,
            "POSITION": 55,
            "TANGENT": 57,
            "TEXCOORD_0": 58
          },
          "indices": 59,
          "material": 3,
          "mode": 4
        }
      ]
    },
    {
      "name": "defaultMaterial",
      "primitives": [
        {
          "attributes": {
            "NORMAL": 61,
            "POSITION": 60,
            "TANGENT": 62,
            "TEXCOORD_0": 63
          },
          "indices": 64,
          "material": 2,
          "mode": 4
        }
      ]
    },
    {
      "name": "defaultMaterial",
      "primitives": [
        {
          "attributes": {
            "NORMAL": 66,
            "POSITION": 65,
            "TANGENT": 67,
            "TEXCOORD_0": 68
          },
          "indices": 69,
          "material": 1,
          "mode": 4
        }
      ]
    },
    {
      "name": "defaultMaterial",
      "primitives": [
        {
          "attributes": {
            "NORMAL": 71,
            "POSITION": 70,
            "TANGENT": 72,
            "TEXCOORD_0": 73
          },
          "indices": 74,
          "material": 0,
          "mode": 4
        }
      ]
    }
  ],
  "nodes": [
    {
      "children": [
        1
      ],
      "matrix": [
        0.9864296913146973,
        0.16322661936283112,
        -0.01770841889083382,
        0.0,
        1.734723475976807e-18,
        -0.10785688459873177,
        -0.9941664338111877,
        0.0,
        -0.16418440639972687,
        0.9806752800941467,
        -0.10639323294162728,
        0.0,
        -1.7419259368267603e-09,
        -1.904498603266802e-08,
        1.7808558794296234e-10,
        1.0
      ],
      "name": "Sketchfab_model"
    },
    {
      "children": [
        2,
        4,
        6,
        8,
        10,
        12,
        14,
        16,
        18,
        20,
        22,
        24,
        26,
        28,
        30
      ],
      "matrix": [
        1.0,
        0.0,
        0.0,
        0.0,
        0.0,
        -4.371139006309477e-08,
        0.999999999999999,
        0.0,
        0.0,
        -0.999999999999999,
        -4.371139006309477e-08,
        0.0,
        0.0,
        0.0,
        0.0,
        1.0
      ],
      "name": "Collada visual scene group"
    },
    {
      "children": [
        3
      ],
      "name": "Cylinder008"
    },
    {
      "mesh": 0,
      "name": "defaultMaterial"
    },
    {
      "children": [
        5
      ],
      "name": "Cylinder007"
    },
    {
      "mesh": 1,
      "name": "defaultMaterial"
    },
    {
      "children": [
        7
      ],
      "name": "Cylinder006"
    },
    {
      "mesh": 2,
      "name": "defaultMaterial"
    },
    {
      "children": [
        9
      ],
      "name": "Cylinder005"
    },
    {
      "mesh": 3,
      "name": "defaultMaterial"
    },
    {
      "children": [
        11
      ],
      "name": "Cylinder004"
    },
    {
      "mesh": 4,
      "name": "defaultMaterial"
    },
    {
      "children": [
        13
      ],
      "name": "Cylinder003"
    },
    {
      "mesh": 5,
      "name": "defaultMaterial"
    },
    {
      "children": [
        15
      ],
      "name": "Cylinder002"
    },
    {
      "mesh": 6,
      "name": "defaultMaterial"
    },
    {
      "children": [
        17
      ],
      "name": "Cylinder001"
    },
    {
      "mesh": 7,
      "name": "defaultMaterial"
    },
    {
      "children": [
        19
      ],
      "name": "Object003"
    },
    {
      "mesh": 8,
      "name": "defaultMaterial"
    },
    {
      "children": [
        21
      ],
      "name": "Object002"
    },
    {
      "mesh": 9,
      "name": "defaultMaterial"
    },
    {
      "children": [
        23
      ],
      "name": "Object001"
    },
    {
      "mesh": 10,
      "name": "defaultMaterial"
    },
    {
      "children": [
        25
      ],
      "name": "LeftWingTop"
    },
    {
      "mesh": 11,
      "name": "defaultMaterial"
    },
    {
      "children": [
        27
      ],
      "name": "Engine"
    },
    {
      "mesh": 12,
      "name": "defaultMaterial"
    },
    {
      "children": [
        29
      ],
      "name": "Body"
    },
    {
      "mesh": 13,
      "name": "defaultMaterial"
    },
    {
      "children": [
        31
      ],
      "name": "Astrodroid"
    },
    {
      "mesh": 14,
      "name": "defaultMaterial"
    }
  ],
  "samplers": [
    {
      "magFilter": 9729,
      "minFilter": 9987,
      "wrapS": 10497,
      "wrapT": 10497
    }
  ],
  "scene": 0,
  "scenes": [
    {
      "name": "Sketchfab_Scene",
      "nodes": [
        0
      ]
    }
  ],
  "textures": [
    {
      "sampler": 0,
      "source": 0
    },
    {
      "sampler": 0,
      "source": 1
    },
    {
      "sampler": 0,
      "source": 2
    },
    {
      "sampler": 0,
      "source": 3
    },
    {
      "sampler": 0,
      "source": 4
    },
    {
      "sampler": 0,
      "source": 5
    },
    {
      "sampler": 0,
      "source": 6
    },
    {
      "sampler": 0,
      "source": 7
    },
    {
      "sampler": 0,
      "source": 8
    },
    {
      "sampler": 0,
      "source": 9
    },
    {
      "sampler": 0,
      "source": 10
    },
    {
      "sampler": 0,
      "source": 11
    },
    {
      "sampler": 0,
      "source": 12
    },
    {
      "sampler": 0,
      "source": 13
    },
    {
      "sampler": 0,
      "source": 14
    },
    {
      "sampler": 0,
      "source": 15
    }
  ]
}
