{
  "accessors": [
    {
      "bufferView": 2,
      "componentType": 5126,
      "count": 52026,
      "max": [
        4.656604766845703,
        2.519301414489746,
        2.985382080078125
      ],
      "min": [
        -4.656604766845703,
        -5.632999420166016,
        -2.9853830337524414
      ],
      "type": "VEC3"
    },
    {
      "bufferView": 2,
      "byteOffset": 624312,
      "componentType": 5126,
      "count": 52026,
      "max": [
        1.0,
        1.0,
        1.0
      ],
      "min": [
        -1.0,
        -1.0,
        -1.0
      ],
      "type": "VEC3"
    },
    {
      "bufferView": 1,
      "componentType": 5126,
      "count": 52026,
      "max": [
        20.867385864257813,
        25.343830108642578
      ],
      "min": [
        -24.499998092651367,
        -24.5
      ],
      "type": "VEC2"
    },
    {
      "bufferView": 0,
      "componentType": 5125,
      "count": 139299,
      "type": "SCALAR"
    },
    {
      "bufferView": 2,
      "byteOffset": 1248624,
      "componentType": 5126,
      "count": 31012,
      "max": [
        3.941603183746338,
        1.075994849205017,
        2.8002824783325195
      ],
      "min": [
        -3.941603183746338,
        -5.73771858215332,
        -2.800283432006836
      ],
      "type": "VEC3"
    },
    {
      "bufferView": 2,
      "byteOffset": 1620768,
      "componentType": 5126,
      "count": 31012,
      "max": [
        1.0,
        1.0,
        1.0
      ],
      "min": [
        -1.0,
        -1.0,
        -1.0
      ],
      "type": "VEC3"
    },
    {
      "bufferView": 1,
      "byteOffset": 416208,
      "componentType": 5126,
      "count": 31012,
      "max": [
        19.376493453979492,
        24.88217544555664
      ],
      "min": [
        -17.369165420532227,
        -17.54996109008789
      ],
      "type": "VEC2"
    },
    {
      "bufferView": 0,
      "byteOffset": 557196,
      "componentType": 5125,
      "count": 83466,
      "type": "SCALAR"
    },
    {
      "bufferView": 2,
      "byteOffset": 1992912,
      "componentType": 5126,
      "count": 5466,
      "max": [
        0.9344121813774109,
        1.3500292301177979,
        0.9344118237495422
      ],
      "min": [
        -0.9344127774238586,
        -1.4164910316467285,
        -1.0877636671066284
      ],
      "type": "VEC3"
    },
    {
      "bufferView": 2,
      "byteOffset": 2058504,
      "componentType": 5126,
      "count": 5466,
      "max": [
        1.0,
        1.0,
        1.0
      ],
      "min": [
        -1.0,
        -1.0,
        -1.0
      ],
      "type": "VEC3"
    },
    {
      "bufferView": 1,
      "byteOffset": 664304,
      "componentType": 5126,
      "count": 5466,
      "max": [
        19.185955047607422,
        24.213611602783203
      ],
      "min": [
        -12.668821334838867,
        -24.5
      ],
      "type": "VEC2"
    },
    {
      "bufferView": 0,
      "byteOffset": 891060,
      "componentType": 5125,
      "count": 13692,
      "type": "SCALAR"
    },
    {
      "bufferView": 2,
      "byteOffset": 2124096,
      "componentType": 5126,
      "count": 474,
      "max": [
        0.4009855091571808,
        -1.1367824077606201,
        -0.9665089845657349
      ],
      "min": [
        -0.4009855091571808,
        -1.27359938621521,
        -1.0711936950683594
      ],
      "type": "VEC3"
    },
    {
      "bufferView": 2,
      "byteOffset": 2129784,
      "componentType": 5126,
      "count": 474,
      "max": [
        0.999983012676239,
        1.0,
        1.0
      ],
      "min": [
        -0.999983012676239,
        -1.0,
        -1.0
      ],
      "type": "VEC3"
    },
    {
      "bufferView": 1,
      "byteOffset": 708032,
      "componentType": 5126,
      "count": 474,
      "max": [
        19.0239315032959,
        23.944059371948242
      ],
      "min": [
        7.370598793029785,
        -24.5
      ],
      "type": "VEC2"
    },
    {
      "bufferView": 0,
      "byteOffset": 945828,
      "componentType": 5125,
      "count": 1272,
      "type": "SCALAR"
    },
    {
      "bufferView": 2,
      "byteOffset": 2135472,
      "componentType": 5126,
      "count": 190,
      "max": [
        0.6901785135269165,
        0.7374279499053955,
        1.324920415878296
      ],
      "min": [
        -0.6901792287826538,
        -1.383866786956787,
        -0.6901795268058777
      ],
      "type": "VEC3"
    },
    {
      "bufferView": 2,
      "byteOffset": 2137752,
      "componentType": 5126,
      "count": 190,
      "max": [
        0.5974187850952148,
        0.4490310847759247,
        0.9952992796897888
      ],
      "min": [
        -0.5974191427230835,
        -1.0,
        -0.5974188446998596
      ],
      "type": "VEC3"
    },
    {
      "bufferView": 1,
      "byteOffset": 711824,
      "componentType": 5126,
      "count": 190,
      "max": [
        0.0,
        0.0
      ],
      "min": [
        0.0,
        0.0
      ],
      "type": "VEC2"
    },
    {
      "bufferView": 0,
      "byteOffset": 950916,
      "componentType": 5125,
      "count": 540,
      "type": "SCALAR"
    },
    {
      "bufferView": 2,
      "byteOffset": 2140032,
      "componentType": 5126,
      "count": 160,
      "max": [
        0.9575729370117188,
        1.1084554195404053,
        0.07138879597187042
      ],
      "min": [
        -0.9575729370117188,
        1.0906296968460083,
        -0.07138562947511673
      ],
      "type": "VEC3"
    },
    {
      "bufferView": 2,
      "byteOffset": 2141952,
      "componentType": 5126,
      "count": 160,
      "max": [
        1.0,
        1.0,
        1.0
      ],
      "min": [
        -1.0,
        0.0,
        -1.0
      ],
      "type": "VEC3"
    },
    {
      "bufferView": 1,
      "byteOffset": 713344,
      "componentType": 5126,
      "count": 160,
      "max": [
        0.7192449569702148,
        0.15194450318813324
      ],
      "min": [
        0.6970542669296265,
        0.13112126290798187
      ],
      "type": "VEC2"
    },
    {
      "bufferView": 0,
      "byteOffset": 953076,
      "componentType": 5125,
      "count": 468,
      "type": "SCALAR"
    },
    {
      "bufferView": 2,
      "byteOffset": 2143872,
      "componentType": 5126,
      "count": 367,
      "max": [
        0.920716404914856,
        0.9207186102867126,
        0.9823086857795715
      ],
      "min": [
        -0.920716404914856,
        -0.9207184314727783,
        -0.9207139611244202
      ],
      "type": "VEC3"
    },
    {
      "bufferView": 2,
      "byteOffset": 2148276,
      "componentType": 5126,
      "count": 367,
      "max": [
        1.0,
        1.0,
        1.0
      ],
      "min": [
        -1.0,
        -1.0,
        -1.0
      ],
      "type": "VEC3"
    },
    {
      "bufferView": 1,
      "byteOffset": 714624,
      "componentType": 5126,
      "count": 367,
      "max": [
        0.0,
        0.0
      ],
      "min": [
        0.0,
        0.0
      ],
      "type": "VEC2"
    },
    {
      "bufferView": 0,
      "byteOffset": 954948,
      "componentType": 5125,
      "count": 1062,
      "type": "SCALAR"
    },
    {
      "bufferView": 2,
      "byteOffset": 2152680,
      "componentType": 5126,
      "count": 352,
      "max": [
        3.4752004146575928,
        -1.403092384338379,
        1.1719847917556763
      ],
      "min": [
        -3.4752004146575928,
        -5.667568206787109,
        -1.1719855070114136
      ],
      "type": "VEC3"
    },
    {
      "bufferView": 2,
      "byteOffset": 2156904,
      "componentType": 5126,
      "count": 352,
      "max": [
        0.0,
        -1.0,
        7.358089987974381e-06
      ],
      "min": [
        0.0,
        -1.0,
        -7.358089987974381e-06
      ],
      "type": "VEC3"
    },
    {
      "bufferView": 1,
      "byteOffset": 717560,
      "componentType": 5126,
      "count": 352,
      "max": [
        0.9900000095367432,
        0.5
      ],
      "min": [
        -1.862645149230957e-07,
        0.0
      ],
      "type": "VEC2"
    },
    {
      "bufferView": 0,
      "byteOffset": 959196,
      "componentType": 5125,
      "count": 960,
      "type": "SCALAR"
    },
    {
      "bufferView": 2,
      "byteOffset": 2161128,
      "componentType": 5126,
      "count": 48726,
      "max": [
        4.6007981300354,
        2.317676305770874,
        2.8756814002990723
      ],
      "min": [
        -4.6007981300354,
        -4.512493133544922,
        -2.8756823539733887
      ],
      "type": "VEC3"
    },
    {
      "bufferView": 2,
      "byteOffset": 2745840,
      "componentType": 5126,
      "count": 48726,
      "max": [
        1.0,
        1.0,
        1.0
      ],
      "min": [
        -1.0,
        -0.7073115706443787,
        -1.0
      ],
      "type": "VEC3"
    },
    {
      "bufferView": 1,
      "byteOffset": 720376,
      "componentType": 5126,
      "count": 48726,
      "max": [
        15.511703491210938,
        15.511701583862305
      ],
      "min": [
        -14.511703491210938,
        -14.511701583862305
      ],
      "type": "VEC2"
    },
    {
      "bufferView": 0,
      "byteOffset": 963036,
      "componentType": 5125,
      "count": 73248,
      "type": "SCALAR"
    },
    {
      "bufferView": 2,
      "byteOffset": 3330552,
      "componentType": 5126,
      "count": 14492,
      "max": [
        -0.6803910136222839,
        0.15327155590057373,
        0.8683099746704102
      ],
      "min": [
        -2.5855534076690674,
        -1.7907369136810303,
        -0.9320073127746582
      ],
      "type": "VEC3"
    },
    {
      "bufferView": 2,
      "byteOffset": 3504456,
      "componentType": 5126,
      "count": 14492,
      "max": [
        1.0,
        1.0,
        1.0
      ],
      "min": [
        -1.0,
        -1.0,
        -1.0
      ],
      "type": "VEC3"
    },
    {
      "bufferView": 1,
      "byteOffset": 1110184,
      "componentType": 5126,
      "count": 14492,
      "max": [
        1.0,
        1.000001072883606
      ],
      "min": [
        -1.862645149230957e-07,
        0.0
      ],
      "type": "VEC2"
    },
    {
      "bufferView": 0,
      "byteOffset": 1256028,
      "componentType": 5125,
      "count": 34182,
      "type": "SCALAR"
    },
    {
      "bufferView": 2,
      "byteOffset": 3678360,
      "componentType": 5126,
      "count": 72,
      "max": [
        -1.4522950649261475,
        -1.3547106981277466,
        0.07974657416343689
      ],
      "min": [
        -1.8088171482086182,
        -1.4073032140731812,
        -0.12125769257545471
      ],
      "type": "VEC3"
    },
    {
      "bufferView": 2,
      "byteOffset": 3679224,
      "componentType": 5126,
      "count": 72,
      "max": [
        0.23513899743556976,
        1.0,
        0.0
      ],
      "min": [
        -0.23513859510421753,
        0.9719618558883667,
        -1.230627162840392e-06
      ],
      "type": "VEC3"
    },
    {
      "bufferView": 1,
      "byteOffset": 1226120,
      "componentType": 5126,
      "count": 72,
      "max": [
        0.0,
        0.0
      ],
      "min": [
        0.0,
        0.0
      ],
      "type": "VEC2"
    },
    {
      "bufferView": 0,
      "byteOffset": 1392756,
      "componentType": 5125,
      "count": 198,
      "type": "SCALAR"
    }
  ],
  "asset": {
    "extras": {
      "author": "Daniel (https://sketchfab.com/DanielAndersson)",
      "license": "CC-BY-4.0 (http://creativecommons.org/licenses/by/4.0/)",
      "source": "https://sketchfab.com/3d-models/star-wars-tie-interceptor-emperors-royal-guard-47222ad5bcff43fe868b65a06009e870",
      "title": "Star Wars: TIE Interceptor Emperors Royal Guard"
    },
    "generator": "Sketchfab-12.68.0",
    "version": "2.0"
  },
  "bufferViews": [
    {
      "buffer": 0,
      "byteLength": 1393548,
      "name": "floatBufferViews",
      "target": 34963
    },
    {
      "buffer": 0,
      "byteLength": 1226696,
      "byteOffset": 1393548,
      "byteStride": 8,
      "name": "floatBufferViews",
      "target": 34962
    },
    {
      "buffer": 0,
      "byteLength": 3680088,
      "byteOffset": 2620244,
      "byteStride": 12,
      "name": "floatBufferViews",
      "target": 34962
    }
  ],
  "buffers": [
    {
      "byteLength": 6300332,
      "uri": "scene.bin"
    }
  ],
  "materials": [
    {
      "doubleSided": true,
      "name": "MetalRed",
      "pbrMetallicRoughness": {
        "baseColorFactor": [
          1.0,
          0.1002182397306339,
          0.1002182397306339,
          1.0
        ],
        "roughnessFactor": 0.7070574249960476
      }
    },
    {
      "doubleSided": true,
      "name": "Metal",
      "pbrMetallicRoughness": {
        "baseColorFactor": [
          0.29114,
          0.29114,
          0.29114,
          1.0
        ],
        "roughnessFactor": 0.9077165598511474
      }
    },
    {
      "doubleSided": true,
      "name": "MetalDark",
      "pbrMetallicRoughness": {
        "baseColorFactor": [
          0.18148506936882738,
          0.18148506936882738,
          0.18148506936882738,
          1.0
        ],
        "roughnessFactor": 0.9320388792275232
      }
    },
    {
      "doubleSided": true,
      "name": "MetalOrange",
      "pbrMetallicRoughness": {
        "baseColorFactor": [
          1.0,
          0.1520271951160515,
          0.0013699005452204192,
          1.0
        ],
        "roughnessFactor": 0.9381194590716171
      }
    },
    {
      "alphaMode": "BLEND",
      "doubleSided": true,
      "name": "DarkWindow",
      "pbrMetallicRoughness": {
        "baseColorFactor": [
          0.00560467,
          0.00560467,
          0.00560467,
          0.852991341254302
        ],
        "metallicFactor": 0.0,
        "roughnessFactor": 0.9987467576888547
      }
    },
    {
      "doubleSided": true,
      "emissiveFactor": [
        1.0,
        0.0,
        0.0
      ],
      "name": "RedEngineGlow",
      "pbrMetallicRoughness": {
        "baseColorFactor": [
          0.7999999999999999,
          0.007688930000000005,
          0.013123400000000025,
          1.0
        ],
        "metallicFactor": 0.0,
        "roughnessFactor": 0.9605274450525919
      }
    },
    {
      "doubleSided": true,
      "name": "PolishedMetalDark",
      "pbrMetallicRoughness": {
        "baseColorFactor": [
          0.0286504,
          0.0286504,
          0.0286504,
          1.0
        ],
        "roughnessFactor": 0.2692556762212845
      }
    },
    {
      "doubleSided": true,
      "name": "Dark",
      "pbrMetallicRoughness": {
        "baseColorFactor": [
          0.0,
          0.0,
          0.0,
          1.0
        ],
        "metallicFactor": 0.0
      }
    },
    {
      "doubleSided": true,
      "name": "TieWIng",
      "pbrMetallicRoughness": {
        "baseColorFactor": [
          0.0168772,
          0.0168772,
          0.0168772,
          1.0
        ],
        "roughnessFactor": 0.19020813824806335
      }
    },
    {
      "doubleSided": true,
      "emissiveFactor": [
        1.0,
        0.13788497568833225,
        0.0
      ],
      "name": "BlankScreen",
      "pbrMetallicRoughness": {
        "baseColorFactor": [
          0.9866315710540895,
          0.15797820095157553,
          0.002723637318851494,
          1.0
        ],
        "metallicFactor": 0.0,
        "roughnessFactor": 0.8211145618000169
      }
    }
  ],
  "meshes": [
    {
      "name": "TIE Interceptor Emperors Royal Guard_MetalRed_0",
      "primitives": [
        {
          "attributes": {
            "NORMAL": 1,
            "POSITION": 0,
            "TEXCOORD_0": 2
          },
          "indices": 3,
          "material": 0,
          "mode": 4
        }
      ]
    },
    {
      "name": "TIE Interceptor Emperors Royal Guard_Metal_0",
      "primitives": [
        {
          "attributes": {
            "NORMAL": 5,
            "POSITION": 4,
            "TEXCOORD_0": 6
          },
          "indices": 7,
          "material": 1,
          "mode": 4
        }
      ]
    },
    {
      "name": "TIE Interceptor Emperors Royal Guard_MetalDark_0",
      "primitives": [
        {
          "attributes": {
            "NORMAL": 9,
            "POSITION": 8,
            "TEXCOORD_0": 10
          },
          "indices": 11,
          "material": 2,
          "mode": 4
        }
      ]
    },
    {
      "name": "TIE Interceptor Emperors Royal Guard_MetalOrange_0",
      "primitives": [
        {
          "attributes": {
            "NORMAL": 13,
            "POSITION": 12,
            "TEXCOORD_0": 14
          },
          "indices": 15,
          "material": 3,
          "mode": 4
        }
      ]
    },
    {
      "name": "TIE Interceptor Emperors Royal Guard_DarkWindow_0",
      "primitives": [
        {
          "attributes": {
            "NORMAL": 17,
            "POSITION": 16,
            "TEXCOORD_0": 18
          },
          "indices": 19,
          "material": 4,
          "mode": 4
        }
      ]
    },
    {
      "name": "TIE Interceptor Emperors Royal Guard_RedEngineGlow_0",
      "primitives": [
        {
          "attributes": {
            "NORMAL": 21,
            "POSITION": 20,
            "TEXCOORD_0": 22
          },
          "indices": 23,
          "material": 5,
          "mode": 4
        }
      ]
    },
    {
      "name": "TIE Interceptor Emperors Royal Guard_PolishedMetalDark_0",
      "primitives": [
        {
          "attributes": {
            "NORMAL": 25,
            "POSITION": 24,
            "TEXCOORD_0": 26
          },
          "indices": 27,
          "material": 6,
          "mode": 4
        }
      ]
    },
    {
      "name": "TIE Interceptor Emperors Royal Guard_Dark_0",
      "primitives": [
        {
          "attributes": {
            "NORMAL": 29,
            "POSITION": 28,
            "TEXCOORD_0": 30
          },
          "indices": 31,
          "material": 7,
          "mode": 4
        }
      ]
    },
    {
      "name": "TIE Interceptor Emperors Royal Guard_TieWIng_0",
      "primitives": [
        {
          "attributes": {
            "NORMAL": 33,
            "POSITION": 32,
            "TEXCOORD_0": 34
          },
          "indices": 35,
          "material": 8,
          "mode": 4
        }
      ]
    },
    {
      "name": "Interior_PolishedMetalDark_0",
      "primitives": [
        {
          "attributes": {
            "NORMAL": 37,
            "POSITION": 36,
            "TEXCOORD_0": 38
          },
          "indices": 39,
          "material": 6,
          "mode": 4
        }
      ]
    },
    {
      "name": "Interior_BlankScreen_0",
      "primitives": [
        {
          "attributes": {
            "NORMAL": 41,
            "POSITION": 40,
            "TEXCOORD_0": 42
          },
          "indices": 43,
          "material": 9,
          "mode": 4
        }
      ]
    }
  ],
  "nodes": [
    {
      "children": [
        1
      ],
      "matrix": [
        1.0,
        0.0,
        0.0,
        0.0,
        0.0,
        2.220446049250313e-16,
        -1.0,
        0.0,
        0.0,
        1.0,
        2.220446049250313e-16,
        0.0,
        0.0,
        0.0,
        0.0,
        1.0
      ],
      "name": "Sketchfab_model"
    },
    {
      "children": [
        2
      ],
      "matrix": [
        0.009999999776482582,
        0.0,
        0.0,
        0.0,
        0.0,
        0.0,
        0.009999999776482582,
        0.0,
        0.0,
        -0.009999999776482582,
        0.0,
        0.0,
        0.0,
        0.0,
        0.0,
        1.0
      ],
      "name": "d67d17b0ce95446393f730827ed83137.fbx"
    },
    {
      "children": [
        3
      ],
      "name": "RootNode"
    },
    {
      "children": [
        4,
        5,
        6,
        7,
        8,
        9,
        10,
        11,
        12,
        13
      ],
      "matrix": [
        100.0,
        0.0,
        0.0,
        0.0,
        0.0,
        -1.629206793918314e-05,
        -99.99999999999868,
        0.0,
        0.0,
        99.99999999999868,
        -1.629206793918314e-05,
        0.0,
        0.0,
        3.997120074927807e-05,
        0.0,
        1.0
      ],
      "name": "TIE Interceptor Emperors Royal Guard"
    },
    {
      "mesh": 0,
      "name": "TIE Interceptor Emperors Royal Guard_MetalRed_0"
    },
    {
      "mesh": 1,
      "name": "TIE Interceptor Emperors Royal Guard_Metal_0"
    },
    {
      "mesh": 2,
      "name": "TIE Interceptor Emperors Royal Guard_MetalDark_0"
    },
    {
      "mesh": 3,
      "name": "TIE Interceptor Emperors Royal Guard_MetalOrange_0"
    },
    {
      "mesh": 4,
      "name": "TIE Interceptor Emperors Royal Guard_DarkWindow_0"
    },
    {
      "mesh": 5,
      "name": "TIE Interceptor Emperors Royal Guard_RedEngineGlow_0"
    },
    {
      "mesh": 6,
      "name": "TIE Interceptor Emperors Royal Guard_PolishedMetalDark_0"
    },
    {
      "mesh": 7,
      "name": "TIE Interceptor Emperors Royal Guard_Dark_0"
    },
    {
      "mesh": 8,
      "name": "TIE Interceptor Emperors Royal Guard_TieWIng_0"
    },
    {
      "children": [
        14,
        15
      ],
      "matrix": [
        1.0,
        0.0,
        0.0,
        0.0,
        0.0,
        1.0,
        -2.646977960169688e-23,
        0.0,
        0.0,
        2.646977960169688e-23,
        1.0,
        0.0,
        1.6305574178695679,
        0.8142405152320862,
        -3.997120074927807e-07,
        1.0
      ],
      "name": "Interior"
    },
    {
      "mesh": 9,
      "name": "Interior_PolishedMetalDark_0"
    },
    {
      "mesh": 10,
      "name": "Interior_BlankScreen_0"
    }
  ],
  "scene": 0,
  "scenes": [
    {
      "name": "Sketchfab_Scene",
      "nodes": [
        0
      ]
    }
  ]
}
