{
  "accessors": [
    {
      "bufferView": 3,
      "componentType": 5126,
      "count": 2350,
      "max": [
        0.3146373927593231,
        1.871476411819458,
        0.2475878894329071
      ],
      "min": [
        -0.32746997475624084,
        0.0033973753452301025,
        -0.31879690289497375
      ],
      "type": "VEC3"
    },
    {
      "bufferView": 3,
      "byteOffset": 28200,
      "componentType": 5126,
      "count": 2350,
      "max": [
        0.9998347759246826,
        0.9999849200248718,
        0.9998347759246826
      ],
      "min": [
        -0.999913215637207,
        -0.9997991919517517,
        -0.999913215637207
      ],
      "type": "VEC3"
    },
    {
      "bufferView": 2,
      "componentType": 5126,
      "count": 2350,
      "max": [
        0.999078094959259,
        1.0049651861190796
      ],
      "min": [
        0.0031777203548699617,
        0.0007247638422995806
      ],
      "type": "VEC2"
    },
    {
      "bufferView": 1,
      "componentType": 5125,
      "count": 10503,
      "type": "SCALAR"
    },
    {
      "bufferView": 3,
      "byteOffset": 56400,
      "componentType": 5126,
      "count": 2201,
      "max": [
        0.8008496165275574,
        1.5259373188018799,
        0.24758309125900269
      ],
      "min": [
        -0.8008291125297546,
        0.000522315502166748,
        -0.31878453493118286
      ],
      "type": "VEC3"
    },
    {
      "bufferView": 3,
      "byteOffset": 82812,
      "componentType": 5126,
      "count": 2201,
      "max": [
        0.9992769360542297,
        0.9999873042106628,
        0.9992769360542297
      ],
      "min": [
        -0.9999350905418396,
        -0.9999286532402039,
        -0.9999937415122986
      ],
      "type": "VEC3"
    },
    {
      "bufferView": 2,
      "byteOffset": 18800,
      "componentType": 5126,
      "count": 2201,
      "max": [
        0.9971311092376709,
        0.9961576461791992
      ],
      "min": [
        0.00415716040879488,
        0.0012366485316306353
      ],
      "type": "VEC2"
    },
    {
      "bufferView": 1,
      "byteOffset": 42012,
      "componentType": 5125,
      "count": 10020,
      "type": "SCALAR"
    },
    {
      "bufferView": 3,
      "byteOffset": 109224,
      "componentType": 5126,
      "count": 278,
      "max": [
        0.6495444178581238,
        1.545078158378601,
        0.07704123854637146
      ],
      "min": [
        0.5886356234550476,
        1.2161403894424438,
        0.026341620832681656
      ],
      "type": "VEC3"
    },
    {
      "bufferView": 3,
      "byteOffset": 112560,
      "componentType": 5126,
      "count": 278,
      "max": [
        0.9999923706054688,
        0.999984622001648,
        0.9999923706054688
      ],
      "min": [
        -0.9999922513961792,
        -0.999984622001648,
        -0.9999922513961792
      ],
      "type": "VEC3"
    },
    {
      "bufferView": 2,
      "byteOffset": 36408,
      "componentType": 5126,
      "count": 278,
      "max": [
        0.7810490131378174,
        0.9963386654853821
      ],
      "min": [
        0.29953068494796753,
        0.013118595816195011
      ],
      "type": "VEC2"
    },
    {
      "bufferView": 1,
      "byteOffset": 82092,
      "componentType": 5125,
      "count": 642,
      "type": "SCALAR"
    },
    {
      "bufferView": 5,
      "componentType": 5126,
      "count": 91,
      "max": [
        1.0,
        1.000000238418579,
        1.034638524055481,
        0.0,
        1.0,
        1.0000004768371582,
        0.9275792837142944,
        0.0,
        0.9999998807907104,
        1.0,
        1.0,
        0.0,
        1.227176308631897,
        1.7289042472839355,
        1.399567723274231,
        1.0
      ],
      "min": [
        -0.9259828329086304,
        -0.9915186762809753,
        -1.0000003576278687,
        0.0,
        -1.0,
        -1.0,
        -0.9275795221328735,
        0.0,
        -0.41203296184539795,
        -0.9984673261642456,
        -1.0000003576278687,
        0.0,
        -1.5897597074508667,
        -1.728904366493225,
        -1.3995676040649414,
        1.0
      ],
      "type": "MAT4"
    },
    {
      "bufferView": 0,
      "componentType": 5123,
      "count": 2350,
      "type": "VEC4"
    },
    {
      "bufferView": 4,
      "componentType": 5126,
      "count": 2350,
      "max": [
        1.0,
        0.4838709533214569,
        0.3225806653499603,
        0.22580644488334656
      ],
      "min": [
        0.25806450843811035,
        0.0,
        0.0,
        0.0
      ],
      "type": "VEC4"
    },
    {
      "bufferView": 0,
      "byteOffset": 18800,
      "componentType": 5123,
      "count": 2201,
      "type": "VEC4"
    },
    {
      "bufferView": 4,
      "byteOffset": 37600,
      "componentType": 5126,
      "count": 2201,
      "max": [
        1.0,
        0.4838709533214569,
        0.3225806653499603,
        0.22580644488334656
      ],
      "min": [
        0.25806450843811035,
        0.0,
        0.0,
        0.0
      ],
      "type": "VEC4"
    },
    {
      "bufferView": 0,
      "byteOffset": 36408,
      "componentType": 5123,
      "count": 278,
      "type": "VEC4"
    },
    {
      "bufferView": 4,
      "byteOffset": 72816,
      "componentType": 5126,
      "count": 278,
      "max": [
        1.0,
        0.0,
        0.0,
        0.0
      ],
      "min": [
        1.0,
        0.0,
        0.0,
        0.0
      ],
      "type": "VEC4"
    }
  ],
  "asset": {
    "extras": {
      "author": "luigielgamerprotasoepiclol (https://sketchfab.com/luigielgamerprotasoepiclol)",
      "license": "CC-BY-4.0 (http://creativecommons.org/licenses/by/4.0/)",
      "source": "https://sketchfab.com/3d-models/obi-wan-rig-3bf4cccf792a4d8b88fd5cd14e989f64",
      "title": "Obi Wan rig"
    },
    "generator": "Sketchfab-14.97.0",
    "version": "2.0"
  },
  "bufferViews": [
    {
      "buffer": 0,
      "byteLength": 38632,
      "byteStride": 8,
      "name": "shortBufferViews",
      "target": 34962
    },
    {
      "buffer": 0,
      "byteLength": 84660,
      "byteOffset": 38632,
      "name": "floatBufferViews",
      "target": 34963
    },
    {
      "buffer": 0,
      "byteLength": 38632,
      "byteOffset": 123292,
      "byteStride": 8,
      "name": "floatBufferViews",
      "target": 34962
    },
    {
      "buffer": 0,
      "byteLength": 115896,
      "byteOffset": 161924,
      "byteStride": 12,
      "name": "floatBufferViews",
      "target": 34962
    },
    {
      "buffer": 0,
      "byteLength": 77264,
      "byteOffset": 277820,
      "byteStride": 16,
      "name": "floatBufferViews",
      "target": 34962
    },
    {
      "buffer": 0,
      "byteLength": 5824,
      "byteOffset": 355084,
      "name": "floatBufferViews"
    }
  ],
  "buffers": [
    {
      "byteLength": 360908,
      "uri": "scene.bin"
    }
  ],
  "images": [
    {
      "uri": "textures/high_ObiwanKenobi_baseColor.png"
    },
    {
      "uri": "textures/high_ObiwanKenobi_wp_baseColor.png"
    }
  ],
  "materials": [
    {
      "doubleSided": true,
      "name": "high_ObiwanKenobi",
      "pbrMetallicRoughness": {
        "baseColorTexture": {
          "index": 0
        },
        "metallicFactor": 0.0,
        "roughnessFactor": 0.9577051494623774
      }
    },
    {
      "doubleSided": true,
      "name": "high_ObiwanKenobi_wp",
      "pbrMetallicRoughness": {
        "baseColorTexture": {
          "index": 1
        },
        "metallicFactor": 0.0,
        "roughnessFactor": 0.9577051494623774
      }
    }
  ],
  "meshes": [
    {
      "name": "high_ObiwanKenob_high_ObiwanKenobi_0",
      "primitives": [
        {
          "attributes": {
            "JOINTS_0": 13,
            "NORMAL": 1,
            "POSITION": 0,
            "TEXCOORD_0": 2,
            "WEIGHTS_0": 14
          },
          "indices": 3,
          "material": 0,
          "mode": 4
        }
      ]
    },
    {
      "name": "high_ObiwanKenobi_wp_high_ObiwanKenobi_wp_0",
      "primitives": [
        {
          "attributes": {
            "JOINTS_0": 15,
            "NORMAL": 5,
            "POSITION": 4,
            "TEXCOORD_0": 6,
            "WEIGHTS_0": 16
          },
          "indices": 7,
          "material": 1,
          "mode": 4
        }
      ]
    },
    {
      "name": "high_ObiwanKenobi_wp1_high_ObiwanKenobi_wp_0",
      "primitives": [
        {
          "attributes": {
            "JOINTS_0": 17,
            "NORMAL": 9,
            "POSITION": 8,
            "TEXCOORD_0": 10,
            "WEIGHTS_0": 18
          },
          "indices": 11,
          "material": 1,
          "mode": 4
        }
      ]
    }
  ],
  "nodes": [
    {
      "children": [
        1
      ],
      "matrix": [
        1.0,
        0.0,
        0.0,
        0.0,
        0.0,
        2.220446049250313e-16,
        -1.0,
        0.0,
        0.0,
        1.0,
        2.220446049250313e-16,
        0.0,
        0.0,
        0.0,
        0.0,
        1.0
      ],
      "name": "Sketchfab_model"
    },
    {
      "children": [
        2
      ],
      "matrix": [
        0.009999999776482582,
        0.0,
        0.0,
        0.0,
        0.0,
        0.0,
        0.009999999776482582,
        0.0,
        0.0,
        -0.009999999776482582,
        0.0,
        0.0,
        0.0,
        0.0,
        0.0,
        1.0
      ],
      "name": "leader_ObiwanKenobi.fbx"
    },
    {
      "children": [
        3
      ],
      "name": "RootNode"
    },
    {
      "children": [
        4
      ],
      "name": "leader_ObiwanKenobi"
    },
    {
      "children": [
        5
      ],
      "name": "CharRoot"
    },
    {
      "children": [
        6,
        8,
        10,
        12,
        7,
        9,
        11
      ],
      "name": "Object_5"
    },
    {
      "children": [
        13
      ],
      "name": "_rootJoint"
    },
    {
      "matrix": [
        1.0,
        -2.117582368135751e-22,
        0.0,
        0.0,
        1.2966452345341595e-38,
        6.123233995736765e-17,
        -0.9999999999999999,
        0.0,
        2.1175823681357513e-22,
        1.0000000000000002,
        6.123233995736767e-17,
        0.0,
        2.117582368135751e-22,
        -2.220446049250313e-16,
        -6.938893903907228e-18,
        1.0
      ],
      "name": "Object_7"
    },
    {
      "mesh": 0,
      "name": "Object_8",
      "skin": 0
    },
    {
      "matrix": [
        1.0,
        0.0,
        0.0,
        0.0,
        0.0,
        6.123233995736766e-17,
        -1.0,
        0.0,
        0.0,
        1.0,
        6.123233995736766e-17,
        0.0,
        1.6543612251060553e-24,
        0.0,
        8.673617379884035e-19,
        1.0
      ],
      "name": "Object_9"
    },
    {
      "mesh": 1,
      "name": "Object_10",
      "skin": 0
    },
    {
      "matrix": [
        1.0,
        -3.3695707784541285e-30,
        0.0,
        0.0,
        2.0632670341671517e-46,
        6.123233995736766e-17,
        -1.0,
        0.0,
        3.3695707784541285e-30,
        1.0,
        6.123233995736766e-17,
        0.0,
        0.6190900206565858,
        1.3806092739105225,
        0.05169143155217171,
        1.0
      ],
      "name": "Object_11"
    },
    {
      "mesh": 2,
      "name": "Object_12",
      "skin": 0
    },
    {
      "children": [
        14
      ],
      "name": "Bip001_02",
      "rotation": [
        0.42253533005714417,
        0.5669777989387512,
        0.5669777989387512,
        -0.4225354492664337
      ],
      "translation": [
        2.38418573772492e-09,
        0.9638378024101257,
        -0.04510234668850899
      ]
    },
    {
      "children": [
        15,
        19,
        23,
        91,
        94,
        97,
        100
      ],
      "name": "Bip001 Pelvis_03",
      "rotation": [
        -0.49999964237213135,
        -0.5000003576278687,
        -0.49999964237213135,
        0.5000003576278687
      ],
      "scale": [
        1.0,
        0.9999999403953552,
        0.9999999403953552
      ]
    },
    {
      "children": [
        16
      ],
      "name": "Bip001 L Thigh_04",
      "rotation": [
        0.05237874388694763,
        0.986992359161377,
        0.1143302321434021,
        -0.1001555472612381
      ],
      "scale": [
        1.0000001192092896,
        1.0,
        0.9999999403953552
      ],
      "translation": [
        -1.5258788721439487e-07,
        1.9192695788206038e-07,
        0.10712055116891861
      ]
    },
    {
      "children": [
        17
      ],
      "name": "Bip001 L Calf_05",
      "rotation": [
        3.774741852424768e-09,
        -3.037629525692864e-08,
        -0.10638558864593506,
        0.9943250417709351
      ],
      "scale": [
        0.9999999403953552,
        1.0,
        1.0
      ],
      "translation": [
        0.4624190330505371,
        2.38418573772492e-09,
        -1.907348590179936e-08
      ]
    },
    {
      "children": [
        18
      ],
      "name": "Bip001 L Foot_06",
      "rotation": [
        0.0008952589705586433,
        -0.09331697970628738,
        0.04166393354535103,
        0.9947639107704163
      ],
      "scale": [
        0.9999999403953552,
        1.0,
        1.0
      ],
      "translation": [
        0.4020388424396515,
        3.469446951953614e-18,
        0.0
      ]
    },
    {
      "name": "Bip001 L Toe0_07",
      "rotation": [
        2.1550394535552186e-07,
        2.1549992368363746e-07,
        0.7071068286895752,
        0.7071068286895752
      ],
      "scale": [
        1.0,
        0.9999999403953552,
        1.0
      ],
      "translation": [
        0.11850783228874207,
        0.12940047681331635,
        -5.551115123125783e-17
      ]
    },
    {
      "children": [
        20
      ],
      "name": "Bip001 R Thigh_08",
      "rotation": [
        0.015012450516223907,
        0.9658347964286804,
        -0.24565178155899048,
        0.08119839429855347
      ],
      "scale": [
        1.0000001192092896,
        1.0,
        0.9999999403953552
      ],
      "translation": [
        1.5258788721439487e-07,
        -1.0609626599489275e-07,
        -0.10712055116891861
      ]
    },
    {
      "children": [
        21
      ],
      "name": "Bip001 R Calf_09",
      "rotation": [
        -2.3964638273810124e-08,
        3.4688365513346753e-09,
        -0.14325515925884247,
        0.9896857738494873
      ],
      "scale": [
        1.0000001192092896,
        1.0,
        1.0
      ],
      "translation": [
        0.46241918206214905,
        1.19209286886246e-09,
        -5.551115123125783e-17
      ]
    },
    {
      "children": [
        22
      ],
      "name": "Bip001 R Foot_010",
      "rotation": [
        0.05280978977680206,
        0.08102381974458694,
        0.10357795655727386,
        0.9899080395698547
      ],
      "scale": [
        0.9999998807907104,
        1.0000001192092896,
        1.0
      ],
      "translation": [
        0.4020387828350067,
        4.163336342344337e-17,
        1.907348590179936e-08
      ]
    },
    {
      "name": "Bip001 R Toe0_011",
      "rotation": [
        -2.928029800841614e-07,
        4.4371589069669426e-08,
        0.7071071863174438,
        0.7071064114570618
      ],
      "scale": [
        1.0,
        0.9999999403953552,
        1.0
      ],
      "translation": [
        0.11850783228874207,
        0.12940044701099396,
        -5.551115123125783e-17
      ]
    },
    {
      "children": [
        24
      ],
      "name": "Bip001 Spine_012",
      "rotation": [
        -0.08884994685649872,
        -0.010146190412342548,
        -0.02039020135998726,
        0.9957846999168396
      ],
      "scale": [
        1.0,
        1.0,
        0.9999999403953552
      ],
      "translation": [
        0.10538825392723083,
        -9.778201638255268e-05,
        1.4277495097303472e-07
      ]
    },
    {
      "children": [
        25,
        43,
        61,
        90
      ],
      "name": "Bip001 Spine1_013",
      "rotation": [
        -0.0654437467455864,
        0.009950618259608746,
        0.0368407778441906,
        0.9971262812614441
      ],
      "translation": [
        0.17167960107326508,
        -0.00019944786617998034,
        -5.531910485245817e-10
      ]
    },
    {
      "children": [
        26
      ],
      "name": "Bip001 L Clavicle_014",
      "rotation": [
        0.5853654742240906,
        -0.10980726778507233,
        0.7993122339248657,
        -0.07993622124195099
      ],
      "scale": [
        1.0000001192092896,
        0.9999999403953552,
        0.9999998807907104
      ],
      "translation": [
        0.22984252870082855,
        -0.029983531683683395,
        0.05394216999411583
      ]
    },
    {
      "children": [
        27,
        42
      ],
      "name": "Bip001 L UpperArm_015",
      "rotation": [
        0.31139084696769714,
        0.37346988916397095,
        -0.07368934154510498,
        0.8707042336463928
      ],
      "scale": [
        1.0000001192092896,
        1.0000001192092896,
        0.9999999403953552
      ],
      "translation": [
        0.15670673549175262,
        4.76837147544984e-09,
        3.0517577442878974e-07
      ]
    },
    {
      "children": [
        28,
        31
      ],
      "name": "Bip001 L Forearm_016",
      "rotation": [
        3.32821556980889e-08,
        -5.240269373985029e-08,
        -0.19963662326335907,
        0.9798700213432312
      ],
      "scale": [
        1.0000001192092896,
        1.0000001192092896,
        1.0
      ],
      "translation": [
        0.24957415461540222,
        1.1102230246251565e-16,
        0.0
      ]
    },
    {
      "children": [
        29
      ],
      "name": "Bip001 L Forearm Sub_017",
      "rotation": [
        -2.3541367966117832e-08,
        1.5943195208478755e-08,
        -0.04361916705965996,
        0.9990482330322266
      ],
      "scale": [
        1.0000003576278687,
        1.000000238418579,
        1.000000238418579
      ],
      "translation": [
        -7.629394360719743e-08,
        -1.907348590179936e-08,
        -1.5258788721439487e-07
      ]
    },
    {
      "children": [
        30
      ],
      "name": "Bone_L_sleeve01_018",
      "rotation": [
        0.2729644775390625,
        0.26103270053863525,
        0.013153345324099064,
        0.925839900970459
      ],
      "scale": [
        0.8882771730422974,
        0.6617811322212219,
        0.8882768154144287
      ],
      "translation": [
        0.24048934876918793,
        1.907348590179936e-08,
        1.5258788721439487e-07
      ]
    },
    {
      "name": "Bone_L_sleeve02_019",
      "rotation": [
        -0.0028396619018167257,
        -0.05597668141126633,
        -0.0052398983389139175,
        0.9984143972396851
      ],
      "scale": [
        1.0000230073928833,
        0.9999743103981018,
        1.0000239610671997
      ],
      "translation": [
        0.21886764466762543,
        -1.1102230246251565e-16,
        -7.629394360719743e-08
      ]
    },
    {
      "children": [
        32,
        34,
        36,
        38,
        40
      ],
      "name": "Bip001 L Hand_020",
      "rotation": [
        -0.8565493822097778,
        0.03470393642783165,
        -0.023032864555716515,
        0.514381468296051
      ],
      "scale": [
        1.0000001192092896,
        1.0000003576278687,
        0.9999999403953552
      ],
      "translation": [
        0.24048930406570435,
        -5.551115123125783e-17,
        -1.5258788721439487e-07
      ]
    },
    {
      "children": [
        33
      ],
      "name": "Bip001 L Finger0_021",
      "rotation": [
        0.7088375687599182,
        0.18513889610767365,
        -0.11048495024442673,
        0.6716144680976868
      ],
      "scale": [
        1.0000001192092896,
        1.000000238418579,
        0.9999997615814209
      ],
      "translation": [
        0.010970840230584145,
        0.020101165398955345,
        -0.04434360936284065
      ]
    },
    {
      "name": "Bip001 L Finger01_022",
      "rotation": [
        1.0552563267651749e-08,
        1.881588929109057e-08,
        0.2928183972835541,
        0.9561681747436523
      ],
      "scale": [
        1.0,
        0.9999998807907104,
        1.0
      ],
      "translation": [
        0.049799613654613495,
        0.0,
        -1.5258788721439487e-07
      ]
    },
    {
      "children": [
        35
      ],
      "name": "Bip001 L Finger1_023",
      "rotation": [
        0.050401631742715836,
        0.012895332649350166,
        0.09204767644405365,
        0.9943946003913879
      ],
      "scale": [
        1.0000001192092896,
        1.0000001192092896,
        1.0
      ],
      "translation": [
        0.07765689492225647,
        -0.019424743950366974,
        -0.0368330292403698
      ]
    },
    {
      "name": "Bip001 L Finger11_024",
      "rotation": [
        1.2798506254796393e-08,
        -4.075495052546785e-09,
        0.27608636021614075,
        0.961132824420929
      ],
      "scale": [
        1.0000001192092896,
        1.0000001192092896,
        1.0
      ],
      "translation": [
        0.04958045855164528,
        -1.5258788721439487e-07,
        1.907348590179936e-08
      ]
    },
    {
      "children": [
        37
      ],
      "name": "Bip001 L Finger2_025",
      "rotation": [
        -0.002672685543075204,
        0.0173550546169281,
        0.13049936294555664,
        0.9912928938865662
      ],
      "scale": [
        1.0000001192092896,
        1.0,
        1.0000001192092896
      ],
      "translation": [
        0.07854267209768295,
        -0.025790251791477203,
        -0.0075667379423975945
      ]
    },
    {
      "name": "Bip001 L Finger21_026",
      "rotation": [
        7.845243898962906e-10,
        2.354774686352812e-08,
        0.2844632863998413,
        0.9586869478225708
      ],
      "scale": [
        0.9999999403953552,
        0.9999998807907104,
        1.0
      ],
      "translation": [
        0.05924270674586296,
        -1.5258788721439487e-07,
        0.0
      ]
    },
    {
      "children": [
        39
      ],
      "name": "Bip001 L Finger3_027",
      "rotation": [
        -0.08206912130117416,
        0.014469831250607967,
        0.15390853583812714,
        0.9845646023750305
      ],
      "scale": [
        1.0000001192092896,
        1.0,
        1.0
      ],
      "translation": [
        0.07825961709022522,
        -0.024620970711112022,
        0.018512772396206856
      ]
    },
    {
      "name": "Bip001 L Finger31_028",
      "rotation": [
        -1.2779453939515406e-08,
        1.0688382623413872e-08,
        0.3991774618625641,
        0.9168736934661865
      ],
      "scale": [
        1.0,
        0.9999998807907104,
        0.9999999403953552
      ],
      "translation": [
        0.05121807008981705,
        1.5258788721439487e-07,
        -9.53674295089968e-09
      ]
    },
    {
      "children": [
        41
      ],
      "name": "Bip001 L Finger4_029",
      "rotation": [
        -0.07598841935396194,
        0.018964961171150208,
        0.16213686764240265,
        0.9836552739143372
      ],
      "scale": [
        1.0,
        1.0,
        0.9999999403953552
      ],
      "translation": [
        0.07782287150621414,
        -0.01508407574146986,
        0.04115518555045128
      ]
    },
    {
      "name": "Bip001 L Finger41_030",
      "rotation": [
        -1.0463724109399664e-08,
        -1.2964043172303263e-08,
        0.41511818766593933,
        0.9097675085067749
      ],
      "scale": [
        1.0000001192092896,
        1.0,
        1.0000001192092896
      ],
      "translation": [
        0.038648031651973724,
        0.0,
        -9.53674295089968e-09
      ]
    },
    {
      "name": "Bone_UpperTwist_L_031",
      "rotation": [
        -0.3483584225177765,
        -6.856502068330883e-07,
        -7.99470640799882e-08,
        0.9373614192008972
      ],
      "scale": [
        1.0000003576278687,
        1.0,
        1.0000004768371582
      ],
      "translation": [
        1.5258788721439487e-07,
        -5.7220457705398076e-08,
        -3.0517577442878974e-07
      ]
    },
    {
      "children": [
        44
      ],
      "name": "Bip001 Neck_032",
      "rotation": [
        0.13875439763069153,
        -0.030841562896966934,
        0.141265869140625,
        0.9797142148017883
      ],
      "translation": [
        0.31323379278182983,
        -0.019212203100323677,
        -4.915386853099335e-08
      ]
    },
    {
      "children": [
        45,
        46,
        47,
        48,
        49,
        50,
        51,
        52,
        53,
        54,
        55,
        56,
        57,
        59,
        60
      ],
      "name": "Bip001 Head_033",
      "rotation": [
        0.13026970624923706,
        -0.008256286382675171,
        -0.038288265466690063,
        0.9907045960426331
      ],
      "scale": [
        1.0000001192092896,
        1.0000001192092896,
        1.0
      ],
      "translation": [
        0.04246017336845398,
        0.005484199617058039,
        -2.665037746041321e-09
      ]
    },
    {
      "name": "CheekLBone_034",
      "rotation": [
        0.061627939343452454,
        -0.06162754446268082,
        0.7044145464897156,
        0.7044176459312439
      ],
      "scale": [
        1.0000001192092896,
        0.9999998211860657,
        0.9999997019767761
      ],
      "translation": [
        0.09751344472169876,
        0.08784468472003937,
        0.04884048178792
      ]
    },
    {
      "name": "CheekRBone_035",
      "rotation": [
        0.7044179439544678,
        0.7044144868850708,
        -0.06162701174616814,
        0.06162596493959427
      ],
      "scale": [
        1.0,
        0.9999997019767761,
        0.9999995231628418
      ],
      "translation": [
        0.09751436114311218,
        0.0878448337316513,
        -0.048837583512067795
      ]
    },
    {
      "name": "EyeBrowLBone01_036",
      "rotation": [
        0.15951773524284363,
        -0.006571454927325249,
        0.7155075073242188,
        0.6801176071166992
      ],
      "scale": [
        0.9999998807907104,
        0.9999995827674866,
        0.9999998211860657
      ],
      "translation": [
        0.15234361588954926,
        0.10611852258443832,
        0.024686431512236595
      ]
    },
    {
      "name": "EyeBrowLBone02_037",
      "rotation": [
        0.12896448373794556,
        -0.2931363582611084,
        0.6434837579727173,
        0.6952466368675232
      ],
      "scale": [
        0.9999999403953552,
        1.0000005960464478,
        1.0000001192092896
      ],
      "translation": [
        0.15128874778747559,
        0.09524256736040115,
        0.04821411147713661
      ]
    },
    {
      "name": "EyeBrowRBone01_038",
      "rotation": [
        -0.1595163345336914,
        0.006570788566023111,
        0.715507447719574,
        0.6801179647445679
      ],
      "scale": [
        1.0000003576278687,
        0.9999998807907104,
        0.9999997615814209
      ],
      "translation": [
        0.15234383940696716,
        0.10611855983734131,
        -0.02468978799879551
      ]
    },
    {
      "name": "EyeBrowRBone02_039",
      "rotation": [
        -0.1289636492729187,
        0.29313504695892334,
        0.6434832811355591,
        0.6952477693557739
      ],
      "scale": [
        1.0,
        0.9999997615814209,
        0.9999995827674866
      ],
      "translation": [
        0.15128891170024872,
        0.0952427089214325,
        -0.048209838569164276
      ]
    },
    {
      "name": "EyeLidLBone_040",
      "rotation": [
        0.7573381662368774,
        0.6530228853225708,
        7.156011179176858e-07,
        -2.6538708652878995e-07
      ],
      "scale": [
        1.000000238418579,
        0.9999999403953552,
        0.9999999403953552
      ],
      "translation": [
        0.13467064499855042,
        0.08791713416576385,
        0.03962008282542229
      ]
    },
    {
      "name": "EyeLidRBone_041",
      "rotation": [
        0.7573382258415222,
        0.653022825717926,
        5.04228523823258e-07,
        -4.347763535861304e-07
      ],
      "scale": [
        1.0000001192092896,
        0.9999999403953552,
        1.000000238418579
      ],
      "translation": [
        0.13467074930667877,
        0.08791720122098923,
        -0.03961761295795441
      ]
    },
    {
      "name": "L_eyeBone_042",
      "rotation": [
        0.7566866278648376,
        0.6535452008247375,
        0.014153466559946537,
        -0.0101848803460598
      ],
      "scale": [
        1.000000238418579,
        0.9999999403953552,
        0.9999999403953552
      ],
      "translation": [
        0.13481612503528595,
        0.08672180026769638,
        0.035960085690021515
      ]
    },
    {
      "name": "LipLBone_043",
      "rotation": [
        0.1368304044008255,
        -0.14289768040180206,
        0.6643548607826233,
        0.7207567691802979
      ],
      "scale": [
        1.0000008344650269,
        1.0000001192092896,
        0.9999995827674866
      ],
      "translation": [
        0.056491125375032425,
        0.10610511898994446,
        0.029882201924920082
      ]
    },
    {
      "name": "LipRBone_044",
      "rotation": [
        -0.13682904839515686,
        0.14289699494838715,
        0.6643546223640442,
        0.7207574844360352
      ],
      "scale": [
        0.9999997019767761,
        1.0000001192092896,
        1.0
      ],
      "translation": [
        0.056491006165742874,
        0.10610517114400864,
        -0.02987975999712944
      ]
    },
    {
      "name": "LipUpperBone_045",
      "rotation": [
        0.7573381662368774,
        0.6530228853225708,
        1.9386946803479077e-07,
        -8.70461292379332e-07
      ],
      "scale": [
        1.0000004768371582,
        0.9999993443489075,
        0.9999997019767761
      ],
      "translation": [
        0.07045287638902664,
        0.11929541081190109,
        1.0681152389224735e-06
      ]
    },
    {
      "children": [
        58
      ],
      "name": "MouthLowerBone_046",
      "rotation": [
        0.5516186356544495,
        0.8340964317321777,
        -6.66400069349038e-07,
        -4.407149276630662e-07
      ],
      "scale": [
        1.000000238418579,
        1.000000238418579,
        0.9999997615814209
      ],
      "translation": [
        0.06730392575263977,
        0.024133911356329918,
        1.068115011548798e-06
      ]
    },
    {
      "name": "LipLowerBone_047",
      "rotation": [
        -4.814015142073913e-07,
        1.1667158617001405e-07,
        0.03638593852519989,
        0.999337911605835
      ],
      "scale": [
        0.9999999403953552,
        1.0000001192092896,
        1.0
      ],
      "translation": [
        0.08273094147443771,
        0.02688140794634819,
        -3.0517605864588404e-07
      ]
    },
    {
      "name": "NoseBone_048",
      "rotation": [
        0.8240808248519897,
        0.5664722323417664,
        2.122768592016655e-07,
        -9.53837684392056e-07
      ],
      "scale": [
        1.0000005960464478,
        0.9999998807907104,
        0.9999995827674866
      ],
      "translation": [
        0.11706618964672089,
        0.11493293195962906,
        -0.0002836608327925205
      ]
    },
    {
      "name": "R_eyeBone_049",
      "rotation": [
        0.010181293822824955,
        -0.014148060232400894,
        0.6535453796386719,
        0.7566866278648376
      ],
      "scale": [
        1.0000008344650269,
        0.9999999403953552,
        0.9999997615814209
      ],
      "translation": [
        0.13481612503528595,
        0.08672193437814713,
        -0.03596248850226402
      ]
    },
    {
      "children": [
        62
      ],
      "name": "Bip001 R Clavicle_050",
      "rotation": [
        -0.6116119623184204,
        0.03532995656132698,
        0.7899123430252075,
        -0.026853125542402267
      ],
      "scale": [
        1.000000238418579,
        0.9999999403953552,
        0.9999998211860657
      ],
      "translation": [
        0.22984252870082855,
        -0.02998323366045952,
        -0.05394233018159866
      ]
    },
    {
      "children": [
        63,
        89
      ],
      "name": "Bip001 R UpperArm_051",
      "rotation": [
        -0.1740361452102661,
        -0.39524969458580017,
        -0.11399577558040619,
        0.8947033286094666
      ],
      "scale": [
        1.000000238418579,
        1.0000001192092896,
        0.9999998807907104
      ],
      "translation": [
        0.15670669078826904,
        4.76837147544984e-09,
        2.220446049250313e-16
      ]
    },
    {
      "children": [
        64,
        67
      ],
      "name": "Bip001 R Forearm_052",
      "rotation": [
        -2.3295292805869394e-08,
        3.512388602189276e-08,
        -0.19845068454742432,
        0.9801108837127686
      ],
      "scale": [
        1.0000001192092896,
        0.9999999403953552,
        1.0
      ],
      "translation": [
        0.24957408010959625,
        1.907348590179936e-08,
        0.0
      ]
    },
    {
      "children": [
        65
      ],
      "name": "Bip001 R Forearm Sub_053",
      "rotation": [
        1.0,
        1.198422637571639e-06,
        -2.663175280304131e-07,
        -1.0652643140929285e-06
      ],
      "scale": [
        1.0000001192092896,
        1.000000238418579,
        1.0000001192092896
      ],
      "translation": [
        3.5095213206659537e-06,
        1.945495569088962e-06,
        -1.8310546465727384e-06
      ]
    },
    {
      "children": [
        66
      ],
      "name": "Bone_R_sleeve01_054",
      "rotation": [
        0.8978176712989807,
        -0.12220878154039383,
        -0.32403844594955444,
        0.2720065116882324
      ],
      "scale": [
        1.000000238418579,
        0.7108210325241089,
        0.9999997019767761
      ],
      "translation": [
        0.24048320949077606,
        1.6021728015402914e-06,
        -5.34057608092553e-06
      ]
    },
    {
      "name": "Bone_R_sleeve02_055",
      "rotation": [
        0.00565157039090991,
        0.07809721678495407,
        -0.09448584169149399,
        0.9924421906471252
      ],
      "scale": [
        1.0087321996688843,
        0.9954926371574402,
        1.000131368637085
      ],
      "translation": [
        0.19441519677639008,
        7.629394360719743e-08,
        -1.5258788721439487e-07
      ]
    },
    {
      "children": [
        68,
        70,
        72,
        74,
        76,
        78
      ],
      "name": "Bip001 R Hand_056",
      "rotation": [
        0.7455762624740601,
        0.20016491413116455,
        0.39586341381073,
        0.49733513593673706
      ],
      "scale": [
        1.000000238418579,
        1.0000001192092896,
        0.9999997019767761
      ],
      "translation": [
        0.24048934876918793,
        2.7755575615628914e-17,
        1.1102230246251565e-16
      ]
    },
    {
      "children": [
        69
      ],
      "name": "Bip001 R Finger0_057",
      "rotation": [
        -0.6452286243438721,
        -0.2879749834537506,
        0.14102673530578613,
        0.6934420466423035
      ],
      "scale": [
        1.000000238418579,
        1.0000001192092896,
        1.0
      ],
      "translation": [
        0.010970763862133026,
        0.020101165398955345,
        0.04434364289045334
      ]
    },
    {
      "name": "Bip001 R Finger01_058",
      "rotation": [
        0.028852663934230804,
        0.0293106809258461,
        0.6948559284210205,
        0.7179719805717468
      ],
      "scale": [
        1.0000003576278687,
        0.9999995827674866,
        1.0
      ],
      "translation": [
        0.049799613654613495,
        -3.814697180359872e-08,
        0.0
      ]
    },
    {
      "children": [
        71
      ],
      "name": "Bip001 R Finger1_059",
      "rotation": [
        -0.13542695343494415,
        -0.028507618233561516,
        0.5973896384239197,
        0.7899193167686462
      ],
      "scale": [
        1.0000004768371582,
        0.9999998211860657,
        1.0000001192092896
      ],
      "translation": [
        0.07765689492225647,
        -0.019424743950366974,
        0.0368330143392086
      ]
    },
    {
      "name": "Bip001 R Finger11_060",
      "rotation": [
        -0.022952713072299957,
        -0.05183864012360573,
        0.7548381686210632,
        0.6534565687179565
      ],
      "scale": [
        1.0000004768371582,
        0.9999997615814209,
        1.0000001192092896
      ],
      "translation": [
        0.049580495804548264,
        -1.5258788721439487e-07,
        0.0
      ]
    },
    {
      "children": [
        73
      ],
      "name": "Bip001 R Finger2_061",
      "rotation": [
        0.00239829090423882,
        0.0012234722962602973,
        0.6324576735496521,
        0.7745903730392456
      ],
      "scale": [
        1.0000004768371582,
        0.9999996423721313,
        1.0000001192092896
      ],
      "translation": [
        0.07854274660348892,
        -0.025790251791477203,
        0.007566709537059069
      ]
    },
    {
      "name": "Bip001 R Finger21_062",
      "rotation": [
        0.004701432306319475,
        -0.00929670874029398,
        0.7872527241706848,
        0.6165424585342407
      ],
      "scale": [
        1.0000003576278687,
        0.9999995231628418,
        1.0
      ],
      "translation": [
        0.05924262851476669,
        -1.5258788721439487e-07,
        -1.907348590179936e-08
      ]
    },
    {
      "children": [
        75
      ],
      "name": "Bip001 R Finger3_063",
      "rotation": [
        0.013350449502468109,
        -0.03921203687787056,
        0.6406646966934204,
        0.7667027711868286
      ],
      "scale": [
        1.0000004768371582,
        0.9999997615814209,
        1.0
      ],
      "translation": [
        0.07825969159603119,
        -0.024620817974209785,
        -0.018512792885303497
      ]
    },
    {
      "name": "Bip001 R Finger31_064",
      "rotation": [
        3.164292650126299e-08,
        1.0437874564672711e-08,
        0.7048933506011963,
        0.7093133330345154
      ],
      "scale": [
        1.0000003576278687,
        0.9999995827674866,
        0.9999999403953552
      ],
      "translation": [
        0.051218144595623016,
        0.0,
        0.0
      ]
    },
    {
      "children": [
        77
      ],
      "name": "Bip001 R Finger4_065",
      "rotation": [
        0.0356818288564682,
        -0.08111243695020676,
        0.6697744727134705,
        0.73725825548172
      ],
      "scale": [
        1.0000004768371582,
        0.9999997615814209,
        1.0000001192092896
      ],
      "translation": [
        0.07782287150621414,
        -0.015083923004567623,
        -0.041155193001031876
      ]
    },
    {
      "name": "Bip001 R Finger41_066",
      "rotation": [
        -1.239395874819138e-08,
        1.8600816886760185e-08,
        0.5544962286949158,
        0.8321862816810608
      ],
      "scale": [
        1.0000003576278687,
        0.9999995827674866,
        1.0000001192092896
      ],
      "translation": [
        0.03864810988306999,
        1.1102230246251565e-16,
        -5.551115123125783e-17
      ]
    },
    {
      "children": [
        79
      ],
      "name": "Bone_Weapon_067",
      "rotation": [
        -2.948316080164659e-07,
        0.8231921792030334,
        2.608191493891354e-07,
        0.5677630305290222
      ],
      "scale": [
        1.0000007152557373,
        1.0000001192092896,
        0.9999997615814209
      ],
      "translation": [
        0.0684826672077179,
        0.013806914910674095,
        0.06780597567558289
      ]
    },
    {
      "children": [
        80,
        85
      ],
      "name": "Fx_Weapon_068",
      "rotation": [
        5.604033503914252e-07,
        0.7071067094802856,
        0.7071068286895752,
        1.9285283769931993e-07
      ],
      "scale": [
        1.0000004768371582,
        1.0000001192092896,
        0.9999997019767761
      ],
      "translation": [
        -0.10350074619054794,
        -7.629394360719743e-08,
        1.5258788721439487e-07
      ]
    },
    {
      "children": [
        81
      ],
      "name": "leader_DarthVader_Trail_069",
      "rotation": [
        2.7755575615628914e-17,
        1.3877787807814457e-17,
        2.7755575615628914e-17,
        1.0
      ]
    },
    {
      "children": [
        82
      ],
      "name": "FxHigh_070",
      "rotation": [
        -4.906540586494246e-17,
        -9.813131465569736e-18,
        0.7071068286895752,
        0.7071068286895752
      ],
      "scale": [
        1.000001072883606,
        0.999998927116394,
        1.0
      ]
    },
    {
      "children": [
        83,
        84
      ],
      "name": "LightSaber01_BlueTrail_071",
      "rotation": [
        5.551115123125783e-17,
        -1.3877787807814457e-16,
        1.0,
        6.123234262925839e-17
      ]
    },
    {
      "name": "StartPoint_072",
      "rotation": [
        2.7755575615628914e-17,
        -2.7755575615628914e-17,
        2.7755575615628914e-17,
        1.0
      ],
      "translation": [
        0.0,
        -0.15000000596046448,
        -1.1102230246251565e-16
      ]
    },
    {
      "name": "EndPoint_073",
      "rotation": [
        2.7755575615628914e-17,
        -2.7755575615628914e-17,
        2.7755575615628914e-17,
        1.0
      ],
      "translation": [
        -4.962561916954655e-08,
        1.1110000610351563,
        -3.860265884725322e-09
      ]
    },
    {
      "children": [
        86
      ],
      "name": "leader_ObiwanKenobi_Light_Saber_4x4_074",
      "rotation": [
        2.7755575615628914e-17,
        1.3877787807814457e-17,
        2.7755575615628914e-17,
        1.0
      ]
    },
    {
      "children": [
        87,
        88
      ],
      "name": "ObiwanKenobi_Light_Saber_Lobby_00",
      "rotation": [
        -5.88785571828469e-17,
        0.7071068286895752,
        5.88785571828469e-17,
        0.7071068286895752
      ],
      "scale": [
        1.0000014305114746,
        1.0,
        0.9999986290931702
      ],
      "translation": [
        -0.08780000358819962,
        0.0,
        -1.1102230246251565e-16
      ]
    },
    {
      "name": "VolumetricLinePrefab_01",
      "rotation": [
        5.551115123125783e-17,
        4.163336342344337e-17,
        5.551115123125783e-17,
        1.0
      ],
      "translation": [
        -1.1102230246251565e-16,
        -1.1102230246251565e-16,
        0.0989999994635582
      ]
    },
    {
      "name": "Point light_075",
      "rotation": [
        5.551115123125783e-17,
        2.7755568998184013e-17,
        8.326670699455204e-17,
        1.0
      ],
      "scale": [
        1.000000238418579,
        1.0,
        9.999999960041972e-13
      ]
    },
    {
      "name": "Bone_UpperTwist_R_076",
      "rotation": [
        0.18212869763374329,
        -5.317990670050676e-08,
        4.0159598313493916e-08,
        0.9832746982574463
      ],
      "scale": [
        1.0,
        0.9999997615814209,
        1.000000238418579
      ],
      "translation": [
        -3.814697180359872e-08,
        -5.7220457705398076e-08,
        0.0
      ]
    },
    {
      "name": "Chest_Dummy_077",
      "rotation": [
        0.5000000596046448,
        0.4999999701976776,
        0.5000000596046448,
        -0.4999999701976776
      ],
      "scale": [
        1.0000004768371582,
        1.0000003576278687,
        1.0
      ],
      "translation": [
        0.09079299867153168,
        0.1691930592060089,
        1.5258788721439487e-07
      ]
    },
    {
      "children": [
        92
      ],
      "name": "Bone_BL_cloth01_078",
      "rotation": [
        0.03251919150352478,
        0.22085919976234436,
        0.9740657210350037,
        -0.036874689161777496
      ],
      "scale": [
        1.0,
        0.9999991655349731,
        0.9999996423721313
      ],
      "translation": [
        0.05214887112379074,
        -0.16802741587162018,
        0.1460895538330078
      ]
    },
    {
      "children": [
        93
      ],
      "name": "Bone_BL_cloth02_079",
      "rotation": [
        0.00014521172852255404,
        0.00013531005242839456,
        0.001751200994476676,
        0.9999984502792358
      ],
      "scale": [
        1.0000001192092896,
        1.0,
        1.000000238418579
      ],
      "translation": [
        0.37361660599708557,
        2.47955313170678e-07,
        -1.573562542489526e-07
      ]
    },
    {
      "name": "Bone_BL_cloth03_080",
      "rotation": [
        -0.0035115487407892942,
        -0.00037946057273074985,
        -0.007025612518191338,
        0.9999691843986511
      ],
      "scale": [
        1.0000007152557373,
        1.0000005960464478,
        0.9999998807907104
      ],
      "translation": [
        0.323883056640625,
        -2.4986265998450108e-06,
        2.1457671550706436e-07
      ]
    },
    {
      "children": [
        95
      ],
      "name": "Bone_BR_cloth01_081",
      "rotation": [
        -0.042253527790308,
        -0.2200194150209427,
        0.9731456637382507,
        -0.0528545044362545
      ],
      "scale": [
        0.9999998211860657,
        1.0000003576278687,
        1.0000003576278687
      ],
      "translation": [
        0.052123062312603,
        -0.16765262186527252,
        -0.14571847021579742
      ]
    },
    {
      "children": [
        96
      ],
      "name": "Bone_BR_cloth02_082",
      "rotation": [
        -0.00013870332622900605,
        -0.0009788884781301022,
        0.0012725861743092537,
        0.9999986886978149
      ],
      "scale": [
        0.9999999403953552,
        0.9999997615814209,
        0.9999999403953552
      ],
      "translation": [
        0.37972453236579895,
        2.0980834847250662e-07,
        8.106231774718253e-08
      ]
    },
    {
      "name": "Bone_BR_cloth03_083",
      "rotation": [
        0.003431871999055147,
        -0.0007776631391607225,
        -0.007486771326512098,
        0.9999657869338989
      ],
      "scale": [
        0.9999998807907104,
        1.000000238418579,
        1.0
      ],
      "translation": [
        0.32233718037605286,
        -2.403259259153856e-06,
        -2.0503996722709417e-07
      ]
    },
    {
      "children": [
        98
      ],
      "name": "Bone_FL_cloth01_084",
      "rotation": [
        0.09861426055431366,
        0.9524137377738953,
        0.28220054507255554,
        -0.05954918637871742
      ],
      "scale": [
        1.0000003576278687,
        0.9999998807907104,
        1.0
      ],
      "translation": [
        0.042254071682691574,
        0.15428580343723297,
        0.17756949365139008
      ]
    },
    {
      "children": [
        99
      ],
      "name": "Bone_FL_cloth02_085",
      "rotation": [
        -4.155985516263172e-05,
        0.0010903779184445739,
        0.0011621293378993869,
        0.9999987483024597
      ],
      "scale": [
        0.9999998807907104,
        1.0000001192092896,
        1.0000001192092896
      ],
      "translation": [
        0.384824275970459,
        -3.2424927098873013e-07,
        -1.907348590179936e-08
      ]
    },
    {
      "name": "Bone_FL_cloth03_086",
      "rotation": [
        -6.247103738132864e-05,
        0.0007089673890732229,
        0.006059250328689814,
        0.9999814033508301
      ],
      "scale": [
        1.0000007152557373,
        1.0000007152557373,
        1.0000004768371582
      ],
      "translation": [
        0.3219428062438965,
        2.422332727292087e-06,
        -1.0490417423625331e-07
      ]
    },
    {
      "children": [
        101
      ],
      "name": "Bone_FR_cloth01_087",
      "rotation": [
        0.04973198100924492,
        0.9548438191413879,
        -0.28959837555885315,
        0.04396303743124008
      ],
      "scale": [
        1.000000238418579,
        0.999998927116394,
        0.9999994039535522
      ],
      "translation": [
        0.052255820482969284,
        0.12863130867481232,
        -0.1961415410041809
      ]
    },
    {
      "children": [
        102
      ],
      "name": "Bone_FR_cloth02_088",
      "rotation": [
        -4.668705878430046e-05,
        -0.0003343862190376967,
        -0.019097158685326576,
        0.9998175501823425
      ],
      "scale": [
        1.0,
        1.0,
        0.9999999403953552
      ],
      "translation": [
        0.3801863491535187,
        -2.670288097306184e-07,
        2.7755575615628914e-17
      ]
    },
    {
      "name": "Bone_FR_cloth03_089",
      "rotation": [
        -2.6704959964263253e-05,
        0.0003679698857013136,
        -0.0019382401369512081,
        0.999998152256012
      ],
      "scale": [
        1.0000001192092896,
        1.0000014305114746,
        1.0000007152557373
      ],
      "translation": [
        0.3206380009651184,
        2.460479663568549e-06,
        -4.768371297814156e-08
      ]
    }
  ],
  "samplers": [
    {
      "magFilter": 9729,
      "minFilter": 9987,
      "wrapS": 10497,
      "wrapT": 10497
    }
  ],
  "scene": 0,
  "scenes": [
    {
      "name": "Sketchfab_Scene",
      "nodes": [
        0
      ]
    }
  ],
  "skins": [
    {
      "inverseBindMatrices": 12,
      "joints": [
        6,
        13,
        14,
        15,
        16,
        17,
        18,
        19,
        20,
        21,
        22,
        23,
        24,
        25,
        26,
        27,
        28,
        29,
        30,
        31,
        32,
        33,
        34,
        35,
        36,
        37,
        38,
        39,
        40,
        41,
        42,
        43,
        44,
        45,
        46,
        47,
        48,
        49,
        50,
        51,
        52,
        53,
        54,
        55,
        56,
        57,
        58,
        59,
        60,
        61,
        62,
        63,
        64,
        65,
        66,
        67,
        68,
        69,
        70,
        71,
        72,
        73,
        74,
        75,
        76,
        77,
        78,
        79,
        80,
        81,
        82,
        83,
        84,
        85,
        86,
        87,
        88,
        89,
        90,
        91,
        92,
        93,
        94,
        95,
        96,
        97,
        98,
        99,
        100,
        101,
        102
      ],
      "skeleton": 6
    }
  ],
  "textures": [
    {
      "sampler": 0,
      "source": 0
    },
    {
      "sampler": 0,
      "source": 1
    }
  ]
}
