{
  "accessors": [
    {
      "bufferView": 2,
      "componentType": 5126,
      "count": 22,
      "max": [
        0.00135028304066509,
        -0.15530329942703247,
        0.1453114002943039
      ],
      "min": [
        -0.001414775033481419,
        -0.17294800281524658,
        0.014959930442273617
      ],
      "type": "VEC3"
    },
    {
      "bufferView": 0,
      "componentType": 5125,
      "count": 44,
      "type": "SCALAR"
    },
    {
      "bufferView": 2,
      "byteOffset": 264,
      "componentType": 5126,
      "count": 23977,
      "max": [
        0.18082720041275024,
        0.24337419867515564,
        0.39641618728637695
      ],
      "min": [
        -0.18089160323143005,
        -0.21059159934520721,
        -0.042056381702423096
      ],
      "type": "VEC3"
    },
    {
      "bufferView": 2,
      "byteOffset": 287988,
      "componentType": 5126,
      "count": 23977,
      "max": [
        1.0,
        0.9999945759773254,
        1.0
      ],
      "min": [
        -1.0,
        -1.0,
        -1.0
      ],
      "type": "VEC3"
    },
    {
      "bufferView": 1,
      "componentType": 5126,
      "count": 23977,
      "max": [
        1.0,
        0.9991831183433533
      ],
      "min": [
        0.0,
        0.0
      ],
      "type": "VEC2"
    },
    {
      "bufferView": 1,
      "byteOffset": 191816,
      "componentType": 5126,
      "count": 23977,
      "max": [
        0.5740500092506409,
        0.5260090827941895
      ],
      "min": [
        0.0,
        0.0
      ],
      "type": "VEC2"
    },
    {
      "bufferView": 0,
      "byteOffset": 176,
      "componentType": 5125,
      "count": 78906,
      "type": "SCALAR"
    }
  ],
  "asset": {
    "extras": {
      "author": "SomeGuyUsingBlender (https://sketchfab.com/SomeGuyUsingBlender)",
      "license": "CC-BY-4.0 (http://creativecommons.org/licenses/by/4.0/)",
      "source": "https://sketchfab.com/3d-models/clone-trooper-airborne-helmet-73c5bb0725e0458f849ef255f56fa26f",
      "title": "Clone Trooper Airborne Helmet"
    },
    "generator": "Sketchfab-16.56.0",
    "version": "2.0"
  },
  "bufferViews": [
    {
      "buffer": 0,
      "byteLength": 315800,
      "name": "floatBufferViews",
      "target": 34963
    },
    {
      "buffer": 0,
      "byteLength": 383632,
      "byteOffset": 315800,
      "byteStride": 8,
      "name": "floatBufferViews",
      "target": 34962
    },
    {
      "buffer": 0,
      "byteLength": 575712,
      "byteOffset": 699432,
      "byteStride": 12,
      "name": "floatBufferViews",
      "target": 34962
    }
  ],
  "buffers": [
    {
      "byteLength": 1275144,
      "uri": "scene.bin"
    }
  ],
  "images": [
    {
      "uri": "textures/BAKE_baseColor.png"
    },
    {
      "uri": "textures/BAKE_metallicRoughness.png"
    }
  ],
  "materials": [
    {
      "doubleSided": true,
      "name": "material_0",
      "pbrMetallicRoughness": {
        "metallicFactor": 0.0,
        "roughnessFactor": 0.6
      }
    },
    {
      "doubleSided": true,
      "name": "BAKE",
      "occlusionTexture": {
        "index": 1,
        "strength": 0.4373346661627921,
        "texCoord": 1
      },
      "pbrMetallicRoughness": {
        "baseColorTexture": {
          "index": 0
        },
        "metallicFactor": 0.0,
        "metallicRoughnessTexture": {
          "index": 1,
          "texCoord": 1
        },
        "roughnessFactor": 0.46171569284782576
      }
    }
  ],
  "meshes": [
    {
      "name": "Object_0",
      "primitives": [
        {
          "attributes": {
            "POSITION": 0
          },
          "indices": 1,
          "material": 0,
          "mode": 1
        }
      ]
    },
    {
      "name": "BAKE-material",
      "primitives": [
        {
          "attributes": {
            "NORMAL": 3,
            "POSITION": 2,
            "TEXCOORD_0": 4,
            "TEXCOORD_1": 5
          },
          "indices": 6,
          "material": 1,
          "mode": 4
        }
      ]
    }
  ],
  "nodes": [
    {
      "children": [
        1
      ],
      "matrix": [
        1.0,
        0.0,
        0.0,
        0.0,
        0.0,
        2.220446049250313e-16,
        -1.0,
        0.0,
        0.0,
        1.0,
        2.220446049250313e-16,
        0.0,
        0.0,
        0.0,
        0.0,
        1.0
      ],
      "name": "Sketchfab_model"
    },
    {
      "children": [
        2
      ],
      "name": "Collada visual scene group"
    },
    {
      "children": [
        3,
        4
      ],
      "name": "Bake"
    },
    {
      "mesh": 0,
      "name": "Object_3"
    },
    {
      "mesh": 1,
      "name": "BAKE-material"
    }
  ],
  "samplers": [
    {
      "magFilter": 9729,
      "minFilter": 9987,
      "wrapS": 10497,
      "wrapT": 10497
    }
  ],
  "scene": 0,
  "scenes": [
    {
      "name": "Sketchfab_Scene",
      "nodes": [
        0
      ]
    }
  ],
  "textures": [
    {
      "sampler": 0,
      "source": 0
    },
    {
      "sampler": 0,
      "source": 1
    }
  ]
}
