{
  "accessors": [
    {
      "bufferView": 2,
      "componentType": 5126,
      "count": 14222,
      "max": [
        1.2922799587249756,
        1.9153499603271484,
        0.49094000458717346
      ],
      "min": [
        -1.2922799587249756,
        -1.8299599885940552,
        -0.22447000443935394
      ],
      "type": "VEC3"
    },
    {
      "bufferView": 2,
      "byteOffset": 170664,
      "componentType": 5126,
      "count": 14222,
      "max": [
        1.0,
        1.0,
        1.0
      ],
      "min": [
        -1.0,
        -1.0,
        -1.0
      ],
      "type": "VEC3"
    },
    {
      "bufferView": 1,
      "componentType": 5126,
      "count": 14222,
      "max": [
        5.5,
        5.5
      ],
      "min": [
        -4.5,
        -4.5
      ],
      "type": "VEC2"
    },
    {
      "bufferView": 0,
      "componentType": 5125,
      "count": 29334,
      "type": "SCALAR"
    },
    {
      "bufferView": 2,
      "byteOffset": 341328,
      "componentType": 5126,
      "count": 4605,
      "max": [
        1.291509985923767,
        1.9123799800872803,
        0.5100499987602234
      ],
      "min": [
        -1.291509985923767,
        -1.8501900434494019,
        -0.24595999717712402
      ],
      "type": "VEC3"
    },
    {
      "bufferView": 2,
      "byteOffset": 396588,
      "componentType": 5126,
      "count": 4605,
      "max": [
        1.0,
        1.0,
        1.0
      ],
      "min": [
        -1.0,
        -1.0,
        -1.0
      ],
      "type": "VEC3"
    },
    {
      "bufferView": 1,
      "byteOffset": 113776,
      "componentType": 5126,
      "count": 4605,
      "max": [
        8.0,
        8.0
      ],
      "min": [
        -7.0,
        -7.0
      ],
      "type": "VEC2"
    },
    {
      "bufferView": 0,
      "byteOffset": 117336,
      "componentType": 5125,
      "count": 9993,
      "type": "SCALAR"
    },
    {
      "bufferView": 2,
      "byteOffset": 451848,
      "componentType": 5126,
      "count": 64,
      "max": [
        1.1049799919128418,
        1.4282100200653076,
        0.21256999671459198
      ],
      "min": [
        -1.1049799919128418,
        -0.6480399966239929,
        -0.11305999755859375
      ],
      "type": "VEC3"
    },
    {
      "bufferView": 2,
      "byteOffset": 452616,
      "componentType": 5126,
      "count": 64,
      "max": [
        0.2152504175901413,
        0.017509937286376953,
        1.0
      ],
      "min": [
        -0.2152504175901413,
        -0.014460028149187565,
        -1.0
      ],
      "type": "VEC3"
    },
    {
      "bufferView": 1,
      "byteOffset": 150616,
      "componentType": 5126,
      "count": 64,
      "max": [
        7.6375298500061035,
        7.707389831542969
      ],
      "min": [
        -6.305689811706543,
        2.1700899600982666
      ],
      "type": "VEC2"
    },
    {
      "bufferView": 0,
      "byteOffset": 157308,
      "componentType": 5125,
      "count": 90,
      "type": "SCALAR"
    },
    {
      "bufferView": 2,
      "byteOffset": 453384,
      "componentType": 5126,
      "count": 62,
      "max": [
        0.7536399960517883,
        1.8980599641799927,
        0.42996999621391296
      ],
      "min": [
        -0.7536399960517883,
        -0.6352300047874451,
        -0.22376999258995056
      ],
      "type": "VEC3"
    },
    {
      "bufferView": 2,
      "byteOffset": 454128,
      "componentType": 5126,
      "count": 62,
      "max": [
        0.730117678642273,
        0.0003899991570506245,
        0.9772633910179138
      ],
      "min": [
        -0.730117678642273,
        -0.07962030917406082,
        -0.9999978542327881
      ],
      "type": "VEC3"
    },
    {
      "bufferView": 1,
      "byteOffset": 151128,
      "componentType": 5126,
      "count": 62,
      "max": [
        3.5493500232696533,
        4.914899826049805
      ],
      "min": [
        -3.643860101699829,
        -5.299330234527588
      ],
      "type": "VEC2"
    },
    {
      "bufferView": 0,
      "byteOffset": 157668,
      "componentType": 5125,
      "count": 90,
      "type": "SCALAR"
    },
    {
      "bufferView": 2,
      "byteOffset": 454872,
      "componentType": 5126,
      "count": 106,
      "max": [
        0.4413500130176544,
        1.295889973640442,
        0.5062599778175354
      ],
      "min": [
        -0.4413500130176544,
        0.6654899716377258,
        0.3373900055885315
      ],
      "type": "VEC3"
    },
    {
      "bufferView": 2,
      "byteOffset": 456144,
      "componentType": 5126,
      "count": 106,
      "max": [
        0.9943119287490845,
        0.5796234607696533,
        1.0
      ],
      "min": [
        -0.9943119287490845,
        -0.9950637221336365,
        0.02499009296298027
      ],
      "type": "VEC3"
    },
    {
      "bufferView": 1,
      "byteOffset": 151624,
      "componentType": 5126,
      "count": 106,
      "max": [
        6.007339954376221,
        7.728270053863525
      ],
      "min": [
        -6.6577301025390625,
        2.112299919128418
      ],
      "type": "VEC2"
    },
    {
      "bufferView": 0,
      "byteOffset": 158028,
      "componentType": 5125,
      "count": 222,
      "type": "SCALAR"
    },
    {
      "bufferView": 2,
      "byteOffset": 457416,
      "componentType": 5126,
      "count": 348,
      "max": [
        0.32155001163482666,
        -0.7595900297164917,
        0.19994999468326569
      ],
      "min": [
        -0.32155001163482666,
        -1.0219199657440186,
        -0.19994999468326569
      ],
      "type": "VEC3"
    },
    {
      "bufferView": 2,
      "byteOffset": 461592,
      "componentType": 5126,
      "count": 348,
      "max": [
        1.0,
        0.6688277721405029,
        1.0
      ],
      "min": [
        -1.0,
        -1.0,
        -1.0
      ],
      "type": "VEC3"
    },
    {
      "bufferView": 1,
      "byteOffset": 152472,
      "componentType": 5126,
      "count": 348,
      "max": [
        3.0,
        3.0
      ],
      "min": [
        -2.0,
        -2.0
      ],
      "type": "VEC2"
    },
    {
      "bufferView": 0,
      "byteOffset": 158916,
      "componentType": 5125,
      "count": 684,
      "type": "SCALAR"
    },
    {
      "bufferView": 2,
      "byteOffset": 465768,
      "componentType": 5126,
      "count": 55,
      "max": [
        0.17991000413894653,
        -0.9431399703025818,
        0.17991000413894653
      ],
      "min": [
        -0.17991000413894653,
        -1.0159399509429932,
        -0.17991000413894653
      ],
      "type": "VEC3"
    },
    {
      "bufferView": 2,
      "byteOffset": 466428,
      "componentType": 5126,
      "count": 55,
      "max": [
        0.6688116788864136,
        -0.7434318661689758,
        0.6688116788864136
      ],
      "min": [
        -0.6688116788864136,
        -1.0,
        -0.6688116788864136
      ],
      "type": "VEC3"
    },
    {
      "bufferView": 1,
      "byteOffset": 155256,
      "componentType": 5126,
      "count": 55,
      "max": [
        2.828969955444336,
        1.8033299446105957
      ],
      "min": [
        1.2070499658584595,
        -2.0
      ],
      "type": "VEC2"
    },
    {
      "bufferView": 0,
      "byteOffset": 161652,
      "componentType": 5125,
      "count": 120,
      "type": "SCALAR"
    },
    {
      "bufferView": 2,
      "byteOffset": 467088,
      "componentType": 5126,
      "count": 234,
      "max": [
        0.08720000088214874,
        0.08720000088214874,
        0.13794000446796417
      ],
      "min": [
        -0.08720000088214874,
        -0.08720000088214874,
        0.007420000154525042
      ],
      "type": "VEC3"
    },
    {
      "bufferView": 2,
      "byteOffset": 469896,
      "componentType": 5126,
      "count": 234,
      "max": [
        1.0,
        1.0,
        1.0
      ],
      "min": [
        -1.0,
        -1.0,
        -1.0
      ],
      "type": "VEC3"
    },
    {
      "bufferView": 1,
      "byteOffset": 155696,
      "componentType": 5126,
      "count": 234,
      "max": [
        2.0,
        2.0
      ],
      "min": [
        -1.0,
        -1.0
      ],
      "type": "VEC2"
    },
    {
      "bufferView": 0,
      "byteOffset": 162132,
      "componentType": 5125,
      "count": 612,
      "type": "SCALAR"
    },
    {
      "bufferView": 2,
      "byteOffset": 472704,
      "componentType": 5126,
      "count": 2662,
      "max": [
        0.04726000130176544,
        0.04261999949812889,
        0.06356000155210495
      ],
      "min": [
        -0.04726000130176544,
        -0.23615999519824982,
        -0.0443900004029274
      ],
      "type": "VEC3"
    },
    {
      "bufferView": 2,
      "byteOffset": 504648,
      "componentType": 5126,
      "count": 2662,
      "max": [
        1.0,
        1.0,
        1.0
      ],
      "min": [
        -1.0,
        -1.0,
        -1.0
      ],
      "type": "VEC3"
    },
    {
      "bufferView": 1,
      "byteOffset": 157568,
      "componentType": 5126,
      "count": 2662,
      "max": [
        3.0,
        3.0
      ],
      "min": [
        -2.0,
        -2.0
      ],
      "type": "VEC2"
    },
    {
      "bufferView": 0,
      "byteOffset": 164580,
      "componentType": 5125,
      "count": 7044,
      "type": "SCALAR"
    },
    {
      "bufferView": 2,
      "byteOffset": 536592,
      "componentType": 5126,
      "count": 96,
      "max": [
        0.030470000579953194,
        -0.18694999814033508,
        0.027319999411702156
      ],
      "min": [
        -0.030470000579953194,
        -0.18694999814033508,
        -0.030619999393820763
      ],
      "type": "VEC3"
    },
    {
      "bufferView": 2,
      "byteOffset": 537744,
      "componentType": 5126,
      "count": 96,
      "max": [
        0.0,
        -1.0,
        0.0
      ],
      "min": [
        0.0,
        -1.0,
        0.0
      ],
      "type": "VEC3"
    },
    {
      "bufferView": 1,
      "byteOffset": 178864,
      "componentType": 5126,
      "count": 96,
      "max": [
        1.9496300220489502,
        2.498810052871704
      ],
      "min": [
        -0.9299700260162354,
        -0.6027699708938599
      ],
      "type": "VEC2"
    },
    {
      "bufferView": 0,
      "byteOffset": 192756,
      "componentType": 5125,
      "count": 264,
      "type": "SCALAR"
    },
    {
      "bufferView": 2,
      "byteOffset": 538896,
      "componentType": 5126,
      "count": 224,
      "max": [
        0.08720000088214874,
        0.08720000088214874,
        0.13794000446796417
      ],
      "min": [
        -0.08720000088214874,
        -0.08720000088214874,
        0.040780000388622284
      ],
      "type": "VEC3"
    },
    {
      "bufferView": 2,
      "byteOffset": 541584,
      "componentType": 5126,
      "count": 224,
      "max": [
        1.0,
        1.0,
        1.0
      ],
      "min": [
        -1.0,
        -1.0,
        -1.0
      ],
      "type": "VEC3"
    },
    {
      "bufferView": 1,
      "byteOffset": 179632,
      "componentType": 5126,
      "count": 224,
      "max": [
        2.0,
        2.0
      ],
      "min": [
        -1.0,
        -1.0
      ],
      "type": "VEC2"
    },
    {
      "bufferView": 0,
      "byteOffset": 193812,
      "componentType": 5125,
      "count": 588,
      "type": "SCALAR"
    },
    {
      "bufferView": 2,
      "byteOffset": 544272,
      "componentType": 5126,
      "count": 2662,
      "max": [
        0.04726000130176544,
        0.04261999949812889,
        0.06356000155210495
      ],
      "min": [
        -0.04726000130176544,
        -0.23615999519824982,
        -0.0443900004029274
      ],
      "type": "VEC3"
    },
    {
      "bufferView": 2,
      "byteOffset": 576216,
      "componentType": 5126,
      "count": 2662,
      "max": [
        1.0,
        1.0,
        1.0
      ],
      "min": [
        -1.0,
        -1.0,
        -1.0
      ],
      "type": "VEC3"
    },
    {
      "bufferView": 1,
      "byteOffset": 181424,
      "componentType": 5126,
      "count": 2662,
      "max": [
        3.0,
        3.0
      ],
      "min": [
        -2.0,
        -2.0
      ],
      "type": "VEC2"
    },
    {
      "bufferView": 0,
      "byteOffset": 196164,
      "componentType": 5125,
      "count": 7044,
      "type": "SCALAR"
    },
    {
      "bufferView": 2,
      "byteOffset": 608160,
      "componentType": 5126,
      "count": 96,
      "max": [
        0.030470000579953194,
        -0.18694999814033508,
        0.027319999411702156
      ],
      "min": [
        -0.030470000579953194,
        -0.18694999814033508,
        -0.030619999393820763
      ],
      "type": "VEC3"
    },
    {
      "bufferView": 2,
      "byteOffset": 609312,
      "componentType": 5126,
      "count": 96,
      "max": [
        0.0,
        -1.0,
        0.0
      ],
      "min": [
        0.0,
        -1.0,
        0.0
      ],
      "type": "VEC3"
    },
    {
      "bufferView": 1,
      "byteOffset": 202720,
      "componentType": 5126,
      "count": 96,
      "max": [
        0.6981300115585327,
        2.4906399250030518
      ],
      "min": [
        -1.9808599948883057,
        1.7245899438858032
      ],
      "type": "VEC2"
    },
    {
      "bufferView": 0,
      "byteOffset": 224340,
      "componentType": 5125,
      "count": 264,
      "type": "SCALAR"
    },
    {
      "bufferView": 2,
      "byteOffset": 610464,
      "componentType": 5126,
      "count": 576,
      "max": [
        0.4470899999141693,
        1.9465800523757935,
        0.39184001088142395
      ],
      "min": [
        -0.4470899999141693,
        1.842419981956482,
        0.03970000147819519
      ],
      "type": "VEC3"
    },
    {
      "bufferView": 2,
      "byteOffset": 617376,
      "componentType": 5126,
      "count": 576,
      "max": [
        1.0,
        1.0,
        1.0
      ],
      "min": [
        -1.0,
        0.0,
        -1.0
      ],
      "type": "VEC3"
    },
    {
      "bufferView": 1,
      "byteOffset": 203488,
      "componentType": 5126,
      "count": 576,
      "max": [
        3.0,
        3.0
      ],
      "min": [
        -2.0,
        -2.0
      ],
      "type": "VEC2"
    },
    {
      "bufferView": 0,
      "byteOffset": 225396,
      "componentType": 5125,
      "count": 1437,
      "type": "SCALAR"
    },
    {
      "bufferView": 2,
      "byteOffset": 624288,
      "componentType": 5126,
      "count": 66,
      "max": [
        0.4312799870967865,
        1.9363600015640259,
        0.37841999530792236
      ],
      "min": [
        -0.4312799870967865,
        1.8966799974441528,
        0.053119998425245285
      ],
      "type": "VEC3"
    },
    {
      "bufferView": 2,
      "byteOffset": 625080,
      "componentType": 5126,
      "count": 66,
      "max": [
        0.0,
        1.0,
        0.0
      ],
      "min": [
        0.0,
        1.0,
        0.0
      ],
      "type": "VEC3"
    },
    {
      "bufferView": 1,
      "byteOffset": 208096,
      "componentType": 5126,
      "count": 66,
      "max": [
        2.1254498958587646,
        1.4840600490570068
      ],
      "min": [
        0.28547999262809753,
        -2.0
      ],
      "type": "VEC2"
    },
    {
      "bufferView": 0,
      "byteOffset": 231144,
      "componentType": 5125,
      "count": 186,
      "type": "SCALAR"
    },
    {
      "bufferView": 2,
      "byteOffset": 625872,
      "componentType": 5126,
      "count": 9614,
      "max": [
        1.2782299518585205,
        1.9687399864196777,
        0.4465000033378601
      ],
      "min": [
        -1.2782299518585205,
        -0.9322500228881836,
        -0.22439000010490417
      ],
      "type": "VEC3"
    },
    {
      "bufferView": 2,
      "byteOffset": 741240,
      "componentType": 5126,
      "count": 9614,
      "max": [
        1.0,
        1.0,
        1.0
      ],
      "min": [
        -1.0,
        -1.0,
        -1.0
      ],
      "type": "VEC3"
    },
    {
      "bufferView": 1,
      "byteOffset": 208624,
      "componentType": 5126,
      "count": 9614,
      "max": [
        5.5,
        5.5
      ],
      "min": [
        -4.5,
        -4.5
      ],
      "type": "VEC2"
    },
    {
      "bufferView": 0,
      "byteOffset": 231888,
      "componentType": 5125,
      "count": 16536,
      "type": "SCALAR"
    },
    {
      "bufferView": 2,
      "byteOffset": 856608,
      "componentType": 5126,
      "count": 32,
      "max": [
        0.5751299858093262,
        0.6383600234985352,
        0.1867000013589859
      ],
      "min": [
        -0.5751299858093262,
        0.6383600234985352,
        0.13627000153064728
      ],
      "type": "VEC3"
    },
    {
      "bufferView": 2,
      "byteOffset": 856992,
      "componentType": 5126,
      "count": 32,
      "max": [
        0.0,
        -1.0,
        0.0
      ],
      "min": [
        0.0,
        -1.0,
        0.0
      ],
      "type": "VEC3"
    },
    {
      "bufferView": 1,
      "byteOffset": 285536,
      "componentType": 5126,
      "count": 32,
      "max": [
        2.5978400707244873,
        -4.1296000480651855
      ],
      "min": [
        2.30364990234375,
        -4.424860000610352
      ],
      "type": "VEC2"
    },
    {
      "bufferView": 0,
      "byteOffset": 298032,
      "componentType": 5125,
      "count": 84,
      "type": "SCALAR"
    },
    {
      "bufferView": 2,
      "byteOffset": 857376,
      "componentType": 5126,
      "count": 3001,
      "max": [
        1.0801500082015991,
        1.4543100595474243,
        0.24934999644756317
      ],
      "min": [
        -1.0801500082015991,
        0.3103199899196625,
        -0.11614999920129776
      ],
      "type": "VEC3"
    },
    {
      "bufferView": 2,
      "byteOffset": 893388,
      "componentType": 5126,
      "count": 3001,
      "max": [
        1.0,
        1.0,
        1.0
      ],
      "min": [
        -1.0,
        -1.0,
        -0.9999946355819702
      ],
      "type": "VEC3"
    },
    {
      "bufferView": 1,
      "byteOffset": 285792,
      "componentType": 5126,
      "count": 3001,
      "max": [
        5.366990089416504,
        5.461390018463135
      ],
      "min": [
        -4.5,
        -4.5
      ],
      "type": "VEC2"
    },
    {
      "bufferView": 0,
      "byteOffset": 298368,
      "componentType": 5125,
      "count": 4908,
      "type": "SCALAR"
    },
    {
      "bufferView": 2,
      "byteOffset": 929400,
      "componentType": 5126,
      "count": 2987,
      "max": [
        1.0277400016784668,
        1.93163001537323,
        0.5065500140190125
      ],
      "min": [
        -0.9066799879074097,
        -1.1290700435638428,
        -0.28808000683784485
      ],
      "type": "VEC3"
    },
    {
      "bufferView": 2,
      "byteOffset": 965244,
      "componentType": 5126,
      "count": 2987,
      "max": [
        1.0,
        1.0,
        1.0
      ],
      "min": [
        -1.0,
        -1.0,
        -1.0
      ],
      "type": "VEC3"
    },
    {
      "bufferView": 1,
      "byteOffset": 309800,
      "componentType": 5126,
      "count": 2987,
      "max": [
        5.5,
        5.5
      ],
      "min": [
        -4.5,
        -4.5
      ],
      "type": "VEC2"
    },
    {
      "bufferView": 0,
      "byteOffset": 318000,
      "componentType": 5125,
      "count": 5115,
      "type": "SCALAR"
    },
    {
      "bufferView": 2,
      "byteOffset": 1001088,
      "componentType": 5126,
      "count": 4,
      "max": [
        0.1720699965953827,
        1.9249099493026733,
        0.2669300138950348
      ],
      "min": [
        -0.08269000053405762,
        1.90516996383667,
        0.15000000596046448
      ],
      "type": "VEC3"
    },
    {
      "bufferView": 2,
      "byteOffset": 1001136,
      "componentType": 5126,
      "count": 4,
      "max": [
        0.05940011143684387,
        0.9590118527412415,
        0.2770705223083496
      ],
      "min": [
        0.05940011143684387,
        0.9590118527412415,
        0.2770705223083496
      ],
      "type": "VEC3"
    },
    {
      "bufferView": 1,
      "byteOffset": 333696,
      "componentType": 5126,
      "count": 4,
      "max": [
        -1.1480599641799927,
        2.099720001220703
      ],
      "min": [
        -1.6424299478530884,
        0.3072899878025055
      ],
      "type": "VEC2"
    },
    {
      "bufferView": 0,
      "byteOffset": 338460,
      "componentType": 5125,
      "count": 6,
      "type": "SCALAR"
    }
  ],
  "asset": {
    "extras": {
      "author": "Daniel (https://sketchfab.com/DanielAndersson)",
      "license": "CC-BY-4.0 (http://creativecommons.org/licenses/by/4.0/)",
      "source": "https://sketchfab.com/3d-models/star-wars-vt-49-decimator-3d9103b8d13942a3a990a0f42f2f4c4a",
      "title": "Star Wars: VT-49 Decimator"
    },
    "generator": "Sketchfab-12.67.0",
    "version": "2.0"
  },
  "bufferViews": [
    {
      "buffer": 0,
      "byteLength": 338484,
      "name": "floatBufferViews",
      "target": 34963
    },
    {
      "buffer": 0,
      "byteLength": 333728,
      "byteOffset": 338484,
      "byteStride": 8,
      "name": "floatBufferViews",
      "target": 34962
    },
    {
      "buffer": 0,
      "byteLength": 1001184,
      "byteOffset": 672212,
      "byteStride": 12,
      "name": "floatBufferViews",
      "target": 34962
    }
  ],
  "buffers": [
    {
      "byteLength": 1673396,
      "uri": "scene.bin"
    }
  ],
  "materials": [
    {
      "doubleSided": true,
      "name": "ScratchedMetal",
      "pbrMetallicRoughness": {
        "baseColorFactor": [
          0.24,
          0.26,
          0.3,
          1.0
        ],
        "roughnessFactor": 0.4,
        "metallicFactor": 0.35
      }
    },
    {
      "doubleSided": true,
      "name": "ScratchedMetalDark",
      "pbrMetallicRoughness": {
        "baseColorFactor": [
          0.12,
          0.13,
          0.16,
          1.0
        ],
        "roughnessFactor": 0.45,
        "metallicFactor": 0.4
      }
    },
    {
      "doubleSided": true,
      "name": "Dark",
      "pbrMetallicRoughness": {
        "baseColorFactor": [
          0.0,
          0.0,
          0.0,
          1.0
        ],
        "metallicFactor": 0.0,
        "roughnessFactor": 0.0
      }
    },
    {
      "doubleSided": true,
      "name": "ReflectiveGlass",
      "pbrMetallicRoughness": {
        "baseColorFactor": [
          0.0,
          0.0,
          0.0,
          1.0
        ],
        "roughnessFactor": 0.3
      }
    },
    {
      "doubleSided": true,
      "emissiveFactor": [
        0.5646351720000004,
        1.0,
        1.0
      ],
      "name": "BlueEngineGlow",
      "pbrMetallicRoughness": {
        "baseColorFactor": [
          0.006358024699999996,
          0.3362805552000003,
          0.9406652058,
          1.0
        ],
        "metallicFactor": 0.0,
        "roughnessFactor": 0.6
      }
    },
    {
      "doubleSided": true,
      "emissiveFactor": [
        1.0,
        1.0,
        0.14339365100000007
      ],
      "name": "YellowGlow",
      "pbrMetallicRoughness": {
        "baseColorFactor": [
          0.9029513809999997,
          0.9213560469999996,
          0.0,
          1.0
        ],
        "metallicFactor": 0.0,
        "roughnessFactor": 0.6
      }
    }
  ],
  "meshes": [
    {
      "name": "HullPlates_0",
      "primitives": [
        {
          "attributes": {
            "NORMAL": 1,
            "POSITION": 0,
            "TEXCOORD_0": 2
          },
          "indices": 3,
          "material": 0,
          "mode": 4
        }
      ]
    },
    {
      "name": "MainHull_0",
      "primitives": [
        {
          "attributes": {
            "NORMAL": 5,
            "POSITION": 4,
            "TEXCOORD_0": 6
          },
          "indices": 7,
          "material": 0,
          "mode": 4
        }
      ]
    },
    {
      "name": "MainHull_1",
      "primitives": [
        {
          "attributes": {
            "NORMAL": 9,
            "POSITION": 8,
            "TEXCOORD_0": 10
          },
          "indices": 11,
          "material": 1,
          "mode": 4
        }
      ]
    },
    {
      "name": "MainHull_2",
      "primitives": [
        {
          "attributes": {
            "NORMAL": 13,
            "POSITION": 12,
            "TEXCOORD_0": 14
          },
          "indices": 15,
          "material": 2,
          "mode": 4
        }
      ]
    },
    {
      "name": "MainHull_3",
      "primitives": [
        {
          "attributes": {
            "NORMAL": 17,
            "POSITION": 16,
            "TEXCOORD_0": 18
          },
          "indices": 19,
          "material": 3,
          "mode": 4
        }
      ]
    },
    {
      "name": "Window_0",
      "primitives": [
        {
          "attributes": {
            "NORMAL": 21,
            "POSITION": 20,
            "TEXCOORD_0": 22
          },
          "indices": 23,
          "material": 0,
          "mode": 4
        }
      ]
    },
    {
      "name": "Window_1",
      "primitives": [
        {
          "attributes": {
            "NORMAL": 25,
            "POSITION": 24,
            "TEXCOORD_0": 26
          },
          "indices": 27,
          "material": 3,
          "mode": 4
        }
      ]
    },
    {
      "name": "UpperCanonHolder_0",
      "primitives": [
        {
          "attributes": {
            "NORMAL": 29,
            "POSITION": 28,
            "TEXCOORD_0": 30
          },
          "indices": 31,
          "material": 0,
          "mode": 4
        }
      ]
    },
    {
      "name": "UpperCanon_0",
      "primitives": [
        {
          "attributes": {
            "NORMAL": 33,
            "POSITION": 32,
            "TEXCOORD_0": 34
          },
          "indices": 35,
          "material": 0,
          "mode": 4
        }
      ]
    },
    {
      "name": "UpperCanon_1",
      "primitives": [
        {
          "attributes": {
            "NORMAL": 37,
            "POSITION": 36,
            "TEXCOORD_0": 38
          },
          "indices": 39,
          "material": 2,
          "mode": 4
        }
      ]
    },
    {
      "name": "LowerCanonHolder_0",
      "primitives": [
        {
          "attributes": {
            "NORMAL": 41,
            "POSITION": 40,
            "TEXCOORD_0": 42
          },
          "indices": 43,
          "material": 0,
          "mode": 4
        }
      ]
    },
    {
      "name": "LowerCanon_0",
      "primitives": [
        {
          "attributes": {
            "NORMAL": 45,
            "POSITION": 44,
            "TEXCOORD_0": 46
          },
          "indices": 47,
          "material": 0,
          "mode": 4
        }
      ]
    },
    {
      "name": "LowerCanon_1",
      "primitives": [
        {
          "attributes": {
            "NORMAL": 49,
            "POSITION": 48,
            "TEXCOORD_0": 50
          },
          "indices": 51,
          "material": 2,
          "mode": 4
        }
      ]
    },
    {
      "name": "Engines_0",
      "primitives": [
        {
          "attributes": {
            "NORMAL": 53,
            "POSITION": 52,
            "TEXCOORD_0": 54
          },
          "indices": 55,
          "material": 0,
          "mode": 4
        }
      ]
    },
    {
      "name": "Engines_1",
      "primitives": [
        {
          "attributes": {
            "NORMAL": 57,
            "POSITION": 56,
            "TEXCOORD_0": 58
          },
          "indices": 59,
          "material": 4,
          "mode": 4
        }
      ]
    },
    {
      "name": "Greebles1_0",
      "primitives": [
        {
          "attributes": {
            "NORMAL": 61,
            "POSITION": 60,
            "TEXCOORD_0": 62
          },
          "indices": 63,
          "material": 0,
          "mode": 4
        }
      ]
    },
    {
      "name": "Greebles1_1",
      "primitives": [
        {
          "attributes": {
            "NORMAL": 65,
            "POSITION": 64,
            "TEXCOORD_0": 66
          },
          "indices": 67,
          "material": 5,
          "mode": 4
        }
      ]
    },
    {
      "name": "Greebles1_2",
      "primitives": [
        {
          "attributes": {
            "NORMAL": 69,
            "POSITION": 68,
            "TEXCOORD_0": 70
          },
          "indices": 71,
          "material": 1,
          "mode": 4
        }
      ]
    },
    {
      "name": "Greebles2_0",
      "primitives": [
        {
          "attributes": {
            "NORMAL": 73,
            "POSITION": 72,
            "TEXCOORD_0": 74
          },
          "indices": 75,
          "material": 0,
          "mode": 4
        }
      ]
    },
    {
      "name": "Greebles2_1",
      "primitives": [
        {
          "attributes": {
            "NORMAL": 77,
            "POSITION": 76,
            "TEXCOORD_0": 78
          },
          "indices": 79,
          "material": 2,
          "mode": 4
        }
      ]
    }
  ],
  "nodes": [
    {
      "children": [
        1
      ],
      "matrix": [
        10.0,
        0.0,
        0.0,
        0.0,
        0.0,
        2.220446049250313e-15,
        -10.0,
        0.0,
        0.0,
        10.0,
        2.220446049250313e-15,
        0.0,
        0.0,
        0.0,
        0.0,
        1.0
      ],
      "name": "Sketchfab_model"
    },
    {
      "children": [
        2
      ],
      "name": "Root"
    },
    {
      "children": [
        3,
        5,
        10,
        13,
        15,
        18,
        20,
        23,
        26,
        30
      ],
      "name": "VT-49 Decimator"
    },
    {
      "children": [
        4
      ],
      "name": "HullPlates"
    },
    {
      "mesh": 0,
      "name": "HullPlates_0"
    },
    {
      "children": [
        6,
        7,
        8,
        9
      ],
      "name": "MainHull"
    },
    {
      "mesh": 1,
      "name": "MainHull_0"
    },
    {
      "mesh": 2,
      "name": "MainHull_1"
    },
    {
      "mesh": 3,
      "name": "MainHull_2"
    },
    {
      "mesh": 4,
      "name": "MainHull_3"
    },
    {
      "children": [
        11,
        12
      ],
      "name": "Window"
    },
    {
      "mesh": 5,
      "name": "Window_0"
    },
    {
      "mesh": 6,
      "name": "Window_1"
    },
    {
      "children": [
        14
      ],
      "matrix": [
        1.0,
        0.0,
        0.0,
        0.0,
        0.0,
        1.0,
        0.0,
        0.0,
        0.0,
        0.0,
        1.0,
        0.0,
        0.0,
        1.5844500000000001,
        0.43040000000000006,
        1.0
      ],
      "name": "UpperCanonHolder"
    },
    {
      "mesh": 7,
      "name": "UpperCanonHolder_0"
    },
    {
      "children": [
        16,
        17
      ],
      "matrix": [
        1.0,
        0.0,
        0.0,
        0.0,
        0.0,
        1.0,
        0.0,
        0.0,
        0.0,
        0.0,
        1.0,
        0.0,
        0.0,
        1.61147,
        0.5688400000000001,
        1.0
      ],
      "name": "UpperCanon"
    },
    {
      "mesh": 8,
      "name": "UpperCanon_0"
    },
    {
      "mesh": 9,
      "name": "UpperCanon_1"
    },
    {
      "children": [
        19
      ],
      "matrix": [
        -1.0,
        0.0,
        -0.0,
        0.0,
        0.0,
        1.0,
        0.0,
        0.0,
        0.0,
        0.0,
        -1.0,
        0.0,
        0.0,
        0.99349,
        -0.16485000000000002,
        1.0
      ],
      "name": "LowerCanonHolder"
    },
    {
      "mesh": 10,
      "name": "LowerCanonHolder_0"
    },
    {
      "children": [
        21,
        22
      ],
      "matrix": [
        -1.0,
        0.0,
        -0.0,
        0.0,
        0.0,
        1.0,
        0.0,
        0.0,
        0.0,
        0.0,
        -1.0,
        0.0,
        0.0,
        1.0205199999999999,
        -0.30329,
        1.0
      ],
      "name": "LowerCanon"
    },
    {
      "mesh": 11,
      "name": "LowerCanon_0"
    },
    {
      "mesh": 12,
      "name": "LowerCanon_1"
    },
    {
      "children": [
        24,
        25
      ],
      "name": "Engines"
    },
    {
      "mesh": 13,
      "name": "Engines_0"
    },
    {
      "mesh": 14,
      "name": "Engines_1"
    },
    {
      "children": [
        27,
        28,
        29
      ],
      "name": "Greebles1"
    },
    {
      "mesh": 15,
      "name": "Greebles1_0"
    },
    {
      "mesh": 16,
      "name": "Greebles1_1"
    },
    {
      "mesh": 17,
      "name": "Greebles1_2"
    },
    {
      "children": [
        31,
        32
      ],
      "matrix": [
        0.97778,
        0.0,
        0.20962,
        0.0,
        0.0,
        1.0,
        0.0,
        0.0,
        -0.20962,
        0.0,
        0.97778,
        0.0,
        0.0,
        0.0,
        0.0,
        1.0
      ],
      "name": "Greebles2"
    },
    {
      "mesh": 18,
      "name": "Greebles2_0"
    },
    {
      "mesh": 19,
      "name": "Greebles2_1"
    }
  ],
  "scene": 0,
  "scenes": [
    {
      "name": "Sketchfab_Scene",
      "nodes": [
        0
      ]
    }
  ]
}