{
  "accessors": [
    {
      "bufferView": 2,
      "componentType": 5126,
      "count": 3200,
      "max": [
        1.8250572681427002,
        0.4483611583709717,
        0.9301239252090454
      ],
      "min": [
        -1.1667001247406006,
        -0.31737446784973145,
        -0.9301232695579529
      ],
      "type": "VEC3"
    },
    {
      "bufferView": 2,
      "byteOffset": 38400,
      "componentType": 5126,
      "count": 3200,
      "max": [
        0.9951847791671753,
        1.0,
        0.9951848387718201
      ],
      "min": [
        -0.9951848983764648,
        -1.0,
        -0.9951848387718201
      ],
      "type": "VEC3"
    },
    {
      "bufferView": 1,
      "componentType": 5126,
      "count": 3200,
      "max": [
        1.0,
        1.0
      ],
      "min": [
        0.0,
        0.0
      ],
      "type": "VEC2"
    },
    {
      "bufferView": 0,
      "componentType": 5125,
      "count": 4968,
      "type": "SCALAR"
    },
    {
      "bufferView": 2,
      "byteOffset": 76800,
      "componentType": 5126,
      "count": 2456,
      "max": [
        1.0,
        0.6836162805557251,
        1.0
      ],
      "min": [
        -1.0,
        -1.6849594116210938,
        -1.0
      ],
      "type": "VEC3"
    },
    {
      "bufferView": 2,
      "byteOffset": 106272,
      "componentType": 5126,
      "count": 2456,
      "max": [
        1.0,
        0.9109472632408142,
        1.0
      ],
      "min": [
        -1.0,
        -0.9109464883804321,
        -1.0
      ],
      "type": "VEC3"
    },
    {
      "bufferView": 1,
      "byteOffset": 25600,
      "componentType": 5126,
      "count": 2456,
      "max": [
        0.875,
        1.0
      ],
      "min": [
        0.125,
        0.0
      ],
      "type": "VEC2"
    },
    {
      "bufferView": 0,
      "byteOffset": 19872,
      "componentType": 5125,
      "count": 3948,
      "type": "SCALAR"
    },
    {
      "bufferView": 2,
      "byteOffset": 135744,
      "componentType": 5126,
      "count": 1612,
      "max": [
        12.035848617553711,
        1.9029827117919922,
        1.6591798067092896
      ],
      "min": [
        -7.389793395996094,
        -1.4274797439575195,
        -1.6712826490402222
      ],
      "type": "VEC3"
    },
    {
      "bufferView": 2,
      "byteOffset": 155088,
      "componentType": 5126,
      "count": 1612,
      "max": [
        1.0,
        1.0,
        1.0
      ],
      "min": [
        -1.0,
        -1.0,
        -1.0
      ],
      "type": "VEC3"
    },
    {
      "bufferView": 1,
      "byteOffset": 45248,
      "componentType": 5126,
      "count": 1612,
      "max": [
        1.0,
        1.0
      ],
      "min": [
        0.0,
        0.0
      ],
      "type": "VEC2"
    },
    {
      "bufferView": 0,
      "byteOffset": 35664,
      "componentType": 5125,
      "count": 2712,
      "type": "SCALAR"
    },
    {
      "bufferView": 2,
      "byteOffset": 174432,
      "componentType": 5126,
      "count": 624,
      "max": [
        1.0854629278182983,
        0.2129497528076172,
        1.085463285446167
      ],
      "min": [
        -1.085463285446167,
        -0.14844417572021484,
        -1.0854626893997192
      ],
      "type": "VEC3"
    },
    {
      "bufferView": 2,
      "byteOffset": 181920,
      "componentType": 5126,
      "count": 624,
      "max": [
        1.0,
        1.0,
        1.0
      ],
      "min": [
        -1.0,
        -1.0,
        -1.0
      ],
      "type": "VEC3"
    },
    {
      "bufferView": 1,
      "byteOffset": 58144,
      "componentType": 5126,
      "count": 624,
      "max": [
        1.0,
        1.0
      ],
      "min": [
        0.0,
        0.012066822499036789
      ],
      "type": "VEC2"
    },
    {
      "bufferView": 0,
      "byteOffset": 46512,
      "componentType": 5125,
      "count": 1002,
      "type": "SCALAR"
    },
    {
      "bufferView": 2,
      "byteOffset": 189408,
      "componentType": 5126,
      "count": 3996,
      "max": [
        0.9945499300956726,
        1.0844870805740356,
        0.9928095936775208
      ],
      "min": [
        -1.002629280090332,
        -0.9155129194259644,
        -1.0043696165084839
      ],
      "type": "VEC3"
    },
    {
      "bufferView": 2,
      "byteOffset": 237360,
      "componentType": 5126,
      "count": 3996,
      "max": [
        0.9999939799308777,
        1.0,
        0.9999938011169434
      ],
      "min": [
        -0.9999999403953552,
        -1.0,
        -1.0
      ],
      "type": "VEC3"
    },
    {
      "bufferView": 1,
      "byteOffset": 63136,
      "componentType": 5126,
      "count": 3996,
      "max": [
        1.0,
        1.0
      ],
      "min": [
        0.0,
        0.0
      ],
      "type": "VEC2"
    },
    {
      "bufferView": 0,
      "byteOffset": 50520,
      "componentType": 5125,
      "count": 16863,
      "type": "SCALAR"
    },
    {
      "bufferView": 2,
      "byteOffset": 285312,
      "componentType": 5126,
      "count": 3649,
      "max": [
        1.5565177202224731,
        1.8454673290252686,
        1.4821054935455322
      ],
      "min": [
        -1.800757884979248,
        -2.2393486499786377,
        -1.4819883108139038
      ],
      "type": "VEC3"
    },
    {
      "bufferView": 2,
      "byteOffset": 329100,
      "componentType": 5126,
      "count": 3649,
      "max": [
        1.0,
        1.0,
        1.0
      ],
      "min": [
        -1.0,
        -1.0,
        -1.0
      ],
      "type": "VEC3"
    },
    {
      "bufferView": 1,
      "byteOffset": 95104,
      "componentType": 5126,
      "count": 3649,
      "max": [
        1.0,
        1.0
      ],
      "min": [
        0.0,
        0.010000020265579224
      ],
      "type": "VEC2"
    },
    {
      "bufferView": 0,
      "byteOffset": 117972,
      "componentType": 5125,
      "count": 8919,
      "type": "SCALAR"
    },
    {
      "bufferView": 2,
      "byteOffset": 372888,
      "componentType": 5126,
      "count": 196,
      "max": [
        1.0000017881393433,
        19.67509651184082,
        1.0000156164169312
      ],
      "min": [
        -1.0000008344650269,
        -56.34796905517578,
        -1.000004768371582
      ],
      "type": "VEC3"
    },
    {
      "bufferView": 2,
      "byteOffset": 375240,
      "componentType": 5126,
      "count": 196,
      "max": [
        0.9928911924362183,
        0.9367564916610718,
        0.9928911924362183
      ],
      "min": [
        -0.9928911924362183,
        -0.6857142448425293,
        -0.9928911924362183
      ],
      "type": "VEC3"
    },
    {
      "bufferView": 1,
      "byteOffset": 124296,
      "componentType": 5126,
      "count": 196,
      "max": [
        1.0,
        1.0
      ],
      "min": [
        0.0,
        0.01000000536441803
      ],
      "type": "VEC2"
    },
    {
      "bufferView": 0,
      "byteOffset": 153648,
      "componentType": 5125,
      "count": 756,
      "type": "SCALAR"
    }
  ],
  "asset": {
    "extras": {
      "author": "zombpablo (https://sketchfab.com/zombpablo)",
      "license": "CC-BY-4.0 (http://creativecommons.org/licenses/by/4.0/)",
      "source": "https://sketchfab.com/3d-models/darth-vader-lightsaber-62e0ef41343d4bce8f6c9e13f08da7de",
      "title": "Darth Vader - LightSaber"
    },
    "generator": "Sketchfab-12.66.0",
    "version": "2.0"
  },
  "bufferViews": [
    {
      "buffer": 0,
      "byteLength": 156672,
      "name": "floatBufferViews",
      "target": 34963
    },
    {
      "buffer": 0,
      "byteLength": 125864,
      "byteOffset": 156672,
      "byteStride": 8,
      "name": "floatBufferViews",
      "target": 34962
    },
    {
      "buffer": 0,
      "byteLength": 377592,
      "byteOffset": 282536,
      "byteStride": 12,
      "name": "floatBufferViews",
      "target": 34962
    }
  ],
  "buffers": [
    {
      "byteLength": 660128,
      "uri": "scene.bin"
    }
  ],
  "images": [
    {
      "uri": "textures/Material.014_baseColor.jpeg"
    },
    {
      "uri": "textures/Material.010_baseColor.jpeg"
    }
  ],
  "materials": [
    {
      "doubleSided": true,
      "name": "Material.014",
      "pbrMetallicRoughness": {
        "baseColorTexture": {
          "index": 0
        },
        "metallicFactor": 0.0,
        "roughnessFactor": 0.5
      }
    },
    {
      "doubleSided": true,
      "name": "Material.015",
      "pbrMetallicRoughness": {
        "baseColorTexture": {
          "index": 0
        },
        "metallicFactor": 0.0,
        "roughnessFactor": 0.5
      }
    },
    {
      "doubleSided": true,
      "name": "Material.010",
      "pbrMetallicRoughness": {
        "baseColorTexture": {
          "index": 1
        },
        "metallicFactor": 0.0
      }
    },
    {
      "doubleSided": true,
      "name": "Material.013"
    },
    {
      "doubleSided": true,
      "name": "Material.017",
      "pbrMetallicRoughness": {
        "metallicFactor": 0.472727,
        "roughnessFactor": 0.277273
      }
    },
    {
      "doubleSided": true,
      "emissiveFactor": [
        1.0,
        0.0,
        0.0037678
      ],
      "name": "Material.016"
    }
  ],
  "meshes": [
    {
      "name": "Object_0",
      "primitives": [
        {
          "attributes": {
            "NORMAL": 1,
            "POSITION": 0,
            "TEXCOORD_0": 2
          },
          "indices": 3,
          "material": 0,
          "mode": 4
        }
      ]
    },
    {
      "name": "Object_1",
      "primitives": [
        {
          "attributes": {
            "NORMAL": 5,
            "POSITION": 4,
            "TEXCOORD_0": 6
          },
          "indices": 7,
          "material": 1,
          "mode": 4
        }
      ]
    },
    {
      "name": "Object_2",
      "primitives": [
        {
          "attributes": {
            "NORMAL": 9,
            "POSITION": 8,
            "TEXCOORD_0": 10
          },
          "indices": 11,
          "material": 2,
          "mode": 4
        }
      ]
    },
    {
      "name": "Object_3",
      "primitives": [
        {
          "attributes": {
            "NORMAL": 13,
            "POSITION": 12,
            "TEXCOORD_0": 14
          },
          "indices": 15,
          "material": 3,
          "mode": 4
        }
      ]
    },
    {
      "name": "Object_4",
      "primitives": [
        {
          "attributes": {
            "NORMAL": 17,
            "POSITION": 16,
            "TEXCOORD_0": 18
          },
          "indices": 19,
          "material": 4,
          "mode": 4
        }
      ]
    },
    {
      "name": "Object_5",
      "primitives": [
        {
          "attributes": {
            "NORMAL": 21,
            "POSITION": 20,
            "TEXCOORD_0": 22
          },
          "indices": 23,
          "material": 2,
          "mode": 4
        }
      ]
    },
    {
      "name": "Object_6",
      "primitives": [
        {
          "attributes": {
            "NORMAL": 25,
            "POSITION": 24,
            "TEXCOORD_0": 26
          },
          "indices": 27,
          "material": 5,
          "mode": 4
        }
      ]
    }
  ],
  "nodes": [
    {
      "children": [
        1
      ],
      "matrix": [
        1.0,
        0.0,
        0.0,
        0.0,
        0.0,
        2.220446049250313e-16,
        -1.0,
        0.0,
        0.0,
        1.0,
        2.220446049250313e-16,
        0.0,
        0.0,
        0.0,
        0.0,
        1.0
      ],
      "name": "Sketchfab_model"
    },
    {
      "children": [
        2
      ],
      "name": "root"
    },
    {
      "children": [
        3,
        5,
        7,
        9,
        11,
        13,
        15
      ],
      "matrix": [
        1.0,
        0.0,
        0.0,
        0.0,
        0.0,
        2.220446049250313e-16,
        1.0,
        0.0,
        0.0,
        -1.0,
        2.220446049250313e-16,
        0.0,
        0.0,
        0.0,
        0.0,
        1.0
      ],
      "name": "GLTF_SceneRootNode"
    },
    {
      "children": [
        4
      ],
      "matrix": [
        5.032178972036692e-08,
        -0.5969796180723357,
        -4.530878945128062e-07,
        0.0,
        -0.5969796180723357,
        -5.032144586983459e-08,
        -4.5308793270526055e-07,
        0.0,
        4.530878945128062e-07,
        4.5308793270526055e-07,
        -0.5969796180721659,
        0.0,
        -0.8806978464126587,
        10.477766990661621,
        -0.1893143653869629,
        1.0
      ],
      "name": "Torus_1"
    },
    {
      "mesh": 0,
      "name": "Object_4"
    },
    {
      "children": [
        6
      ],
      "matrix": [
        6.43709302865487e-08,
        -0.7636505961418125,
        -0.0,
        0.0,
        0.16598553955554904,
        1.3991534412841922e-08,
        0.0,
        0.0,
        0.0,
        0.0,
        0.2000672072172165,
        0.0,
        1.5554746389389038,
        6.307295799255371,
        -0.1893148422241211,
        1.0
      ],
      "name": "Cube_2"
    },
    {
      "mesh": 1,
      "name": "Object_6"
    },
    {
      "children": [
        8
      ],
      "matrix": [
        5.03216177288227e-08,
        -0.5969796180725077,
        -0.0,
        0.0,
        0.5969796180725077,
        5.03216177288227e-08,
        0.0,
        0.0,
        0.0,
        0.0,
        0.5969796180725098,
        0.0,
        -0.09748804569244385,
        7.771040916442871,
        -0.18999385833740234,
        1.0
      ],
      "name": "Cube.001_3"
    },
    {
      "mesh": 2,
      "name": "Object_8"
    },
    {
      "children": [
        10
      ],
      "matrix": [
        -0.7856425642967169,
        -9.365594775392762e-08,
        0.0,
        0.0,
        9.365594775392762e-08,
        -0.7856425642967169,
        0.0,
        0.0,
        0.0,
        0.0,
        0.7856425642967224,
        0.0,
        0.044677138328552246,
        0.31931978464126587,
        -0.18931293487548828,
        1.0
      ],
      "name": "Cylinder.012_4"
    },
    {
      "mesh": 3,
      "name": "Object_10"
    },
    {
      "children": [
        12
      ],
      "matrix": [
        0.7880762219429016,
        0.0,
        0.0,
        0.0,
        0.0,
        -4.953598499298096,
        1.2186020197412526e-13,
        0.0,
        0.0,
        -1.9386942157418558e-14,
        -0.7880762219429016,
        0.0,
        0.04786050319671631,
        5.684935569763184,
        -0.19387054443359375,
        1.0
      ],
      "name": "Cylinder.010_5"
    },
    {
      "mesh": 4,
      "name": "Object_12"
    },
    {
      "children": [
        14
      ],
      "matrix": [
        5.03216177288227e-08,
        -0.5969796180725077,
        -0.0,
        0.0,
        0.5969796180725077,
        5.03216177288227e-08,
        0.0,
        0.0,
        0.0,
        0.0,
        0.5969796180725098,
        0.0,
        0.4967750310897827,
        6.233733177185059,
        -0.18934917449951172,
        1.0
      ],
      "name": "Cube.002_6"
    },
    {
      "mesh": 5,
      "name": "Object_14"
    },
    {
      "children": [
        16
      ],
      "matrix": [
        -0.3427339741196706,
        0.0,
        -0.3410145475733258,
        0.0,
        0.0,
        0.4834846258163452,
        -0.0,
        0.0,
        0.3410145475733258,
        0.0,
        -0.3427339741196706,
        0.0,
        0.020752310752868652,
        37.65312194824219,
        -0.22657108306884766,
        1.0
      ],
      "name": "Cylinder.009_7"
    },
    {
      "mesh": 6,
      "name": "Object_16"
    }
  ],
  "samplers": [
    {
      "magFilter": 9729,
      "minFilter": 9987,
      "wrapS": 10497,
      "wrapT": 10497
    }
  ],
  "scene": 0,
  "scenes": [
    {
      "name": "Sketchfab_Scene",
      "nodes": [
        0
      ]
    }
  ],
  "textures": [
    {
      "sampler": 0,
      "source": 0
    },
    {
      "sampler": 0,
      "source": 1
    }
  ]
}
