{
  "accessors": [
    {
      "bufferView": 2,
      "componentType": 5126,
      "count": 30766,
      "max": [
        1.6439000368118286,
        1.7343499660491943,
        8.551389694213867
      ],
      "min": [
        -1.6439000368118286,
        -2.2770700454711914,
        0.0
      ],
      "type": "VEC3"
    },
    {
      "bufferView": 2,
      "byteOffset": 369192,
      "componentType": 5126,
      "count": 30766,
      "max": [
        1.0,
        1.0,
        1.0
      ],
      "min": [
        -1.0,
        -1.0,
        -1.0
      ],
      "type": "VEC3"
    },
    {
      "bufferView": 1,
      "componentType": 5126,
      "count": 30766,
      "max": [
        20.5,
        20.5
      ],
      "min": [
        -19.5,
        -19.5
      ],
      "type": "VEC2"
    },
    {
      "bufferView": 0,
      "componentType": 5125,
      "count": 76920,
      "type": "SCALAR"
    },
    {
      "bufferView": 2,
      "byteOffset": 738384,
      "componentType": 5126,
      "count": 316,
      "max": [
        1.2466599941253662,
        1.035730004310608,
        7.7953200340271
      ],
      "min": [
        -1.3611299991607666,
        -2.9460699558258057,
        5.968870162963867
      ],
      "type": "VEC3"
    },
    {
      "bufferView": 2,
      "byteOffset": 742176,
      "componentType": 5126,
      "count": 316,
      "max": [
        0.0021698970813304186,
        0.9854041337966919,
        0.2630108892917633
      ],
      "min": [
        -0.002170023275539279,
        -1.0,
        0.0
      ],
      "type": "VEC3"
    },
    {
      "bufferView": 1,
      "byteOffset": 246128,
      "componentType": 5126,
      "count": 316,
      "max": [
        16.106809616088867,
        20.114269256591797
      ],
      "min": [
        -12.4544095993042,
        -17.64990997314453
      ],
      "type": "VEC2"
    },
    {
      "bufferView": 0,
      "byteOffset": 307680,
      "componentType": 5125,
      "count": 828,
      "type": "SCALAR"
    },
    {
      "bufferView": 2,
      "byteOffset": 745968,
      "componentType": 5126,
      "count": 9071,
      "max": [
        1.4674500226974487,
        0.5087699890136719,
        8.245610237121582
      ],
      "min": [
        -1.405460000038147,
        -3.1843700408935547,
        5.745950222015381
      ],
      "type": "VEC3"
    },
    {
      "bufferView": 2,
      "byteOffset": 854820,
      "componentType": 5126,
      "count": 9071,
      "max": [
        1.0,
        1.0,
        1.0
      ],
      "min": [
        -1.0,
        -1.0,
        -1.0
      ],
      "type": "VEC3"
    },
    {
      "bufferView": 1,
      "byteOffset": 248656,
      "componentType": 5126,
      "count": 9071,
      "max": [
        20.44400978088379,
        20.47270965576172
      ],
      "min": [
        -19.5,
        -19.5
      ],
      "type": "VEC2"
    },
    {
      "bufferView": 0,
      "byteOffset": 310992,
      "componentType": 5125,
      "count": 24486,
      "type": "SCALAR"
    },
    {
      "bufferView": 3,
      "componentType": 5126,
      "count": 1,
      "max": [
        1.0,
        0.0,
        0.0,
        0.0,
        0.0,
        1.0,
        0.0,
        0.0,
        0.0,
        0.0,
        1.0,
        0.0,
        0.0,
        0.0,
        0.0,
        1.0
      ],
      "min": [
        1.0,
        0.0,
        0.0,
        0.0,
        0.0,
        1.0,
        0.0,
        0.0,
        0.0,
        0.0,
        1.0,
        0.0,
        0.0,
        0.0,
        0.0,
        1.0
      ],
      "type": "MAT4"
    }
  ],
  "asset": {
    "extras": {
      "author": "Daniel (https://sketchfab.com/DanielAndersson)",
      "license": "CC-BY-4.0 (http://creativecommons.org/licenses/by/4.0/)",
      "source": "https://sketchfab.com/3d-models/star-wars-at-st-28597dc7d8dd4df09948c24456979002",
      "title": "Star Wars: AT-ST"
    },
    "generator": "Sketchfab-12.67.0",
    "version": "2.0"
  },
  "bufferViews": [
    {
      "buffer": 0,
      "byteLength": 408936,
      "name": "floatBufferViews",
      "target": 34963
    },
    {
      "buffer": 0,
      "byteLength": 321224,
      "byteOffset": 408936,
      "byteStride": 8,
      "name": "floatBufferViews",
      "target": 34962
    },
    {
      "buffer": 0,
      "byteLength": 963672,
      "byteOffset": 730160,
      "byteStride": 12,
      "name": "floatBufferViews",
      "target": 34962
    },
    {
      "buffer": 0,
      "byteLength": 64,
      "byteOffset": 1693832,
      "name": "floatBufferViews"
    }
  ],
  "buffers": [
    {
      "byteLength": 1693896,
      "uri": "scene.bin"
    }
  ],
  "images": [
    {
      "uri": "textures/ScratchedMetal_baseColor.jpeg"
    },
    {
      "uri": "textures/ScratchedMetal_metallicRoughness.png"
    }
  ],
  "materials": [
    {
      "doubleSided": true,
      "name": "ScratchedMetal",
      "pbrMetallicRoughness": {
        "baseColorTexture": {
          "index": 0
        },
        "metallicRoughnessTexture": {
          "index": 1
        },
        "roughnessFactor": 0.6
      }
    },
    {
      "doubleSided": true,
      "name": "Dark",
      "pbrMetallicRoughness": {
        "baseColorFactor": [
          0.0,
          0.0,
          0.0,
          1.0
        ],
        "metallicFactor": 0.0,
        "roughnessFactor": 0.0
      }
    },
    {
      "doubleSided": true,
      "name": "ScratchedMetalDark",
      "pbrMetallicRoughness": {
        "baseColorFactor": [
          0.1,
          0.1,
          0.1,
          1.0
        ],
        "baseColorTexture": {
          "index": 0
        },
        "roughnessFactor": 0.6
      }
    }
  ],
  "meshes": [
    {
      "name": "AT-ST_0",
      "primitives": [
        {
          "attributes": {
            "NORMAL": 1,
            "POSITION": 0,
            "TEXCOORD_0": 2
          },
          "indices": 3,
          "material": 0,
          "mode": 4
        }
      ]
    },
    {
      "name": "AT-ST_1",
      "primitives": [
        {
          "attributes": {
            "NORMAL": 5,
            "POSITION": 4,
            "TEXCOORD_0": 6
          },
          "indices": 7,
          "material": 1,
          "mode": 4
        }
      ]
    },
    {
      "name": "AT-ST_2",
      "primitives": [
        {
          "attributes": {
            "NORMAL": 9,
            "POSITION": 8,
            "TEXCOORD_0": 10
          },
          "indices": 11,
          "material": 2,
          "mode": 4
        }
      ]
    }
  ],
  "nodes": [
    {
      "children": [
        1
      ],
      "matrix": [
        -0.24138571321964264,
        0.026111718267202162,
        0.9700778722763062,
        0.0,
        0.9631373882293701,
        0.1287607997655868,
        0.2361928224563599,
        0.0,
        -0.11874060332775116,
        0.9913318753242493,
        -0.05623018741607644,
        0.0,
        0.8584191203117371,
        -0.12874013185501113,
        0.650631844997406,
        1.0
      ],
      "name": "Sketchfab_model"
    },
    {
      "children": [
        2
      ],
      "name": "Root"
    },
    {
      "children": [
        3,
        4
      ],
      "matrix": [
        1.0,
        0.0,
        0.0,
        0.0,
        0.0,
        1.0,
        0.0,
        0.0,
        0.0,
        0.0,
        1.0,
        0.0,
        0.0,
        -0.5039,
        5.605429999999999,
        1.0
      ],
      "name": "Rigged AT-ST"
    },
    {
      "name": "Rigged AT-ST_rootJoint"
    },
    {
      "children": [
        5,
        6,
        7
      ],
      "matrix": [
        1.0,
        0.0,
        0.0,
        0.0,
        0.0,
        1.0,
        0.0,
        0.0,
        0.0,
        0.0,
        1.0,
        0.0,
        -0.0,
        0.5039,
        -5.605429999999999,
        1.0
      ],
      "name": "AT-ST"
    },
    {
      "mesh": 0,
      "name": "AT-ST_0"
    },
    {
      "mesh": 1,
      "name": "AT-ST_1"
    },
    {
      "mesh": 2,
      "name": "AT-ST_2"
    }
  ],
  "samplers": [
    {
      "magFilter": 9729,
      "minFilter": 9987,
      "wrapS": 10497,
      "wrapT": 10497
    }
  ],
  "scene": 0,
  "scenes": [
    {
      "name": "Sketchfab_Scene",
      "nodes": [
        0
      ]
    }
  ],
  "skins": [
    {
      "inverseBindMatrices": 12,
      "joints": [
        3
      ],
      "skeleton": 3
    }
  ],
  "textures": [
    {
      "sampler": 0,
      "source": 0
    },
    {
      "sampler": 0,
      "source": 1
    }
  ]
}
