{
  "accessors": [
    {
      "bufferView": 2,
      "componentType": 5126,
      "count": 48,
      "max": [
        305.9469909667969,
        94.84200286865234,
        156.72300720214844
      ],
      "min": [
        249.0959930419922,
        67.35050201416016,
        146.12100219726563
      ],
      "type": "VEC3"
    },
    {
      "bufferView": 2,
      "byteOffset": 576,
      "componentType": 5126,
      "count": 48,
      "max": [
        0.17947299778461456,
        0.9642961025238037,
        0.9837629795074463
      ],
      "min": [
        -0.05797940865159035,
        -0.9642961025238037,
        0.258402019739151
      ],
      "type": "VEC3"
    },
    {
      "bufferView": 1,
      "componentType": 5126,
      "count": 48,
      "max": [
        316.7380065917969,
        191.0850067138672
      ],
      "min": [
        -310.302001953125,
        -281.8940124511719
      ],
      "type": "VEC2"
    },
    {
      "bufferView": 0,
      "componentType": 5125,
      "count": 120,
      "type": "SCALAR"
    },
    {
      "bufferView": 2,
      "byteOffset": 1152,
      "componentType": 5126,
      "count": 18,
      "max": [
        312.2170104980469,
        96.63970184326172,
        130.4720001220703
      ],
      "min": [
        302.3599853515625,
        65.55280303955078,
        126.61000061035156
      ],
      "type": "VEC3"
    },
    {
      "bufferView": 2,
      "byteOffset": 1368,
      "componentType": 5126,
      "count": 18,
      "max": [
        0.06476742029190063,
        0.8558403253555298,
        -0.5131691694259644
      ],
      "min": [
        0.06476742029190063,
        -0.8558403253555298,
        -0.5131691694259644
      ],
      "type": "VEC3"
    },
    {
      "bufferView": 1,
      "byteOffset": 384,
      "componentType": 5126,
      "count": 18,
      "max": [
        328.968994140625,
        205.5919952392578
      ],
      "min": [
        -307.3280029296875,
        54.34189987182617
      ],
      "type": "VEC2"
    },
    {
      "bufferView": 0,
      "byteOffset": 480,
      "componentType": 5125,
      "count": 42,
      "type": "SCALAR"
    },
    {
      "bufferView": 2,
      "byteOffset": 1584,
      "componentType": 5126,
      "count": 3198,
      "max": [
        400.3160095214844,
        107.76499938964844,
        149.72300720214844
      ],
      "min": [
        127.09600067138672,
        54.427101135253906,
        106.51699829101563
      ],
      "type": "VEC3"
    },
    {
      "bufferView": 2,
      "byteOffset": 39960,
      "componentType": 5126,
      "count": 3198,
      "max": [
        1.0,
        1.0,
        1.0
      ],
      "min": [
        -0.998719334602356,
        -1.0,
        -1.0
      ],
      "type": "VEC3"
    },
    {
      "bufferView": 1,
      "byteOffset": 528,
      "componentType": 5126,
      "count": 3198,
      "max": [
        372.5799865722656,
        282.2300109863281
      ],
      "min": [
        -362.8290100097656,
        -397.5559997558594
      ],
      "type": "VEC2"
    },
    {
      "bufferView": 0,
      "byteOffset": 648,
      "componentType": 5125,
      "count": 6450,
      "type": "SCALAR"
    },
    {
      "bufferView": 2,
      "byteOffset": 78336,
      "componentType": 5126,
      "count": 5415,
      "max": [
        345.47601318359375,
        255.70799255371094,
        180.3820037841797
      ],
      "min": [
        137.5760040283203,
        -93.51529693603516,
        88.9457015991211
      ],
      "type": "VEC3"
    },
    {
      "bufferView": 2,
      "byteOffset": 143316,
      "componentType": 5126,
      "count": 5415,
      "max": [
        1.0,
        1.0,
        1.0
      ],
      "min": [
        -1.0,
        -1.0,
        -1.0
      ],
      "type": "VEC3"
    },
    {
      "bufferView": 1,
      "byteOffset": 26112,
      "componentType": 5126,
      "count": 5415,
      "max": [
        353.3890075683594,
        351.47698974609375
      ],
      "min": [
        -353.3890075683594,
        -283.80999755859375
      ],
      "type": "VEC2"
    },
    {
      "bufferView": 0,
      "byteOffset": 26448,
      "componentType": 5125,
      "count": 10896,
      "type": "SCALAR"
    },
    {
      "bufferView": 2,
      "byteOffset": 208296,
      "componentType": 5126,
      "count": 4897,
      "max": [
        345.47601318359375,
        254.9709930419922,
        180.3820037841797
      ],
      "min": [
        151.30099487304688,
        109.97699737548828,
        81.06340026855469
      ],
      "type": "VEC3"
    },
    {
      "bufferView": 2,
      "byteOffset": 267060,
      "componentType": 5126,
      "count": 4897,
      "max": [
        1.0,
        1.0,
        1.0
      ],
      "min": [
        -1.0,
        -1.0,
        -1.0
      ],
      "type": "VEC3"
    },
    {
      "bufferView": 1,
      "byteOffset": 69432,
      "componentType": 5126,
      "count": 4897,
      "max": [
        353.3890075683594,
        354.9289855957031
      ],
      "min": [
        -353.3890075683594,
        -297.88800048828125
      ],
      "type": "VEC2"
    },
    {
      "bufferView": 0,
      "byteOffset": 70032,
      "componentType": 5125,
      "count": 10236,
      "type": "SCALAR"
    },
    {
      "bufferView": 2,
      "byteOffset": 325824,
      "componentType": 5126,
      "count": 4936,
      "max": [
        453.4460144042969,
        253.4040069580078,
        180.00900268554688
      ],
      "min": [
        127.34600067138672,
        -92.7780990600586,
        81.06340026855469
      ],
      "type": "VEC3"
    },
    {
      "bufferView": 2,
      "byteOffset": 385056,
      "componentType": 5126,
      "count": 4936,
      "max": [
        1.0,
        1.0,
        1.0
      ],
      "min": [
        -1.0,
        -1.0,
        -1.0
      ],
      "type": "VEC3"
    },
    {
      "bufferView": 1,
      "byteOffset": 108608,
      "componentType": 5126,
      "count": 4936,
      "max": [
        455.4729919433594,
        482.06201171875
      ],
      "min": [
        -481.6659851074219,
        -417.0979919433594
      ],
      "type": "VEC2"
    },
    {
      "bufferView": 0,
      "byteOffset": 110976,
      "componentType": 5125,
      "count": 9324,
      "type": "SCALAR"
    },
    {
      "bufferView": 2,
      "byteOffset": 444288,
      "componentType": 5126,
      "count": 4780,
      "max": [
        200.06399536132813,
        241.02099609375,
        169.03199768066406
      ],
      "min": [
        113.66400146484375,
        -78.82879638671875,
        92.41290283203125
      ],
      "type": "VEC3"
    },
    {
      "bufferView": 2,
      "byteOffset": 501648,
      "componentType": 5126,
      "count": 4780,
      "max": [
        1.0,
        1.0,
        1.0
      ],
      "min": [
        -1.0,
        -1.0,
        -1.0
      ],
      "type": "VEC3"
    },
    {
      "bufferView": 1,
      "byteOffset": 148096,
      "componentType": 5126,
      "count": 4780,
      "max": [
        207.97799682617188,
        336.27301025390625
      ],
      "min": [
        -226.38900756835938,
        -268.6059875488281
      ],
      "type": "VEC2"
    },
    {
      "bufferView": 0,
      "byteOffset": 148272,
      "componentType": 5125,
      "count": 9984,
      "type": "SCALAR"
    },
    {
      "bufferView": 2,
      "byteOffset": 559008,
      "componentType": 5126,
      "count": 3891,
      "max": [
        432.59600830078125,
        92.7654037475586,
        150.72300720214844
      ],
      "min": [
        132.5959930419922,
        69.4271011352539,
        138.76300048828125
      ],
      "type": "VEC3"
    },
    {
      "bufferView": 2,
      "byteOffset": 605700,
      "componentType": 5126,
      "count": 3891,
      "max": [
        1.0,
        1.0,
        1.0
      ],
      "min": [
        -1.0,
        -1.0,
        -1.0
      ],
      "type": "VEC3"
    },
    {
      "bufferView": 1,
      "byteOffset": 186336,
      "componentType": 5126,
      "count": 3891,
      "max": [
        278.96099853515625,
        155.06199645996094
      ],
      "min": [
        -276.4639892578125,
        -395.22900390625
      ],
      "type": "VEC2"
    },
    {
      "bufferView": 0,
      "byteOffset": 188208,
      "componentType": 5125,
      "count": 7746,
      "type": "SCALAR"
    },
    {
      "bufferView": 2,
      "byteOffset": 652392,
      "componentType": 5126,
      "count": 650,
      "max": [
        345.47601318359375,
        249.43899536132813,
        174.85000610351563
      ],
      "min": [
        204.78900146484375,
        -87.24659729003906,
        86.59500122070313
      ],
      "type": "VEC3"
    },
    {
      "bufferView": 2,
      "byteOffset": 660192,
      "componentType": 5126,
      "count": 650,
      "max": [
        1.0,
        1.0,
        1.0
      ],
      "min": [
        -0.05797940865159035,
        -1.0,
        -1.0
      ],
      "type": "VEC3"
    },
    {
      "bufferView": 1,
      "byteOffset": 217464,
      "componentType": 5126,
      "count": 650,
      "max": [
        311.7359924316406,
        242.03199768066406
      ],
      "min": [
        -297.17401123046875,
        -279.99200439453125
      ],
      "type": "VEC2"
    },
    {
      "bufferView": 0,
      "byteOffset": 219192,
      "componentType": 5125,
      "count": 1284,
      "type": "SCALAR"
    },
    {
      "bufferView": 2,
      "byteOffset": 667992,
      "componentType": 5126,
      "count": 252,
      "max": [
        418.2749938964844,
        233.95700073242188,
        166.76499938964844
      ],
      "min": [
        116.13899993896484,
        -71.76419830322266,
        94.6802978515625
      ],
      "type": "VEC3"
    },
    {
      "bufferView": 2,
      "byteOffset": 671016,
      "componentType": 5126,
      "count": 252,
      "max": [
        0.08423693478107452,
        0.949121356010437,
        0.9659258723258972
      ],
      "min": [
        -1.0,
        -0.949121356010437,
        -0.9659258723258972
      ],
      "type": "VEC3"
    },
    {
      "bufferView": 1,
      "byteOffset": 222664,
      "componentType": 5126,
      "count": 252,
      "max": [
        437.0270080566406,
        329.3210144042969
      ],
      "min": [
        -410.6809997558594,
        -261.65399169921875
      ],
      "type": "VEC2"
    },
    {
      "bufferView": 0,
      "byteOffset": 224328,
      "componentType": 5125,
      "count": 504,
      "type": "SCALAR"
    }
  ],
  "asset": {
    "extras": {
      "author": "albertomarun (https://sketchfab.com/albertomarun)",
      "license": "CC-BY-4.0 (http://creativecommons.org/licenses/by/4.0/)",
      "source": "https://sketchfab.com/3d-models/star-wars-x-wing-fighter-d401b7ddd7324ac69c533f6caa2fa838",
      "title": "Star Wars - X Wing Fighter"
    },
    "generator": "Sketchfab-12.65.0",
    "version": "2.0"
  },
  "bufferViews": [
    {
      "buffer": 0,
      "byteLength": 226344,
      "name": "floatBufferViews",
      "target": 34963
    },
    {
      "buffer": 0,
      "byteLength": 224680,
      "byteOffset": 226344,
      "byteStride": 8,
      "name": "floatBufferViews",
      "target": 34962
    },
    {
      "buffer": 0,
      "byteLength": 674040,
      "byteOffset": 451024,
      "byteStride": 12,
      "name": "floatBufferViews",
      "target": 34962
    }
  ],
  "buffers": [
    {
      "byteLength": 1125064,
      "uri": "scene.bin"
    }
  ],
  "materials": [
    {
      "doubleSided": true,
      "name": "Color_002",
      "pbrMetallicRoughness": {
        "baseColorFactor": [
          0.776471,
          0.776471,
          0.776471,
          1.0
        ],
        "metallicFactor": 0.0,
        "roughnessFactor": 0.6
      }
    },
    {
      "doubleSided": true,
      "name": "Color_004",
      "pbrMetallicRoughness": {
        "baseColorFactor": [
          0.556863,
          0.556863,
          0.556863,
          1.0
        ],
        "metallicFactor": 0.0,
        "roughnessFactor": 0.6
      }
    },
    {
      "doubleSided": true,
      "name": "Color_006",
      "pbrMetallicRoughness": {
        "baseColorFactor": [
          0.54902,
          0.54902,
          0.54902,
          1.0
        ],
        "metallicFactor": 0.0,
        "roughnessFactor": 0.6
      }
    },
    {
      "doubleSided": true,
      "name": "Color_009",
      "pbrMetallicRoughness": {
        "baseColorFactor": [
          0.0,
          0.0,
          0.0,
          1.0
        ],
        "metallicFactor": 0.0,
        "roughnessFactor": 0.6
      }
    },
    {
      "doubleSided": true,
      "name": "Color_A01",
      "pbrMetallicRoughness": {
        "baseColorFactor": [
          0.768627,
          0.156863,
          0.137255,
          1.0
        ],
        "metallicFactor": 0.0,
        "roughnessFactor": 0.6
      }
    },
    {
      "doubleSided": true,
      "name": "Color_E01",
      "pbrMetallicRoughness": {
        "baseColorFactor": [
          0.952941,
          1.0,
          0.203922,
          1.0
        ],
        "metallicFactor": 0.0,
        "roughnessFactor": 0.6
      }
    },
    {
      "doubleSided": true,
      "name": "FrontColor",
      "pbrMetallicRoughness": {
        "metallicFactor": 0.0,
        "roughnessFactor": 0.6
      }
    }
  ],
  "meshes": [
    {
      "name": "Object_0",
      "primitives": [
        {
          "attributes": {
            "NORMAL": 1,
            "POSITION": 0,
            "TEXCOORD_0": 2
          },
          "indices": 3,
          "material": 2,
          "mode": 4
        }
      ]
    },
    {
      "name": "Object_1",
      "primitives": [
        {
          "attributes": {
            "NORMAL": 5,
            "POSITION": 4,
            "TEXCOORD_0": 6
          },
          "indices": 7,
          "material": 5,
          "mode": 4
        }
      ]
    },
    {
      "name": "Object_2",
      "primitives": [
        {
          "attributes": {
            "NORMAL": 9,
            "POSITION": 8,
            "TEXCOORD_0": 10
          },
          "indices": 11,
          "material": 6,
          "mode": 4
        }
      ]
    },
    {
      "name": "Object_3",
      "primitives": [
        {
          "attributes": {
            "NORMAL": 13,
            "POSITION": 12,
            "TEXCOORD_0": 14
          },
          "indices": 15,
          "material": 0,
          "mode": 4
        }
      ]
    },
    {
      "name": "Object_4",
      "primitives": [
        {
          "attributes": {
            "NORMAL": 17,
            "POSITION": 16,
            "TEXCOORD_0": 18
          },
          "indices": 19,
          "material": 0,
          "mode": 4
        }
      ]
    },
    {
      "name": "Object_5",
      "primitives": [
        {
          "attributes": {
            "NORMAL": 21,
            "POSITION": 20,
            "TEXCOORD_0": 22
          },
          "indices": 23,
          "material": 0,
          "mode": 4
        }
      ]
    },
    {
      "name": "Object_6",
      "primitives": [
        {
          "attributes": {
            "NORMAL": 25,
            "POSITION": 24,
            "TEXCOORD_0": 26
          },
          "indices": 27,
          "material": 1,
          "mode": 4
        }
      ]
    },
    {
      "name": "Object_7",
      "primitives": [
        {
          "attributes": {
            "NORMAL": 29,
            "POSITION": 28,
            "TEXCOORD_0": 30
          },
          "indices": 31,
          "material": 1,
          "mode": 4
        }
      ]
    },
    {
      "name": "Object_8",
      "primitives": [
        {
          "attributes": {
            "NORMAL": 33,
            "POSITION": 32,
            "TEXCOORD_0": 34
          },
          "indices": 35,
          "material": 3,
          "mode": 4
        }
      ]
    },
    {
      "name": "Object_9",
      "primitives": [
        {
          "attributes": {
            "NORMAL": 37,
            "POSITION": 36,
            "TEXCOORD_0": 38
          },
          "indices": 39,
          "material": 4,
          "mode": 4
        }
      ]
    }
  ],
  "nodes": [
    {
      "children": [
        1
      ],
      "matrix": [
        1.0,
        0.0,
        0.0,
        0.0,
        0.0,
        2.220446049250313e-16,
        -1.0,
        0.0,
        0.0,
        1.0,
        2.220446049250313e-16,
        0.0,
        0.0,
        0.0,
        0.0,
        1.0
      ],
      "name": "Sketchfab_model"
    },
    {
      "children": [
        2,
        3,
        4,
        5,
        6,
        7,
        8,
        9,
        10,
        11
      ],
      "name": "x_wing_fighter.obj.cleaner"
    },
    {
      "mesh": 0,
      "name": "Object_2"
    },
    {
      "mesh": 1,
      "name": "Object_3"
    },
    {
      "mesh": 2,
      "name": "Object_4"
    },
    {
      "mesh": 3,
      "name": "Object_5"
    },
    {
      "mesh": 4,
      "name": "Object_6"
    },
    {
      "mesh": 5,
      "name": "Object_7"
    },
    {
      "mesh": 6,
      "name": "Object_8"
    },
    {
      "mesh": 7,
      "name": "Object_9"
    },
    {
      "mesh": 8,
      "name": "Object_10"
    },
    {
      "mesh": 9,
      "name": "Object_11"
    }
  ],
  "scene": 0,
  "scenes": [
    {
      "name": "Sketchfab_Scene",
      "nodes": [
        0
      ]
    }
  ]
}
