{
  "accessors": [
    {
      "bufferView": 2,
      "componentType": 5126,
      "count": 60268,
      "max": [
        1474.5,
        919.0,
        302.20001220703125
      ],
      "min": [
        0.0,
        0.0,
        0.0
      ],
      "type": "VEC3"
    },
    {
      "bufferView": 2,
      "byteOffset": 723216,
      "componentType": 5126,
      "count": 60268,
      "max": [
        1.0,
        1.0,
        1.0
      ],
      "min": [
        -1.0,
        -0.9999997615814209,
        -1.0
      ],
      "type": "VEC3"
    },
    {
      "bufferView": 3,
      "componentType": 5126,
      "count": 60268,
      "max": [
        1.0,
        1.0,
        1.0,
        1.0
      ],
      "min": [
        -1.0,
        -1.0,
        -1.0,
        -1.0
      ],
      "type": "VEC4"
    },
    {
      "bufferView": 1,
      "componentType": 5126,
      "count": 60268,
      "max": [
        0.9978830218315125,
        0.998678982257843
      ],
      "min": [
        0.00027099999715574086,
        0.004447000101208687
      ],
      "type": "VEC2"
    },
    {
      "bufferView": 0,
      "componentType": 5125,
      "count": 153012,
      "type": "SCALAR"
    },
    {
      "bufferView": 2,
      "byteOffset": 1446432,
      "componentType": 5126,
      "count": 477,
      "max": [
        768.3855590820313,
        761.4114379882813,
        271.1300354003906
      ],
      "min": [
        706.1144409179688,
        283.0128479003906,
        183.24984741210938
      ],
      "type": "VEC3"
    },
    {
      "bufferView": 2,
      "byteOffset": 1452156,
      "componentType": 5126,
      "count": 477,
      "max": [
        0.9999996423721313,
        0.99391108751297,
        1.0
      ],
      "min": [
        -0.9999996423721313,
        -0.9839064478874207,
        -0.011836576275527477
      ],
      "type": "VEC3"
    },
    {
      "bufferView": 1,
      "byteOffset": 482144,
      "componentType": 5126,
      "count": 477,
      "max": [
        0.7146959900856018,
        1.11835515499115
      ],
      "min": [
        0.06658542901277542,
        1.0326180458068848
      ],
      "type": "VEC2"
    },
    {
      "bufferView": 0,
      "byteOffset": 612048,
      "componentType": 5125,
      "count": 2064,
      "type": "SCALAR"
    }
  ],
  "asset": {
    "extras": {
      "author": "StarWars-Universe (https://sketchfab.com/SWU)",
      "license": "CC-BY-NC-SA-4.0 (http://creativecommons.org/licenses/by-nc-sa/4.0/)",
      "source": "https://sketchfab.com/3d-models/arc-170-fighter-d2b9834148e84c86a2423148db1f6705",
      "title": "ARC-170 Fighter"
    },
    "generator": "Sketchfab-12.67.0",
    "version": "2.0"
  },
  "bufferViews": [
    {
      "buffer": 0,
      "byteLength": 620304,
      "name": "floatBufferViews",
      "target": 34963
    },
    {
      "buffer": 0,
      "byteLength": 485960,
      "byteOffset": 620304,
      "byteStride": 8,
      "name": "floatBufferViews",
      "target": 34962
    },
    {
      "buffer": 0,
      "byteLength": 1457880,
      "byteOffset": 1106264,
      "byteStride": 12,
      "name": "floatBufferViews",
      "target": 34962
    },
    {
      "buffer": 0,
      "byteLength": 964288,
      "byteOffset": 2564144,
      "byteStride": 16,
      "name": "floatBufferViews",
      "target": 34962
    }
  ],
  "buffers": [
    {
      "byteLength": 3528432,
      "uri": "scene.bin"
    }
  ],
  "images": [
    {
      "uri": "textures/blinn1_baseColor.png"
    },
    {
      "uri": "textures/blinn1_metallicRoughness.png"
    },
    {
      "uri": "textures/blinn1_normal.png"
    }
  ],
  "materials": [
    {
      "doubleSided": true,
      "name": "blinn1",
      "normalTexture": {
        "index": 2
      },
      "pbrMetallicRoughness": {
        "baseColorFactor": [
          0.781656229271079,
          0.781656229271079,
          0.781656229271079,
          1.0
        ],
        "baseColorTexture": {
          "index": 0
        },
        "metallicFactor": 0.5803983676358588,
        "metallicRoughnessTexture": {
          "index": 1
        }
      }
    },
    {
      "alphaMode": "BLEND",
      "doubleSided": true,
      "name": "phong1",
      "pbrMetallicRoughness": {
        "baseColorFactor": [
          0.0,
          0.0,
          0.0,
          0.9038783619238896
        ],
        "metallicFactor": 0.4294549714094438,
        "roughnessFactor": 0.0
      }
    }
  ],
  "meshes": [
    {
      "name": "Object_0",
      "primitives": [
        {
          "attributes": {
            "NORMAL": 1,
            "POSITION": 0,
            "TANGENT": 2,
            "TEXCOORD_0": 3
          },
          "indices": 4,
          "material": 0,
          "mode": 4
        }
      ]
    },
    {
      "name": "Object_1",
      "primitives": [
        {
          "attributes": {
            "NORMAL": 6,
            "POSITION": 5,
            "TEXCOORD_0": 7
          },
          "indices": 8,
          "material": 1,
          "mode": 4
        }
      ]
    }
  ],
  "nodes": [
    {
      "children": [
        1
      ],
      "matrix": [
        0.00872464757412672,
        0.0,
        0.0,
        0.0,
        0.0,
        1.9372609237071004e-18,
        -0.00872464757412672,
        0.0,
        0.0,
        0.00872464757412672,
        1.9372609237071004e-18,
        0.0,
        0.0,
        0.0,
        0.0,
        1.0
      ],
      "name": "Sketchfab_model"
    },
    {
      "children": [
        2
      ],
      "matrix": [
        1.0,
        0.0,
        0.0,
        0.0,
        0.0,
        1.0,
        0.0,
        0.0,
        0.0,
        0.0,
        1.0,
        0.0,
        -737.25,
        -459.5,
        -0.0,
        1.0
      ],
      "name": "Arc170.obj.cleaner.materialmerger.gles"
    },
    {
      "children": [
        3,
        4
      ],
      "name": "Object_2"
    },
    {
      "mesh": 0,
      "name": "Object_3"
    },
    {
      "mesh": 1,
      "name": "Object_4"
    }
  ],
  "samplers": [
    {
      "magFilter": 9729,
      "minFilter": 9987,
      "wrapS": 10497,
      "wrapT": 10497
    }
  ],
  "scene": 0,
  "scenes": [
    {
      "name": "Sketchfab_Scene",
      "nodes": [
        0
      ]
    }
  ],
  "textures": [
    {
      "sampler": 0,
      "source": 0
    },
    {
      "sampler": 0,
      "source": 1
    },
    {
      "sampler": 0,
      "source": 2
    }
  ]
}
