{
  "accessors": [
    {
      "bufferView": 2,
      "componentType": 5126,
      "count": 4393,
      "max": [
        10.01331901550293,
        10.013317108154297,
        6.699452877044678
      ],
      "min": [
        -10.01331901550293,
        -10.013319969177246,
        -6.628984451293945
      ],
      "type": "VEC3"
    },
    {
      "bufferView": 2,
      "byteOffset": 52716,
      "componentType": 5126,
      "count": 4393,
      "max": [
        0.9993822574615479,
        0.9993826746940613,
        1.0
      ],
      "min": [
        -0.9993833899497986,
        -0.9993834495544434,
        -1.0
      ],
      "type": "VEC3"
    },
    {
      "bufferView": 3,
      "componentType": 5126,
      "count": 4393,
      "max": [
        0.9999518990516663,
        0.9999518394470215,
        0.9997797608375549,
        1.0
      ],
      "min": [
        -1.0,
        -0.9999582767486572,
        -0.9996927380561829,
        -1.0
      ],
      "type": "VEC4"
    },
    {
      "bufferView": 1,
      "componentType": 5126,
      "count": 4393,
      "max": [
        0.9949117302894592,
        0.9929764270782471
      ],
      "min": [
        0.005069375038146973,
        0.00507107749581337
      ],
      "type": "VEC2"
    },
    {
      "bufferView": 1,
      "byteOffset": 35144,
      "componentType": 5126,
      "count": 4393,
      "max": [
        0.9949117302894592,
        0.9929764270782471
      ],
      "min": [
        0.005069375038146973,
        0.00507107749581337
      ],
      "type": "VEC2"
    },
    {
      "bufferView": 1,
      "byteOffset": 70288,
      "componentType": 5126,
      "count": 4393,
      "max": [
        0.9949117302894592,
        0.9929764270782471
      ],
      "min": [
        0.005069375038146973,
        0.00507107749581337
      ],
      "type": "VEC2"
    },
    {
      "bufferView": 0,
      "componentType": 5125,
      "count": 13470,
      "type": "SCALAR"
    },
    {
      "bufferView": 2,
      "byteOffset": 105432,
      "componentType": 5126,
      "count": 772,
      "max": [
        14.6308012008667,
        15.836734771728516,
        10.177698135375977
      ],
      "min": [
        -7.978531837463379,
        -15.508773803710938,
        -4.798913955688477
      ],
      "type": "VEC3"
    },
    {
      "bufferView": 2,
      "byteOffset": 114696,
      "componentType": 5126,
      "count": 772,
      "max": [
        1.0,
        1.0,
        1.0
      ],
      "min": [
        -1.0,
        -1.0,
        -1.0
      ],
      "type": "VEC3"
    },
    {
      "bufferView": 3,
      "byteOffset": 70288,
      "componentType": 5126,
      "count": 772,
      "max": [
        1.0,
        1.0,
        1.0,
        1.0
      ],
      "min": [
        -1.0,
        -1.0,
        -1.0,
        1.0
      ],
      "type": "VEC4"
    },
    {
      "bufferView": 1,
      "byteOffset": 105432,
      "componentType": 5126,
      "count": 772,
      "max": [
        0.9923455119132996,
        0.9588614702224731
      ],
      "min": [
        0.005070120096206665,
        0.005073976702988148
      ],
      "type": "VEC2"
    },
    {
      "bufferView": 1,
      "byteOffset": 111608,
      "componentType": 5126,
      "count": 772,
      "max": [
        0.9923455119132996,
        0.9588614702224731
      ],
      "min": [
        0.005070120096206665,
        0.005073976702988148
      ],
      "type": "VEC2"
    },
    {
      "bufferView": 1,
      "byteOffset": 117784,
      "componentType": 5126,
      "count": 772,
      "max": [
        0.9923455119132996,
        0.9588614702224731
      ],
      "min": [
        0.005070120096206665,
        0.005073976702988148
      ],
      "type": "VEC2"
    },
    {
      "bufferView": 0,
      "byteOffset": 53880,
      "componentType": 5125,
      "count": 1956,
      "type": "SCALAR"
    },
    {
      "bufferView": 2,
      "byteOffset": 123960,
      "componentType": 5126,
      "count": 1957,
      "max": [
        10.6967191696167,
        7.760406017303467,
        13.378652572631836
      ],
      "min": [
        -10.696720123291016,
        -7.760406017303467,
        -5.81157112121582
      ],
      "type": "VEC3"
    },
    {
      "bufferView": 2,
      "byteOffset": 147444,
      "componentType": 5126,
      "count": 1957,
      "max": [
        1.0,
        1.0,
        1.0
      ],
      "min": [
        -1.0,
        -1.0,
        -1.0
      ],
      "type": "VEC3"
    },
    {
      "bufferView": 3,
      "byteOffset": 82640,
      "componentType": 5126,
      "count": 1957,
      "max": [
        1.0,
        1.0,
        1.0,
        1.0
      ],
      "min": [
        -1.0,
        -1.0,
        -1.0,
        1.0
      ],
      "type": "VEC4"
    },
    {
      "bufferView": 1,
      "byteOffset": 123960,
      "componentType": 5126,
      "count": 1957,
      "max": [
        0.9605990052223206,
        0.9564197063446045
      ],
      "min": [
        0.005071285180747509,
        0.005068788770586252
      ],
      "type": "VEC2"
    },
    {
      "bufferView": 1,
      "byteOffset": 139616,
      "componentType": 5126,
      "count": 1957,
      "max": [
        0.9605990052223206,
        0.9564197063446045
      ],
      "min": [
        0.005071285180747509,
        0.005068788770586252
      ],
      "type": "VEC2"
    },
    {
      "bufferView": 1,
      "byteOffset": 155272,
      "componentType": 5126,
      "count": 1957,
      "max": [
        0.9605990052223206,
        0.9564197063446045
      ],
      "min": [
        0.005071285180747509,
        0.005068788770586252
      ],
      "type": "VEC2"
    },
    {
      "bufferView": 0,
      "byteOffset": 61704,
      "componentType": 5125,
      "count": 8154,
      "type": "SCALAR"
    },
    {
      "bufferView": 2,
      "byteOffset": 170928,
      "componentType": 5126,
      "count": 4225,
      "max": [
        1.0308212041854858,
        0.9385830760002136,
        0.2523765563964844
      ],
      "min": [
        -0.7355843782424927,
        -1.0629768371582031,
        -0.6522327065467834
      ],
      "type": "VEC3"
    },
    {
      "bufferView": 2,
      "byteOffset": 221628,
      "componentType": 5126,
      "count": 4225,
      "max": [
        0.970858633518219,
        0.8380207419395447,
        0.9999597072601318
      ],
      "min": [
        -0.9974976778030396,
        -0.9586403965950012,
        -0.22187180817127228
      ],
      "type": "VEC3"
    },
    {
      "bufferView": 3,
      "byteOffset": 113952,
      "componentType": 5126,
      "count": 4225,
      "max": [
        0.01479448564350605,
        0.4452930986881256,
        0.9560140371322632,
        1.0
      ],
      "min": [
        -0.9999810457229614,
        -0.6276102662086487,
        -0.9794959425926208,
        1.0
      ],
      "type": "VEC4"
    },
    {
      "bufferView": 1,
      "byteOffset": 170928,
      "componentType": 5126,
      "count": 4225,
      "max": [
        0.269590824842453,
        0.29080092906951904
      ],
      "min": [
        0.005066578276455402,
        0.0053346846252679825
      ],
      "type": "VEC2"
    },
    {
      "bufferView": 1,
      "byteOffset": 204728,
      "componentType": 5126,
      "count": 4225,
      "max": [
        0.269590824842453,
        0.29080092906951904
      ],
      "min": [
        0.005066578276455402,
        0.0053346846252679825
      ],
      "type": "VEC2"
    },
    {
      "bufferView": 1,
      "byteOffset": 238528,
      "componentType": 5126,
      "count": 4225,
      "max": [
        0.269590824842453,
        0.29080092906951904
      ],
      "min": [
        0.005066578276455402,
        0.0053346846252679825
      ],
      "type": "VEC2"
    },
    {
      "bufferView": 0,
      "byteOffset": 94320,
      "componentType": 5125,
      "count": 24576,
      "type": "SCALAR"
    },
    {
      "bufferView": 2,
      "byteOffset": 272328,
      "componentType": 5126,
      "count": 1995,
      "max": [
        8.507573127746582,
        8.507573127746582,
        11.374778747558594
      ],
      "min": [
        -8.507573127746582,
        -8.507573127746582,
        -8.507574081420898
      ],
      "type": "VEC3"
    },
    {
      "bufferView": 2,
      "byteOffset": 296268,
      "componentType": 5126,
      "count": 1995,
      "max": [
        0.9998205304145813,
        0.9997832775115967,
        1.0
      ],
      "min": [
        -0.9997044205665588,
        -0.9997832775115967,
        -1.0
      ],
      "type": "VEC3"
    },
    {
      "bufferView": 3,
      "byteOffset": 181552,
      "componentType": 5126,
      "count": 1995,
      "max": [
        0.9748174548149109,
        1.0,
        0.9997819066047668,
        1.0
      ],
      "min": [
        -0.9997744560241699,
        -0.9999772906303406,
        -0.9999444484710693,
        1.0
      ],
      "type": "VEC4"
    },
    {
      "bufferView": 1,
      "byteOffset": 272328,
      "componentType": 5126,
      "count": 1995,
      "max": [
        0.9943718910217285,
        0.9879176616668701
      ],
      "min": [
        0.00507668312638998,
        0.010041773319244385
      ],
      "type": "VEC2"
    },
    {
      "bufferView": 1,
      "byteOffset": 288288,
      "componentType": 5126,
      "count": 1995,
      "max": [
        0.9943718910217285,
        0.9879176616668701
      ],
      "min": [
        0.00507668312638998,
        0.010041773319244385
      ],
      "type": "VEC2"
    },
    {
      "bufferView": 1,
      "byteOffset": 304248,
      "componentType": 5126,
      "count": 1995,
      "max": [
        0.9943718910217285,
        0.9879176616668701
      ],
      "min": [
        0.00507668312638998,
        0.010041773319244385
      ],
      "type": "VEC2"
    },
    {
      "bufferView": 0,
      "byteOffset": 192624,
      "componentType": 5125,
      "count": 8754,
      "type": "SCALAR"
    },
    {
      "bufferView": 2,
      "byteOffset": 320208,
      "componentType": 5126,
      "count": 168,
      "max": [
        3.064098596572876,
        6.024930000305176,
        3.064098596572876
      ],
      "min": [
        -3.064098596572876,
        -14.310009956359863,
        -3.064098596572876
      ],
      "type": "VEC3"
    },
    {
      "bufferView": 2,
      "byteOffset": 322224,
      "componentType": 5126,
      "count": 168,
      "max": [
        0.9830622673034668,
        0.9830600619316101,
        0.9832634329795837
      ],
      "min": [
        -0.986802339553833,
        -0.9830676317214966,
        -0.9832631349563599
      ],
      "type": "VEC3"
    },
    {
      "bufferView": 3,
      "byteOffset": 213472,
      "componentType": 5126,
      "count": 168,
      "max": [
        0.8666369915008545,
        0.9923595190048218,
        0.9915054440498352,
        1.0
      ],
      "min": [
        -0.992554247379303,
        -0.9925775527954102,
        -0.9925621747970581,
        1.0
      ],
      "type": "VEC4"
    },
    {
      "bufferView": 1,
      "byteOffset": 320208,
      "componentType": 5126,
      "count": 168,
      "max": [
        0.994931697845459,
        0.8864707946777344
      ],
      "min": [
        0.12331777811050415,
        0.0054635824635624886
      ],
      "type": "VEC2"
    },
    {
      "bufferView": 1,
      "byteOffset": 321552,
      "componentType": 5126,
      "count": 168,
      "max": [
        0.994931697845459,
        0.8864707946777344
      ],
      "min": [
        0.12331777811050415,
        0.0054635824635624886
      ],
      "type": "VEC2"
    },
    {
      "bufferView": 1,
      "byteOffset": 322896,
      "componentType": 5126,
      "count": 168,
      "max": [
        0.994931697845459,
        0.8864707946777344
      ],
      "min": [
        0.12331777811050415,
        0.0054635824635624886
      ],
      "type": "VEC2"
    },
    {
      "bufferView": 0,
      "byteOffset": 227640,
      "componentType": 5125,
      "count": 564,
      "type": "SCALAR"
    },
    {
      "bufferView": 2,
      "byteOffset": 324240,
      "componentType": 5126,
      "count": 96,
      "max": [
        4.340511322021484,
        3.611132860183716,
        2.1670303344726563
      ],
      "min": [
        -1.0,
        -3.611132860183716,
        -1.0
      ],
      "type": "VEC3"
    },
    {
      "bufferView": 2,
      "byteOffset": 325392,
      "componentType": 5126,
      "count": 96,
      "max": [
        0.9672932028770447,
        0.9672939777374268,
        0.9672930240631104
      ],
      "min": [
        -0.9672935009002686,
        -0.9672939777374268,
        -0.9672936201095581
      ],
      "type": "VEC3"
    },
    {
      "bufferView": 3,
      "byteOffset": 216160,
      "componentType": 5126,
      "count": 96,
      "max": [
        0.9839377999305725,
        0.983734130859375,
        0.9839041233062744,
        1.0
      ],
      "min": [
        -0.6942798495292664,
        -0.6941927075386047,
        -0.9837495684623718,
        1.0
      ],
      "type": "VEC4"
    },
    {
      "bufferView": 1,
      "byteOffset": 324240,
      "componentType": 5126,
      "count": 96,
      "max": [
        0.9104699492454529,
        0.8819919228553772
      ],
      "min": [
        0.08710690587759018,
        0.1937827616930008
      ],
      "type": "VEC2"
    },
    {
      "bufferView": 1,
      "byteOffset": 325008,
      "componentType": 5126,
      "count": 96,
      "max": [
        0.9104699492454529,
        0.8819919228553772
      ],
      "min": [
        0.08710690587759018,
        0.1937827616930008
      ],
      "type": "VEC2"
    },
    {
      "bufferView": 1,
      "byteOffset": 325776,
      "componentType": 5126,
      "count": 96,
      "max": [
        0.9104699492454529,
        0.8819919228553772
      ],
      "min": [
        0.08710690587759018,
        0.1937827616930008
      ],
      "type": "VEC2"
    },
    {
      "bufferView": 0,
      "byteOffset": 229896,
      "componentType": 5125,
      "count": 324,
      "type": "SCALAR"
    },
    {
      "bufferView": 2,
      "byteOffset": 326544,
      "componentType": 5126,
      "count": 312,
      "max": [
        22.784948348999023,
        8.531740188598633,
        1.5444341897964478
      ],
      "min": [
        -27.27263641357422,
        -42.37842559814453,
        -47.806968688964844
      ],
      "type": "VEC3"
    },
    {
      "bufferView": 2,
      "byteOffset": 330288,
      "componentType": 5126,
      "count": 312,
      "max": [
        1.0,
        1.0,
        1.0
      ],
      "min": [
        -1.0,
        -1.0,
        -1.0
      ],
      "type": "VEC3"
    },
    {
      "bufferView": 3,
      "byteOffset": 217696,
      "componentType": 5126,
      "count": 312,
      "max": [
        1.0,
        1.0,
        1.0,
        1.0
      ],
      "min": [
        -1.0,
        -1.0,
        -1.0,
        1.0
      ],
      "type": "VEC4"
    },
    {
      "bufferView": 1,
      "byteOffset": 326544,
      "componentType": 5126,
      "count": 312,
      "max": [
        0.9719328284263611,
        0.9731861352920532
      ],
      "min": [
        0.005015109665691853,
        0.005016637034714222
      ],
      "type": "VEC2"
    },
    {
      "bufferView": 1,
      "byteOffset": 329040,
      "componentType": 5126,
      "count": 312,
      "max": [
        0.9719328284263611,
        0.9731861352920532
      ],
      "min": [
        0.005015109665691853,
        0.005016637034714222
      ],
      "type": "VEC2"
    },
    {
      "bufferView": 1,
      "byteOffset": 331536,
      "componentType": 5126,
      "count": 312,
      "max": [
        0.9719328284263611,
        0.9731861352920532
      ],
      "min": [
        0.005015109665691853,
        0.005016637034714222
      ],
      "type": "VEC2"
    },
    {
      "bufferView": 0,
      "byteOffset": 231192,
      "componentType": 5125,
      "count": 468,
      "type": "SCALAR"
    },
    {
      "bufferView": 2,
      "byteOffset": 334032,
      "componentType": 5126,
      "count": 12416,
      "max": [
        21.191015243530273,
        2.603274345397949,
        1.0980299711227417
      ],
      "min": [
        -33.19057083129883,
        -42.28012466430664,
        -10.252050399780273
      ],
      "type": "VEC3"
    },
    {
      "bufferView": 2,
      "byteOffset": 483024,
      "componentType": 5126,
      "count": 12416,
      "max": [
        0.9999945759773254,
        0.9999809265136719,
        0.9999945759773254
      ],
      "min": [
        -0.9999945759773254,
        -0.9999809265136719,
        -1.0
      ],
      "type": "VEC3"
    },
    {
      "bufferView": 3,
      "byteOffset": 222688,
      "componentType": 5126,
      "count": 12416,
      "max": [
        1.0,
        1.0,
        1.0,
        1.0
      ],
      "min": [
        -1.0,
        -1.0,
        -1.0,
        1.0
      ],
      "type": "VEC4"
    },
    {
      "bufferView": 1,
      "byteOffset": 334032,
      "componentType": 5126,
      "count": 12416,
      "max": [
        0.9928749799728394,
        0.9520912766456604
      ],
      "min": [
        0.005019409116357565,
        0.005024437792599201
      ],
      "type": "VEC2"
    },
    {
      "bufferView": 1,
      "byteOffset": 433360,
      "componentType": 5126,
      "count": 12416,
      "max": [
        0.9928749799728394,
        0.9520912766456604
      ],
      "min": [
        0.005019409116357565,
        0.005024437792599201
      ],
      "type": "VEC2"
    },
    {
      "bufferView": 1,
      "byteOffset": 532688,
      "componentType": 5126,
      "count": 12416,
      "max": [
        0.9928749799728394,
        0.9520912766456604
      ],
      "min": [
        0.005019409116357565,
        0.005024437792599201
      ],
      "type": "VEC2"
    },
    {
      "bufferView": 0,
      "byteOffset": 233064,
      "componentType": 5125,
      "count": 42336,
      "type": "SCALAR"
    },
    {
      "bufferView": 2,
      "byteOffset": 632016,
      "componentType": 5126,
      "count": 553,
      "max": [
        1.1405597925186157,
        1.1405597925186157,
        1.2763549089431763
      ],
      "min": [
        -1.1405597925186157,
        -1.1405597925186157,
        -1.1240719556808472
      ],
      "type": "VEC3"
    },
    {
      "bufferView": 2,
      "byteOffset": 638652,
      "componentType": 5126,
      "count": 553,
      "max": [
        1.0,
        1.0,
        1.0
      ],
      "min": [
        -1.0,
        -1.0,
        -1.0
      ],
      "type": "VEC3"
    },
    {
      "bufferView": 3,
      "byteOffset": 421344,
      "componentType": 5126,
      "count": 553,
      "max": [
        1.0,
        1.0,
        1.0,
        1.0
      ],
      "min": [
        -1.0,
        -1.0,
        -1.0,
        1.0
      ],
      "type": "VEC4"
    },
    {
      "bufferView": 1,
      "byteOffset": 632016,
      "componentType": 5126,
      "count": 553,
      "max": [
        0.9274245500564575,
        0.9252071380615234
      ],
      "min": [
        0.005020789802074432,
        0.005016157869249582
      ],
      "type": "VEC2"
    },
    {
      "bufferView": 1,
      "byteOffset": 636440,
      "componentType": 5126,
      "count": 553,
      "max": [
        0.9274245500564575,
        0.9252071380615234
      ],
      "min": [
        0.005020789802074432,
        0.005016157869249582
      ],
      "type": "VEC2"
    },
    {
      "bufferView": 1,
      "byteOffset": 640864,
      "componentType": 5126,
      "count": 553,
      "max": [
        0.9274245500564575,
        0.9252071380615234
      ],
      "min": [
        0.005020789802074432,
        0.005016157869249582
      ],
      "type": "VEC2"
    },
    {
      "bufferView": 0,
      "byteOffset": 402408,
      "componentType": 5125,
      "count": 1332,
      "type": "SCALAR"
    },
    {
      "bufferView": 2,
      "byteOffset": 645288,
      "componentType": 5126,
      "count": 857,
      "max": [
        1.4568350315093994,
        0.3649062216281891,
        1.5174885988235474
      ],
      "min": [
        -1.0001885890960693,
        -0.2478152960538864,
        -1.4604895114898682
      ],
      "type": "VEC3"
    },
    {
      "bufferView": 2,
      "byteOffset": 655572,
      "componentType": 5126,
      "count": 857,
      "max": [
        1.0,
        1.0,
        1.0
      ],
      "min": [
        -1.0,
        -1.0,
        -1.0
      ],
      "type": "VEC3"
    },
    {
      "bufferView": 3,
      "byteOffset": 430192,
      "componentType": 5126,
      "count": 857,
      "max": [
        1.0,
        1.0,
        1.0,
        1.0
      ],
      "min": [
        -1.0,
        -1.0,
        -1.0,
        1.0
      ],
      "type": "VEC4"
    },
    {
      "bufferView": 1,
      "byteOffset": 645288,
      "componentType": 5126,
      "count": 857,
      "max": [
        0.9924619197845459,
        0.9837748408317566
      ],
      "min": [
        0.014721497893333435,
        0.005024690181016922
      ],
      "type": "VEC2"
    },
    {
      "bufferView": 1,
      "byteOffset": 652144,
      "componentType": 5126,
      "count": 857,
      "max": [
        0.9924619197845459,
        0.9837748408317566
      ],
      "min": [
        0.014721497893333435,
        0.005024690181016922
      ],
      "type": "VEC2"
    },
    {
      "bufferView": 1,
      "byteOffset": 659000,
      "componentType": 5126,
      "count": 857,
      "max": [
        0.9924619197845459,
        0.9837748408317566
      ],
      "min": [
        0.014721497893333435,
        0.005024690181016922
      ],
      "type": "VEC2"
    },
    {
      "bufferView": 0,
      "byteOffset": 407736,
      "componentType": 5125,
      "count": 2928,
      "type": "SCALAR"
    },
    {
      "bufferView": 2,
      "byteOffset": 665856,
      "componentType": 5126,
      "count": 841,
      "max": [
        1.4568350315093994,
        0.3649062216281891,
        1.5174885988235474
      ],
      "min": [
        -1.0001885890960693,
        -0.2478152960538864,
        -1.4604895114898682
      ],
      "type": "VEC3"
    },
    {
      "bufferView": 2,
      "byteOffset": 675948,
      "componentType": 5126,
      "count": 841,
      "max": [
        1.0,
        1.0,
        1.0
      ],
      "min": [
        -1.0,
        -1.0,
        -1.0
      ],
      "type": "VEC3"
    },
    {
      "bufferView": 3,
      "byteOffset": 443904,
      "componentType": 5126,
      "count": 841,
      "max": [
        1.0,
        1.0,
        1.0,
        1.0
      ],
      "min": [
        -1.0,
        -1.0,
        -1.0,
        1.0
      ],
      "type": "VEC4"
    },
    {
      "bufferView": 1,
      "byteOffset": 665856,
      "componentType": 5126,
      "count": 841,
      "max": [
        0.9783139228820801,
        0.9760007858276367
      ],
      "min": [
        0.005015355534851551,
        0.005526684690266848
      ],
      "type": "VEC2"
    },
    {
      "bufferView": 1,
      "byteOffset": 672584,
      "componentType": 5126,
      "count": 841,
      "max": [
        0.9783139228820801,
        0.9760007858276367
      ],
      "min": [
        0.005015355534851551,
        0.005526684690266848
      ],
      "type": "VEC2"
    },
    {
      "bufferView": 1,
      "byteOffset": 679312,
      "componentType": 5126,
      "count": 841,
      "max": [
        0.9783139228820801,
        0.9760007858276367
      ],
      "min": [
        0.005015355534851551,
        0.005526684690266848
      ],
      "type": "VEC2"
    },
    {
      "bufferView": 0,
      "byteOffset": 419448,
      "componentType": 5125,
      "count": 2928,
      "type": "SCALAR"
    },
    {
      "bufferView": 2,
      "byteOffset": 686040,
      "componentType": 5126,
      "count": 848,
      "max": [
        1.4568350315093994,
        0.3649062216281891,
        1.5174885988235474
      ],
      "min": [
        -1.0001885890960693,
        -0.2478152960538864,
        -1.4604895114898682
      ],
      "type": "VEC3"
    },
    {
      "bufferView": 2,
      "byteOffset": 696216,
      "componentType": 5126,
      "count": 848,
      "max": [
        1.0,
        1.0,
        1.0
      ],
      "min": [
        -1.0,
        -1.0,
        -1.0
      ],
      "type": "VEC3"
    },
    {
      "bufferView": 3,
      "byteOffset": 457360,
      "componentType": 5126,
      "count": 848,
      "max": [
        1.0,
        1.0,
        1.0,
        1.0
      ],
      "min": [
        -1.0,
        -1.0,
        -1.0,
        -1.0
      ],
      "type": "VEC4"
    },
    {
      "bufferView": 1,
      "byteOffset": 686040,
      "componentType": 5126,
      "count": 848,
      "max": [
        0.9770618677139282,
        0.9640180468559265
      ],
      "min": [
        0.005016489885747433,
        0.005018874537199736
      ],
      "type": "VEC2"
    },
    {
      "bufferView": 1,
      "byteOffset": 692824,
      "componentType": 5126,
      "count": 848,
      "max": [
        0.9770618677139282,
        0.9640180468559265
      ],
      "min": [
        0.005016489885747433,
        0.005018874537199736
      ],
      "type": "VEC2"
    },
    {
      "bufferView": 1,
      "byteOffset": 699608,
      "componentType": 5126,
      "count": 848,
      "max": [
        0.9770618677139282,
        0.9640180468559265
      ],
      "min": [
        0.005016489885747433,
        0.005018874537199736
      ],
      "type": "VEC2"
    },
    {
      "bufferView": 0,
      "byteOffset": 431160,
      "componentType": 5125,
      "count": 2928,
      "type": "SCALAR"
    },
    {
      "bufferView": 2,
      "byteOffset": 706392,
      "componentType": 5126,
      "count": 3147,
      "max": [
        4.283491611480713,
        8.784193992614746,
        3.546937942504883
      ],
      "min": [
        -9.13904094696045,
        -3.5112099647521973,
        -4.846879959106445
      ],
      "type": "VEC3"
    },
    {
      "bufferView": 2,
      "byteOffset": 744156,
      "componentType": 5126,
      "count": 3147,
      "max": [
        0.9999268054962158,
        0.9996150135993958,
        0.9999923706054688
      ],
      "min": [
        -0.9983626008033752,
        -0.9999985694885254,
        -0.9124193787574768
      ],
      "type": "VEC3"
    },
    {
      "bufferView": 3,
      "byteOffset": 470928,
      "componentType": 5126,
      "count": 3147,
      "max": [
        0.940468430519104,
        0.9997944831848145,
        0.9986608624458313,
        1.0
      ],
      "min": [
        -0.9776060581207275,
        -0.9030651450157166,
        -0.35430899262428284,
        1.0
      ],
      "type": "VEC4"
    },
    {
      "bufferView": 1,
      "byteOffset": 706392,
      "componentType": 5126,
      "count": 3147,
      "max": [
        0.9867637753486633,
        0.9868168830871582
      ],
      "min": [
        0.0052060275338590145,
        0.30138036608695984
      ],
      "type": "VEC2"
    },
    {
      "bufferView": 1,
      "byteOffset": 731568,
      "componentType": 5126,
      "count": 3147,
      "max": [
        0.9867637753486633,
        0.9868168830871582
      ],
      "min": [
        0.0052060275338590145,
        0.30138036608695984
      ],
      "type": "VEC2"
    },
    {
      "bufferView": 1,
      "byteOffset": 756744,
      "componentType": 5126,
      "count": 3147,
      "max": [
        0.9867637753486633,
        0.9868168830871582
      ],
      "min": [
        0.0052060275338590145,
        0.30138036608695984
      ],
      "type": "VEC2"
    },
    {
      "bufferView": 0,
      "byteOffset": 442872,
      "componentType": 5125,
      "count": 16827,
      "type": "SCALAR"
    },
    {
      "bufferView": 2,
      "byteOffset": 781920,
      "componentType": 5126,
      "count": 2074,
      "max": [
        56.262882232666016,
        46.04062271118164,
        1.735373854637146
      ],
      "min": [
        -3.251974582672119,
        -11.48747444152832,
        -9.924066543579102
      ],
      "type": "VEC3"
    },
    {
      "bufferView": 2,
      "byteOffset": 806808,
      "componentType": 5126,
      "count": 2074,
      "max": [
        0.9998999238014221,
        0.9999033212661743,
        1.0
      ],
      "min": [
        -0.9999032616615295,
        -0.9998999834060669,
        -1.0
      ],
      "type": "VEC3"
    },
    {
      "bufferView": 3,
      "byteOffset": 521280,
      "componentType": 5126,
      "count": 2074,
      "max": [
        0.9998167753219604,
        0.9996272325515747,
        0.9998424649238586,
        1.0
      ],
      "min": [
        -0.999627411365509,
        -0.9994193315505981,
        -1.0,
        1.0
      ],
      "type": "VEC4"
    },
    {
      "bufferView": 1,
      "byteOffset": 781920,
      "componentType": 5126,
      "count": 2074,
      "max": [
        0.8771772384643555,
        0.8633430004119873
      ],
      "min": [
        0.12429651618003845,
        0.04360988736152649
      ],
      "type": "VEC2"
    },
    {
      "bufferView": 1,
      "byteOffset": 798512,
      "componentType": 5126,
      "count": 2074,
      "max": [
        0.8771772384643555,
        0.8633430004119873
      ],
      "min": [
        0.12429651618003845,
        0.04360988736152649
      ],
      "type": "VEC2"
    },
    {
      "bufferView": 1,
      "byteOffset": 815104,
      "componentType": 5126,
      "count": 2074,
      "max": [
        0.8771772384643555,
        0.8633430004119873
      ],
      "min": [
        0.12429651618003845,
        0.04360988736152649
      ],
      "type": "VEC2"
    },
    {
      "bufferView": 0,
      "byteOffset": 510180,
      "componentType": 5125,
      "count": 8448,
      "type": "SCALAR"
    },
    {
      "bufferView": 2,
      "byteOffset": 831696,
      "componentType": 5126,
      "count": 6512,
      "max": [
        11.089533805847168,
        5.193174362182617,
        3.1044092178344727
      ],
      "min": [
        -8.508180618286133,
        -5.604815483093262,
        -6.3848981857299805
      ],
      "type": "VEC3"
    },
    {
      "bufferView": 2,
      "byteOffset": 909840,
      "componentType": 5126,
      "count": 6512,
      "max": [
        0.9997400045394897,
        0.7401151061058044,
        1.0
      ],
      "min": [
        -0.999596357345581,
        -0.9999909996986389,
        -0.9999582767486572
      ],
      "type": "VEC3"
    },
    {
      "bufferView": 3,
      "byteOffset": 554464,
      "componentType": 5126,
      "count": 6512,
      "max": [
        1.0,
        0.9685176610946655,
        0.9696851968765259,
        1.0
      ],
      "min": [
        -0.37849193811416626,
        -0.6937621831893921,
        -0.6481383442878723,
        1.0
      ],
      "type": "VEC4"
    },
    {
      "bufferView": 1,
      "byteOffset": 831696,
      "componentType": 5126,
      "count": 6512,
      "max": [
        0.5919569134712219,
        0.2562338709831238
      ],
      "min": [
        0.2721281945705414,
        0.00515448022633791
      ],
      "type": "VEC2"
    },
    {
      "bufferView": 1,
      "byteOffset": 883792,
      "componentType": 5126,
      "count": 6512,
      "max": [
        0.5919569134712219,
        0.2562338709831238
      ],
      "min": [
        0.2721281945705414,
        0.00515448022633791
      ],
      "type": "VEC2"
    },
    {
      "bufferView": 1,
      "byteOffset": 935888,
      "componentType": 5126,
      "count": 6512,
      "max": [
        0.5919569134712219,
        0.2562338709831238
      ],
      "min": [
        0.2721281945705414,
        0.00515448022633791
      ],
      "type": "VEC2"
    },
    {
      "bufferView": 0,
      "byteOffset": 543972,
      "componentType": 5125,
      "count": 24576,
      "type": "SCALAR"
    },
    {
      "bufferView": 2,
      "byteOffset": 987984,
      "componentType": 5126,
      "count": 224,
      "max": [
        2.8161935806274414,
        1.0,
        2.2281105518341064
      ],
      "min": [
        -2.8161935806274414,
        -1.0,
        -0.5075783729553223
      ],
      "type": "VEC3"
    },
    {
      "bufferView": 2,
      "byteOffset": 990672,
      "componentType": 5126,
      "count": 224,
      "max": [
        1.0,
        1.0,
        0.9875287413597107
      ],
      "min": [
        -1.0,
        -1.0,
        -1.0
      ],
      "type": "VEC3"
    },
    {
      "bufferView": 3,
      "byteOffset": 658656,
      "componentType": 5126,
      "count": 224,
      "max": [
        1.0,
        0.9875288009643555,
        1.0,
        1.0
      ],
      "min": [
        -1.0,
        -1.0,
        -1.0,
        1.0
      ],
      "type": "VEC4"
    },
    {
      "bufferView": 1,
      "byteOffset": 987984,
      "componentType": 5126,
      "count": 224,
      "max": [
        0.9911006093025208,
        0.9896232485771179
      ],
      "min": [
        0.005017978139221668,
        0.062152549624443054
      ],
      "type": "VEC2"
    },
    {
      "bufferView": 1,
      "byteOffset": 989776,
      "componentType": 5126,
      "count": 224,
      "max": [
        0.9911006093025208,
        0.9896232485771179
      ],
      "min": [
        0.005017978139221668,
        0.062152549624443054
      ],
      "type": "VEC2"
    },
    {
      "bufferView": 1,
      "byteOffset": 991568,
      "componentType": 5126,
      "count": 224,
      "max": [
        0.9911006093025208,
        0.9896232485771179
      ],
      "min": [
        0.005017978139221668,
        0.062152549624443054
      ],
      "type": "VEC2"
    },
    {
      "bufferView": 0,
      "byteOffset": 642276,
      "componentType": 5125,
      "count": 372,
      "type": "SCALAR"
    },
    {
      "bufferView": 2,
      "byteOffset": 993360,
      "componentType": 5126,
      "count": 224,
      "max": [
        2.8161935806274414,
        1.0,
        2.2281105518341064
      ],
      "min": [
        -2.8161935806274414,
        -1.0,
        -0.5075783729553223
      ],
      "type": "VEC3"
    },
    {
      "bufferView": 2,
      "byteOffset": 996048,
      "componentType": 5126,
      "count": 224,
      "max": [
        1.0,
        1.0,
        0.9875287413597107
      ],
      "min": [
        -1.0,
        -1.0,
        -1.0
      ],
      "type": "VEC3"
    },
    {
      "bufferView": 3,
      "byteOffset": 662240,
      "componentType": 5126,
      "count": 224,
      "max": [
        1.0,
        0.9875288009643555,
        1.0,
        1.0
      ],
      "min": [
        -1.0,
        -0.9875288009643555,
        -1.0,
        1.0
      ],
      "type": "VEC4"
    },
    {
      "bufferView": 1,
      "byteOffset": 993360,
      "componentType": 5126,
      "count": 224,
      "max": [
        0.9901688098907471,
        0.9896221160888672
      ],
      "min": [
        0.005015228874981403,
        0.005903363227844238
      ],
      "type": "VEC2"
    },
    {
      "bufferView": 1,
      "byteOffset": 995152,
      "componentType": 5126,
      "count": 224,
      "max": [
        0.9901688098907471,
        0.9896221160888672
      ],
      "min": [
        0.005015228874981403,
        0.005903363227844238
      ],
      "type": "VEC2"
    },
    {
      "bufferView": 1,
      "byteOffset": 996944,
      "componentType": 5126,
      "count": 224,
      "max": [
        0.9901688098907471,
        0.9896221160888672
      ],
      "min": [
        0.005015228874981403,
        0.005903363227844238
      ],
      "type": "VEC2"
    },
    {
      "bufferView": 0,
      "byteOffset": 643764,
      "componentType": 5125,
      "count": 372,
      "type": "SCALAR"
    },
    {
      "bufferView": 2,
      "byteOffset": 998736,
      "componentType": 5126,
      "count": 5661,
      "max": [
        1.016076683998108,
        6.414682865142822,
        3.7075021266937256
      ],
      "min": [
        -1.338228702545166,
        -1.7888400554656982,
        -3.2493462562561035
      ],
      "type": "VEC3"
    },
    {
      "bufferView": 2,
      "byteOffset": 1066668,
      "componentType": 5126,
      "count": 5661,
      "max": [
        1.0,
        1.0,
        1.0
      ],
      "min": [
        -1.0,
        -1.0,
        -1.0
      ],
      "type": "VEC3"
    },
    {
      "bufferView": 3,
      "byteOffset": 665824,
      "componentType": 5126,
      "count": 5661,
      "max": [
        0.9999973773956299,
        0.9999065399169922,
        0.9993338584899902,
        1.0
      ],
      "min": [
        -0.9914432168006897,
        -0.9999949336051941,
        -0.9999954700469971,
        -1.0
      ],
      "type": "VEC4"
    },
    {
      "bufferView": 1,
      "byteOffset": 998736,
      "componentType": 5126,
      "count": 5661,
      "max": [
        0.9948660731315613,
        0.9911089539527893
      ],
      "min": [
        0.07500496506690979,
        0.005017007235437632
      ],
      "type": "VEC2"
    },
    {
      "bufferView": 1,
      "byteOffset": 1044024,
      "componentType": 5126,
      "count": 5661,
      "max": [
        0.9948660731315613,
        0.9911089539527893
      ],
      "min": [
        0.07500496506690979,
        0.005017007235437632
      ],
      "type": "VEC2"
    },
    {
      "bufferView": 1,
      "byteOffset": 1089312,
      "componentType": 5126,
      "count": 5661,
      "max": [
        0.9948660731315613,
        0.9911089539527893
      ],
      "min": [
        0.07500496506690979,
        0.005017007235437632
      ],
      "type": "VEC2"
    },
    {
      "bufferView": 0,
      "byteOffset": 645252,
      "componentType": 5125,
      "count": 29988,
      "type": "SCALAR"
    },
    {
      "bufferView": 2,
      "byteOffset": 1134600,
      "componentType": 5126,
      "count": 7282,
      "max": [
        2.9887924194335938,
        2.8496506214141846,
        17.95804214477539
      ],
      "min": [
        -2.3117570877075195,
        -2.2579848766326904,
        -5.463621139526367
      ],
      "type": "VEC3"
    },
    {
      "bufferView": 2,
      "byteOffset": 1221984,
      "componentType": 5126,
      "count": 7282,
      "max": [
        0.9993788599967957,
        0.9996482133865356,
        1.0
      ],
      "min": [
        -0.9993788599967957,
        -0.9996483325958252,
        -1.0
      ],
      "type": "VEC3"
    },
    {
      "bufferView": 3,
      "byteOffset": 756400,
      "componentType": 5126,
      "count": 7282,
      "max": [
        1.0,
        0.9993788599967957,
        1.0,
        1.0
      ],
      "min": [
        -0.9996482729911804,
        -0.9994297623634338,
        -1.0,
        -1.0
      ],
      "type": "VEC4"
    },
    {
      "bufferView": 1,
      "byteOffset": 1134600,
      "componentType": 5126,
      "count": 7282,
      "max": [
        0.9948049783706665,
        0.993648886680603
      ],
      "min": [
        0.005018339492380619,
        0.005016656126827002
      ],
      "type": "VEC2"
    },
    {
      "bufferView": 1,
      "byteOffset": 1192856,
      "componentType": 5126,
      "count": 7282,
      "max": [
        0.9948049783706665,
        0.993648886680603
      ],
      "min": [
        0.005018339492380619,
        0.005016656126827002
      ],
      "type": "VEC2"
    },
    {
      "bufferView": 1,
      "byteOffset": 1251112,
      "componentType": 5126,
      "count": 7282,
      "max": [
        0.9948049783706665,
        0.993648886680603
      ],
      "min": [
        0.005018339492380619,
        0.005016656126827002
      ],
      "type": "VEC2"
    },
    {
      "bufferView": 0,
      "byteOffset": 765204,
      "componentType": 5125,
      "count": 20466,
      "type": "SCALAR"
    },
    {
      "bufferView": 2,
      "byteOffset": 1309368,
      "componentType": 5126,
      "count": 1579,
      "max": [
        -8.633072853088379,
        12.515966415405273,
        12.915387153625488
      ],
      "min": [
        -13.020722389221191,
        8.128316879272461,
        6.533677577972412
      ],
      "type": "VEC3"
    },
    {
      "bufferView": 2,
      "byteOffset": 1328316,
      "componentType": 5126,
      "count": 1579,
      "max": [
        0.9993787407875061,
        0.9996470212936401,
        1.0
      ],
      "min": [
        -0.9993789196014404,
        -0.9996483325958252,
        -1.0
      ],
      "type": "VEC3"
    },
    {
      "bufferView": 3,
      "byteOffset": 872912,
      "componentType": 5126,
      "count": 1579,
      "max": [
        1.0,
        0.9949254989624023,
        1.0,
        1.0
      ],
      "min": [
        -1.0,
        -0.9989944100379944,
        -1.0,
        1.0
      ],
      "type": "VEC4"
    },
    {
      "bufferView": 1,
      "byteOffset": 1309368,
      "componentType": 5126,
      "count": 1579,
      "max": [
        0.9947313070297241,
        0.9937013983726501
      ],
      "min": [
        0.01774144172668457,
        0.005016909912228584
      ],
      "type": "VEC2"
    },
    {
      "bufferView": 1,
      "byteOffset": 1322000,
      "componentType": 5126,
      "count": 1579,
      "max": [
        0.9947313070297241,
        0.9937013983726501
      ],
      "min": [
        0.01774144172668457,
        0.005016909912228584
      ],
      "type": "VEC2"
    },
    {
      "bufferView": 1,
      "byteOffset": 1334632,
      "componentType": 5126,
      "count": 1579,
      "max": [
        0.9947313070297241,
        0.9937013983726501
      ],
      "min": [
        0.01774144172668457,
        0.005016909912228584
      ],
      "type": "VEC2"
    },
    {
      "bufferView": 0,
      "byteOffset": 847068,
      "componentType": 5125,
      "count": 4056,
      "type": "SCALAR"
    },
    {
      "bufferView": 2,
      "byteOffset": 1347264,
      "componentType": 5126,
      "count": 7832,
      "max": [
        0.23294714093208313,
        0.4096635580062866,
        0.9949299693107605
      ],
      "min": [
        -0.24005195498466492,
        -0.40638411045074463,
        0.0
      ],
      "type": "VEC3"
    },
    {
      "bufferView": 2,
      "byteOffset": 1441248,
      "componentType": 5126,
      "count": 7832,
      "max": [
        1.0,
        1.0,
        1.0
      ],
      "min": [
        -1.0,
        -1.0,
        -1.0
      ],
      "type": "VEC3"
    },
    {
      "bufferView": 3,
      "byteOffset": 898176,
      "componentType": 5126,
      "count": 7832,
      "max": [
        1.0,
        1.0,
        1.0,
        1.0
      ],
      "min": [
        -1.0,
        -1.0,
        -1.0,
        -1.0
      ],
      "type": "VEC4"
    },
    {
      "bufferView": 1,
      "byteOffset": 1347264,
      "componentType": 5126,
      "count": 7832,
      "max": [
        0.9953247308731079,
        0.9935218691825867
      ],
      "min": [
        0.004670556169003248,
        0.004577022977173328
      ],
      "type": "VEC2"
    },
    {
      "bufferView": 1,
      "byteOffset": 1409920,
      "componentType": 5126,
      "count": 7832,
      "max": [
        0.9953247308731079,
        0.9935218691825867
      ],
      "min": [
        0.004670556169003248,
        0.004577022977173328
      ],
      "type": "VEC2"
    },
    {
      "bufferView": 1,
      "byteOffset": 1472576,
      "componentType": 5126,
      "count": 7832,
      "max": [
        0.9953247308731079,
        0.9935218691825867
      ],
      "min": [
        0.004670556169003248,
        0.004577022977173328
      ],
      "type": "VEC2"
    },
    {
      "bufferView": 1,
      "byteOffset": 1535232,
      "componentType": 5126,
      "count": 7832,
      "max": [
        0.9953247308731079,
        0.9935218691825867
      ],
      "min": [
        0.004670556169003248,
        0.004577022977173328
      ],
      "type": "VEC2"
    },
    {
      "bufferView": 0,
      "byteOffset": 863292,
      "componentType": 5125,
      "count": 21537,
      "type": "SCALAR"
    },
    {
      "bufferView": 2,
      "byteOffset": 1535232,
      "componentType": 5126,
      "count": 1552,
      "max": [
        1.0919238328933716,
        2.603274345397949,
        1.0980299711227417
      ],
      "min": [
        -1.0919221639633179,
        -2.603274345397949,
        -1.0
      ],
      "type": "VEC3"
    },
    {
      "bufferView": 2,
      "byteOffset": 1553856,
      "componentType": 5126,
      "count": 1552,
      "max": [
        0.9999945759773254,
        0.9999809265136719,
        0.9999945759773254
      ],
      "min": [
        -0.9999945759773254,
        -0.9999809265136719,
        -1.0
      ],
      "type": "VEC3"
    },
    {
      "bufferView": 3,
      "byteOffset": 1023488,
      "componentType": 5126,
      "count": 1552,
      "max": [
        1.0,
        1.0,
        1.0,
        1.0
      ],
      "min": [
        -1.0,
        -1.0,
        -1.0,
        1.0
      ],
      "type": "VEC4"
    },
    {
      "bufferView": 1,
      "byteOffset": 1597888,
      "componentType": 5126,
      "count": 1552,
      "max": [
        0.9928749799728394,
        0.9520912766456604
      ],
      "min": [
        0.005019409116357565,
        0.005024437792599201
      ],
      "type": "VEC2"
    },
    {
      "bufferView": 1,
      "byteOffset": 1610304,
      "componentType": 5126,
      "count": 1552,
      "max": [
        0.9928749799728394,
        0.9520912766456604
      ],
      "min": [
        0.005019409116357565,
        0.005024437792599201
      ],
      "type": "VEC2"
    },
    {
      "bufferView": 1,
      "byteOffset": 1622720,
      "componentType": 5126,
      "count": 1552,
      "max": [
        0.9928749799728394,
        0.9520912766456604
      ],
      "min": [
        0.005019409116357565,
        0.005024437792599201
      ],
      "type": "VEC2"
    },
    {
      "bufferView": 0,
      "byteOffset": 949440,
      "componentType": 5125,
      "count": 5292,
      "type": "SCALAR"
    },
    {
      "bufferView": 2,
      "byteOffset": 1572480,
      "componentType": 5126,
      "count": 553,
      "max": [
        1.1405597925186157,
        1.1405597925186157,
        1.2763549089431763
      ],
      "min": [
        -1.1405597925186157,
        -1.1405597925186157,
        -1.1240719556808472
      ],
      "type": "VEC3"
    },
    {
      "bufferView": 2,
      "byteOffset": 1579116,
      "componentType": 5126,
      "count": 553,
      "max": [
        1.0,
        1.0,
        1.0
      ],
      "min": [
        -1.0,
        -1.0,
        -1.0
      ],
      "type": "VEC3"
    },
    {
      "bufferView": 3,
      "byteOffset": 1048320,
      "componentType": 5126,
      "count": 553,
      "max": [
        1.0,
        1.0,
        1.0,
        1.0
      ],
      "min": [
        -1.0,
        -1.0,
        -1.0,
        1.0
      ],
      "type": "VEC4"
    },
    {
      "bufferView": 1,
      "byteOffset": 1635136,
      "componentType": 5126,
      "count": 553,
      "max": [
        0.9274245500564575,
        0.9252071380615234
      ],
      "min": [
        0.005020789802074432,
        0.005016157869249582
      ],
      "type": "VEC2"
    },
    {
      "bufferView": 1,
      "byteOffset": 1639560,
      "componentType": 5126,
      "count": 553,
      "max": [
        0.9274245500564575,
        0.9252071380615234
      ],
      "min": [
        0.005020789802074432,
        0.005016157869249582
      ],
      "type": "VEC2"
    },
    {
      "bufferView": 1,
      "byteOffset": 1643984,
      "componentType": 5126,
      "count": 553,
      "max": [
        0.9274245500564575,
        0.9252071380615234
      ],
      "min": [
        0.005020789802074432,
        0.005016157869249582
      ],
      "type": "VEC2"
    },
    {
      "bufferView": 0,
      "byteOffset": 970608,
      "componentType": 5125,
      "count": 1332,
      "type": "SCALAR"
    },
    {
      "bufferView": 2,
      "byteOffset": 1585752,
      "componentType": 5126,
      "count": 553,
      "max": [
        1.1405597925186157,
        1.1405597925186157,
        1.2763549089431763
      ],
      "min": [
        -1.1405597925186157,
        -1.1405597925186157,
        -1.1240719556808472
      ],
      "type": "VEC3"
    },
    {
      "bufferView": 2,
      "byteOffset": 1592388,
      "componentType": 5126,
      "count": 553,
      "max": [
        1.0,
        1.0,
        1.0
      ],
      "min": [
        -1.0,
        -1.0,
        -1.0
      ],
      "type": "VEC3"
    },
    {
      "bufferView": 3,
      "byteOffset": 1057168,
      "componentType": 5126,
      "count": 553,
      "max": [
        1.0,
        1.0,
        1.0,
        1.0
      ],
      "min": [
        -1.0,
        -1.0,
        -1.0,
        1.0
      ],
      "type": "VEC4"
    },
    {
      "bufferView": 1,
      "byteOffset": 1648408,
      "componentType": 5126,
      "count": 553,
      "max": [
        0.9274245500564575,
        0.9252071380615234
      ],
      "min": [
        0.005020789802074432,
        0.005016157869249582
      ],
      "type": "VEC2"
    },
    {
      "bufferView": 1,
      "byteOffset": 1652832,
      "componentType": 5126,
      "count": 553,
      "max": [
        0.9274245500564575,
        0.9252071380615234
      ],
      "min": [
        0.005020789802074432,
        0.005016157869249582
      ],
      "type": "VEC2"
    },
    {
      "bufferView": 1,
      "byteOffset": 1657256,
      "componentType": 5126,
      "count": 553,
      "max": [
        0.9274245500564575,
        0.9252071380615234
      ],
      "min": [
        0.005020789802074432,
        0.005016157869249582
      ],
      "type": "VEC2"
    },
    {
      "bufferView": 0,
      "byteOffset": 975936,
      "componentType": 5125,
      "count": 1332,
      "type": "SCALAR"
    },
    {
      "bufferView": 2,
      "byteOffset": 1599024,
      "componentType": 5126,
      "count": 7282,
      "max": [
        2.9887924194335938,
        2.8496506214141846,
        17.95804214477539
      ],
      "min": [
        -2.3117570877075195,
        -2.2579848766326904,
        -5.463621139526367
      ],
      "type": "VEC3"
    },
    {
      "bufferView": 2,
      "byteOffset": 1686408,
      "componentType": 5126,
      "count": 7282,
      "max": [
        0.9993788599967957,
        0.9996482133865356,
        1.0
      ],
      "min": [
        -0.9993788599967957,
        -0.9996483325958252,
        -1.0
      ],
      "type": "VEC3"
    },
    {
      "bufferView": 3,
      "byteOffset": 1066016,
      "componentType": 5126,
      "count": 7282,
      "max": [
        1.0,
        0.9993788599967957,
        1.0,
        1.0
      ],
      "min": [
        -0.9996482729911804,
        -0.9994297623634338,
        -1.0,
        -1.0
      ],
      "type": "VEC4"
    },
    {
      "bufferView": 1,
      "byteOffset": 1661680,
      "componentType": 5126,
      "count": 7282,
      "max": [
        0.9948049783706665,
        0.993648886680603
      ],
      "min": [
        0.005018339492380619,
        0.005016656126827002
      ],
      "type": "VEC2"
    },
    {
      "bufferView": 1,
      "byteOffset": 1719936,
      "componentType": 5126,
      "count": 7282,
      "max": [
        0.9948049783706665,
        0.993648886680603
      ],
      "min": [
        0.005018339492380619,
        0.005016656126827002
      ],
      "type": "VEC2"
    },
    {
      "bufferView": 1,
      "byteOffset": 1778192,
      "componentType": 5126,
      "count": 7282,
      "max": [
        0.9948049783706665,
        0.993648886680603
      ],
      "min": [
        0.005018339492380619,
        0.005016656126827002
      ],
      "type": "VEC2"
    },
    {
      "bufferView": 0,
      "byteOffset": 981264,
      "componentType": 5125,
      "count": 20466,
      "type": "SCALAR"
    },
    {
      "bufferView": 2,
      "byteOffset": 1773792,
      "componentType": 5126,
      "count": 65532,
      "max": [
        1.204591989517212,
        3.1070399284362793,
        1.722764015197754
      ],
      "min": [
        -0.24368900060653687,
        -2.887737989425659,
        -1.8980629444122314
      ],
      "type": "VEC3"
    },
    {
      "bufferView": 2,
      "byteOffset": 2560176,
      "componentType": 5126,
      "count": 65532,
      "max": [
        1.0,
        1.0,
        1.0
      ],
      "min": [
        -1.0,
        -1.0,
        -1.0
      ],
      "type": "VEC3"
    },
    {
      "bufferView": 3,
      "byteOffset": 1182528,
      "componentType": 5126,
      "count": 65532,
      "max": [
        1.0,
        1.0,
        1.0,
        1.0
      ],
      "min": [
        -1.0,
        -1.0,
        -1.0,
        -1.0
      ],
      "type": "VEC4"
    },
    {
      "bufferView": 1,
      "byteOffset": 1836448,
      "componentType": 5126,
      "count": 65532,
      "max": [
        0.9956449866294861,
        0.9934200048446655
      ],
      "min": [
        0.004352000076323748,
        0.004352000076323748
      ],
      "type": "VEC2"
    },
    {
      "bufferView": 1,
      "byteOffset": 2360704,
      "componentType": 5126,
      "count": 65532,
      "max": [
        0.9956449866294861,
        0.9934200048446655
      ],
      "min": [
        0.004352000076323748,
        0.004352000076323748
      ],
      "type": "VEC2"
    },
    {
      "bufferView": 1,
      "byteOffset": 2884960,
      "componentType": 5126,
      "count": 65532,
      "max": [
        0.9956449866294861,
        0.9934200048446655
      ],
      "min": [
        0.004352000076323748,
        0.004352000076323748
      ],
      "type": "VEC2"
    },
    {
      "bufferView": 0,
      "byteOffset": 1063128,
      "componentType": 5125,
      "count": 259836,
      "type": "SCALAR"
    },
    {
      "bufferView": 2,
      "byteOffset": 3346560,
      "componentType": 5126,
      "count": 9405,
      "max": [
        0.7651209831237793,
        1.9857490062713623,
        0.5841829776763916
      ],
      "min": [
        -0.24368900060653687,
        -0.33169999718666077,
        -0.7184349894523621
      ],
      "type": "VEC3"
    },
    {
      "bufferView": 2,
      "byteOffset": 3459420,
      "componentType": 5126,
      "count": 9405,
      "max": [
        0.9999999403953552,
        0.9997414350509644,
        0.9999158978462219
      ],
      "min": [
        -1.0,
        -0.9979299902915955,
        -0.9999889731407166
      ],
      "type": "VEC3"
    },
    {
      "bufferView": 3,
      "byteOffset": 2231040,
      "componentType": 5126,
      "count": 9405,
      "max": [
        0.9999984502792358,
        1.0,
        0.9998639822006226,
        1.0
      ],
      "min": [
        -1.0,
        -1.0,
        -0.9999508261680603,
        -1.0
      ],
      "type": "VEC4"
    },
    {
      "bufferView": 1,
      "byteOffset": 3409216,
      "componentType": 5126,
      "count": 9405,
      "max": [
        0.9883720278739929,
        0.9705600142478943
      ],
      "min": [
        0.004356000106781721,
        0.004354000091552734
      ],
      "type": "VEC2"
    },
    {
      "bufferView": 1,
      "byteOffset": 3484456,
      "componentType": 5126,
      "count": 9405,
      "max": [
        0.9883720278739929,
        0.9705600142478943
      ],
      "min": [
        0.004356000106781721,
        0.004354000091552734
      ],
      "type": "VEC2"
    },
    {
      "bufferView": 1,
      "byteOffset": 3559696,
      "componentType": 5126,
      "count": 9405,
      "max": [
        0.9883720278739929,
        0.9705600142478943
      ],
      "min": [
        0.004356000106781721,
        0.004354000091552734
      ],
      "type": "VEC2"
    },
    {
      "bufferView": 0,
      "byteOffset": 2102472,
      "componentType": 5125,
      "count": 41580,
      "type": "SCALAR"
    },
    {
      "bufferView": 2,
      "byteOffset": 3572280,
      "componentType": 5126,
      "count": 14807,
      "max": [
        5.894634246826172,
        5.463850975036621,
        19.886489868164063
      ],
      "min": [
        -2.95869779586792,
        -5.6975998878479,
        -2.5670313835144043
      ],
      "type": "VEC3"
    },
    {
      "bufferView": 2,
      "byteOffset": 3749964,
      "componentType": 5126,
      "count": 14807,
      "max": [
        0.999970555305481,
        0.999970555305481,
        1.0
      ],
      "min": [
        -0.999970555305481,
        -0.999970555305481,
        -1.0
      ],
      "type": "VEC3"
    },
    {
      "bufferView": 3,
      "byteOffset": 2381520,
      "componentType": 5126,
      "count": 14807,
      "max": [
        1.0,
        0.9999998807907104,
        1.0,
        1.0
      ],
      "min": [
        -0.9999720454216003,
        -0.9999704360961914,
        -1.0,
        -1.0
      ],
      "type": "VEC4"
    },
    {
      "bufferView": 1,
      "byteOffset": 3634936,
      "componentType": 5126,
      "count": 14807,
      "max": [
        0.9983655214309692,
        0.9972410798072815
      ],
      "min": [
        0.0016253034118562937,
        0.001624625874683261
      ],
      "type": "VEC2"
    },
    {
      "bufferView": 1,
      "byteOffset": 3753392,
      "componentType": 5126,
      "count": 14807,
      "max": [
        0.9983655214309692,
        0.9972410798072815
      ],
      "min": [
        0.0016253034118562937,
        0.001624625874683261
      ],
      "type": "VEC2"
    },
    {
      "bufferView": 1,
      "byteOffset": 3871848,
      "componentType": 5126,
      "count": 14807,
      "max": [
        0.9983655214309692,
        0.9972410798072815
      ],
      "min": [
        0.0016253034118562937,
        0.001624625874683261
      ],
      "type": "VEC2"
    },
    {
      "bufferView": 0,
      "byteOffset": 2268792,
      "componentType": 5125,
      "count": 24762,
      "type": "SCALAR"
    },
    {
      "bufferView": 2,
      "byteOffset": 3927648,
      "componentType": 5126,
      "count": 12783,
      "max": [
        0.9512360692024231,
        0.9326741099357605,
        1.4941333532333374
      ],
      "min": [
        -0.951236367225647,
        -0.881799578666687,
        -1.0339770317077637
      ],
      "type": "VEC3"
    },
    {
      "bufferView": 2,
      "byteOffset": 4081044,
      "componentType": 5126,
      "count": 12783,
      "max": [
        1.0,
        1.0,
        1.0
      ],
      "min": [
        -1.0,
        -1.0,
        -1.0
      ],
      "type": "VEC3"
    },
    {
      "bufferView": 3,
      "byteOffset": 2618432,
      "componentType": 5126,
      "count": 12783,
      "max": [
        1.0,
        1.0,
        1.0,
        1.0
      ],
      "min": [
        -1.0,
        -1.0,
        -1.0,
        -1.0
      ],
      "type": "VEC4"
    },
    {
      "bufferView": 1,
      "byteOffset": 3990304,
      "componentType": 5126,
      "count": 12783,
      "max": [
        0.9949217438697815,
        0.963367223739624
      ],
      "min": [
        0.005075151100754738,
        0.00506609445437789
      ],
      "type": "VEC2"
    },
    {
      "bufferView": 1,
      "byteOffset": 4092568,
      "componentType": 5126,
      "count": 12783,
      "max": [
        0.9949217438697815,
        0.963367223739624
      ],
      "min": [
        0.005075151100754738,
        0.00506609445437789
      ],
      "type": "VEC2"
    },
    {
      "bufferView": 1,
      "byteOffset": 4194832,
      "componentType": 5126,
      "count": 12783,
      "max": [
        0.9949217438697815,
        0.963367223739624
      ],
      "min": [
        0.005075151100754738,
        0.00506609445437789
      ],
      "type": "VEC2"
    },
    {
      "bufferView": 0,
      "byteOffset": 2367840,
      "componentType": 5125,
      "count": 59292,
      "type": "SCALAR"
    },
    {
      "bufferView": 2,
      "byteOffset": 4234440,
      "componentType": 5126,
      "count": 6842,
      "max": [
        61.244911193847656,
        60.78325271606445,
        6.084021091461182
      ],
      "min": [
        -59.589324951171875,
        -60.64529800415039,
        -9.36575698852539
      ],
      "type": "VEC3"
    },
    {
      "bufferView": 2,
      "byteOffset": 4316544,
      "componentType": 5126,
      "count": 6842,
      "max": [
        1.0,
        0.9999997019767761,
        1.0
      ],
      "min": [
        -1.0,
        -1.0,
        -0.9998196959495544
      ],
      "type": "VEC3"
    },
    {
      "bufferView": 3,
      "byteOffset": 2822960,
      "componentType": 5126,
      "count": 6842,
      "max": [
        0.17355777323246002,
        1.0,
        1.0,
        1.0
      ],
      "min": [
        -0.9998446106910706,
        -1.0,
        -1.0,
        1.0
      ],
      "type": "VEC4"
    },
    {
      "bufferView": 1,
      "byteOffset": 4297096,
      "componentType": 5126,
      "count": 6842,
      "max": [
        0.9948515892028809,
        0.9948474168777466
      ],
      "min": [
        0.0,
        0.0
      ],
      "type": "VEC2"
    },
    {
      "bufferView": 1,
      "byteOffset": 4351832,
      "componentType": 5126,
      "count": 6842,
      "max": [
        0.9948515892028809,
        0.9948474168777466
      ],
      "min": [
        0.0,
        0.0
      ],
      "type": "VEC2"
    },
    {
      "bufferView": 1,
      "byteOffset": 4406568,
      "componentType": 5126,
      "count": 6842,
      "max": [
        0.9948515892028809,
        0.9948474168777466
      ],
      "min": [
        0.0,
        0.0
      ],
      "type": "VEC2"
    },
    {
      "bufferView": 0,
      "byteOffset": 2605008,
      "componentType": 5125,
      "count": 34140,
      "type": "SCALAR"
    }
  ],
  "asset": {
    "extras": {
      "author": "Donstereo (https://sketchfab.com/Donstereo)",
      "license": "CC-BY-4.0 (http://creativecommons.org/licenses/by/4.0/)",
      "source": "https://sketchfab.com/3d-models/star-wars-tatooine-079a7ad387744e44a55bd62b834ddc64",
      "title": "Star wars Tatooine"
    },
    "generator": "Sketchfab-16.12.0",
    "version": "2.0"
  },
  "bufferViews": [
    {
      "buffer": 0,
      "byteLength": 2741568,
      "name": "floatBufferViews",
      "target": 34963
    },
    {
      "buffer": 0,
      "byteLength": 4461304,
      "byteOffset": 2741568,
      "byteStride": 8,
      "name": "floatBufferViews",
      "target": 34962
    },
    {
      "buffer": 0,
      "byteLength": 4398648,
      "byteOffset": 7202872,
      "byteStride": 12,
      "name": "floatBufferViews",
      "target": 34962
    },
    {
      "buffer": 0,
      "byteLength": 2932432,
      "byteOffset": 11601520,
      "byteStride": 16,
      "name": "floatBufferViews",
      "target": 34962
    }
  ],
  "buffers": [
    {
      "byteLength": 14533952,
      "uri": "scene.bin"
    }
  ],
  "extensionsUsed": [
    "KHR_materials_emissive_strength",
    "KHR_materials_specular"
  ],
  "images": [
    {
      "uri": "textures/Houses_baseColor.png"
    },
    {
      "uri": "textures/Houses_metallicRoughness.png"
    },
    {
      "uri": "textures/Houses_normal.png"
    },
    {
      "uri": "textures/Props_1_baseColor.png"
    },
    {
      "uri": "textures/Props_1_metallicRoughness.png"
    },
    {
      "uri": "textures/Props_1_normal.png"
    },
    {
      "uri": "textures/Props_2_baseColor.png"
    },
    {
      "uri": "textures/Props_2_metallicRoughness.png"
    },
    {
      "uri": "textures/Props_2_normal.png"
    },
    {
      "uri": "textures/material_baseColor.png"
    },
    {
      "uri": "textures/material_metallicRoughness.png"
    },
    {
      "uri": "textures/material_emissive.png"
    },
    {
      "uri": "textures/material_normal.png"
    },
    {
      "uri": "textures/material_4_baseColor.png"
    },
    {
      "uri": "textures/material_4_metallicRoughness.png"
    },
    {
      "uri": "textures/material_4_emissive.png"
    },
    {
      "uri": "textures/material_4_normal.png"
    },
    {
      "uri": "textures/robo_baseColor.jpeg"
    },
    {
      "uri": "textures/robo_metallicRoughness.png"
    },
    {
      "uri": "textures/robo_normal.png"
    },
    {
      "uri": "textures/material_6_baseColor.png"
    },
    {
      "uri": "textures/material_6_metallicRoughness.png"
    },
    {
      "uri": "textures/material_6_normal.png"
    },
    {
      "uri": "textures/sand_baseColor.jpeg"
    },
    {
      "uri": "textures/sand_metallicRoughness.png"
    },
    {
      "uri": "textures/sand_normal.png"
    }
  ],
  "materials": [
    {
      "doubleSided": true,
      "name": "Houses",
      "normalTexture": {
        "index": 2
      },
      "pbrMetallicRoughness": {
        "baseColorTexture": {
          "index": 0
        },
        "metallicRoughnessTexture": {
          "index": 1
        }
      }
    },
    {
      "doubleSided": true,
      "name": "Props_1",
      "normalTexture": {
        "index": 5
      },
      "pbrMetallicRoughness": {
        "baseColorTexture": {
          "index": 3
        },
        "metallicRoughnessTexture": {
          "index": 4
        }
      }
    },
    {
      "doubleSided": true,
      "name": "Props_2",
      "normalTexture": {
        "index": 8
      },
      "pbrMetallicRoughness": {
        "baseColorTexture": {
          "index": 6
        },
        "metallicRoughnessTexture": {
          "index": 7
        }
      }
    },
    {
      "alphaMode": "BLEND",
      "doubleSided": true,
      "emissiveFactor": [
        1.0,
        1.0,
        1.0
      ],
      "emissiveTexture": {
        "index": 11
      },
      "extensions": {
        "KHR_materials_emissive_strength": {
          "emissiveStrength": 3.3981055942265725
        }
      },
      "name": "material",
      "normalTexture": {
        "index": 12
      },
      "pbrMetallicRoughness": {
        "baseColorTexture": {
          "index": 9
        },
        "metallicRoughnessTexture": {
          "index": 10
        }
      }
    },
    {
      "doubleSided": true,
      "emissiveFactor": [
        1.0,
        1.0,
        1.0
      ],
      "emissiveTexture": {
        "index": 15
      },
      "extensions": {
        "KHR_materials_specular": {
          "specularColorFactor": [
            1.0,
            1.0,
            1.0
          ],
          "specularFactor": 1.0
        }
      },
      "name": "material_4",
      "normalTexture": {
        "index": 16
      },
      "pbrMetallicRoughness": {
        "baseColorTexture": {
          "index": 13
        },
        "metallicRoughnessTexture": {
          "index": 14
        }
      }
    },
    {
      "doubleSided": true,
      "name": "robo",
      "normalTexture": {
        "index": 19
      },
      "pbrMetallicRoughness": {
        "baseColorTexture": {
          "index": 17
        },
        "metallicRoughnessTexture": {
          "index": 18
        }
      }
    },
    {
      "doubleSided": true,
      "name": "material_6",
      "normalTexture": {
        "index": 22
      },
      "pbrMetallicRoughness": {
        "baseColorTexture": {
          "index": 20
        },
        "metallicRoughnessTexture": {
          "index": 21
        }
      }
    },
    {
      "doubleSided": true,
      "name": "sand",
      "normalTexture": {
        "index": 25
      },
      "pbrMetallicRoughness": {
        "baseColorTexture": {
          "index": 23
        },
        "metallicRoughnessTexture": {
          "index": 24
        }
      }
    }
  ],
  "meshes": [
    {
      "name": "Cube.002_Houses_0",
      "primitives": [
        {
          "attributes": {
            "NORMAL": 1,
            "POSITION": 0,
            "TANGENT": 2,
            "TEXCOORD_0": 3,
            "TEXCOORD_1": 4,
            "TEXCOORD_2": 5
          },
          "indices": 6,
          "material": 0,
          "mode": 4
        }
      ]
    },
    {
      "name": "Cube.003_Houses_0",
      "primitives": [
        {
          "attributes": {
            "NORMAL": 8,
            "POSITION": 7,
            "TANGENT": 9,
            "TEXCOORD_0": 10,
            "TEXCOORD_1": 11,
            "TEXCOORD_2": 12
          },
          "indices": 13,
          "material": 0,
          "mode": 4
        }
      ]
    },
    {
      "name": "Cube_Houses_0",
      "primitives": [
        {
          "attributes": {
            "NORMAL": 15,
            "POSITION": 14,
            "TANGENT": 16,
            "TEXCOORD_0": 17,
            "TEXCOORD_1": 18,
            "TEXCOORD_2": 19
          },
          "indices": 20,
          "material": 0,
          "mode": 4
        }
      ]
    },
    {
      "name": "Plane.002_Props_1_0",
      "primitives": [
        {
          "attributes": {
            "NORMAL": 22,
            "POSITION": 21,
            "TANGENT": 23,
            "TEXCOORD_0": 24,
            "TEXCOORD_1": 25,
            "TEXCOORD_2": 26
          },
          "indices": 27,
          "material": 1,
          "mode": 4
        }
      ]
    },
    {
      "name": "Cylinder.001_Houses_0",
      "primitives": [
        {
          "attributes": {
            "NORMAL": 29,
            "POSITION": 28,
            "TANGENT": 30,
            "TEXCOORD_0": 31,
            "TEXCOORD_1": 32,
            "TEXCOORD_2": 33
          },
          "indices": 34,
          "material": 0,
          "mode": 4
        }
      ]
    },
    {
      "name": "Cube.001_Houses_0",
      "primitives": [
        {
          "attributes": {
            "NORMAL": 36,
            "POSITION": 35,
            "TANGENT": 37,
            "TEXCOORD_0": 38,
            "TEXCOORD_1": 39,
            "TEXCOORD_2": 40
          },
          "indices": 41,
          "material": 0,
          "mode": 4
        }
      ]
    },
    {
      "name": "Cube.009_Houses_0",
      "primitives": [
        {
          "attributes": {
            "NORMAL": 43,
            "POSITION": 42,
            "TANGENT": 44,
            "TEXCOORD_0": 45,
            "TEXCOORD_1": 46,
            "TEXCOORD_2": 47
          },
          "indices": 48,
          "material": 0,
          "mode": 4
        }
      ]
    },
    {
      "name": "Cube.023_Props_2_0",
      "primitives": [
        {
          "attributes": {
            "NORMAL": 50,
            "POSITION": 49,
            "TANGENT": 51,
            "TEXCOORD_0": 52,
            "TEXCOORD_1": 53,
            "TEXCOORD_2": 54
          },
          "indices": 55,
          "material": 2,
          "mode": 4
        }
      ]
    },
    {
      "name": "Cube.011_Props_2_0",
      "primitives": [
        {
          "attributes": {
            "NORMAL": 57,
            "POSITION": 56,
            "TANGENT": 58,
            "TEXCOORD_0": 59,
            "TEXCOORD_1": 60,
            "TEXCOORD_2": 61
          },
          "indices": 62,
          "material": 2,
          "mode": 4
        }
      ]
    },
    {
      "name": "Cylinder.002_Props_2_0",
      "primitives": [
        {
          "attributes": {
            "NORMAL": 64,
            "POSITION": 63,
            "TANGENT": 65,
            "TEXCOORD_0": 66,
            "TEXCOORD_1": 67,
            "TEXCOORD_2": 68
          },
          "indices": 69,
          "material": 2,
          "mode": 4
        }
      ]
    },
    {
      "name": "Cube.008_Props_2_0",
      "primitives": [
        {
          "attributes": {
            "NORMAL": 71,
            "POSITION": 70,
            "TANGENT": 72,
            "TEXCOORD_0": 73,
            "TEXCOORD_1": 74,
            "TEXCOORD_2": 75
          },
          "indices": 76,
          "material": 2,
          "mode": 4
        }
      ]
    },
    {
      "name": "Cube.030_Props_2_0",
      "primitives": [
        {
          "attributes": {
            "NORMAL": 78,
            "POSITION": 77,
            "TANGENT": 79,
            "TEXCOORD_0": 80,
            "TEXCOORD_1": 81,
            "TEXCOORD_2": 82
          },
          "indices": 83,
          "material": 2,
          "mode": 4
        }
      ]
    },
    {
      "name": "Cube.031_Props_2_0",
      "primitives": [
        {
          "attributes": {
            "NORMAL": 85,
            "POSITION": 84,
            "TANGENT": 86,
            "TEXCOORD_0": 87,
            "TEXCOORD_1": 88,
            "TEXCOORD_2": 89
          },
          "indices": 90,
          "material": 2,
          "mode": 4
        }
      ]
    },
    {
      "name": "Plane.005_Props_1_0",
      "primitives": [
        {
          "attributes": {
            "NORMAL": 92,
            "POSITION": 91,
            "TANGENT": 93,
            "TEXCOORD_0": 94,
            "TEXCOORD_1": 95,
            "TEXCOORD_2": 96
          },
          "indices": 97,
          "material": 1,
          "mode": 4
        }
      ]
    },
    {
      "name": "Cube.025_Props_1_0",
      "primitives": [
        {
          "attributes": {
            "NORMAL": 99,
            "POSITION": 98,
            "TANGENT": 100,
            "TEXCOORD_0": 101,
            "TEXCOORD_1": 102,
            "TEXCOORD_2": 103
          },
          "indices": 104,
          "material": 1,
          "mode": 4
        }
      ]
    },
    {
      "name": "Plane.006_Props_1_0",
      "primitives": [
        {
          "attributes": {
            "NORMAL": 106,
            "POSITION": 105,
            "TANGENT": 107,
            "TEXCOORD_0": 108,
            "TEXCOORD_1": 109,
            "TEXCOORD_2": 110
          },
          "indices": 111,
          "material": 1,
          "mode": 4
        }
      ]
    },
    {
      "name": "Cube.007_Props_2_0",
      "primitives": [
        {
          "attributes": {
            "NORMAL": 113,
            "POSITION": 112,
            "TANGENT": 114,
            "TEXCOORD_0": 115,
            "TEXCOORD_1": 116,
            "TEXCOORD_2": 117
          },
          "indices": 118,
          "material": 2,
          "mode": 4
        }
      ]
    },
    {
      "name": "Cube.014_Props_2_0",
      "primitives": [
        {
          "attributes": {
            "NORMAL": 120,
            "POSITION": 119,
            "TANGENT": 121,
            "TEXCOORD_0": 122,
            "TEXCOORD_1": 123,
            "TEXCOORD_2": 124
          },
          "indices": 125,
          "material": 2,
          "mode": 4
        }
      ]
    },
    {
      "name": "NurbsPath_Props_2_0",
      "primitives": [
        {
          "attributes": {
            "NORMAL": 127,
            "POSITION": 126,
            "TANGENT": 128,
            "TEXCOORD_0": 129,
            "TEXCOORD_1": 130,
            "TEXCOORD_2": 131
          },
          "indices": 132,
          "material": 2,
          "mode": 4
        }
      ]
    },
    {
      "name": "Plane.004_Props_2_0",
      "primitives": [
        {
          "attributes": {
            "NORMAL": 134,
            "POSITION": 133,
            "TANGENT": 135,
            "TEXCOORD_0": 136,
            "TEXCOORD_1": 137,
            "TEXCOORD_2": 138
          },
          "indices": 139,
          "material": 2,
          "mode": 4
        }
      ]
    },
    {
      "name": "Plane.007_Props_2_0",
      "primitives": [
        {
          "attributes": {
            "NORMAL": 141,
            "POSITION": 140,
            "TANGENT": 142,
            "TEXCOORD_0": 143,
            "TEXCOORD_1": 144,
            "TEXCOORD_2": 145
          },
          "indices": 146,
          "material": 2,
          "mode": 4
        }
      ]
    },
    {
      "name": "Cube.016_1_0",
      "primitives": [
        {
          "attributes": {
            "NORMAL": 148,
            "POSITION": 147,
            "TANGENT": 149,
            "TEXCOORD_0": 150,
            "TEXCOORD_1": 151,
            "TEXCOORD_2": 152,
            "TEXCOORD_3": 153
          },
          "indices": 154,
          "material": 3,
          "mode": 4
        }
      ]
    },
    {
      "name": "Cube.005_Props_2_0",
      "primitives": [
        {
          "attributes": {
            "NORMAL": 156,
            "POSITION": 155,
            "TANGENT": 157,
            "TEXCOORD_0": 158,
            "TEXCOORD_1": 159,
            "TEXCOORD_2": 160
          },
          "indices": 161,
          "material": 2,
          "mode": 4
        }
      ]
    },
    {
      "name": "Cylinder.005_Props_2_0",
      "primitives": [
        {
          "attributes": {
            "NORMAL": 163,
            "POSITION": 162,
            "TANGENT": 164,
            "TEXCOORD_0": 165,
            "TEXCOORD_1": 166,
            "TEXCOORD_2": 167
          },
          "indices": 168,
          "material": 2,
          "mode": 4
        }
      ]
    },
    {
      "name": "Cylinder.004_Props_2_0",
      "primitives": [
        {
          "attributes": {
            "NORMAL": 170,
            "POSITION": 169,
            "TANGENT": 171,
            "TEXCOORD_0": 172,
            "TEXCOORD_1": 173,
            "TEXCOORD_2": 174
          },
          "indices": 175,
          "material": 2,
          "mode": 4
        }
      ]
    },
    {
      "name": "Plane.003_Props_2_0",
      "primitives": [
        {
          "attributes": {
            "NORMAL": 177,
            "POSITION": 176,
            "TANGENT": 178,
            "TEXCOORD_0": 179,
            "TEXCOORD_1": 180,
            "TEXCOORD_2": 181
          },
          "indices": 182,
          "material": 2,
          "mode": 4
        }
      ]
    },
    {
      "name": "Cylinder.003_c30_0",
      "primitives": [
        {
          "attributes": {
            "NORMAL": 184,
            "POSITION": 183,
            "TANGENT": 185,
            "TEXCOORD_0": 186,
            "TEXCOORD_1": 187,
            "TEXCOORD_2": 188
          },
          "indices": 189,
          "material": 4,
          "mode": 4
        }
      ]
    },
    {
      "name": "Cylinder.003_c30_0",
      "primitives": [
        {
          "attributes": {
            "NORMAL": 191,
            "POSITION": 190,
            "TANGENT": 192,
            "TEXCOORD_0": 193,
            "TEXCOORD_1": 194,
            "TEXCOORD_2": 195
          },
          "indices": 196,
          "material": 4,
          "mode": 4
        }
      ]
    },
    {
      "name": "Cylinder.006_robo_0",
      "primitives": [
        {
          "attributes": {
            "NORMAL": 198,
            "POSITION": 197,
            "TANGENT": 199,
            "TEXCOORD_0": 200,
            "TEXCOORD_1": 201,
            "TEXCOORD_2": 202
          },
          "indices": 203,
          "material": 5,
          "mode": 4
        }
      ]
    },
    {
      "name": "Sphere.001_3_0",
      "primitives": [
        {
          "attributes": {
            "NORMAL": 205,
            "POSITION": 204,
            "TANGENT": 206,
            "TEXCOORD_0": 207,
            "TEXCOORD_1": 208,
            "TEXCOORD_2": 209
          },
          "indices": 210,
          "material": 6,
          "mode": 4
        }
      ]
    },
    {
      "name": "Plane.001_sand_0",
      "primitives": [
        {
          "attributes": {
            "NORMAL": 212,
            "POSITION": 211,
            "TANGENT": 213,
            "TEXCOORD_0": 214,
            "TEXCOORD_1": 215,
            "TEXCOORD_2": 216
          },
          "indices": 217,
          "material": 7,
          "mode": 4
        }
      ]
    }
  ],
  "nodes": [
    {
      "children": [
        1
      ],
      "matrix": [
        1.0,
        0.0,
        0.0,
        0.0,
        0.0,
        2.220446049250313e-16,
        -1.0,
        0.0,
        0.0,
        1.0,
        2.220446049250313e-16,
        0.0,
        0.0,
        0.0,
        0.0,
        1.0
      ],
      "name": "Sketchfab_model"
    },
    {
      "children": [
        2
      ],
      "matrix": [
        0.009999999776482582,
        0.0,
        0.0,
        0.0,
        0.0,
        0.0,
        0.009999999776482582,
        0.0,
        0.0,
        -0.009999999776482582,
        0.0,
        0.0,
        0.0,
        0.0,
        0.0,
        1.0
      ],
      "name": "148f6d7a81fd4230aaf596524c2b6acd.fbx"
    },
    {
      "children": [
        3,
        5,
        7,
        9,
        11,
        13,
        15,
        17,
        19,
        21,
        23,
        25,
        27,
        29,
        31,
        33,
        35,
        37,
        39,
        41,
        43,
        45,
        47,
        49,
        51,
        53,
        55,
        58,
        60,
        62
      ],
      "name": "RootNode"
    },
    {
      "children": [
        4
      ],
      "matrix": [
        100.0,
        0.0,
        0.0,
        0.0,
        0.0,
        -1.629206793918314e-05,
        -99.99999999999868,
        0.0,
        0.0,
        99.99999999999868,
        -1.629206793918314e-05,
        0.0,
        1313.7294921875,
        1134.0433349609375,
        2182.94384765625,
        1.0
      ],
      "name": "Cube.002"
    },
    {
      "mesh": 0,
      "name": "Cube.002_Houses_0"
    },
    {
      "children": [
        6
      ],
      "matrix": [
        99.24098012253614,
        -5.192860738634231e-07,
        12.297473899886317,
        0.0,
        12.297473899886322,
        7.4854424769732475e-06,
        -99.24098012253586,
        0.0,
        -4.051757464262895e-07,
        99.99999999999972,
        7.4924855542057855e-06,
        0.0,
        1852.375732421875,
        911.6644897460938,
        -393.40338134765625,
        1.0
      ],
      "name": "Cube.003"
    },
    {
      "mesh": 1,
      "name": "Cube.003_Houses_0"
    },
    {
      "children": [
        8
      ],
      "matrix": [
        100.0,
        0.0,
        0.0,
        0.0,
        -0.0,
        -1.629206793918314e-05,
        -99.99999999999868,
        0.0,
        0.0,
        99.99999999999868,
        -1.629206793918314e-05,
        0.0,
        -2375.763671875,
        1057.9498291015625,
        -1196.103515625,
        1.0
      ],
      "name": "Cube"
    },
    {
      "mesh": 2,
      "name": "Cube_Houses_0"
    },
    {
      "children": [
        10
      ],
      "matrix": [
        757.0559034044624,
        0.0,
        536.7410123005334,
        0.0,
        536.7410123005263,
        -0.00015119395059398784,
        -757.0559034044524,
        0.0,
        8.744618749172161e-05,
        928.0216064453002,
        -0.00012334002989249326,
        0.0,
        -651.9533081054688,
        1369.426513671875,
        2070.6591796875,
        1.0
      ],
      "name": "Plane.002"
    },
    {
      "mesh": 3,
      "name": "Plane.002_Props_1_0"
    },
    {
      "children": [
        12
      ],
      "matrix": [
        100.0,
        0.0,
        0.0,
        0.0,
        -0.0,
        -1.629206793918314e-05,
        -99.99999999999868,
        0.0,
        0.0,
        99.99999999999868,
        -1.629206793918314e-05,
        0.0,
        -2106.083984375,
        1316.931396484375,
        1596.0479736328125,
        1.0
      ],
      "name": "Cylinder.001"
    },
    {
      "mesh": 4,
      "name": "Cylinder.001_Houses_0"
    },
    {
      "children": [
        14
      ],
      "matrix": [
        100.0,
        0.0,
        0.0,
        0.0,
        -0.0,
        -1.629206793918314e-05,
        -99.99999999999868,
        0.0,
        0.0,
        99.99999999999868,
        -1.629206793918314e-05,
        0.0,
        -2718.413818359375,
        781.4408569335938,
        184.1950225830078,
        1.0
      ],
      "name": "Cube.001"
    },
    {
      "mesh": 5,
      "name": "Cube.001_Houses_0"
    },
    {
      "children": [
        16
      ],
      "matrix": [
        100.0,
        0.0,
        0.0,
        0.0,
        -0.0,
        -1.629206793918314e-05,
        -99.99999999999868,
        0.0,
        0.0,
        99.99999999999868,
        -1.629206793918314e-05,
        0.0,
        -2905.985107421875,
        1184.323486328125,
        110.04801940917969,
        1.0
      ],
      "name": "Cube.009"
    },
    {
      "mesh": 6,
      "name": "Cube.009_Houses_0"
    },
    {
      "children": [
        18
      ],
      "matrix": [
        20.145152244344885,
        9.858719678415751e-08,
        2.335242531487042,
        0.0,
        2.3352425314870437,
        -8.750409640695821e-07,
        -20.14515224434487,
        0.0,
        2.8293214592458104e-09,
        20.280052185058576,
        -8.805726103894514e-07,
        0.0,
        -539.931884765625,
        1377.9476318359375,
        1746.1219482421875,
        1.0
      ],
      "name": "Cube.023"
    },
    {
      "mesh": 7,
      "name": "Cube.023_Props_2_0"
    },
    {
      "children": [
        20
      ],
      "matrix": [
        -28.51406269113714,
        1.6653345369377348e-14,
        -95.8485692582101,
        0.0,
        -95.84856925820984,
        7.549789948768648e-06,
        28.514062691137067,
        0.0,
        7.2363656511420515e-06,
        99.9999999999997,
        -2.1527517990449496e-06,
        0.0,
        -2800.079345703125,
        1494.908203125,
        37.29058837890625,
        1.0
      ],
      "name": "Cube.011"
    },
    {
      "mesh": 8,
      "name": "Cube.011_Props_2_0"
    },
    {
      "children": [
        22
      ],
      "matrix": [
        99.24098012253614,
        -5.192860738634231e-07,
        12.297473899886317,
        0.0,
        12.297473899886322,
        7.4854424769732475e-06,
        -99.24098012253586,
        0.0,
        -5.03705614845724e-07,
        124.3178100585934,
        9.314493959945124e-06,
        0.0,
        1013.7293701171875,
        625.2470703125,
        790.9161987304688,
        1.0
      ],
      "name": "Cylinder.002"
    },
    {
      "mesh": 9,
      "name": "Cylinder.002_Props_2_0"
    },
    {
      "children": [
        24
      ],
      "matrix": [
        72.40124947044106,
        0.637268078549753,
        24.18016523152387,
        0.0,
        24.069370674526205,
        5.667883541103468,
        -72.21888086107674,
        0.0,
        -2.3982868063649776,
        76.12158200518023,
        5.1748656748448365,
        0.0,
        -1863.352783203125,
        858.0768432617188,
        803.2245483398438,
        1.0
      ],
      "name": "Cube.008"
    },
    {
      "mesh": 10,
      "name": "Cube.008_Props_2_0"
    },
    {
      "children": [
        26
      ],
      "matrix": [
        8.777111259835637,
        3.984030224106031e-06,
        -70.83169968795337,
        0.0,
        -70.83169968790108,
        -8.632140241778989e-05,
        -8.777111259834005,
        0.0,
        -8.615613340852988e-05,
        71.37342834467425,
        -6.66153820063222e-06,
        0.0,
        1279.8394775390625,
        859.5472412109375,
        222.90737915039063,
        1.0
      ],
      "name": "Cube.030"
    },
    {
      "mesh": 11,
      "name": "Cube.030_Props_2_0"
    },
    {
      "children": [
        28
      ],
      "matrix": [
        3.161946651980789e-05,
        8.104957575580125e-15,
        73.0029678344658,
        0.0,
        73.00296783446575,
        -3.191061202776195e-06,
        -3.1619466523860365e-05,
        0.0,
        3.1910611946712375e-06,
        73.00296783447259,
        -1.3940527029997814e-12,
        0.0,
        -1597.0848388671875,
        859.5472412109375,
        -1506.606689453125,
        1.0
      ],
      "name": "Cube.031"
    },
    {
      "mesh": 12,
      "name": "Cube.031_Props_2_0"
    },
    {
      "children": [
        30
      ],
      "matrix": [
        104.49950408935547,
        0.0,
        0.0,
        0.0,
        -0.0,
        -1.7025130202347256e-05,
        -104.49950408935409,
        0.0,
        0.0,
        104.49950408935409,
        -1.7025130202347256e-05,
        0.0,
        -1845.416259765625,
        1524.2130126953125,
        -634.3720092773438,
        1.0
      ],
      "name": "Plane.005"
    },
    {
      "mesh": 13,
      "name": "Plane.005_Props_1_0"
    },
    {
      "children": [
        32
      ],
      "matrix": [
        -51.54881843150556,
        0.0,
        -85.68966867899346,
        0.0,
        -85.68966867899337,
        -4.371139028513937e-06,
        51.5488184315055,
        0.0,
        -3.7456145463021784e-06,
        99.9999999999999,
        2.253270525720552e-06,
        0.0,
        2094.47802734375,
        1439.1063232421875,
        1418.0513916015625,
        1.0
      ],
      "name": "Cube.025"
    },
    {
      "mesh": 14,
      "name": "Cube.025_Props_1_0"
    },
    {
      "children": [
        34
      ],
      "matrix": [
        -43.96943064172187,
        -4.6522333467444697e-07,
        75.05410043136965,
        0.0,
        124.64014754181534,
        1.2224727979487388e-05,
        73.01874635783743,
        0.0,
        -1.0938478566630039e-05,
        144.45381164550727,
        -5.512761927574484e-06,
        0.0,
        2004.0330810546875,
        1498.4952392578125,
        -1289.4400634765625,
        1.0
      ],
      "name": "Plane.006"
    },
    {
      "mesh": 15,
      "name": "Plane.006_Props_1_0"
    },
    {
      "children": [
        36
      ],
      "matrix": [
        144.40057472497531,
        -5.7899642013587236e-08,
        16.73903386500166,
        0.0,
        14.623707397335401,
        -5.557092778735704e-06,
        -126.15254678468841,
        0.0,
        6.901441156148633e-07,
        126.99731445312487,
        -5.514303201982376e-06,
        0.0,
        -572.9529418945313,
        540.5568237304688,
        1745.928955078125,
        1.0
      ],
      "name": "Cube.007"
    },
    {
      "mesh": 16,
      "name": "Cube.007_Props_2_0"
    },
    {
      "children": [
        38
      ],
      "matrix": [
        -17.34425812676264,
        -8.445160455850204e-06,
        149.62160957895833,
        0.0,
        126.15254701710654,
        1.0456421219671552e-05,
        14.623705392359636,
        0.0,
        -1.1206788577262206e-05,
        126.99731445312437,
        5.8690670822446876e-06,
        0.0,
        -51.491119384765625,
        540.5568237304688,
        2242.006591796875,
        1.0
      ],
      "name": "Cube.014"
    },
    {
      "mesh": 17,
      "name": "Cube.014_Props_2_0"
    },
    {
      "children": [
        40
      ],
      "matrix": [
        147.27586364746094,
        0.0,
        0.0,
        0.0,
        0.0,
        -2.3994283763463062e-05,
        -147.275863647459,
        0.0,
        0.0,
        147.275863647459,
        -2.3994283763463062e-05,
        0.0,
        1303.832763671875,
        1679.532958984375,
        2168.819091796875,
        1.0
      ],
      "name": "NurbsPath"
    },
    {
      "mesh": 18,
      "name": "NurbsPath_Props_2_0"
    },
    {
      "children": [
        42
      ],
      "matrix": [
        100.0,
        0.0,
        0.0,
        0.0,
        -0.0,
        -1.629206793918314e-05,
        -99.99999999999868,
        0.0,
        0.0,
        99.99999999999868,
        -1.629206793918314e-05,
        0.0,
        -2398.03076171875,
        1033.0670166015625,
        -2590.400390625,
        1.0
      ],
      "name": "Plane.004"
    },
    {
      "mesh": 19,
      "name": "Plane.004_Props_2_0"
    },
    {
      "children": [
        44
      ],
      "matrix": [
        43.6601563832727,
        -4.47391720892476e-06,
        -89.96549752315136,
        0.0,
        -89.96549752315019,
        -1.89941067318955e-05,
        -43.6601563832712,
        0.0,
        -1.513482337234251e-05,
        99.9999999999981,
        -1.2317838593567387e-05,
        0.0,
        2786.786376953125,
        1033.0670166015625,
        1976.9825439453125,
        1.0
      ],
      "name": "Plane.007"
    },
    {
      "mesh": 20,
      "name": "Plane.007_Props_2_0"
    },
    {
      "children": [
        46
      ],
      "matrix": [
        -138.95908482962784,
        -4.1496845887409424e-05,
        -374.9020673331622,
        0.0,
        -374.9020673331645,
        1.3556470221760926e-05,
        138.9590848296272,
        0.0,
        -1.7107796582898423e-06,
        399.8264160156226,
        -4.362154340671251e-05,
        0.0,
        -79.49369812011719,
        461.869873046875,
        -1559.521728515625,
        1.0
      ],
      "name": "Cube.016"
    },
    {
      "mesh": 21,
      "name": "Cube.016_1_0"
    },
    {
      "children": [
        48
      ],
      "matrix": [
        -74.08794883911787,
        -1.1102230246251565e-14,
        67.16379855854086,
        0.0,
        67.16379855854065,
        7.549789970973109e-06,
        74.08794883911766,
        0.0,
        -5.070725739297899e-06,
        99.99999999999972,
        -5.593484542210092e-06,
        0.0,
        -3284.94921875,
        624.3886108398438,
        1152.615966796875,
        1.0
      ],
      "name": "Cube.005"
    },
    {
      "mesh": 22,
      "name": "Cube.005_Props_2_0"
    },
    {
      "children": [
        50
      ],
      "matrix": [
        99.24098012253614,
        -5.192860738634231e-07,
        12.297473899886317,
        0.0,
        12.297473899886322,
        7.4854424769732475e-06,
        -99.24098012253586,
        0.0,
        -5.03705614845724e-07,
        124.3178100585934,
        9.314493959945124e-06,
        0.0,
        2319.33203125,
        625.2470703125,
        -1979.5029296875,
        1.0
      ],
      "name": "Cylinder.005"
    },
    {
      "mesh": 23,
      "name": "Cylinder.005_Props_2_0"
    },
    {
      "children": [
        52
      ],
      "matrix": [
        99.24098012253614,
        -5.192860738634231e-07,
        12.297473899886317,
        0.0,
        12.297473899886322,
        7.4854424769732475e-06,
        -99.24098012253586,
        0.0,
        -5.03705614845724e-07,
        124.3178100585934,
        9.314493959945124e-06,
        0.0,
        172.2714385986328,
        625.2470703125,
        2763.627197265625,
        1.0
      ],
      "name": "Cylinder.004"
    },
    {
      "mesh": 24,
      "name": "Cylinder.004_Props_2_0"
    },
    {
      "children": [
        54
      ],
      "matrix": [
        44.622313330421605,
        -4.435548833993532e-06,
        -89.4921651719457,
        0.0,
        -89.4921651719445,
        -1.931729129159371e-05,
        -44.62231333042006,
        0.0,
        -1.5308220058241062e-05,
        99.99999999999804,
        -1.2589292852638323e-05,
        0.0,
        2770.546630859375,
        1077.9189453125,
        1964.3521728515625,
        1.0
      ],
      "name": "Plane.003"
    },
    {
      "mesh": 25,
      "name": "Plane.003_Props_2_0"
    },
    {
      "children": [
        56,
        57
      ],
      "matrix": [
        -76.82971684643852,
        -1.8000516752445606e-13,
        -75.75050935732285,
        0.0,
        -5.719000395763545e-06,
        107.89318084716766,
        5.80047798170187e-06,
        0.0,
        75.75050935732264,
        8.145707328314849e-06,
        -76.8297168464383,
        0.0,
        434.79638671875,
        773.4371337890625,
        -1582.52783203125,
        1.0
      ],
      "name": "Cylinder.003"
    },
    {
      "mesh": 26,
      "name": "Cylinder.003_c30_0"
    },
    {
      "mesh": 27,
      "name": "Cylinder.003_c30_0"
    },
    {
      "children": [
        59
      ],
      "matrix": [
        -23.914029909312784,
        -1.438221942412784e-06,
        5.759272085981112,
        0.0,
        5.75927208593883,
        -0.00010042642305507871,
        23.914029909112145,
        0.0,
        2.211540004349257e-05,
        24.59776496866702,
        9.79716490202954e-05,
        0.0,
        -1324.11083984375,
        538.48486328125,
        110.42437744140625,
        1.0
      ],
      "name": "Cylinder.006"
    },
    {
      "mesh": 28,
      "name": "Cylinder.006_robo_0"
    },
    {
      "children": [
        61
      ],
      "matrix": [
        59.086229854598876,
        -13.059727098118495,
        -61.920441107453584,
        0.0,
        -60.46118943298025,
        13.363617587565603,
        -60.512310116694316,
        0.0,
        18.685359346184935,
        84.53837047321446,
        -9.858704938598661e-06,
        0.0,
        2411.223876953125,
        565.595947265625,
        -2871.6103515625,
        1.0
      ],
      "name": "Sphere.001"
    },
    {
      "mesh": 29,
      "name": "Sphere.001_3_0"
    },
    {
      "children": [
        63
      ],
      "matrix": [
        2.7505230120362397e-06,
        6.986037216652561e-15,
        62.924629211425724,
        0.0,
        62.92462921142566,
        -2.7505230120362397e-06,
        -2.7505230155292583e-06,
        0.0,
        2.7505230155292583e-06,
        62.924629211425724,
        -1.257486698997461e-13,
        0.0,
        0.0,
        580.5111694335938,
        0.0,
        1.0
      ],
      "name": "Plane.001"
    },
    {
      "mesh": 30,
      "name": "Plane.001_sand_0"
    }
  ],
  "samplers": [
    {
      "magFilter": 9729,
      "minFilter": 9987,
      "wrapS": 10497,
      "wrapT": 10497
    }
  ],
  "scene": 0,
  "scenes": [
    {
      "name": "Sketchfab_Scene",
      "nodes": [
        0
      ]
    }
  ],
  "textures": [
    {
      "sampler": 0,
      "source": 0
    },
    {
      "sampler": 0,
      "source": 1
    },
    {
      "sampler": 0,
      "source": 2
    },
    {
      "sampler": 0,
      "source": 3
    },
    {
      "sampler": 0,
      "source": 4
    },
    {
      "sampler": 0,
      "source": 5
    },
    {
      "sampler": 0,
      "source": 6
    },
    {
      "sampler": 0,
      "source": 7
    },
    {
      "sampler": 0,
      "source": 8
    },
    {
      "sampler": 0,
      "source": 9
    },
    {
      "sampler": 0,
      "source": 10
    },
    {
      "sampler": 0,
      "source": 11
    },
    {
      "sampler": 0,
      "source": 12
    },
    {
      "sampler": 0,
      "source": 13
    },
    {
      "sampler": 0,
      "source": 14
    },
    {
      "sampler": 0,
      "source": 15
    },
    {
      "sampler": 0,
      "source": 16
    },
    {
      "sampler": 0,
      "source": 17
    },
    {
      "sampler": 0,
      "source": 18
    },
    {
      "sampler": 0,
      "source": 19
    },
    {
      "sampler": 0,
      "source": 20
    },
    {
      "sampler": 0,
      "source": 21
    },
    {
      "sampler": 0,
      "source": 22
    },
    {
      "sampler": 0,
      "source": 23
    },
    {
      "sampler": 0,
      "source": 24
    },
    {
      "sampler": 0,
      "source": 25
    }
  ]
}
