{
  "accessors": [
    {
      "bufferView": 2,
      "componentType": 5126,
      "count": 510,
      "max": [
        1.0,
        0.19898299872875214,
        0.22899499535560608
      ],
      "min": [
        0.5404360294342041,
        -0.06955169886350632,
        -0.2278369963169098
      ],
      "type": "VEC3"
    },
    {
      "bufferView": 2,
      "byteOffset": 6120,
      "componentType": 5126,
      "count": 510,
      "max": [
        0.9998973608016968,
        0.9942758679389954,
        0.9828272461891174
      ],
      "min": [
        -0.9986397624015808,
        -0.9955131411552429,
        -0.9828271269798279
      ],
      "type": "VEC3"
    },
    {
      "bufferView": 3,
      "componentType": 5126,
      "count": 510,
      "max": [
        0.9745919704437256,
        0.9931880235671997,
        0.9741550087928772,
        1.0
      ],
      "min": [
        -0.9999819993972778,
        -0.9998970031738281,
        -0.9988390207290649,
        1.0
      ],
      "type": "VEC4"
    },
    {
      "bufferView": 1,
      "componentType": 5126,
      "count": 510,
      "max": [
        1.0,
        1.0
      ],
      "min": [
        0.0,
        0.0
      ],
      "type": "VEC2"
    },
    {
      "bufferView": 0,
      "componentType": 5125,
      "count": 1404,
      "type": "SCALAR"
    },
    {
      "bufferView": 2,
      "byteOffset": 12240,
      "componentType": 5126,
      "count": 736,
      "max": [
        0.6469240188598633,
        0.2812579870223999,
        0.3271409869194031
      ],
      "min": [
        -1.0,
        -0.2812579870223999,
        -0.3271409869194031
      ],
      "type": "VEC3"
    },
    {
      "bufferView": 2,
      "byteOffset": 21072,
      "componentType": 5126,
      "count": 736,
      "max": [
        0.9805079102516174,
        0.980084240436554,
        0.9891376495361328
      ],
      "min": [
        -0.9841692447662354,
        -0.9961860179901123,
        -0.9891731142997742
      ],
      "type": "VEC3"
    },
    {
      "bufferView": 3,
      "byteOffset": 8160,
      "componentType": 5126,
      "count": 736,
      "max": [
        0.8971899747848511,
        0.9998670220375061,
        1.0,
        1.0
      ],
      "min": [
        -0.9996100068092346,
        -0.9981909990310669,
        -1.0,
        1.0
      ],
      "type": "VEC4"
    },
    {
      "bufferView": 1,
      "byteOffset": 4080,
      "componentType": 5126,
      "count": 736,
      "max": [
        1.0,
        1.0
      ],
      "min": [
        0.0,
        0.0
      ],
      "type": "VEC2"
    },
    {
      "bufferView": 0,
      "byteOffset": 5616,
      "componentType": 5125,
      "count": 2070,
      "type": "SCALAR"
    }
  ],
  "asset": {
    "extras": {
      "author": "paethon (https://sketchfab.com/paethon)",
      "license": "CC-BY-4.0 (http://creativecommons.org/licenses/by/4.0/)",
      "source": "https://sketchfab.com/3d-models/type-2-phaser-tng-31288de510af4cf4b5cd232b9aa3d314",
      "title": "Type 2 Phaser - TNG"
    },
    "generator": "Sketchfab-12.67.0",
    "version": "2.0"
  },
  "bufferViews": [
    {
      "buffer": 0,
      "byteLength": 13896,
      "name": "floatBufferViews",
      "target": 34963
    },
    {
      "buffer": 0,
      "byteLength": 9968,
      "byteOffset": 13896,
      "byteStride": 8,
      "name": "floatBufferViews",
      "target": 34962
    },
    {
      "buffer": 0,
      "byteLength": 29904,
      "byteOffset": 23864,
      "byteStride": 12,
      "name": "floatBufferViews",
      "target": 34962
    },
    {
      "buffer": 0,
      "byteLength": 19936,
      "byteOffset": 53768,
      "byteStride": 16,
      "name": "floatBufferViews",
      "target": 34962
    }
  ],
  "buffers": [
    {
      "byteLength": 73704,
      "uri": "scene.bin"
    }
  ],
  "images": [
    {
      "uri": "textures/Body_001_baseColor.jpeg"
    },
    {
      "uri": "textures/Body_001_metallicRoughness.png"
    },
    {
      "uri": "textures/Body_001_normal.jpeg"
    },
    {
      "uri": "textures/Nossle_baseColor.jpeg"
    },
    {
      "uri": "textures/Nossle_metallicRoughness.png"
    },
    {
      "uri": "textures/Nossle_normal.png"
    }
  ],
  "materials": [
    {
      "doubleSided": true,
      "name": "Body_001",
      "normalTexture": {
        "index": 2
      },
      "occlusionTexture": {
        "index": 1
      },
      "pbrMetallicRoughness": {
        "baseColorTexture": {
          "index": 0
        },
        "metallicRoughnessTexture": {
          "index": 1
        }
      }
    },
    {
      "doubleSided": true,
      "name": "Nossle",
      "normalTexture": {
        "index": 5
      },
      "occlusionTexture": {
        "index": 4
      },
      "pbrMetallicRoughness": {
        "baseColorTexture": {
          "index": 3
        },
        "metallicRoughnessTexture": {
          "index": 4
        }
      }
    }
  ],
  "meshes": [
    {
      "name": "defaultMaterial",
      "primitives": [
        {
          "attributes": {
            "NORMAL": 1,
            "POSITION": 0,
            "TANGENT": 2,
            "TEXCOORD_0": 3
          },
          "indices": 4,
          "material": 1,
          "mode": 4
        }
      ]
    },
    {
      "name": "defaultMaterial",
      "primitives": [
        {
          "attributes": {
            "NORMAL": 6,
            "POSITION": 5,
            "TANGENT": 7,
            "TEXCOORD_0": 8
          },
          "indices": 9,
          "material": 0,
          "mode": 4
        }
      ]
    }
  ],
  "nodes": [
    {
      "children": [
        1
      ],
      "matrix": [
        0.10075221210718155,
        0.0,
        0.0,
        0.0,
        0.0,
        2.2371485132662083e-17,
        -0.10075221210718155,
        0.0,
        0.0,
        0.10075221210718155,
        2.2371485132662083e-17,
        0.0,
        0.0,
        0.0,
        0.0,
        1.0
      ],
      "name": "Sketchfab_model"
    },
    {
      "children": [
        2,
        4
      ],
      "matrix": [
        1.0,
        0.0,
        0.0,
        0.0,
        0.0,
        -4.371139006309477e-08,
        0.999999999999999,
        0.0,
        0.0,
        -0.999999999999999,
        -4.371139006309477e-08,
        0.0,
        0.0,
        0.0,
        0.0,
        1.0
      ],
      "name": "Collada visual scene group"
    },
    {
      "children": [
        3
      ],
      "name": "nossle_lo"
    },
    {
      "mesh": 0,
      "name": "defaultMaterial"
    },
    {
      "children": [
        5
      ],
      "name": "body_lo"
    },
    {
      "mesh": 1,
      "name": "defaultMaterial"
    }
  ],
  "samplers": [
    {
      "magFilter": 9729,
      "minFilter": 9987,
      "wrapS": 10497,
      "wrapT": 10497
    }
  ],
  "scene": 0,
  "scenes": [
    {
      "name": "Sketchfab_Scene",
      "nodes": [
        0
      ]
    }
  ],
  "textures": [
    {
      "sampler": 0,
      "source": 0
    },
    {
      "sampler": 0,
      "source": 1
    },
    {
      "sampler": 0,
      "source": 2
    },
    {
      "sampler": 0,
      "source": 3
    },
    {
      "sampler": 0,
      "source": 4
    },
    {
      "sampler": 0,
      "source": 5
    }
  ]
}
