{
  "accessors": [
    {
      "bufferView": 2,
      "componentType": 5126,
      "count": 3356,
      "max": [
        45.107120513916016,
        2.5031251907348633,
        87.07646179199219
      ],
      "min": [
        -25.360881805419922,
        -117.66009521484375,
        -5.86653995513916
      ],
      "type": "VEC3"
    },
    {
      "bufferView": 2,
      "byteOffset": 40272,
      "componentType": 5126,
      "count": 3356,
      "max": [
        1.0,
        1.0,
        1.0
      ],
      "min": [
        -1.0,
        -1.0,
        -1.0
      ],
      "type": "VEC3"
    },
    {
      "bufferView": 1,
      "componentType": 5126,
      "count": 3356,
      "max": [
        0.9995390176773071,
        0.4484969973564148
      ],
      "min": [
        0.003965000156313181,
        0.001218999968841672
      ],
      "type": "VEC2"
    },
    {
      "bufferView": 0,
      "componentType": 5125,
      "count": 12234,
      "type": "SCALAR"
    },
    {
      "bufferView": 2,
      "byteOffset": 80544,
      "componentType": 5126,
      "count": 31152,
      "max": [
        81.80859375,
        7.977912902832031,
        206.2677001953125
      ],
      "min": [
        -81.80859375,
        -140.81588745117188,
        -146.909423828125
      ],
      "type": "VEC3"
    },
    {
      "bufferView": 2,
      "byteOffset": 454368,
      "componentType": 5126,
      "count": 31152,
      "max": [
        1.0,
        1.0,
        1.0
      ],
      "min": [
        -1.0,
        -1.0,
        -1.0
      ],
      "type": "VEC3"
    },
    {
      "bufferView": 1,
      "byteOffset": 26848,
      "componentType": 5126,
      "count": 31152,
      "max": [
        0.9975720047950745,
        0.9997699856758118
      ],
      "min": [
        0.0016139999497681856,
        0.0027469999622553587
      ],
      "type": "VEC2"
    },
    {
      "bufferView": 0,
      "byteOffset": 48936,
      "componentType": 5125,
      "count": 72693,
      "type": "SCALAR"
    },
    {
      "bufferView": 2,
      "byteOffset": 828192,
      "componentType": 5126,
      "count": 890,
      "max": [
        4.113758087158203,
        -0.10691927373409271,
        5.1149115562438965
      ],
      "min": [
        -3.2939701080322266,
        -21.06615447998047,
        -5.145981788635254
      ],
      "type": "VEC3"
    },
    {
      "bufferView": 2,
      "byteOffset": 838872,
      "componentType": 5126,
      "count": 890,
      "max": [
        1.0,
        1.0,
        1.0
      ],
      "min": [
        -1.0,
        -1.0,
        -1.0
      ],
      "type": "VEC3"
    },
    {
      "bufferView": 1,
      "byteOffset": 276064,
      "componentType": 5126,
      "count": 890,
      "max": [
        0.7740650177001953,
        0.33813899755477905
      ],
      "min": [
        0.036125000566244125,
        0.18216800689697266
      ],
      "type": "VEC2"
    },
    {
      "bufferView": 0,
      "byteOffset": 339708,
      "componentType": 5125,
      "count": 3012,
      "type": "SCALAR"
    },
    {
      "bufferView": 2,
      "byteOffset": 849552,
      "componentType": 5126,
      "count": 4,
      "max": [
        46.8013801574707,
        -60.532535552978516,
        -56.795265197753906
      ],
      "min": [
        26.847585678100586,
        -77.2686767578125,
        -63.01777648925781
      ],
      "type": "VEC3"
    },
    {
      "bufferView": 2,
      "byteOffset": 849600,
      "componentType": 5126,
      "count": 4,
      "max": [
        0.0,
        -0.3484928011894226,
        0.9373114705085754
      ],
      "min": [
        0.0,
        -0.3484928011894226,
        0.9373114705085754
      ],
      "type": "VEC3"
    },
    {
      "bufferView": 1,
      "byteOffset": 283184,
      "componentType": 5126,
      "count": 4,
      "max": [
        0.9990900158882141,
        0.9993190169334412
      ],
      "min": [
        -0.0055519999004900455,
        0.0008219999726861715
      ],
      "type": "VEC2"
    },
    {
      "bufferView": 0,
      "byteOffset": 351756,
      "componentType": 5125,
      "count": 6,
      "type": "SCALAR"
    },
    {
      "bufferView": 2,
      "byteOffset": 849648,
      "componentType": 5126,
      "count": 4,
      "max": [
        -26.858623504638672,
        -60.532535552978516,
        -56.795265197753906
      ],
      "min": [
        -46.790340423583984,
        -77.2686767578125,
        -63.01777648925781
      ],
      "type": "VEC3"
    },
    {
      "bufferView": 2,
      "byteOffset": 849696,
      "componentType": 5126,
      "count": 4,
      "max": [
        0.0,
        -0.3484928011894226,
        0.9373114705085754
      ],
      "min": [
        0.0,
        -0.3484928011894226,
        0.9373114705085754
      ],
      "type": "VEC3"
    },
    {
      "bufferView": 1,
      "byteOffset": 283216,
      "componentType": 5126,
      "count": 4,
      "max": [
        0.9990900158882141,
        0.9993190169334412
      ],
      "min": [
        -0.0055519999004900455,
        0.0008219999726861715
      ],
      "type": "VEC2"
    },
    {
      "bufferView": 0,
      "byteOffset": 351780,
      "componentType": 5125,
      "count": 6,
      "type": "SCALAR"
    },
    {
      "bufferView": 2,
      "byteOffset": 849744,
      "componentType": 5126,
      "count": 4,
      "max": [
        -17.387683868408203,
        -50.51103591918945,
        -65.466064453125
      ],
      "min": [
        -62.329383850097656,
        -76.15081787109375,
        -75.09456634521484
      ],
      "type": "VEC3"
    },
    {
      "bufferView": 2,
      "byteOffset": 849792,
      "componentType": 5126,
      "count": 4,
      "max": [
        0.0,
        -0.35155802965164185,
        0.9361661076545715
      ],
      "min": [
        0.0,
        -0.35155802965164185,
        0.9361661076545715
      ],
      "type": "VEC3"
    },
    {
      "bufferView": 1,
      "byteOffset": 283248,
      "componentType": 5126,
      "count": 4,
      "max": [
        0.9990900158882141,
        0.9993190169334412
      ],
      "min": [
        -0.0055519999004900455,
        0.0008219999726861715
      ],
      "type": "VEC2"
    },
    {
      "bufferView": 0,
      "byteOffset": 351804,
      "componentType": 5125,
      "count": 6,
      "type": "SCALAR"
    },
    {
      "bufferView": 2,
      "byteOffset": 849840,
      "componentType": 5126,
      "count": 114,
      "max": [
        80.85621643066406,
        -61.28911209106445,
        124.58854675292969
      ],
      "min": [
        -80.85621643066406,
        -138.68701171875,
        -133.2330780029297
      ],
      "type": "VEC3"
    },
    {
      "bufferView": 2,
      "byteOffset": 851208,
      "componentType": 5126,
      "count": 114,
      "max": [
        0.999605119228363,
        0.9996732473373413,
        0.6597170829772949
      ],
      "min": [
        -0.999605119228363,
        -0.1657940149307251,
        -0.025561004877090454
      ],
      "type": "VEC3"
    },
    {
      "bufferView": 1,
      "byteOffset": 283280,
      "componentType": 5126,
      "count": 114,
      "max": [
        0.990028977394104,
        0.9956579804420471
      ],
      "min": [
        0.004912000149488449,
        0.04635300114750862
      ],
      "type": "VEC2"
    },
    {
      "bufferView": 0,
      "byteOffset": 351828,
      "componentType": 5125,
      "count": 306,
      "type": "SCALAR"
    }
  ],
  "asset": {
    "extras": {
      "author": "CAPTAAINRO (https://sketchfab.com/CAPTAAINRO)",
      "license": "CC-BY-4.0 (http://creativecommons.org/licenses/by/4.0/)",
      "source": "https://sketchfab.com/3d-models/space-shuttle-4dca417d821e4ee68ebea89fd7c00dbe",
      "title": "Space Shuttle"
    },
    "generator": "Sketchfab-15.56.0",
    "version": "2.0"
  },
  "bufferViews": [
    {
      "buffer": 0,
      "byteLength": 353052,
      "name": "floatBufferViews",
      "target": 34963
    },
    {
      "buffer": 0,
      "byteLength": 284192,
      "byteOffset": 353052,
      "byteStride": 8,
      "name": "floatBufferViews",
      "target": 34962
    },
    {
      "buffer": 0,
      "byteLength": 852576,
      "byteOffset": 637244,
      "byteStride": 12,
      "name": "floatBufferViews",
      "target": 34962
    }
  ],
  "buffers": [
    {
      "byteLength": 1489820,
      "uri": "scene.bin"
    }
  ],
  "images": [
    {
      "uri": "textures/object_0_baseColor.jpeg"
    },
    {
      "uri": "textures/object_1_baseColor.jpeg"
    },
    {
      "uri": "textures/object_3_baseColor.jpeg"
    },
    {
      "uri": "textures/object_4_baseColor.jpeg"
    },
    {
      "uri": "textures/object_5_baseColor.jpeg"
    },
    {
      "uri": "textures/object_6_baseColor.jpeg"
    }
  ],
  "materials": [
    {
      "doubleSided": true,
      "name": "object_0",
      "pbrMetallicRoughness": {
        "baseColorTexture": {
          "index": 0
        },
        "metallicFactor": 0.0
      }
    },
    {
      "doubleSided": true,
      "name": "object_1",
      "pbrMetallicRoughness": {
        "baseColorTexture": {
          "index": 1
        },
        "metallicFactor": 0.0
      }
    },
    {
      "doubleSided": true,
      "name": "object_2",
      "pbrMetallicRoughness": {
        "baseColorFactor": [
          0.698039,
          0.698039,
          0.698039,
          1.0
        ],
        "metallicFactor": 0.0
      }
    },
    {
      "doubleSided": true,
      "name": "object_3",
      "pbrMetallicRoughness": {
        "baseColorTexture": {
          "index": 2
        },
        "metallicFactor": 0.0
      }
    },
    {
      "doubleSided": true,
      "name": "object_4",
      "pbrMetallicRoughness": {
        "baseColorTexture": {
          "index": 3
        },
        "metallicFactor": 0.0
      }
    },
    {
      "doubleSided": true,
      "name": "object_5",
      "pbrMetallicRoughness": {
        "baseColorTexture": {
          "index": 4
        },
        "metallicFactor": 0.0
      }
    },
    {
      "doubleSided": true,
      "name": "object_6",
      "pbrMetallicRoughness": {
        "baseColorTexture": {
          "index": 5
        },
        "metallicFactor": 0.0
      }
    }
  ],
  "meshes": [
    {
      "name": "Object_0",
      "primitives": [
        {
          "attributes": {
            "NORMAL": 1,
            "POSITION": 0,
            "TEXCOORD_0": 2
          },
          "indices": 3,
          "material": 0,
          "mode": 4
        }
      ]
    },
    {
      "name": "Object_1",
      "primitives": [
        {
          "attributes": {
            "NORMAL": 5,
            "POSITION": 4,
            "TEXCOORD_0": 6
          },
          "indices": 7,
          "material": 1,
          "mode": 4
        }
      ]
    },
    {
      "name": "Object_2",
      "primitives": [
        {
          "attributes": {
            "NORMAL": 9,
            "POSITION": 8,
            "TEXCOORD_0": 10
          },
          "indices": 11,
          "material": 2,
          "mode": 4
        }
      ]
    },
    {
      "name": "Object_3",
      "primitives": [
        {
          "attributes": {
            "NORMAL": 13,
            "POSITION": 12,
            "TEXCOORD_0": 14
          },
          "indices": 15,
          "material": 3,
          "mode": 4
        }
      ]
    },
    {
      "name": "Object_4",
      "primitives": [
        {
          "attributes": {
            "NORMAL": 17,
            "POSITION": 16,
            "TEXCOORD_0": 18
          },
          "indices": 19,
          "material": 4,
          "mode": 4
        }
      ]
    },
    {
      "name": "Object_5",
      "primitives": [
        {
          "attributes": {
            "NORMAL": 21,
            "POSITION": 20,
            "TEXCOORD_0": 22
          },
          "indices": 23,
          "material": 5,
          "mode": 4
        }
      ]
    },
    {
      "name": "Object_6",
      "primitives": [
        {
          "attributes": {
            "NORMAL": 25,
            "POSITION": 24,
            "TEXCOORD_0": 26
          },
          "indices": 27,
          "material": 6,
          "mode": 4
        }
      ]
    }
  ],
  "nodes": [
    {
      "children": [
        1
      ],
      "matrix": [
        1.0,
        1.6081226229577292e-16,
        4.8033446892643715e-32,
        0.0,
        1.6081226229577292e-16,
        -1.0,
        -4.440892098500626e-16,
        0.0,
        -1.232595164407831e-32,
        4.440892098500626e-16,
        -1.0,
        0.0,
        0.0,
        0.0,
        0.0,
        1.0
      ],
      "name": "Sketchfab_model"
    },
    {
      "children": [
        2,
        3,
        4,
        5,
        6,
        7,
        8
      ],
      "name": "model.obj.cleaner.materialmerger.gles"
    },
    {
      "mesh": 0,
      "name": "Object_2"
    },
    {
      "mesh": 1,
      "name": "Object_3"
    },
    {
      "mesh": 2,
      "name": "Object_4"
    },
    {
      "mesh": 3,
      "name": "Object_5"
    },
    {
      "mesh": 4,
      "name": "Object_6"
    },
    {
      "mesh": 5,
      "name": "Object_7"
    },
    {
      "mesh": 6,
      "name": "Object_8"
    }
  ],
  "samplers": [
    {
      "magFilter": 9729,
      "minFilter": 9987,
      "wrapS": 10497,
      "wrapT": 10497
    }
  ],
  "scene": 0,
  "scenes": [
    {
      "name": "Sketchfab_Scene",
      "nodes": [
        0
      ]
    }
  ],
  "textures": [
    {
      "sampler": 0,
      "source": 0
    },
    {
      "sampler": 0,
      "source": 1
    },
    {
      "sampler": 0,
      "source": 2
    },
    {
      "sampler": 0,
      "source": 3
    },
    {
      "sampler": 0,
      "source": 4
    },
    {
      "sampler": 0,
      "source": 5
    }
  ]
}
