{
  "accessors": [
    {
      "bufferView": 3,
      "componentType": 5126,
      "count": 418,
      "max": [
        4.057635307312012,
        0.27130916714668274,
        1.799147605895996
      ],
      "min": [
        -4.057635307312012,
        -0.2590133547782898,
        -3.8343770503997803
      ],
      "type": "VEC3"
    },
    {
      "bufferView": 3,
      "byteOffset": 5016,
      "componentType": 5126,
      "count": 418,
      "max": [
        0.9996504783630371,
        0.9996429681777954,
        0.9949535131454468
      ],
      "min": [
        -0.9925074577331543,
        -0.9996103048324585,
        -0.8776894807815552
      ],
      "type": "VEC3"
    },
    {
      "bufferView": 4,
      "componentType": 5126,
      "count": 418,
      "max": [
        0.9975689053535461,
        0.9521807432174683,
        0.9913547039031982,
        1.0
      ],
      "min": [
        -0.9982812404632568,
        -0.9119911193847656,
        -0.999786376953125,
        -1.0
      ],
      "type": "VEC4"
    },
    {
      "bufferView": 2,
      "componentType": 5126,
      "count": 418,
      "max": [
        0.9919999837875366,
        0.6802213191986084
      ],
      "min": [
        0.00800000037997961,
        0.007999986410140991
      ],
      "type": "VEC2"
    },
    {
      "bufferView": 1,
      "componentType": 5125,
      "count": 1968,
      "type": "SCALAR"
    },
    {
      "bufferView": 5,
      "componentType": 5126,
      "count": 34,
      "max": [
        1.0,
        1.507259486492607e-13,
        1.0,
        0.0,
        0.15322637557983398,
        1.0,
        8.481229087919928e-06,
        0.0,
        0.9999752044677734,
        0.13330253958702087,
        1.0,
        0.0,
        4.036280155181885,
        0.07333219796419144,
        1.8641852140426636,
        1.0
      ],
      "min": [
        -0.0070420787669718266,
        -0.0005933282664045691,
        -1.0,
        0.0,
        -0.13330253958702087,
        -1.0,
        -4.450829912554287e-15,
        0.0,
        -1.0,
        -0.15322637557983398,
        -1.0,
        0.0,
        -4.036276340484619,
        -0.18298037350177765,
        -1.8801738023757935,
        1.0
      ],
      "type": "MAT4"
    },
    {
      "bufferView": 0,
      "componentType": 5123,
      "count": 418,
      "type": "VEC4"
    },
    {
      "bufferView": 4,
      "byteOffset": 6688,
      "componentType": 5126,
      "count": 418,
      "max": [
        1.0,
        0.5,
        0.3065032362937927,
        0.0
      ],
      "min": [
        0.3476067781448364,
        0.0,
        0.0,
        0.0
      ],
      "type": "VEC4"
    },
    {
      "bufferView": 6,
      "componentType": 5126,
      "count": 193,
      "max": [
        4.041666507720947
      ],
      "min": [
        0.0416666679084301
      ],
      "type": "SCALAR"
    },
    {
      "bufferView": 7,
      "componentType": 5126,
      "count": 193,
      "max": [
        1.0707000494003296,
        1.1102230246251565e-16,
        -4.04121180963557e-14
      ],
      "min": [
        1.0707000494003296,
        -4.440892098500626e-16,
        -4.068967385251199e-14
      ],
      "type": "VEC3"
    },
    {
      "bufferView": 6,
      "byteOffset": 772,
      "componentType": 5126,
      "count": 190,
      "max": [
        4.041666507720947
      ],
      "min": [
        0.0416666679084301
      ],
      "type": "SCALAR"
    },
    {
      "bufferView": 8,
      "componentType": 5126,
      "count": 190,
      "max": [
        -0.047235071659088135,
        0.7055273652076721,
        0.047235071659088135,
        0.7055273652076721
      ],
      "min": [
        -0.047235071659088135,
        0.7055273652076721,
        0.047235071659088135,
        0.7055273652076721
      ],
      "type": "VEC4"
    },
    {
      "bufferView": 6,
      "byteOffset": 1532,
      "componentType": 5126,
      "count": 185,
      "max": [
        4.041666507720947
      ],
      "min": [
        0.0416666679084301
      ],
      "type": "SCALAR"
    },
    {
      "bufferView": 7,
      "byteOffset": 2316,
      "componentType": 5126,
      "count": 185,
      "max": [
        0.46054011583328247,
        -0.014262747950851917,
        2.7755575615628914e-17
      ],
      "min": [
        0.46054011583328247,
        -0.014262747950851917,
        -1.915134717478395e-15
      ],
      "type": "VEC3"
    },
    {
      "bufferView": 6,
      "byteOffset": 2272,
      "componentType": 5126,
      "count": 193,
      "max": [
        4.041666507720947
      ],
      "min": [
        0.0416666679084301
      ],
      "type": "SCALAR"
    },
    {
      "bufferView": 8,
      "byteOffset": 3040,
      "componentType": 5126,
      "count": 193,
      "max": [
        0.07546255737543106,
        0.08836834877729416,
        -0.18748877942562103,
        0.9804516434669495
      ],
      "min": [
        -0.04138387739658356,
        -0.13673906028270721,
        -0.4446509778499603,
        0.8847288489341736
      ],
      "type": "VEC4"
    },
    {
      "bufferView": 6,
      "byteOffset": 3044,
      "componentType": 5126,
      "count": 190,
      "max": [
        4.041666507720947
      ],
      "min": [
        0.0416666679084301
      ],
      "type": "SCALAR"
    },
    {
      "bufferView": 7,
      "byteOffset": 4536,
      "componentType": 5126,
      "count": 190,
      "max": [
        0.3836342990398407,
        2.7755575615628914e-17,
        3.0531133177191805e-16
      ],
      "min": [
        0.3836342990398407,
        -5.551115123125783e-17,
        2.498001805406602e-16
      ],
      "type": "VEC3"
    },
    {
      "bufferView": 6,
      "byteOffset": 3804,
      "componentType": 5126,
      "count": 193,
      "max": [
        4.041666507720947
      ],
      "min": [
        0.0416666679084301
      ],
      "type": "SCALAR"
    },
    {
      "bufferView": 8,
      "byteOffset": 6128,
      "componentType": 5126,
      "count": 193,
      "max": [
        0.0027553183026611805,
        0.00031227542785927653,
        0.18323230743408203,
        0.9960086345672607
      ],
      "min": [
        -0.0309407077729702,
        -0.08412906527519226,
        0.08789311349391937,
        0.9824591279029846
      ],
      "type": "VEC4"
    },
    {
      "bufferView": 6,
      "byteOffset": 4576,
      "componentType": 5126,
      "count": 191,
      "max": [
        4.041666507720947
      ],
      "min": [
        0.0416666679084301
      ],
      "type": "SCALAR"
    },
    {
      "bufferView": 8,
      "byteOffset": 9216,
      "componentType": 5126,
      "count": 191,
      "max": [
        0.0047142235562205315,
        0.9999827146530151,
        -1.2358885214780457e-05,
        0.0035210021305829287
      ],
      "min": [
        0.0047142235562205315,
        0.9999827146530151,
        -1.2358885214780457e-05,
        0.0035210021305829287
      ],
      "type": "VEC4"
    },
    {
      "bufferView": 6,
      "byteOffset": 5340,
      "componentType": 5126,
      "count": 174,
      "max": [
        4.041666507720947
      ],
      "min": [
        0.0416666679084301
      ],
      "type": "SCALAR"
    },
    {
      "bufferView": 7,
      "byteOffset": 6816,
      "componentType": 5126,
      "count": 174,
      "max": [
        1.1633332967758179,
        0.007291489280760288,
        5.551115123125783e-17
      ],
      "min": [
        1.1633332967758179,
        0.007291489280760288,
        -4.163336342344337e-17
      ],
      "type": "VEC3"
    },
    {
      "bufferView": 6,
      "byteOffset": 6036,
      "componentType": 5126,
      "count": 193,
      "max": [
        4.041666507720947
      ],
      "min": [
        0.0416666679084301
      ],
      "type": "SCALAR"
    },
    {
      "bufferView": 8,
      "byteOffset": 12272,
      "componentType": 5126,
      "count": 193,
      "max": [
        0.0003895160334650427,
        0.02931384928524494,
        0.02362413890659809,
        0.9999620914459229
      ],
      "min": [
        -0.000692709581926465,
        -0.016483528539538383,
        0.006172739434987307,
        0.9992910623550415
      ],
      "type": "VEC4"
    },
    {
      "bufferView": 6,
      "byteOffset": 6808,
      "componentType": 5126,
      "count": 193,
      "max": [
        4.041666507720947
      ],
      "min": [
        0.0416666679084301
      ],
      "type": "SCALAR"
    },
    {
      "bufferView": 8,
      "byteOffset": 15360,
      "componentType": 5126,
      "count": 193,
      "max": [
        0.0004334330151323229,
        -0.0008392231538891792,
        0.015993742272257805,
        0.9999996423721313
      ],
      "min": [
        -9.136646258411929e-05,
        -0.03780091181397438,
        -0.0217636339366436,
        0.9991916418075562
      ],
      "type": "VEC4"
    },
    {
      "bufferView": 6,
      "byteOffset": 7580,
      "componentType": 5126,
      "count": 170,
      "max": [
        4.041666507720947
      ],
      "min": [
        0.0416666679084301
      ],
      "type": "SCALAR"
    },
    {
      "bufferView": 7,
      "byteOffset": 8904,
      "componentType": 5126,
      "count": 170,
      "max": [
        0.45796680450439453,
        0.0110787283629179,
        2.7755575615628914e-17
      ],
      "min": [
        0.45796680450439453,
        0.0110787283629179,
        -2.7755575615628914e-17
      ],
      "type": "VEC3"
    },
    {
      "bufferView": 6,
      "byteOffset": 8260,
      "componentType": 5126,
      "count": 193,
      "max": [
        4.041666507720947
      ],
      "min": [
        0.0416666679084301
      ],
      "type": "SCALAR"
    },
    {
      "bufferView": 8,
      "byteOffset": 18448,
      "componentType": 5126,
      "count": 193,
      "max": [
        0.02259843982756138,
        0.014619381166994572,
        0.025929514318704605,
        0.9999961853027344
      ],
      "min": [
        -0.010206860490143299,
        -0.009914935566484928,
        -0.001814133720472455,
        0.9993024468421936
      ],
      "type": "VEC4"
    },
    {
      "bufferView": 6,
      "byteOffset": 9032,
      "componentType": 5126,
      "count": 193,
      "max": [
        4.041666507720947
      ],
      "min": [
        0.0416666679084301
      ],
      "type": "SCALAR"
    },
    {
      "bufferView": 7,
      "byteOffset": 10944,
      "componentType": 5126,
      "count": 193,
      "max": [
        0.3434686064720154,
        5.551115123125783e-17,
        0.0
      ],
      "min": [
        0.3434686064720154,
        -5.551115123125783e-17,
        -4.996003610813204e-16
      ],
      "type": "VEC3"
    },
    {
      "bufferView": 6,
      "byteOffset": 9804,
      "componentType": 5126,
      "count": 193,
      "max": [
        4.041666507720947
      ],
      "min": [
        0.0416666679084301
      ],
      "type": "SCALAR"
    },
    {
      "bufferView": 8,
      "byteOffset": 21536,
      "componentType": 5126,
      "count": 193,
      "max": [
        3.1191296759647516e-17,
        -0.4730854332447052,
        4.1706453102368556e-17,
        0.8810165524482727
      ],
      "min": [
        -2.5514945168292224e-17,
        -0.4730854332447052,
        -3.7014721063914735e-17,
        0.8810165524482727
      ],
      "type": "VEC4"
    },
    {
      "bufferView": 6,
      "byteOffset": 10576,
      "componentType": 5126,
      "count": 190,
      "max": [
        4.041666507720947
      ],
      "min": [
        0.0416666679084301
      ],
      "type": "SCALAR"
    },
    {
      "bufferView": 7,
      "byteOffset": 13260,
      "componentType": 5126,
      "count": 190,
      "max": [
        0.4912553131580353,
        4.163336342344337e-17,
        1.6653345369377348e-16
      ],
      "min": [
        0.4912553131580353,
        -4.163336342344337e-17,
        -1.6653345369377348e-16
      ],
      "type": "VEC3"
    },
    {
      "bufferView": 6,
      "byteOffset": 11336,
      "componentType": 5126,
      "count": 193,
      "max": [
        4.041666507720947
      ],
      "min": [
        0.0416666679084301
      ],
      "type": "SCALAR"
    },
    {
      "bufferView": 8,
      "byteOffset": 24624,
      "componentType": 5126,
      "count": 193,
      "max": [
        1.592943064623993e-17,
        -0.22033368051052094,
        2.934817953620176e-17,
        0.975424587726593
      ],
      "min": [
        -2.2488608944315917e-17,
        -0.22033368051052094,
        -2.9296917499280624e-17,
        0.975424587726593
      ],
      "type": "VEC4"
    },
    {
      "bufferView": 6,
      "byteOffset": 12108,
      "componentType": 5126,
      "count": 192,
      "max": [
        4.041666507720947
      ],
      "min": [
        0.0416666679084301
      ],
      "type": "SCALAR"
    },
    {
      "bufferView": 7,
      "byteOffset": 15540,
      "componentType": 5126,
      "count": 192,
      "max": [
        0.25954291224479675,
        2.7755575615628914e-17,
        1.1102230246251565e-16
      ],
      "min": [
        0.25954291224479675,
        -4.163336342344337e-17,
        -2.220446049250313e-16
      ],
      "type": "VEC3"
    },
    {
      "bufferView": 6,
      "byteOffset": 12876,
      "componentType": 5126,
      "count": 193,
      "max": [
        4.041666507720947
      ],
      "min": [
        0.0416666679084301
      ],
      "type": "SCALAR"
    },
    {
      "bufferView": 8,
      "byteOffset": 27712,
      "componentType": 5126,
      "count": 193,
      "max": [
        9.138269214501203e-17,
        0.5622870922088623,
        4.118069710502985e-17,
        0.9120191335678101
      ],
      "min": [
        -4.7975519307287494e-17,
        0.4101477265357971,
        -6.138109617317503e-17,
        0.8269420862197876
      ],
      "type": "VEC4"
    },
    {
      "bufferView": 6,
      "byteOffset": 13648,
      "componentType": 5126,
      "count": 193,
      "max": [
        4.041666507720947
      ],
      "min": [
        0.0416666679084301
      ],
      "type": "SCALAR"
    },
    {
      "bufferView": 8,
      "byteOffset": 30800,
      "componentType": 5126,
      "count": 193,
      "max": [
        0.06286975741386414,
        -0.5476862788200378,
        0.08705011010169983,
        0.8363177180290222
      ],
      "min": [
        -0.047313086688518524,
        -0.5538414716720581,
        -0.019474178552627563,
        0.8294446468353271
      ],
      "type": "VEC4"
    },
    {
      "bufferView": 6,
      "byteOffset": 14420,
      "componentType": 5126,
      "count": 159,
      "max": [
        4.041666507720947
      ],
      "min": [
        0.0416666679084301
      ],
      "type": "SCALAR"
    },
    {
      "bufferView": 7,
      "byteOffset": 17844,
      "componentType": 5126,
      "count": 159,
      "max": [
        -0.3434661328792572,
        2.7755575615628914e-17,
        -1.2554098702821648e-06
      ],
      "min": [
        -0.3434661328792572,
        -5.551115123125783e-17,
        -1.2554098702821648e-06
      ],
      "type": "VEC3"
    },
    {
      "bufferView": 6,
      "byteOffset": 15056,
      "componentType": 5126,
      "count": 193,
      "max": [
        4.041666507720947
      ],
      "min": [
        0.0416666679084301
      ],
      "type": "SCALAR"
    },
    {
      "bufferView": 8,
      "byteOffset": 33888,
      "componentType": 5126,
      "count": 193,
      "max": [
        3.612279867917841e-17,
        -0.4730854332447052,
        3.337224447142728e-17,
        0.8810165524482727
      ],
      "min": [
        -3.217656482214923e-17,
        -0.4730854332447052,
        -2.87536583601803e-17,
        0.8810165524482727
      ],
      "type": "VEC4"
    },
    {
      "bufferView": 6,
      "byteOffset": 15828,
      "componentType": 5126,
      "count": 171,
      "max": [
        4.041666507720947
      ],
      "min": [
        0.0416666679084301
      ],
      "type": "SCALAR"
    },
    {
      "bufferView": 7,
      "byteOffset": 19752,
      "componentType": 5126,
      "count": 171,
      "max": [
        -0.4912595748901367,
        1.1102230246251565e-16,
        6.249500756894122e-07
      ],
      "min": [
        -0.4912595748901367,
        2.7755575615628914e-17,
        6.249500756894122e-07
      ],
      "type": "VEC3"
    },
    {
      "bufferView": 6,
      "byteOffset": 16512,
      "componentType": 5126,
      "count": 193,
      "max": [
        4.041666507720947
      ],
      "min": [
        0.0416666679084301
      ],
      "type": "SCALAR"
    },
    {
      "bufferView": 8,
      "byteOffset": 36976,
      "componentType": 5126,
      "count": 193,
      "max": [
        1.598291614464761e-17,
        -0.22033368051052094,
        2.2096176263747284e-17,
        0.975424587726593
      ],
      "min": [
        -2.0902298213843374e-17,
        -0.22033368051052094,
        -2.945566007627445e-17,
        0.975424587726593
      ],
      "type": "VEC4"
    },
    {
      "bufferView": 6,
      "byteOffset": 17284,
      "componentType": 5126,
      "count": 167,
      "max": [
        4.041666507720947
      ],
      "min": [
        0.0416666679084301
      ],
      "type": "SCALAR"
    },
    {
      "bufferView": 7,
      "byteOffset": 21804,
      "componentType": 5126,
      "count": 167,
      "max": [
        -0.2595430612564087,
        2.7755575615628914e-17,
        4.385987324440066e-07
      ],
      "min": [
        -0.2595430612564087,
        -4.163336342344337e-17,
        4.385987324440066e-07
      ],
      "type": "VEC3"
    },
    {
      "bufferView": 6,
      "byteOffset": 17952,
      "componentType": 5126,
      "count": 193,
      "max": [
        4.041666507720947
      ],
      "min": [
        0.0416666679084301
      ],
      "type": "SCALAR"
    },
    {
      "bufferView": 8,
      "byteOffset": 40064,
      "componentType": 5126,
      "count": 193,
      "max": [
        5.0470305960914776e-17,
        0.5622870922088623,
        4.164101318974826e-17,
        0.9120191335678101
      ],
      "min": [
        -5.862412966131539e-17,
        0.4101477265357971,
        -5.0470305960914776e-17,
        0.8269420862197876
      ],
      "type": "VEC4"
    },
    {
      "bufferView": 6,
      "byteOffset": 18724,
      "componentType": 5126,
      "count": 193,
      "max": [
        4.041666507720947
      ],
      "min": [
        0.0416666679084301
      ],
      "type": "SCALAR"
    },
    {
      "bufferView": 8,
      "byteOffset": 43152,
      "componentType": 5126,
      "count": 193,
      "max": [
        0.5483037233352661,
        0.056816618889570236,
        0.839474081993103,
        0.03920295089483261
      ],
      "min": [
        0.5415331125259399,
        -0.051293618977069855,
        0.833951473236084,
        -0.08764234930276871
      ],
      "type": "VEC4"
    },
    {
      "bufferView": 6,
      "byteOffset": 19496,
      "componentType": 5126,
      "count": 192,
      "max": [
        4.041666507720947
      ],
      "min": [
        0.0416666679084301
      ],
      "type": "SCALAR"
    },
    {
      "bufferView": 8,
      "byteOffset": 46240,
      "componentType": 5126,
      "count": 192,
      "max": [
        -0.05578429996967316,
        0.9984393119812012,
        -0.00014856393681839108,
        -0.00265902909450233
      ],
      "min": [
        -0.05578429996967316,
        0.9984393119812012,
        -0.00014856393681839108,
        -0.00265902909450233
      ],
      "type": "VEC4"
    },
    {
      "bufferView": 6,
      "byteOffset": 20264,
      "componentType": 5126,
      "count": 190,
      "max": [
        4.041666507720947
      ],
      "min": [
        0.0416666679084301
      ],
      "type": "SCALAR"
    },
    {
      "bufferView": 7,
      "byteOffset": 23808,
      "componentType": 5126,
      "count": 190,
      "max": [
        0.4837673008441925,
        1.6653345369377348e-16,
        2.220446049250313e-16
      ],
      "min": [
        0.4837673008441925,
        -1.1102230246251565e-16,
        -1.1102230246251565e-15
      ],
      "type": "VEC3"
    },
    {
      "bufferView": 6,
      "byteOffset": 21024,
      "componentType": 5126,
      "count": 193,
      "max": [
        4.041666507720947
      ],
      "min": [
        0.0416666679084301
      ],
      "type": "SCALAR"
    },
    {
      "bufferView": 8,
      "byteOffset": 49312,
      "componentType": 5126,
      "count": 193,
      "max": [
        3.1723693362943796e-17,
        -0.26337307691574097,
        7.772145360411905e-17,
        0.964694082736969
      ],
      "min": [
        -5.618137266821769e-17,
        -0.26337307691574097,
        -9.981025968860849e-17,
        0.964694082736969
      ],
      "type": "VEC4"
    },
    {
      "bufferView": 6,
      "byteOffset": 21796,
      "componentType": 5126,
      "count": 185,
      "max": [
        4.041666507720947
      ],
      "min": [
        0.0416666679084301
      ],
      "type": "SCALAR"
    },
    {
      "bufferView": 7,
      "byteOffset": 26088,
      "componentType": 5126,
      "count": 185,
      "max": [
        0.5840887427330017,
        2.220446049250313e-16,
        0.0
      ],
      "min": [
        0.5840887427330017,
        -1.6653345369377348e-16,
        -4.440892098500626e-16
      ],
      "type": "VEC3"
    },
    {
      "bufferView": 6,
      "byteOffset": 22536,
      "componentType": 5126,
      "count": 193,
      "max": [
        4.041666507720947
      ],
      "min": [
        0.0416666679084301
      ],
      "type": "SCALAR"
    },
    {
      "bufferView": 8,
      "byteOffset": 52400,
      "componentType": 5126,
      "count": 193,
      "max": [
        2.2525165364307085e-17,
        0.14353029429912567,
        3.731430272072429e-17,
        0.9896458983421326
      ],
      "min": [
        -0.002504948992282152,
        0.1435084342956543,
        -0.017271703109145164,
        0.9894952178001404
      ],
      "type": "VEC4"
    },
    {
      "bufferView": 6,
      "byteOffset": 23308,
      "componentType": 5126,
      "count": 176,
      "max": [
        4.041666507720947
      ],
      "min": [
        0.0416666679084301
      ],
      "type": "SCALAR"
    },
    {
      "bufferView": 7,
      "byteOffset": 28308,
      "componentType": 5126,
      "count": 176,
      "max": [
        0.6929534673690796,
        1.6653345369377348e-16,
        0.026244590058922768
      ],
      "min": [
        0.6929534673690796,
        -2.220446049250313e-16,
        0.026244590058922768
      ],
      "type": "VEC3"
    },
    {
      "bufferView": 6,
      "byteOffset": 24012,
      "componentType": 5126,
      "count": 193,
      "max": [
        4.041666507720947
      ],
      "min": [
        0.0416666679084301
      ],
      "type": "SCALAR"
    },
    {
      "bufferView": 8,
      "byteOffset": 55488,
      "componentType": 5126,
      "count": 193,
      "max": [
        2.1314029018102868e-17,
        0.0674286037683487,
        5.2399744444364116e-17,
        0.9977241158485413
      ],
      "min": [
        -0.001176791382022202,
        0.06741832941770554,
        -0.017412686720490456,
        0.997572124004364
      ],
      "type": "VEC4"
    },
    {
      "bufferView": 6,
      "byteOffset": 24784,
      "componentType": 5126,
      "count": 168,
      "max": [
        4.041666507720947
      ],
      "min": [
        0.0416666679084301
      ],
      "type": "SCALAR"
    },
    {
      "bufferView": 7,
      "byteOffset": 30420,
      "componentType": 5126,
      "count": 168,
      "max": [
        0.8418312668800354,
        1.1102230246251565e-16,
        -0.017450183629989624
      ],
      "min": [
        0.8418312668800354,
        -1.1102230246251565e-16,
        -0.017450183629989624
      ],
      "type": "VEC3"
    },
    {
      "bufferView": 6,
      "byteOffset": 25456,
      "componentType": 5126,
      "count": 193,
      "max": [
        4.041666507720947
      ],
      "min": [
        0.0416666679084301
      ],
      "type": "SCALAR"
    },
    {
      "bufferView": 8,
      "byteOffset": 58576,
      "componentType": 5126,
      "count": 193,
      "max": [
        2.0852687229424893e-17,
        0.05050384998321533,
        3.221577318318424e-17,
        0.9987238645553589
      ],
      "min": [
        -0.0008814137545414269,
        0.05049615725874901,
        -0.017430134117603302,
        0.9985717535018921
      ],
      "type": "VEC4"
    },
    {
      "bufferView": 6,
      "byteOffset": 26228,
      "componentType": 5126,
      "count": 183,
      "max": [
        4.041666507720947
      ],
      "min": [
        0.0416666679084301
      ],
      "type": "SCALAR"
    },
    {
      "bufferView": 7,
      "byteOffset": 32436,
      "componentType": 5126,
      "count": 183,
      "max": [
        0.440264493227005,
        8.326672684688674e-17,
        0.011596214957535267
      ],
      "min": [
        0.440264493227005,
        -5.551115123125783e-17,
        0.011596214957535267
      ],
      "type": "VEC3"
    },
    {
      "bufferView": 6,
      "byteOffset": 26960,
      "componentType": 5126,
      "count": 193,
      "max": [
        4.041666507720947
      ],
      "min": [
        0.0416666679084301
      ],
      "type": "SCALAR"
    },
    {
      "bufferView": 8,
      "byteOffset": 61664,
      "componentType": 5126,
      "count": 193,
      "max": [
        0.008347340859472752,
        -0.06588876992464066,
        0.003351717721670866,
        0.9977920651435852
      ],
      "min": [
        -0.00022309832274913788,
        -0.06641542166471481,
        -0.12540628015995026,
        0.9898799061775208
      ],
      "type": "VEC4"
    },
    {
      "bufferView": 6,
      "byteOffset": 27732,
      "componentType": 5126,
      "count": 193,
      "max": [
        4.041666507720947
      ],
      "min": [
        0.0416666679084301
      ],
      "type": "SCALAR"
    },
    {
      "bufferView": 7,
      "byteOffset": 34632,
      "componentType": 5126,
      "count": 193,
      "max": [
        0.6448451280593872,
        5.551115123125783e-17,
        0.0
      ],
      "min": [
        0.6448451280593872,
        -8.326672684688674e-17,
        -4.440892098500626e-16
      ],
      "type": "VEC3"
    },
    {
      "bufferView": 6,
      "byteOffset": 28504,
      "componentType": 5126,
      "count": 193,
      "max": [
        4.041666507720947
      ],
      "min": [
        0.0416666679084301
      ],
      "type": "SCALAR"
    },
    {
      "bufferView": 8,
      "byteOffset": 64752,
      "componentType": 5126,
      "count": 193,
      "max": [
        0.04880502447485924,
        0.3613409101963043,
        0.03254494443535805,
        0.932533323764801
      ],
      "min": [
        -3.501313919616097e-17,
        0.36058908700942993,
        -0.02092692069709301,
        0.9312553405761719
      ],
      "type": "VEC4"
    },
    {
      "bufferView": 6,
      "byteOffset": 29276,
      "componentType": 5126,
      "count": 167,
      "max": [
        4.041666507720947
      ],
      "min": [
        0.0416666679084301
      ],
      "type": "SCALAR"
    },
    {
      "bufferView": 7,
      "byteOffset": 36948,
      "componentType": 5126,
      "count": 167,
      "max": [
        0.28003084659576416,
        1.1102230246251565e-16,
        0.011702333576977253
      ],
      "min": [
        0.28003084659576416,
        -5.551115123125783e-17,
        0.011702333576977253
      ],
      "type": "VEC3"
    },
    {
      "bufferView": 6,
      "byteOffset": 29944,
      "componentType": 5126,
      "count": 193,
      "max": [
        4.041666507720947
      ],
      "min": [
        0.0416666679084301
      ],
      "type": "SCALAR"
    },
    {
      "bufferView": 8,
      "byteOffset": 67840,
      "componentType": 5126,
      "count": 193,
      "max": [
        -0.028227468952536583,
        -0.40367162227630615,
        0.06379009038209915,
        0.9122408032417297
      ],
      "min": [
        -0.028227468952536583,
        -0.40367162227630615,
        0.06379009038209915,
        0.9122408032417297
      ],
      "type": "VEC4"
    },
    {
      "bufferView": 6,
      "byteOffset": 30716,
      "componentType": 5126,
      "count": 170,
      "max": [
        4.041666507720947
      ],
      "min": [
        0.0416666679084301
      ],
      "type": "SCALAR"
    },
    {
      "bufferView": 8,
      "byteOffset": 70928,
      "componentType": 5126,
      "count": 170,
      "max": [
        -0.07131291925907135,
        0.7839189767837524,
        0.012893467210233212,
        0.6167539954185486
      ],
      "min": [
        -0.15286409854888916,
        0.7721703052520752,
        -0.05163142830133438,
        0.6145890951156616
      ],
      "type": "VEC4"
    },
    {
      "bufferView": 6,
      "byteOffset": 31396,
      "componentType": 5126,
      "count": 178,
      "max": [
        4.041666507720947
      ],
      "min": [
        0.0416666679084301
      ],
      "type": "SCALAR"
    },
    {
      "bufferView": 7,
      "byteOffset": 38952,
      "componentType": 5126,
      "count": 178,
      "max": [
        -0.4837726652622223,
        3.3306690738754696e-16,
        -2.928315552708227e-06
      ],
      "min": [
        -0.4837726652622223,
        -3.3306690738754696e-16,
        -2.928315552708227e-06
      ],
      "type": "VEC3"
    },
    {
      "bufferView": 6,
      "byteOffset": 32108,
      "componentType": 5126,
      "count": 193,
      "max": [
        4.041666507720947
      ],
      "min": [
        0.0416666679084301
      ],
      "type": "SCALAR"
    },
    {
      "bufferView": 8,
      "byteOffset": 73648,
      "componentType": 5126,
      "count": 193,
      "max": [
        4.8859401496469806e-17,
        -0.26337307691574097,
        7.357927058614341e-17,
        0.964694082736969
      ],
      "min": [
        -5.565089843266499e-17,
        -0.26337307691574097,
        -7.668590950398637e-17,
        0.964694082736969
      ],
      "type": "VEC4"
    },
    {
      "bufferView": 6,
      "byteOffset": 32880,
      "componentType": 5126,
      "count": 177,
      "max": [
        4.041666507720947
      ],
      "min": [
        0.0416666679084301
      ],
      "type": "SCALAR"
    },
    {
      "bufferView": 7,
      "byteOffset": 41088,
      "componentType": 5126,
      "count": 177,
      "max": [
        -0.5840893387794495,
        3.3306690738754696e-16,
        -4.850712684856262e-07
      ],
      "min": [
        -0.5840893387794495,
        -2.220446049250313e-16,
        -4.850712684856262e-07
      ],
      "type": "VEC3"
    },
    {
      "bufferView": 6,
      "byteOffset": 33588,
      "componentType": 5126,
      "count": 193,
      "max": [
        4.041666507720947
      ],
      "min": [
        0.0416666679084301
      ],
      "type": "SCALAR"
    },
    {
      "bufferView": 8,
      "byteOffset": 76736,
      "componentType": 5126,
      "count": 193,
      "max": [
        2.2525165364307085e-17,
        0.14353029429912567,
        4.909625308434579e-17,
        0.9896458983421326
      ],
      "min": [
        -0.002504948992282152,
        0.1435084342956543,
        -0.017271703109145164,
        0.9894952178001404
      ],
      "type": "VEC4"
    },
    {
      "bufferView": 6,
      "byteOffset": 34360,
      "componentType": 5126,
      "count": 177,
      "max": [
        4.041666507720947
      ],
      "min": [
        0.0416666679084301
      ],
      "type": "SCALAR"
    },
    {
      "bufferView": 7,
      "byteOffset": 43212,
      "componentType": 5126,
      "count": 177,
      "max": [
        -0.6929481029510498,
        2.220446049250313e-16,
        -0.026243459433317184
      ],
      "min": [
        -0.6929481029510498,
        -2.220446049250313e-16,
        -0.026243459433317184
      ],
      "type": "VEC3"
    },
    {
      "bufferView": 6,
      "byteOffset": 35068,
      "componentType": 5126,
      "count": 193,
      "max": [
        4.041666507720947
      ],
      "min": [
        0.0416666679084301
      ],
      "type": "SCALAR"
    },
    {
      "bufferView": 8,
      "byteOffset": 79824,
      "componentType": 5126,
      "count": 193,
      "max": [
        2.0723810835627907e-17,
        0.0674286037683487,
        8.209293770533929e-17,
        0.9977241158485413
      ],
      "min": [
        -0.001176791382022202,
        0.06741832941770554,
        -0.017412686720490456,
        0.997572124004364
      ],
      "type": "VEC4"
    },
    {
      "bufferView": 6,
      "byteOffset": 35840,
      "componentType": 5126,
      "count": 171,
      "max": [
        4.041666507720947
      ],
      "min": [
        0.0416666679084301
      ],
      "type": "SCALAR"
    },
    {
      "bufferView": 7,
      "byteOffset": 45336,
      "componentType": 5126,
      "count": 171,
      "max": [
        -0.8418303728103638,
        1.6653345369377348e-16,
        0.017449958249926567
      ],
      "min": [
        -0.8418303728103638,
        -2.7755575615628914e-16,
        0.017449958249926567
      ],
      "type": "VEC3"
    },
    {
      "bufferView": 6,
      "byteOffset": 36524,
      "componentType": 5126,
      "count": 193,
      "max": [
        4.041666507720947
      ],
      "min": [
        0.0416666679084301
      ],
      "type": "SCALAR"
    },
    {
      "bufferView": 8,
      "byteOffset": 82912,
      "componentType": 5126,
      "count": 193,
      "max": [
        2.918318016505458e-17,
        0.05050384998321533,
        3.9699802271821066e-17,
        0.9987238645553589
      ],
      "min": [
        -0.0008814137545414269,
        0.05049615725874901,
        -0.017430134117603302,
        0.9985717535018921
      ],
      "type": "VEC4"
    },
    {
      "bufferView": 6,
      "byteOffset": 37296,
      "componentType": 5126,
      "count": 184,
      "max": [
        4.041666507720947
      ],
      "min": [
        0.0416666679084301
      ],
      "type": "SCALAR"
    },
    {
      "bufferView": 7,
      "byteOffset": 47388,
      "componentType": 5126,
      "count": 184,
      "max": [
        -0.44026491045951843,
        8.326672684688674e-17,
        -0.011596409603953362
      ],
      "min": [
        -0.44026491045951843,
        -4.163336342344337e-17,
        -0.011596409603953362
      ],
      "type": "VEC3"
    },
    {
      "bufferView": 6,
      "byteOffset": 38032,
      "componentType": 5126,
      "count": 193,
      "max": [
        4.041666507720947
      ],
      "min": [
        0.0416666679084301
      ],
      "type": "SCALAR"
    },
    {
      "bufferView": 8,
      "byteOffset": 86000,
      "componentType": 5126,
      "count": 193,
      "max": [
        0.008347340859472752,
        -0.06588876992464066,
        0.003351717721670866,
        0.9977920651435852
      ],
      "min": [
        -0.00022309832274913788,
        -0.06641542166471481,
        -0.12540628015995026,
        0.9898799061775208
      ],
      "type": "VEC4"
    },
    {
      "bufferView": 6,
      "byteOffset": 38804,
      "componentType": 5126,
      "count": 183,
      "max": [
        4.041666507720947
      ],
      "min": [
        0.0416666679084301
      ],
      "type": "SCALAR"
    },
    {
      "bufferView": 7,
      "byteOffset": 49596,
      "componentType": 5126,
      "count": 183,
      "max": [
        -0.6448475122451782,
        0.0,
        1.8505169236959773e-06
      ],
      "min": [
        -0.6448475122451782,
        -1.1102230246251565e-16,
        1.8505169236959773e-06
      ],
      "type": "VEC3"
    },
    {
      "bufferView": 6,
      "byteOffset": 39536,
      "componentType": 5126,
      "count": 193,
      "max": [
        4.041666507720947
      ],
      "min": [
        0.0416666679084301
      ],
      "type": "SCALAR"
    },
    {
      "bufferView": 8,
      "byteOffset": 89088,
      "componentType": 5126,
      "count": 193,
      "max": [
        0.04880502447485924,
        0.3613409101963043,
        0.03254494443535805,
        0.932533323764801
      ],
      "min": [
        -3.586047323715824e-17,
        0.36058908700942993,
        -0.02092692069709301,
        0.9312553405761719
      ],
      "type": "VEC4"
    },
    {
      "bufferView": 6,
      "byteOffset": 40308,
      "componentType": 5126,
      "count": 167,
      "max": [
        4.041666507720947
      ],
      "min": [
        0.0416666679084301
      ],
      "type": "SCALAR"
    },
    {
      "bufferView": 7,
      "byteOffset": 51792,
      "componentType": 5126,
      "count": 167,
      "max": [
        -0.2800312340259552,
        8.326672684688674e-17,
        -0.011702439747750759
      ],
      "min": [
        -0.2800312340259552,
        -2.7755575615628914e-17,
        -0.011702439747750759
      ],
      "type": "VEC3"
    },
    {
      "bufferView": 6,
      "byteOffset": 40976,
      "componentType": 5126,
      "count": 193,
      "max": [
        4.041666507720947
      ],
      "min": [
        0.0416666679084301
      ],
      "type": "SCALAR"
    },
    {
      "bufferView": 8,
      "byteOffset": 92176,
      "componentType": 5126,
      "count": 193,
      "max": [
        -0.028227468952536583,
        -0.40367162227630615,
        0.06379009038209915,
        0.9122408032417297
      ],
      "min": [
        -0.028227468952536583,
        -0.40367162227630615,
        0.06379009038209915,
        0.9122408032417297
      ],
      "type": "VEC4"
    },
    {
      "bufferView": 6,
      "byteOffset": 41748,
      "componentType": 5126,
      "count": 187,
      "max": [
        4.041666507720947
      ],
      "min": [
        0.0416666679084301
      ],
      "type": "SCALAR"
    },
    {
      "bufferView": 8,
      "byteOffset": 95264,
      "componentType": 5126,
      "count": 187,
      "max": [
        0.7806363105773926,
        0.15222398936748505,
        -0.6187583208084106,
        0.012980933301150799
      ],
      "min": [
        0.7689368724822998,
        0.07101429253816605,
        -0.6209378838539124,
        -0.05198168382048607
      ],
      "type": "VEC4"
    },
    {
      "bufferView": 6,
      "byteOffset": 42496,
      "componentType": 5126,
      "count": 193,
      "max": [
        4.041666507720947
      ],
      "min": [
        0.0416666679084301
      ],
      "type": "SCALAR"
    },
    {
      "bufferView": 7,
      "byteOffset": 53796,
      "componentType": 5126,
      "count": 193,
      "max": [
        0.11448170244693756,
        0.24060139060020447,
        0.1681896150112152
      ],
      "min": [
        -0.13003996014595032,
        0.0270522553473711,
        -0.13937664031982422
      ],
      "type": "VEC3"
    },
    {
      "bufferView": 6,
      "byteOffset": 43268,
      "componentType": 5126,
      "count": 193,
      "max": [
        4.041666507720947
      ],
      "min": [
        0.0416666679084301
      ],
      "type": "SCALAR"
    },
    {
      "bufferView": 8,
      "byteOffset": 98256,
      "componentType": 5126,
      "count": 193,
      "max": [
        0.07147929817438126,
        -0.7073010206222534,
        0.027986707165837288,
        0.7043877840042114
      ],
      "min": [
        0.021774886175990105,
        -0.7147570848464966,
        -0.04267808422446251,
        0.6955614686012268
      ],
      "type": "VEC4"
    }
  ],
  "animations": [
    {
      "channels": [
        {
          "sampler": 0,
          "target": {
            "node": 11,
            "path": "translation"
          }
        },
        {
          "sampler": 1,
          "target": {
            "node": 11,
            "path": "rotation"
          }
        },
        {
          "sampler": 2,
          "target": {
            "node": 10,
            "path": "translation"
          }
        },
        {
          "sampler": 3,
          "target": {
            "node": 10,
            "path": "rotation"
          }
        },
        {
          "sampler": 4,
          "target": {
            "node": 9,
            "path": "translation"
          }
        },
        {
          "sampler": 5,
          "target": {
            "node": 9,
            "path": "rotation"
          }
        },
        {
          "sampler": 6,
          "target": {
            "node": 16,
            "path": "rotation"
          }
        },
        {
          "sampler": 7,
          "target": {
            "node": 15,
            "path": "translation"
          }
        },
        {
          "sampler": 8,
          "target": {
            "node": 15,
            "path": "rotation"
          }
        },
        {
          "sampler": 9,
          "target": {
            "node": 14,
            "path": "rotation"
          }
        },
        {
          "sampler": 10,
          "target": {
            "node": 13,
            "path": "translation"
          }
        },
        {
          "sampler": 11,
          "target": {
            "node": 13,
            "path": "rotation"
          }
        },
        {
          "sampler": 12,
          "target": {
            "node": 20,
            "path": "translation"
          }
        },
        {
          "sampler": 13,
          "target": {
            "node": 20,
            "path": "rotation"
          }
        },
        {
          "sampler": 14,
          "target": {
            "node": 19,
            "path": "translation"
          }
        },
        {
          "sampler": 15,
          "target": {
            "node": 19,
            "path": "rotation"
          }
        },
        {
          "sampler": 16,
          "target": {
            "node": 18,
            "path": "translation"
          }
        },
        {
          "sampler": 17,
          "target": {
            "node": 18,
            "path": "rotation"
          }
        },
        {
          "sampler": 18,
          "target": {
            "node": 17,
            "path": "rotation"
          }
        },
        {
          "sampler": 19,
          "target": {
            "node": 24,
            "path": "translation"
          }
        },
        {
          "sampler": 20,
          "target": {
            "node": 24,
            "path": "rotation"
          }
        },
        {
          "sampler": 21,
          "target": {
            "node": 23,
            "path": "translation"
          }
        },
        {
          "sampler": 22,
          "target": {
            "node": 23,
            "path": "rotation"
          }
        },
        {
          "sampler": 23,
          "target": {
            "node": 22,
            "path": "translation"
          }
        },
        {
          "sampler": 24,
          "target": {
            "node": 22,
            "path": "rotation"
          }
        },
        {
          "sampler": 25,
          "target": {
            "node": 21,
            "path": "rotation"
          }
        },
        {
          "sampler": 26,
          "target": {
            "node": 12,
            "path": "rotation"
          }
        },
        {
          "sampler": 27,
          "target": {
            "node": 32,
            "path": "translation"
          }
        },
        {
          "sampler": 28,
          "target": {
            "node": 32,
            "path": "rotation"
          }
        },
        {
          "sampler": 29,
          "target": {
            "node": 31,
            "path": "translation"
          }
        },
        {
          "sampler": 30,
          "target": {
            "node": 31,
            "path": "rotation"
          }
        },
        {
          "sampler": 31,
          "target": {
            "node": 30,
            "path": "translation"
          }
        },
        {
          "sampler": 32,
          "target": {
            "node": 30,
            "path": "rotation"
          }
        },
        {
          "sampler": 33,
          "target": {
            "node": 29,
            "path": "translation"
          }
        },
        {
          "sampler": 34,
          "target": {
            "node": 29,
            "path": "rotation"
          }
        },
        {
          "sampler": 35,
          "target": {
            "node": 28,
            "path": "translation"
          }
        },
        {
          "sampler": 36,
          "target": {
            "node": 28,
            "path": "rotation"
          }
        },
        {
          "sampler": 37,
          "target": {
            "node": 27,
            "path": "translation"
          }
        },
        {
          "sampler": 38,
          "target": {
            "node": 27,
            "path": "rotation"
          }
        },
        {
          "sampler": 39,
          "target": {
            "node": 26,
            "path": "translation"
          }
        },
        {
          "sampler": 40,
          "target": {
            "node": 26,
            "path": "rotation"
          }
        },
        {
          "sampler": 41,
          "target": {
            "node": 25,
            "path": "rotation"
          }
        },
        {
          "sampler": 42,
          "target": {
            "node": 40,
            "path": "translation"
          }
        },
        {
          "sampler": 43,
          "target": {
            "node": 40,
            "path": "rotation"
          }
        },
        {
          "sampler": 44,
          "target": {
            "node": 39,
            "path": "translation"
          }
        },
        {
          "sampler": 45,
          "target": {
            "node": 39,
            "path": "rotation"
          }
        },
        {
          "sampler": 46,
          "target": {
            "node": 38,
            "path": "translation"
          }
        },
        {
          "sampler": 47,
          "target": {
            "node": 38,
            "path": "rotation"
          }
        },
        {
          "sampler": 48,
          "target": {
            "node": 37,
            "path": "translation"
          }
        },
        {
          "sampler": 49,
          "target": {
            "node": 37,
            "path": "rotation"
          }
        },
        {
          "sampler": 50,
          "target": {
            "node": 36,
            "path": "translation"
          }
        },
        {
          "sampler": 51,
          "target": {
            "node": 36,
            "path": "rotation"
          }
        },
        {
          "sampler": 52,
          "target": {
            "node": 35,
            "path": "translation"
          }
        },
        {
          "sampler": 53,
          "target": {
            "node": 35,
            "path": "rotation"
          }
        },
        {
          "sampler": 54,
          "target": {
            "node": 34,
            "path": "translation"
          }
        },
        {
          "sampler": 55,
          "target": {
            "node": 34,
            "path": "rotation"
          }
        },
        {
          "sampler": 56,
          "target": {
            "node": 33,
            "path": "rotation"
          }
        },
        {
          "sampler": 57,
          "target": {
            "node": 8,
            "path": "translation"
          }
        },
        {
          "sampler": 58,
          "target": {
            "node": 8,
            "path": "rotation"
          }
        }
      ],
      "name": "rhamphoidle.0001",
      "samplers": [
        {
          "input": 8,
          "interpolation": "LINEAR",
          "output": 9
        },
        {
          "input": 10,
          "interpolation": "LINEAR",
          "output": 11
        },
        {
          "input": 12,
          "interpolation": "LINEAR",
          "output": 13
        },
        {
          "input": 14,
          "interpolation": "LINEAR",
          "output": 15
        },
        {
          "input": 16,
          "interpolation": "LINEAR",
          "output": 17
        },
        {
          "input": 18,
          "interpolation": "LINEAR",
          "output": 19
        },
        {
          "input": 20,
          "interpolation": "LINEAR",
          "output": 21
        },
        {
          "input": 22,
          "interpolation": "LINEAR",
          "output": 23
        },
        {
          "input": 24,
          "interpolation": "LINEAR",
          "output": 25
        },
        {
          "input": 26,
          "interpolation": "LINEAR",
          "output": 27
        },
        {
          "input": 28,
          "interpolation": "LINEAR",
          "output": 29
        },
        {
          "input": 30,
          "interpolation": "LINEAR",
          "output": 31
        },
        {
          "input": 32,
          "interpolation": "LINEAR",
          "output": 33
        },
        {
          "input": 34,
          "interpolation": "LINEAR",
          "output": 35
        },
        {
          "input": 36,
          "interpolation": "LINEAR",
          "output": 37
        },
        {
          "input": 38,
          "interpolation": "LINEAR",
          "output": 39
        },
        {
          "input": 40,
          "interpolation": "LINEAR",
          "output": 41
        },
        {
          "input": 42,
          "interpolation": "LINEAR",
          "output": 43
        },
        {
          "input": 44,
          "interpolation": "LINEAR",
          "output": 45
        },
        {
          "input": 46,
          "interpolation": "LINEAR",
          "output": 47
        },
        {
          "input": 48,
          "interpolation": "LINEAR",
          "output": 49
        },
        {
          "input": 50,
          "interpolation": "LINEAR",
          "output": 51
        },
        {
          "input": 52,
          "interpolation": "LINEAR",
          "output": 53
        },
        {
          "input": 54,
          "interpolation": "LINEAR",
          "output": 55
        },
        {
          "input": 56,
          "interpolation": "LINEAR",
          "output": 57
        },
        {
          "input": 58,
          "interpolation": "LINEAR",
          "output": 59
        },
        {
          "input": 60,
          "interpolation": "LINEAR",
          "output": 61
        },
        {
          "input": 62,
          "interpolation": "LINEAR",
          "output": 63
        },
        {
          "input": 64,
          "interpolation": "LINEAR",
          "output": 65
        },
        {
          "input": 66,
          "interpolation": "LINEAR",
          "output": 67
        },
        {
          "input": 68,
          "interpolation": "LINEAR",
          "output": 69
        },
        {
          "input": 70,
          "interpolation": "LINEAR",
          "output": 71
        },
        {
          "input": 72,
          "interpolation": "LINEAR",
          "output": 73
        },
        {
          "input": 74,
          "interpolation": "LINEAR",
          "output": 75
        },
        {
          "input": 76,
          "interpolation": "LINEAR",
          "output": 77
        },
        {
          "input": 78,
          "interpolation": "LINEAR",
          "output": 79
        },
        {
          "input": 80,
          "interpolation": "LINEAR",
          "output": 81
        },
        {
          "input": 82,
          "interpolation": "LINEAR",
          "output": 83
        },
        {
          "input": 84,
          "interpolation": "LINEAR",
          "output": 85
        },
        {
          "input": 86,
          "interpolation": "LINEAR",
          "output": 87
        },
        {
          "input": 88,
          "interpolation": "LINEAR",
          "output": 89
        },
        {
          "input": 90,
          "interpolation": "LINEAR",
          "output": 91
        },
        {
          "input": 92,
          "interpolation": "LINEAR",
          "output": 93
        },
        {
          "input": 94,
          "interpolation": "LINEAR",
          "output": 95
        },
        {
          "input": 96,
          "interpolation": "LINEAR",
          "output": 97
        },
        {
          "input": 98,
          "interpolation": "LINEAR",
          "output": 99
        },
        {
          "input": 100,
          "interpolation": "LINEAR",
          "output": 101
        },
        {
          "input": 102,
          "interpolation": "LINEAR",
          "output": 103
        },
        {
          "input": 104,
          "interpolation": "LINEAR",
          "output": 105
        },
        {
          "input": 106,
          "interpolation": "LINEAR",
          "output": 107
        },
        {
          "input": 108,
          "interpolation": "LINEAR",
          "output": 109
        },
        {
          "input": 110,
          "interpolation": "LINEAR",
          "output": 111
        },
        {
          "input": 112,
          "interpolation": "LINEAR",
          "output": 113
        },
        {
          "input": 114,
          "interpolation": "LINEAR",
          "output": 115
        },
        {
          "input": 116,
          "interpolation": "LINEAR",
          "output": 117
        },
        {
          "input": 118,
          "interpolation": "LINEAR",
          "output": 119
        },
        {
          "input": 120,
          "interpolation": "LINEAR",
          "output": 121
        },
        {
          "input": 122,
          "interpolation": "LINEAR",
          "output": 123
        },
        {
          "input": 124,
          "interpolation": "LINEAR",
          "output": 125
        }
      ]
    }
  ],
  "asset": {
    "extras": {
      "author": "Robear (https://sketchfab.com/xiaorobear)",
      "license": "CC-BY-4.0 (http://creativecommons.org/licenses/by/4.0/)",
      "source": "https://sketchfab.com/3d-models/low-poly-rhamphorhynchus-idle-c1e35c7ac4374c778f78025717694675",
      "title": "Low-poly Rhamphorhynchus idle"
    },
    "generator": "Sketchfab-16.59.0",
    "version": "2.0"
  },
  "bufferViews": [
    {
      "buffer": 0,
      "byteLength": 3344,
      "byteStride": 8,
      "name": "shortBufferViews",
      "target": 34962
    },
    {
      "buffer": 0,
      "byteLength": 7872,
      "byteOffset": 3344,
      "name": "floatBufferViews",
      "target": 34963
    },
    {
      "buffer": 0,
      "byteLength": 3344,
      "byteOffset": 11216,
      "byteStride": 8,
      "name": "floatBufferViews",
      "target": 34962
    },
    {
      "buffer": 0,
      "byteLength": 10032,
      "byteOffset": 14560,
      "byteStride": 12,
      "name": "floatBufferViews",
      "target": 34962
    },
    {
      "buffer": 0,
      "byteLength": 13376,
      "byteOffset": 24592,
      "byteStride": 16,
      "name": "floatBufferViews",
      "target": 34962
    },
    {
      "buffer": 0,
      "byteLength": 2176,
      "byteOffset": 37968,
      "name": "floatBufferViews"
    },
    {
      "buffer": 0,
      "byteLength": 44040,
      "byteOffset": 40144,
      "name": "floatBufferViews"
    },
    {
      "buffer": 0,
      "byteLength": 56112,
      "byteOffset": 84184,
      "byteStride": 12,
      "name": "floatBufferViews"
    },
    {
      "buffer": 0,
      "byteLength": 101344,
      "byteOffset": 140296,
      "byteStride": 16,
      "name": "floatBufferViews"
    }
  ],
  "buffers": [
    {
      "byteLength": 241640,
      "uri": "scene.bin"
    }
  ],
  "images": [
    {
      "uri": "textures/lowpolyrhampho_baseColor.png"
    },
    {
      "uri": "textures/lowpolyrhampho_metallicRoughness.png"
    },
    {
      "uri": "textures/lowpolyrhampho_normal.png"
    }
  ],
  "materials": [
    {
      "name": "lowpolyrhampho",
      "normalTexture": {
        "index": 2
      },
      "pbrMetallicRoughness": {
        "baseColorTexture": {
          "index": 0
        },
        "metallicFactor": 0.0,
        "metallicRoughnessTexture": {
          "index": 1
        }
      }
    }
  ],
  "meshes": [
    {
      "name": "rhampholow_lowpolyrhampho_0",
      "primitives": [
        {
          "attributes": {
            "JOINTS_0": 6,
            "NORMAL": 1,
            "POSITION": 0,
            "TANGENT": 2,
            "TEXCOORD_0": 3,
            "WEIGHTS_0": 7
          },
          "indices": 4,
          "material": 0,
          "mode": 4
        }
      ]
    }
  ],
  "nodes": [
    {
      "children": [
        1
      ],
      "matrix": [
        1.0,
        0.0,
        0.0,
        0.0,
        0.0,
        2.220446049250313e-16,
        -1.0,
        0.0,
        0.0,
        1.0,
        2.220446049250313e-16,
        0.0,
        0.0,
        0.0,
        0.0,
        1.0
      ],
      "name": "Sketchfab_model"
    },
    {
      "children": [
        2
      ],
      "matrix": [
        0.009999999776482582,
        0.0,
        0.0,
        0.0,
        0.0,
        0.0,
        0.009999999776482582,
        0.0,
        0.0,
        -0.009999999776482582,
        0.0,
        0.0,
        0.0,
        0.0,
        0.0,
        1.0
      ],
      "name": "2af275dab2a44e64a990521741910da3.fbx"
    },
    {
      "children": [
        3
      ],
      "name": "Object_2"
    },
    {
      "children": [
        4
      ],
      "name": "RootNode"
    },
    {
      "children": [
        5,
        7,
        6,
        41
      ],
      "name": "Object_4"
    },
    {
      "children": [
        8
      ],
      "name": "_rootJoint"
    },
    {
      "matrix": [
        1.0,
        1.1614539619177572e-20,
        8.673617379884035e-19,
        0.0,
        -1.1614539619177567e-20,
        1.0,
        -4.364032997716666e-18,
        0.0,
        -8.673617379884035e-19,
        4.364032997716666e-18,
        1.0,
        0.0,
        -1.3552719401572877e-20,
        -6.938893903907228e-18,
        1.6304375724965643,
        1.0
      ],
      "name": "Object_6"
    },
    {
      "mesh": 0,
      "name": "Object_7",
      "skin": 0
    },
    {
      "children": [
        9,
        12,
        25,
        33
      ],
      "name": "torso_01",
      "rotation": [
        0.04541553184390068,
        -0.7095574140548706,
        -0.03781113401055336,
        0.7021652460098267
      ],
      "translation": [
        0.01717275194823742,
        0.04197448864579201,
        -0.03574342280626297
      ]
    },
    {
      "children": [
        10
      ],
      "name": "neck_02",
      "rotation": [
        0.0027553183026611805,
        -0.0321282260119915,
        0.13164988160133362,
        0.9907716512680054
      ],
      "translation": [
        0.3836342990398407,
        -6.938893903907228e-18,
        2.8449465006019636e-16
      ]
    },
    {
      "children": [
        11
      ],
      "name": "head_03",
      "rotation": [
        0.023043734952807426,
        0.08836836367845535,
        -0.34604328870773315,
        0.9337635040283203
      ],
      "translation": [
        0.46054011583328247,
        -0.014262747950851917,
        -1.908195823574488e-15
      ]
    },
    {
      "name": "beak_04",
      "rotation": [
        -0.047235071659088135,
        0.7055273652076721,
        0.047235071659088135,
        0.7055273652076721
      ],
      "translation": [
        1.0707000494003296,
        -1.1102230246251565e-16,
        -4.053701818662603e-14
      ]
    },
    {
      "children": [
        13,
        17,
        21
      ],
      "name": "waist_05",
      "rotation": [
        -0.05578429996967316,
        0.9984393119812012,
        -0.00014856393681839108,
        -0.00265902909450233
      ],
      "translation": [
        -0.380771279335022,
        -0.04268176108598709,
        0.0002067305613309145
      ]
    },
    {
      "children": [
        14
      ],
      "name": "tailbase_06",
      "rotation": [
        0.000626604538410902,
        0.00017046865832526237,
        0.015249758027493954,
        0.9998835325241089
      ],
      "translation": [
        0.45796680450439453,
        0.0110787283629179,
        0.0
      ]
    },
    {
      "children": [
        15
      ],
      "name": "tailmid_07",
      "rotation": [
        -6.060973828425631e-05,
        -0.0014614665415138006,
        0.012951803393661976,
        0.9999150633811951
      ],
      "translation": [
        0.7513167858123779,
        -0.022157268598675728,
        -1.8792167111314484e-07
      ]
    },
    {
      "children": [
        16
      ],
      "name": "tailend_08",
      "rotation": [
        -0.00035871387808583677,
        0.015179894864559174,
        0.023621415719389915,
        0.999605655670166
      ],
      "translation": [
        1.1633332967758179,
        0.007291489280760288,
        6.938893903907228e-18
      ]
    },
    {
      "name": "tailtip_09",
      "rotation": [
        0.0047142235562205315,
        0.9999827146530151,
        -1.2358885214780457e-05,
        0.0035210021305829287
      ],
      "translation": [
        1.1358271837234497,
        0.002769558923318982,
        2.3487574551950274e-08
      ]
    },
    {
      "children": [
        18
      ],
      "name": "upperleg_l_010",
      "rotation": [
        0.022138310596346855,
        -0.5480124354362488,
        -0.00028299333644099534,
        0.8361771106719971
      ],
      "translation": [
        0.4763513207435608,
        -0.024082930758595467,
        0.16953442990779877
      ]
    },
    {
      "children": [
        19
      ],
      "name": "lowerleg_l_011",
      "rotation": [
        -3.8583479848969515e-18,
        0.46184980869293213,
        -3.8583479848969515e-18,
        0.8869581818580627
      ],
      "translation": [
        0.25954291224479675,
        -6.938893903907228e-18,
        -1.1102230246251565e-16
      ]
    },
    {
      "children": [
        20
      ],
      "name": "ankle_l_012",
      "rotation": [
        3.234395722680852e-18,
        -0.22033368051052094,
        2.509030290185139e-18,
        0.975424587726593
      ],
      "translation": [
        0.4912553131580353,
        -3.469446951953614e-18,
        2.7755575615628914e-17
      ]
    },
    {
      "name": "toes_l_013",
      "rotation": [
        -3.1382146765707894e-18,
        -0.4730854332447052,
        -2.1773989001567574e-18,
        0.8810165524482727
      ],
      "translation": [
        0.3434686064720154,
        6.938893903907228e-18,
        -2.220446049250313e-16
      ]
    },
    {
      "children": [
        22
      ],
      "name": "upperleg_r_014",
      "rotation": [
        0.548103392124176,
        -0.009086702950298786,
        0.8361173272132874,
        -0.02019628696143627
      ],
      "translation": [
        0.4763513207435608,
        -0.02408294565975666,
        -0.17320309579372406
      ]
    },
    {
      "children": [
        23
      ],
      "name": "lowerleg_r_015",
      "rotation": [
        0.0,
        0.4657337963581085,
        0.0,
        0.8849248886108398
      ],
      "translation": [
        -0.2595430612564087,
        -3.469446951953614e-18,
        4.385987324440066e-07
      ]
    },
    {
      "children": [
        24
      ],
      "name": "ankle_r_016",
      "rotation": [
        1.3151522402812286e-18,
        -0.22033368051052094,
        3.853931254016225e-18,
        0.975424587726593
      ],
      "translation": [
        -0.4912595748901367,
        7.632783294297951e-17,
        6.249500756894122e-07
      ]
    },
    {
      "name": "toes_r_017",
      "rotation": [
        -2.9525020824998246e-18,
        -0.4730854332447052,
        -1.8315503433501206e-18,
        0.8810165524482727
      ],
      "translation": [
        -0.3434661328792572,
        0.0,
        -1.2554098702821648e-06
      ]
    },
    {
      "children": [
        26
      ],
      "name": "upperarm_l_018",
      "rotation": [
        -0.07131291925907135,
        0.7839189767837524,
        0.012893467210233212,
        0.6166192293167114
      ],
      "translation": [
        0.004604729823768139,
        0.013198550790548325,
        -0.2739344537258148
      ]
    },
    {
      "children": [
        27
      ],
      "name": "lowerarm_l_019",
      "rotation": [
        -0.028227468952536583,
        -0.40367162227630615,
        0.06379009038209915,
        0.9122408032417297
      ],
      "translation": [
        0.28003084659576416,
        0.0,
        0.011702333576977253
      ]
    },
    {
      "children": [
        28
      ],
      "name": "wrist_l_020",
      "rotation": [
        0.00843917764723301,
        0.3610691726207733,
        -0.0032677133567631245,
        0.9324952363967896
      ],
      "translation": [
        0.6448451280593872,
        -1.214306433183765e-17,
        -1.6653345369377348e-16
      ]
    },
    {
      "children": [
        29
      ],
      "name": "finger1_l_021",
      "rotation": [
        0.002503711963072419,
        -0.06636820733547211,
        -0.03761451691389084,
        0.9970828294754028
      ],
      "translation": [
        0.440264493227005,
        -6.938893903907228e-18,
        0.011596214957535267
      ]
    },
    {
      "children": [
        30
      ],
      "name": "finger2_l_022",
      "rotation": [
        1.3755025933105462e-17,
        0.05050384998321533,
        2.7783106667956516e-18,
        0.9987238645553589
      ],
      "translation": [
        0.8418312668800354,
        2.7755575615628914e-17,
        -0.017450183629989624
      ]
    },
    {
      "children": [
        31
      ],
      "name": "finger3_l_023",
      "rotation": [
        7.104675787913881e-18,
        0.0674286037683487,
        -2.218831756654079e-18,
        0.9977241158485413
      ],
      "translation": [
        0.6929534673690796,
        0.0,
        0.026244590058922768
      ]
    },
    {
      "children": [
        32
      ],
      "name": "finger4_l_024",
      "rotation": [
        0.0,
        0.14353029429912567,
        0.0,
        0.9896458983421326
      ],
      "translation": [
        0.5840887427330017,
        -2.7755575615628914e-17,
        -3.3306690738754696e-16
      ]
    },
    {
      "name": "wingtip_025",
      "rotation": [
        -7.772145194975783e-18,
        -0.26337307691574097,
        -2.121889083995008e-18,
        0.964694082736969
      ],
      "translation": [
        0.4837673008441925,
        2.7755575615628914e-17,
        -4.440892098500626e-16
      ]
    },
    {
      "children": [
        34
      ],
      "name": "upperarm_r_026",
      "rotation": [
        0.7806363105773926,
        0.07101429253816605,
        -0.6208022236824036,
        0.012980933301150799
      ],
      "translation": [
        0.007504330947995186,
        0.013523570261895657,
        0.27385413646698
      ]
    },
    {
      "children": [
        35
      ],
      "name": "lowerarm_r_027",
      "rotation": [
        -0.028227468952536583,
        -0.40367162227630615,
        0.06379009038209915,
        0.9122408032417297
      ],
      "translation": [
        -0.2800312340259552,
        1.3877787807814457e-17,
        -0.011702439747750759
      ]
    },
    {
      "children": [
        36
      ],
      "name": "wrist_r_028",
      "rotation": [
        0.00843917764723301,
        0.3610691726207733,
        -0.0032677133567631245,
        0.9324952363967896
      ],
      "translation": [
        -0.6448475122451782,
        -7.28583859910259e-17,
        1.8505169236959773e-06
      ]
    },
    {
      "children": [
        37
      ],
      "name": "finger1_r_00",
      "rotation": [
        0.002503711963072419,
        -0.06636820733547211,
        -0.03761451691389084,
        0.9970828294754028
      ],
      "translation": [
        -0.44026491045951843,
        3.122502256758253e-17,
        -0.011596409603953362
      ]
    },
    {
      "children": [
        38
      ],
      "name": "finger2_r_029",
      "rotation": [
        4.402971571342381e-20,
        0.05050384998321533,
        -8.70696516627911e-19,
        0.9987238645553589
      ],
      "translation": [
        -0.8418303728103638,
        -2.7755575615628914e-17,
        0.017449958249926567
      ]
    },
    {
      "children": [
        39
      ],
      "name": "finger3_r_030",
      "rotation": [
        -3.5413013400315283e-19,
        0.0674286037683487,
        5.239974527154473e-18,
        0.9977241158485413
      ],
      "translation": [
        -0.6929481029510498,
        -2.7755575615628914e-17,
        -0.026243459433317184
      ]
    },
    {
      "children": [
        40
      ],
      "name": "finger4_r_031",
      "rotation": [
        5.193697494194887e-19,
        0.14353029429912567,
        -3.5810708397145825e-18,
        0.9896458983421326
      ],
      "translation": [
        -0.5840893387794495,
        0.0,
        -4.850712684856262e-07
      ]
    },
    {
      "name": "wingtip_032",
      "rotation": [
        -3.2064049647278234e-18,
        -0.26337307691574097,
        1.4285707997787073e-18,
        0.964694082736969
      ],
      "translation": [
        -0.4837726652622223,
        0.0,
        -2.928315552708227e-06
      ]
    },
    {
      "name": "rhampholow",
      "translation": [
        0.0,
        0.0,
        1.6304376125335693
      ]
    }
  ],
  "samplers": [
    {
      "magFilter": 9729,
      "minFilter": 9987,
      "wrapS": 10497,
      "wrapT": 10497
    }
  ],
  "scene": 0,
  "scenes": [
    {
      "name": "Sketchfab_Scene",
      "nodes": [
        0
      ]
    }
  ],
  "skins": [
    {
      "inverseBindMatrices": 5,
      "joints": [
        5,
        8,
        9,
        10,
        11,
        12,
        13,
        14,
        15,
        16,
        17,
        18,
        19,
        20,
        21,
        22,
        23,
        24,
        25,
        26,
        27,
        28,
        29,
        30,
        31,
        32,
        33,
        34,
        35,
        36,
        37,
        38,
        39,
        40
      ],
      "skeleton": 5
    }
  ],
  "textures": [
    {
      "sampler": 0,
      "source": 0
    },
    {
      "sampler": 0,
      "source": 1
    },
    {
      "sampler": 0,
      "source": 2
    }
  ]
}
