{
  "accessors": [
    {
      "bufferView": 3,
      "componentType": 5126,
      "count": 3057,
      "max": [
        0.0022438899613916874,
        0.009872930124402046,
        0.0007068699924275279
      ],
      "min": [
        -0.002109259832650423,
        0.007151189725846052,
        -0.0018414499936625361
      ],
      "type": "VEC3"
    },
    {
      "bufferView": 3,
      "byteOffset": 36684,
      "componentType": 5126,
      "count": 3057,
      "max": [
        0.9990838766098022,
        0.9999971389770508,
        0.9999532699584961
      ],
      "min": [
        -0.9990478157997131,
        -0.9999662637710571,
        -0.9997115731239319
      ],
      "type": "VEC3"
    },
    {
      "bufferView": 2,
      "componentType": 5126,
      "count": 3057,
      "max": [
        0.9945669770240784,
        1.9989299774169922
      ],
      "min": [
        0.003464000066742301,
        1.0044900178909302
      ],
      "type": "VEC2"
    },
    {
      "bufferView": 1,
      "componentType": 5125,
      "count": 15492,
      "type": "SCALAR"
    },
    {
      "bufferView": 3,
      "byteOffset": 73368,
      "componentType": 5126,
      "count": 122,
      "max": [
        0.0005814599571749568,
        0.008871819823980331,
        -0.001496479962952435
      ],
      "min": [
        -0.0004786000063177198,
        0.008677559904754162,
        -0.0015296100173145533
      ],
      "type": "VEC3"
    },
    {
      "bufferView": 3,
      "byteOffset": 74832,
      "componentType": 5126,
      "count": 122,
      "max": [
        0.40860503911972046,
        0.39270997047424316,
        -0.9127112627029419
      ],
      "min": [
        -0.3765057623386383,
        -0.3926253318786621,
        -0.9998486042022705
      ],
      "type": "VEC3"
    },
    {
      "bufferView": 2,
      "byteOffset": 24456,
      "componentType": 5126,
      "count": 122,
      "max": [
        0.6862840056419373,
        1.6862870454788208
      ],
      "min": [
        0.31371501088142395,
        1.313717007637024
      ],
      "type": "VEC2"
    },
    {
      "bufferView": 1,
      "byteOffset": 61968,
      "componentType": 5125,
      "count": 600,
      "type": "SCALAR"
    },
    {
      "bufferView": 3,
      "byteOffset": 76296,
      "componentType": 5126,
      "count": 442,
      "max": [
        0.0006986199878156185,
        0.008993210271000862,
        -0.001304409932345152
      ],
      "min": [
        -0.0006032599485479295,
        0.008557080291211605,
        -0.0015144599601626396
      ],
      "type": "VEC3"
    },
    {
      "bufferView": 3,
      "byteOffset": 81600,
      "componentType": 5126,
      "count": 442,
      "max": [
        0.996746301651001,
        0.9951950907707214,
        -0.08060374855995178
      ],
      "min": [
        -0.9933302998542786,
        -0.9951948523521423,
        -0.9998486042022705
      ],
      "type": "VEC3"
    },
    {
      "bufferView": 2,
      "byteOffset": 25432,
      "componentType": 5126,
      "count": 442,
      "max": [
        1.0,
        2.0
      ],
      "min": [
        0.0,
        1.0
      ],
      "type": "VEC2"
    },
    {
      "bufferView": 1,
      "byteOffset": 64368,
      "componentType": 5125,
      "count": 2280,
      "type": "SCALAR"
    },
    {
      "bufferView": 3,
      "byteOffset": 86904,
      "componentType": 5126,
      "count": 1472,
      "max": [
        0.0016689200419932604,
        0.009991469793021679,
        0.0011351399589329958
      ],
      "min": [
        -0.0014498699456453323,
        0.007401999551802874,
        -0.0012123399646952748
      ],
      "type": "VEC3"
    },
    {
      "bufferView": 3,
      "byteOffset": 104568,
      "componentType": 5126,
      "count": 1472,
      "max": [
        0.9987446069717407,
        0.999570906162262,
        0.9998002648353577
      ],
      "min": [
        -0.9998681545257568,
        -0.694094181060791,
        -0.973984956741333
      ],
      "type": "VEC3"
    },
    {
      "bufferView": 2,
      "byteOffset": 28968,
      "componentType": 5126,
      "count": 1472,
      "max": [
        1.0,
        2.000415086746216
      ],
      "min": [
        0.0,
        0.9980059862136841
      ],
      "type": "VEC2"
    },
    {
      "bufferView": 1,
      "byteOffset": 73488,
      "componentType": 5125,
      "count": 5796,
      "type": "SCALAR"
    },
    {
      "bufferView": 3,
      "byteOffset": 122232,
      "componentType": 5126,
      "count": 3097,
      "max": [
        0.0043473998084664345,
        0.00804976001381874,
        0.0023127601016312838
      ],
      "min": [
        -0.004355889745056629,
        0.0006309799500741065,
        -0.001483249943703413
      ],
      "type": "VEC3"
    },
    {
      "bufferView": 3,
      "byteOffset": 159396,
      "componentType": 5126,
      "count": 3097,
      "max": [
        0.9988405108451843,
        0.9999279975891113,
        0.9997803568840027
      ],
      "min": [
        -0.9997079968452454,
        -0.9995905756950378,
        -0.9999655485153198
      ],
      "type": "VEC3"
    },
    {
      "bufferView": 2,
      "byteOffset": 40744,
      "componentType": 5126,
      "count": 3097,
      "max": [
        0.9943910241127014,
        1.994778037071228
      ],
      "min": [
        0.0074430000968277454,
        1.010064959526062
      ],
      "type": "VEC2"
    },
    {
      "bufferView": 1,
      "byteOffset": 96672,
      "componentType": 5125,
      "count": 15498,
      "type": "SCALAR"
    },
    {
      "bufferView": 3,
      "byteOffset": 196560,
      "componentType": 5126,
      "count": 3028,
      "max": [
        0.004617189988493919,
        0.00545723969116807,
        0.0012394599616527557
      ],
      "min": [
        -0.004615569952875376,
        5.0929997087223455e-05,
        -0.0009174499427899718
      ],
      "type": "VEC3"
    },
    {
      "bufferView": 3,
      "byteOffset": 232896,
      "componentType": 5126,
      "count": 3028,
      "max": [
        0.9995251893997192,
        0.9723351001739502,
        0.9999308586120605
      ],
      "min": [
        -0.9993368983268738,
        -0.9997777342796326,
        -0.9999191761016846
      ],
      "type": "VEC3"
    },
    {
      "bufferView": 2,
      "byteOffset": 65520,
      "componentType": 5126,
      "count": 3028,
      "max": [
        0.9940720200538635,
        1.9870320558547974
      ],
      "min": [
        0.01083999965339899,
        1.0458199977874756
      ],
      "type": "VEC2"
    },
    {
      "bufferView": 1,
      "byteOffset": 158664,
      "componentType": 5125,
      "count": 14610,
      "type": "SCALAR"
    },
    {
      "bufferView": 5,
      "componentType": 5126,
      "count": 29,
      "max": [
        1.0000001192092896,
        0.9413554668426514,
        0.7305376529693604,
        0.0,
        0.3868623971939087,
        1.0000001192092896,
        0.9460834860801697,
        0.0,
        0.9987110495567322,
        0.9039588570594788,
        1.0000001192092896,
        0.0,
        0.003251345595344901,
        0.003916948102414608,
        0.004681296646595001,
        1.0
      ],
      "min": [
        -0.9942543506622314,
        -0.941355288028717,
        -0.7302235960960388,
        0.0,
        -0.4154754877090454,
        -0.9921416640281677,
        -0.9538691639900208,
        0.0,
        -0.9979063272476196,
        -0.978003203868866,
        -0.3690888583660126,
        0.0,
        -0.00235893577337265,
        -0.007874134927988052,
        -0.006761562079191208,
        1.0
      ],
      "type": "MAT4"
    },
    {
      "bufferView": 0,
      "componentType": 5123,
      "count": 3057,
      "type": "VEC4"
    },
    {
      "bufferView": 4,
      "componentType": 5126,
      "count": 3057,
      "max": [
        1.0,
        0.48952287435531616,
        0.31302976608276367,
        0.17768757045269012
      ],
      "min": [
        0.3232003152370453,
        0.0,
        0.0,
        0.0
      ],
      "type": "VEC4"
    },
    {
      "bufferView": 0,
      "byteOffset": 24456,
      "componentType": 5123,
      "count": 122,
      "type": "VEC4"
    },
    {
      "bufferView": 4,
      "byteOffset": 48912,
      "componentType": 5126,
      "count": 122,
      "max": [
        1.0,
        0.014685479924082756,
        0.0,
        0.0
      ],
      "min": [
        0.9853145480155945,
        0.0,
        0.0,
        0.0
      ],
      "type": "VEC4"
    },
    {
      "bufferView": 0,
      "byteOffset": 25432,
      "componentType": 5123,
      "count": 442,
      "type": "VEC4"
    },
    {
      "bufferView": 4,
      "byteOffset": 50864,
      "componentType": 5126,
      "count": 442,
      "max": [
        1.0,
        0.019720623269677162,
        0.0,
        0.0
      ],
      "min": [
        0.9802793860435486,
        0.0,
        0.0,
        0.0
      ],
      "type": "VEC4"
    },
    {
      "bufferView": 0,
      "byteOffset": 28968,
      "componentType": 5123,
      "count": 1472,
      "type": "VEC4"
    },
    {
      "bufferView": 4,
      "byteOffset": 57936,
      "componentType": 5126,
      "count": 1472,
      "max": [
        1.0,
        0.48952287435531616,
        0.294694185256958,
        0.030863367021083832
      ],
      "min": [
        0.3664979934692383,
        0.0,
        0.0,
        0.0
      ],
      "type": "VEC4"
    },
    {
      "bufferView": 0,
      "byteOffset": 40744,
      "componentType": 5123,
      "count": 3097,
      "type": "VEC4"
    },
    {
      "bufferView": 4,
      "byteOffset": 81488,
      "componentType": 5126,
      "count": 3097,
      "max": [
        1.0,
        0.49961352348327637,
        0.3248167037963867,
        0.20208331942558289
      ],
      "min": [
        0.28552237153053284,
        0.0,
        0.0,
        0.0
      ],
      "type": "VEC4"
    },
    {
      "bufferView": 0,
      "byteOffset": 65520,
      "componentType": 5123,
      "count": 3028,
      "type": "VEC4"
    },
    {
      "bufferView": 4,
      "byteOffset": 131040,
      "componentType": 5126,
      "count": 3028,
      "max": [
        1.0,
        0.49918898940086365,
        0.3200170695781708,
        0.09890830516815186
      ],
      "min": [
        0.3417435884475708,
        0.0,
        0.0,
        0.0
      ],
      "type": "VEC4"
    },
    {
      "bufferView": 6,
      "componentType": 5126,
      "count": 306,
      "max": [
        10.166666984558105
      ],
      "min": [
        0.0
      ],
      "type": "SCALAR"
    },
    {
      "bufferView": 7,
      "componentType": 5126,
      "count": 306,
      "max": [
        0.00010444090730743483,
        0.0026808257680386305,
        0.0003471751697361469
      ],
      "min": [
        2.7071037038695067e-05,
        0.0026624356396496296,
        0.0003235149197280407
      ],
      "type": "VEC3"
    },
    {
      "bufferView": 6,
      "byteOffset": 1224,
      "componentType": 5126,
      "count": 306,
      "max": [
        10.166666984558105
      ],
      "min": [
        0.0
      ],
      "type": "SCALAR"
    },
    {
      "bufferView": 8,
      "componentType": 5126,
      "count": 306,
      "max": [
        -0.02188699319958687,
        0.025561176240444183,
        -0.005147207994014025,
        -0.9992877840995789
      ],
      "min": [
        -0.028268832713365555,
        -0.001041007344610989,
        -0.010745995678007603,
        -0.9997465014457703
      ],
      "type": "VEC4"
    },
    {
      "bufferView": 6,
      "byteOffset": 2448,
      "componentType": 5126,
      "count": 1,
      "max": [
        0.0
      ],
      "min": [
        0.0
      ],
      "type": "SCALAR"
    },
    {
      "bufferView": 8,
      "byteOffset": 4896,
      "componentType": 5126,
      "count": 1,
      "max": [
        0.10710297524929047,
        0.0017032198375090957,
        -0.001518094795756042,
        -0.9942452907562256
      ],
      "min": [
        0.10710297524929047,
        0.0017032198375090957,
        -0.001518094795756042,
        -0.9942452907562256
      ],
      "type": "VEC4"
    },
    {
      "bufferView": 6,
      "byteOffset": 2452,
      "componentType": 5126,
      "count": 306,
      "max": [
        10.166666984558105
      ],
      "min": [
        0.0
      ],
      "type": "SCALAR"
    },
    {
      "bufferView": 8,
      "byteOffset": 4912,
      "componentType": 5126,
      "count": 306,
      "max": [
        0.017760248854756355,
        0.029087495058774948,
        0.011459987610578537,
        -0.9993969202041626
      ],
      "min": [
        0.010832664556801319,
        0.025234675034880638,
        0.008456519804894924,
        -0.9995788931846619
      ],
      "type": "VEC4"
    },
    {
      "bufferView": 6,
      "byteOffset": 3676,
      "componentType": 5126,
      "count": 306,
      "max": [
        10.166666984558105
      ],
      "min": [
        0.0
      ],
      "type": "SCALAR"
    },
    {
      "bufferView": 8,
      "byteOffset": 9808,
      "componentType": 5126,
      "count": 306,
      "max": [
        0.017562642693519592,
        0.02882213518023491,
        0.012274827808141708,
        -0.9993993043899536
      ],
      "min": [
        0.01063625980168581,
        0.025032930076122284,
        0.009120466187596321,
        -0.9995812773704529
      ],
      "type": "VEC4"
    },
    {
      "bufferView": 6,
      "byteOffset": 4900,
      "componentType": 5126,
      "count": 306,
      "max": [
        10.166666984558105
      ],
      "min": [
        0.0
      ],
      "type": "SCALAR"
    },
    {
      "bufferView": 8,
      "byteOffset": 14704,
      "componentType": 5126,
      "count": 306,
      "max": [
        -0.08290976285934448,
        -0.016566332429647446,
        -0.008493859320878983,
        -0.9939741492271423
      ],
      "min": [
        -0.10698098689317703,
        -0.01896033249795437,
        -0.016473818570375443,
        -0.9963344931602478
      ],
      "type": "VEC4"
    },
    {
      "bufferView": 6,
      "byteOffset": 6124,
      "componentType": 5126,
      "count": 306,
      "max": [
        10.166666984558105
      ],
      "min": [
        0.0
      ],
      "type": "SCALAR"
    },
    {
      "bufferView": 8,
      "byteOffset": 19600,
      "componentType": 5126,
      "count": 306,
      "max": [
        0.07367881387472153,
        -0.00048396358033642173,
        0.040803227573633194,
        -0.9967215657234192
      ],
      "min": [
        0.0375225692987442,
        -0.010851914994418621,
        0.02965322881937027,
        -0.9987592697143555
      ],
      "type": "VEC4"
    },
    {
      "bufferView": 6,
      "byteOffset": 7348,
      "componentType": 5126,
      "count": 306,
      "max": [
        10.166666984558105
      ],
      "min": [
        0.0
      ],
      "type": "SCALAR"
    },
    {
      "bufferView": 8,
      "byteOffset": 24496,
      "componentType": 5126,
      "count": 306,
      "max": [
        0.5549896955490112,
        -0.44120049476623535,
        -0.5476531982421875,
        -0.42104455828666687
      ],
      "min": [
        0.536568820476532,
        -0.4615342915058136,
        -0.5717431306838989,
        -0.4435535967350006
      ],
      "type": "VEC4"
    },
    {
      "bufferView": 6,
      "byteOffset": 8572,
      "componentType": 5126,
      "count": 306,
      "max": [
        10.166666984558105
      ],
      "min": [
        0.0
      ],
      "type": "SCALAR"
    },
    {
      "bufferView": 8,
      "byteOffset": 29392,
      "componentType": 5126,
      "count": 306,
      "max": [
        0.4673631191253662,
        -0.1250009983778,
        0.20337477326393127,
        -0.8567163944244385
      ],
      "min": [
        0.4338795244693756,
        -0.14392498135566711,
        0.16966891288757324,
        -0.8668400645256042
      ],
      "type": "VEC4"
    },
    {
      "bufferView": 6,
      "byteOffset": 9796,
      "componentType": 5126,
      "count": 306,
      "max": [
        10.166666984558105
      ],
      "min": [
        0.0
      ],
      "type": "SCALAR"
    },
    {
      "bufferView": 8,
      "byteOffset": 34288,
      "componentType": 5126,
      "count": 306,
      "max": [
        -0.01669582910835743,
        0.016044657677412033,
        0.2671004831790924,
        -0.9633825421333313
      ],
      "min": [
        -0.017146987840533257,
        0.01563853956758976,
        0.26005035638809204,
        -0.9653240442276001
      ],
      "type": "VEC4"
    },
    {
      "bufferView": 6,
      "byteOffset": 11020,
      "componentType": 5126,
      "count": 306,
      "max": [
        10.166666984558105
      ],
      "min": [
        0.0
      ],
      "type": "SCALAR"
    },
    {
      "bufferView": 8,
      "byteOffset": 39184,
      "componentType": 5126,
      "count": 306,
      "max": [
        0.09631345421075821,
        0.009010856971144676,
        -0.10586169362068176,
        -0.9887372851371765
      ],
      "min": [
        0.08793444186449051,
        -0.010543192736804485,
        -0.11497291177511215,
        -0.990300714969635
      ],
      "type": "VEC4"
    },
    {
      "bufferView": 6,
      "byteOffset": 12244,
      "componentType": 5126,
      "count": 306,
      "max": [
        10.166666984558105
      ],
      "min": [
        0.0
      ],
      "type": "SCALAR"
    },
    {
      "bufferView": 8,
      "byteOffset": 44080,
      "componentType": 5126,
      "count": 306,
      "max": [
        0.2115742266178131,
        0.007130779791623354,
        0.005610413383692503,
        -0.9773470163345337
      ],
      "min": [
        0.19813017547130585,
        0.005086468067020178,
        -0.0019442893099039793,
        -0.9801340103149414
      ],
      "type": "VEC4"
    },
    {
      "bufferView": 6,
      "byteOffset": 13468,
      "componentType": 5126,
      "count": 306,
      "max": [
        10.166666984558105
      ],
      "min": [
        0.0
      ],
      "type": "SCALAR"
    },
    {
      "bufferView": 8,
      "byteOffset": 48976,
      "componentType": 5126,
      "count": 306,
      "max": [
        0.01582995615899563,
        0.002929466310888529,
        0.009014389477670193,
        -0.9998465180397034
      ],
      "min": [
        -0.007279017474502325,
        0.002736477879807353,
        0.006912743207067251,
        -0.9999614953994751
      ],
      "type": "VEC4"
    },
    {
      "bufferView": 6,
      "byteOffset": 14692,
      "componentType": 5126,
      "count": 306,
      "max": [
        10.166666984558105
      ],
      "min": [
        0.0
      ],
      "type": "SCALAR"
    },
    {
      "bufferView": 8,
      "byteOffset": 53872,
      "componentType": 5126,
      "count": 306,
      "max": [
        0.20477503538131714,
        0.06088772788643837,
        0.04606006667017937,
        -0.9759753346443176
      ],
      "min": [
        0.18345168232917786,
        0.059154532849788666,
        0.04280218109488487,
        -0.9801656603813171
      ],
      "type": "VEC4"
    },
    {
      "bufferView": 6,
      "byteOffset": 15916,
      "componentType": 5126,
      "count": 306,
      "max": [
        10.166666984558105
      ],
      "min": [
        0.0
      ],
      "type": "SCALAR"
    },
    {
      "bufferView": 8,
      "byteOffset": 58768,
      "componentType": 5126,
      "count": 306,
      "max": [
        0.5984967350959778,
        0.43865132331848145,
        0.5220997333526611,
        -0.4581719636917114
      ],
      "min": [
        0.5700519680976868,
        0.41530168056488037,
        0.5055072903633118,
        -0.4626852869987488
      ],
      "type": "VEC4"
    },
    {
      "bufferView": 6,
      "byteOffset": 17140,
      "componentType": 5126,
      "count": 306,
      "max": [
        10.166666984558105
      ],
      "min": [
        0.0
      ],
      "type": "SCALAR"
    },
    {
      "bufferView": 8,
      "byteOffset": 63664,
      "componentType": 5126,
      "count": 306,
      "max": [
        0.46082061529159546,
        0.0635673776268959,
        -0.16415190696716309,
        -0.8699812889099121
      ],
      "min": [
        0.4279470145702362,
        0.05116709694266319,
        -0.18756313621997833,
        -0.8834070563316345
      ],
      "type": "VEC4"
    },
    {
      "bufferView": 6,
      "byteOffset": 18364,
      "componentType": 5126,
      "count": 306,
      "max": [
        10.166666984558105
      ],
      "min": [
        0.0
      ],
      "type": "SCALAR"
    },
    {
      "bufferView": 8,
      "byteOffset": 68560,
      "componentType": 5126,
      "count": 306,
      "max": [
        0.013675804249942303,
        -0.015041203238070011,
        -0.2620322108268738,
        -0.9622503519058228
      ],
      "min": [
        0.013204970397055149,
        -0.015581082552671432,
        -0.2713750898838043,
        -0.9648515582084656
      ],
      "type": "VEC4"
    },
    {
      "bufferView": 6,
      "byteOffset": 19588,
      "componentType": 5126,
      "count": 306,
      "max": [
        10.166666984558105
      ],
      "min": [
        0.0
      ],
      "type": "SCALAR"
    },
    {
      "bufferView": 8,
      "byteOffset": 73456,
      "componentType": 5126,
      "count": 306,
      "max": [
        0.13363349437713623,
        0.9583209156990051,
        -0.020472770556807518,
        0.27065128087997437
      ],
      "min": [
        0.12944360077381134,
        0.953359842300415,
        -0.02856570854783058,
        0.2537374496459961
      ],
      "type": "VEC4"
    },
    {
      "bufferView": 6,
      "byteOffset": 20812,
      "componentType": 5126,
      "count": 306,
      "max": [
        10.166666984558105
      ],
      "min": [
        0.0
      ],
      "type": "SCALAR"
    },
    {
      "bufferView": 8,
      "byteOffset": 78352,
      "componentType": 5126,
      "count": 306,
      "max": [
        -0.0017316824523732066,
        0.9928709864616394,
        0.10649190843105316,
        -0.08369161933660507
      ],
      "min": [
        -0.00878941174596548,
        0.9907650947570801,
        0.08286382257938385,
        -0.08525387197732925
      ],
      "type": "VEC4"
    },
    {
      "bufferView": 6,
      "byteOffset": 22036,
      "componentType": 5126,
      "count": 306,
      "max": [
        10.166666984558105
      ],
      "min": [
        0.0
      ],
      "type": "SCALAR"
    },
    {
      "bufferView": 8,
      "byteOffset": 83248,
      "componentType": 5126,
      "count": 306,
      "max": [
        0.08083705604076385,
        0.0033413893543183804,
        -0.005387767683714628,
        -0.996667206287384
      ],
      "min": [
        0.060475096106529236,
        0.0031510370317846537,
        -0.010430199094116688,
        -0.9981502294540405
      ],
      "type": "VEC4"
    },
    {
      "bufferView": 6,
      "byteOffset": 23260,
      "componentType": 5126,
      "count": 306,
      "max": [
        10.166666984558105
      ],
      "min": [
        0.0
      ],
      "type": "SCALAR"
    },
    {
      "bufferView": 8,
      "byteOffset": 88144,
      "componentType": 5126,
      "count": 306,
      "max": [
        0.1617615967988968,
        -0.049374762922525406,
        -0.11391241103410721,
        -0.9785776138305664
      ],
      "min": [
        0.14578469097614288,
        -0.050310954451560974,
        -0.1169954463839531,
        -0.9814952611923218
      ],
      "type": "VEC4"
    },
    {
      "bufferView": 6,
      "byteOffset": 24484,
      "componentType": 5126,
      "count": 306,
      "max": [
        10.166666984558105
      ],
      "min": [
        0.0
      ],
      "type": "SCALAR"
    },
    {
      "bufferView": 8,
      "byteOffset": 93040,
      "componentType": 5126,
      "count": 306,
      "max": [
        -0.04446903616189957,
        -0.09755130857229233,
        -0.9899554252624512,
        -0.04976452514529228
      ],
      "min": [
        -0.05253702774643898,
        -0.12336282432079315,
        -0.9919863343238831,
        -0.0694570392370224
      ],
      "type": "VEC4"
    },
    {
      "bufferView": 6,
      "byteOffset": 25708,
      "componentType": 5126,
      "count": 306,
      "max": [
        10.166666984558105
      ],
      "min": [
        0.0
      ],
      "type": "SCALAR"
    },
    {
      "bufferView": 8,
      "byteOffset": 97936,
      "componentType": 5126,
      "count": 306,
      "max": [
        -0.766305685043335,
        -0.03700145706534386,
        0.08946190774440765,
        -0.5266624689102173
      ],
      "min": [
        -0.8446007370948792,
        -0.08181710541248322,
        0.03155947104096413,
        -0.6378922462463379
      ],
      "type": "VEC4"
    },
    {
      "bufferView": 6,
      "byteOffset": 26932,
      "componentType": 5126,
      "count": 306,
      "max": [
        10.166666984558105
      ],
      "min": [
        0.0
      ],
      "type": "SCALAR"
    },
    {
      "bufferView": 8,
      "byteOffset": 102832,
      "componentType": 5126,
      "count": 306,
      "max": [
        0.9332502484321594,
        0.16070720553398132,
        -0.32982102036476135,
        0.06270966678857803
      ],
      "min": [
        0.9082492589950562,
        0.1303720325231552,
        -0.387295126914978,
        -0.07826486974954605
      ],
      "type": "VEC4"
    },
    {
      "bufferView": 6,
      "byteOffset": 28156,
      "componentType": 5126,
      "count": 1,
      "max": [
        0.0
      ],
      "min": [
        0.0
      ],
      "type": "SCALAR"
    },
    {
      "bufferView": 8,
      "byteOffset": 107728,
      "componentType": 5126,
      "count": 1,
      "max": [
        0.21087230741977692,
        -0.46567198634147644,
        -0.11472024768590927,
        -0.8517756462097168
      ],
      "min": [
        0.21087230741977692,
        -0.46567198634147644,
        -0.11472024768590927,
        -0.8517756462097168
      ],
      "type": "VEC4"
    },
    {
      "bufferView": 6,
      "byteOffset": 28160,
      "componentType": 5126,
      "count": 306,
      "max": [
        10.166666984558105
      ],
      "min": [
        0.0
      ],
      "type": "SCALAR"
    },
    {
      "bufferView": 8,
      "byteOffset": 107744,
      "componentType": 5126,
      "count": 306,
      "max": [
        0.081456258893013,
        -0.007157495245337486,
        -0.9939195513725281,
        0.07665805518627167
      ],
      "min": [
        0.06767871230840683,
        -0.02558918483555317,
        -0.9953756928443909,
        0.06204744800925255
      ],
      "type": "VEC4"
    },
    {
      "bufferView": 6,
      "byteOffset": 29384,
      "componentType": 5126,
      "count": 306,
      "max": [
        10.166666984558105
      ],
      "min": [
        0.0
      ],
      "type": "SCALAR"
    },
    {
      "bufferView": 8,
      "byteOffset": 112640,
      "componentType": 5126,
      "count": 306,
      "max": [
        -0.7851272821426392,
        -0.032621100544929504,
        0.08413921296596527,
        -0.5906911492347717
      ],
      "min": [
        -0.8018593788146973,
        -0.04106996953487396,
        0.0756334736943245,
        -0.6130956411361694
      ],
      "type": "VEC4"
    },
    {
      "bufferView": 6,
      "byteOffset": 30608,
      "componentType": 5126,
      "count": 306,
      "max": [
        10.166666984558105
      ],
      "min": [
        0.0
      ],
      "type": "SCALAR"
    },
    {
      "bufferView": 8,
      "byteOffset": 117536,
      "componentType": 5126,
      "count": 306,
      "max": [
        0.9803199172019958,
        0.062451329082250595,
        0.15655551850795746,
        -0.12375316023826599
      ],
      "min": [
        0.9708890914916992,
        0.04501986503601074,
        0.14255423843860626,
        -0.17192710936069489
      ],
      "type": "VEC4"
    }
  ],
  "animations": [
    {
      "channels": [
        {
          "sampler": 0,
          "target": {
            "node": 18,
            "path": "translation"
          }
        },
        {
          "sampler": 1,
          "target": {
            "node": 18,
            "path": "rotation"
          }
        },
        {
          "sampler": 2,
          "target": {
            "node": 19,
            "path": "rotation"
          }
        },
        {
          "sampler": 3,
          "target": {
            "node": 20,
            "path": "rotation"
          }
        },
        {
          "sampler": 4,
          "target": {
            "node": 21,
            "path": "rotation"
          }
        },
        {
          "sampler": 5,
          "target": {
            "node": 38,
            "path": "rotation"
          }
        },
        {
          "sampler": 6,
          "target": {
            "node": 39,
            "path": "rotation"
          }
        },
        {
          "sampler": 7,
          "target": {
            "node": 22,
            "path": "rotation"
          }
        },
        {
          "sampler": 8,
          "target": {
            "node": 23,
            "path": "rotation"
          }
        },
        {
          "sampler": 9,
          "target": {
            "node": 24,
            "path": "rotation"
          }
        },
        {
          "sampler": 10,
          "target": {
            "node": 25,
            "path": "rotation"
          }
        },
        {
          "sampler": 11,
          "target": {
            "node": 26,
            "path": "rotation"
          }
        },
        {
          "sampler": 12,
          "target": {
            "node": 27,
            "path": "rotation"
          }
        },
        {
          "sampler": 13,
          "target": {
            "node": 28,
            "path": "rotation"
          }
        },
        {
          "sampler": 14,
          "target": {
            "node": 30,
            "path": "rotation"
          }
        },
        {
          "sampler": 15,
          "target": {
            "node": 31,
            "path": "rotation"
          }
        },
        {
          "sampler": 16,
          "target": {
            "node": 32,
            "path": "rotation"
          }
        },
        {
          "sampler": 17,
          "target": {
            "node": 33,
            "path": "rotation"
          }
        },
        {
          "sampler": 18,
          "target": {
            "node": 34,
            "path": "rotation"
          }
        },
        {
          "sampler": 19,
          "target": {
            "node": 35,
            "path": "rotation"
          }
        },
        {
          "sampler": 20,
          "target": {
            "node": 36,
            "path": "rotation"
          }
        },
        {
          "sampler": 21,
          "target": {
            "node": 41,
            "path": "rotation"
          }
        },
        {
          "sampler": 22,
          "target": {
            "node": 42,
            "path": "rotation"
          }
        },
        {
          "sampler": 23,
          "target": {
            "node": 43,
            "path": "rotation"
          }
        },
        {
          "sampler": 24,
          "target": {
            "node": 44,
            "path": "rotation"
          }
        },
        {
          "sampler": 25,
          "target": {
            "node": 46,
            "path": "rotation"
          }
        },
        {
          "sampler": 26,
          "target": {
            "node": 47,
            "path": "rotation"
          }
        },
        {
          "sampler": 27,
          "target": {
            "node": 48,
            "path": "rotation"
          }
        }
      ],
      "name": "Take 001",
      "samplers": [
        {
          "input": 37,
          "interpolation": "LINEAR",
          "output": 38
        },
        {
          "input": 39,
          "interpolation": "LINEAR",
          "output": 40
        },
        {
          "input": 41,
          "interpolation": "LINEAR",
          "output": 42
        },
        {
          "input": 43,
          "interpolation": "LINEAR",
          "output": 44
        },
        {
          "input": 45,
          "interpolation": "LINEAR",
          "output": 46
        },
        {
          "input": 47,
          "interpolation": "LINEAR",
          "output": 48
        },
        {
          "input": 49,
          "interpolation": "LINEAR",
          "output": 50
        },
        {
          "input": 51,
          "interpolation": "LINEAR",
          "output": 52
        },
        {
          "input": 53,
          "interpolation": "LINEAR",
          "output": 54
        },
        {
          "input": 55,
          "interpolation": "LINEAR",
          "output": 56
        },
        {
          "input": 57,
          "interpolation": "LINEAR",
          "output": 58
        },
        {
          "input": 59,
          "interpolation": "LINEAR",
          "output": 60
        },
        {
          "input": 61,
          "interpolation": "LINEAR",
          "output": 62
        },
        {
          "input": 63,
          "interpolation": "LINEAR",
          "output": 64
        },
        {
          "input": 65,
          "interpolation": "LINEAR",
          "output": 66
        },
        {
          "input": 67,
          "interpolation": "LINEAR",
          "output": 68
        },
        {
          "input": 69,
          "interpolation": "LINEAR",
          "output": 70
        },
        {
          "input": 71,
          "interpolation": "LINEAR",
          "output": 72
        },
        {
          "input": 73,
          "interpolation": "LINEAR",
          "output": 74
        },
        {
          "input": 75,
          "interpolation": "LINEAR",
          "output": 76
        },
        {
          "input": 77,
          "interpolation": "LINEAR",
          "output": 78
        },
        {
          "input": 79,
          "interpolation": "LINEAR",
          "output": 80
        },
        {
          "input": 81,
          "interpolation": "LINEAR",
          "output": 82
        },
        {
          "input": 83,
          "interpolation": "LINEAR",
          "output": 84
        },
        {
          "input": 85,
          "interpolation": "LINEAR",
          "output": 86
        },
        {
          "input": 87,
          "interpolation": "LINEAR",
          "output": 88
        },
        {
          "input": 89,
          "interpolation": "LINEAR",
          "output": 90
        },
        {
          "input": 91,
          "interpolation": "LINEAR",
          "output": 92
        }
      ]
    }
  ],
  "asset": {
    "extras": {
      "author": "Mind Mulch for The Masses (https://sketchfab.com/mindmulchforthemasses)",
      "license": "CC-BY-4.0 (http://creativecommons.org/licenses/by/4.0/)",
      "source": "https://sketchfab.com/3d-models/yoda-04face8041ab4b108649093172c49af2",
      "title": "Yoda"
    },
    "generator": "Sketchfab-15.25.0",
    "version": "2.0"
  },
  "bufferViews": [
    {
      "buffer": 0,
      "byteLength": 89744,
      "byteStride": 8,
      "name": "shortBufferViews",
      "target": 34962
    },
    {
      "buffer": 0,
      "byteLength": 217104,
      "byteOffset": 89744,
      "name": "floatBufferViews",
      "target": 34963
    },
    {
      "buffer": 0,
      "byteLength": 89744,
      "byteOffset": 306848,
      "byteStride": 8,
      "name": "floatBufferViews",
      "target": 34962
    },
    {
      "buffer": 0,
      "byteLength": 269232,
      "byteOffset": 396592,
      "byteStride": 12,
      "name": "floatBufferViews",
      "target": 34962
    },
    {
      "buffer": 0,
      "byteLength": 179488,
      "byteOffset": 665824,
      "byteStride": 16,
      "name": "floatBufferViews",
      "target": 34962
    },
    {
      "buffer": 0,
      "byteLength": 1856,
      "byteOffset": 845312,
      "name": "floatBufferViews"
    },
    {
      "buffer": 0,
      "byteLength": 31832,
      "byteOffset": 847168,
      "name": "floatBufferViews"
    },
    {
      "buffer": 0,
      "byteLength": 3672,
      "byteOffset": 879000,
      "byteStride": 12,
      "name": "floatBufferViews"
    },
    {
      "buffer": 0,
      "byteLength": 122432,
      "byteOffset": 882672,
      "byteStride": 16,
      "name": "floatBufferViews"
    }
  ],
  "buffers": [
    {
      "byteLength": 1005104,
      "uri": "scene.bin"
    }
  ],
  "extensionsUsed": [
    "KHR_materials_specular"
  ],
  "images": [
    {
      "uri": "textures/CHA_yodaHead_C_baseColor.jpeg"
    },
    {
      "uri": "textures/CHA_yodaEye_C_baseColor.png"
    },
    {
      "uri": "textures/CHA_yodaHair_C_baseColor.png"
    },
    {
      "uri": "textures/CHA_yodaHair_C_metallicRoughness.png"
    },
    {
      "uri": "textures/CHA_yodaBody_C_baseColor.png"
    }
  ],
  "materials": [
    {
      "doubleSided": true,
      "extensions": {
        "KHR_materials_specular": {
          "specularColorFactor": [
            1.0,
            1.0,
            1.0
          ],
          "specularFactor": 1.0
        }
      },
      "name": "CHA_yodaHead_C",
      "pbrMetallicRoughness": {
        "baseColorTexture": {
          "index": 0
        },
        "metallicFactor": 0.3431783536585366,
        "roughnessFactor": 0.8553734756097561
      }
    },
    {
      "name": "CHA_yodaEye_C",
      "pbrMetallicRoughness": {
        "baseColorTexture": {
          "index": 1
        },
        "metallicFactor": 0.0
      }
    },
    {
      "alphaMode": "BLEND",
      "extensions": {
        "KHR_materials_specular": {
          "specularColorFactor": [
            1.0,
            1.0,
            1.0
          ],
          "specularFactor": 0.5200076219512195
        }
      },
      "name": "CHA_yodaHair_C",
      "pbrMetallicRoughness": {
        "baseColorTexture": {
          "index": 2
        },
        "metallicFactor": 0.0,
        "metallicRoughnessTexture": {
          "index": 3
        },
        "roughnessFactor": 0.8031631097560976
      }
    },
    {
      "doubleSided": true,
      "extensions": {
        "KHR_materials_specular": {
          "specularColorFactor": [
            1.0,
            1.0,
            1.0
          ],
          "specularFactor": 0.020007621951219513
        }
      },
      "name": "CHA_yodaBody_C",
      "pbrMetallicRoughness": {
        "baseColorTexture": {
          "index": 4
        },
        "metallicFactor": 0.0,
        "roughnessFactor": 0.65
      }
    }
  ],
  "meshes": [
    {
      "name": "Object_0",
      "primitives": [
        {
          "attributes": {
            "JOINTS_0": 25,
            "NORMAL": 1,
            "POSITION": 0,
            "TEXCOORD_0": 2,
            "WEIGHTS_0": 26
          },
          "indices": 3,
          "material": 0,
          "mode": 4
        }
      ]
    },
    {
      "name": "Object_1",
      "primitives": [
        {
          "attributes": {
            "JOINTS_0": 27,
            "NORMAL": 5,
            "POSITION": 4,
            "TEXCOORD_0": 6,
            "WEIGHTS_0": 28
          },
          "indices": 7,
          "material": 1,
          "mode": 4
        }
      ]
    },
    {
      "name": "Object_2",
      "primitives": [
        {
          "attributes": {
            "JOINTS_0": 29,
            "NORMAL": 9,
            "POSITION": 8,
            "TEXCOORD_0": 10,
            "WEIGHTS_0": 30
          },
          "indices": 11,
          "material": 1,
          "mode": 4
        }
      ]
    },
    {
      "name": "Object_3",
      "primitives": [
        {
          "attributes": {
            "JOINTS_0": 31,
            "NORMAL": 13,
            "POSITION": 12,
            "TEXCOORD_0": 14,
            "WEIGHTS_0": 32
          },
          "indices": 15,
          "material": 2,
          "mode": 4
        }
      ]
    },
    {
      "name": "Object_4",
      "primitives": [
        {
          "attributes": {
            "JOINTS_0": 33,
            "NORMAL": 17,
            "POSITION": 16,
            "TEXCOORD_0": 18,
            "WEIGHTS_0": 34
          },
          "indices": 19,
          "material": 3,
          "mode": 4
        }
      ]
    },
    {
      "name": "Object_5",
      "primitives": [
        {
          "attributes": {
            "JOINTS_0": 35,
            "NORMAL": 21,
            "POSITION": 20,
            "TEXCOORD_0": 22,
            "WEIGHTS_0": 36
          },
          "indices": 23,
          "material": 3,
          "mode": 4
        }
      ]
    }
  ],
  "nodes": [
    {
      "children": [
        1
      ],
      "matrix": [
        1.0,
        0.0,
        0.0,
        0.0,
        0.0,
        2.220446049250313e-16,
        -1.0,
        0.0,
        0.0,
        1.0,
        2.220446049250313e-16,
        0.0,
        0.0,
        0.0,
        0.0,
        1.0
      ],
      "name": "Sketchfab_model"
    },
    {
      "children": [
        2
      ],
      "name": "root"
    },
    {
      "children": [
        3
      ],
      "matrix": [
        1.0,
        0.0,
        0.0,
        0.0,
        0.0,
        2.220446049250313e-16,
        1.0,
        0.0,
        0.0,
        -1.0,
        2.220446049250313e-16,
        0.0,
        0.0,
        0.0,
        0.0,
        1.0
      ],
      "name": "GLTF_SceneRootNode"
    },
    {
      "children": [
        4
      ],
      "matrix": [
        -3.3510624163340843,
        0.0,
        95.22408934997208,
        0.0,
        0.0,
        95.28302764892578,
        0.0,
        0.0,
        -95.22409697464676,
        0.0,
        -3.351062684656532,
        0.0,
        -15.083770751953125,
        4.165999889373779,
        3.405251979827881,
        1.0
      ],
      "name": "yoda_0"
    },
    {
      "children": [
        5,
        7,
        9,
        11,
        13,
        15,
        17,
        6,
        8,
        10,
        12,
        14,
        16
      ],
      "name": "GLTF_created_4"
    },
    {
      "children": [
        18
      ],
      "name": "GLTF_created_4_rootJoint"
    },
    {
      "name": "Object001_34"
    },
    {
      "mesh": 0,
      "name": "Object_7",
      "skin": 0
    },
    {
      "name": "Object002_35"
    },
    {
      "mesh": 1,
      "name": "Object_9",
      "skin": 0
    },
    {
      "name": "Object003_36"
    },
    {
      "mesh": 2,
      "name": "Object_11",
      "skin": 0
    },
    {
      "name": "Object004_37"
    },
    {
      "mesh": 3,
      "name": "Object_13",
      "skin": 0
    },
    {
      "name": "Object005_38"
    },
    {
      "mesh": 4,
      "name": "Object_15",
      "skin": 0
    },
    {
      "name": "yodaout_39"
    },
    {
      "mesh": 5,
      "name": "Object_17",
      "skin": 0
    },
    {
      "children": [
        19,
        41,
        46
      ],
      "name": "mixamorig:Hips_1",
      "rotation": [
        -0.013316689990460873,
        0.0018342676339671016,
        -0.0062145693227648735,
        -0.9998903274536133
      ],
      "translation": [
        8.283186616608873e-05,
        0.0026908372528851032,
        0.00031241081887856126
      ]
    },
    {
      "children": [
        20
      ],
      "name": "mixamorig:Spine_12",
      "rotation": [
        0.10304136574268341,
        0.0006094448617659509,
        -0.002912442432716489,
        -0.9946726560592651
      ],
      "translation": [
        0.0,
        0.0009002553997561336,
        -0.00017265393398702145
      ]
    },
    {
      "children": [
        21
      ],
      "name": "mixamorig:Spine1_13",
      "rotation": [
        0.00887940265238285,
        0.02104458212852478,
        0.005138454958796501,
        -0.9997259378433228
      ],
      "translation": [
        0.0,
        0.0010694385273382068,
        -3.741988923583461e-12
      ]
    },
    {
      "children": [
        22,
        30,
        38
      ],
      "name": "mixamorig:Spine2_14",
      "rotation": [
        0.008826741948723793,
        0.020945653319358826,
        0.0055043878965079784,
        -0.9997265338897705
      ],
      "translation": [
        0.0,
        0.0012222158256918192,
        -3.434943085176001e-12
      ]
    },
    {
      "children": [
        23
      ],
      "name": "mixamorig:LeftShoulder_15",
      "rotation": [
        0.5356037616729736,
        -0.45774996280670166,
        -0.5655099153518677,
        -0.42870983481407166
      ],
      "translation": [
        -0.0005162963061593473,
        0.0011946501908823848,
        -4.97859509778209e-05
      ]
    },
    {
      "children": [
        24
      ],
      "name": "mixamorig:LeftArm_16",
      "rotation": [
        0.4680713713169098,
        -0.08583513647317886,
        0.20186857879161835,
        -0.8560319542884827
      ],
      "translation": [
        -4.012084501431312e-12,
        0.0010955757461488247,
        1.5655157725724678e-11
      ]
    },
    {
      "children": [
        25
      ],
      "name": "mixamorig:LeftForeArm_17",
      "rotation": [
        -0.016200020909309387,
        0.0006149412947706878,
        0.2523523271083832,
        -0.9674996733665466
      ],
      "translation": [
        4.7151379887122244e-14,
        0.0014194999821484089,
        7.840383615780044e-13
      ]
    },
    {
      "children": [
        26
      ],
      "name": "mixamorig:LeftHand_18",
      "rotation": [
        0.1129474863409996,
        -0.04475782439112663,
        -0.12161082774400711,
        -0.9851143956184387
      ],
      "translation": [
        -1.402138930135799e-12,
        0.001600725925527513,
        3.883881063981853e-12
      ]
    },
    {
      "children": [
        27
      ],
      "name": "mixamorig:LeftHandIndex1_19",
      "rotation": [
        0.18347615003585815,
        0.004096415359526873,
        -0.003387032775208354,
        -0.9830098152160645
      ],
      "translation": [
        -1.418737631715683e-12,
        0.0005711214034818113,
        -4.3694301649077616e-12
      ]
    },
    {
      "children": [
        28
      ],
      "name": "mixamorig:LeftHandIndex2_20",
      "rotation": [
        -0.012975623831152916,
        0.002688891254365444,
        0.00953163206577301,
        -0.999866783618927
      ],
      "translation": [
        4.5170985008002873e-13,
        0.00018559406453277916,
        1.0172751177669678e-13
      ]
    },
    {
      "children": [
        29
      ],
      "name": "mixamorig:LeftHandIndex3_21",
      "rotation": [
        0.2547347843647003,
        0.06486271321773529,
        0.0350261889398098,
        -0.9641971588134766
      ],
      "translation": [
        -1.923638046719134e-05,
        0.00021745750564150512,
        -0.00016387950745411217
      ]
    },
    {
      "matrix": [
        1.0,
        0.0,
        0.0,
        0.0,
        0.0,
        1.0,
        0.0,
        0.0,
        0.0,
        0.0,
        1.0,
        0.0,
        -4.704762977780774e-05,
        0.00018931346130557358,
        -8.636477286927402e-05,
        1.0
      ],
      "name": "mixamorig:LeftHandIndex4_22"
    },
    {
      "children": [
        31
      ],
      "name": "mixamorig:RightShoulder_26",
      "rotation": [
        0.5446523427963257,
        0.4652586877346039,
        0.5139070749282837,
        -0.47200390696525574
      ],
      "translation": [
        0.0005162963061593473,
        0.0011890270980075002,
        -2.0465622583287768e-05
      ]
    },
    {
      "children": [
        32
      ],
      "name": "mixamorig:RightArm_27",
      "rotation": [
        0.4955980181694031,
        0.03932749852538109,
        -0.22407905757427216,
        -0.8382270336151123
      ],
      "translation": [
        2.4365921606761543e-12,
        0.0010955757461488247,
        1.5976350450919163e-11
      ]
    },
    {
      "children": [
        33
      ],
      "name": "mixamorig:RightForeArm_28",
      "rotation": [
        0.011790131218731403,
        8.698883902980015e-05,
        -0.23396311700344086,
        -0.9721739888191223
      ],
      "translation": [
        -1.0874701611212831e-13,
        0.001419508596882224,
        3.849585147180923e-12
      ]
    },
    {
      "children": [
        34
      ],
      "name": "mixamorig:RightHand_29",
      "rotation": [
        0.12243818491697311,
        0.9538143873214722,
        -0.04036884009838104,
        0.2713252007961273
      ],
      "translation": [
        7.189254616971064e-13,
        0.0016003152122721076,
        -1.2271822447118552e-11
      ]
    },
    {
      "children": [
        35
      ],
      "name": "mixamorig:RightHandIndex1_30",
      "rotation": [
        0.0015512482495978475,
        0.9905861616134644,
        0.10632973164319992,
        -0.0862017571926117
      ],
      "translation": [
        5.199471929395738e-12,
        0.0005964901647530496,
        -2.743263949334107e-12
      ]
    },
    {
      "children": [
        36
      ],
      "name": "mixamorig:RightHandIndex2_31",
      "rotation": [
        0.06586877256631851,
        0.0032018155325204134,
        -0.006723080761730671,
        -0.9978005290031433
      ],
      "translation": [
        -4.364535642620293e-12,
        0.00016829106607474387,
        -1.1825303757040384e-11
      ]
    },
    {
      "children": [
        37
      ],
      "name": "mixamorig:RightHandIndex3_32",
      "rotation": [
        0.1523757427930832,
        -0.04976277053356171,
        -0.11518722027540207,
        -0.9803250432014465
      ],
      "translation": [
        -3.727205330505967e-05,
        0.00022419908782467246,
        -0.00013117259368300438
      ]
    },
    {
      "matrix": [
        1.0,
        0.0,
        0.0,
        0.0,
        0.0,
        1.0,
        0.0,
        0.0,
        0.0,
        0.0,
        1.0,
        0.0,
        1.700603934295941e-05,
        0.00019375327974557877,
        -7.252027717186138e-05,
        1.0
      ],
      "name": "mixamorig:RightHandIndex4_33"
    },
    {
      "children": [
        39
      ],
      "name": "mixamorig:Neck_23",
      "rotation": [
        -0.11854420602321625,
        -0.006152051966637373,
        -0.013278868049383163,
        -0.9928409457206726
      ],
      "translation": [
        0.0,
        0.0013749930076301098,
        1.6171360084360487e-10
      ]
    },
    {
      "children": [
        40
      ],
      "name": "mixamorig:Head_24",
      "rotation": [
        0.04819691926240921,
        0.014846595004200935,
        0.03154648840427399,
        -0.9982291460037231
      ],
      "translation": [
        0.0,
        0.0005239557940512896,
        -0.00013664089783560485
      ]
    },
    {
      "matrix": [
        1.0,
        0.0,
        0.0,
        0.0,
        0.0,
        1.0,
        0.0,
        0.0,
        0.0,
        0.0,
        1.0,
        0.0,
        0.0,
        0.002037172904238105,
        -0.0005312683060765266,
        1.0
      ],
      "name": "mixamorig:HeadTop_End_25"
    },
    {
      "children": [
        42
      ],
      "name": "mixamorig:LeftUpLeg_2",
      "rotation": [
        -0.039558425545692444,
        -0.07917729765176773,
        -0.9952320456504822,
        -0.04097971320152283
      ],
      "translation": [
        -0.0011820342624559999,
        -0.0005008818116039038,
        -0.0002816194319166243
      ]
    },
    {
      "children": [
        43
      ],
      "name": "mixamorig:LeftLeg_3",
      "rotation": [
        -0.8149536848068237,
        -0.0467085987329483,
        0.08650222420692444,
        -0.5711270570755005
      ],
      "translation": [
        3.117645031025518e-14,
        0.001598156988620758,
        9.51437496496399e-13
      ]
    },
    {
      "children": [
        44
      ],
      "name": "mixamorig:LeftFoot_4",
      "rotation": [
        0.9197193384170532,
        0.1398184448480606,
        -0.3665851652622223,
        -0.013512560166418552
      ],
      "translation": [
        1.8473861763262933e-12,
        0.0001169097886304371,
        3.596646906082329e-13
      ]
    },
    {
      "children": [
        45
      ],
      "name": "mixamorig:LeftToeBase_5",
      "rotation": [
        0.21382813155651093,
        -0.46580204367637634,
        -0.11471454799175262,
        -0.8509680032730103
      ],
      "translation": [
        6.489278298743573e-12,
        0.0008979421691037714,
        1.806475455334855e-11
      ]
    },
    {
      "matrix": [
        1.0,
        0.0,
        0.0,
        0.0,
        0.0,
        1.0,
        0.0,
        0.0,
        0.0,
        0.0,
        1.0,
        0.0,
        -1.1064290109108477e-11,
        0.00044579620589502156,
        1.880270678739082e-12,
        1.0
      ],
      "name": "mixamorig:LeftToe_End_6"
    },
    {
      "children": [
        47
      ],
      "name": "mixamorig:RightUpLeg_7",
      "rotation": [
        0.11153275519609451,
        -0.017186464741826057,
        -0.990544855594635,
        0.0780126303434372
      ],
      "translation": [
        0.0011820342624559999,
        -0.0005008818116039038,
        -0.0002530972706153989
      ]
    },
    {
      "children": [
        48
      ],
      "name": "mixamorig:RightLeg_8",
      "rotation": [
        -0.771231472492218,
        -0.03597170114517212,
        0.0918264389038086,
        -0.6288688778877258
      ],
      "translation": [
        2.3612372907627632e-12,
        0.0016187187284231186,
        -1.376226476529352e-11
      ]
    },
    {
      "children": [
        49
      ],
      "name": "mixamorig:RightFoot_9",
      "rotation": [
        0.9714984893798828,
        0.02723558060824871,
        0.15935377776622772,
        -0.17336483299732208
      ],
      "translation": [
        6.385680829598672e-13,
        0.00026382485521025956,
        -7.565928135735978e-13
      ]
    },
    {
      "children": [
        50
      ],
      "name": "mixamorig:RightToeBase_10",
      "rotation": [
        0.20553137362003326,
        0.2813013195991516,
        0.061814941465854645,
        -0.9353103041648865
      ],
      "translation": [
        -3.720339140922402e-12,
        0.0010097399353981018,
        1.7635103446989042e-11
      ]
    },
    {
      "matrix": [
        1.0,
        0.0,
        0.0,
        0.0,
        0.0,
        1.0,
        0.0,
        0.0,
        0.0,
        0.0,
        1.0,
        0.0,
        9.650819206286076e-12,
        0.0006494711269624531,
        -1.4713321706827376e-12,
        1.0
      ],
      "name": "mixamorig:RightToe_End_11"
    }
  ],
  "samplers": [
    {
      "magFilter": 9729,
      "minFilter": 9987,
      "wrapS": 10497,
      "wrapT": 10497
    },
    {
      "magFilter": 9729,
      "minFilter": 9987,
      "wrapS": 33648,
      "wrapT": 33648
    },
    {
      "magFilter": 9729,
      "minFilter": 9729,
      "wrapS": 10497,
      "wrapT": 10497
    }
  ],
  "scene": 0,
  "scenes": [
    {
      "name": "Sketchfab_Scene",
      "nodes": [
        0
      ]
    }
  ],
  "skins": [
    {
      "inverseBindMatrices": 24,
      "joints": [
        5,
        18,
        19,
        20,
        21,
        22,
        23,
        24,
        25,
        26,
        27,
        28,
        30,
        31,
        32,
        33,
        34,
        35,
        36,
        38,
        39,
        41,
        42,
        43,
        44,
        46,
        47,
        48,
        49
      ],
      "skeleton": 5
    }
  ],
  "textures": [
    {
      "sampler": 0,
      "source": 0
    },
    {
      "sampler": 0,
      "source": 1
    },
    {
      "sampler": 1,
      "source": 2
    },
    {
      "sampler": 0,
      "source": 3
    },
    {
      "sampler": 2,
      "source": 4
    }
  ]
}
