{
  "accessors": [
    {
      "bufferView": 2,
      "componentType": 5126,
      "count": 23639,
      "max": [
        0.0807415321469307,
        0.08466292917728424,
        0.06949064135551453
      ],
      "min": [
        -0.07838558405637741,
        -0.08466292917728424,
        -0.08267100155353546
      ],
      "type": "VEC3"
    },
    {
      "bufferView": 2,
      "byteOffset": 283668,
      "componentType": 5126,
      "count": 23639,
      "max": [
        0.9999104142189026,
        0.9999998807907104,
        0.9999943375587463
      ],
      "min": [
        -0.9999090433120728,
        -0.9939727187156677,
        -0.9995741844177246
      ],
      "type": "VEC3"
    },
    {
      "bufferView": 1,
      "componentType": 5126,
      "count": 23639,
      "max": [
        0.9994153380393982,
        0.999986469745636
      ],
      "min": [
        1.7386955732945353e-05,
        3.0251396310632117e-05
      ],
      "type": "VEC2"
    },
    {
      "bufferView": 1,
      "byteOffset": 189112,
      "componentType": 5126,
      "count": 23639,
      "max": [
        0.9994153380393982,
        0.999986469745636
      ],
      "min": [
        1.7386955732945353e-05,
        3.0251396310632117e-05
      ],
      "type": "VEC2"
    },
    {
      "bufferView": 1,
      "byteOffset": 378224,
      "componentType": 5126,
      "count": 23639,
      "max": [
        0.9994153380393982,
        0.999986469745636
      ],
      "min": [
        1.7386955732945353e-05,
        3.0251396310632117e-05
      ],
      "type": "VEC2"
    },
    {
      "bufferView": 0,
      "componentType": 5125,
      "count": 117762,
      "type": "SCALAR"
    }
  ],
  "asset": {
    "extras": {
      "author": "Karl Hodge (https://sketchfab.com/karlhodge)",
      "license": "CC-BY-NC-SA-4.0 (http://creativecommons.org/licenses/by-nc-sa/4.0/)",
      "source": "https://sketchfab.com/3d-models/eaglemoss-kirk-2439322fc17341fb9602d176ac6e2a16",
      "title": "Eaglemoss Kirk"
    },
    "generator": "Sketchfab-13.76.0",
    "version": "2.0"
  },
  "bufferViews": [
    {
      "buffer": 0,
      "byteLength": 471048,
      "name": "floatBufferViews",
      "target": 34963
    },
    {
      "buffer": 0,
      "byteLength": 567336,
      "byteOffset": 471048,
      "byteStride": 8,
      "name": "floatBufferViews",
      "target": 34962
    },
    {
      "buffer": 0,
      "byteLength": 567336,
      "byteOffset": 1038384,
      "byteStride": 12,
      "name": "floatBufferViews",
      "target": 34962
    }
  ],
  "buffers": [
    {
      "byteLength": 1605720,
      "uri": "scene.bin"
    }
  ],
  "extensionsUsed": [
    "KHR_materials_unlit"
  ],
  "images": [
    {
      "uri": "textures/material_0_baseColor.jpeg"
    }
  ],
  "materials": [
    {
      "extensions": {
        "KHR_materials_unlit": {}
      },
      "name": "material_0",
      "pbrMetallicRoughness": {
        "baseColorTexture": {
          "index": 0
        },
        "metallicFactor": 0.0
      }
    }
  ],
  "meshes": [
    {
      "name": "Object_0",
      "primitives": [
        {
          "attributes": {
            "NORMAL": 1,
            "POSITION": 0,
            "TEXCOORD_0": 2,
            "TEXCOORD_1": 3,
            "TEXCOORD_2": 4
          },
          "indices": 5,
          "material": 0,
          "mode": 4
        }
      ]
    }
  ],
  "nodes": [
    {
      "children": [
        1
      ],
      "matrix": [
        1.0,
        0.0,
        0.0,
        0.0,
        0.0,
        2.220446049250313e-16,
        -1.0,
        0.0,
        0.0,
        1.0,
        2.220446049250313e-16,
        0.0,
        0.0,
        0.0,
        0.0,
        1.0
      ],
      "name": "Sketchfab_model"
    },
    {
      "children": [
        2
      ],
      "name": "root"
    },
    {
      "children": [
        3
      ],
      "matrix": [
        1.0,
        0.0,
        0.0,
        0.0,
        0.0,
        2.220446049250313e-16,
        1.0,
        0.0,
        0.0,
        -1.0,
        2.220446049250313e-16,
        0.0,
        0.0,
        0.0,
        0.0,
        1.0
      ],
      "name": "GLTF_SceneRootNode"
    },
    {
      "children": [
        4
      ],
      "name": "_0"
    },
    {
      "mesh": 0,
      "name": "Object_4"
    }
  ],
  "samplers": [
    {
      "magFilter": 9729,
      "minFilter": 9987,
      "wrapS": 10497,
      "wrapT": 10497
    }
  ],
  "scene": 0,
  "scenes": [
    {
      "name": "Sketchfab_Scene",
      "nodes": [
        0
      ]
    }
  ],
  "textures": [
    {
      "sampler": 0,
      "source": 0
    }
  ]
}
