{
  "accessors": [
    {
      "bufferView": 2,
      "componentType": 5126,
      "count": 37,
      "max": [
        -0.9290720224380493,
        -0.02272769995033741,
        0.019510699436068535
      ],
      "min": [
        -0.9371809959411621,
        -0.055076900869607925,
        -0.013337399810552597
      ],
      "type": "VEC3"
    },
    {
      "bufferView": 2,
      "byteOffset": 444,
      "componentType": 5126,
      "count": 37,
      "max": [
        -0.3918857276439667,
        0.9060368537902832,
        0.9200137853622437
      ],
      "min": [
        -1.0,
        -0.9060367345809937,
        -0.9200137853622437
      ],
      "type": "VEC3"
    },
    {
      "bufferView": 3,
      "componentType": 5126,
      "count": 37,
      "max": [
        0.9193829894065857,
        0.8838260173797607,
        0.6054570078849792,
        1.0
      ],
      "min": [
        -0.919372022151947,
        0.33314698934555054,
        0.08958739787340164,
        1.0
      ],
      "type": "VEC4"
    },
    {
      "bufferView": 1,
      "componentType": 5126,
      "count": 37,
      "max": [
        0.6760849952697754,
        0.9386429786682129
      ],
      "min": [
        0.529151976108551,
        0.793300986289978
      ],
      "type": "VEC2"
    },
    {
      "bufferView": 0,
      "componentType": 5125,
      "count": 162,
      "type": "SCALAR"
    },
    {
      "bufferView": 2,
      "byteOffset": 888,
      "componentType": 5126,
      "count": 588,
      "max": [
        -0.8115220069885254,
        -0.006553140003234148,
        0.035934798419475555
      ],
      "min": [
        -0.9371809959411621,
        -0.07125139981508255,
        -0.029761599376797676
      ],
      "type": "VEC3"
    },
    {
      "bufferView": 2,
      "byteOffset": 7944,
      "componentType": 5126,
      "count": 588,
      "max": [
        0.4874472916126251,
        0.9848077893257141,
        1.0
      ],
      "min": [
        -1.0,
        -0.9848077893257141,
        -1.0
      ],
      "type": "VEC3"
    },
    {
      "bufferView": 3,
      "byteOffset": 592,
      "componentType": 5126,
      "count": 588,
      "max": [
        0.5957329869270325,
        0.9696660041809082,
        0.7389460206031799,
        1.0
      ],
      "min": [
        -1.0,
        -0.5047299861907959,
        -0.4874210059642792,
        1.0
      ],
      "type": "VEC4"
    },
    {
      "bufferView": 1,
      "byteOffset": 296,
      "componentType": 5126,
      "count": 588,
      "max": [
        0.7361459732055664,
        0.9980000257492065
      ],
      "min": [
        0.0020000000949949026,
        0.0020000000949949026
      ],
      "type": "VEC2"
    },
    {
      "bufferView": 0,
      "byteOffset": 648,
      "componentType": 5125,
      "count": 1728,
      "type": "SCALAR"
    },
    {
      "bufferView": 2,
      "byteOffset": 15000,
      "componentType": 5126,
      "count": 37,
      "max": [
        -0.8882120251655579,
        -0.02272769995033741,
        0.09858659654855728
      ],
      "min": [
        -0.8963209986686707,
        -0.055076900869607925,
        0.06573840230703354
      ],
      "type": "VEC3"
    },
    {
      "bufferView": 2,
      "byteOffset": 15444,
      "componentType": 5126,
      "count": 37,
      "max": [
        -0.3918857276439667,
        0.9060368537902832,
        0.9200137853622437
      ],
      "min": [
        -1.0,
        -0.9060367345809937,
        -0.9200137853622437
      ],
      "type": "VEC3"
    },
    {
      "bufferView": 3,
      "byteOffset": 10000,
      "componentType": 5126,
      "count": 37,
      "max": [
        0.9193829894065857,
        0.8838269710540771,
        0.6054580211639404,
        1.0
      ],
      "min": [
        -0.9193729758262634,
        0.33314600586891174,
        0.08958490192890167,
        1.0
      ],
      "type": "VEC4"
    },
    {
      "bufferView": 1,
      "byteOffset": 5000,
      "componentType": 5126,
      "count": 37,
      "max": [
        0.6760849952697754,
        0.9386429786682129
      ],
      "min": [
        0.529151976108551,
        0.793300986289978
      ],
      "type": "VEC2"
    },
    {
      "bufferView": 0,
      "byteOffset": 7560,
      "componentType": 5125,
      "count": 162,
      "type": "SCALAR"
    },
    {
      "bufferView": 2,
      "byteOffset": 15888,
      "componentType": 5126,
      "count": 588,
      "max": [
        -0.7706630229949951,
        -0.006553140003234148,
        0.11501099914312363
      ],
      "min": [
        -0.8963209986686707,
        -0.07125139981508255,
        0.04931430146098137
      ],
      "type": "VEC3"
    },
    {
      "bufferView": 2,
      "byteOffset": 22944,
      "componentType": 5126,
      "count": 588,
      "max": [
        0.4874472916126251,
        0.9848077893257141,
        1.0
      ],
      "min": [
        -1.0,
        -0.9848077893257141,
        -1.0
      ],
      "type": "VEC3"
    },
    {
      "bufferView": 3,
      "byteOffset": 10592,
      "componentType": 5126,
      "count": 588,
      "max": [
        0.5957329869270325,
        0.9696660041809082,
        0.7389450073242188,
        1.0
      ],
      "min": [
        -1.0,
        -0.5047299861907959,
        -0.4874210059642792,
        1.0
      ],
      "type": "VEC4"
    },
    {
      "bufferView": 1,
      "byteOffset": 5296,
      "componentType": 5126,
      "count": 588,
      "max": [
        0.7361459732055664,
        0.9980000257492065
      ],
      "min": [
        0.0020000000949949026,
        0.0020000000949949026
      ],
      "type": "VEC2"
    },
    {
      "bufferView": 0,
      "byteOffset": 8208,
      "componentType": 5125,
      "count": 1728,
      "type": "SCALAR"
    },
    {
      "bufferView": 2,
      "byteOffset": 30000,
      "componentType": 5126,
      "count": 182,
      "max": [
        0.9612969756126404,
        -0.03819340094923973,
        0.15391500294208527
      ],
      "min": [
        -0.8341180086135864,
        -0.08138199895620346,
        -0.15012000501155853
      ],
      "type": "VEC3"
    },
    {
      "bufferView": 2,
      "byteOffset": 32184,
      "componentType": 5126,
      "count": 182,
      "max": [
        1.0,
        1.0,
        1.0
      ],
      "min": [
        -1.0,
        -1.0,
        -1.0
      ],
      "type": "VEC3"
    },
    {
      "bufferView": 3,
      "byteOffset": 20000,
      "componentType": 5126,
      "count": 182,
      "max": [
        0.4504750072956085,
        0.9998250007629395,
        0.9999939799308777,
        1.0
      ],
      "min": [
        -0.5552189946174622,
        -0.9999989867210388,
        -0.999692976474762,
        1.0
      ],
      "type": "VEC4"
    },
    {
      "bufferView": 1,
      "byteOffset": 10000,
      "componentType": 5126,
      "count": 182,
      "max": [
        0.3676550090312958,
        0.9980000257492065
      ],
      "min": [
        0.0020000000949949026,
        0.0020000000949949026
      ],
      "type": "VEC2"
    },
    {
      "bufferView": 0,
      "byteOffset": 15120,
      "componentType": 5125,
      "count": 372,
      "type": "SCALAR"
    },
    {
      "bufferView": 2,
      "byteOffset": 34368,
      "componentType": 5126,
      "count": 650,
      "max": [
        1.0,
        -0.05456190183758736,
        0.25336799025535583
      ],
      "min": [
        -1.0,
        -0.09067939966917038,
        -0.25336799025535583
      ],
      "type": "VEC3"
    },
    {
      "bufferView": 2,
      "byteOffset": 42168,
      "componentType": 5126,
      "count": 650,
      "max": [
        1.0,
        1.0,
        1.0
      ],
      "min": [
        -1.0,
        -1.0,
        -1.0
      ],
      "type": "VEC3"
    },
    {
      "bufferView": 3,
      "byteOffset": 22912,
      "componentType": 5126,
      "count": 650,
      "max": [
        0.9898509979248047,
        0.998386025428772,
        1.0,
        1.0
      ],
      "min": [
        -0.9851940274238586,
        -0.9963600039482117,
        -0.9999930262565613,
        -1.0
      ],
      "type": "VEC4"
    },
    {
      "bufferView": 1,
      "byteOffset": 11456,
      "componentType": 5126,
      "count": 650,
      "max": [
        0.9955160021781921,
        0.9980000257492065
      ],
      "min": [
        0.0020000000949949026,
        0.0020000000949949026
      ],
      "type": "VEC2"
    },
    {
      "bufferView": 0,
      "byteOffset": 16608,
      "componentType": 5125,
      "count": 1284,
      "type": "SCALAR"
    },
    {
      "bufferView": 2,
      "byteOffset": 49968,
      "componentType": 5126,
      "count": 360,
      "max": [
        0.3605650067329407,
        -0.044020701199769974,
        0.20674900710582733
      ],
      "min": [
        -0.37504300475120544,
        -0.0927966982126236,
        -0.2035840004682541
      ],
      "type": "VEC3"
    },
    {
      "bufferView": 2,
      "byteOffset": 54288,
      "componentType": 5126,
      "count": 360,
      "max": [
        1.0,
        1.0,
        0.9655202627182007
      ],
      "min": [
        -1.0,
        -1.0,
        -0.9655202627182007
      ],
      "type": "VEC3"
    },
    {
      "bufferView": 3,
      "byteOffset": 33312,
      "componentType": 5126,
      "count": 360,
      "max": [
        0.5505779981613159,
        0.9596670269966125,
        1.0,
        1.0
      ],
      "min": [
        -0.4702019989490509,
        -0.9665939807891846,
        -0.9999719858169556,
        -1.0
      ],
      "type": "VEC4"
    },
    {
      "bufferView": 1,
      "byteOffset": 16656,
      "componentType": 5126,
      "count": 360,
      "max": [
        0.9980000257492065,
        0.9130370020866394
      ],
      "min": [
        0.0020000000949949026,
        0.0020000000949949026
      ],
      "type": "VEC2"
    },
    {
      "bufferView": 0,
      "byteOffset": 21744,
      "componentType": 5125,
      "count": 564,
      "type": "SCALAR"
    },
    {
      "bufferView": 2,
      "byteOffset": 58608,
      "componentType": 5126,
      "count": 37,
      "max": [
        -0.8882120251655579,
        -0.02272769995033741,
        -0.06157299876213074
      ],
      "min": [
        -0.8963209986686707,
        -0.055076900869607925,
        -0.09442120045423508
      ],
      "type": "VEC3"
    },
    {
      "bufferView": 2,
      "byteOffset": 59052,
      "componentType": 5126,
      "count": 37,
      "max": [
        -0.3918857276439667,
        0.9060368537902832,
        0.9200137853622437
      ],
      "min": [
        -1.0,
        -0.9060367345809937,
        -0.9200137853622437
      ],
      "type": "VEC3"
    },
    {
      "bufferView": 3,
      "byteOffset": 39072,
      "componentType": 5126,
      "count": 37,
      "max": [
        0.9193829894065857,
        0.8838260173797607,
        0.6054580211639404,
        1.0
      ],
      "min": [
        -0.9193729758262634,
        0.33314600586891174,
        0.08958490192890167,
        1.0
      ],
      "type": "VEC4"
    },
    {
      "bufferView": 1,
      "byteOffset": 19536,
      "componentType": 5126,
      "count": 37,
      "max": [
        0.6760849952697754,
        0.9386429786682129
      ],
      "min": [
        0.529151976108551,
        0.793300986289978
      ],
      "type": "VEC2"
    },
    {
      "bufferView": 0,
      "byteOffset": 24000,
      "componentType": 5125,
      "count": 162,
      "type": "SCALAR"
    },
    {
      "bufferView": 2,
      "byteOffset": 59496,
      "componentType": 5126,
      "count": 588,
      "max": [
        -0.7706630229949951,
        -0.006553140003234148,
        -0.045148901641368866
      ],
      "min": [
        -0.8963209986686707,
        -0.07125139981508255,
        -0.11084499955177307
      ],
      "type": "VEC3"
    },
    {
      "bufferView": 2,
      "byteOffset": 66552,
      "componentType": 5126,
      "count": 588,
      "max": [
        0.4874472916126251,
        0.9848077893257141,
        1.0
      ],
      "min": [
        -1.0,
        -0.9848077893257141,
        -1.0
      ],
      "type": "VEC3"
    },
    {
      "bufferView": 3,
      "byteOffset": 39664,
      "componentType": 5126,
      "count": 588,
      "max": [
        0.5957329869270325,
        0.969668984413147,
        0.7389370203018188,
        1.0
      ],
      "min": [
        -1.0,
        -0.5047309994697571,
        -0.4874210059642792,
        1.0
      ],
      "type": "VEC4"
    },
    {
      "bufferView": 1,
      "byteOffset": 19832,
      "componentType": 5126,
      "count": 588,
      "max": [
        0.7361459732055664,
        0.9980000257492065
      ],
      "min": [
        0.0020000000949949026,
        0.0020000000949949026
      ],
      "type": "VEC2"
    },
    {
      "bufferView": 0,
      "byteOffset": 24648,
      "componentType": 5125,
      "count": 1728,
      "type": "SCALAR"
    },
    {
      "bufferView": 2,
      "byteOffset": 73608,
      "componentType": 5126,
      "count": 292,
      "max": [
        -0.3204059898853302,
        0.0927966982126236,
        0.05458119884133339
      ],
      "min": [
        -0.5607159733772278,
        0.0370820015668869,
        -0.05476899817585945
      ],
      "type": "VEC3"
    },
    {
      "bufferView": 2,
      "byteOffset": 77112,
      "componentType": 5126,
      "count": 292,
      "max": [
        0.9602405428886414,
        1.0,
        1.0
      ],
      "min": [
        -1.0,
        -0.9999457597732544,
        -1.0
      ],
      "type": "VEC3"
    },
    {
      "bufferView": 3,
      "byteOffset": 49072,
      "componentType": 5126,
      "count": 292,
      "max": [
        0.9999669790267944,
        0.43684500455856323,
        0.9999229907989502,
        1.0
      ],
      "min": [
        -0.9996330142021179,
        -0.43995800614356995,
        -0.9988200068473816,
        1.0
      ],
      "type": "VEC4"
    },
    {
      "bufferView": 1,
      "byteOffset": 24536,
      "componentType": 5126,
      "count": 292,
      "max": [
        0.9980000257492065,
        0.9656710028648376
      ],
      "min": [
        0.0020000000949949026,
        0.0020000000949949026
      ],
      "type": "VEC2"
    },
    {
      "bufferView": 0,
      "byteOffset": 31560,
      "componentType": 5125,
      "count": 672,
      "type": "SCALAR"
    },
    {
      "bufferView": 2,
      "byteOffset": 80616,
      "componentType": 5126,
      "count": 360,
      "max": [
        0.3605650067329407,
        0.037209298461675644,
        0.20674900710582733
      ],
      "min": [
        -0.37504300475120544,
        -0.01156659983098507,
        -0.2035840004682541
      ],
      "type": "VEC3"
    },
    {
      "bufferView": 2,
      "byteOffset": 84936,
      "componentType": 5126,
      "count": 360,
      "max": [
        1.0,
        1.0,
        0.9655202627182007
      ],
      "min": [
        -1.0,
        -1.0,
        -0.9655202627182007
      ],
      "type": "VEC3"
    },
    {
      "bufferView": 3,
      "byteOffset": 53744,
      "componentType": 5126,
      "count": 360,
      "max": [
        0.5505779981613159,
        0.9665939807891846,
        0.9999719858169556,
        1.0
      ],
      "min": [
        -0.4702019989490509,
        -0.9596670269966125,
        -1.0,
        -1.0
      ],
      "type": "VEC4"
    },
    {
      "bufferView": 1,
      "byteOffset": 26872,
      "componentType": 5126,
      "count": 360,
      "max": [
        0.9980000257492065,
        0.9130370020866394
      ],
      "min": [
        0.0020000000949949026,
        0.0020000000949949026
      ],
      "type": "VEC2"
    },
    {
      "bufferView": 0,
      "byteOffset": 34248,
      "componentType": 5125,
      "count": 564,
      "type": "SCALAR"
    },
    {
      "bufferView": 2,
      "byteOffset": 89256,
      "componentType": 5126,
      "count": 378,
      "max": [
        0.9798930287361145,
        0.04118549823760986,
        0.17285500466823578
      ],
      "min": [
        -0.8365110158920288,
        0.005068019963800907,
        -0.17285500466823578
      ],
      "type": "VEC3"
    },
    {
      "bufferView": 2,
      "byteOffset": 93792,
      "componentType": 5126,
      "count": 378,
      "max": [
        1.0,
        1.0,
        1.0
      ],
      "min": [
        -1.0,
        -1.0,
        -1.0
      ],
      "type": "VEC3"
    },
    {
      "bufferView": 3,
      "byteOffset": 59504,
      "componentType": 5126,
      "count": 378,
      "max": [
        0.9838020205497742,
        0.9998189806938171,
        0.9999970197677612,
        1.0
      ],
      "min": [
        -0.9844920039176941,
        -0.9973059892654419,
        -1.0,
        1.0
      ],
      "type": "VEC4"
    },
    {
      "bufferView": 1,
      "byteOffset": 29752,
      "componentType": 5126,
      "count": 378,
      "max": [
        0.9549490213394165,
        0.9980000257492065
      ],
      "min": [
        0.0020000000949949026,
        0.0020000000949949026
      ],
      "type": "VEC2"
    },
    {
      "bufferView": 0,
      "byteOffset": 36504,
      "componentType": 5125,
      "count": 612,
      "type": "SCALAR"
    },
    {
      "bufferView": 2,
      "byteOffset": 98328,
      "componentType": 5126,
      "count": 182,
      "max": [
        0.9612969756126404,
        0.002810470061376691,
        0.15391500294208527
      ],
      "min": [
        -0.8341180086135864,
        -0.04037810117006302,
        -0.15012000501155853
      ],
      "type": "VEC3"
    },
    {
      "bufferView": 2,
      "byteOffset": 100512,
      "componentType": 5126,
      "count": 182,
      "max": [
        1.0,
        1.0,
        1.0
      ],
      "min": [
        -1.0,
        -1.0,
        -1.0
      ],
      "type": "VEC3"
    },
    {
      "bufferView": 3,
      "byteOffset": 65552,
      "componentType": 5126,
      "count": 182,
      "max": [
        0.4504750072956085,
        0.9999989867210388,
        0.999692976474762,
        1.0
      ],
      "min": [
        -0.5552189946174622,
        -0.9998250007629395,
        -0.9999939799308777,
        1.0
      ],
      "type": "VEC4"
    },
    {
      "bufferView": 1,
      "byteOffset": 32776,
      "componentType": 5126,
      "count": 182,
      "max": [
        0.3676550090312958,
        0.9980000257492065
      ],
      "min": [
        0.0020000000949949026,
        0.0020000000949949026
      ],
      "type": "VEC2"
    },
    {
      "bufferView": 0,
      "byteOffset": 38952,
      "componentType": 5125,
      "count": 372,
      "type": "SCALAR"
    },
    {
      "bufferView": 2,
      "byteOffset": 102696,
      "componentType": 5126,
      "count": 652,
      "max": [
        1.0,
        0.023777199909090996,
        0.25336799025535583
      ],
      "min": [
        -1.0,
        -0.012340299785137177,
        -0.25336799025535583
      ],
      "type": "VEC3"
    },
    {
      "bufferView": 2,
      "byteOffset": 110520,
      "componentType": 5126,
      "count": 652,
      "max": [
        1.0,
        1.0,
        1.0
      ],
      "min": [
        -1.0,
        -1.0,
        -1.0
      ],
      "type": "VEC3"
    },
    {
      "bufferView": 3,
      "byteOffset": 68464,
      "componentType": 5126,
      "count": 652,
      "max": [
        0.9898509979248047,
        0.9963600039482117,
        0.9999930262565613,
        1.0
      ],
      "min": [
        -0.9851940274238586,
        -0.998386025428772,
        -1.0,
        -1.0
      ],
      "type": "VEC4"
    },
    {
      "bufferView": 1,
      "byteOffset": 34232,
      "componentType": 5126,
      "count": 652,
      "max": [
        0.9955160021781921,
        0.9980000257492065
      ],
      "min": [
        0.0020000000949949026,
        0.0020000000949949026
      ],
      "type": "VEC2"
    },
    {
      "bufferView": 0,
      "byteOffset": 40440,
      "componentType": 5125,
      "count": 1284,
      "type": "SCALAR"
    },
    {
      "bufferView": 2,
      "byteOffset": 118344,
      "componentType": 5126,
      "count": 176,
      "max": [
        0.37711599469184875,
        0.047764599323272705,
        0.09171920269727707
      ],
      "min": [
        -0.8905249834060669,
        0.03225250169634819,
        -0.09264110028743744
      ],
      "type": "VEC3"
    },
    {
      "bufferView": 2,
      "byteOffset": 120456,
      "componentType": 5126,
      "count": 176,
      "max": [
        1.0,
        1.0,
        1.0
      ],
      "min": [
        -1.0,
        -1.0,
        -1.0
      ],
      "type": "VEC3"
    },
    {
      "bufferView": 3,
      "byteOffset": 78896,
      "componentType": 5126,
      "count": 176,
      "max": [
        0.9708449840545654,
        0.7709519863128662,
        0.9999570250511169,
        1.0
      ],
      "min": [
        -0.9694380164146423,
        -0.9700019955635071,
        -0.9963690042495728,
        1.0
      ],
      "type": "VEC4"
    },
    {
      "bufferView": 1,
      "byteOffset": 39448,
      "componentType": 5126,
      "count": 176,
      "max": [
        0.5095080137252808,
        0.9980000257492065
      ],
      "min": [
        0.0020000000949949026,
        0.0020000000949949026
      ],
      "type": "VEC2"
    },
    {
      "bufferView": 0,
      "byteOffset": 45576,
      "componentType": 5125,
      "count": 276,
      "type": "SCALAR"
    }
  ],
  "asset": {
    "extras": {
      "author": "Anthony Schmidt (https://sketchfab.com/risto296)",
      "license": "CC-BY-NC-4.0 (http://creativecommons.org/licenses/by-nc/4.0/)",
      "source": "https://sketchfab.com/3d-models/imperial-cruiser-1-6f599602a94940828a814b16be8d757d",
      "title": "Imperial cruiser #1"
    },
    "generator": "Sketchfab-12.66.0",
    "version": "2.0"
  },
  "bufferViews": [
    {
      "buffer": 0,
      "byteLength": 46680,
      "name": "floatBufferViews",
      "target": 34963
    },
    {
      "buffer": 0,
      "byteLength": 40856,
      "byteOffset": 46680,
      "byteStride": 8,
      "name": "floatBufferViews",
      "target": 34962
    },
    {
      "buffer": 0,
      "byteLength": 122568,
      "byteOffset": 87536,
      "byteStride": 12,
      "name": "floatBufferViews",
      "target": 34962
    },
    {
      "buffer": 0,
      "byteLength": 81712,
      "byteOffset": 210104,
      "byteStride": 16,
      "name": "floatBufferViews",
      "target": 34962
    }
  ],
  "buffers": [
    {
      "byteLength": 291816,
      "uri": "scene.bin"
    }
  ],
  "images": [
    {
      "uri": "textures/Body1_baseColor.jpeg"
    },
    {
      "uri": "textures/Body1_metallicRoughness.png"
    },
    {
      "uri": "textures/Body1_normal.jpeg"
    },
    {
      "uri": "textures/Body2_baseColor.jpeg"
    },
    {
      "uri": "textures/Body2_metallicRoughness.png"
    },
    {
      "uri": "textures/Body2_normal.jpeg"
    },
    {
      "uri": "textures/Body3_baseColor.jpeg"
    },
    {
      "uri": "textures/Body3_metallicRoughness.png"
    },
    {
      "uri": "textures/Body3_emissive.jpeg"
    },
    {
      "uri": "textures/Body3_normal.jpeg"
    },
    {
      "uri": "textures/Body4_baseColor.jpeg"
    },
    {
      "uri": "textures/Body4_metallicRoughness.png"
    },
    {
      "uri": "textures/Body4_normal.jpeg"
    },
    {
      "uri": "textures/Body_bend_baseColor.jpeg"
    },
    {
      "uri": "textures/Body_bend_metallicRoughness.png"
    },
    {
      "uri": "textures/Body_bend_normal.jpeg"
    },
    {
      "uri": "textures/Cockpit_baseColor.jpeg"
    },
    {
      "uri": "textures/Cockpit_metallicRoughness.png"
    },
    {
      "uri": "textures/Cockpit_emissive.jpeg"
    },
    {
      "uri": "textures/Cockpit_normal.jpeg"
    },
    {
      "uri": "textures/Engine_baseColor.jpeg"
    },
    {
      "uri": "textures/Engine_metallicRoughness.png"
    },
    {
      "uri": "textures/Engine_normal.jpeg"
    },
    {
      "uri": "textures/Glow_baseColor.jpeg"
    },
    {
      "uri": "textures/Glow_metallicRoughness.png"
    },
    {
      "uri": "textures/Glow_emissive.jpeg"
    },
    {
      "uri": "textures/Glow_normal.jpeg"
    }
  ],
  "materials": [
    {
      "doubleSided": true,
      "name": "Body1",
      "normalTexture": {
        "index": 2
      },
      "occlusionTexture": {
        "index": 1
      },
      "pbrMetallicRoughness": {
        "baseColorTexture": {
          "index": 0
        },
        "metallicRoughnessTexture": {
          "index": 1
        }
      }
    },
    {
      "doubleSided": true,
      "name": "Body2",
      "normalTexture": {
        "index": 5
      },
      "occlusionTexture": {
        "index": 4
      },
      "pbrMetallicRoughness": {
        "baseColorTexture": {
          "index": 3
        },
        "metallicRoughnessTexture": {
          "index": 4
        }
      }
    },
    {
      "doubleSided": true,
      "emissiveFactor": [
        1.0,
        1.0,
        1.0
      ],
      "emissiveTexture": {
        "index": 8
      },
      "name": "Body3",
      "normalTexture": {
        "index": 9
      },
      "occlusionTexture": {
        "index": 7
      },
      "pbrMetallicRoughness": {
        "baseColorTexture": {
          "index": 6
        },
        "metallicRoughnessTexture": {
          "index": 7
        }
      }
    },
    {
      "doubleSided": true,
      "name": "Body4",
      "normalTexture": {
        "index": 12
      },
      "occlusionTexture": {
        "index": 11
      },
      "pbrMetallicRoughness": {
        "baseColorTexture": {
          "index": 10
        },
        "metallicRoughnessTexture": {
          "index": 11
        }
      }
    },
    {
      "doubleSided": true,
      "name": "Body_bend",
      "normalTexture": {
        "index": 15
      },
      "occlusionTexture": {
        "index": 14
      },
      "pbrMetallicRoughness": {
        "baseColorTexture": {
          "index": 13
        },
        "metallicRoughnessTexture": {
          "index": 14
        }
      }
    },
    {
      "doubleSided": true,
      "emissiveFactor": [
        1.0,
        1.0,
        1.0
      ],
      "emissiveTexture": {
        "index": 18
      },
      "name": "Cockpit",
      "normalTexture": {
        "index": 19
      },
      "occlusionTexture": {
        "index": 17
      },
      "pbrMetallicRoughness": {
        "baseColorTexture": {
          "index": 16
        },
        "metallicRoughnessTexture": {
          "index": 17
        }
      }
    },
    {
      "doubleSided": true,
      "name": "Engine",
      "normalTexture": {
        "index": 22
      },
      "occlusionTexture": {
        "index": 21
      },
      "pbrMetallicRoughness": {
        "baseColorTexture": {
          "index": 20
        },
        "metallicRoughnessTexture": {
          "index": 21
        }
      }
    },
    {
      "doubleSided": true,
      "emissiveFactor": [
        1.0,
        1.0,
        1.0
      ],
      "emissiveTexture": {
        "index": 25
      },
      "name": "Glow",
      "normalTexture": {
        "index": 26
      },
      "occlusionTexture": {
        "index": 24
      },
      "pbrMetallicRoughness": {
        "baseColorTexture": {
          "index": 23
        },
        "metallicRoughnessTexture": {
          "index": 24
        }
      }
    }
  ],
  "meshes": [
    {
      "name": "defaultMaterial",
      "primitives": [
        {
          "attributes": {
            "NORMAL": 1,
            "POSITION": 0,
            "TANGENT": 2,
            "TEXCOORD_0": 3
          },
          "indices": 4,
          "material": 7,
          "mode": 4
        }
      ]
    },
    {
      "name": "defaultMaterial",
      "primitives": [
        {
          "attributes": {
            "NORMAL": 6,
            "POSITION": 5,
            "TANGENT": 7,
            "TEXCOORD_0": 8
          },
          "indices": 9,
          "material": 6,
          "mode": 4
        }
      ]
    },
    {
      "name": "defaultMaterial",
      "primitives": [
        {
          "attributes": {
            "NORMAL": 11,
            "POSITION": 10,
            "TANGENT": 12,
            "TEXCOORD_0": 13
          },
          "indices": 14,
          "material": 7,
          "mode": 4
        }
      ]
    },
    {
      "name": "defaultMaterial",
      "primitives": [
        {
          "attributes": {
            "NORMAL": 16,
            "POSITION": 15,
            "TANGENT": 17,
            "TEXCOORD_0": 18
          },
          "indices": 19,
          "material": 6,
          "mode": 4
        }
      ]
    },
    {
      "name": "defaultMaterial",
      "primitives": [
        {
          "attributes": {
            "NORMAL": 21,
            "POSITION": 20,
            "TANGENT": 22,
            "TEXCOORD_0": 23
          },
          "indices": 24,
          "material": 2,
          "mode": 4
        }
      ]
    },
    {
      "name": "defaultMaterial",
      "primitives": [
        {
          "attributes": {
            "NORMAL": 26,
            "POSITION": 25,
            "TANGENT": 27,
            "TEXCOORD_0": 28
          },
          "indices": 29,
          "material": 1,
          "mode": 4
        }
      ]
    },
    {
      "name": "defaultMaterial",
      "primitives": [
        {
          "attributes": {
            "NORMAL": 31,
            "POSITION": 30,
            "TANGENT": 32,
            "TEXCOORD_0": 33
          },
          "indices": 34,
          "material": 4,
          "mode": 4
        }
      ]
    },
    {
      "name": "defaultMaterial",
      "primitives": [
        {
          "attributes": {
            "NORMAL": 36,
            "POSITION": 35,
            "TANGENT": 37,
            "TEXCOORD_0": 38
          },
          "indices": 39,
          "material": 7,
          "mode": 4
        }
      ]
    },
    {
      "name": "defaultMaterial",
      "primitives": [
        {
          "attributes": {
            "NORMAL": 41,
            "POSITION": 40,
            "TANGENT": 42,
            "TEXCOORD_0": 43
          },
          "indices": 44,
          "material": 6,
          "mode": 4
        }
      ]
    },
    {
      "name": "defaultMaterial",
      "primitives": [
        {
          "attributes": {
            "NORMAL": 46,
            "POSITION": 45,
            "TANGENT": 47,
            "TEXCOORD_0": 48
          },
          "indices": 49,
          "material": 5,
          "mode": 4
        }
      ]
    },
    {
      "name": "defaultMaterial",
      "primitives": [
        {
          "attributes": {
            "NORMAL": 51,
            "POSITION": 50,
            "TANGENT": 52,
            "TEXCOORD_0": 53
          },
          "indices": 54,
          "material": 4,
          "mode": 4
        }
      ]
    },
    {
      "name": "defaultMaterial",
      "primitives": [
        {
          "attributes": {
            "NORMAL": 56,
            "POSITION": 55,
            "TANGENT": 57,
            "TEXCOORD_0": 58
          },
          "indices": 59,
          "material": 3,
          "mode": 4
        }
      ]
    },
    {
      "name": "defaultMaterial",
      "primitives": [
        {
          "attributes": {
            "NORMAL": 61,
            "POSITION": 60,
            "TANGENT": 62,
            "TEXCOORD_0": 63
          },
          "indices": 64,
          "material": 2,
          "mode": 4
        }
      ]
    },
    {
      "name": "defaultMaterial",
      "primitives": [
        {
          "attributes": {
            "NORMAL": 66,
            "POSITION": 65,
            "TANGENT": 67,
            "TEXCOORD_0": 68
          },
          "indices": 69,
          "material": 1,
          "mode": 4
        }
      ]
    },
    {
      "name": "defaultMaterial",
      "primitives": [
        {
          "attributes": {
            "NORMAL": 71,
            "POSITION": 70,
            "TANGENT": 72,
            "TEXCOORD_0": 73
          },
          "indices": 74,
          "material": 0,
          "mode": 4
        }
      ]
    }
  ],
  "nodes": [
    {
      "children": [
        1
      ],
      "matrix": [
        1.0,
        0.0,
        0.0,
        0.0,
        0.0,
        2.220446049250313e-16,
        -1.0,
        0.0,
        0.0,
        1.0,
        2.220446049250313e-16,
        0.0,
        0.0,
        0.0,
        0.0,
        1.0
      ],
      "name": "Sketchfab_model"
    },
    {
      "children": [
        2,
        4,
        6,
        8,
        10,
        12,
        14,
        16,
        18,
        20,
        22,
        24,
        26,
        28,
        30
      ],
      "matrix": [
        1.0,
        0.0,
        0.0,
        0.0,
        0.0,
        -4.371139006309477e-08,
        0.999999999999999,
        0.0,
        0.0,
        -0.999999999999999,
        -4.371139006309477e-08,
        0.0,
        0.0,
        0.0,
        0.0,
        1.0
      ],
      "name": "Collada visual scene group"
    },
    {
      "children": [
        3
      ],
      "name": "Engine002"
    },
    {
      "mesh": 0,
      "name": "defaultMaterial"
    },
    {
      "children": [
        5
      ],
      "name": "Engine002"
    },
    {
      "mesh": 1,
      "name": "defaultMaterial"
    },
    {
      "children": [
        7
      ],
      "name": "Engine001"
    },
    {
      "mesh": 2,
      "name": "defaultMaterial"
    },
    {
      "children": [
        9
      ],
      "name": "Engine001"
    },
    {
      "mesh": 3,
      "name": "defaultMaterial"
    },
    {
      "children": [
        11
      ],
      "name": "Body010"
    },
    {
      "mesh": 4,
      "name": "defaultMaterial"
    },
    {
      "children": [
        13
      ],
      "name": "Body009"
    },
    {
      "mesh": 5,
      "name": "defaultMaterial"
    },
    {
      "children": [
        15
      ],
      "name": "Body_bend001"
    },
    {
      "mesh": 6,
      "name": "defaultMaterial"
    },
    {
      "children": [
        17
      ],
      "name": "Engine"
    },
    {
      "mesh": 7,
      "name": "defaultMaterial"
    },
    {
      "children": [
        19
      ],
      "name": "Engine"
    },
    {
      "mesh": 8,
      "name": "defaultMaterial"
    },
    {
      "children": [
        21
      ],
      "name": "Box001"
    },
    {
      "mesh": 9,
      "name": "defaultMaterial"
    },
    {
      "children": [
        23
      ],
      "name": "Body_bend"
    },
    {
      "mesh": 10,
      "name": "defaultMaterial"
    },
    {
      "children": [
        25
      ],
      "name": "Body004"
    },
    {
      "mesh": 11,
      "name": "defaultMaterial"
    },
    {
      "children": [
        27
      ],
      "name": "Body003"
    },
    {
      "mesh": 12,
      "name": "defaultMaterial"
    },
    {
      "children": [
        29
      ],
      "name": "Body002"
    },
    {
      "mesh": 13,
      "name": "defaultMaterial"
    },
    {
      "children": [
        31
      ],
      "name": "Body001"
    },
    {
      "mesh": 14,
      "name": "defaultMaterial"
    }
  ],
  "samplers": [
    {
      "magFilter": 9729,
      "minFilter": 9987,
      "wrapS": 10497,
      "wrapT": 10497
    }
  ],
  "scene": 0,
  "scenes": [
    {
      "name": "Sketchfab_Scene",
      "nodes": [
        0
      ]
    }
  ],
  "textures": [
    {
      "sampler": 0,
      "source": 0
    },
    {
      "sampler": 0,
      "source": 1
    },
    {
      "sampler": 0,
      "source": 2
    },
    {
      "sampler": 0,
      "source": 3
    },
    {
      "sampler": 0,
      "source": 4
    },
    {
      "sampler": 0,
      "source": 5
    },
    {
      "sampler": 0,
      "source": 6
    },
    {
      "sampler": 0,
      "source": 7
    },
    {
      "sampler": 0,
      "source": 8
    },
    {
      "sampler": 0,
      "source": 9
    },
    {
      "sampler": 0,
      "source": 10
    },
    {
      "sampler": 0,
      "source": 11
    },
    {
      "sampler": 0,
      "source": 12
    },
    {
      "sampler": 0,
      "source": 13
    },
    {
      "sampler": 0,
      "source": 14
    },
    {
      "sampler": 0,
      "source": 15
    },
    {
      "sampler": 0,
      "source": 16
    },
    {
      "sampler": 0,
      "source": 17
    },
    {
      "sampler": 0,
      "source": 18
    },
    {
      "sampler": 0,
      "source": 19
    },
    {
      "sampler": 0,
      "source": 20
    },
    {
      "sampler": 0,
      "source": 21
    },
    {
      "sampler": 0,
      "source": 22
    },
    {
      "sampler": 0,
      "source": 23
    },
    {
      "sampler": 0,
      "source": 24
    },
    {
      "sampler": 0,
      "source": 25
    },
    {
      "sampler": 0,
      "source": 26
    }
  ]
}
