{
  "accessors": [
    {
      "bufferView": 2,
      "componentType": 5126,
      "count": 65532,
      "max": [
        1.4216699600219727,
        5.767271995544434,
        3.501199960708618
      ],
      "min": [
        -1.432379961013794,
        -5.777400493621826,
        0.00013000000035390258
      ],
      "type": "VEC3"
    },
    {
      "bufferView": 2,
      "byteOffset": 786384,
      "componentType": 5126,
      "count": 65532,
      "max": [
        1.0,
        0.9999997019767761,
        0.9999998211860657
      ],
      "min": [
        -0.9999999403953552,
        -0.9999997615814209,
        -1.0
      ],
      "type": "VEC3"
    },
    {
      "bufferView": 1,
      "componentType": 5126,
      "count": 65532,
      "max": [
        0.9967439770698547,
        0.9996370077133179
      ],
      "min": [
        0.00036199999158270657,
        0.0018129900563508272
      ],
      "type": "VEC2"
    },
    {
      "bufferView": 0,
      "componentType": 5125,
      "count": 315699,
      "type": "SCALAR"
    },
    {
      "bufferView": 2,
      "byteOffset": 1572768,
      "componentType": 5126,
      "count": 65532,
      "max": [
        1.4443600177764893,
        5.7683634757995605,
        3.5744900703430176
      ],
      "min": [
        -1.4165699481964111,
        -5.768589973449707,
        0.001449999981559813
      ],
      "type": "VEC3"
    },
    {
      "bufferView": 2,
      "byteOffset": 2359152,
      "componentType": 5126,
      "count": 65532,
      "max": [
        0.9999999403953552,
        0.9999997615814209,
        1.0
      ],
      "min": [
        -1.0,
        -0.9999997615814209,
        -1.0
      ],
      "type": "VEC3"
    },
    {
      "bufferView": 1,
      "byteOffset": 524256,
      "componentType": 5126,
      "count": 65532,
      "max": [
        0.9938499927520752,
        0.9961209893226624
      ],
      "min": [
        0.0026140001136809587,
        0.006169924512505531
      ],
      "type": "VEC2"
    },
    {
      "bufferView": 0,
      "byteOffset": 1262796,
      "componentType": 5125,
      "count": 311115,
      "type": "SCALAR"
    },
    {
      "bufferView": 2,
      "byteOffset": 3145536,
      "componentType": 5126,
      "count": 65532,
      "max": [
        1.437059998512268,
        5.7605299949646,
        3.574270009994507
      ],
      "min": [
        -1.4461702108383179,
        -5.759570121765137,
        7.18355986703e-18
      ],
      "type": "VEC3"
    },
    {
      "bufferView": 2,
      "byteOffset": 3931920,
      "componentType": 5126,
      "count": 65532,
      "max": [
        1.0,
        0.9999996423721313,
        1.0
      ],
      "min": [
        -1.0,
        -0.9999878406524658,
        -0.9999997019767761
      ],
      "type": "VEC3"
    },
    {
      "bufferView": 1,
      "byteOffset": 1048512,
      "componentType": 5126,
      "count": 65532,
      "max": [
        0.999638020992279,
        0.9996370077133179
      ],
      "min": [
        0.00036199999158270657,
        0.00036299199564382434
      ],
      "type": "VEC2"
    },
    {
      "bufferView": 0,
      "byteOffset": 2507256,
      "componentType": 5125,
      "count": 305691,
      "type": "SCALAR"
    },
    {
      "bufferView": 2,
      "byteOffset": 4718304,
      "componentType": 5126,
      "count": 65532,
      "max": [
        1.4485499858856201,
        5.768499851226807,
        3.574270009994507
      ],
      "min": [
        -1.4456599950790405,
        -5.777659893035889,
        0.0011879520025104284
      ],
      "type": "VEC3"
    },
    {
      "bufferView": 2,
      "byteOffset": 5504688,
      "componentType": 5126,
      "count": 65532,
      "max": [
        1.0,
        0.999999463558197,
        0.9999999403953552
      ],
      "min": [
        -0.9999995827674866,
        -0.9999999403953552,
        -1.0
      ],
      "type": "VEC3"
    },
    {
      "bufferView": 1,
      "byteOffset": 1572768,
      "componentType": 5126,
      "count": 65532,
      "max": [
        0.999638020992279,
        0.9974619746208191
      ],
      "min": [
        0.00036199999158270657,
        0.00036299199564382434
      ],
      "type": "VEC2"
    },
    {
      "bufferView": 0,
      "byteOffset": 3730020,
      "componentType": 5125,
      "count": 303627,
      "type": "SCALAR"
    },
    {
      "bufferView": 2,
      "byteOffset": 6291072,
      "componentType": 5126,
      "count": 65532,
      "max": [
        1.4306399822235107,
        5.769110202789307,
        3.933799982070923
      ],
      "min": [
        -1.4450099468231201,
        -5.7740797996521,
        0.0077852425165474415
      ],
      "type": "VEC3"
    },
    {
      "bufferView": 2,
      "byteOffset": 7077456,
      "componentType": 5126,
      "count": 65532,
      "max": [
        1.0,
        0.9999999403953552,
        1.0
      ],
      "min": [
        -1.0,
        -1.0,
        -1.0
      ],
      "type": "VEC3"
    },
    {
      "bufferView": 1,
      "byteOffset": 2097024,
      "componentType": 5126,
      "count": 65532,
      "max": [
        0.9974669814109802,
        0.9996370077133179
      ],
      "min": [
        0.00036199999158270657,
        0.003988809883594513
      ],
      "type": "VEC2"
    },
    {
      "bufferView": 0,
      "byteOffset": 4944528,
      "componentType": 5125,
      "count": 300186,
      "type": "SCALAR"
    },
    {
      "bufferView": 2,
      "byteOffset": 7863840,
      "componentType": 5126,
      "count": 65532,
      "max": [
        1.4564311504364014,
        5.762720108032227,
        3.5683300495147705
      ],
      "min": [
        -1.4493906497955322,
        -5.785749912261963,
        0.04131000116467476
      ],
      "type": "VEC3"
    },
    {
      "bufferView": 2,
      "byteOffset": 8650224,
      "componentType": 5126,
      "count": 65532,
      "max": [
        0.9999999403953552,
        0.9999998807907104,
        0.999999463558197
      ],
      "min": [
        -1.0,
        -0.9999999403953552,
        -1.0
      ],
      "type": "VEC3"
    },
    {
      "bufferView": 1,
      "byteOffset": 2621280,
      "componentType": 5126,
      "count": 65532,
      "max": [
        0.999638020992279,
        0.9996370077133179
      ],
      "min": [
        0.0005360000068321824,
        0.00036299199564382434
      ],
      "type": "VEC2"
    },
    {
      "bufferView": 0,
      "byteOffset": 6145272,
      "componentType": 5125,
      "count": 288039,
      "type": "SCALAR"
    },
    {
      "bufferView": 2,
      "byteOffset": 9436608,
      "componentType": 5126,
      "count": 65532,
      "max": [
        1.4526300430297852,
        5.766980171203613,
        3.5740365982055664
      ],
      "min": [
        -1.4564435482025146,
        -5.7732930183410645,
        0.07092999666929245
      ],
      "type": "VEC3"
    },
    {
      "bufferView": 2,
      "byteOffset": 10222992,
      "componentType": 5126,
      "count": 65532,
      "max": [
        0.9999995827674866,
        0.9999999403953552,
        0.9999999403953552
      ],
      "min": [
        -0.9999995231628418,
        -1.0,
        -1.0
      ],
      "type": "VEC3"
    },
    {
      "bufferView": 1,
      "byteOffset": 3145536,
      "componentType": 5126,
      "count": 65532,
      "max": [
        0.999638020992279,
        0.9996370077133179
      ],
      "min": [
        0.004011999815702438,
        0.00036299199564382434
      ],
      "type": "VEC2"
    },
    {
      "bufferView": 0,
      "byteOffset": 7297428,
      "componentType": 5125,
      "count": 281085,
      "type": "SCALAR"
    },
    {
      "bufferView": 2,
      "byteOffset": 11009376,
      "componentType": 5126,
      "count": 65532,
      "max": [
        1.459548830986023,
        5.765419960021973,
        3.5743324756622314
      ],
      "min": [
        -1.452530026435852,
        -5.782470226287842,
        0.013965937308967113
      ],
      "type": "VEC3"
    },
    {
      "bufferView": 2,
      "byteOffset": 11795760,
      "componentType": 5126,
      "count": 65532,
      "max": [
        0.9999999403953552,
        0.9999999403953552,
        0.9999997615814209
      ],
      "min": [
        -0.9999997019767761,
        -0.9999994039535522,
        -1.0
      ],
      "type": "VEC3"
    },
    {
      "bufferView": 1,
      "byteOffset": 3669792,
      "componentType": 5126,
      "count": 65532,
      "max": [
        0.999638020992279,
        0.9996370077133179
      ],
      "min": [
        0.00036199999158270657,
        0.00036299199564382434
      ],
      "type": "VEC2"
    },
    {
      "bufferView": 0,
      "byteOffset": 8421768,
      "componentType": 5125,
      "count": 280785,
      "type": "SCALAR"
    },
    {
      "bufferView": 2,
      "byteOffset": 12582144,
      "componentType": 5126,
      "count": 65532,
      "max": [
        1.4456000328063965,
        5.73691987991333,
        3.569324254989624
      ],
      "min": [
        -1.4597123861312866,
        -5.785749912261963,
        0.03125999867916107
      ],
      "type": "VEC3"
    },
    {
      "bufferView": 2,
      "byteOffset": 13368528,
      "componentType": 5126,
      "count": 65532,
      "max": [
        1.0,
        0.9999998211860657,
        1.0
      ],
      "min": [
        -1.0,
        -1.0,
        -0.9999999403953552
      ],
      "type": "VEC3"
    },
    {
      "bufferView": 1,
      "byteOffset": 4194048,
      "componentType": 5126,
      "count": 65532,
      "max": [
        0.999638020992279,
        0.9996370077133179
      ],
      "min": [
        0.00036199999158270657,
        0.00036299199564382434
      ],
      "type": "VEC2"
    },
    {
      "bufferView": 0,
      "byteOffset": 9544908,
      "componentType": 5125,
      "count": 273027,
      "type": "SCALAR"
    },
    {
      "bufferView": 2,
      "byteOffset": 14154912,
      "componentType": 5126,
      "count": 65532,
      "max": [
        1.4442800283432007,
        5.766930103302002,
        3.9335598945617676
      ],
      "min": [
        -1.4477699995040894,
        -5.7742390632629395,
        0.010359999723732471
      ],
      "type": "VEC3"
    },
    {
      "bufferView": 2,
      "byteOffset": 14941296,
      "componentType": 5126,
      "count": 65532,
      "max": [
        1.0,
        1.0,
        0.9999999403953552
      ],
      "min": [
        -1.0,
        -1.0,
        -1.0
      ],
      "type": "VEC3"
    },
    {
      "bufferView": 1,
      "byteOffset": 4718304,
      "componentType": 5126,
      "count": 65532,
      "max": [
        0.999638020992279,
        0.9996370077133179
      ],
      "min": [
        0.00036199999158270657,
        0.00036299199564382434
      ],
      "type": "VEC2"
    },
    {
      "bufferView": 0,
      "byteOffset": 10637016,
      "componentType": 5125,
      "count": 249810,
      "type": "SCALAR"
    },
    {
      "bufferView": 2,
      "byteOffset": 15727680,
      "componentType": 5126,
      "count": 65532,
      "max": [
        1.449353814125061,
        5.767271995544434,
        3.93356990814209
      ],
      "min": [
        -1.447373390197754,
        -5.776589870452881,
        0.0009662580559961498
      ],
      "type": "VEC3"
    },
    {
      "bufferView": 2,
      "byteOffset": 16514064,
      "componentType": 5126,
      "count": 65532,
      "max": [
        1.0,
        1.0,
        1.0
      ],
      "min": [
        -1.0,
        -1.0,
        -1.0
      ],
      "type": "VEC3"
    },
    {
      "bufferView": 1,
      "byteOffset": 5242560,
      "componentType": 5126,
      "count": 65532,
      "max": [
        0.999638020992279,
        0.9996370077133179
      ],
      "min": [
        0.00036199999158270657,
        0.00036299199564382434
      ],
      "type": "VEC2"
    },
    {
      "bufferView": 0,
      "byteOffset": 11636256,
      "componentType": 5125,
      "count": 185568,
      "type": "SCALAR"
    },
    {
      "bufferView": 2,
      "byteOffset": 17300448,
      "componentType": 5126,
      "count": 57310,
      "max": [
        1.458986759185791,
        5.768204689025879,
        3.93464994430542
      ],
      "min": [
        -1.4555599689483643,
        -5.773940086364746,
        0.0005951550556346774
      ],
      "type": "VEC3"
    },
    {
      "bufferView": 2,
      "byteOffset": 17988168,
      "componentType": 5126,
      "count": 57310,
      "max": [
        1.0,
        1.0,
        1.0
      ],
      "min": [
        -1.0,
        -1.0,
        -1.0
      ],
      "type": "VEC3"
    },
    {
      "bufferView": 1,
      "byteOffset": 5766816,
      "componentType": 5126,
      "count": 57310,
      "max": [
        0.999638020992279,
        0.9996370077133179
      ],
      "min": [
        0.00036199999158270657,
        0.00036299199564382434
      ],
      "type": "VEC2"
    },
    {
      "bufferView": 0,
      "byteOffset": 12378528,
      "componentType": 5125,
      "count": 86877,
      "type": "SCALAR"
    },
    {
      "bufferView": 2,
      "byteOffset": 18675888,
      "componentType": 5126,
      "count": 65532,
      "max": [
        2.4086101055145264,
        1.4896199703216553,
        7.051249980926514
      ],
      "min": [
        -2.1907799243927,
        -1.4363800287246704,
        0.009491999633610249
      ],
      "type": "VEC3"
    },
    {
      "bufferView": 2,
      "byteOffset": 19462272,
      "componentType": 5126,
      "count": 65532,
      "max": [
        0.9999951720237732,
        0.9999986886978149,
        0.9999845027923584
      ],
      "min": [
        -0.999997615814209,
        -0.999979555606842,
        -0.9999162554740906
      ],
      "type": "VEC3"
    },
    {
      "bufferView": 1,
      "byteOffset": 6225296,
      "componentType": 5126,
      "count": 65532,
      "max": [
        0.9987919926643372,
        0.9995989799499512
      ],
      "min": [
        0.0004030000127386302,
        0.008419989608228207
      ],
      "type": "VEC2"
    },
    {
      "bufferView": 0,
      "byteOffset": 12726036,
      "componentType": 5125,
      "count": 336444,
      "type": "SCALAR"
    },
    {
      "bufferView": 2,
      "byteOffset": 20248656,
      "componentType": 5126,
      "count": 65532,
      "max": [
        2.1620800495147705,
        1.4868453741073608,
        7.564700126647949
      ],
      "min": [
        -2.158799886703491,
        -1.483904242515564,
        0.001462999964132905
      ],
      "type": "VEC3"
    },
    {
      "bufferView": 2,
      "byteOffset": 21035040,
      "componentType": 5126,
      "count": 65532,
      "max": [
        0.9999950528144836,
        0.9999994039535522,
        0.9999796152114868
      ],
      "min": [
        -0.9999957084655762,
        -0.9999982118606567,
        -0.9999997019767761
      ],
      "type": "VEC3"
    },
    {
      "bufferView": 1,
      "byteOffset": 6749552,
      "componentType": 5126,
      "count": 65532,
      "max": [
        0.9995970129966736,
        0.9923814535140991
      ],
      "min": [
        0.0020129999611526728,
        0.01483600027859211
      ],
      "type": "VEC2"
    },
    {
      "bufferView": 0,
      "byteOffset": 14071812,
      "componentType": 5125,
      "count": 335535,
      "type": "SCALAR"
    },
    {
      "bufferView": 2,
      "byteOffset": 21821424,
      "componentType": 5126,
      "count": 65532,
      "max": [
        2.184561252593994,
        1.5021799802780151,
        7.545179843902588
      ],
      "min": [
        -2.158400058746338,
        -1.523223876953125,
        0.022260000929236412
      ],
      "type": "VEC3"
    },
    {
      "bufferView": 2,
      "byteOffset": 22607808,
      "componentType": 5126,
      "count": 65532,
      "max": [
        0.9999998807907104,
        0.999995231628418,
        0.9999546408653259
      ],
      "min": [
        -0.9999899864196777,
        -0.9999893307685852,
        -0.9997454285621643
      ],
      "type": "VEC3"
    },
    {
      "bufferView": 1,
      "byteOffset": 7273808,
      "componentType": 5126,
      "count": 65532,
      "max": [
        0.9991300106048584,
        0.9834030270576477
      ],
      "min": [
        0.018115999177098274,
        0.0020049801096320152
      ],
      "type": "VEC2"
    },
    {
      "bufferView": 0,
      "byteOffset": 15413952,
      "componentType": 5125,
      "count": 329922,
      "type": "SCALAR"
    },
    {
      "bufferView": 2,
      "byteOffset": 23394192,
      "componentType": 5126,
      "count": 65532,
      "max": [
        2.3769400119781494,
        1.4846367835998535,
        7.382400035858154
      ],
      "min": [
        -2.1269140243530273,
        -1.5305399894714355,
        2.2041125703253783e-05
      ],
      "type": "VEC3"
    },
    {
      "bufferView": 2,
      "byteOffset": 24180576,
      "componentType": 5126,
      "count": 65532,
      "max": [
        0.9999991059303284,
        0.9999842643737793,
        0.9999845027923584
      ],
      "min": [
        -0.9999982118606567,
        -0.9999889135360718,
        -0.9999997615814209
      ],
      "type": "VEC3"
    },
    {
      "bufferView": 1,
      "byteOffset": 7798064,
      "componentType": 5126,
      "count": 65532,
      "max": [
        0.9995970129966736,
        0.993183970451355
      ],
      "min": [
        0.0004030000127386302,
        0.0004010199918411672
      ],
      "type": "VEC2"
    },
    {
      "bufferView": 0,
      "byteOffset": 16733640,
      "componentType": 5125,
      "count": 327942,
      "type": "SCALAR"
    },
    {
      "bufferView": 2,
      "byteOffset": 24966960,
      "componentType": 5126,
      "count": 65532,
      "max": [
        2.39342999458313,
        1.459401249885559,
        7.34375
      ],
      "min": [
        -2.1482791900634766,
        -1.5269099473953247,
        0.03901100158691406
      ],
      "type": "VEC3"
    },
    {
      "bufferView": 2,
      "byteOffset": 25753344,
      "componentType": 5126,
      "count": 65532,
      "max": [
        0.9999805688858032,
        0.9999940991401672,
        0.9997119903564453
      ],
      "min": [
        -0.9999933242797852,
        -0.9999954700469971,
        -0.9999995231628418
      ],
      "type": "VEC3"
    },
    {
      "bufferView": 1,
      "byteOffset": 8322320,
      "componentType": 5126,
      "count": 65532,
      "max": [
        0.9986159801483154,
        0.9995989799499512
      ],
      "min": [
        0.0004030000127386302,
        0.0004010199918411672
      ],
      "type": "VEC2"
    },
    {
      "bufferView": 0,
      "byteOffset": 18045408,
      "componentType": 5125,
      "count": 326652,
      "type": "SCALAR"
    },
    {
      "bufferView": 2,
      "byteOffset": 26539728,
      "componentType": 5126,
      "count": 65532,
      "max": [
        2.3500800132751465,
        1.4750200510025024,
        7.558145523071289
      ],
      "min": [
        -2.1916821002960205,
        -1.5283299684524536,
        0.01638096012175083
      ],
      "type": "VEC3"
    },
    {
      "bufferView": 2,
      "byteOffset": 27326112,
      "componentType": 5126,
      "count": 65532,
      "max": [
        0.9999905824661255,
        0.9999925494194031,
        0.9999914765357971
      ],
      "min": [
        -0.9999855160713196,
        -0.9999660849571228,
        -0.9999568462371826
      ],
      "type": "VEC3"
    },
    {
      "bufferView": 1,
      "byteOffset": 8846576,
      "componentType": 5126,
      "count": 65532,
      "max": [
        0.9971820116043091,
        0.9995989799499512
      ],
      "min": [
        0.004821999929845333,
        0.0006539819878526032
      ],
      "type": "VEC2"
    },
    {
      "bufferView": 0,
      "byteOffset": 19352016,
      "componentType": 5125,
      "count": 319479,
      "type": "SCALAR"
    },
    {
      "bufferView": 2,
      "byteOffset": 28112496,
      "componentType": 5126,
      "count": 65532,
      "max": [
        2.0004498958587646,
        1.5048600435256958,
        7.516750335693359
      ],
      "min": [
        -2.143359899520874,
        -1.5266200304031372,
        0.010052000172436237
      ],
      "type": "VEC3"
    },
    {
      "bufferView": 2,
      "byteOffset": 28898880,
      "componentType": 5126,
      "count": 65532,
      "max": [
        0.9999876618385315,
        0.999964714050293,
        0.9999967813491821
      ],
      "min": [
        -0.9999992251396179,
        -0.9999987483024597,
        -0.9999533891677856
      ],
      "type": "VEC3"
    },
    {
      "bufferView": 1,
      "byteOffset": 9370832,
      "componentType": 5126,
      "count": 65532,
      "max": [
        0.9987919926643372,
        0.9978150129318237
      ],
      "min": [
        0.0012080000014975667,
        0.0020049801096320152
      ],
      "type": "VEC2"
    },
    {
      "bufferView": 0,
      "byteOffset": 20629932,
      "componentType": 5125,
      "count": 306108,
      "type": "SCALAR"
    },
    {
      "bufferView": 2,
      "byteOffset": 29685264,
      "componentType": 5126,
      "count": 65532,
      "max": [
        2.4105300903320313,
        1.4942200183868408,
        7.532193660736084
      ],
      "min": [
        -2.144619941711426,
        -1.5305399894714355,
        0.006290605757385492
      ],
      "type": "VEC3"
    },
    {
      "bufferView": 2,
      "byteOffset": 30471648,
      "componentType": 5126,
      "count": 65532,
      "max": [
        0.9999919533729553,
        0.9999951720237732,
        0.9999630451202393
      ],
      "min": [
        -0.9999369382858276,
        -0.9999802708625793,
        -0.9999499320983887
      ],
      "type": "VEC3"
    },
    {
      "bufferView": 1,
      "byteOffset": 9895088,
      "componentType": 5126,
      "count": 65532,
      "max": [
        0.9995970129966736,
        0.9987969994544983
      ],
      "min": [
        0.0004030000127386302,
        0.0004010199918411672
      ],
      "type": "VEC2"
    },
    {
      "bufferView": 0,
      "byteOffset": 21854364,
      "componentType": 5125,
      "count": 300132,
      "type": "SCALAR"
    },
    {
      "bufferView": 2,
      "byteOffset": 31258032,
      "componentType": 5126,
      "count": 65532,
      "max": [
        2.4092726707458496,
        1.5022300481796265,
        7.486656188964844
      ],
      "min": [
        -2.1652400493621826,
        -1.4902299642562866,
        0.0034650000743567944
      ],
      "type": "VEC3"
    },
    {
      "bufferView": 2,
      "byteOffset": 32044416,
      "componentType": 5126,
      "count": 65532,
      "max": [
        0.9999966025352478,
        0.999995231628418,
        0.9999911189079285
      ],
      "min": [
        -0.9999936819076538,
        -0.9999982118606567,
        -0.9999250769615173
      ],
      "type": "VEC3"
    },
    {
      "bufferView": 1,
      "byteOffset": 10419344,
      "componentType": 5126,
      "count": 65532,
      "max": [
        0.9987919926643372,
        0.9987969994544983
      ],
      "min": [
        0.0004030000127386302,
        0.0004010199918411672
      ],
      "type": "VEC2"
    },
    {
      "bufferView": 0,
      "byteOffset": 23054892,
      "componentType": 5125,
      "count": 280950,
      "type": "SCALAR"
    },
    {
      "bufferView": 2,
      "byteOffset": 32830800,
      "componentType": 5126,
      "count": 65532,
      "max": [
        2.3975489139556885,
        1.504040002822876,
        7.56378173828125
      ],
      "min": [
        -2.190429925918579,
        -1.5275331735610962,
        0.00011890887253684923
      ],
      "type": "VEC3"
    },
    {
      "bufferView": 2,
      "byteOffset": 33617184,
      "componentType": 5126,
      "count": 65532,
      "max": [
        0.9999217391014099,
        0.999977171421051,
        1.0
      ],
      "min": [
        -0.9999884366989136,
        -0.9999893307685852,
        -0.9999997019767761
      ],
      "type": "VEC3"
    },
    {
      "bufferView": 1,
      "byteOffset": 10943600,
      "componentType": 5126,
      "count": 65532,
      "max": [
        0.9995970129966736,
        0.9995989799499512
      ],
      "min": [
        0.0004030000127386302,
        0.0004010199918411672
      ],
      "type": "VEC2"
    },
    {
      "bufferView": 0,
      "byteOffset": 24178692,
      "componentType": 5125,
      "count": 213879,
      "type": "SCALAR"
    },
    {
      "bufferView": 2,
      "byteOffset": 34403568,
      "componentType": 5126,
      "count": 65533,
      "max": [
        2.4048399925231934,
        1.5049400329589844,
        7.564700126647949
      ],
      "min": [
        -2.191540002822876,
        -1.529919981956482,
        0.0006711084279231727
      ],
      "type": "VEC3"
    },
    {
      "bufferView": 2,
      "byteOffset": 35189964,
      "componentType": 5126,
      "count": 65533,
      "max": [
        0.9999950528144836,
        0.9999999403953552,
        1.0
      ],
      "min": [
        -0.9999457597732544,
        -1.0,
        -1.0
      ],
      "type": "VEC3"
    },
    {
      "bufferView": 1,
      "byteOffset": 11467856,
      "componentType": 5126,
      "count": 65533,
      "max": [
        0.9995970129966736,
        0.9995989799499512
      ],
      "min": [
        0.0004030000127386302,
        0.0004010199918411672
      ],
      "type": "VEC2"
    },
    {
      "bufferView": 0,
      "byteOffset": 25034208,
      "componentType": 5125,
      "count": 109494,
      "type": "SCALAR"
    },
    {
      "bufferView": 2,
      "byteOffset": 35976360,
      "componentType": 5126,
      "count": 7328,
      "max": [
        2.407910108566284,
        1.4904799461364746,
        7.509646892547607
      ],
      "min": [
        -2.1900599002838135,
        -1.5209200382232666,
        0.0021602995693683624
      ],
      "type": "VEC3"
    },
    {
      "bufferView": 2,
      "byteOffset": 36064296,
      "componentType": 5126,
      "count": 7328,
      "max": [
        0.9999160170555115,
        0.9997512102127075,
        0.9998261332511902
      ],
      "min": [
        -1.0,
        -1.0,
        -1.0
      ],
      "type": "VEC3"
    },
    {
      "bufferView": 1,
      "byteOffset": 11992120,
      "componentType": 5126,
      "count": 7328,
      "max": [
        0.9989749789237976,
        0.9968178868293762
      ],
      "min": [
        0.0028180000372231007,
        0.0027059901040047407
      ],
      "type": "VEC2"
    },
    {
      "bufferView": 0,
      "byteOffset": 25472184,
      "componentType": 5125,
      "count": 8463,
      "type": "SCALAR"
    },
    {
      "bufferView": 2,
      "byteOffset": 36152232,
      "componentType": 5126,
      "count": 33,
      "max": [
        2645.076904296875,
        1476.6435546875,
        0.0
      ],
      "min": [
        -2043.580810546875,
        -0.07278892397880554,
        0.0
      ],
      "type": "VEC3"
    },
    {
      "bufferView": 2,
      "byteOffset": 36152628,
      "componentType": 5126,
      "count": 33,
      "max": [
        0.0,
        0.0,
        1.0
      ],
      "min": [
        0.0,
        0.0,
        0.9999999403953552
      ],
      "type": "VEC3"
    },
    {
      "bufferView": 1,
      "byteOffset": 12050744,
      "componentType": 5126,
      "count": 33,
      "max": [
        0.6971043944358826,
        0.6961570382118225
      ],
      "min": [
        -0.4938146471977234,
        -0.16118454933166504
      ],
      "type": "VEC2"
    },
    {
      "bufferView": 0,
      "byteOffset": 25506036,
      "componentType": 5125,
      "count": 93,
      "type": "SCALAR"
    },
    {
      "bufferView": 2,
      "byteOffset": 36153024,
      "componentType": 5126,
      "count": 199,
      "max": [
        2668.474365234375,
        2245.101318359375,
        2950.802001953125
      ],
      "min": [
        -2066.980224609375,
        -0.07278892397880554,
        0.0
      ],
      "type": "VEC3"
    },
    {
      "bufferView": 2,
      "byteOffset": 36155412,
      "componentType": 5126,
      "count": 199,
      "max": [
        0.9996912479400635,
        0.1506403535604477,
        1.0
      ],
      "min": [
        -0.9996912479400635,
        -0.9998527765274048,
        0.0
      ],
      "type": "VEC3"
    },
    {
      "bufferView": 1,
      "byteOffset": 12051008,
      "componentType": 5126,
      "count": 199,
      "max": [
        0.9345794320106506,
        0.989229142665863
      ],
      "min": [
        0.1325002759695053,
        0.08344315737485886
      ],
      "type": "VEC2"
    },
    {
      "bufferView": 0,
      "byteOffset": 25506408,
      "componentType": 5125,
      "count": 585,
      "type": "SCALAR"
    }
  ],
  "asset": {
    "extras": {
      "author": "TG13730 (https://sketchfab.com/TG13730)",
      "license": "CC-BY-4.0 (http://creativecommons.org/licenses/by/4.0/)",
      "source": "https://sketchfab.com/3d-models/elon-tpx-lunar-world-optim30p100-74c6793687234bcb8cb6c47ccfcf43fc",
      "title": "Elon-TPX- Lunar World-Optim30p100"
    },
    "generator": "Sketchfab-17.15.0",
    "version": "2.0"
  },
  "bufferViews": [
    {
      "buffer": 0,
      "byteLength": 25508748,
      "name": "floatBufferViews",
      "target": 34963
    },
    {
      "buffer": 0,
      "byteLength": 12052600,
      "byteOffset": 25508748,
      "byteStride": 8,
      "name": "floatBufferViews",
      "target": 34962
    },
    {
      "buffer": 0,
      "byteLength": 36157800,
      "byteOffset": 37561348,
      "byteStride": 12,
      "name": "floatBufferViews",
      "target": 34962
    }
  ],
  "buffers": [
    {
      "byteLength": 73719148,
      "uri": "scene.bin"
    }
  ],
  "extensionsUsed": [
    "KHR_materials_specular"
  ],
  "images": [
    {
      "uri": "textures/DefaultMaterial1_2_baseColor.png"
    },
    {
      "uri": "textures/DefaultMaterial1_baseColor.png"
    },
    {
      "uri": "textures/Color_M03_baseColor.jpeg"
    },
    {
      "uri": "textures/Fond_baseColor.png"
    }
  ],
  "materials": [
    {
      "doubleSided": true,
      "extensions": {
        "KHR_materials_specular": {
          "specularColorFactor": [
            1.0,
            1.0,
            1.0
          ],
          "specularFactor": 0.0
        }
      },
      "name": "DefaultMaterial1_2",
      "pbrMetallicRoughness": {
        "baseColorTexture": {
          "index": 0
        },
        "metallicFactor": 0.0
      }
    },
    {
      "doubleSided": true,
      "extensions": {
        "KHR_materials_specular": {
          "specularColorFactor": [
            1.0,
            1.0,
            1.0
          ],
          "specularFactor": 0.0
        }
      },
      "name": "DefaultMaterial1",
      "pbrMetallicRoughness": {
        "baseColorTexture": {
          "index": 1
        },
        "metallicFactor": 0.0
      }
    },
    {
      "doubleSided": true,
      "name": "Color_M03",
      "pbrMetallicRoughness": {
        "baseColorTexture": {
          "index": 2
        },
        "metallicFactor": 0.0
      }
    },
    {
      "doubleSided": true,
      "extensions": {
        "KHR_materials_specular": {
          "specularColorFactor": [
            1.0,
            1.0,
            1.0
          ],
          "specularFactor": 0.0
        }
      },
      "name": "Fond",
      "pbrMetallicRoughness": {
        "baseColorTexture": {
          "index": 3
        },
        "metallicFactor": 0.0
      }
    }
  ],
  "meshes": [
    {
      "name": "Space Truck_DefaultMaterial~1_2_0",
      "primitives": [
        {
          "attributes": {
            "NORMAL": 1,
            "POSITION": 0,
            "TEXCOORD_0": 2
          },
          "indices": 3,
          "material": 0,
          "mode": 4
        }
      ]
    },
    {
      "name": "Space Truck_DefaultMaterial~1_2_0",
      "primitives": [
        {
          "attributes": {
            "NORMAL": 5,
            "POSITION": 4,
            "TEXCOORD_0": 6
          },
          "indices": 7,
          "material": 0,
          "mode": 4
        }
      ]
    },
    {
      "name": "Space Truck_DefaultMaterial~1_2_0",
      "primitives": [
        {
          "attributes": {
            "NORMAL": 9,
            "POSITION": 8,
            "TEXCOORD_0": 10
          },
          "indices": 11,
          "material": 0,
          "mode": 4
        }
      ]
    },
    {
      "name": "Space Truck_DefaultMaterial~1_2_0",
      "primitives": [
        {
          "attributes": {
            "NORMAL": 13,
            "POSITION": 12,
            "TEXCOORD_0": 14
          },
          "indices": 15,
          "material": 0,
          "mode": 4
        }
      ]
    },
    {
      "name": "Space Truck_DefaultMaterial~1_2_0",
      "primitives": [
        {
          "attributes": {
            "NORMAL": 17,
            "POSITION": 16,
            "TEXCOORD_0": 18
          },
          "indices": 19,
          "material": 0,
          "mode": 4
        }
      ]
    },
    {
      "name": "Space Truck_DefaultMaterial~1_2_0",
      "primitives": [
        {
          "attributes": {
            "NORMAL": 21,
            "POSITION": 20,
            "TEXCOORD_0": 22
          },
          "indices": 23,
          "material": 0,
          "mode": 4
        }
      ]
    },
    {
      "name": "Space Truck_DefaultMaterial~1_2_0",
      "primitives": [
        {
          "attributes": {
            "NORMAL": 25,
            "POSITION": 24,
            "TEXCOORD_0": 26
          },
          "indices": 27,
          "material": 0,
          "mode": 4
        }
      ]
    },
    {
      "name": "Space Truck_DefaultMaterial~1_2_0",
      "primitives": [
        {
          "attributes": {
            "NORMAL": 29,
            "POSITION": 28,
            "TEXCOORD_0": 30
          },
          "indices": 31,
          "material": 0,
          "mode": 4
        }
      ]
    },
    {
      "name": "Space Truck_DefaultMaterial~1_2_0",
      "primitives": [
        {
          "attributes": {
            "NORMAL": 33,
            "POSITION": 32,
            "TEXCOORD_0": 34
          },
          "indices": 35,
          "material": 0,
          "mode": 4
        }
      ]
    },
    {
      "name": "Space Truck_DefaultMaterial~1_2_0",
      "primitives": [
        {
          "attributes": {
            "NORMAL": 37,
            "POSITION": 36,
            "TEXCOORD_0": 38
          },
          "indices": 39,
          "material": 0,
          "mode": 4
        }
      ]
    },
    {
      "name": "Space Truck_DefaultMaterial~1_2_0",
      "primitives": [
        {
          "attributes": {
            "NORMAL": 41,
            "POSITION": 40,
            "TEXCOORD_0": 42
          },
          "indices": 43,
          "material": 0,
          "mode": 4
        }
      ]
    },
    {
      "name": "Space Truck_DefaultMaterial~1_2_0",
      "primitives": [
        {
          "attributes": {
            "NORMAL": 45,
            "POSITION": 44,
            "TEXCOORD_0": 46
          },
          "indices": 47,
          "material": 0,
          "mode": 4
        }
      ]
    },
    {
      "name": "Elon-TPX_DefaultMaterial~1_0",
      "primitives": [
        {
          "attributes": {
            "NORMAL": 49,
            "POSITION": 48,
            "TEXCOORD_0": 50
          },
          "indices": 51,
          "material": 1,
          "mode": 4
        }
      ]
    },
    {
      "name": "Elon-TPX_DefaultMaterial~1_0",
      "primitives": [
        {
          "attributes": {
            "NORMAL": 53,
            "POSITION": 52,
            "TEXCOORD_0": 54
          },
          "indices": 55,
          "material": 1,
          "mode": 4
        }
      ]
    },
    {
      "name": "Elon-TPX_DefaultMaterial~1_0",
      "primitives": [
        {
          "attributes": {
            "NORMAL": 57,
            "POSITION": 56,
            "TEXCOORD_0": 58
          },
          "indices": 59,
          "material": 1,
          "mode": 4
        }
      ]
    },
    {
      "name": "Elon-TPX_DefaultMaterial~1_0",
      "primitives": [
        {
          "attributes": {
            "NORMAL": 61,
            "POSITION": 60,
            "TEXCOORD_0": 62
          },
          "indices": 63,
          "material": 1,
          "mode": 4
        }
      ]
    },
    {
      "name": "Elon-TPX_DefaultMaterial~1_0",
      "primitives": [
        {
          "attributes": {
            "NORMAL": 65,
            "POSITION": 64,
            "TEXCOORD_0": 66
          },
          "indices": 67,
          "material": 1,
          "mode": 4
        }
      ]
    },
    {
      "name": "Elon-TPX_DefaultMaterial~1_0",
      "primitives": [
        {
          "attributes": {
            "NORMAL": 69,
            "POSITION": 68,
            "TEXCOORD_0": 70
          },
          "indices": 71,
          "material": 1,
          "mode": 4
        }
      ]
    },
    {
      "name": "Elon-TPX_DefaultMaterial~1_0",
      "primitives": [
        {
          "attributes": {
            "NORMAL": 73,
            "POSITION": 72,
            "TEXCOORD_0": 74
          },
          "indices": 75,
          "material": 1,
          "mode": 4
        }
      ]
    },
    {
      "name": "Elon-TPX_DefaultMaterial~1_0",
      "primitives": [
        {
          "attributes": {
            "NORMAL": 77,
            "POSITION": 76,
            "TEXCOORD_0": 78
          },
          "indices": 79,
          "material": 1,
          "mode": 4
        }
      ]
    },
    {
      "name": "Elon-TPX_DefaultMaterial~1_0",
      "primitives": [
        {
          "attributes": {
            "NORMAL": 81,
            "POSITION": 80,
            "TEXCOORD_0": 82
          },
          "indices": 83,
          "material": 1,
          "mode": 4
        }
      ]
    },
    {
      "name": "Elon-TPX_DefaultMaterial~1_0",
      "primitives": [
        {
          "attributes": {
            "NORMAL": 85,
            "POSITION": 84,
            "TEXCOORD_0": 86
          },
          "indices": 87,
          "material": 1,
          "mode": 4
        }
      ]
    },
    {
      "name": "Elon-TPX_DefaultMaterial~1_0",
      "primitives": [
        {
          "attributes": {
            "NORMAL": 89,
            "POSITION": 88,
            "TEXCOORD_0": 90
          },
          "indices": 91,
          "material": 1,
          "mode": 4
        }
      ]
    },
    {
      "name": "Elon-TPX_DefaultMaterial~1_0",
      "primitives": [
        {
          "attributes": {
            "NORMAL": 93,
            "POSITION": 92,
            "TEXCOORD_0": 94
          },
          "indices": 95,
          "material": 1,
          "mode": 4
        }
      ]
    },
    {
      "name": "3DGeom-1_[Color M03]_0",
      "primitives": [
        {
          "attributes": {
            "NORMAL": 97,
            "POSITION": 96,
            "TEXCOORD_0": 98
          },
          "indices": 99,
          "material": 2,
          "mode": 4
        }
      ]
    },
    {
      "name": "3DGeom-2_Fond_0",
      "primitives": [
        {
          "attributes": {
            "NORMAL": 101,
            "POSITION": 100,
            "TEXCOORD_0": 102
          },
          "indices": 103,
          "material": 3,
          "mode": 4
        }
      ]
    }
  ],
  "nodes": [
    {
      "children": [
        1
      ],
      "matrix": [
        1.0,
        0.0,
        0.0,
        0.0,
        0.0,
        -5.053215392444312e-16,
        1.0,
        0.0,
        0.0,
        -1.0,
        -5.053215392444312e-16,
        0.0,
        0.0,
        0.0,
        0.0,
        1.0
      ],
      "name": "Sketchfab_model"
    },
    {
      "children": [
        2
      ],
      "matrix": [
        1.0,
        0.0,
        0.0,
        0.0,
        0.0,
        -1.0,
        0.0,
        0.0,
        0.0,
        0.0,
        -1.0,
        0.0,
        0.0,
        0.0,
        0.0,
        1.0
      ],
      "name": "73453f4a906047538e964fd18d190a5c.fbx"
    },
    {
      "children": [
        3,
        5,
        35
      ],
      "name": "RootNode"
    },
    {
      "children": [
        4
      ],
      "matrix": [
        -0.10399305786713642,
        0.9734735796524837,
        -0.20380047505838117,
        0.0,
        -0.021648176911832184,
        0.2026474526620452,
        0.9790124444387712,
        0.0,
        0.9943423959340346,
        0.10622240652594728,
        -2.220446049250313e-16,
        0.0,
        9.188302040100098,
        -155.52671813964844,
        60.789764404296875,
        1.0
      ],
      "name": "Default Camera 1"
    },
    {
      "name": "Object_4"
    },
    {
      "children": [
        6
      ],
      "name": "Assembly-2"
    },
    {
      "children": [
        7,
        21
      ],
      "name": "Elon-TPX-LunarWorld"
    },
    {
      "children": [
        8
      ],
      "matrix": [
        1.7311279020517678,
        1.0015968184543345,
        0.0,
        0.0,
        -1.0015968184543345,
        1.7311279020517678,
        0.0,
        0.0,
        0.0,
        0.0,
        2.0,
        0.0,
        -0.008313319645822048,
        0.0060684760101139545,
        -1.3322676295501878e-15,
        1.0
      ],
      "name": "Space Truck"
    },
    {
      "children": [
        9,
        10,
        11,
        12,
        13,
        14,
        15,
        16,
        17,
        18,
        19,
        20
      ],
      "name": "Space Truck"
    },
    {
      "mesh": 0,
      "name": "Space Truck_DefaultMaterial~1_2_0"
    },
    {
      "mesh": 1,
      "name": "Space Truck_DefaultMaterial~1_2_0"
    },
    {
      "mesh": 2,
      "name": "Space Truck_DefaultMaterial~1_2_0"
    },
    {
      "mesh": 3,
      "name": "Space Truck_DefaultMaterial~1_2_0"
    },
    {
      "mesh": 4,
      "name": "Space Truck_DefaultMaterial~1_2_0"
    },
    {
      "mesh": 5,
      "name": "Space Truck_DefaultMaterial~1_2_0"
    },
    {
      "mesh": 6,
      "name": "Space Truck_DefaultMaterial~1_2_0"
    },
    {
      "mesh": 7,
      "name": "Space Truck_DefaultMaterial~1_2_0"
    },
    {
      "mesh": 8,
      "name": "Space Truck_DefaultMaterial~1_2_0"
    },
    {
      "mesh": 9,
      "name": "Space Truck_DefaultMaterial~1_2_0"
    },
    {
      "mesh": 10,
      "name": "Space Truck_DefaultMaterial~1_2_0"
    },
    {
      "mesh": 11,
      "name": "Space Truck_DefaultMaterial~1_2_0"
    },
    {
      "children": [
        22
      ],
      "matrix": [
        0.42682085880482296,
        -0.2604303255942237,
        0.0,
        0.0,
        0.2604303255942237,
        0.42682085880482296,
        0.0,
        0.0,
        0.0,
        0.0,
        0.5,
        0.0,
        -6.01546049118042,
        -6.4761457443237305,
        0.0,
        1.0
      ],
      "name": "Elon-TPX"
    },
    {
      "children": [
        23,
        24,
        25,
        26,
        27,
        28,
        29,
        30,
        31,
        32,
        33,
        34
      ],
      "name": "Elon-TPX"
    },
    {
      "mesh": 12,
      "name": "Elon-TPX_DefaultMaterial~1_0"
    },
    {
      "mesh": 13,
      "name": "Elon-TPX_DefaultMaterial~1_0"
    },
    {
      "mesh": 14,
      "name": "Elon-TPX_DefaultMaterial~1_0"
    },
    {
      "mesh": 15,
      "name": "Elon-TPX_DefaultMaterial~1_0"
    },
    {
      "mesh": 16,
      "name": "Elon-TPX_DefaultMaterial~1_0"
    },
    {
      "mesh": 17,
      "name": "Elon-TPX_DefaultMaterial~1_0"
    },
    {
      "mesh": 18,
      "name": "Elon-TPX_DefaultMaterial~1_0"
    },
    {
      "mesh": 19,
      "name": "Elon-TPX_DefaultMaterial~1_0"
    },
    {
      "mesh": 20,
      "name": "Elon-TPX_DefaultMaterial~1_0"
    },
    {
      "mesh": 21,
      "name": "Elon-TPX_DefaultMaterial~1_0"
    },
    {
      "mesh": 22,
      "name": "Elon-TPX_DefaultMaterial~1_0"
    },
    {
      "mesh": 23,
      "name": "Elon-TPX_DefaultMaterial~1_0"
    },
    {
      "children": [
        36
      ],
      "matrix": [
        0.5,
        0.0,
        0.0,
        0.0,
        0.0,
        0.5,
        0.0,
        0.0,
        0.0,
        0.0,
        0.5,
        0.0,
        -2.95198130607605,
        -13.120933532714844,
        3.552713678800501e-15,
        1.0
      ],
      "name": "Assembly-3"
    },
    {
      "children": [
        37
      ],
      "name": "Fond3D"
    },
    {
      "children": [
        38,
        40
      ],
      "matrix": [
        0.800000011920929,
        1.4678565337240741e-31,
        -5.202474967195894e-33,
        0.0,
        -1.4678565337240737e-31,
        0.800000011920929,
        2.995616690003509e-15,
        0.0,
        5.202474967196444e-33,
        -2.995616690003509e-15,
        0.800000011920929,
        0.0,
        1.5277822017669678,
        4.393744945526123,
        -8.459878441226601e-14,
        1.0
      ],
      "name": "Assembly-1"
    },
    {
      "children": [
        39
      ],
      "matrix": [
        0.02539999969303608,
        1.4341686588223206e-48,
        4.276423484466107e-50,
        0.0,
        -1.4341686588223206e-48,
        0.02539999969303608,
        1.2325951495116799e-32,
        0.0,
        -4.276423484466107e-50,
        -1.2325951495116799e-32,
        0.02539999969303608,
        0.0,
        0.0,
        0.0,
        0.0,
        1.0
      ],
      "name": "3DGeom-1"
    },
    {
      "mesh": 24,
      "name": "3DGeom-1_[Color M03]_0"
    },
    {
      "children": [
        41
      ],
      "matrix": [
        0.02539999969303608,
        1.4341686588223206e-48,
        4.276423484466107e-50,
        0.0,
        -1.4341686588223206e-48,
        0.02539999969303608,
        1.2325951495116799e-32,
        0.0,
        -4.276423484466107e-50,
        -1.2325951495116799e-32,
        0.02539999969303608,
        0.0,
        0.0,
        0.0,
        0.0,
        1.0
      ],
      "name": "3DGeom-2"
    },
    {
      "mesh": 25,
      "name": "3DGeom-2_Fond_0"
    }
  ],
  "samplers": [
    {
      "magFilter": 9729,
      "minFilter": 9987,
      "wrapS": 10497,
      "wrapT": 10497
    }
  ],
  "scene": 0,
  "scenes": [
    {
      "name": "Sketchfab_Scene",
      "nodes": [
        0
      ]
    }
  ],
  "textures": [
    {
      "sampler": 0,
      "source": 0
    },
    {
      "sampler": 0,
      "source": 1
    },
    {
      "sampler": 0,
      "source": 2
    },
    {
      "sampler": 0,
      "source": 3
    }
  ]
}
