{
  "accessors": [
    {
      "bufferView": 1,
      "componentType": 5126,
      "count": 123,
      "max": [
        3.279362916946411,
        0.5863534808158875,
        1.3950605392456055
      ],
      "min": [
        -3.2796311378479004,
        -0.5872398614883423,
        -1.3990522623062134
      ],
      "type": "VEC3"
    },
    {
      "bufferView": 1,
      "byteOffset": 1476,
      "componentType": 5126,
      "count": 123,
      "max": [
        0.9999991655349731,
        1.0,
        0.9999999403953552
      ],
      "min": [
        -1.0,
        -0.9999999403953552,
        -0.9999993443489075
      ],
      "type": "VEC3"
    },
    {
      "bufferView": 2,
      "componentType": 5126,
      "count": 123,
      "max": [
        0.5215686559677124,
        0.4627451002597809,
        0.4117647111415863,
        0.0
      ],
      "min": [
        0.3294117748737335,
        0.239215686917305,
        0.16862745583057404,
        0.0
      ],
      "type": "VEC4"
    },
    {
      "bufferView": 0,
      "componentType": 5125,
      "count": 396,
      "type": "SCALAR"
    },
    {
      "bufferView": 1,
      "byteOffset": 2952,
      "componentType": 5126,
      "count": 1751,
      "max": [
        1.6720942258834839,
        0.5740290284156799,
        1.254134178161621
      ],
      "min": [
        -1.1861999034881592,
        -0.46613648533821106,
        -0.4864324927330017
      ],
      "type": "VEC3"
    },
    {
      "bufferView": 1,
      "byteOffset": 23964,
      "componentType": 5126,
      "count": 1751,
      "max": [
        0.9998590350151062,
        0.9995473623275757,
        0.9998985528945923
      ],
      "min": [
        -0.998835027217865,
        -0.9983310103416443,
        -0.9993541836738586
      ],
      "type": "VEC3"
    },
    {
      "bufferView": 2,
      "byteOffset": 1968,
      "componentType": 5126,
      "count": 1751,
      "max": [
        0.13333334028720856,
        0.14901961386203766,
        0.07058823853731155,
        0.0
      ],
      "min": [
        0.13333334028720856,
        0.14901961386203766,
        0.07058823853731155,
        0.0
      ],
      "type": "VEC4"
    },
    {
      "bufferView": 0,
      "byteOffset": 1584,
      "componentType": 5125,
      "count": 8064,
      "type": "SCALAR"
    },
    {
      "bufferView": 1,
      "byteOffset": 44976,
      "componentType": 5126,
      "count": 17609,
      "max": [
        1.104670524597168,
        0.8947878479957581,
        1.687918782234192
      ],
      "min": [
        -5.441897869110107,
        -2.3590965270996094,
        -1.031220555305481
      ],
      "type": "VEC3"
    },
    {
      "bufferView": 1,
      "byteOffset": 256284,
      "componentType": 5126,
      "count": 17609,
      "max": [
        0.9999536275863647,
        0.9999277591705322,
        0.9999660849571228
      ],
      "min": [
        -0.99871826171875,
        -0.9999811053276062,
        -0.9999264478683472
      ],
      "type": "VEC3"
    },
    {
      "bufferView": 2,
      "byteOffset": 29984,
      "componentType": 5126,
      "count": 17609,
      "max": [
        0.7960784435272217,
        0.5882353186607361,
        0.37254902720451355,
        0.0
      ],
      "min": [
        0.03529411926865578,
        0.0117647061124444,
        0.007843137718737125,
        0.0
      ],
      "type": "VEC4"
    },
    {
      "bufferView": 0,
      "byteOffset": 33840,
      "componentType": 5125,
      "count": 100392,
      "type": "SCALAR"
    }
  ],
  "asset": {
    "extras": {
      "author": "Christian Day (https://sketchfab.com/biochrisdd)",
      "license": "CC-BY-4.0 (http://creativecommons.org/licenses/by/4.0/)",
      "source": "https://sketchfab.com/3d-models/jabba-the-hutt-c5026df38b944c969bb0ab13315bc915",
      "title": "Jabba The Hutt"
    },
    "generator": "Sketchfab-12.68.0",
    "version": "2.0"
  },
  "bufferViews": [
    {
      "buffer": 0,
      "byteLength": 435408,
      "name": "floatBufferViews",
      "target": 34963
    },
    {
      "buffer": 0,
      "byteLength": 467592,
      "byteOffset": 435408,
      "byteStride": 12,
      "name": "floatBufferViews",
      "target": 34962
    },
    {
      "buffer": 0,
      "byteLength": 311728,
      "byteOffset": 903000,
      "byteStride": 16,
      "name": "floatBufferViews",
      "target": 34962
    }
  ],
  "buffers": [
    {
      "byteLength": 1214728,
      "uri": "scene.bin"
    }
  ],
  "materials": [
    {
      "doubleSided": true,
      "name": "material_0",
      "pbrMetallicRoughness": {
        "metallicFactor": 0.751771760857714,
        "roughnessFactor": 0.0
      }
    },
    {
      "doubleSided": true,
      "name": "material_1",
      "pbrMetallicRoughness": {
        "metallicFactor": 0.0,
        "roughnessFactor": 0.5017263310921316
      }
    },
    {
      "doubleSided": true,
      "name": "material_2",
      "pbrMetallicRoughness": {
        "metallicFactor": 0.14119571143012902,
        "roughnessFactor": 0.47846629111393785
      }
    }
  ],
  "meshes": [
    {
      "name": "Object_0",
      "primitives": [
        {
          "attributes": {
            "COLOR_0": 2,
            "NORMAL": 1,
            "POSITION": 0
          },
          "indices": 3,
          "material": 0,
          "mode": 4
        }
      ]
    },
    {
      "name": "Object_1",
      "primitives": [
        {
          "attributes": {
            "COLOR_0": 6,
            "NORMAL": 5,
            "POSITION": 4
          },
          "indices": 7,
          "material": 1,
          "mode": 4
        }
      ]
    },
    {
      "name": "Object_2",
      "primitives": [
        {
          "attributes": {
            "COLOR_0": 10,
            "NORMAL": 9,
            "POSITION": 8
          },
          "indices": 11,
          "material": 2,
          "mode": 4
        }
      ]
    }
  ],
  "nodes": [
    {
      "children": [
        1
      ],
      "matrix": [
        1.0,
        0.0,
        0.0,
        0.0,
        0.0,
        2.220446049250313e-16,
        -1.0,
        0.0,
        0.0,
        1.0,
        2.220446049250313e-16,
        0.0,
        0.0,
        0.0,
        0.0,
        1.0
      ],
      "name": "Sketchfab_model"
    },
    {
      "children": [
        2
      ],
      "name": "root"
    },
    {
      "children": [
        3,
        5,
        7
      ],
      "matrix": [
        1.0,
        0.0,
        0.0,
        0.0,
        0.0,
        2.220446049250313e-16,
        1.0,
        0.0,
        0.0,
        -1.0,
        2.220446049250313e-16,
        0.0,
        0.0,
        0.0,
        0.0,
        1.0
      ],
      "name": "GLTF_SceneRootNode"
    },
    {
      "children": [
        4
      ],
      "matrix": [
        1.0,
        0.0,
        0.0,
        0.0,
        0.0,
        1.0,
        0.0,
        0.0,
        0.0,
        0.0,
        1.0,
        0.0,
        -1.6473069190979004,
        -2.0736846923828125,
        0.09412360191345215,
        1.0
      ],
      "name": "_0"
    },
    {
      "mesh": 0,
      "name": "Object_4"
    },
    {
      "children": [
        6
      ],
      "name": "_1"
    },
    {
      "mesh": 1,
      "name": "Object_6"
    },
    {
      "children": [
        8
      ],
      "matrix": [
        1.1098688840866089,
        0.0,
        0.0,
        0.0,
        0.0,
        1.1098688840866089,
        0.0,
        0.0,
        0.0,
        0.0,
        1.1098688840866089,
        0.0,
        0.31405532360076904,
        0.7613046765327454,
        0.0,
        1.0
      ],
      "name": "_2"
    },
    {
      "mesh": 2,
      "name": "Object_8"
    }
  ],
  "scene": 0,
  "scenes": [
    {
      "name": "Sketchfab_Scene",
      "nodes": [
        0
      ]
    }
  ]
}
