{
  "accessors": [
    {
      "bufferView": 2,
      "componentType": 5126,
      "count": 18480,
      "max": [
        0.056269727647304535,
        0.07820108532905579,
        0.04110582545399666
      ],
      "min": [
        -0.06227850541472435,
        -0.0742245614528656,
        -0.08337686955928802
      ],
      "type": "VEC3"
    },
    {
      "bufferView": 2,
      "byteOffset": 221760,
      "componentType": 5126,
      "count": 18480,
      "max": [
        0.9999135732650757,
        0.9999979138374329,
        0.9998524188995361
      ],
      "min": [
        -0.9998487234115601,
        -0.9987118244171143,
        -0.9998769760131836
      ],
      "type": "VEC3"
    },
    {
      "bufferView": 1,
      "componentType": 5126,
      "count": 18480,
      "max": [
        0.9983624815940857,
        0.9999725818634033
      ],
      "min": [
        7.470456330338493e-05,
        0.0001280946598853916
      ],
      "type": "VEC2"
    },
    {
      "bufferView": 1,
      "byteOffset": 147840,
      "componentType": 5126,
      "count": 18480,
      "max": [
        0.9983624815940857,
        0.9999725818634033
      ],
      "min": [
        7.470456330338493e-05,
        0.0001280946598853916
      ],
      "type": "VEC2"
    },
    {
      "bufferView": 1,
      "byteOffset": 295680,
      "componentType": 5126,
      "count": 18480,
      "max": [
        0.9983624815940857,
        0.9999725818634033
      ],
      "min": [
        7.470456330338493e-05,
        0.0001280946598853916
      ],
      "type": "VEC2"
    },
    {
      "bufferView": 0,
      "componentType": 5125,
      "count": 91758,
      "type": "SCALAR"
    }
  ],
  "asset": {
    "extras": {
      "author": "Karl Hodge (https://sketchfab.com/karlhodge)",
      "license": "CC-BY-NC-SA-4.0 (http://creativecommons.org/licenses/by-nc-sa/4.0/)",
      "source": "https://sketchfab.com/3d-models/eaglemoss-spock-0536ace100db4ec199e8e1590b7493e3",
      "title": "Eaglemoss Spock"
    },
    "generator": "Sketchfab-13.76.0",
    "version": "2.0"
  },
  "bufferViews": [
    {
      "buffer": 0,
      "byteLength": 367032,
      "name": "floatBufferViews",
      "target": 34963
    },
    {
      "buffer": 0,
      "byteLength": 443520,
      "byteOffset": 367032,
      "byteStride": 8,
      "name": "floatBufferViews",
      "target": 34962
    },
    {
      "buffer": 0,
      "byteLength": 443520,
      "byteOffset": 810552,
      "byteStride": 12,
      "name": "floatBufferViews",
      "target": 34962
    }
  ],
  "buffers": [
    {
      "byteLength": 1254072,
      "uri": "scene.bin"
    }
  ],
  "extensionsUsed": [
    "KHR_materials_unlit"
  ],
  "images": [
    {
      "uri": "textures/material_0_baseColor.jpeg"
    }
  ],
  "materials": [
    {
      "extensions": {
        "KHR_materials_unlit": {}
      },
      "name": "material_0",
      "pbrMetallicRoughness": {
        "baseColorTexture": {
          "index": 0
        },
        "metallicFactor": 0.0
      }
    }
  ],
  "meshes": [
    {
      "name": "Object_0",
      "primitives": [
        {
          "attributes": {
            "NORMAL": 1,
            "POSITION": 0,
            "TEXCOORD_0": 2,
            "TEXCOORD_1": 3,
            "TEXCOORD_2": 4
          },
          "indices": 5,
          "material": 0,
          "mode": 4
        }
      ]
    }
  ],
  "nodes": [
    {
      "children": [
        1
      ],
      "matrix": [
        1.0,
        0.0,
        0.0,
        0.0,
        0.0,
        2.220446049250313e-16,
        -1.0,
        0.0,
        0.0,
        1.0,
        2.220446049250313e-16,
        0.0,
        0.0,
        0.0,
        0.0,
        1.0
      ],
      "name": "Sketchfab_model"
    },
    {
      "children": [
        2
      ],
      "name": "root"
    },
    {
      "children": [
        3
      ],
      "matrix": [
        1.0,
        0.0,
        0.0,
        0.0,
        0.0,
        2.220446049250313e-16,
        1.0,
        0.0,
        0.0,
        -1.0,
        2.220446049250313e-16,
        0.0,
        0.0,
        0.0,
        0.0,
        1.0
      ],
      "name": "GLTF_SceneRootNode"
    },
    {
      "children": [
        4
      ],
      "name": "_0"
    },
    {
      "mesh": 0,
      "name": "Object_4"
    }
  ],
  "samplers": [
    {
      "magFilter": 9729,
      "minFilter": 9987,
      "wrapS": 10497,
      "wrapT": 10497
    }
  ],
  "scene": 0,
  "scenes": [
    {
      "name": "Sketchfab_Scene",
      "nodes": [
        0
      ]
    }
  ],
  "textures": [
    {
      "sampler": 0,
      "source": 0
    }
  ]
}
