{
  "accessors": [
    {
      "bufferView": 2,
      "componentType": 5126,
      "count": 3842,
      "max": [
        1.0207726955413818,
        1.0000001192092896,
        1.000002384185791
      ],
      "min": [
        -1.0000001192092896,
        -1.0000001192092896,
        -1.0000001192092896
      ],
      "type": "VEC3"
    },
    {
      "bufferView": 2,
      "byteOffset": 46104,
      "componentType": 5126,
      "count": 3842,
      "max": [
        1.0,
        1.0,
        1.0
      ],
      "min": [
        -1.0,
        -1.0,
        -1.0
      ],
      "type": "VEC3"
    },
    {
      "bufferView": 1,
      "componentType": 5126,
      "count": 3842,
      "max": [
        0.9998602271080017,
        0.9942767024040222
      ],
      "min": [
        0.00013975289766676724,
        0.00013975289766676724
      ],
      "type": "VEC2"
    },
    {
      "bufferView": 0,
      "componentType": 5125,
      "count": 6297,
      "type": "SCALAR"
    },
    {
      "bufferView": 2,
      "byteOffset": 92208,
      "componentType": 5126,
      "count": 10873,
      "max": [
        17.84177589416504,
        3.5035479068756104,
        9.568854331970215
      ],
      "min": [
        -16.08294677734375,
        -1.03363538528356e-06,
        -2.19602632522583
      ],
      "type": "VEC3"
    },
    {
      "bufferView": 2,
      "byteOffset": 222684,
      "componentType": 5126,
      "count": 10873,
      "max": [
        0.9999997019767761,
        1.0,
        1.0
      ],
      "min": [
        -1.0,
        -1.0,
        -0.9999977946281433
      ],
      "type": "VEC3"
    },
    {
      "bufferView": 1,
      "byteOffset": 30736,
      "componentType": 5126,
      "count": 10873,
      "max": [
        1.0,
        1.0
      ],
      "min": [
        0.0,
        0.0
      ],
      "type": "VEC2"
    },
    {
      "bufferView": 0,
      "byteOffset": 25188,
      "componentType": 5125,
      "count": 18948,
      "type": "SCALAR"
    },
    {
      "bufferView": 2,
      "byteOffset": 353160,
      "componentType": 5126,
      "count": 88,
      "max": [
        0.8298878073692322,
        1.000000238418579,
        0.9225303530693054
      ],
      "min": [
        -1.06163489818573,
        -1.000000238418579,
        -1.0127440690994263
      ],
      "type": "VEC3"
    },
    {
      "bufferView": 2,
      "byteOffset": 354216,
      "componentType": 5126,
      "count": 88,
      "max": [
        0.9999998807907104,
        1.0,
        0.9983324408531189
      ],
      "min": [
        -0.9974381923675537,
        -1.0,
        -0.9999664425849915
      ],
      "type": "VEC3"
    },
    {
      "bufferView": 1,
      "byteOffset": 117720,
      "componentType": 5126,
      "count": 88,
      "max": [
        0.875,
        1.0
      ],
      "min": [
        0.125,
        0.0
      ],
      "type": "VEC2"
    },
    {
      "bufferView": 0,
      "byteOffset": 100980,
      "componentType": 5125,
      "count": 132,
      "type": "SCALAR"
    },
    {
      "bufferView": 2,
      "byteOffset": 355272,
      "componentType": 5126,
      "count": 1973,
      "max": [
        3.143331527709961,
        3.079301357269287,
        6.580136299133301
      ],
      "min": [
        -3.1433284282684326,
        -3.07930326461792,
        -2.993715763092041
      ],
      "type": "VEC3"
    },
    {
      "bufferView": 2,
      "byteOffset": 378948,
      "componentType": 5126,
      "count": 1973,
      "max": [
        0.9970594644546509,
        1.0,
        1.0
      ],
      "min": [
        -1.0,
        -1.0,
        -1.0
      ],
      "type": "VEC3"
    },
    {
      "bufferView": 1,
      "byteOffset": 118424,
      "componentType": 5126,
      "count": 1973,
      "max": [
        1.0,
        1.000000238418579
      ],
      "min": [
        0.0,
        2.6357454771641642e-05
      ],
      "type": "VEC2"
    },
    {
      "bufferView": 0,
      "byteOffset": 101508,
      "componentType": 5125,
      "count": 3021,
      "type": "SCALAR"
    },
    {
      "bufferView": 2,
      "byteOffset": 402624,
      "componentType": 5126,
      "count": 26610,
      "max": [
        0.9640026092529297,
        0.9166668653488159,
        8.177227973937988
      ],
      "min": [
        -0.9803204536437988,
        -0.9166671633720398,
        -0.9166668057441711
      ],
      "type": "VEC3"
    },
    {
      "bufferView": 2,
      "byteOffset": 721944,
      "componentType": 5126,
      "count": 26610,
      "max": [
        0.9997093677520752,
        0.9964976906776428,
        0.9964980483055115
      ],
      "min": [
        -0.9999131560325623,
        -0.9964976906776428,
        -0.9964979290962219
      ],
      "type": "VEC3"
    },
    {
      "bufferView": 1,
      "byteOffset": 134208,
      "componentType": 5126,
      "count": 26610,
      "max": [
        0.8750001192092896,
        1.0000001192092896
      ],
      "min": [
        0.1250000149011612,
        0.0
      ],
      "type": "VEC2"
    },
    {
      "bufferView": 0,
      "byteOffset": 113592,
      "componentType": 5125,
      "count": 39936,
      "type": "SCALAR"
    },
    {
      "bufferView": 2,
      "byteOffset": 1041264,
      "componentType": 5126,
      "count": 264,
      "max": [
        1.0,
        1.0,
        1.0
      ],
      "min": [
        -1.0,
        -1.0,
        -1.0
      ],
      "type": "VEC3"
    },
    {
      "bufferView": 2,
      "byteOffset": 1044432,
      "componentType": 5126,
      "count": 264,
      "max": [
        1.0,
        1.0,
        1.0
      ],
      "min": [
        -1.0,
        -1.0,
        -1.0
      ],
      "type": "VEC3"
    },
    {
      "bufferView": 1,
      "byteOffset": 347088,
      "componentType": 5126,
      "count": 264,
      "max": [
        1.0,
        1.0
      ],
      "min": [
        0.0,
        0.01000000536441803
      ],
      "type": "VEC2"
    },
    {
      "bufferView": 0,
      "byteOffset": 273336,
      "componentType": 5125,
      "count": 516,
      "type": "SCALAR"
    },
    {
      "bufferView": 2,
      "byteOffset": 1047600,
      "componentType": 5126,
      "count": 15347,
      "max": [
        0.9935953617095947,
        0.9935951828956604,
        1.0000003576278687
      ],
      "min": [
        -0.9935951828956604,
        -0.9935951828956604,
        -1.0000004768371582
      ],
      "type": "VEC3"
    },
    {
      "bufferView": 2,
      "byteOffset": 1231764,
      "componentType": 5126,
      "count": 15347,
      "max": [
        0.9996978640556335,
        0.9996978640556335,
        1.0
      ],
      "min": [
        -0.9996978640556335,
        -0.9996978044509888,
        -1.0
      ],
      "type": "VEC3"
    },
    {
      "bufferView": 1,
      "byteOffset": 349200,
      "componentType": 5126,
      "count": 15347,
      "max": [
        1.0000001192092896,
        1.0000001192092896
      ],
      "min": [
        0.0,
        0.010000006295740604
      ],
      "type": "VEC2"
    },
    {
      "bufferView": 0,
      "byteOffset": 275400,
      "componentType": 5125,
      "count": 23040,
      "type": "SCALAR"
    },
    {
      "bufferView": 2,
      "byteOffset": 1415928,
      "componentType": 5126,
      "count": 1896,
      "max": [
        0.9916901588439941,
        1.0459152460098267,
        1.0545340776443481
      ],
      "min": [
        -1.010411024093628,
        -0.9624062180519104,
        -0.986689567565918
      ],
      "type": "VEC3"
    },
    {
      "bufferView": 2,
      "byteOffset": 1438680,
      "componentType": 5126,
      "count": 1896,
      "max": [
        1.0,
        0.9992648363113403,
        0.9999858736991882
      ],
      "min": [
        -1.0,
        -0.9992678165435791,
        -0.9999902844429016
      ],
      "type": "VEC3"
    },
    {
      "bufferView": 1,
      "byteOffset": 471976,
      "componentType": 5126,
      "count": 1896,
      "max": [
        0.870416522026062,
        0.9998824000358582
      ],
      "min": [
        0.00011763022484956309,
        0.00011763022484956309
      ],
      "type": "VEC2"
    },
    {
      "bufferView": 0,
      "byteOffset": 367560,
      "componentType": 5125,
      "count": 2928,
      "type": "SCALAR"
    },
    {
      "bufferView": 2,
      "byteOffset": 1461432,
      "componentType": 5126,
      "count": 130,
      "max": [
        1.0,
        1.0,
        1.0
      ],
      "min": [
        -1.0,
        -1.0,
        -1.0
      ],
      "type": "VEC3"
    },
    {
      "bufferView": 2,
      "byteOffset": 1462992,
      "componentType": 5126,
      "count": 130,
      "max": [
        0.7278809547424316,
        0.7278809547424316,
        0.6857142448425293
      ],
      "min": [
        -0.7278809547424316,
        -0.7278809547424316,
        -0.6857142448425293
      ],
      "type": "VEC3"
    },
    {
      "bufferView": 1,
      "byteOffset": 487144,
      "componentType": 5126,
      "count": 130,
      "max": [
        1.0,
        1.0
      ],
      "min": [
        0.0,
        0.01000000536441803
      ],
      "type": "VEC2"
    },
    {
      "bufferView": 0,
      "byteOffset": 379272,
      "componentType": 5125,
      "count": 372,
      "type": "SCALAR"
    },
    {
      "bufferView": 2,
      "byteOffset": 1464552,
      "componentType": 5126,
      "count": 559,
      "max": [
        0.7262378931045532,
        0.7290124893188477,
        7.262383460998535
      ],
      "min": [
        -0.7262388467788696,
        -0.7290127277374268,
        -7.262380123138428
      ],
      "type": "VEC3"
    },
    {
      "bufferView": 2,
      "byteOffset": 1471260,
      "componentType": 5126,
      "count": 559,
      "max": [
        0.9999611377716064,
        1.0,
        0.9214434027671814
      ],
      "min": [
        -0.9999611377716064,
        -1.0,
        -0.9214434027671814
      ],
      "type": "VEC3"
    },
    {
      "bufferView": 1,
      "byteOffset": 488184,
      "componentType": 5126,
      "count": 559,
      "max": [
        1.000000238418579,
        1.0
      ],
      "min": [
        0.0,
        0.0
      ],
      "type": "VEC2"
    },
    {
      "bufferView": 0,
      "byteOffset": 380760,
      "componentType": 5125,
      "count": 2880,
      "type": "SCALAR"
    },
    {
      "bufferView": 2,
      "byteOffset": 1477968,
      "componentType": 5126,
      "count": 192,
      "max": [
        1.0,
        1.0,
        1.0
      ],
      "min": [
        -1.0,
        -1.0,
        -1.0
      ],
      "type": "VEC3"
    },
    {
      "bufferView": 2,
      "byteOffset": 1480272,
      "componentType": 5126,
      "count": 192,
      "max": [
        0.9951848387718201,
        0.9951847791671753,
        1.0
      ],
      "min": [
        -0.9951848983764648,
        -0.9951848387718201,
        -1.0
      ],
      "type": "VEC3"
    },
    {
      "bufferView": 1,
      "byteOffset": 492656,
      "componentType": 5126,
      "count": 192,
      "max": [
        1.0,
        1.0
      ],
      "min": [
        0.0,
        0.01000000536441803
      ],
      "type": "VEC2"
    },
    {
      "bufferView": 0,
      "byteOffset": 392280,
      "componentType": 5125,
      "count": 372,
      "type": "SCALAR"
    },
    {
      "bufferView": 2,
      "byteOffset": 1482576,
      "componentType": 5126,
      "count": 24,
      "max": [
        1.0,
        1.0,
        1.0
      ],
      "min": [
        -1.0,
        -1.0,
        -1.0
      ],
      "type": "VEC3"
    },
    {
      "bufferView": 2,
      "byteOffset": 1482864,
      "componentType": 5126,
      "count": 24,
      "max": [
        1.0,
        1.0,
        1.0
      ],
      "min": [
        -1.0,
        -1.0,
        -1.0
      ],
      "type": "VEC3"
    },
    {
      "bufferView": 1,
      "byteOffset": 494192,
      "componentType": 5126,
      "count": 24,
      "max": [
        0.875,
        1.0
      ],
      "min": [
        0.125,
        0.0
      ],
      "type": "VEC2"
    },
    {
      "bufferView": 0,
      "byteOffset": 393768,
      "componentType": 5125,
      "count": 36,
      "type": "SCALAR"
    },
    {
      "bufferView": 2,
      "byteOffset": 1483152,
      "componentType": 5126,
      "count": 192,
      "max": [
        1.0,
        1.0,
        1.0
      ],
      "min": [
        -1.0,
        -1.0,
        -1.0
      ],
      "type": "VEC3"
    },
    {
      "bufferView": 2,
      "byteOffset": 1485456,
      "componentType": 5126,
      "count": 192,
      "max": [
        0.9951848387718201,
        0.9951847791671753,
        1.0
      ],
      "min": [
        -0.9951848983764648,
        -0.9951848387718201,
        -1.0
      ],
      "type": "VEC3"
    },
    {
      "bufferView": 1,
      "byteOffset": 494384,
      "componentType": 5126,
      "count": 192,
      "max": [
        1.0,
        1.0
      ],
      "min": [
        0.0,
        0.01000000536441803
      ],
      "type": "VEC2"
    },
    {
      "bufferView": 0,
      "byteOffset": 393912,
      "componentType": 5125,
      "count": 372,
      "type": "SCALAR"
    },
    {
      "bufferView": 2,
      "byteOffset": 1487760,
      "componentType": 5126,
      "count": 192,
      "max": [
        1.0,
        1.0,
        1.0
      ],
      "min": [
        -1.0,
        -1.0,
        -1.0
      ],
      "type": "VEC3"
    },
    {
      "bufferView": 2,
      "byteOffset": 1490064,
      "componentType": 5126,
      "count": 192,
      "max": [
        0.9951848387718201,
        0.9951847791671753,
        1.0
      ],
      "min": [
        -0.9951848983764648,
        -0.9951848387718201,
        -1.0
      ],
      "type": "VEC3"
    },
    {
      "bufferView": 1,
      "byteOffset": 495920,
      "componentType": 5126,
      "count": 192,
      "max": [
        1.0,
        1.0
      ],
      "min": [
        0.0,
        0.01000000536441803
      ],
      "type": "VEC2"
    },
    {
      "bufferView": 0,
      "byteOffset": 395400,
      "componentType": 5125,
      "count": 372,
      "type": "SCALAR"
    },
    {
      "bufferView": 2,
      "byteOffset": 1492368,
      "componentType": 5126,
      "count": 1740,
      "max": [
        1.1714879274368286,
        1.1714876890182495,
        0.928244948387146
      ],
      "min": [
        -1.1714876890182495,
        -1.1714879274368286,
        -1.0
      ],
      "type": "VEC3"
    },
    {
      "bufferView": 2,
      "byteOffset": 1513248,
      "componentType": 5126,
      "count": 1740,
      "max": [
        0.9951848387718201,
        1.0,
        1.0
      ],
      "min": [
        -0.9977557063102722,
        -1.0,
        -1.0
      ],
      "type": "VEC3"
    },
    {
      "bufferView": 1,
      "byteOffset": 497456,
      "componentType": 5126,
      "count": 1740,
      "max": [
        1.0,
        1.0
      ],
      "min": [
        0.0,
        0.01000000536441803
      ],
      "type": "VEC2"
    },
    {
      "bufferView": 0,
      "byteOffset": 396888,
      "componentType": 5125,
      "count": 2652,
      "type": "SCALAR"
    }
  ],
  "asset": {
    "extras": {
      "author": "KXVXN (https://sketchfab.com/kxvxn)",
      "license": "CC-BY-4.0 (http://creativecommons.org/licenses/by/4.0/)",
      "source": "https://sketchfab.com/3d-models/cad02-low-poly-star-trek-phaser-gun-2f0f10c3144b4b78895ad602575afd87",
      "title": "CAD02 - Low Poly Star Trek Phaser Gun"
    },
    "generator": "Sketchfab-12.66.0",
    "version": "2.0"
  },
  "bufferViews": [
    {
      "buffer": 0,
      "byteLength": 407496,
      "name": "floatBufferViews",
      "target": 34963
    },
    {
      "buffer": 0,
      "byteLength": 511376,
      "byteOffset": 407496,
      "byteStride": 8,
      "name": "floatBufferViews",
      "target": 34962
    },
    {
      "buffer": 0,
      "byteLength": 1534128,
      "byteOffset": 918872,
      "byteStride": 12,
      "name": "floatBufferViews",
      "target": 34962
    }
  ],
  "buffers": [
    {
      "byteLength": 2453000,
      "uri": "scene.bin"
    }
  ],
  "materials": [
    {
      "doubleSided": true,
      "name": "Plastic",
      "pbrMetallicRoughness": {
        "baseColorFactor": [
          0.0,
          0.0,
          0.0,
          1.0
        ],
        "metallicFactor": 0.0,
        "roughnessFactor": 0.2
      }
    },
    {
      "doubleSided": true,
      "name": "Plastic.001",
      "pbrMetallicRoughness": {
        "baseColorFactor": [
          0.07238493493010542,
          0.10174380902241612,
          0.20674319903235897,
          1.0
        ],
        "metallicFactor": 0.0,
        "roughnessFactor": 0.8
      }
    },
    {
      "doubleSided": true,
      "name": "Metal_Shader",
      "pbrMetallicRoughness": {
        "roughnessFactor": 0.3
      }
    },
    {
      "doubleSided": true,
      "name": "Metal_Shader.001",
      "pbrMetallicRoughness": {
        "baseColorFactor": [
          1.0,
          0.4993498347008153,
          0.03282970664197667,
          1.0
        ],
        "roughnessFactor": 0.3
      }
    },
    {
      "doubleSided": true,
      "emissiveFactor": [
        1.0,
        0.0,
        0.0
      ],
      "name": "Glass",
      "pbrMetallicRoughness": {
        "baseColorFactor": [
          1.0,
          0.0,
          0.0,
          1.0
        ],
        "metallicFactor": 0.0,
        "roughnessFactor": 0.0
      }
    },
    {
      "doubleSided": true,
      "name": "Glass.001",
      "pbrMetallicRoughness": {
        "baseColorFactor": [
          1.0,
          0.8314080283365595,
          0.5190816593712904,
          1.0
        ],
        "metallicFactor": 0.0,
        "roughnessFactor": 0.7
      }
    },
    {
      "doubleSided": true,
      "name": "Plastic.002",
      "pbrMetallicRoughness": {
        "baseColorFactor": [
          0.8,
          0.8,
          0.8,
          1.0
        ],
        "metallicFactor": 0.0,
        "roughnessFactor": 0.8040408205773457
      }
    }
  ],
  "meshes": [
    {
      "name": "Magazine_Plastic_0",
      "primitives": [
        {
          "attributes": {
            "NORMAL": 1,
            "POSITION": 0,
            "TEXCOORD_0": 2
          },
          "indices": 3,
          "material": 0,
          "mode": 4
        }
      ]
    },
    {
      "name": "Body.001_Plastic.001_0",
      "primitives": [
        {
          "attributes": {
            "NORMAL": 5,
            "POSITION": 4,
            "TEXCOORD_0": 6
          },
          "indices": 7,
          "material": 1,
          "mode": 4
        }
      ]
    },
    {
      "name": "Body_Plastic.001_0",
      "primitives": [
        {
          "attributes": {
            "NORMAL": 9,
            "POSITION": 8,
            "TEXCOORD_0": 10
          },
          "indices": 11,
          "material": 1,
          "mode": 4
        }
      ]
    },
    {
      "name": "Barrel_Metal Shader_0",
      "primitives": [
        {
          "attributes": {
            "NORMAL": 13,
            "POSITION": 12,
            "TEXCOORD_0": 14
          },
          "indices": 15,
          "material": 2,
          "mode": 4
        }
      ]
    },
    {
      "name": "Metal Decoration_Metal Shader_0",
      "primitives": [
        {
          "attributes": {
            "NORMAL": 17,
            "POSITION": 16,
            "TEXCOORD_0": 18
          },
          "indices": 19,
          "material": 2,
          "mode": 4
        }
      ]
    },
    {
      "name": "Screw_Metal Shader.001_0",
      "primitives": [
        {
          "attributes": {
            "NORMAL": 21,
            "POSITION": 20,
            "TEXCOORD_0": 22
          },
          "indices": 23,
          "material": 3,
          "mode": 4
        }
      ]
    },
    {
      "name": "Trigger_Metal Shader_0",
      "primitives": [
        {
          "attributes": {
            "NORMAL": 25,
            "POSITION": 24,
            "TEXCOORD_0": 26
          },
          "indices": 27,
          "material": 2,
          "mode": 4
        }
      ]
    },
    {
      "name": "Phaser_Plastic_0",
      "primitives": [
        {
          "attributes": {
            "NORMAL": 29,
            "POSITION": 28,
            "TEXCOORD_0": 30
          },
          "indices": 31,
          "material": 0,
          "mode": 4
        }
      ]
    },
    {
      "name": "LED_Metal Shader_0",
      "primitives": [
        {
          "attributes": {
            "NORMAL": 33,
            "POSITION": 32,
            "TEXCOORD_0": 34
          },
          "indices": 35,
          "material": 2,
          "mode": 4
        }
      ]
    },
    {
      "name": "LED_Glass_0",
      "primitives": [
        {
          "attributes": {
            "NORMAL": 37,
            "POSITION": 36,
            "TEXCOORD_0": 38
          },
          "indices": 39,
          "material": 4,
          "mode": 4
        }
      ]
    },
    {
      "name": "Dial Glass_Glass.001_0",
      "primitives": [
        {
          "attributes": {
            "NORMAL": 41,
            "POSITION": 40,
            "TEXCOORD_0": 42
          },
          "indices": 43,
          "material": 5,
          "mode": 4
        }
      ]
    },
    {
      "name": "Dial Hold_Metal Shader_0",
      "primitives": [
        {
          "attributes": {
            "NORMAL": 45,
            "POSITION": 44,
            "TEXCOORD_0": 46
          },
          "indices": 47,
          "material": 2,
          "mode": 4
        }
      ]
    },
    {
      "name": "Dial_Plastic.002_0",
      "primitives": [
        {
          "attributes": {
            "NORMAL": 49,
            "POSITION": 48,
            "TEXCOORD_0": 50
          },
          "indices": 51,
          "material": 6,
          "mode": 4
        }
      ]
    },
    {
      "name": "Dial.001_Metal Shader.001_0",
      "primitives": [
        {
          "attributes": {
            "NORMAL": 53,
            "POSITION": 52,
            "TEXCOORD_0": 54
          },
          "indices": 55,
          "material": 3,
          "mode": 4
        }
      ]
    },
    {
      "name": "Grej_Plastic_0",
      "primitives": [
        {
          "attributes": {
            "NORMAL": 57,
            "POSITION": 56,
            "TEXCOORD_0": 58
          },
          "indices": 59,
          "material": 0,
          "mode": 4
        }
      ]
    }
  ],
  "nodes": [
    {
      "children": [
        1
      ],
      "matrix": [
        1.0,
        0.0,
        0.0,
        0.0,
        0.0,
        2.220446049250313e-16,
        -1.0,
        0.0,
        0.0,
        1.0,
        2.220446049250313e-16,
        0.0,
        0.0,
        0.0,
        0.0,
        1.0
      ],
      "name": "Sketchfab_model"
    },
    {
      "children": [
        2
      ],
      "matrix": [
        1.0,
        0.0,
        0.0,
        0.0,
        0.0,
        0.0,
        1.0,
        0.0,
        0.0,
        -1.0,
        0.0,
        0.0,
        0.0,
        0.0,
        0.0,
        1.0
      ],
      "name": "92923d7c598a4bf29a4674986d0c1901.fbx"
    },
    {
      "children": [
        3,
        5,
        7,
        9,
        11,
        13,
        15,
        17,
        19,
        21,
        24,
        26,
        28,
        30,
        32,
        35
      ],
      "name": "RootNode"
    },
    {
      "children": [
        4
      ],
      "matrix": [
        67.12197865821906,
        -17.708481198475514,
        71.97950871358337,
        0.0,
        12.077155694968344,
        98.41955199864745,
        12.951160906504732,
        0.0,
        -73.13536948063474,
        1.8761571934922117e-06,
        68.19983673683565,
        0.0,
        -1260.4407958984375,
        320.35498046875,
        -1370.2332763671875,
        1.0
      ],
      "name": "Camera.001"
    },
    {
      "name": "Object_4"
    },
    {
      "children": [
        6
      ],
      "matrix": [
        31.83217105031478,
        10.342899655767287,
        4.4135448210149326e-07,
        0.0,
        -1.9608913985140322e-07,
        1.3790581660720701e-06,
        -18.17477226257319,
        0.0,
        -30.29404683196767,
        93.23548643573301,
        7.401330292153537e-06,
        0.0,
        -9.820120811462402,
        -59.41523361206055,
        72.8985595703125,
        1.0
      ],
      "name": "Magazine"
    },
    {
      "mesh": 0,
      "name": "Magazine_Plastic_0"
    },
    {
      "children": [
        8
      ],
      "matrix": [
        9.871834754943848,
        0.0,
        0.0,
        0.0,
        0.0,
        -1.9299912612178676e-06,
        -11.846201896667324,
        0.0,
        0.0,
        9.871834754943718,
        -1.6083260251193452e-06,
        0.0,
        9.803068161010742,
        45.28960418701172,
        91.38970184326172,
        1.0
      ],
      "name": "Body.001"
    },
    {
      "mesh": 1,
      "name": "Body.001_Plastic.001_0"
    },
    {
      "children": [
        10
      ],
      "matrix": [
        27.790868759155273,
        0.0,
        0.0,
        0.0,
        0.0,
        -3.1952950623746886e-06,
        -19.6125812530515,
        0.0,
        0.0,
        11.055201530456397,
        -1.8011209441555944e-06,
        0.0,
        144.60719299316406,
        99.07421112060547,
        70.58745574951172,
        1.0
      ],
      "name": "Body"
    },
    {
      "mesh": 2,
      "name": "Body_Plastic.001_0"
    },
    {
      "children": [
        12
      ],
      "matrix": [
        -2.873245238268359e-06,
        -10.184119224547935,
        1.6959965472931892e-15,
        0.0,
        -1.69596431725734e-06,
        4.773102705341685e-13,
        -10.409754753112654,
        0.0,
        10.1841192245478,
        -2.8732452405296875e-06,
        -1.6592036230708268e-06,
        0.0,
        -214.77000427246094,
        76.78662872314453,
        71.34052276611328,
        1.0
      ],
      "name": "Barrel"
    },
    {
      "mesh": 3,
      "name": "Barrel_Metal Shader_0"
    },
    {
      "children": [
        14
      ],
      "matrix": [
        41.87248229980469,
        0.0,
        0.0,
        0.0,
        0.0,
        -4.4488313583672685e-06,
        -27.306732177734013,
        0.0,
        0.0,
        2.339508533477752,
        -3.811543197171876e-07,
        0.0,
        155.48411560058594,
        89.7104721069336,
        71.69776916503906,
        1.0
      ],
      "name": "Metal Decoration"
    },
    {
      "mesh": 4,
      "name": "Metal Decoration_Metal Shader_0"
    },
    {
      "children": [
        16
      ],
      "matrix": [
        5.099728107452393,
        0.0,
        0.0,
        0.0,
        0.0,
        5.099728107452387,
        2.229161954616427e-07,
        0.0,
        0.0,
        -6.687484821688572e-08,
        1.5299181938171371,
        0.0,
        94.73372650146484,
        112.5204086303711,
        91.4959716796875,
        1.0
      ],
      "name": "Screw"
    },
    {
      "mesh": 5,
      "name": "Screw_Metal Shader.001_0"
    },
    {
      "children": [
        18
      ],
      "matrix": [
        4.685015596608217,
        -5.583384218689681,
        0.0,
        0.0,
        -2.4405746881040036e-07,
        -2.0478853035332056e-07,
        -7.2885899543762145,
        0.0,
        5.583384218689676,
        4.6850155966082125,
        -3.185944193489081e-07,
        0.0,
        -89.64226531982422,
        30.05461311340332,
        70.91554260253906,
        1.0
      ],
      "name": "Trigger"
    },
    {
      "mesh": 6,
      "name": "Trigger_Metal Shader_0"
    },
    {
      "children": [
        20
      ],
      "matrix": [
        98.21855926513484,
        8.586540557774278e-06,
        -1.717307692823972e-05,
        0.0,
        7.548172703180075e-06,
        -1.2179694883281022e-05,
        43.17051315307379,
        0.0,
        2.0357020515350357e-06,
        -23.2857265472402,
        -6.569601307579334e-06,
        0.0,
        -17.917675018310547,
        117.44334411621094,
        70.92422485351563,
        1.0
      ],
      "name": "Phaser"
    },
    {
      "mesh": 7,
      "name": "Phaser_Plastic_0"
    },
    {
      "children": [
        22,
        23
      ],
      "matrix": [
        4.080732842779321,
        -0.3570184342767061,
        -1.358301176350633e-06,
        0.0,
        1.2639589997896326e-06,
        -2.804359109352941e-07,
        3.8710117340085723,
        0.0,
        -0.033753193508997546,
        -0.38580014945131896,
        -1.6928278147654115e-08,
        0.0,
        2.992065668106079,
        138.72073364257813,
        74.38672637939453,
        1.0
      ],
      "name": "LED"
    },
    {
      "mesh": 8,
      "name": "LED_Metal Shader_0"
    },
    {
      "mesh": 9,
      "name": "LED_Glass_0"
    },
    {
      "children": [
        25
      ],
      "matrix": [
        -1.2080614138184453,
        -17.276073735904934,
        -1.5140104508886342e-06,
        0.0,
        -20.865782525973742,
        1.459078441321945,
        5.884634920660304e-06,
        0.0,
        -1.6227550992624568e-06,
        6.314521024551248e-07,
        -5.910543918609362,
        0.0,
        3.3940906524658203,
        136.1784210205078,
        56.22242736816406,
        1.0
      ],
      "name": "Dial Glass"
    },
    {
      "mesh": 10,
      "name": "Dial Glass_Glass.001_0"
    },
    {
      "children": [
        27
      ],
      "matrix": [
        -0.18906133386238225,
        -2.703702807689946,
        1.0609469604058384e-07,
        0.0,
        1.6866553468897565e-06,
        2.1808543391837988e-07,
        8.563288688659501,
        0.0,
        -22.355499631869304,
        1.5632489516008805,
        4.363405521291092e-06,
        0.0,
        3.3940906524658203,
        137.1161651611328,
        56.22242736816406,
        1.0
      ],
      "name": "Dial Hold"
    },
    {
      "mesh": 11,
      "name": "Dial Hold_Metal Shader_0"
    },
    {
      "children": [
        29
      ],
      "matrix": [
        -1.1797461148275252,
        -16.871146314479283,
        -1.4785241270131064e-06,
        0.0,
        -20.297287388104984,
        1.4193253671859465,
        5.724306685603551e-06,
        0.0,
        -1.4718524794079314e-06,
        5.727323014347972e-07,
        -5.360912322997813,
        0.0,
        3.3940906524658203,
        136.1784210205078,
        56.22242736816406,
        1.0
      ],
      "name": "Dial"
    },
    {
      "mesh": 12,
      "name": "Dial_Plastic.002_0"
    },
    {
      "children": [
        31
      ],
      "matrix": [
        -1.1793470979178151,
        -16.865440109914537,
        -1.478024056599076e-06,
        0.0,
        -18.793227761040107,
        1.3141512155057342,
        5.3001269213755736e-06,
        0.0,
        -9.629573960046216e-07,
        3.747092954718125e-07,
        -3.5073692798612974,
        0.0,
        3.1387641429901123,
        136.1784210205078,
        93.78612518310547,
        1.0
      ],
      "name": "Dial.001"
    },
    {
      "mesh": 13,
      "name": "Dial.001_Metal Shader.001_0"
    },
    {
      "children": [
        33
      ],
      "matrix": [
        100.0,
        0.0,
        0.0,
        0.0,
        0.0,
        99.99999999999972,
        -7.5497901264043296e-06,
        0.0,
        0.0,
        7.5497901264043296e-06,
        99.99999999999972,
        0.0,
        -634.7787475585938,
        172.3682098388672,
        -695.1243896484375,
        1.0
      ],
      "name": "Point"
    },
    {
      "children": [
        34
      ],
      "matrix": [
        1.0,
        0.0,
        0.0,
        0.0,
        0.0,
        2.220446049250313e-16,
        1.0,
        0.0,
        0.0,
        -1.0,
        2.220446049250313e-16,
        0.0,
        0.0,
        0.0,
        0.0,
        1.0
      ],
      "name": "Object_33"
    },
    {
      "name": "Object_34"
    },
    {
      "children": [
        36
      ],
      "matrix": [
        14.489001456502717,
        -0.7593364656571716,
        -7.641178116373038e-08,
        0.0,
        -1.0596567328438834e-07,
        -6.090294356576359e-07,
        -14.040747642517076,
        0.0,
        0.512782027725986,
        9.784462991857225,
        -4.282794205723716e-07,
        0.0,
        107.69409942626953,
        129.7454071044922,
        71.6629867553711,
        1.0
      ],
      "name": "Grej"
    },
    {
      "mesh": 14,
      "name": "Grej_Plastic_0"
    }
  ],
  "scene": 0,
  "scenes": [
    {
      "name": "Sketchfab_Scene",
      "nodes": [
        0
      ]
    }
  ]
}
