{
  "accessors": [
    {
      "bufferView": 3,
      "componentType": 5126,
      "count": 42961,
      "max": [
        37.40409469604492,
        92.63932800292969,
        10.052942276000977
      ],
      "min": [
        -37.40409469604492,
        -0.09342361241579056,
        -9.334190368652344
      ],
      "type": "VEC3"
    },
    {
      "bufferView": 3,
      "byteOffset": 515532,
      "componentType": 5126,
      "count": 42961,
      "max": [
        1.0,
        1.0,
        1.0
      ],
      "min": [
        -1.0,
        -1.0,
        -1.0
      ],
      "type": "VEC3"
    },
    {
      "bufferView": 2,
      "componentType": 5126,
      "count": 42961,
      "max": [
        1.0,
        1.0
      ],
      "min": [
        0.0,
        0.0
      ],
      "type": "VEC2"
    },
    {
      "bufferView": 1,
      "componentType": 5125,
      "count": 98928,
      "type": "SCALAR"
    },
    {
      "bufferView": 3,
      "byteOffset": 1031064,
      "componentType": 5126,
      "count": 3104,
      "max": [
        32.359256744384766,
        77.88555908203125,
        4.338479995727539
      ],
      "min": [
        -32.359256744384766,
        6.754950046539307,
        -4.994300365447998
      ],
      "type": "VEC3"
    },
    {
      "bufferView": 3,
      "byteOffset": 1068312,
      "componentType": 5126,
      "count": 3104,
      "max": [
        0.9999242424964905,
        0.9997677803039551,
        0.9999509453773499
      ],
      "min": [
        -0.9999240040779114,
        -0.9999902248382568,
        -0.9999389052391052
      ],
      "type": "VEC3"
    },
    {
      "bufferView": 2,
      "byteOffset": 343688,
      "componentType": 5126,
      "count": 3104,
      "max": [
        1.0,
        1.0
      ],
      "min": [
        0.0,
        0.0019529999699443579
      ],
      "type": "VEC2"
    },
    {
      "bufferView": 1,
      "byteOffset": 395712,
      "componentType": 5125,
      "count": 8784,
      "type": "SCALAR"
    },
    {
      "bufferView": 3,
      "byteOffset": 1105560,
      "componentType": 5126,
      "count": 41,
      "max": [
        3.8964295387268066,
        87.57925415039063,
        5.648046970367432
      ],
      "min": [
        -4.243969440460205,
        86.49870300292969,
        3.0268871784210205
      ],
      "type": "VEC3"
    },
    {
      "bufferView": 3,
      "byteOffset": 1106052,
      "componentType": 5126,
      "count": 41,
      "max": [
        0.8838839530944824,
        0.38724759221076965,
        0.988034725189209
      ],
      "min": [
        -0.9280632138252258,
        -0.5385552644729614,
        0.37088853120803833
      ],
      "type": "VEC3"
    },
    {
      "bufferView": 2,
      "byteOffset": 368520,
      "componentType": 5126,
      "count": 41,
      "max": [
        0.9358087778091431,
        0.8073729276657104
      ],
      "min": [
        0.06071186065673828,
        0.16393348574638367
      ],
      "type": "VEC2"
    },
    {
      "bufferView": 1,
      "byteOffset": 430848,
      "componentType": 5125,
      "count": 114,
      "type": "SCALAR"
    },
    {
      "bufferView": 3,
      "byteOffset": 1106544,
      "componentType": 5126,
      "count": 20,
      "max": [
        3.5029964447021484,
        69.27916717529297,
        6.738791465759277
      ],
      "min": [
        -3.5645387172698975,
        65.76416778564453,
        6.046706676483154
      ],
      "type": "VEC3"
    },
    {
      "bufferView": 3,
      "byteOffset": 1106784,
      "componentType": 5126,
      "count": 20,
      "max": [
        0.13902397453784943,
        -0.007267029024660587,
        0.9992331862449646
      ],
      "min": [
        -0.6053977608680725,
        -0.6981416940689087,
        0.38221949338912964
      ],
      "type": "VEC3"
    },
    {
      "bufferView": 2,
      "byteOffset": 368848,
      "componentType": 5126,
      "count": 20,
      "max": [
        0.9951626062393188,
        0.9801186919212341
      ],
      "min": [
        0.018406616523861885,
        -0.008046824485063553
      ],
      "type": "VEC2"
    },
    {
      "bufferView": 1,
      "byteOffset": 431304,
      "componentType": 5125,
      "count": 72,
      "type": "SCALAR"
    },
    {
      "bufferView": 3,
      "byteOffset": 1107024,
      "componentType": 5126,
      "count": 188,
      "max": [
        3.03863263130188,
        85.18635559082031,
        3.835756540298462
      ],
      "min": [
        -3.3987693786621094,
        77.21638488769531,
        -2.705353260040283
      ],
      "type": "VEC3"
    },
    {
      "bufferView": 3,
      "byteOffset": 1109280,
      "componentType": 5126,
      "count": 188,
      "max": [
        0.9978321194648743,
        0.959158182144165,
        0.9985997080802917
      ],
      "min": [
        -0.9977126717567444,
        -0.2035805583000183,
        -0.9984489679336548
      ],
      "type": "VEC3"
    },
    {
      "bufferView": 4,
      "componentType": 5126,
      "count": 188,
      "max": [
        0.9988983869552612,
        0.5108023881912231,
        0.9555175304412842,
        1.0
      ],
      "min": [
        -0.9985717535018921,
        -0.538236141204834,
        -0.9657713174819946,
        1.0
      ],
      "type": "VEC4"
    },
    {
      "bufferView": 2,
      "byteOffset": 369008,
      "componentType": 5126,
      "count": 188,
      "max": [
        -15.382320404052734,
        16.481929779052734
      ],
      "min": [
        -15.626709938049316,
        16.433109283447266
      ],
      "type": "VEC2"
    },
    {
      "bufferView": 1,
      "byteOffset": 431592,
      "componentType": 5125,
      "count": 924,
      "type": "SCALAR"
    },
    {
      "bufferView": 5,
      "componentType": 5126,
      "count": 53,
      "max": [
        1.0004327297210693,
        0.9941444396972656,
        0.8264814019203186,
        0.0,
        0.8264815211296082,
        1.0,
        0.9952573776245117,
        0.0,
        0.9941443800926208,
        0.9828400015830994,
        1.0000001192092896,
        0.0,
        60.623321533203125,
        61.058128356933594,
        23.26124382019043,
        1.0
      ],
      "min": [
        -0.978271484375,
        -0.9941443204879761,
        -0.8378570675849915,
        0.0,
        -0.8378573060035706,
        -0.9998833537101746,
        -0.7490909695625305,
        0.0,
        -0.9941443800926208,
        -0.03669989854097366,
        -0.9999726414680481,
        0.0,
        -60.38178634643555,
        -82.77257537841797,
        -78.73124694824219,
        1.0
      ],
      "type": "MAT4"
    },
    {
      "bufferView": 0,
      "componentType": 5123,
      "count": 42961,
      "type": "VEC4"
    },
    {
      "bufferView": 4,
      "byteOffset": 3008,
      "componentType": 5126,
      "count": 42961,
      "max": [
        1.0,
        0.49995630979537964,
        0.321722149848938,
        0.19234882295131683
      ],
      "min": [
        0.3104614317417145,
        0.0,
        0.0,
        0.0
      ],
      "type": "VEC4"
    },
    {
      "bufferView": 0,
      "byteOffset": 343688,
      "componentType": 5123,
      "count": 3104,
      "type": "VEC4"
    },
    {
      "bufferView": 4,
      "byteOffset": 690384,
      "componentType": 5126,
      "count": 3104,
      "max": [
        1.0,
        0.498914897441864,
        0.047170139849185944,
        0.0
      ],
      "min": [
        0.501085102558136,
        0.0,
        0.0,
        0.0
      ],
      "type": "VEC4"
    },
    {
      "bufferView": 0,
      "byteOffset": 368520,
      "componentType": 5123,
      "count": 41,
      "type": "VEC4"
    },
    {
      "bufferView": 4,
      "byteOffset": 740048,
      "componentType": 5126,
      "count": 41,
      "max": [
        1.0,
        0.0,
        0.0,
        0.0
      ],
      "min": [
        1.0,
        0.0,
        0.0,
        0.0
      ],
      "type": "VEC4"
    },
    {
      "bufferView": 0,
      "byteOffset": 368848,
      "componentType": 5123,
      "count": 20,
      "type": "VEC4"
    },
    {
      "bufferView": 4,
      "byteOffset": 740704,
      "componentType": 5126,
      "count": 20,
      "max": [
        0.6867929100990295,
        0.4703644812107086,
        0.22014281153678894,
        0.0
      ],
      "min": [
        0.45914286375045776,
        0.25360459089279175,
        0.02680906653404236,
        0.0
      ],
      "type": "VEC4"
    },
    {
      "bufferView": 0,
      "byteOffset": 369008,
      "componentType": 5123,
      "count": 188,
      "type": "VEC4"
    },
    {
      "bufferView": 4,
      "byteOffset": 741024,
      "componentType": 5126,
      "count": 188,
      "max": [
        1.0,
        0.47384029626846313,
        0.25130024552345276,
        0.0
      ],
      "min": [
        0.4468269646167755,
        0.0,
        0.0,
        0.0
      ],
      "type": "VEC4"
    }
  ],
  "asset": {
    "extras": {
      "author": "SpiritedSpy (https://sketchfab.com/SpiritedSpy)",
      "license": "CC-BY-4.0 (http://creativecommons.org/licenses/by/4.0/)",
      "source": "https://sketchfab.com/3d-models/phase-3-dark-trooper-star-wars-the-mandalorian-942e52cd3a1241089dc351f318eec283",
      "title": "Phase 3 Dark Trooper [Star Wars The Mandalorian]"
    },
    "generator": "Sketchfab-12.66.0",
    "version": "2.0"
  },
  "bufferViews": [
    {
      "buffer": 0,
      "byteLength": 370512,
      "byteStride": 8,
      "name": "shortBufferViews",
      "target": 34962
    },
    {
      "buffer": 0,
      "byteLength": 435288,
      "byteOffset": 370512,
      "name": "floatBufferViews",
      "target": 34963
    },
    {
      "buffer": 0,
      "byteLength": 370512,
      "byteOffset": 805800,
      "byteStride": 8,
      "name": "floatBufferViews",
      "target": 34962
    },
    {
      "buffer": 0,
      "byteLength": 1111536,
      "byteOffset": 1176312,
      "byteStride": 12,
      "name": "floatBufferViews",
      "target": 34962
    },
    {
      "buffer": 0,
      "byteLength": 744032,
      "byteOffset": 2287848,
      "byteStride": 16,
      "name": "floatBufferViews",
      "target": 34962
    },
    {
      "buffer": 0,
      "byteLength": 3392,
      "byteOffset": 3031880,
      "name": "floatBufferViews"
    }
  ],
  "buffers": [
    {
      "byteLength": 3035272,
      "uri": "scene.bin"
    }
  ],
  "images": [
    {
      "uri": "textures/RedGlow_baseColor.png"
    },
    {
      "uri": "textures/Panel_baseColor.png"
    },
    {
      "uri": "textures/Panel_emissive.png"
    },
    {
      "uri": "textures/Neck_baseColor.png"
    },
    {
      "uri": "textures/Neck_normal.png"
    }
  ],
  "materials": [
    {
      "doubleSided": true,
      "name": "BlackGloss",
      "pbrMetallicRoughness": {
        "baseColorFactor": [
          0.0193824,
          0.0193824,
          0.0193824,
          1.0
        ],
        "metallicFactor": 0.5,
        "roughnessFactor": 0.0
      }
    },
    {
      "doubleSided": true,
      "name": "Silver",
      "pbrMetallicRoughness": {
        "baseColorFactor": [
          0.3564,
          0.3564,
          0.3564,
          1.0
        ],
        "metallicFactor": 0.5,
        "roughnessFactor": 0.0
      }
    },
    {
      "doubleSided": true,
      "emissiveFactor": [
        1.0,
        1.0,
        1.0
      ],
      "emissiveTexture": {
        "index": 0
      },
      "name": "RedGlow",
      "pbrMetallicRoughness": {
        "baseColorTexture": {
          "index": 0
        },
        "metallicFactor": 0.0,
        "roughnessFactor": 0.7763932022500211
      }
    },
    {
      "doubleSided": true,
      "emissiveFactor": [
        1.0,
        1.0,
        1.0
      ],
      "emissiveTexture": {
        "index": 2
      },
      "name": "Panel",
      "pbrMetallicRoughness": {
        "baseColorTexture": {
          "index": 1
        },
        "metallicFactor": 0.5,
        "roughnessFactor": 0.0
      }
    },
    {
      "doubleSided": true,
      "name": "Neck",
      "normalTexture": {
        "index": 4
      },
      "pbrMetallicRoughness": {
        "baseColorTexture": {
          "index": 3
        },
        "metallicFactor": 0.5,
        "roughnessFactor": 0.0
      }
    }
  ],
  "meshes": [
    {
      "name": "Body_BlackGloss_0",
      "primitives": [
        {
          "attributes": {
            "JOINTS_0": 22,
            "NORMAL": 1,
            "POSITION": 0,
            "TEXCOORD_0": 2,
            "WEIGHTS_0": 23
          },
          "indices": 3,
          "material": 0,
          "mode": 4
        }
      ]
    },
    {
      "name": "Body_Silver_0",
      "primitives": [
        {
          "attributes": {
            "JOINTS_0": 24,
            "NORMAL": 5,
            "POSITION": 4,
            "TEXCOORD_0": 6,
            "WEIGHTS_0": 25
          },
          "indices": 7,
          "material": 1,
          "mode": 4
        }
      ]
    },
    {
      "name": "Body_RedGlow_0",
      "primitives": [
        {
          "attributes": {
            "JOINTS_0": 26,
            "NORMAL": 9,
            "POSITION": 8,
            "TEXCOORD_0": 10,
            "WEIGHTS_0": 27
          },
          "indices": 11,
          "material": 2,
          "mode": 4
        }
      ]
    },
    {
      "name": "Body_Panel_0",
      "primitives": [
        {
          "attributes": {
            "JOINTS_0": 28,
            "NORMAL": 13,
            "POSITION": 12,
            "TEXCOORD_0": 14,
            "TEXCOORD_1": 14,
            "WEIGHTS_0": 29
          },
          "indices": 15,
          "material": 3,
          "mode": 4
        }
      ]
    },
    {
      "name": "Body_Neck_0",
      "primitives": [
        {
          "attributes": {
            "JOINTS_0": 30,
            "NORMAL": 17,
            "POSITION": 16,
            "TANGENT": 18,
            "TEXCOORD_0": 19,
            "WEIGHTS_0": 31
          },
          "indices": 20,
          "material": 4,
          "mode": 4
        }
      ]
    }
  ],
  "nodes": [
    {
      "children": [
        1
      ],
      "matrix": [
        1.0,
        0.0,
        0.0,
        0.0,
        0.0,
        2.220446049250313e-16,
        -1.0,
        0.0,
        0.0,
        1.0,
        2.220446049250313e-16,
        0.0,
        0.0,
        0.0,
        0.0,
        1.0
      ],
      "name": "Sketchfab_model"
    },
    {
      "children": [
        2
      ],
      "matrix": [
        1.0,
        0.0,
        0.0,
        0.0,
        0.0,
        0.0,
        1.0,
        0.0,
        0.0,
        -1.0,
        0.0,
        0.0,
        0.0,
        0.0,
        0.0,
        1.0
      ],
      "name": "DarkTrooper.fbx"
    },
    {
      "children": [
        3
      ],
      "name": "RootNode"
    },
    {
      "children": [
        4
      ],
      "matrix": [
        1.0,
        0.0,
        0.0,
        0.0,
        0.0,
        -1.6292067939183141e-07,
        -0.9999999999999868,
        0.0,
        0.0,
        0.9999999999999868,
        -1.6292067939183141e-07,
        0.0,
        0.0,
        0.0,
        0.0,
        1.0
      ],
      "name": "Armature"
    },
    {
      "children": [
        5,
        59,
        60,
        61,
        62,
        63,
        58
      ],
      "name": "Object_4"
    },
    {
      "children": [
        6
      ],
      "name": "_rootJoint"
    },
    {
      "children": [
        7,
        50,
        54
      ],
      "name": "Hips_01",
      "rotation": [
        0.7071068286895752,
        0.0,
        0.0,
        0.7071067094802856
      ],
      "translation": [
        0.0,
        1.159602403640747,
        62.89995193481445
      ]
    },
    {
      "children": [
        8
      ],
      "name": "Spine_02",
      "rotation": [
        0.0515068918466568,
        1.1905103747267276e-07,
        6.140097763562835e-09,
        0.9986726641654968
      ],
      "scale": [
        1.0,
        0.9999999403953552,
        0.9999999403953552
      ],
      "translation": [
        0.0,
        5.116031169891357,
        -7.477865437977016e-09
      ]
    },
    {
      "children": [
        9,
        11,
        31
      ],
      "name": "Chest_03",
      "rotation": [
        -0.027570266276597977,
        -1.1916397113509447e-07,
        -3.2866329657821325e-09,
        0.9996199607849121
      ],
      "scale": [
        1.0,
        0.9999999403953552,
        1.0
      ],
      "translation": [
        2.842170943040401e-14,
        3.131366729736328,
        7.152557373046875e-07
      ]
    },
    {
      "children": [
        10
      ],
      "name": "Neck_04",
      "rotation": [
        0.08901026099920273,
        7.15628321575415e-15,
        2.521971779022715e-16,
        0.9960308074951172
      ],
      "scale": [
        1.0,
        1.0,
        0.9999999403953552
      ],
      "translation": [
        8.046812998915853e-21,
        8.795954704284668,
        3.5762786865234375e-07
      ]
    },
    {
      "name": "Head_05",
      "rotation": [
        -0.11284336447715759,
        1.984273205524559e-22,
        -2.117626039475464e-22,
        0.9936128854751587
      ],
      "translation": [
        1.846241681720999e-21,
        2.9305968284606934,
        3.427267074584961e-07
      ]
    },
    {
      "children": [
        12
      ],
      "name": "Left shoulder_06",
      "rotation": [
        0.5658109188079834,
        0.5073633193969727,
        0.4836183190345764,
        -0.4342280328273773
      ],
      "translation": [
        3.9738638401031494,
        8.0556640625,
        0.012459278106689453
      ]
    },
    {
      "children": [
        13
      ],
      "name": "Left arm_07",
      "rotation": [
        -0.34557029604911804,
        -0.36094188690185547,
        0.18066616356372833,
        0.8471493721008301
      ],
      "scale": [
        0.9999998807907104,
        0.9999999403953552,
        0.9999999403953552
      ],
      "translation": [
        -2.682209014892578e-07,
        7.912562370300293,
        -2.8014183044433594e-06
      ]
    },
    {
      "children": [
        14
      ],
      "name": "Left elbow_00",
      "rotation": [
        -0.021596407517790794,
        0.06560324132442474,
        -0.09859174489974976,
        0.9927282929420471
      ],
      "scale": [
        1.0,
        0.9999999403953552,
        1.0
      ],
      "translation": [
        3.680586814880371e-06,
        16.212400436401367,
        5.364418029785156e-06
      ]
    },
    {
      "children": [
        15,
        18,
        21,
        24,
        27
      ],
      "name": "Left wrist_08",
      "rotation": [
        -0.027055734768509865,
        -0.008957094512879848,
        -0.016336020082235336,
        0.9994603991508484
      ],
      "scale": [
        0.9999998807907104,
        1.0,
        1.0000001192092896
      ],
      "translation": [
        -2.0265579223632813e-06,
        12.632866859436035,
        5.960464477539063e-07
      ]
    },
    {
      "children": [
        16
      ],
      "name": "Mixamorig_LeftHandThumb1_09",
      "rotation": [
        -0.2731952965259552,
        -0.1119275912642479,
        -0.14157362282276154,
        0.9448775053024292
      ],
      "scale": [
        1.0000001192092896,
        0.9999998807907104,
        1.0
      ],
      "translation": [
        0.8132624626159668,
        2.005688428878784,
        -1.1989505290985107
      ]
    },
    {
      "children": [
        17
      ],
      "name": "Mixamorig_LeftHandThumb2_010",
      "rotation": [
        0.003672369522973895,
        -0.3175504207611084,
        0.14809459447860718,
        0.9365982413291931
      ],
      "scale": [
        1.0,
        1.0,
        1.0000001192092896
      ],
      "translation": [
        -1.9073486328125e-06,
        1.9793596267700195,
        3.0994415283203125e-06
      ]
    },
    {
      "name": "Mixamorig_LeftHandThumb3_011",
      "rotation": [
        0.13661566376686096,
        0.09879899024963379,
        -0.013300682418048382,
        0.9855952858924866
      ],
      "scale": [
        0.9999999403953552,
        0.9999999403953552,
        1.0
      ],
      "translation": [
        -2.5033950805664063e-06,
        1.9530539512634277,
        1.9073486328125e-06
      ]
    },
    {
      "children": [
        19
      ],
      "name": "Mixamorig_LeftHandIndex1_012",
      "rotation": [
        -0.01828240044414997,
        -0.013421704061329365,
        -0.003019005758687854,
        0.9997382164001465
      ],
      "scale": [
        0.9999998211860657,
        0.9999999403953552,
        0.9999998807907104
      ],
      "translation": [
        1.3152203559875488,
        5.350009918212891,
        -1.2821202278137207
      ]
    },
    {
      "children": [
        20
      ],
      "name": "Mixamorig_LeftHandIndex2_013",
      "rotation": [
        -0.051045309752225876,
        -0.08557064831256866,
        0.04126209020614624,
        0.9941677451133728
      ],
      "scale": [
        0.9999999403953552,
        0.9999999403953552,
        1.0
      ],
      "translation": [
        1.6689300537109375e-06,
        2.015918493270874,
        -9.5367431640625e-07
      ]
    },
    {
      "name": "Mixamorig_LeftHandIndex3_014",
      "rotation": [
        -0.08047028630971909,
        -0.18495367467403412,
        0.11013603955507278,
        0.9732351899147034
      ],
      "scale": [
        1.0,
        1.0,
        1.0000001192092896
      ],
      "translation": [
        -1.430511474609375e-06,
        1.9704052209854126,
        1.430511474609375e-06
      ]
    },
    {
      "children": [
        22
      ],
      "name": "Mixamorig_LeftHandMiddle1_015",
      "rotation": [
        -0.01269775815308094,
        -0.05114782974123955,
        0.043422047048807144,
        0.9976658821105957
      ],
      "scale": [
        1.0,
        0.9999998807907104,
        0.9999999403953552
      ],
      "translation": [
        0.5270705223083496,
        5.682064533233643,
        -0.2590756416320801
      ]
    },
    {
      "children": [
        23
      ],
      "name": "Mixamorig_LeftHandMiddle2_016",
      "rotation": [
        -0.05296384543180466,
        -0.08967989683151245,
        0.05114559456706047,
        0.993245542049408
      ],
      "scale": [
        1.0,
        0.9999999403953552,
        1.0
      ],
      "translation": [
        4.0531158447265625e-06,
        2.211545944213867,
        -1.1920928955078125e-06
      ]
    },
    {
      "name": "Mixamorig_LeftHandMiddle3_017",
      "rotation": [
        -0.07042907178401947,
        -0.17196467518806458,
        0.11652678996324539,
        0.9756482243537903
      ],
      "scale": [
        0.9999999403953552,
        0.9999999403953552,
        0.9999999403953552
      ],
      "translation": [
        1.9073486328125e-06,
        1.9677248001098633,
        -4.76837158203125e-07
      ]
    },
    {
      "children": [
        25
      ],
      "name": "Mixamorig_LeftHandRing1_018",
      "rotation": [
        0.11118096858263016,
        0.020414235070347786,
        0.0849713385105133,
        0.9899504780769348
      ],
      "scale": [
        0.9999999403953552,
        1.0,
        0.9999998807907104
      ],
      "translation": [
        -0.32945501804351807,
        5.594982147216797,
        0.3192722797393799
      ]
    },
    {
      "children": [
        26
      ],
      "name": "Mixamorig_LeftHandRing2_019",
      "rotation": [
        -0.18005980551242828,
        -0.2880212068557739,
        0.24379099905490875,
        0.9083986878395081
      ],
      "scale": [
        1.0000001192092896,
        1.0,
        1.0
      ],
      "translation": [
        2.384185791015625e-06,
        2.389065980911255,
        -5.960464477539063e-07
      ]
    },
    {
      "name": "Mixamorig_LeftHandRing3_020",
      "rotation": [
        -0.023680781945586205,
        -0.16108915209770203,
        0.1515297293663025,
        0.9749504923820496
      ],
      "scale": [
        0.9999998807907104,
        0.9999997615814209,
        0.9999999403953552
      ],
      "translation": [
        -5.424022674560547e-06,
        2.1750497817993164,
        -5.960464477539063e-07
      ]
    },
    {
      "children": [
        28
      ],
      "name": "Mixamorig_LeftHandPinky1_021",
      "rotation": [
        0.052711136639118195,
        -0.0579095296561718,
        0.11384063214063644,
        0.990408182144165
      ],
      "scale": [
        0.9999998807907104,
        0.9999998211860657,
        0.9999998807907104
      ],
      "translation": [
        -1.4278773069381714,
        5.220576286315918,
        1.31393563747406
      ]
    },
    {
      "children": [
        29
      ],
      "name": "Mixamorig_LeftHandPinky2_022",
      "rotation": [
        -0.1500004231929779,
        -0.3226575553417206,
        0.2874402105808258,
        0.8892525434494019
      ],
      "scale": [
        1.0000001192092896,
        1.0000001192092896,
        0.9999998807907104
      ],
      "translation": [
        2.9802322387695313e-06,
        2.074014663696289,
        -3.6954879760742188e-06
      ]
    },
    {
      "children": [
        30
      ],
      "name": "Mixamorig_LeftHandPinky3_023",
      "rotation": [
        -0.010058358311653137,
        -0.05335857719182968,
        0.04766739159822464,
        0.9973863363265991
      ],
      "scale": [
        0.9999999403953552,
        0.9999999403953552,
        0.9999999403953552
      ],
      "translation": [
        -7.292255759239197e-07,
        1.6729644536972046,
        2.086162567138672e-07
      ]
    },
    {
      "name": "Mixamorig_LeftHandPinky4_024",
      "rotation": [
        0.025035435333848,
        0.0002612459356896579,
        -0.0023933674674481153,
        0.999683678150177
      ],
      "scale": [
        1.0,
        1.0000001192092896,
        1.0
      ],
      "translation": [
        -5.513429641723633e-07,
        1.44617760181427,
        1.7763568394002505e-15
      ]
    },
    {
      "children": [
        32
      ],
      "name": "Right shoulder_025",
      "rotation": [
        0.5631400346755981,
        -0.5103228688240051,
        -0.4864392578601837,
        -0.4310692548751831
      ],
      "scale": [
        1.0,
        1.0000001192092896,
        1.0
      ],
      "translation": [
        -3.9738638401031494,
        8.057868003845215,
        0.05842697620391846
      ]
    },
    {
      "children": [
        33
      ],
      "name": "Right arm_026",
      "rotation": [
        -0.33483946323394775,
        0.35652321577072144,
        -0.199910506606102,
        0.8490050435066223
      ],
      "scale": [
        0.9999999403953552,
        1.0,
        1.0
      ],
      "translation": [
        7.897615432739258e-07,
        7.912564754486084,
        -1.0848045349121094e-05
      ]
    },
    {
      "children": [
        34
      ],
      "name": "Right elbow_027",
      "rotation": [
        -0.04182976856827736,
        -0.06490889191627502,
        0.11647313833236694,
        0.9901875257492065
      ],
      "translation": [
        -8.642673492431641e-07,
        16.21311378479004,
        -1.2516975402832031e-06
      ]
    },
    {
      "children": [
        35,
        38,
        41,
        44,
        47
      ],
      "name": "Right wrist_028",
      "rotation": [
        -0.02688693441450596,
        0.007573128677904606,
        0.01795870065689087,
        0.9994484782218933
      ],
      "scale": [
        0.9999998807907104,
        0.9999997615814209,
        1.0
      ],
      "translation": [
        2.1457672119140625e-06,
        12.67678165435791,
        -6.079673767089844e-06
      ]
    },
    {
      "children": [
        36
      ],
      "name": "Mixamorig_RightHandThumb1_029",
      "rotation": [
        -0.27795544266700745,
        0.11440880596637726,
        0.1470658779144287,
        0.9423497319221497
      ],
      "scale": [
        1.0,
        0.9999999403953552,
        1.0
      ],
      "translation": [
        -0.8903474807739258,
        2.0960068702697754,
        -1.280787467956543
      ]
    },
    {
      "children": [
        37
      ],
      "name": "Mixamorig_RightHandThumb2_030",
      "rotation": [
        0.031085234135389328,
        0.3283096253871918,
        -0.16459542512893677,
        0.9295992851257324
      ],
      "scale": [
        1.0,
        0.9999998807907104,
        0.9999998807907104
      ],
      "translation": [
        -1.7881393432617188e-06,
        2.0901808738708496,
        -1.1920928955078125e-06
      ]
    },
    {
      "name": "Mixamorig_RightHandThumb3_031",
      "rotation": [
        0.1157645732164383,
        -0.1167399138212204,
        0.030011925846338272,
        0.9859359264373779
      ],
      "scale": [
        0.9999998807907104,
        0.9999999403953552,
        0.9999999403953552
      ],
      "translation": [
        -3.5762786865234375e-06,
        1.9484763145446777,
        -1.9073486328125e-06
      ]
    },
    {
      "children": [
        39
      ],
      "name": "Mixamorig_RightHandIndex1_032",
      "rotation": [
        -0.02487323433160782,
        0.018414106220006943,
        0.0044246562756598,
        0.9995112419128418
      ],
      "translation": [
        -1.3228018283843994,
        5.757195949554443,
        -1.3061659336090088
      ]
    },
    {
      "children": [
        40
      ],
      "name": "Mixamorig_RightHandIndex2_033",
      "rotation": [
        -0.05006948858499527,
        0.0846519023180008,
        -0.03844248875975609,
        0.9944090247154236
      ],
      "scale": [
        0.9999999403953552,
        0.9999999403953552,
        0.9999999403953552
      ],
      "translation": [
        -4.0531158447265625e-06,
        1.8728115558624268,
        9.5367431640625e-07
      ]
    },
    {
      "name": "Mixamorig_RightHandIndex3_034",
      "rotation": [
        -0.09232088923454285,
        0.22291690111160278,
        -0.12895087897777557,
        0.9618507027626038
      ],
      "scale": [
        1.0,
        0.9999998211860657,
        1.0
      ],
      "translation": [
        -1.9073486328125e-06,
        1.8993029594421387,
        1.430511474609375e-06
      ]
    },
    {
      "children": [
        42
      ],
      "name": "Mixamorig_RightHandMiddle1_035",
      "rotation": [
        0.03452817350625992,
        0.016411632299423218,
        -0.05098883435130119,
        0.9979672431945801
      ],
      "scale": [
        0.9999999403953552,
        1.0,
        0.9999999403953552
      ],
      "translation": [
        -0.5625174045562744,
        5.933696269989014,
        -0.4382765293121338
      ]
    },
    {
      "children": [
        43
      ],
      "name": "Mixamorig_RightHandMiddle2_036",
      "rotation": [
        -0.084084153175354,
        0.13048583269119263,
        -0.07650605589151382,
        0.984911322593689
      ],
      "scale": [
        0.9999998807907104,
        0.9999997019767761,
        0.9999997615814209
      ],
      "translation": [
        -9.5367431640625e-07,
        1.9027512073516846,
        -4.5299530029296875e-06
      ]
    },
    {
      "name": "Mixamorig_RightHandMiddle3_037",
      "rotation": [
        -0.05857415869832039,
        0.1321604996919632,
        -0.09257100522518158,
        0.9851564764976501
      ],
      "scale": [
        1.0,
        0.9999998211860657,
        0.9999998807907104
      ],
      "translation": [
        2.1457672119140625e-06,
        2.0815439224243164,
        -1.9073486328125e-06
      ]
    },
    {
      "children": [
        45
      ],
      "name": "Mixamorig_RightHandRing1_038",
      "rotation": [
        0.014250289648771286,
        0.14014290273189545,
        -0.16354252398014069,
        0.9764275550842285
      ],
      "scale": [
        0.9999999403953552,
        1.0,
        1.0
      ],
      "translation": [
        0.31725525856018066,
        6.733025550842285,
        0.6543443202972412
      ]
    },
    {
      "children": [
        46
      ],
      "name": "Mixamorig_RightHandRing2_039",
      "rotation": [
        -0.09773183614015579,
        0.2505970597267151,
        -0.22154687345027924,
        0.9373188018798828
      ],
      "scale": [
        0.9999999403953552,
        0.9999999403953552,
        0.9999998807907104
      ],
      "translation": [
        1.7881393432617188e-06,
        2.062202215194702,
        -1.6689300537109375e-06
      ]
    },
    {
      "name": "Mixamorig_RightHandRing3_040",
      "rotation": [
        -0.011077321134507656,
        0.07881791889667511,
        -0.0703936368227005,
        0.994338870048523
      ],
      "scale": [
        0.9999999403953552,
        1.0,
        0.9999998807907104
      ],
      "translation": [
        1.1622905731201172e-06,
        1.7571567296981812,
        0.0
      ]
    },
    {
      "children": [
        48
      ],
      "name": "Mixamorig_RightHandPinky1_041",
      "rotation": [
        0.040933530777692795,
        0.11729668080806732,
        -0.1649855077266693,
        0.9784404635429382
      ],
      "translation": [
        1.2701325416564941,
        5.295514106750488,
        1.3983595371246338
      ]
    },
    {
      "children": [
        49
      ],
      "name": "Mixamorig_RightHandPinky2_042",
      "rotation": [
        -0.12017993628978729,
        0.28106632828712463,
        -0.25908955931663513,
        0.9162047505378723
      ],
      "scale": [
        1.0000001192092896,
        0.9999998807907104,
        0.9999998807907104
      ],
      "translation": [
        -2.384185791015625e-07,
        2.1262242794036865,
        -2.86102294921875e-06
      ]
    },
    {
      "name": "Mixamorig_RightHandPinky3_043",
      "rotation": [
        0.0005672756815329194,
        0.06642059236764908,
        -0.0608251690864563,
        0.9959359765052795
      ],
      "scale": [
        1.0,
        0.9999998807907104,
        0.9999999403953552
      ],
      "translation": [
        -1.691281795501709e-06,
        1.6722549200057983,
        4.172325134277344e-07
      ]
    },
    {
      "children": [
        51
      ],
      "name": "Left leg_044",
      "rotation": [
        0.9999242424964905,
        0.0069954064674675465,
        0.007146049756556749,
        -0.007180251646786928
      ],
      "scale": [
        1.0002975463867188,
        1.0000001192092896,
        1.0003050565719604
      ],
      "translation": [
        5.678164482116699,
        -1.7478182315826416,
        0.04482225701212883
      ]
    },
    {
      "children": [
        52
      ],
      "name": "Left knee_045",
      "rotation": [
        0.00718164537101984,
        -0.009604915045201778,
        0.009842174127697945,
        0.9998796582221985
      ],
      "scale": [
        0.9999999403953552,
        0.9999998807907104,
        1.0
      ],
      "translation": [
        8.456408977508545e-07,
        26.69950294494629,
        -1.2665987014770508e-07
      ]
    },
    {
      "children": [
        53
      ],
      "name": "Left ankle_046",
      "rotation": [
        -0.44935762882232666,
        0.11277797073125839,
        -0.11356045305728912,
        0.8788986802101135
      ],
      "scale": [
        0.9999998211860657,
        0.9999998211860657,
        0.9999998211860657
      ],
      "translation": [
        4.842877388000488e-07,
        28.3913631439209,
        -3.818422555923462e-07
      ]
    },
    {
      "name": "Left toe_047",
      "rotation": [
        0.10312595218420029,
        0.9375826716423035,
        -0.30117112398147583,
        0.13999906182289124
      ],
      "scale": [
        1.0,
        1.0000003576278687,
        1.0000001192092896
      ],
      "translation": [
        1.601874828338623e-07,
        9.987283706665039,
        -2.980232238769531e-07
      ]
    },
    {
      "children": [
        55
      ],
      "name": "Right leg_048",
      "rotation": [
        0.9999467730522156,
        -0.007023591548204422,
        -0.006925265770405531,
        -0.003018433228135109
      ],
      "scale": [
        0.9995269179344177,
        0.9999998211860657,
        0.9999160170555115
      ],
      "translation": [
        -5.678164482116699,
        -1.7478182315826416,
        -0.0028563346713781357
      ]
    },
    {
      "children": [
        56
      ],
      "name": "Right knee_049",
      "rotation": [
        0.011400538496673107,
        0.009644757024943829,
        -0.009868491441011429,
        0.9998399019241333
      ],
      "scale": [
        1.0,
        0.9999999403953552,
        1.0000001192092896
      ],
      "translation": [
        -1.1175870895385742e-07,
        26.697267532348633,
        1.341104507446289e-07
      ]
    },
    {
      "children": [
        57
      ],
      "name": "Right ankle_050",
      "rotation": [
        -0.4455258846282959,
        -0.11260572820901871,
        0.11346319317817688,
        0.8808817863464355
      ],
      "scale": [
        1.0,
        1.0,
        0.9999999403953552
      ],
      "translation": [
        8.288770914077759e-08,
        28.391475677490234,
        -7.82310962677002e-08
      ]
    },
    {
      "name": "Right toe_051",
      "rotation": [
        -0.10239962488412857,
        0.9362882375717163,
        -0.3054620325565338,
        -0.13989867269992828
      ],
      "scale": [
        1.0000001192092896,
        0.9999998211860657,
        0.9999999403953552
      ],
      "translation": [
        -7.525086402893066e-07,
        9.873343467712402,
        -7.152557373046875e-07
      ]
    },
    {
      "matrix": [
        1.0,
        0.0,
        0.0,
        0.0,
        0.0,
        6.123233995737004e-17,
        -1.0000000000000389,
        0.0,
        0.0,
        1.0000000000000389,
        6.123233995737004e-17,
        0.0,
        0.0,
        -2.764732016657945e-07,
        -7.478301977670299e-09,
        1.0
      ],
      "name": "Object_58"
    },
    {
      "mesh": 0,
      "name": "Object_59",
      "skin": 0
    },
    {
      "mesh": 1,
      "name": "Object_60",
      "skin": 0
    },
    {
      "mesh": 2,
      "name": "Object_61",
      "skin": 0
    },
    {
      "mesh": 3,
      "name": "Object_62",
      "skin": 0
    },
    {
      "mesh": 4,
      "name": "Object_63",
      "skin": 0
    }
  ],
  "samplers": [
    {
      "magFilter": 9729,
      "minFilter": 9987,
      "wrapS": 10497,
      "wrapT": 10497
    }
  ],
  "scene": 0,
  "scenes": [
    {
      "name": "Sketchfab_Scene",
      "nodes": [
        0
      ]
    }
  ],
  "skins": [
    {
      "inverseBindMatrices": 21,
      "joints": [
        5,
        6,
        7,
        8,
        9,
        10,
        11,
        12,
        13,
        14,
        15,
        16,
        17,
        18,
        19,
        20,
        21,
        22,
        23,
        24,
        25,
        26,
        27,
        28,
        29,
        30,
        31,
        32,
        33,
        34,
        35,
        36,
        37,
        38,
        39,
        40,
        41,
        42,
        43,
        44,
        45,
        46,
        47,
        48,
        49,
        50,
        51,
        52,
        53,
        54,
        55,
        56,
        57
      ],
      "skeleton": 5
    }
  ],
  "textures": [
    {
      "sampler": 0,
      "source": 0
    },
    {
      "sampler": 0,
      "source": 1
    },
    {
      "sampler": 0,
      "source": 2
    },
    {
      "sampler": 0,
      "source": 3
    },
    {
      "sampler": 0,
      "source": 4
    }
  ]
}
