{
  "accessors": [
    {
      "bufferView": 2,
      "componentType": 5126,
      "count": 1224,
      "max": [
        10.451748847961426,
        10.58202838897705,
        0.26350224018096924
      ],
      "min": [
        -10.45174503326416,
        -10.58202838897705,
        -0.26350224018096924
      ],
      "type": "VEC3"
    },
    {
      "bufferView": 2,
      "byteOffset": 14688,
      "componentType": 5126,
      "count": 1224,
      "max": [
        0.9999997615814209,
        0.999995768070221,
        0.9997994303703308
      ],
      "min": [
        -1.0,
        -0.999995768070221,
        -0.9997994303703308
      ],
      "type": "VEC3"
    },
    {
      "bufferView": 3,
      "componentType": 5126,
      "count": 1224,
      "max": [
        1.0,
        1.0,
        0.015046668238937855,
        1.0
      ],
      "min": [
        -0.0011133586522191763,
        -1.0,
        -0.025935187935829163,
        1.0
      ],
      "type": "VEC4"
    },
    {
      "bufferView": 1,
      "componentType": 5126,
      "count": 1224,
      "max": [
        0.8863527774810791,
        0.5580669641494751
      ],
      "min": [
        0.00390625,
        0.00390625
      ],
      "type": "VEC2"
    },
    {
      "bufferView": 0,
      "componentType": 5125,
      "count": 5400,
      "type": "SCALAR"
    },
    {
      "bufferView": 2,
      "byteOffset": 29376,
      "componentType": 5126,
      "count": 57,
      "max": [
        -8.664376258850098,
        0.8393199443817139,
        0.8393198251724243
      ],
      "min": [
        -62.3711051940918,
        -0.8393199443817139,
        -0.8393198251724243
      ],
      "type": "VEC3"
    },
    {
      "bufferView": 2,
      "byteOffset": 30060,
      "componentType": 5126,
      "count": 57,
      "max": [
        0.10554247349500656,
        0.9667630195617676,
        0.9667630791664124
      ],
      "min": [
        -0.8808073401451111,
        -0.9667630195617676,
        -0.9667630195617676
      ],
      "type": "VEC3"
    },
    {
      "bufferView": 1,
      "byteOffset": 9792,
      "componentType": 5126,
      "count": 57,
      "max": [
        1.9959561824798584,
        0.9936391115188599
      ],
      "min": [
        0.12060725688934326,
        0.6545682549476624
      ],
      "type": "VEC2"
    },
    {
      "bufferView": 0,
      "byteOffset": 21600,
      "componentType": 5125,
      "count": 186,
      "type": "SCALAR"
    },
    {
      "bufferView": 2,
      "byteOffset": 30744,
      "componentType": 5126,
      "count": 57,
      "max": [
        62.34548568725586,
        0.8393199443817139,
        0.8528751730918884
      ],
      "min": [
        8.638758659362793,
        -0.8393199443817139,
        -0.8393198251724243
      ],
      "type": "VEC3"
    },
    {
      "bufferView": 2,
      "byteOffset": 31428,
      "componentType": 5126,
      "count": 57,
      "max": [
        0.8808082938194275,
        0.963754415512085,
        0.9553477168083191
      ],
      "min": [
        -0.1352149397134781,
        -0.9659250974655151,
        -0.9659251570701599
      ],
      "type": "VEC3"
    },
    {
      "bufferView": 1,
      "byteOffset": 10248,
      "componentType": 5126,
      "count": 57,
      "max": [
        1.9521911144256592,
        0.9936391115188599
      ],
      "min": [
        0.0039062416180968285,
        0.6545029282569885
      ],
      "type": "VEC2"
    },
    {
      "bufferView": 0,
      "byteOffset": 22344,
      "componentType": 5125,
      "count": 186,
      "type": "SCALAR"
    },
    {
      "bufferView": 2,
      "byteOffset": 32112,
      "componentType": 5126,
      "count": 34,
      "max": [
        3.3137056827545166,
        1.0,
        1.0
      ],
      "min": [
        -3.3137056827545166,
        -1.0,
        -0.9999999403953552
      ],
      "type": "VEC3"
    },
    {
      "bufferView": 2,
      "byteOffset": 32520,
      "componentType": 5126,
      "count": 34,
      "max": [
        4.9105755017819774e-09,
        1.0,
        1.0
      ],
      "min": [
        -6.769861116140419e-09,
        -1.0,
        -1.0
      ],
      "type": "VEC3"
    },
    {
      "bufferView": 3,
      "byteOffset": 19584,
      "componentType": 5126,
      "count": 34,
      "max": [
        -1.0,
        7.530893526563887e-07,
        7.162958013395837e-07,
        1.0
      ],
      "min": [
        -1.0,
        -5.736079060625343e-07,
        -7.762234588426509e-08,
        1.0
      ],
      "type": "VEC4"
    },
    {
      "bufferView": 1,
      "byteOffset": 10704,
      "componentType": 5126,
      "count": 34,
      "max": [
        0.5723412036895752,
        0.7469273805618286
      ],
      "min": [
        0.30006545782089233,
        0.5658642649650574
      ],
      "type": "VEC2"
    },
    {
      "bufferView": 0,
      "byteOffset": 23088,
      "componentType": 5125,
      "count": 96,
      "type": "SCALAR"
    },
    {
      "bufferView": 2,
      "byteOffset": 32928,
      "componentType": 5126,
      "count": 616,
      "max": [
        11.488714218139648,
        1.2470881938934326,
        1.2474737167358398
      ],
      "min": [
        -11.488713264465332,
        -1.2482945919036865,
        -1.2471336126327515
      ],
      "type": "VEC3"
    },
    {
      "bufferView": 2,
      "byteOffset": 40320,
      "componentType": 5126,
      "count": 616,
      "max": [
        1.0,
        0.9999998211860657,
        1.0
      ],
      "min": [
        -1.0,
        -0.9999998807907104,
        -1.0
      ],
      "type": "VEC3"
    },
    {
      "bufferView": 3,
      "byteOffset": 20128,
      "componentType": 5126,
      "count": 616,
      "max": [
        1.0,
        1.0,
        0.9991675019264221,
        1.0
      ],
      "min": [
        -1.0,
        -1.0,
        -0.999161422252655,
        1.0
      ],
      "type": "VEC4"
    },
    {
      "bufferView": 1,
      "byteOffset": 10976,
      "componentType": 5126,
      "count": 616,
      "max": [
        1.98844575881958,
        0.8133020401000977
      ],
      "min": [
        0.00390625,
        0.009019315242767334
      ],
      "type": "VEC2"
    },
    {
      "bufferView": 0,
      "byteOffset": 23472,
      "componentType": 5125,
      "count": 1560,
      "type": "SCALAR"
    }
  ],
  "asset": {
    "extras": {
      "author": "Tatiana Sumarokova (https://sketchfab.com/Milight)",
      "license": "CC-BY-4.0 (http://creativecommons.org/licenses/by/4.0/)",
      "source": "https://sketchfab.com/3d-models/star-wars-lightsaber-792bd2f17b88410cb287f09e22267ee5",
      "title": "Star Wars_Lightsaber"
    },
    "generator": "Sketchfab-12.65.0",
    "version": "2.0"
  },
  "bufferViews": [
    {
      "buffer": 0,
      "byteLength": 29712,
      "name": "floatBufferViews",
      "target": 34963
    },
    {
      "buffer": 0,
      "byteLength": 15904,
      "byteOffset": 29712,
      "byteStride": 8,
      "name": "floatBufferViews",
      "target": 34962
    },
    {
      "buffer": 0,
      "byteLength": 47712,
      "byteOffset": 45616,
      "byteStride": 12,
      "name": "floatBufferViews",
      "target": 34962
    },
    {
      "buffer": 0,
      "byteLength": 29984,
      "byteOffset": 93328,
      "byteStride": 16,
      "name": "floatBufferViews",
      "target": 34962
    }
  ],
  "buffers": [
    {
      "byteLength": 123312,
      "uri": "scene.bin"
    }
  ],
  "images": [
    {
      "uri": "textures/lambert3_baseColor.png"
    },
    {
      "uri": "textures/lambert3_metallicRoughness.png"
    },
    {
      "uri": "textures/lambert3_emissive.png"
    },
    {
      "uri": "textures/lambert3_normal.png"
    },
    {
      "uri": "textures/lambert4_metallicRoughness.png"
    }
  ],
  "materials": [
    {
      "doubleSided": true,
      "emissiveFactor": [
        0.9899281932,
        0.9899281932,
        0.9899281932
      ],
      "emissiveTexture": {
        "index": 2
      },
      "name": "lambert3",
      "normalTexture": {
        "index": 3
      },
      "occlusionTexture": {
        "index": 1
      },
      "pbrMetallicRoughness": {
        "baseColorTexture": {
          "index": 0
        },
        "metallicRoughnessTexture": {
          "index": 1
        }
      }
    },
    {
      "alphaMode": "BLEND",
      "doubleSided": true,
      "emissiveFactor": [
        1.0,
        0.15729004476545222,
        0.08671484511776587
      ],
      "name": "lambert4",
      "occlusionTexture": {
        "index": 4
      },
      "pbrMetallicRoughness": {
        "baseColorFactor": [
          1.0,
          1.0,
          1.0,
          0.6887696161586683
        ],
        "baseColorTexture": {
          "index": 2
        },
        "metallicRoughnessTexture": {
          "index": 4
        },
        "roughnessFactor": 0.7307623321112184
      }
    }
  ],
  "meshes": [
    {
      "name": "_low_Disk_lambert3_0",
      "primitives": [
        {
          "attributes": {
            "NORMAL": 1,
            "POSITION": 0,
            "TANGENT": 2,
            "TEXCOORD_0": 3
          },
          "indices": 4,
          "material": 0,
          "mode": 4
        }
      ]
    },
    {
      "name": "_low_Laser_left_lambert4_0",
      "primitives": [
        {
          "attributes": {
            "NORMAL": 6,
            "POSITION": 5,
            "TEXCOORD_0": 7
          },
          "indices": 8,
          "material": 1,
          "mode": 4
        }
      ]
    },
    {
      "name": "_low_Laser_right_lambert4_0",
      "primitives": [
        {
          "attributes": {
            "NORMAL": 10,
            "POSITION": 9,
            "TEXCOORD_0": 11
          },
          "indices": 12,
          "material": 1,
          "mode": 4
        }
      ]
    },
    {
      "name": "_low_Handle_middle_lambert3_0",
      "primitives": [
        {
          "attributes": {
            "NORMAL": 14,
            "POSITION": 13,
            "TANGENT": 15,
            "TEXCOORD_0": 16
          },
          "indices": 17,
          "material": 0,
          "mode": 4
        }
      ]
    },
    {
      "name": "_low_Handle_lambert3_0",
      "primitives": [
        {
          "attributes": {
            "NORMAL": 19,
            "POSITION": 18,
            "TANGENT": 20,
            "TEXCOORD_0": 21
          },
          "indices": 22,
          "material": 0,
          "mode": 4
        }
      ]
    }
  ],
  "nodes": [
    {
      "children": [
        1
      ],
      "matrix": [
        1.0,
        0.0,
        0.0,
        0.0,
        0.0,
        2.220446049250313e-16,
        -1.0,
        0.0,
        0.0,
        1.0,
        2.220446049250313e-16,
        0.0,
        0.0,
        0.0,
        0.0,
        1.0
      ],
      "name": "Sketchfab_model"
    },
    {
      "children": [
        2
      ],
      "matrix": [
        1.0,
        0.0,
        0.0,
        0.0,
        0.0,
        0.0,
        1.0,
        0.0,
        0.0,
        -1.0,
        0.0,
        0.0,
        0.0,
        0.0,
        0.0,
        1.0
      ],
      "name": "9fe76261f30e41c2a1baac79757277e3.fbx"
    },
    {
      "children": [
        3,
        6,
        11,
        14
      ],
      "name": "RootNode"
    },
    {
      "children": [
        4
      ],
      "name": "Bakegroup_01"
    },
    {
      "children": [
        5
      ],
      "name": "_low_Disk"
    },
    {
      "mesh": 0,
      "name": "_low_Disk_lambert3_0"
    },
    {
      "children": [
        7,
        9
      ],
      "name": "Bakegroup_02"
    },
    {
      "children": [
        8
      ],
      "name": "_low_Laser_left"
    },
    {
      "mesh": 1,
      "name": "_low_Laser_left_lambert4_0"
    },
    {
      "children": [
        10
      ],
      "name": "_low_Laser_right"
    },
    {
      "mesh": 2,
      "name": "_low_Laser_right_lambert4_0"
    },
    {
      "children": [
        12
      ],
      "name": "Bakegroup_03"
    },
    {
      "children": [
        13
      ],
      "name": "_low_Handle_middle"
    },
    {
      "mesh": 3,
      "name": "_low_Handle_middle_lambert3_0"
    },
    {
      "children": [
        15
      ],
      "name": "Bakegroup_04"
    },
    {
      "children": [
        16
      ],
      "name": "_low_Handle"
    },
    {
      "mesh": 4,
      "name": "_low_Handle_lambert3_0"
    }
  ],
  "samplers": [
    {
      "magFilter": 9729,
      "minFilter": 9987,
      "wrapS": 10497,
      "wrapT": 10497
    }
  ],
  "scene": 0,
  "scenes": [
    {
      "name": "Sketchfab_Scene",
      "nodes": [
        0
      ]
    }
  ],
  "textures": [
    {
      "sampler": 0,
      "source": 0
    },
    {
      "sampler": 0,
      "source": 1
    },
    {
      "sampler": 0,
      "source": 2
    },
    {
      "sampler": 0,
      "source": 3
    },
    {
      "sampler": 0,
      "source": 4
    }
  ]
}
