{
  "accessors": [
    {
      "bufferView": 2,
      "componentType": 5126,
      "count": 1427,
      "max": [
        0.7421489953994751,
        0.6204360127449036,
        0.7437009811401367
      ],
      "min": [
        -0.7421489953994751,
        -1.0,
        -0.7437009811401367
      ],
      "type": "VEC3"
    },
    {
      "bufferView": 2,
      "byteOffset": 17124,
      "componentType": 5126,
      "count": 1427,
      "max": [
        1.0,
        1.0,
        0.9999696612358093
      ],
      "min": [
        -1.0,
        -1.0,
        -0.9999695420265198
      ],
      "type": "VEC3"
    },
    {
      "bufferView": 3,
      "componentType": 5126,
      "count": 1427,
      "max": [
        0.9999459385871887,
        0.9999696016311646,
        1.0,
        1.0
      ],
      "min": [
        -0.9999459385871887,
        -0.9999111294746399,
        -1.0,
        -1.0
      ],
      "type": "VEC4"
    },
    {
      "bufferView": 1,
      "componentType": 5126,
      "count": 1427,
      "max": [
        0.9953169822692871,
        0.9953479766845703
      ],
      "min": [
        0.004683239851146936,
        0.004652080126106739
      ],
      "type": "VEC2"
    },
    {
      "bufferView": 0,
      "componentType": 5125,
      "count": 5388,
      "type": "SCALAR"
    }
  ],
  "asset": {
    "extras": {
      "author": "LarsH. (https://sketchfab.com/LarsH.)",
      "license": "CC-BY-4.0 (http://creativecommons.org/licenses/by/4.0/)",
      "source": "https://sketchfab.com/3d-models/star-wars-thermal-detonator-798cbdf75a684885b7b9ab72945b856d",
      "title": "Star Wars Thermal Detonator"
    },
    "generator": "Sketchfab-15.40.0",
    "version": "2.0"
  },
  "bufferViews": [
    {
      "buffer": 0,
      "byteLength": 21552,
      "name": "floatBufferViews",
      "target": 34963
    },
    {
      "buffer": 0,
      "byteLength": 11416,
      "byteOffset": 21552,
      "byteStride": 8,
      "name": "floatBufferViews",
      "target": 34962
    },
    {
      "buffer": 0,
      "byteLength": 34248,
      "byteOffset": 32968,
      "byteStride": 12,
      "name": "floatBufferViews",
      "target": 34962
    },
    {
      "buffer": 0,
      "byteLength": 22832,
      "byteOffset": 67216,
      "byteStride": 16,
      "name": "floatBufferViews",
      "target": 34962
    }
  ],
  "buffers": [
    {
      "byteLength": 90048,
      "uri": "scene.bin"
    }
  ],
  "images": [
    {
      "uri": "textures/DefaultMaterial_baseColor.jpeg"
    },
    {
      "uri": "textures/DefaultMaterial_metallicRoughness.png"
    },
    {
      "uri": "textures/DefaultMaterial_emissive.jpeg"
    },
    {
      "uri": "textures/DefaultMaterial_normal.png"
    }
  ],
  "materials": [
    {
      "doubleSided": true,
      "emissiveTexture": {
        "index": 2
      },
      "name": "DefaultMaterial",
      "normalTexture": {
        "index": 3
      },
      "occlusionTexture": {
        "index": 1
      },
      "pbrMetallicRoughness": {
        "baseColorTexture": {
          "index": 0
        },
        "metallicRoughnessTexture": {
          "index": 1
        }
      }
    }
  ],
  "meshes": [
    {
      "name": "defaultMaterial",
      "primitives": [
        {
          "attributes": {
            "NORMAL": 1,
            "POSITION": 0,
            "TANGENT": 2,
            "TEXCOORD_0": 3
          },
          "indices": 4,
          "material": 0,
          "mode": 4
        }
      ]
    }
  ],
  "nodes": [
    {
      "children": [
        1
      ],
      "matrix": [
        1.0,
        0.0,
        0.0,
        0.0,
        0.0,
        2.220446049250313e-16,
        -1.0,
        0.0,
        0.0,
        1.0,
        2.220446049250313e-16,
        0.0,
        0.0,
        0.0,
        0.0,
        1.0
      ],
      "name": "Sketchfab_model"
    },
    {
      "children": [
        2
      ],
      "matrix": [
        1.0,
        0.0,
        0.0,
        0.0,
        0.0,
        -4.371139006309477e-08,
        0.999999999999999,
        0.0,
        0.0,
        -0.999999999999999,
        -4.371139006309477e-08,
        0.0,
        0.0,
        0.0,
        0.0,
        1.0
      ],
      "name": "Collada visual scene group"
    },
    {
      "children": [
        3
      ],
      "name": "Thermal"
    },
    {
      "mesh": 0,
      "name": "defaultMaterial"
    }
  ],
  "samplers": [
    {
      "magFilter": 9729,
      "minFilter": 9987,
      "wrapS": 10497,
      "wrapT": 10497
    }
  ],
  "scene": 0,
  "scenes": [
    {
      "name": "Sketchfab_Scene",
      "nodes": [
        0
      ]
    }
  ],
  "textures": [
    {
      "sampler": 0,
      "source": 0
    },
    {
      "sampler": 0,
      "source": 1
    },
    {
      "sampler": 0,
      "source": 2
    },
    {
      "sampler": 0,
      "source": 3
    }
  ]
}
