{"accessors": [{"bufferView": 3, "componentType": 5126, "count": 10499, "max": [6.235958576202393, 3.8317179679870605, 13.022418022155762], "min": [-6.235958576202393, -1.3157763481140137, -7.9987077713012695], "type": "VEC3"}, {"bufferView": 3, "byteOffset": 125988, "componentType": 5126, "count": 10499, "max": [1.0, 1.0, 1.0], "min": [-1.0, -1.0, -1.0], "type": "VEC3"}, {"bufferView": 4, "componentType": 5126, "count": 10499, "max": [1.0, 1.0, 1.0, 1.0], "min": [-1.0, -1.0, -1.0, -1.0], "type": "VEC4"}, {"bufferView": 2, "componentType": 5126, "count": 10499, "max": [0.7222021818161011, 0.4303966164588928], "min": [0.041744448244571686, 0.0024148300290107727], "type": "VEC2"}, {"bufferView": 1, "componentType": 5125, "count": 29622, "type": "SCALAR"}, {"bufferView": 3, "byteOffset": 251976, "componentType": 5126, "count": 6056, "max": [13.935175895690918, 0.9866635799407959, 3.202664852142334], "min": [-13.935175895690918, -13.8158540725708, -6.459383964538574], "type": "VEC3"}, {"bufferView": 3, "byteOffset": 324648, "componentType": 5126, "count": 6056, "max": [1.0, 1.0, 1.0], "min": [-1.0, -1.0, -1.0], "type": "VEC3"}, {"bufferView": 4, "byteOffset": 167984, "componentType": 5126, "count": 6056, "max": [1.0, 1.0, 1.0, 1.0], "min": [-1.0, -1.0, -1.0, -1.0], "type": "VEC4"}, {"bufferView": 2, "byteOffset": 83992, "componentType": 5126, "count": 6056, "max": [0.9990807771682739, 0.7283971905708313], "min": [0.7162779569625854, 0.0011832015588879585], "type": "VEC2"}, {"bufferView": 1, "byteOffset": 118488, "componentType": 5125, "count": 11880, "type": "SCALAR"}, {"bufferView": 3, "byteOffset": 397320, "componentType": 5126, "count": 2018, "max": [1.0747748613357544, 17.140111923217773, 7.11522102355957], "min": [-1.0747748613357544, 3.8113322257995605, -8.992340087890625], "type": "VEC3"}, {"bufferView": 3, "byteOffset": 421536, "componentType": 5126, "count": 2018, "max": [1.0, 1.0, 1.0], "min": [-1.0, -1.0, -1.0], "type": "VEC3"}, {"bufferView": 4, "byteOffset": 264880, "componentType": 5126, "count": 2018, "max": [1.0, 1.0, 1.0, 1.0], "min": [-1.0, -1.0, -1.0, -1.0], "type": "VEC4"}, {"bufferView": 2, "byteOffset": 132440, "componentType": 5126, "count": 2018, "max": [0.9964645504951477, 0.8499188423156738], "min": [0.5754945874214172, 0.41811051964759827], "type": "VEC2"}, {"bufferView": 1, "byteOffset": 166008, "componentType": 5125, "count": 3180, "type": "SCALAR"}, {"bufferView": 3, "byteOffset": 445752, "componentType": 5126, "count": 1536, "max": [5.775372505187988, -1.0642799139022827, 5.415897846221924], "min": [-5.775372505187988, -2.924574375152588, 1.1242364645004272], "type": "VEC3"}, {"bufferView": 3, "byteOffset": 464184, "componentType": 5126, "count": 1536, "max": [1.0, 1.0, 1.0], "min": [-1.0, -1.0, -0.9498004913330078], "type": "VEC3"}, {"bufferView": 4, "byteOffset": 297168, "componentType": 5126, "count": 1536, "max": [1.0, 0.9904425144195557, 0.976518452167511, 1.0], "min": [-1.0, -0.992051362991333, -1.0, -1.0], "type": "VEC4"}, {"bufferView": 2, "byteOffset": 148584, "componentType": 5126, "count": 1536, "max": [0.785352885723114, 0.0647384375333786], "min": [0.7292683720588684, 0.02177433855831623], "type": "VEC2"}, {"bufferView": 1, "byteOffset": 178728, "componentType": 5125, "count": 5592, "type": "SCALAR"}, {"bufferView": 3, "byteOffset": 482616, "componentType": 5126, "count": 428, "max": [5.925504207611084, -0.6660639047622681, -0.6685983538627625], "min": [-5.925504207611084, -1.0599570274353027, -2.1247920989990234], "type": "VEC3"}, {"bufferView": 3, "byteOffset": 487752, "componentType": 5126, "count": 428, "max": [1.0, 1.0, 1.0], "min": [-1.0, -1.0, -1.0], "type": "VEC3"}, {"bufferView": 4, "byteOffset": 321744, "componentType": 5126, "count": 428, "max": [1.0, 1.0, 1.0, 1.0], "min": [-1.0, -1.0, -1.0, -1.0], "type": "VEC4"}, {"bufferView": 2, "byteOffset": 160872, "componentType": 5126, "count": 428, "max": [0.4484608769416809, 0.4675601124763489], "min": [0.31615564227104187, 0.34530800580978394], "type": "VEC2"}, {"bufferView": 1, "byteOffset": 201096, "componentType": 5125, "count": 984, "type": "SCALAR"}, {"bufferView": 3, "byteOffset": 492888, "componentType": 5126, "count": 416, "max": [5.925504684448242, -0.6660641431808472, -1.8600636720657349], "min": [-5.925504684448242, -1.0599571466445923, -3.4593331813812256], "type": "VEC3"}, {"bufferView": 3, "byteOffset": 497880, "componentType": 5126, "count": 416, "max": [1.0, 1.0, 1.0], "min": [-1.0, -1.0, -1.0], "type": "VEC3"}, {"bufferView": 4, "byteOffset": 328592, "componentType": 5126, "count": 416, "max": [1.0, 1.0, 1.0, 1.0], "min": [-1.0, -1.0, -1.0, -1.0], "type": "VEC4"}, {"bufferView": 2, "byteOffset": 164296, "componentType": 5126, "count": 416, "max": [0.4484608769416809, 0.469764769077301], "min": [0.3252209424972534, 0.3616613745689392], "type": "VEC2"}, {"bufferView": 1, "byteOffset": 205032, "componentType": 5125, "count": 984, "type": "SCALAR"}, {"bufferView": 3, "byteOffset": 502872, "componentType": 5126, "count": 1152, "max": [6.732358932495117, -0.49433964490890503, -1.0295873880386353], "min": [-6.732358932495117, -2.985374927520752, -3.020827531814575], "type": "VEC3"}, {"bufferView": 3, "byteOffset": 516696, "componentType": 5126, "count": 1152, "max": [1.0, 1.0, 1.0], "min": [-1.0, -1.0, -1.0], "type": "VEC3"}, {"bufferView": 4, "byteOffset": 335248, "componentType": 5126, "count": 1152, "max": [1.0, 1.0, 1.0, 1.0], "min": [-1.0, -1.0, -1.0, -1.0], "type": "VEC4"}, {"bufferView": 2, "byteOffset": 167624, "componentType": 5126, "count": 1152, "max": [0.5824402570724487, 0.4301542639732361], "min": [0.4816380441188812, 0.37519901990890503], "type": "VEC2"}, {"bufferView": 1, "byteOffset": 208968, "componentType": 5125, "count": 2340, "type": "SCALAR"}, {"bufferView": 3, "byteOffset": 530520, "componentType": 5126, "count": 26, "max": [2.651604175567627, 2.350144147872925, 9.49991226196289], "min": [-2.651604175567627, 0.7412891387939453, 6.837688446044922], "type": "VEC3"}, {"bufferView": 3, "byteOffset": 530832, "componentType": 5126, "count": 26, "max": [0.8778451681137085, 0.9120500087738037, 0.41195061802864075], "min": [-0.8778451681137085, 0.405809611082077, 0.2543748915195465], "type": "VEC3"}, {"bufferView": 4, "byteOffset": 353680, "componentType": 5126, "count": 26, "max": [0.999471127986908, 0.4100792109966278, -0.014300214126706123, 1.0], "min": [-0.999471127986908, -0.7853018045425415, -0.9120500087738037, -1.0], "type": "VEC4"}, {"bufferView": 2, "byteOffset": 176840, "componentType": 5126, "count": 26, "max": [0.11316398531198502, 0.1649540662765503], "min": [0.06724832206964493, 0.12288308143615723], "type": "VEC2"}, {"bufferView": 1, "byteOffset": 218328, "componentType": 5125, "count": 72, "type": "SCALAR"}, {"bufferView": 3, "byteOffset": 531144, "componentType": 5126, "count": 1147, "max": [0.6170684099197388, 2.604665517807007, -6.400088310241699], "min": [-0.6170684099197388, 1.3705284595489502, -8.13916301727295], "type": "VEC3"}, {"bufferView": 3, "byteOffset": 544908, "componentType": 5126, "count": 1147, "max": [1.0, 1.0, 1.0], "min": [-1.0, -1.0, -1.0], "type": "VEC3"}, {"bufferView": 4, "byteOffset": 354096, "componentType": 5126, "count": 1147, "max": [1.0, 1.0, 0.9914482831954956, 1.0], "min": [-1.0, -1.0, -1.0, 1.0], "type": "VEC4"}, {"bufferView": 2, "byteOffset": 177048, "componentType": 5126, "count": 1147, "max": [0.2936524748802185, 0.38539642095565796], "min": [0.21602089703083038, 0.3377671241760254], "type": "VEC2"}, {"bufferView": 1, "byteOffset": 218616, "componentType": 5125, "count": 3552, "type": "SCALAR"}, {"bufferView": 3, "byteOffset": 558672, "componentType": 5126, "count": 50, "max": [1.116365671157837, 0.21843163669109344, 7.85306978225708], "min": [-1.116365671157837, 0.03803902864456177, 1.6764708757400513], "type": "VEC3"}, {"bufferView": 3, "byteOffset": 559272, "componentType": 5126, "count": 50, "max": [1.0, 1.0, 1.0], "min": [-1.0, -1.0, -1.0], "type": "VEC3"}, {"bufferView": 4, "byteOffset": 372448, "componentType": 5126, "count": 50, "max": [1.0, 1.0, 3.1544268495053984e-06, 1.0], "min": [-1.0, -1.0, -0.00012658661580644548, 1.0], "type": "VEC4"}, {"bufferView": 2, "byteOffset": 186224, "componentType": 5126, "count": 50, "max": [0.6787022948265076, 0.41871678829193115], "min": [0.606550931930542, 0.3078117370605469], "type": "VEC2"}, {"bufferView": 1, "byteOffset": 232824, "componentType": 5125, "count": 78, "type": "SCALAR"}, {"bufferView": 3, "byteOffset": 559872, "componentType": 5126, "count": 2514, "max": [2.8582024574279785, 3.0251619815826416, 9.451181411743164], "min": [-2.8582024574279785, 0.047371216118335724, -4.275515079498291], "type": "VEC3"}, {"bufferView": 3, "byteOffset": 590040, "componentType": 5126, "count": 2514, "max": [1.0, 1.0, 1.0], "min": [-1.0, -1.0, -1.0], "type": "VEC3"}, {"bufferView": 4, "byteOffset": 373248, "componentType": 5126, "count": 2514, "max": [1.0, 1.0, 1.0, 1.0], "min": [-1.0, -1.0, -1.0, -1.0], "type": "VEC4"}, {"bufferView": 2, "byteOffset": 186624, "componentType": 5126, "count": 2514, "max": [0.42875853180885315, 0.9978525042533875], "min": [0.006976477801799774, 0.6642779111862183], "type": "VEC2"}, {"bufferView": 1, "byteOffset": 233136, "componentType": 5125, "count": 5880, "type": "SCALAR"}, {"bufferView": 3, "byteOffset": 620208, "componentType": 5126, "count": 1470, "max": [1.931368350982666, 0.3292255401611328, 10.584091186523438], "min": [-1.9489104747772217, -0.6728568077087402, 9.359088897705078], "type": "VEC3"}, {"bufferView": 3, "byteOffset": 637848, "componentType": 5126, "count": 1470, "max": [0.9999315738677979, 0.9924578070640564, 0.9998515844345093], "min": [-0.9989500641822815, -0.9938925504684448, -0.9997791051864624], "type": "VEC3"}, {"bufferView": 4, "byteOffset": 413472, "componentType": 5126, "count": 1470, "max": [0.9999982714653015, 0.9993772506713867, 0.9997995495796204, 1.0], "min": [-0.9999890327453613, -0.9999666810035706, -0.9997422695159912, 1.0], "type": "VEC4"}, {"bufferView": 2, "byteOffset": 206736, "componentType": 5126, "count": 1470, "max": [0.0754084512591362, 0.053212475031614304], "min": [0.03872228413820267, 0.01998675987124443], "type": "VEC2"}, {"bufferView": 1, "byteOffset": 256656, "componentType": 5125, "count": 7272, "type": "SCALAR"}, {"bufferView": 3, "byteOffset": 655488, "componentType": 5126, "count": 504, "max": [4.412563323974609, 0.4007715582847595, -0.7246675491333008], "min": [-4.412563323974609, -1.0008805990219116, -3.4032630920410156], "type": "VEC3"}, {"bufferView": 3, "byteOffset": 661536, "componentType": 5126, "count": 504, "max": [1.0, 2.220446049250313e-16, 1.0], "min": [-1.0, -1.0, -1.0], "type": "VEC3"}, {"bufferView": 4, "byteOffset": 436992, "componentType": 5126, "count": 504, "max": [1.0, 0.95838862657547, 1.0, 1.0], "min": [-1.0, -0.95806884765625, -1.0, -1.0], "type": "VEC4"}, {"bufferView": 2, "byteOffset": 218496, "componentType": 5126, "count": 504, "max": [0.4409031271934509, 0.4200015664100647], "min": [0.4048314094543457, 0.3870454430580139], "type": "VEC2"}, {"bufferView": 1, "byteOffset": 285744, "componentType": 5125, "count": 2016, "type": "SCALAR"}, {"bufferView": 5, "componentType": 5126, "count": 17, "max": [1.0, 0.7271389961242676, 1.0, 0.0, 0.49917471408843994, 1.0, 1.0000001192092896, 0.0, 1.0, 1.0000001192092896, 1.0, 0.0, 5.176001071929932, 3.310229778289795, 5.176003456115723, 1.0], "min": [7.549790836947068e-08, -0.7271389961242676, -1.0, 0.0, -0.49917471408843994, -1.0000001192092896, -1.0, 0.0, -1.0, -1.0, -0.6864902377128601, 0.0, -5.176001071929932, -4.756586074829102, -2.9679055213928223, 1.0], "type": "MAT4"}, {"bufferView": 0, "componentType": 5123, "count": 10499, "type": "VEC4"}, {"bufferView": 4, "byteOffset": 445056, "componentType": 5126, "count": 10499, "max": [1.0, 0.0, 0.0, 0.0], "min": [1.0, 0.0, 0.0, 0.0], "type": "VEC4"}, {"bufferView": 0, "byteOffset": 83992, "componentType": 5123, "count": 6056, "type": "VEC4"}, {"bufferView": 4, "byteOffset": 613040, "componentType": 5126, "count": 6056, "max": [1.0, 0.0, 0.0, 0.0], "min": [1.0, 0.0, 0.0, 0.0], "type": "VEC4"}, {"bufferView": 0, "byteOffset": 132440, "componentType": 5123, "count": 2018, "type": "VEC4"}, {"bufferView": 4, "byteOffset": 709936, "componentType": 5126, "count": 2018, "max": [1.0, 0.0, 0.0, 0.0], "min": [1.0, 0.0, 0.0, 0.0], "type": "VEC4"}, {"bufferView": 0, "byteOffset": 148584, "componentType": 5123, "count": 1536, "type": "VEC4"}, {"bufferView": 4, "byteOffset": 742224, "componentType": 5126, "count": 1536, "max": [1.0, 0.0, 0.0, 0.0], "min": [1.0, 0.0, 0.0, 0.0], "type": "VEC4"}, {"bufferView": 0, "byteOffset": 160872, "componentType": 5123, "count": 428, "type": "VEC4"}, {"bufferView": 4, "byteOffset": 766800, "componentType": 5126, "count": 428, "max": [1.0, 0.0, 0.0, 0.0], "min": [1.0, 0.0, 0.0, 0.0], "type": "VEC4"}, {"bufferView": 0, "byteOffset": 164296, "componentType": 5123, "count": 416, "type": "VEC4"}, {"bufferView": 4, "byteOffset": 773648, "componentType": 5126, "count": 416, "max": [1.0, 0.0, 0.0, 0.0], "min": [1.0, 0.0, 0.0, 0.0], "type": "VEC4"}, {"bufferView": 0, "byteOffset": 167624, "componentType": 5123, "count": 1152, "type": "VEC4"}, {"bufferView": 4, "byteOffset": 780304, "componentType": 5126, "count": 1152, "max": [1.0, 0.0, 0.0, 0.0], "min": [1.0, 0.0, 0.0, 0.0], "type": "VEC4"}, {"bufferView": 0, "byteOffset": 176840, "componentType": 5123, "count": 26, "type": "VEC4"}, {"bufferView": 4, "byteOffset": 798736, "componentType": 5126, "count": 26, "max": [1.0, 0.0, 0.0, 0.0], "min": [1.0, 0.0, 0.0, 0.0], "type": "VEC4"}, {"bufferView": 0, "byteOffset": 177048, "componentType": 5123, "count": 1147, "type": "VEC4"}, {"bufferView": 4, "byteOffset": 799152, "componentType": 5126, "count": 1147, "max": [1.0, 0.0, 0.0, 0.0], "min": [1.0, 0.0, 0.0, 0.0], "type": "VEC4"}, {"bufferView": 0, "byteOffset": 186224, "componentType": 5123, "count": 50, "type": "VEC4"}, {"bufferView": 4, "byteOffset": 817504, "componentType": 5126, "count": 50, "max": [1.0, 0.0, 0.0, 0.0], "min": [1.0, 0.0, 0.0, 0.0], "type": "VEC4"}, {"bufferView": 0, "byteOffset": 186624, "componentType": 5123, "count": 2514, "type": "VEC4"}, {"bufferView": 4, "byteOffset": 818304, "componentType": 5126, "count": 2514, "max": [1.0, 0.0, 0.0, 0.0], "min": [1.0, 0.0, 0.0, 0.0], "type": "VEC4"}, {"bufferView": 0, "byteOffset": 206736, "componentType": 5123, "count": 1470, "type": "VEC4"}, {"bufferView": 4, "byteOffset": 858528, "componentType": 5126, "count": 1470, "max": [1.0, 0.0, 0.0, 0.0], "min": [1.0, 0.0, 0.0, 0.0], "type": "VEC4"}, {"bufferView": 0, "byteOffset": 218496, "componentType": 5123, "count": 504, "type": "VEC4"}, {"bufferView": 4, "byteOffset": 882048, "componentType": 5126, "count": 504, "max": [1.0, 0.0, 0.0, 0.0], "min": [1.0, 0.0, 0.0, 0.0], "type": "VEC4"}, {"bufferView": 6, "componentType": 5126, "count": 349, "max": [10.375], "min": [0.0], "type": "SCALAR"}, {"bufferView": 7, "componentType": 5126, "count": 349, "max": [-3.9843475818634033, 2.1346378326416016, 1.9039836161027779e-06], "min": [-3.984351396560669, 2.134636402130127, 1.588373379490804e-06], "type": "VEC3"}, {"bufferView": 6, "byteOffset": 1396, "componentType": 5126, "count": 4, "max": [10.375], "min": [0.0], "type": "SCALAR"}, {"bufferView": 7, "byteOffset": 4188, "componentType": 5126, "count": 4, "max": [1.0, 0.9999999403953552, 1.0], "min": [0.9999999403953552, 0.9999999403953552, 0.9999999403953552], "type": "VEC3"}, {"bufferView": 6, "byteOffset": 1412, "componentType": 5126, "count": 349, "max": [10.375], "min": [0.0], "type": "SCALAR"}, {"bufferView": 8, "componentType": 5126, "count": 349, "max": [0.5000000596046448, 0.7071067094802856, 0.49999767541885376, 0.7071068286895752], "min": [-0.49999773502349854, -0.4999999403953552, -0.5, -0.5], "type": "VEC4"}, {"bufferView": 6, "byteOffset": 2808, "componentType": 5126, "count": 349, "max": [10.375], "min": [0.0], "type": "SCALAR"}, {"bufferView": 7, "byteOffset": 4236, "componentType": 5126, "count": 349, "max": [5.176003456115723, 0.06372934579849243, -2.0064454078674316], "min": [5.176003456115723, 0.06372642517089844, -2.0064587593078613], "type": "VEC3"}, {"bufferView": 6, "byteOffset": 4384, "componentType": 5126, "count": 4, "max": [10.375], "min": [0.0], "type": "SCALAR"}, {"bufferView": 7, "byteOffset": 8964, "componentType": 5126, "count": 4, "max": [1.0, 1.0, 1.0000001192092896], "min": [1.0, 0.9999999403953552, 1.0], "type": "VEC3"}, {"bufferView": 6, "byteOffset": 4400, "componentType": 5126, "count": 349, "max": [10.375], "min": [0.0], "type": "SCALAR"}, {"bufferView": 8, "byteOffset": 5584, "componentType": 5126, "count": 349, "max": [0.7071068286895752, 0.6830125451087952, -0.18301264941692352, 0.683012843132019], "min": [0.1830127239227295, 4.329779970841032e-17, -0.7071067094802856, 4.329780632585522e-17], "type": "VEC4"}, {"bufferView": 6, "byteOffset": 5976, "componentType": 5126, "count": 343, "max": [10.375], "min": [0.0], "type": "SCALAR"}, {"bufferView": 7, "byteOffset": 9012, "componentType": 5126, "count": 343, "max": [-1.2462619543075562, 1.2289983034133911, 1.7937443317350699e-06], "min": [-1.2462626695632935, 1.2289981842041016, 1.060903059624252e-06], "type": "VEC3"}, {"bufferView": 6, "byteOffset": 7348, "componentType": 5126, "count": 4, "max": [10.375], "min": [0.0], "type": "SCALAR"}, {"bufferView": 7, "byteOffset": 13128, "componentType": 5126, "count": 4, "max": [1.0, 1.0000001192092896, 1.0000001192092896], "min": [1.0, 1.0, 1.0], "type": "VEC3"}, {"bufferView": 6, "byteOffset": 7364, "componentType": 5126, "count": 343, "max": [10.375], "min": [0.0], "type": "SCALAR"}, {"bufferView": 8, "byteOffset": 11888, "componentType": 5126, "count": 343, "max": [0.5000000596046448, 0.7071067094802856, 4.750302906586512e-08, 0.7071068286895752], "min": [-4.750303617129248e-08, 0.4999999701976776, -0.5000000596046448, 0.4999999701976776], "type": "VEC4"}, {"bufferView": 6, "byteOffset": 8736, "componentType": 5126, "count": 343, "max": [10.375], "min": [0.0], "type": "SCALAR"}, {"bufferView": 7, "byteOffset": 13176, "componentType": 5126, "count": 343, "max": [1.246264100074768, 1.2289987802505493, 2.120600129273953e-06], "min": [1.2462631464004517, 1.2289981842041016, 1.387758402415784e-06], "type": "VEC3"}, {"bufferView": 6, "byteOffset": 10108, "componentType": 5126, "count": 6, "max": [10.375], "min": [0.0], "type": "SCALAR"}, {"bufferView": 7, "byteOffset": 17292, "componentType": 5126, "count": 6, "max": [1.0, 1.0000001192092896, 1.0], "min": [1.0, 0.9999999403953552, 1.0], "type": "VEC3"}, {"bufferView": 6, "byteOffset": 10132, "componentType": 5126, "count": 343, "max": [10.375], "min": [0.0], "type": "SCALAR"}, {"bufferView": 8, "byteOffset": 17376, "componentType": 5126, "count": 343, "max": [0.5000000596046448, 0.7071067094802856, 0.49999627470970154, 0.7071068286895752], "min": [-0.4999963343143463, -0.4999999403953552, -0.5, -0.5], "type": "VEC4"}, {"bufferView": 6, "byteOffset": 11504, "componentType": 5126, "count": 227, "max": [10.375], "min": [0.0], "type": "SCALAR"}, {"bufferView": 7, "byteOffset": 17364, "componentType": 5126, "count": 227, "max": [4.127976894378662, 0.4007720947265625, -2.0639657974243164], "min": [4.127976894378662, -0.053388118743896484, -2.0639710426330566], "type": "VEC3"}, {"bufferView": 6, "byteOffset": 12412, "componentType": 5126, "count": 349, "max": [10.375], "min": [0.0], "type": "SCALAR"}, {"bufferView": 7, "byteOffset": 20088, "componentType": 5126, "count": 349, "max": [3.984351634979248, 2.1346378326416016, 2.035067836914095e-06], "min": [3.9843475818634033, 2.134636402130127, 1.6984164403766044e-06], "type": "VEC3"}, {"bufferView": 6, "byteOffset": 13808, "componentType": 5126, "count": 8, "max": [10.375], "min": [0.0], "type": "SCALAR"}, {"bufferView": 7, "byteOffset": 24276, "componentType": 5126, "count": 8, "max": [1.0, 1.0000001192092896, 1.0], "min": [0.9999999403953552, 0.9999999403953552, 1.0], "type": "VEC3"}, {"bufferView": 6, "byteOffset": 13840, "componentType": 5126, "count": 349, "max": [10.375], "min": [0.0], "type": "SCALAR"}, {"bufferView": 8, "byteOffset": 22864, "componentType": 5126, "count": 349, "max": [4.5193736752935365e-08, -0.4999999701976776, 4.519372964750801e-08, 0.7071068286895752], "min": [-0.5000000596046448, -0.7071067094802856, -0.4999999701976776, 0.5000000596046448], "type": "VEC4"}, {"bufferView": 6, "byteOffset": 15236, "componentType": 5126, "count": 349, "max": [10.375], "min": [0.0], "type": "SCALAR"}, {"bufferView": 7, "byteOffset": 24372, "componentType": 5126, "count": 349, "max": [-5.176003456115723, 0.06372934579849243, -2.0064444541931152], "min": [-5.176003456115723, 0.06372642517089844, -2.006457805633545], "type": "VEC3"}, {"bufferView": 6, "byteOffset": 16812, "componentType": 5126, "count": 4, "max": [10.375], "min": [0.0], "type": "SCALAR"}, {"bufferView": 7, "byteOffset": 29100, "componentType": 5126, "count": 4, "max": [1.0, 1.0, 1.0000001192092896], "min": [1.0, 0.9999999403953552, 1.0], "type": "VEC3"}, {"bufferView": 6, "byteOffset": 16828, "componentType": 5126, "count": 349, "max": [10.375], "min": [0.0], "type": "SCALAR"}, {"bufferView": 8, "byteOffset": 28448, "componentType": 5126, "count": 349, "max": [0.7071068286895752, -4.329779970841032e-17, 0.7071067094802856, 0.6830127239227295], "min": [0.1830127090215683, -0.6830126643180847, 0.1830126792192459, 4.329780632585522e-17], "type": "VEC4"}, {"bufferView": 6, "byteOffset": 18404, "componentType": 5126, "count": 343, "max": [10.375], "min": [0.0], "type": "SCALAR"}, {"bufferView": 7, "byteOffset": 29148, "componentType": 5126, "count": 343, "max": [1.2462626695632935, 1.2289983034133911, 1.4922462696631555e-06], "min": [1.2462621927261353, 1.2289981842041016, 1.2924554084747797e-06], "type": "VEC3"}, {"bufferView": 6, "byteOffset": 19776, "componentType": 5126, "count": 4, "max": [10.375], "min": [0.0], "type": "SCALAR"}, {"bufferView": 7, "byteOffset": 33264, "componentType": 5126, "count": 4, "max": [1.0, 1.0000001192092896, 1.0000001192092896], "min": [1.0, 1.0, 1.0], "type": "VEC3"}, {"bufferView": 6, "byteOffset": 19792, "componentType": 5126, "count": 343, "max": [10.375], "min": [0.0], "type": "SCALAR"}, {"bufferView": 8, "byteOffset": 34752, "componentType": 5126, "count": 343, "max": [0.5, -0.5, 0.4999999403953552, 0.7071068286895752], "min": [-4.7503043276719836e-08, -0.7071067094802856, -4.750303617129248e-08, 0.5000000596046448], "type": "VEC4"}, {"bufferView": 6, "byteOffset": 21164, "componentType": 5126, "count": 343, "max": [10.375], "min": [0.0], "type": "SCALAR"}, {"bufferView": 7, "byteOffset": 33312, "componentType": 5126, "count": 343, "max": [-1.2462629079818726, 1.2289987802505493, 1.6804268625492114e-06], "min": [-1.246264100074768, 1.2289981842041016, 1.4806358876739978e-06], "type": "VEC3"}, {"bufferView": 6, "byteOffset": 22536, "componentType": 5126, "count": 6, "max": [10.375], "min": [0.0], "type": "SCALAR"}, {"bufferView": 7, "byteOffset": 37428, "componentType": 5126, "count": 6, "max": [1.0, 1.0000001192092896, 1.0], "min": [1.0, 0.9999999403953552, 1.0], "type": "VEC3"}, {"bufferView": 6, "byteOffset": 22560, "componentType": 5126, "count": 343, "max": [10.375], "min": [0.0], "type": "SCALAR"}, {"bufferView": 8, "byteOffset": 40240, "componentType": 5126, "count": 343, "max": [4.801845321367182e-08, -0.4999999701976776, 4.801844610824446e-08, 0.7071068286895752], "min": [-0.5000000596046448, -0.7071067094802856, -0.4999999701976776, 0.5000000596046448], "type": "VEC4"}, {"bufferView": 6, "byteOffset": 23932, "componentType": 5126, "count": 245, "max": [10.375], "min": [0.0], "type": "SCALAR"}, {"bufferView": 7, "byteOffset": 37500, "componentType": 5126, "count": 245, "max": [-4.127976894378662, 0.4007720947265625, -2.06396484375], "min": [-4.127976894378662, -0.053388118743896484, -2.0639700889587402], "type": "VEC3"}, {"bufferView": 6, "byteOffset": 24912, "componentType": 5126, "count": 327, "max": [10.375], "min": [0.0], "type": "SCALAR"}, {"bufferView": 7, "byteOffset": 40440, "componentType": 5126, "count": 327, "max": [1.1640821639957721e-10, 3.0801150798797607, 1.9073480643783114e-06], "min": [1.1505107977427542e-10, 1.6635770797729492, 1.1920928955078125e-07], "type": "VEC3"}, {"bufferView": 6, "byteOffset": 26220, "componentType": 5126, "count": 327, "max": [10.375], "min": [0.0], "type": "SCALAR"}, {"bufferView": 8, "byteOffset": 45728, "componentType": 5126, "count": 327, "max": [8.326672684688674e-17, -3.99680246513409e-15, -3.5514126361935183e-15, 1.0], "min": [-5.551115123125783e-17, -7.105427357601002e-15, -3.5540147214074835e-15, 1.0], "type": "VEC4"}, {"bufferView": 6, "byteOffset": 27528, "componentType": 5126, "count": 117, "max": [10.375], "min": [0.0], "type": "SCALAR"}, {"bufferView": 7, "byteOffset": 44364, "componentType": 5126, "count": 117, "max": [1.4644575685451855e-07, 0.1282353401184082, 1.6764708757400513], "min": [1.464453305288771e-07, 0.12823486328125, 1.6764707565307617], "type": "VEC3"}, {"bufferView": 6, "byteOffset": 27996, "componentType": 5126, "count": 330, "max": [10.375], "min": [0.0], "type": "SCALAR"}, {"bufferView": 8, "byteOffset": 50960, "componentType": 5126, "count": 330, "max": [0.8660253882408142, 8.42937097900176e-08, 3.928197500613351e-08, 0.7071067094802856], "min": [0.7071068286895752, 5.511783740530518e-08, 2.2476463357179455e-08, 0.5], "type": "VEC4"}, {"bufferView": 6, "byteOffset": 29316, "componentType": 5126, "count": 296, "max": [10.375], "min": [0.0], "type": "SCALAR"}, {"bufferView": 7, "byteOffset": 45768, "componentType": 5126, "count": 296, "max": [2.7755575615628914e-17, 0.038430050015449524, 0.06786349415779114], "min": [-2.7755575615628914e-17, -0.05871342867612839, -0.07787875831127167], "type": "VEC3"}, {"bufferView": 6, "byteOffset": 30500, "componentType": 5126, "count": 344, "max": [10.375], "min": [0.0], "type": "SCALAR"}, {"bufferView": 8, "byteOffset": 56240, "componentType": 5126, "count": 344, "max": [9.445684412412447e-08, 0.7093588709831238, 0.7141187787055969, 9.509066956070455e-08], "min": [9.321390592731404e-08, 0.7000245451927185, 0.704847514629364, 9.385612287360345e-08], "type": "VEC4"}, {"bufferView": 6, "byteOffset": 31876, "componentType": 5126, "count": 345, "max": [10.375], "min": [0.0], "type": "SCALAR"}, {"bufferView": 7, "byteOffset": 49320, "componentType": 5126, "count": 345, "max": [-2.06058406829834, -2.024956464767456, 0.8932170867919922], "min": [-3.7924814224243164, -2.024968147277832, -0.5963685512542725], "type": "VEC3"}, {"bufferView": 6, "byteOffset": 33256, "componentType": 5126, "count": 8, "max": [10.375], "min": [0.0], "type": "SCALAR"}, {"bufferView": 7, "byteOffset": 53460, "componentType": 5126, "count": 8, "max": [0.9999999403953552, 1.0, 1.0], "min": [0.9999998807907104, 1.0, 0.9999998807907104], "type": "VEC3"}, {"bufferView": 6, "byteOffset": 33288, "componentType": 5126, "count": 345, "max": [10.375], "min": [0.0], "type": "SCALAR"}, {"bufferView": 8, "byteOffset": 61744, "componentType": 5126, "count": 345, "max": [0.138699010014534, -0.3749568462371826, 0.7071061134338379, 0.5993714332580566], "min": [-0.0002660330501385033, -0.48542237281799316, 0.6933777332305908, 0.5141654014587402], "type": "VEC4"}, {"bufferView": 6, "byteOffset": 34668, "componentType": 5126, "count": 345, "max": [10.375], "min": [0.0], "type": "SCALAR"}, {"bufferView": 7, "byteOffset": 53556, "componentType": 5126, "count": 345, "max": [3.7924814224243164, -2.024956464767456, 0.8932167291641235], "min": [2.06058406829834, -2.024968147277832, -0.5963685512542725], "type": "VEC3"}, {"bufferView": 6, "byteOffset": 36048, "componentType": 5126, "count": 8, "max": [10.375], "min": [0.0], "type": "SCALAR"}, {"bufferView": 7, "byteOffset": 57696, "componentType": 5126, "count": 8, "max": [0.9999999403953552, 1.0000001192092896, 1.0], "min": [0.9999998211860657, 1.0, 0.9999998807907104], "type": "VEC3"}, {"bufferView": 6, "byteOffset": 36080, "componentType": 5126, "count": 345, "max": [10.375], "min": [0.0], "type": "SCALAR"}, {"bufferView": 8, "byteOffset": 67264, "componentType": 5126, "count": 345, "max": [0.13869896531105042, 0.48542237281799316, -0.6933777332305908, 0.5993714332580566], "min": [-0.0002660745522007346, 0.374956876039505, -0.7071061134338379, 0.5141654014587402], "type": "VEC4"}, {"bufferView": 6, "byteOffset": 37460, "componentType": 5126, "count": 461, "max": [10.375], "min": [0.0], "type": "SCALAR"}, {"bufferView": 7, "byteOffset": 57792, "componentType": 5126, "count": 461, "max": [0.0, 103.8851318359375, 42.97138977050781], "min": [-3.814697265625e-06, -0.0, 0.0], "type": "VEC3"}, {"bufferView": 6, "byteOffset": 39304, "componentType": 5126, "count": 461, "max": [10.375], "min": [0.0], "type": "SCALAR"}, {"bufferView": 8, "byteOffset": 72784, "componentType": 5126, "count": 461, "max": [0.02052394300699234, 0.05601825565099716, 1.0, 0.0029004826210439205], "min": [-0.013671395368874073, -0.11735675483942032, 0.9930897951126099, -0.0037112438585609198], "type": "VEC4"}], "animations": [{"channels": [{"sampler": 0, "target": {"node": 43, "path": "translation"}}, {"sampler": 1, "target": {"node": 43, "path": "scale"}}, {"sampler": 2, "target": {"node": 43, "path": "rotation"}}, {"sampler": 3, "target": {"node": 42, "path": "translation"}}, {"sampler": 4, "target": {"node": 42, "path": "scale"}}, {"sampler": 5, "target": {"node": 42, "path": "rotation"}}, {"sampler": 6, "target": {"node": 45, "path": "translation"}}, {"sampler": 7, "target": {"node": 45, "path": "scale"}}, {"sampler": 8, "target": {"node": 45, "path": "rotation"}}, {"sampler": 9, "target": {"node": 46, "path": "translation"}}, {"sampler": 10, "target": {"node": 46, "path": "scale"}}, {"sampler": 11, "target": {"node": 46, "path": "rotation"}}, {"sampler": 12, "target": {"node": 44, "path": "translation"}}, {"sampler": 13, "target": {"node": 48, "path": "translation"}}, {"sampler": 14, "target": {"node": 48, "path": "scale"}}, {"sampler": 15, "target": {"node": 48, "path": "rotation"}}, {"sampler": 16, "target": {"node": 47, "path": "translation"}}, {"sampler": 17, "target": {"node": 47, "path": "scale"}}, {"sampler": 18, "target": {"node": 47, "path": "rotation"}}, {"sampler": 19, "target": {"node": 50, "path": "translation"}}, {"sampler": 20, "target": {"node": 50, "path": "scale"}}, {"sampler": 21, "target": {"node": 50, "path": "rotation"}}, {"sampler": 22, "target": {"node": 51, "path": "translation"}}, {"sampler": 23, "target": {"node": 51, "path": "scale"}}, {"sampler": 24, "target": {"node": 51, "path": "rotation"}}, {"sampler": 25, "target": {"node": 49, "path": "translation"}}, {"sampler": 26, "target": {"node": 53, "path": "translation"}}, {"sampler": 27, "target": {"node": 53, "path": "rotation"}}, {"sampler": 28, "target": {"node": 52, "path": "translation"}}, {"sampler": 29, "target": {"node": 52, "path": "rotation"}}, {"sampler": 30, "target": {"node": 41, "path": "translation"}}, {"sampler": 31, "target": {"node": 41, "path": "rotation"}}, {"sampler": 32, "target": {"node": 54, "path": "translation"}}, {"sampler": 33, "target": {"node": 54, "path": "scale"}}, {"sampler": 34, "target": {"node": 54, "path": "rotation"}}, {"sampler": 35, "target": {"node": 55, "path": "translation"}}, {"sampler": 36, "target": {"node": 55, "path": "scale"}}, {"sampler": 37, "target": {"node": 55, "path": "rotation"}}], "name": "Landing", "samplers": [{"input": 92, "interpolation": "LINEAR", "output": 93}, {"input": 94, "interpolation": "LINEAR", "output": 95}, {"input": 96, "interpolation": "LINEAR", "output": 97}, {"input": 98, "interpolation": "LINEAR", "output": 99}, {"input": 100, "interpolation": "LINEAR", "output": 101}, {"input": 102, "interpolation": "LINEAR", "output": 103}, {"input": 104, "interpolation": "LINEAR", "output": 105}, {"input": 106, "interpolation": "LINEAR", "output": 107}, {"input": 108, "interpolation": "LINEAR", "output": 109}, {"input": 110, "interpolation": "LINEAR", "output": 111}, {"input": 112, "interpolation": "LINEAR", "output": 113}, {"input": 114, "interpolation": "LINEAR", "output": 115}, {"input": 116, "interpolation": "LINEAR", "output": 117}, {"input": 118, "interpolation": "LINEAR", "output": 119}, {"input": 120, "interpolation": "LINEAR", "output": 121}, {"input": 122, "interpolation": "LINEAR", "output": 123}, {"input": 124, "interpolation": "LINEAR", "output": 125}, {"input": 126, "interpolation": "LINEAR", "output": 127}, {"input": 128, "interpolation": "LINEAR", "output": 129}, {"input": 130, "interpolation": "LINEAR", "output": 131}, {"input": 132, "interpolation": "LINEAR", "output": 133}, {"input": 134, "interpolation": "LINEAR", "output": 135}, {"input": 136, "interpolation": "LINEAR", "output": 137}, {"input": 138, "interpolation": "LINEAR", "output": 139}, {"input": 140, "interpolation": "LINEAR", "output": 141}, {"input": 142, "interpolation": "LINEAR", "output": 143}, {"input": 144, "interpolation": "LINEAR", "output": 145}, {"input": 146, "interpolation": "LINEAR", "output": 147}, {"input": 148, "interpolation": "LINEAR", "output": 149}, {"input": 150, "interpolation": "LINEAR", "output": 151}, {"input": 152, "interpolation": "LINEAR", "output": 153}, {"input": 154, "interpolation": "LINEAR", "output": 155}, {"input": 156, "interpolation": "LINEAR", "output": 157}, {"input": 158, "interpolation": "LINEAR", "output": 159}, {"input": 160, "interpolation": "LINEAR", "output": 161}, {"input": 162, "interpolation": "LINEAR", "output": 163}, {"input": 164, "interpolation": "LINEAR", "output": 165}, {"input": 166, "interpolation": "LINEAR", "output": 167}, {"input": 168, "interpolation": "LINEAR", "output": 169}, {"input": 170, "interpolation": "LINEAR", "output": 171}]}], "asset": {"extras": {"author": "Quiznos323 (https://sketchfab.com/quiznos323)", "license": "CC-BY-NC-SA-4.0 (http://creativecommons.org/licenses/by-nc-sa/4.0/)", "source": "https://sketchfab.com/3d-models/imperial-shuttle-lambda-class-t-4a-star-wars-8312856f2c794c569ea6978f2c90bc99", "title": "Imperial Shuttle (Lambda-class T-4a) - Star Wars"}, "generator": "Sketchfab-16.68.0", "version": "2.0"}, "bufferViews": [{"buffer": 0, "byteLength": 222528, "byteStride": 8, "name": "shortBufferViews", "target": 34962}, {"buffer": 0, "byteLength": 293808, "byteOffset": 222528, "name": "floatBufferViews", "target": 34963}, {"buffer": 0, "byteLength": 222528, "byteOffset": 516336, "byteStride": 8, "name": "floatBufferViews", "target": 34962}, {"buffer": 0, "byteLength": 667584, "byteOffset": 738864, "byteStride": 12, "name": "floatBufferViews", "target": 34962}, {"buffer": 0, "byteLength": 890112, "byteOffset": 1406448, "byteStride": 16, "name": "floatBufferViews", "target": 34962}, {"buffer": 0, "byteLength": 1088, "byteOffset": 2296560, "name": "floatBufferViews"}, {"buffer": 0, "byteLength": 41148, "byteOffset": 2297648, "name": "floatBufferViews"}, {"buffer": 0, "byteLength": 63324, "byteOffset": 2338796, "byteStride": 12, "name": "floatBufferViews"}, {"buffer": 0, "byteLength": 80160, "byteOffset": 2402120, "byteStride": 16, "name": "floatBufferViews"}], "buffers": [{"byteLength": 2482280, "uri": "scene.bin"}], "extensionsUsed": ["KHR_materials_emissive_strength"], "images": [{"uri": "textures/LambdaShuttle_baseColor.png"}, {"uri": "textures/LambdaShuttle_metallicRoughness.png"}, {"uri": "textures/LambdaShuttle_emissive.png"}, {"uri": "textures/LambdaShuttle_normal.png"}], "materials": [{"alphaMode": "BLEND", "doubleSided": true, "emissiveFactor": [1.0, 1.0, 1.0], "emissiveTexture": {"index": 2}, "extensions": {"KHR_materials_emissive_strength": {"emissiveStrength": 2.570773215621181}}, "name": "LambdaShuttle", "normalTexture": {"index": 3}, "pbrMetallicRoughness": {"baseColorTexture": {"index": 0}, "metallicFactor": 0.0, "metallicRoughnessTexture": {"index": 1}}}], "meshes": [{"name": "Body_LambdaShuttle_0", "primitives": [{"attributes": {"JOINTS_0": 66, "NORMAL": 1, "POSITION": 0, "TANGENT": 2, "TEXCOORD_0": 3, "WEIGHTS_0": 67}, "indices": 4, "material": 0, "mode": 4}]}, {"name": "Wings_LambdaShuttle_0", "primitives": [{"attributes": {"JOINTS_0": 68, "NORMAL": 6, "POSITION": 5, "TANGENT": 7, "TEXCOORD_0": 8, "WEIGHTS_0": 69}, "indices": 9, "material": 0, "mode": 4}]}, {"name": "Top wing_LambdaShuttle_0", "primitives": [{"attributes": {"JOINTS_0": 70, "NORMAL": 11, "POSITION": 10, "TANGENT": 12, "TEXCOORD_0": 13, "WEIGHTS_0": 71}, "indices": 14, "material": 0, "mode": 4}]}, {"name": "Wing guns_LambdaShuttle_0", "primitives": [{"attributes": {"JOINTS_0": 72, "NORMAL": 16, "POSITION": 15, "TANGENT": 17, "TEXCOORD_0": 18, "WEIGHTS_0": 73}, "indices": 19, "material": 0, "mode": 4}]}, {"name": "Landing leg doors 1_LambdaShuttle_0", "primitives": [{"attributes": {"JOINTS_0": 74, "NORMAL": 21, "POSITION": 20, "TANGENT": 22, "TEXCOORD_0": 23, "WEIGHTS_0": 75}, "indices": 24, "material": 0, "mode": 4}]}, {"name": "Landing leg doors 2_LambdaShuttle_0", "primitives": [{"attributes": {"JOINTS_0": 76, "NORMAL": 26, "POSITION": 25, "TANGENT": 27, "TEXCOORD_0": 28, "WEIGHTS_0": 77}, "indices": 29, "material": 0, "mode": 4}]}, {"name": "Landing legs_LambdaShuttle_0", "primitives": [{"attributes": {"JOINTS_0": 78, "NORMAL": 31, "POSITION": 30, "TANGENT": 32, "TEXCOORD_0": 33, "WEIGHTS_0": 79}, "indices": 34, "material": 0, "mode": 4}]}, {"name": "Windshield_LambdaShuttle_0", "primitives": [{"attributes": {"JOINTS_0": 80, "NORMAL": 36, "POSITION": 35, "TANGENT": 37, "TEXCOORD_0": 38, "WEIGHTS_0": 81}, "indices": 39, "material": 0, "mode": 4}]}, {"name": "Rear turret_LambdaShuttle_0", "primitives": [{"attributes": {"JOINTS_0": 82, "NORMAL": 41, "POSITION": 40, "TANGENT": 42, "TEXCOORD_0": 43, "WEIGHTS_0": 83}, "indices": 44, "material": 0, "mode": 4}]}, {"name": "Ramp _LambdaShuttle_0", "primitives": [{"attributes": {"JOINTS_0": 84, "NORMAL": 46, "POSITION": 45, "TANGENT": 47, "TEXCOORD_0": 48, "WEIGHTS_0": 85}, "indices": 49, "material": 0, "mode": 4}]}, {"name": "Interior_LambdaShuttle_0", "primitives": [{"attributes": {"JOINTS_0": 86, "NORMAL": 51, "POSITION": 50, "TANGENT": 52, "TEXCOORD_0": 53, "WEIGHTS_0": 87}, "indices": 54, "material": 0, "mode": 4}]}, {"name": "Pipes_LambdaShuttle_0", "primitives": [{"attributes": {"JOINTS_0": 88, "NORMAL": 56, "POSITION": 55, "TANGENT": 57, "TEXCOORD_0": 58, "WEIGHTS_0": 89}, "indices": 59, "material": 0, "mode": 4}]}, {"name": "Landing leg doors_LambdaShuttle_0", "primitives": [{"attributes": {"JOINTS_0": 90, "NORMAL": 61, "POSITION": 60, "TANGENT": 62, "TEXCOORD_0": 63, "WEIGHTS_0": 91}, "indices": 64, "material": 0, "mode": 4}]}], "nodes": [{"children": [1], "matrix": [0.07764198631048203, 0.0, 0.0, 0.0, 0.0, 1.723998417590567e-17, -0.07764198631048203, 0.0, 0.0, 0.07764198631048203, 1.723998417590567e-17, 0.0, 0.0, 0.0, 0.0, 1.0], "name": "Sketchfab_model"}, {"children": [2], "matrix": [1.0, 0.0, 0.0, 0.0, 0.0, 0.0, 1.0, 0.0, 0.0, -1.0, 0.0, 0.0, 0.0, 0.0, 0.0, 1.0], "name": "ImperialShuttle.fbx"}, {"children": [3], "name": "Object_2"}, {"children": [4, 5, 6, 7, 8, 9, 10, 11, 12, 13, 14, 15, 60, 61], "name": "RootNode"}, {"name": "Body", "rotation": [-0.7071068286895752, 0.0, 0.0, 0.7071067094802856]}, {"name": "Wings", "rotation": [-0.7071068286895752, 0.0, 0.0, 0.7071067094802856]}, {"name": "Top wing", "rotation": [-0.7071068286895752, 0.0, 0.0, 0.7071067094802856], "translation": [0.0, 0.0, -2.2351741790771484e-08]}, {"name": "Wing guns", "rotation": [-0.7071068286895752, 0.0, 0.0, 0.7071067094802856]}, {"name": "Landing leg doors 1", "rotation": [-0.7071068286895752, 1.7763570511584873e-15, 1.776357262916724e-15, 0.7071067094802856], "translation": [0.0, 2.384185791015625e-07, 0.0]}, {"name": "Landing leg doors 2", "rotation": [-0.7071068286895752, 0.0, 0.0, 0.7071067094802856]}, {"name": "Landing legs", "rotation": [-0.7071068286895752, 0.0, 0.0, 0.7071067094802856]}, {"name": "Windshield", "rotation": [-0.7071068286895752, 0.0, 0.0, 0.7071067094802856]}, {"name": "Rear turret", "rotation": [-0.7071068286895752, 0.0, 0.0, 0.7071067094802856]}, {"name": "Ramp ", "rotation": [-0.7071068286895752, 0.0, 0.0, 0.7071067094802856]}, {"name": "Interior", "rotation": [-0.7071068286895752, 0.0, 0.0, 0.7071067094802856]}, {"children": [16], "name": "Imperial Shuttle", "rotation": [-0.7071068286895752, 0.0, 0.0, 0.7071067094802856]}, {"children": [17, 19, 21, 23, 25, 27, 29, 31, 33, 35, 37, 39, 57, 59, 18, 20, 22, 24, 26, 28, 30, 32, 34, 36, 38, 56, 58], "name": "Object_16"}, {"children": [40], "name": "_rootJoint"}, {"matrix": [1.0, 0.0, 0.0, 0.0, 0.0, 6.123233995736766e-17, -1.0, 0.0, 0.0, 1.0, 6.123233995736766e-17, 0.0, 0.0, 0.0, 0.0, 1.0], "name": "Object_18"}, {"mesh": 0, "name": "Object_19", "skin": 0}, {"matrix": [1.0, 0.0, 0.0, 0.0, 0.0, 6.123233995736766e-17, -1.0, 0.0, 0.0, 1.0, 6.123233995736766e-17, 0.0, 0.0, 0.0, 0.0, 1.0], "name": "Object_20"}, {"mesh": 1, "name": "Object_21", "skin": 0}, {"matrix": [1.0, 0.0, 0.0, 0.0, 0.0, 6.123233995736766e-17, -1.0, 0.0, 0.0, 1.0, 6.123233995736766e-17, 0.0, 0.0, 0.0, -2.2351741790771484e-08, 1.0], "name": "Object_22"}, {"mesh": 2, "name": "Object_23", "skin": 0}, {"matrix": [1.0, 0.0, 0.0, 0.0, 0.0, 6.123233995736766e-17, -1.0, 0.0, 0.0, 1.0, 6.123233995736766e-17, 0.0, 0.0, 0.0, 0.0, 1.0], "name": "Object_24"}, {"mesh": 3, "name": "Object_25", "skin": 0}, {"matrix": [1.0, 0.0, -5.024295781800919e-15, 0.0, -5.024295781800919e-15, 6.123233995736766e-17, -1.0, 0.0, 3.076493873576022e-31, 1.0, 6.123233995736766e-17, 0.0, 0.0, 2.384185791015625e-07, 0.0, 1.0], "name": "Object_26"}, {"mesh": 4, "name": "Object_27", "skin": 0}, {"matrix": [1.0, 0.0, 0.0, 0.0, 0.0, 6.123233995736766e-17, -1.0, 0.0, 0.0, 1.0, 6.123233995736766e-17, 0.0, 0.0, 0.0, 0.0, 1.0], "name": "Object_28"}, {"mesh": 5, "name": "Object_29", "skin": 0}, {"matrix": [1.0, 0.0, 0.0, 0.0, 0.0, 6.123233995736766e-17, -1.0, 0.0, 0.0, 1.0, 6.123233995736766e-17, 0.0, 0.0, 0.0, 0.0, 1.0], "name": "Object_30"}, {"mesh": 6, "name": "Object_31", "skin": 0}, {"matrix": [1.0, 0.0, 0.0, 0.0, 0.0, 6.123233995736766e-17, -1.0, 0.0, 0.0, 1.0, 6.123233995736766e-17, 0.0, 0.0, 0.0, 0.0, 1.0], "name": "Object_32"}, {"mesh": 7, "name": "Object_33", "skin": 0}, {"matrix": [1.0, 0.0, 0.0, 0.0, 0.0, 6.123233995736766e-17, -1.0, 0.0, 0.0, 1.0, 6.123233995736766e-17, 0.0, 0.0, 0.0, 0.0, 1.0], "name": "Object_34"}, {"mesh": 8, "name": "Object_35", "skin": 0}, {"matrix": [1.0, 0.0, 0.0, 0.0, 0.0, 6.123233995736766e-17, -1.0, 0.0, 0.0, 1.0, 6.123233995736766e-17, 0.0, 0.0, 0.0, 0.0, 1.0], "name": "Object_36"}, {"mesh": 9, "name": "Object_37", "skin": 0}, {"matrix": [1.0, 0.0, 0.0, 0.0, 0.0, 6.123233995736766e-17, -1.0, 0.0, 0.0, 1.0, 6.123233995736766e-17, 0.0, 0.0, 0.0, 0.0, 1.0], "name": "Object_38"}, {"mesh": 10, "name": "Object_39", "skin": 0}, {"children": [41, 54, 55], "name": "Root_00", "rotation": [-1.1570308140341478e-30, 2.6469779601696886e-23, 1.0, -4.371138828673793e-08]}, {"children": [42, 44, 47, 49, 52], "name": "Body_01", "rotation": [5.338507946817117e-08, 0.7071068286895752, 0.7071067094802856, 5.338507236274381e-08]}, {"children": [43], "name": "Wing.L_02", "rotation": [0.18301273882389069, 0.6830126047134399, -0.18301266431808472, 0.6830129027366638], "scale": [1.0, 1.0, 1.0000001192092896], "translation": [5.176003456115723, 0.06372934579849243, -2.0064454078674316]}, {"name": "WingGuns.L_03", "rotation": [4.75030326185788e-08, 0.7071067094802856, -4.750302551315144e-08, 0.7071068286895752], "scale": [0.9999999403953552, 0.9999999403953552, 0.9999999403953552], "translation": [-3.9843475818634033, 2.134636402130127, 1.588373379490804e-06]}, {"children": [45, 46], "name": "LandingLegDoors.L_04", "rotation": [0.7071068286895752, -3.0908619663705394e-08, -0.7071067690849304, -3.0908619663705394e-08], "scale": [1.0, 0.9999999403953552, 1.0], "translation": [4.127976894378662, -0.053388118743896484, -2.0639657974243164]}, {"name": "LandingLegDoor1.L_05", "rotation": [-4.750303617129248e-08, 0.7071067690849304, 4.75030326185788e-08, 0.7071068286895752], "scale": [1.0, 1.0000001192092896, 1.0000001192092896], "translation": [-1.2462626695632935, 1.2289983034133911, 1.060903059624252e-06]}, {"name": "LandingLegDoor2.L_06", "rotation": [4.7503046829433515e-08, 0.7071067690849304, -4.7503043276719836e-08, 0.7071068286895752], "scale": [1.0, 1.0000001192092896, 1.0], "translation": [1.246264100074768, 1.2289987802505493, 1.387758402415784e-06]}, {"children": [48], "name": "Wing.R_07", "rotation": [0.1830126941204071, -0.6830126643180847, 0.1830126792192459, 0.6830127239227295], "scale": [1.0, 1.0, 1.0000001192092896], "translation": [-5.176003456115723, 0.06372934579849243, -2.0064444541931152]}, {"name": "WingGuns.R_08", "rotation": [4.223467797714875e-08, -0.7071067094802856, 4.223466731900771e-08, 0.7071068286895752], "scale": [0.9999999403953552, 1.0000001192092896, 1.0], "translation": [3.9843475818634033, 2.134636402130127, 1.6984164403766044e-06]}, {"children": [50, 51], "name": "LandingLegDoors.R_09", "rotation": [0.7071068286895752, -3.0908616110991716e-08, 0.7071067094802856, 3.090862321641907e-08], "scale": [1.0, 0.9999999403953552, 1.0], "translation": [-4.127976894378662, -0.053388118743896484, -2.06396484375]}, {"name": "LandingLegDoor1.R_010", "rotation": [-4.750303972400616e-08, -0.7071067690849304, -4.750303617129248e-08, 0.7071068286895752], "scale": [1.0, 1.0000001192092896, 1.0000001192092896], "translation": [1.2462626695632935, 1.2289983034133911, 1.4922462696631555e-06]}, {"name": "LandingLegDoor2.R_011", "rotation": [4.750303972400616e-08, -0.7071067690849304, 4.750303617129248e-08, 0.7071068286895752], "scale": [1.0, 1.0000001192092896, 1.0], "translation": [-1.246264100074768, 1.2289987802505493, 1.6804268625492114e-06]}, {"children": [53], "name": "Ramp1_012", "rotation": [0.7071068286895752, 8.42937097900176e-08, 2.2476461580822615e-08, 0.7071067094802856], "translation": [1.464453305288771e-07, 0.1282353401184082, 1.6764708757400513]}, {"name": "Ramp2_013", "rotation": [5.426304818347862e-22, -7.105427357601002e-15, -3.552713678800501e-15, 1.0], "translation": [1.1641951291885277e-10, 1.6635817289352417, 0.0]}, {"name": "LandingLeg.L_014", "rotation": [-1.0452072274347302e-07, -0.48542237281799316, 0.7071061134338379, 0.5141654014587402], "scale": [0.9999999403953552, 1.0, 1.0], "translation": [-3.7924814224243164, -2.024956464767456, -0.5963685512542725]}, {"name": "LandingLeg.R_015", "rotation": [-1.0452072274347302e-07, 0.48542237281799316, -0.7071061134338379, 0.5141654014587402], "scale": [0.9999999403953552, 1.0, 1.0], "translation": [3.7924814224243164, -2.024956464767456, -0.5963685512542725]}, {"matrix": [1.0, 0.0, 0.0, 0.0, 0.0, 6.123233995736766e-17, -1.0, 0.0, 0.0, 1.0, 6.123233995736766e-17, 0.0, 0.0, 0.0, 0.0, 1.0], "name": "Object_56"}, {"mesh": 11, "name": "Object_57", "skin": 0}, {"matrix": [1.0, 0.0, -5.024295781800919e-15, 0.0, -5.024295781800919e-15, 6.123233995736766e-17, -1.0, 0.0, 3.076493873576022e-31, 1.0, 6.123233995736766e-17, 0.0, 0.0, 2.384185791015625e-07, 4.0, 1.0], "name": "Object_58"}, {"mesh": 12, "name": "Object_59", "skin": 0}, {"name": "Pipes", "rotation": [-0.7071068286895752, 0.0, 0.0, 0.7071067094802856]}, {"name": "Landing leg doors", "rotation": [-0.7071068286895752, 1.7763570511584873e-15, 1.776357262916724e-15, 0.7071067094802856], "translation": [0.0, 2.384185791015625e-07, 4.0]}], "samplers": [{"magFilter": 9729, "minFilter": 9987, "wrapS": 10497, "wrapT": 10497}], "scene": 0, "scenes": [{"name": "Sketchfab_Scene", "nodes": [0]}], "skins": [{"inverseBindMatrices": 65, "joints": [17, 40, 41, 42, 43, 44, 45, 46, 47, 48, 49, 50, 51, 52, 53, 54, 55], "skeleton": 17}], "textures": [{"sampler": 0, "source": 0}, {"sampler": 0, "source": 1}, {"sampler": 0, "source": 2}, {"sampler": 0, "source": 3}]}