{
  "accessors": [
    {
      "bufferView": 2,
      "componentType": 5126,
      "count": 42,
      "max": [
        76.93121337890625,
        -5.75358772277832,
        42.64961242675781
      ],
      "min": [
        -78.83233642578125,
        -6.706958770751953,
        -2.530302047729492
      ],
      "type": "VEC3"
    },
    {
      "bufferView": 2,
      "byteOffset": 504,
      "componentType": 5126,
      "count": 42,
      "max": [
        1.0,
        1.0,
        1.0
      ],
      "min": [
        -1.0,
        -1.0,
        -1.0
      ],
      "type": "VEC3"
    },
    {
      "bufferView": 1,
      "componentType": 5126,
      "count": 42,
      "max": [
        0.8732783198356628,
        0.9825001955032349
      ],
      "min": [
        0.11405982077121735,
        0.022500280290842056
      ],
      "type": "VEC2"
    },
    {
      "bufferView": 0,
      "componentType": 5125,
      "count": 96,
      "type": "SCALAR"
    },
    {
      "bufferView": 2,
      "byteOffset": 1008,
      "componentType": 5126,
      "count": 2016,
      "max": [
        151.21922302246094,
        23.183488845825195,
        5.774274826049805
      ],
      "min": [
        -17.165481567382813,
        -34.60144805908203,
        -4.455055236816406
      ],
      "type": "VEC3"
    },
    {
      "bufferView": 2,
      "byteOffset": 25200,
      "componentType": 5126,
      "count": 2016,
      "max": [
        1.0,
        1.0,
        1.0
      ],
      "min": [
        -1.0,
        -1.0,
        -1.0
      ],
      "type": "VEC3"
    },
    {
      "bufferView": 1,
      "byteOffset": 336,
      "componentType": 5126,
      "count": 2016,
      "max": [
        1.0,
        1.0
      ],
      "min": [
        0.0,
        0.0
      ],
      "type": "VEC2"
    },
    {
      "bufferView": 0,
      "byteOffset": 384,
      "componentType": 5125,
      "count": 3096,
      "type": "SCALAR"
    },
    {
      "bufferView": 2,
      "byteOffset": 49392,
      "componentType": 5126,
      "count": 144,
      "max": [
        -0.5268702507019043,
        11.696525573730469,
        -6.67572021484375e-06
      ],
      "min": [
        -1.5806198120117188,
        -11.696526527404785,
        -9.735801696777344
      ],
      "type": "VEC3"
    },
    {
      "bufferView": 2,
      "byteOffset": 51120,
      "componentType": 5126,
      "count": 144,
      "max": [
        1.0,
        1.0,
        1.0
      ],
      "min": [
        -1.0,
        -1.0,
        -1.0
      ],
      "type": "VEC3"
    },
    {
      "bufferView": 1,
      "byteOffset": 16464,
      "componentType": 5126,
      "count": 144,
      "max": [
        0.9751116633415222,
        0.9482393264770508
      ],
      "min": [
        0.015111744403839111,
        0.12998531758785248
      ],
      "type": "VEC2"
    },
    {
      "bufferView": 0,
      "byteOffset": 12768,
      "componentType": 5125,
      "count": 216,
      "type": "SCALAR"
    },
    {
      "bufferView": 2,
      "byteOffset": 52848,
      "componentType": 5126,
      "count": 24,
      "max": [
        140.0,
        5.0000152587890625,
        194.53189086914063
      ],
      "min": [
        -140.0,
        3.660261631011963,
        -66.37155151367188
      ],
      "type": "VEC3"
    },
    {
      "bufferView": 2,
      "byteOffset": 53136,
      "componentType": 5126,
      "count": 24,
      "max": [
        1.0,
        1.0,
        1.0
      ],
      "min": [
        -1.0,
        -1.0,
        -1.0
      ],
      "type": "VEC3"
    },
    {
      "bufferView": 1,
      "byteOffset": 17616,
      "componentType": 5126,
      "count": 24,
      "max": [
        0.7385667562484741,
        0.9799999594688416
      ],
      "min": [
        0.2260793298482895,
        0.019999999552965164
      ],
      "type": "VEC2"
    },
    {
      "bufferView": 0,
      "byteOffset": 13632,
      "componentType": 5125,
      "count": 36,
      "type": "SCALAR"
    },
    {
      "bufferView": 2,
      "byteOffset": 53424,
      "componentType": 5126,
      "count": 804,
      "max": [
        17.02442741394043,
        15.349180221557617,
        2.2606475353240967
      ],
      "min": [
        -7.07235860824585,
        -15.349181175231934,
        -21.836139678955078
      ],
      "type": "VEC3"
    },
    {
      "bufferView": 2,
      "byteOffset": 63072,
      "componentType": 5126,
      "count": 804,
      "max": [
        1.0,
        1.0,
        1.0
      ],
      "min": [
        -1.0,
        -1.0,
        -1.0
      ],
      "type": "VEC3"
    },
    {
      "bufferView": 1,
      "byteOffset": 17808,
      "componentType": 5126,
      "count": 804,
      "max": [
        0.956618070602417,
        0.9754080772399902
      ],
      "min": [
        0.042145341634750366,
        0.005207836627960205
      ],
      "type": "VEC2"
    },
    {
      "bufferView": 0,
      "byteOffset": 13776,
      "componentType": 5125,
      "count": 1944,
      "type": "SCALAR"
    },
    {
      "bufferView": 2,
      "byteOffset": 72720,
      "componentType": 5126,
      "count": 128,
      "max": [
        4.471429824829102,
        4.58282470703125,
        7.448593616485596
      ],
      "min": [
        -6.964807510375977,
        -4.585235595703125,
        0.2913074493408203
      ],
      "type": "VEC3"
    },
    {
      "bufferView": 2,
      "byteOffset": 74256,
      "componentType": 5126,
      "count": 128,
      "max": [
        1.0,
        1.0,
        1.0
      ],
      "min": [
        -1.0,
        -1.0,
        -1.0
      ],
      "type": "VEC3"
    },
    {
      "bufferView": 1,
      "byteOffset": 24240,
      "componentType": 5126,
      "count": 128,
      "max": [
        0.9745424389839172,
        0.9786454439163208
      ],
      "min": [
        0.019999999552965164,
        0.018645523115992546
      ],
      "type": "VEC2"
    },
    {
      "bufferView": 0,
      "byteOffset": 21552,
      "componentType": 5125,
      "count": 222,
      "type": "SCALAR"
    },
    {
      "bufferView": 2,
      "byteOffset": 75792,
      "componentType": 5126,
      "count": 128,
      "max": [
        4.471429824829102,
        4.58282470703125,
        7.448593616485596
      ],
      "min": [
        -6.964807510375977,
        -4.585235595703125,
        0.2913074493408203
      ],
      "type": "VEC3"
    },
    {
      "bufferView": 2,
      "byteOffset": 77328,
      "componentType": 5126,
      "count": 128,
      "max": [
        1.0,
        1.0,
        1.0
      ],
      "min": [
        -1.0,
        -1.0,
        -1.0
      ],
      "type": "VEC3"
    },
    {
      "bufferView": 1,
      "byteOffset": 25264,
      "componentType": 5126,
      "count": 128,
      "max": [
        0.9745424389839172,
        0.9786454439163208
      ],
      "min": [
        0.019999999552965164,
        0.018645523115992546
      ],
      "type": "VEC2"
    },
    {
      "bufferView": 0,
      "byteOffset": 22440,
      "componentType": 5125,
      "count": 222,
      "type": "SCALAR"
    },
    {
      "bufferView": 2,
      "byteOffset": 78864,
      "componentType": 5126,
      "count": 128,
      "max": [
        4.471429824829102,
        4.58282470703125,
        7.448593616485596
      ],
      "min": [
        -6.964807510375977,
        -4.585235595703125,
        0.2913074493408203
      ],
      "type": "VEC3"
    },
    {
      "bufferView": 2,
      "byteOffset": 80400,
      "componentType": 5126,
      "count": 128,
      "max": [
        1.0,
        1.0,
        1.0
      ],
      "min": [
        -1.0,
        -1.0,
        -1.0
      ],
      "type": "VEC3"
    },
    {
      "bufferView": 1,
      "byteOffset": 26288,
      "componentType": 5126,
      "count": 128,
      "max": [
        0.9745424389839172,
        0.9786454439163208
      ],
      "min": [
        0.019999999552965164,
        0.018645523115992546
      ],
      "type": "VEC2"
    },
    {
      "bufferView": 0,
      "byteOffset": 23328,
      "componentType": 5125,
      "count": 222,
      "type": "SCALAR"
    },
    {
      "bufferView": 2,
      "byteOffset": 81936,
      "componentType": 5126,
      "count": 128,
      "max": [
        4.471429824829102,
        4.58282470703125,
        7.448593616485596
      ],
      "min": [
        -6.964807510375977,
        -4.585235595703125,
        0.2913074493408203
      ],
      "type": "VEC3"
    },
    {
      "bufferView": 2,
      "byteOffset": 83472,
      "componentType": 5126,
      "count": 128,
      "max": [
        1.0,
        1.0,
        1.0
      ],
      "min": [
        -1.0,
        -1.0,
        -1.0
      ],
      "type": "VEC3"
    },
    {
      "bufferView": 1,
      "byteOffset": 27312,
      "componentType": 5126,
      "count": 128,
      "max": [
        0.9745424389839172,
        0.9786454439163208
      ],
      "min": [
        0.019999999552965164,
        0.018645523115992546
      ],
      "type": "VEC2"
    },
    {
      "bufferView": 0,
      "byteOffset": 24216,
      "componentType": 5125,
      "count": 222,
      "type": "SCALAR"
    },
    {
      "bufferView": 2,
      "byteOffset": 85008,
      "componentType": 5126,
      "count": 128,
      "max": [
        4.471429824829102,
        4.58282470703125,
        7.448593616485596
      ],
      "min": [
        -6.964807510375977,
        -4.585235595703125,
        0.2913074493408203
      ],
      "type": "VEC3"
    },
    {
      "bufferView": 2,
      "byteOffset": 86544,
      "componentType": 5126,
      "count": 128,
      "max": [
        1.0,
        1.0,
        1.0
      ],
      "min": [
        -1.0,
        -1.0,
        -1.0
      ],
      "type": "VEC3"
    },
    {
      "bufferView": 1,
      "byteOffset": 28336,
      "componentType": 5126,
      "count": 128,
      "max": [
        0.9745424389839172,
        0.9786454439163208
      ],
      "min": [
        0.019999999552965164,
        0.018645523115992546
      ],
      "type": "VEC2"
    },
    {
      "bufferView": 0,
      "byteOffset": 25104,
      "componentType": 5125,
      "count": 222,
      "type": "SCALAR"
    },
    {
      "bufferView": 2,
      "byteOffset": 88080,
      "componentType": 5126,
      "count": 128,
      "max": [
        4.471429824829102,
        4.58282470703125,
        7.448593616485596
      ],
      "min": [
        -6.964807510375977,
        -4.585235595703125,
        0.2913074493408203
      ],
      "type": "VEC3"
    },
    {
      "bufferView": 2,
      "byteOffset": 89616,
      "componentType": 5126,
      "count": 128,
      "max": [
        1.0,
        1.0,
        1.0
      ],
      "min": [
        -1.0,
        -1.0,
        -1.0
      ],
      "type": "VEC3"
    },
    {
      "bufferView": 1,
      "byteOffset": 29360,
      "componentType": 5126,
      "count": 128,
      "max": [
        0.9745424389839172,
        0.9786454439163208
      ],
      "min": [
        0.019999999552965164,
        0.018645523115992546
      ],
      "type": "VEC2"
    },
    {
      "bufferView": 0,
      "byteOffset": 25992,
      "componentType": 5125,
      "count": 222,
      "type": "SCALAR"
    },
    {
      "bufferView": 2,
      "byteOffset": 91152,
      "componentType": 5126,
      "count": 128,
      "max": [
        4.471429824829102,
        4.58282470703125,
        7.448593616485596
      ],
      "min": [
        -6.964807510375977,
        -4.585235595703125,
        0.2913074493408203
      ],
      "type": "VEC3"
    },
    {
      "bufferView": 2,
      "byteOffset": 92688,
      "componentType": 5126,
      "count": 128,
      "max": [
        1.0,
        1.0,
        1.0
      ],
      "min": [
        -1.0,
        -1.0,
        -1.0
      ],
      "type": "VEC3"
    },
    {
      "bufferView": 1,
      "byteOffset": 30384,
      "componentType": 5126,
      "count": 128,
      "max": [
        0.9745424389839172,
        0.9786454439163208
      ],
      "min": [
        0.019999999552965164,
        0.018645523115992546
      ],
      "type": "VEC2"
    },
    {
      "bufferView": 0,
      "byteOffset": 26880,
      "componentType": 5125,
      "count": 222,
      "type": "SCALAR"
    },
    {
      "bufferView": 2,
      "byteOffset": 94224,
      "componentType": 5126,
      "count": 128,
      "max": [
        4.471429824829102,
        4.58282470703125,
        7.448593616485596
      ],
      "min": [
        -6.964807510375977,
        -4.585235595703125,
        0.2913074493408203
      ],
      "type": "VEC3"
    },
    {
      "bufferView": 2,
      "byteOffset": 95760,
      "componentType": 5126,
      "count": 128,
      "max": [
        1.0,
        1.0,
        1.0
      ],
      "min": [
        -1.0,
        -1.0,
        -1.0
      ],
      "type": "VEC3"
    },
    {
      "bufferView": 1,
      "byteOffset": 31408,
      "componentType": 5126,
      "count": 128,
      "max": [
        0.9745424389839172,
        0.9786454439163208
      ],
      "min": [
        0.019999999552965164,
        0.018645523115992546
      ],
      "type": "VEC2"
    },
    {
      "bufferView": 0,
      "byteOffset": 27768,
      "componentType": 5125,
      "count": 222,
      "type": "SCALAR"
    },
    {
      "bufferView": 2,
      "byteOffset": 97296,
      "componentType": 5126,
      "count": 128,
      "max": [
        4.471429824829102,
        4.58282470703125,
        7.448593616485596
      ],
      "min": [
        -6.964807510375977,
        -4.585235595703125,
        0.2913074493408203
      ],
      "type": "VEC3"
    },
    {
      "bufferView": 2,
      "byteOffset": 98832,
      "componentType": 5126,
      "count": 128,
      "max": [
        1.0,
        1.0,
        1.0
      ],
      "min": [
        -1.0,
        -1.0,
        -1.0
      ],
      "type": "VEC3"
    },
    {
      "bufferView": 1,
      "byteOffset": 32432,
      "componentType": 5126,
      "count": 128,
      "max": [
        0.9745424389839172,
        0.9786454439163208
      ],
      "min": [
        0.019999999552965164,
        0.018645523115992546
      ],
      "type": "VEC2"
    },
    {
      "bufferView": 0,
      "byteOffset": 28656,
      "componentType": 5125,
      "count": 222,
      "type": "SCALAR"
    },
    {
      "bufferView": 2,
      "byteOffset": 100368,
      "componentType": 5126,
      "count": 461,
      "max": [
        10.0,
        46.651859283447266,
        46.93683624267578
      ],
      "min": [
        -10.0,
        -4.999999873689376e-05,
        18.595027923583984
      ],
      "type": "VEC3"
    },
    {
      "bufferView": 2,
      "byteOffset": 105900,
      "componentType": 5126,
      "count": 461,
      "max": [
        1.0,
        1.0,
        1.0
      ],
      "min": [
        -1.0,
        -1.0,
        -1.0
      ],
      "type": "VEC3"
    },
    {
      "bufferView": 1,
      "byteOffset": 33456,
      "componentType": 5126,
      "count": 461,
      "max": [
        0.9799998998641968,
        0.9734516143798828
      ],
      "min": [
        0.019999999552965164,
        0.019999999552965164
      ],
      "type": "VEC2"
    },
    {
      "bufferView": 0,
      "byteOffset": 29544,
      "componentType": 5125,
      "count": 1332,
      "type": "SCALAR"
    },
    {
      "bufferView": 2,
      "byteOffset": 111432,
      "componentType": 5126,
      "count": 306,
      "max": [
        81.05194091796875,
        60.86201095581055,
        62.49876022338867
      ],
      "min": [
        -7.371459007263184,
        -17.180513381958008,
        -151.0819091796875
      ],
      "type": "VEC3"
    },
    {
      "bufferView": 2,
      "byteOffset": 115104,
      "componentType": 5126,
      "count": 306,
      "max": [
        1.0,
        1.0,
        0.9823960065841675
      ],
      "min": [
        -1.0,
        -1.0,
        -0.9767028093338013
      ],
      "type": "VEC3"
    },
    {
      "bufferView": 1,
      "byteOffset": 37144,
      "componentType": 5126,
      "count": 306,
      "max": [
        0.9260876178741455,
        0.7558508515357971
      ],
      "min": [
        0.0471825934946537,
        0.15101683139801025
      ],
      "type": "VEC2"
    },
    {
      "bufferView": 0,
      "byteOffset": 34872,
      "componentType": 5125,
      "count": 480,
      "type": "SCALAR"
    },
    {
      "bufferView": 2,
      "byteOffset": 118776,
      "componentType": 5126,
      "count": 24,
      "max": [
        6.989158630371094,
        6.740001678466797,
        12.368782997131348
      ],
      "min": [
        -6.989158630371094,
        -6.740001678466797,
        0.0
      ],
      "type": "VEC3"
    },
    {
      "bufferView": 2,
      "byteOffset": 119064,
      "componentType": 5126,
      "count": 24,
      "max": [
        1.0,
        1.0,
        1.0
      ],
      "min": [
        -1.0,
        -1.0,
        -1.0
      ],
      "type": "VEC3"
    },
    {
      "bufferView": 1,
      "byteOffset": 39592,
      "componentType": 5126,
      "count": 24,
      "max": [
        0.8175994157791138,
        0.9770345687866211
      ],
      "min": [
        0.09822793304920197,
        0.02411244995892048
      ],
      "type": "VEC2"
    },
    {
      "bufferView": 0,
      "byteOffset": 36792,
      "componentType": 5125,
      "count": 36,
      "type": "SCALAR"
    },
    {
      "bufferView": 2,
      "byteOffset": 119352,
      "componentType": 5126,
      "count": 144,
      "max": [
        -0.5268702507019043,
        11.696525573730469,
        -6.67572021484375e-06
      ],
      "min": [
        -1.5806198120117188,
        -11.696526527404785,
        -9.735801696777344
      ],
      "type": "VEC3"
    },
    {
      "bufferView": 2,
      "byteOffset": 121080,
      "componentType": 5126,
      "count": 144,
      "max": [
        1.0,
        1.0,
        1.0
      ],
      "min": [
        -1.0,
        -1.0,
        -1.0
      ],
      "type": "VEC3"
    },
    {
      "bufferView": 1,
      "byteOffset": 39784,
      "componentType": 5126,
      "count": 144,
      "max": [
        0.9751116633415222,
        0.9482393264770508
      ],
      "min": [
        0.015111744403839111,
        0.12998531758785248
      ],
      "type": "VEC2"
    },
    {
      "bufferView": 0,
      "byteOffset": 36936,
      "componentType": 5125,
      "count": 216,
      "type": "SCALAR"
    },
    {
      "bufferView": 2,
      "byteOffset": 122808,
      "componentType": 5126,
      "count": 16974,
      "max": [
        54.89393615722656,
        80.01180267333984,
        107.3812484741211
      ],
      "min": [
        -1267.27392578125,
        -128.79563903808594,
        -40.239227294921875
      ],
      "type": "VEC3"
    },
    {
      "bufferView": 2,
      "byteOffset": 326496,
      "componentType": 5126,
      "count": 16974,
      "max": [
        1.0,
        1.0,
        1.0
      ],
      "min": [
        -1.0,
        -1.0,
        -1.0
      ],
      "type": "VEC3"
    },
    {
      "bufferView": 1,
      "byteOffset": 40936,
      "componentType": 5126,
      "count": 16974,
      "max": [
        1.0,
        1.0
      ],
      "min": [
        -0.125,
        0.0
      ],
      "type": "VEC2"
    },
    {
      "bufferView": 0,
      "byteOffset": 37800,
      "componentType": 5125,
      "count": 27648,
      "type": "SCALAR"
    },
    {
      "bufferView": 2,
      "byteOffset": 530184,
      "componentType": 5126,
      "count": 256,
      "max": [
        144.59085083007813,
        34.271575927734375,
        43.02865982055664
      ],
      "min": [
        -9.842519760131836,
        -9.842534065246582,
        0.0
      ],
      "type": "VEC3"
    },
    {
      "bufferView": 2,
      "byteOffset": 533256,
      "componentType": 5126,
      "count": 256,
      "max": [
        1.0,
        1.0,
        1.0
      ],
      "min": [
        -1.0,
        -1.0,
        -1.0
      ],
      "type": "VEC3"
    },
    {
      "bufferView": 1,
      "byteOffset": 176728,
      "componentType": 5126,
      "count": 256,
      "max": [
        0.9495216608047485,
        0.9799999594688416
      ],
      "min": [
        0.019999999552965164,
        0.019999999552965164
      ],
      "type": "VEC2"
    },
    {
      "bufferView": 0,
      "byteOffset": 148392,
      "componentType": 5125,
      "count": 384,
      "type": "SCALAR"
    },
    {
      "bufferView": 2,
      "byteOffset": 536328,
      "componentType": 5126,
      "count": 804,
      "max": [
        17.02442741394043,
        15.349180221557617,
        2.2606475353240967
      ],
      "min": [
        -7.07235860824585,
        -15.349181175231934,
        -21.836139678955078
      ],
      "type": "VEC3"
    },
    {
      "bufferView": 2,
      "byteOffset": 545976,
      "componentType": 5126,
      "count": 804,
      "max": [
        1.0,
        1.0,
        1.0
      ],
      "min": [
        -1.0,
        -1.0,
        -1.0
      ],
      "type": "VEC3"
    },
    {
      "bufferView": 1,
      "byteOffset": 178776,
      "componentType": 5126,
      "count": 804,
      "max": [
        0.956618070602417,
        0.9754080772399902
      ],
      "min": [
        0.042145341634750366,
        0.005207836627960205
      ],
      "type": "VEC2"
    },
    {
      "bufferView": 0,
      "byteOffset": 149928,
      "componentType": 5125,
      "count": 1944,
      "type": "SCALAR"
    },
    {
      "bufferView": 2,
      "byteOffset": 555624,
      "componentType": 5126,
      "count": 804,
      "max": [
        17.02442741394043,
        15.349180221557617,
        2.2606475353240967
      ],
      "min": [
        -7.07235860824585,
        -15.349181175231934,
        -21.836139678955078
      ],
      "type": "VEC3"
    },
    {
      "bufferView": 2,
      "byteOffset": 565272,
      "componentType": 5126,
      "count": 804,
      "max": [
        1.0,
        1.0,
        1.0
      ],
      "min": [
        -1.0,
        -1.0,
        -1.0
      ],
      "type": "VEC3"
    },
    {
      "bufferView": 1,
      "byteOffset": 185208,
      "componentType": 5126,
      "count": 804,
      "max": [
        0.956618070602417,
        0.9754080772399902
      ],
      "min": [
        0.042145341634750366,
        0.005207836627960205
      ],
      "type": "VEC2"
    },
    {
      "bufferView": 0,
      "byteOffset": 157704,
      "componentType": 5125,
      "count": 1944,
      "type": "SCALAR"
    },
    {
      "bufferView": 2,
      "byteOffset": 574920,
      "componentType": 5126,
      "count": 662,
      "max": [
        20.57127571105957,
        19.85434341430664,
        9.767372131347656
      ],
      "min": [
        -20.15147590637207,
        -19.85434341430664,
        -2.7826004028320313
      ],
      "type": "VEC3"
    },
    {
      "bufferView": 2,
      "byteOffset": 582864,
      "componentType": 5126,
      "count": 662,
      "max": [
        1.0,
        1.0,
        1.0
      ],
      "min": [
        -1.0,
        -1.0,
        -1.0
      ],
      "type": "VEC3"
    },
    {
      "bufferView": 1,
      "byteOffset": 191640,
      "componentType": 5126,
      "count": 662,
      "max": [
        0.9482094049453735,
        0.9497259855270386
      ],
      "min": [
        0.03537815064191818,
        0.014701496809720993
      ],
      "type": "VEC2"
    },
    {
      "bufferView": 0,
      "byteOffset": 165480,
      "componentType": 5125,
      "count": 1152,
      "type": "SCALAR"
    },
    {
      "bufferView": 2,
      "byteOffset": 590808,
      "componentType": 5126,
      "count": 662,
      "max": [
        20.57127571105957,
        19.85434341430664,
        9.767372131347656
      ],
      "min": [
        -20.15147590637207,
        -19.85434341430664,
        -2.7826004028320313
      ],
      "type": "VEC3"
    },
    {
      "bufferView": 2,
      "byteOffset": 598752,
      "componentType": 5126,
      "count": 662,
      "max": [
        1.0,
        1.0,
        1.0
      ],
      "min": [
        -1.0,
        -1.0,
        -1.0
      ],
      "type": "VEC3"
    },
    {
      "bufferView": 1,
      "byteOffset": 196936,
      "componentType": 5126,
      "count": 662,
      "max": [
        0.9482094049453735,
        0.9497259855270386
      ],
      "min": [
        0.03537815064191818,
        0.014701496809720993
      ],
      "type": "VEC2"
    },
    {
      "bufferView": 0,
      "byteOffset": 170088,
      "componentType": 5125,
      "count": 1152,
      "type": "SCALAR"
    },
    {
      "bufferView": 2,
      "byteOffset": 606696,
      "componentType": 5126,
      "count": 662,
      "max": [
        20.57127571105957,
        19.85434341430664,
        9.767372131347656
      ],
      "min": [
        -20.15147590637207,
        -19.85434341430664,
        -2.7826004028320313
      ],
      "type": "VEC3"
    },
    {
      "bufferView": 2,
      "byteOffset": 614640,
      "componentType": 5126,
      "count": 662,
      "max": [
        1.0,
        1.0,
        1.0
      ],
      "min": [
        -1.0,
        -1.0,
        -1.0
      ],
      "type": "VEC3"
    },
    {
      "bufferView": 1,
      "byteOffset": 202232,
      "componentType": 5126,
      "count": 662,
      "max": [
        0.9482094049453735,
        0.9497259855270386
      ],
      "min": [
        0.03537815064191818,
        0.014701496809720993
      ],
      "type": "VEC2"
    },
    {
      "bufferView": 0,
      "byteOffset": 174696,
      "componentType": 5125,
      "count": 1152,
      "type": "SCALAR"
    },
    {
      "bufferView": 2,
      "byteOffset": 622584,
      "componentType": 5126,
      "count": 662,
      "max": [
        20.57127571105957,
        19.85434341430664,
        9.767372131347656
      ],
      "min": [
        -20.15147590637207,
        -19.85434341430664,
        -2.7826004028320313
      ],
      "type": "VEC3"
    },
    {
      "bufferView": 2,
      "byteOffset": 630528,
      "componentType": 5126,
      "count": 662,
      "max": [
        1.0,
        1.0,
        1.0
      ],
      "min": [
        -1.0,
        -1.0,
        -1.0
      ],
      "type": "VEC3"
    },
    {
      "bufferView": 1,
      "byteOffset": 207528,
      "componentType": 5126,
      "count": 662,
      "max": [
        0.9482094049453735,
        0.9497259855270386
      ],
      "min": [
        0.03537815064191818,
        0.014701496809720993
      ],
      "type": "VEC2"
    },
    {
      "bufferView": 0,
      "byteOffset": 179304,
      "componentType": 5125,
      "count": 1152,
      "type": "SCALAR"
    },
    {
      "bufferView": 2,
      "byteOffset": 638472,
      "componentType": 5126,
      "count": 662,
      "max": [
        20.57127571105957,
        19.85434341430664,
        9.767372131347656
      ],
      "min": [
        -20.15147590637207,
        -19.85434341430664,
        -2.7826004028320313
      ],
      "type": "VEC3"
    },
    {
      "bufferView": 2,
      "byteOffset": 646416,
      "componentType": 5126,
      "count": 662,
      "max": [
        1.0,
        1.0,
        1.0
      ],
      "min": [
        -1.0,
        -1.0,
        -1.0
      ],
      "type": "VEC3"
    },
    {
      "bufferView": 1,
      "byteOffset": 212824,
      "componentType": 5126,
      "count": 662,
      "max": [
        0.9482094049453735,
        0.9497259855270386
      ],
      "min": [
        0.03537815064191818,
        0.014701496809720993
      ],
      "type": "VEC2"
    },
    {
      "bufferView": 0,
      "byteOffset": 183912,
      "componentType": 5125,
      "count": 1152,
      "type": "SCALAR"
    },
    {
      "bufferView": 2,
      "byteOffset": 654360,
      "componentType": 5126,
      "count": 662,
      "max": [
        20.57127571105957,
        19.85434341430664,
        9.767372131347656
      ],
      "min": [
        -20.15147590637207,
        -19.85434341430664,
        -2.7826004028320313
      ],
      "type": "VEC3"
    },
    {
      "bufferView": 2,
      "byteOffset": 662304,
      "componentType": 5126,
      "count": 662,
      "max": [
        1.0,
        1.0,
        1.0
      ],
      "min": [
        -1.0,
        -1.0,
        -1.0
      ],
      "type": "VEC3"
    },
    {
      "bufferView": 1,
      "byteOffset": 218120,
      "componentType": 5126,
      "count": 662,
      "max": [
        0.9482094049453735,
        0.9497259855270386
      ],
      "min": [
        0.03537815064191818,
        0.014701496809720993
      ],
      "type": "VEC2"
    },
    {
      "bufferView": 0,
      "byteOffset": 188520,
      "componentType": 5125,
      "count": 1152,
      "type": "SCALAR"
    },
    {
      "bufferView": 2,
      "byteOffset": 670248,
      "componentType": 5126,
      "count": 662,
      "max": [
        20.57127571105957,
        19.85434341430664,
        9.767372131347656
      ],
      "min": [
        -20.15147590637207,
        -19.85434341430664,
        -2.7826004028320313
      ],
      "type": "VEC3"
    },
    {
      "bufferView": 2,
      "byteOffset": 678192,
      "componentType": 5126,
      "count": 662,
      "max": [
        1.0,
        1.0,
        1.0
      ],
      "min": [
        -1.0,
        -1.0,
        -1.0
      ],
      "type": "VEC3"
    },
    {
      "bufferView": 1,
      "byteOffset": 223416,
      "componentType": 5126,
      "count": 662,
      "max": [
        0.9482094049453735,
        0.9497259855270386
      ],
      "min": [
        0.03537815064191818,
        0.014701496809720993
      ],
      "type": "VEC2"
    },
    {
      "bufferView": 0,
      "byteOffset": 193128,
      "componentType": 5125,
      "count": 1152,
      "type": "SCALAR"
    },
    {
      "bufferView": 2,
      "byteOffset": 686136,
      "componentType": 5126,
      "count": 662,
      "max": [
        20.57127571105957,
        19.85434341430664,
        9.767372131347656
      ],
      "min": [
        -20.15147590637207,
        -19.85434341430664,
        -2.7826004028320313
      ],
      "type": "VEC3"
    },
    {
      "bufferView": 2,
      "byteOffset": 694080,
      "componentType": 5126,
      "count": 662,
      "max": [
        1.0,
        1.0,
        1.0
      ],
      "min": [
        -1.0,
        -1.0,
        -1.0
      ],
      "type": "VEC3"
    },
    {
      "bufferView": 1,
      "byteOffset": 228712,
      "componentType": 5126,
      "count": 662,
      "max": [
        0.9482094049453735,
        0.9497259855270386
      ],
      "min": [
        0.03537815064191818,
        0.014701496809720993
      ],
      "type": "VEC2"
    },
    {
      "bufferView": 0,
      "byteOffset": 197736,
      "componentType": 5125,
      "count": 1152,
      "type": "SCALAR"
    },
    {
      "bufferView": 2,
      "byteOffset": 702024,
      "componentType": 5126,
      "count": 662,
      "max": [
        20.57127571105957,
        19.85434341430664,
        9.767372131347656
      ],
      "min": [
        -20.15147590637207,
        -19.85434341430664,
        -2.7826004028320313
      ],
      "type": "VEC3"
    },
    {
      "bufferView": 2,
      "byteOffset": 709968,
      "componentType": 5126,
      "count": 662,
      "max": [
        1.0,
        1.0,
        1.0
      ],
      "min": [
        -1.0,
        -1.0,
        -1.0
      ],
      "type": "VEC3"
    },
    {
      "bufferView": 1,
      "byteOffset": 234008,
      "componentType": 5126,
      "count": 662,
      "max": [
        0.9482094049453735,
        0.9497259855270386
      ],
      "min": [
        0.03537815064191818,
        0.014701496809720993
      ],
      "type": "VEC2"
    },
    {
      "bufferView": 0,
      "byteOffset": 202344,
      "componentType": 5125,
      "count": 1152,
      "type": "SCALAR"
    },
    {
      "bufferView": 2,
      "byteOffset": 717912,
      "componentType": 5126,
      "count": 662,
      "max": [
        20.57127571105957,
        19.85434341430664,
        9.767372131347656
      ],
      "min": [
        -20.15147590637207,
        -19.85434341430664,
        -2.7826004028320313
      ],
      "type": "VEC3"
    },
    {
      "bufferView": 2,
      "byteOffset": 725856,
      "componentType": 5126,
      "count": 662,
      "max": [
        1.0,
        1.0,
        1.0
      ],
      "min": [
        -1.0,
        -1.0,
        -1.0
      ],
      "type": "VEC3"
    },
    {
      "bufferView": 1,
      "byteOffset": 239304,
      "componentType": 5126,
      "count": 662,
      "max": [
        0.9482094049453735,
        0.9497259855270386
      ],
      "min": [
        0.03537815064191818,
        0.014701496809720993
      ],
      "type": "VEC2"
    },
    {
      "bufferView": 0,
      "byteOffset": 206952,
      "componentType": 5125,
      "count": 1152,
      "type": "SCALAR"
    },
    {
      "bufferView": 2,
      "byteOffset": 733800,
      "componentType": 5126,
      "count": 662,
      "max": [
        20.57127571105957,
        19.85434341430664,
        9.767372131347656
      ],
      "min": [
        -20.15147590637207,
        -19.85434341430664,
        -2.7826004028320313
      ],
      "type": "VEC3"
    },
    {
      "bufferView": 2,
      "byteOffset": 741744,
      "componentType": 5126,
      "count": 662,
      "max": [
        1.0,
        1.0,
        1.0
      ],
      "min": [
        -1.0,
        -1.0,
        -1.0
      ],
      "type": "VEC3"
    },
    {
      "bufferView": 1,
      "byteOffset": 244600,
      "componentType": 5126,
      "count": 662,
      "max": [
        0.9482094049453735,
        0.9497259855270386
      ],
      "min": [
        0.03537815064191818,
        0.014701496809720993
      ],
      "type": "VEC2"
    },
    {
      "bufferView": 0,
      "byteOffset": 211560,
      "componentType": 5125,
      "count": 1152,
      "type": "SCALAR"
    },
    {
      "bufferView": 2,
      "byteOffset": 749688,
      "componentType": 5126,
      "count": 662,
      "max": [
        20.57127571105957,
        19.85434341430664,
        9.767372131347656
      ],
      "min": [
        -20.15147590637207,
        -19.85434341430664,
        -2.7826004028320313
      ],
      "type": "VEC3"
    },
    {
      "bufferView": 2,
      "byteOffset": 757632,
      "componentType": 5126,
      "count": 662,
      "max": [
        1.0,
        1.0,
        1.0
      ],
      "min": [
        -1.0,
        -1.0,
        -1.0
      ],
      "type": "VEC3"
    },
    {
      "bufferView": 1,
      "byteOffset": 249896,
      "componentType": 5126,
      "count": 662,
      "max": [
        0.9482094049453735,
        0.9497259855270386
      ],
      "min": [
        0.03537815064191818,
        0.014701496809720993
      ],
      "type": "VEC2"
    },
    {
      "bufferView": 0,
      "byteOffset": 216168,
      "componentType": 5125,
      "count": 1152,
      "type": "SCALAR"
    },
    {
      "bufferView": 2,
      "byteOffset": 765576,
      "componentType": 5126,
      "count": 10655,
      "max": [
        17.08659553527832,
        1.5735914707183838,
        7.638739585876465
      ],
      "min": [
        -5.8448686599731445,
        -4.004995346069336,
        -12.106539726257324
      ],
      "type": "VEC3"
    },
    {
      "bufferView": 2,
      "byteOffset": 893436,
      "componentType": 5126,
      "count": 10655,
      "max": [
        1.0,
        1.0,
        1.0
      ],
      "min": [
        -1.0,
        -1.0,
        -1.0
      ],
      "type": "VEC3"
    },
    {
      "bufferView": 1,
      "byteOffset": 255192,
      "componentType": 5126,
      "count": 10655,
      "max": [
        0.9799999594688416,
        0.9882084131240845
      ],
      "min": [
        0.019999999552965164,
        0.019999999552965164
      ],
      "type": "VEC2"
    },
    {
      "bufferView": 0,
      "byteOffset": 220776,
      "componentType": 5125,
      "count": 18234,
      "type": "SCALAR"
    },
    {
      "bufferView": 2,
      "byteOffset": 1021296,
      "componentType": 5126,
      "count": 2403,
      "max": [
        27.618480682373047,
        38.52978515625,
        17.42531394958496
      ],
      "min": [
        -27.303003311157227,
        -19.113893508911133,
        -60.08440017700195
      ],
      "type": "VEC3"
    },
    {
      "bufferView": 2,
      "byteOffset": 1050132,
      "componentType": 5126,
      "count": 2403,
      "max": [
        1.0,
        0.9999517798423767,
        1.0
      ],
      "min": [
        -1.0,
        -0.9999517798423767,
        -1.0
      ],
      "type": "VEC3"
    },
    {
      "bufferView": 1,
      "byteOffset": 340432,
      "componentType": 5126,
      "count": 2403,
      "max": [
        0.9786319136619568,
        0.993914783000946
      ],
      "min": [
        0.034278109669685364,
        0.02963063307106495
      ],
      "type": "VEC2"
    },
    {
      "bufferView": 0,
      "byteOffset": 293712,
      "componentType": 5125,
      "count": 4878,
      "type": "SCALAR"
    },
    {
      "bufferView": 2,
      "byteOffset": 1078968,
      "componentType": 5126,
      "count": 8095,
      "max": [
        21.191200256347656,
        12.994524002075195,
        12.220993041992188
      ],
      "min": [
        -16.842220306396484,
        -9.141576766967773,
        -36.970054626464844
      ],
      "type": "VEC3"
    },
    {
      "bufferView": 2,
      "byteOffset": 1176108,
      "componentType": 5126,
      "count": 8095,
      "max": [
        1.0,
        1.0,
        1.0
      ],
      "min": [
        -1.0,
        -1.0,
        -1.0
      ],
      "type": "VEC3"
    },
    {
      "bufferView": 1,
      "byteOffset": 359656,
      "componentType": 5126,
      "count": 8095,
      "max": [
        0.9707430601119995,
        0.9812711477279663
      ],
      "min": [
        0.018614575266838074,
        0.015878411009907722
      ],
      "type": "VEC2"
    },
    {
      "bufferView": 0,
      "byteOffset": 313224,
      "componentType": 5125,
      "count": 27648,
      "type": "SCALAR"
    },
    {
      "bufferView": 3,
      "componentType": 5126,
      "count": 1,
      "max": [
        0.0
      ],
      "min": [
        0.0
      ],
      "type": "SCALAR"
    },
    {
      "bufferView": 4,
      "componentType": 5126,
      "count": 1,
      "max": [
        1.000000238418579,
        0.9999998211860657,
        0.9999998807907104
      ],
      "min": [
        1.000000238418579,
        0.9999998211860657,
        0.9999998807907104
      ],
      "type": "VEC3"
    },
    {
      "bufferView": 3,
      "byteOffset": 4,
      "componentType": 5126,
      "count": 1,
      "max": [
        0.0
      ],
      "min": [
        0.0
      ],
      "type": "SCALAR"
    },
    {
      "bufferView": 5,
      "componentType": 5126,
      "count": 1,
      "max": [
        0.05948387831449509,
        0.22453103959560394,
        -0.013732892461121082,
        0.9725527763366699
      ],
      "min": [
        0.05948387831449509,
        0.22453103959560394,
        -0.013732892461121082,
        0.9725527763366699
      ],
      "type": "VEC4"
    },
    {
      "bufferView": 3,
      "byteOffset": 8,
      "componentType": 5126,
      "count": 1,
      "max": [
        0.0
      ],
      "min": [
        0.0
      ],
      "type": "SCALAR"
    },
    {
      "bufferView": 5,
      "byteOffset": 16,
      "componentType": 5126,
      "count": 1,
      "max": [
        -2.164890647165006e-17,
        -0.7071067094802856,
        -2.164890316292761e-17,
        0.7071068286895752
      ],
      "min": [
        -2.164890647165006e-17,
        -0.7071067094802856,
        -2.164890316292761e-17,
        0.7071068286895752
      ],
      "type": "VEC4"
    },
    {
      "bufferView": 3,
      "byteOffset": 12,
      "componentType": 5126,
      "count": 101,
      "max": [
        3.3333332538604736
      ],
      "min": [
        0.0
      ],
      "type": "SCALAR"
    },
    {
      "bufferView": 4,
      "byteOffset": 12,
      "componentType": 5126,
      "count": 101,
      "max": [
        62.8416748046875,
        43.34510040283203,
        -9.23818588256836
      ],
      "min": [
        -10.392847061157227,
        43.34510040283203,
        -9.23818588256836
      ],
      "type": "VEC3"
    },
    {
      "bufferView": 3,
      "byteOffset": 416,
      "componentType": 5126,
      "count": 26,
      "max": [
        3.3333332538604736
      ],
      "min": [
        0.0
      ],
      "type": "SCALAR"
    },
    {
      "bufferView": 5,
      "byteOffset": 32,
      "componentType": 5126,
      "count": 26,
      "max": [
        0.4987850785255432,
        0.7067510485649109,
        0.7067510485649109,
        0.5012120008468628
      ],
      "min": [
        -0.5012120604515076,
        0.49878501892089844,
        0.49878501892089844,
        -0.4987850487232208
      ],
      "type": "VEC4"
    }
  ],
  "animations": [
    {
      "channels": [
        {
          "sampler": 0,
          "target": {
            "node": 48,
            "path": "scale"
          }
        },
        {
          "sampler": 1,
          "target": {
            "node": 48,
            "path": "rotation"
          }
        },
        {
          "sampler": 2,
          "target": {
            "node": 97,
            "path": "rotation"
          }
        },
        {
          "sampler": 3,
          "target": {
            "node": 100,
            "path": "translation"
          }
        },
        {
          "sampler": 4,
          "target": {
            "node": 100,
            "path": "rotation"
          }
        }
      ],
      "name": "Take 001",
      "samplers": [
        {
          "input": 148,
          "interpolation": "LINEAR",
          "output": 149
        },
        {
          "input": 150,
          "interpolation": "LINEAR",
          "output": 151
        },
        {
          "input": 152,
          "interpolation": "LINEAR",
          "output": 153
        },
        {
          "input": 154,
          "interpolation": "LINEAR",
          "output": 155
        },
        {
          "input": 156,
          "interpolation": "LINEAR",
          "output": 157
        }
      ]
    }
  ],
  "asset": {
    "extras": {
      "author": "ricard.juan.2016 (https://sketchfab.com/ricard.juan.2016)",
      "license": "CC-BY-4.0 (http://creativecommons.org/licenses/by/4.0/)",
      "source": "https://sketchfab.com/3d-models/x-wing-diorama-47fb48d01b6545e7940238b0a64dd463",
      "title": "X-Wing diorama"
    },
    "generator": "Sketchfab-12.68.0",
    "version": "2.0"
  },
  "bufferViews": [
    {
      "buffer": 0,
      "byteLength": 423816,
      "name": "floatBufferViews",
      "target": 34963
    },
    {
      "buffer": 0,
      "byteLength": 424416,
      "byteOffset": 423816,
      "byteStride": 8,
      "name": "floatBufferViews",
      "target": 34962
    },
    {
      "buffer": 0,
      "byteLength": 1273248,
      "byteOffset": 848232,
      "byteStride": 12,
      "name": "floatBufferViews",
      "target": 34962
    },
    {
      "buffer": 0,
      "byteLength": 520,
      "byteOffset": 2121480,
      "name": "floatBufferViews"
    },
    {
      "buffer": 0,
      "byteLength": 1224,
      "byteOffset": 2122000,
      "byteStride": 12,
      "name": "floatBufferViews"
    },
    {
      "buffer": 0,
      "byteLength": 448,
      "byteOffset": 2123224,
      "byteStride": 16,
      "name": "floatBufferViews"
    }
  ],
  "buffers": [
    {
      "byteLength": 2123672,
      "uri": "scene.bin"
    }
  ],
  "images": [
    {
      "uri": "textures/Suelo_baseColor.png"
    },
    {
      "uri": "textures/Cajas_baseColor.png"
    },
    {
      "uri": "textures/Faroles_baseColor.png"
    },
    {
      "uri": "textures/Ordenador_baseColor.png"
    },
    {
      "uri": "textures/cable_baseColor.png"
    },
    {
      "uri": "textures/fuente_alimentacion_baseColor.png"
    },
    {
      "uri": "textures/Ventanas_baseColor.png"
    },
    {
      "uri": "textures/Material_2_baseColor.png"
    },
    {
      "uri": "textures/Material_r2d2_baseColor.png"
    },
    {
      "uri": "textures/Material_2_0_baseColor.png"
    }
  ],
  "materials": [
    {
      "doubleSided": true,
      "name": "plataforma_pasarela",
      "pbrMetallicRoughness": {
        "baseColorFactor": [
          0.30026978286695144,
          0.06331982200087115,
          0.0,
          1.0
        ],
        "roughnessFactor": 0.48608993902439024
      }
    },
    {
      "doubleSided": true,
      "name": "pasamans_pasarela",
      "pbrMetallicRoughness": {
        "baseColorFactor": [
          0.972549,
          0.847059,
          0.0,
          1.0
        ],
        "metallicFactor": 0.0,
        "roughnessFactor": 0.8929713596
      }
    },
    {
      "doubleSided": true,
      "name": "escaleras",
      "pbrMetallicRoughness": {
        "baseColorFactor": [
          0.34927591463414637,
          0.279420731707317,
          0.0,
          1.0
        ],
        "roughnessFactor": 0.6019435975609756
      }
    },
    {
      "doubleSided": true,
      "name": "Suelo",
      "pbrMetallicRoughness": {
        "baseColorFactor": [
          0.6907393292682927,
          0.6907393292682927,
          0.6907393292682927,
          1.0
        ],
        "baseColorTexture": {
          "index": 0
        },
        "roughnessFactor": 0.5470655487804877
      }
    },
    {
      "doubleSided": true,
      "name": "Cajas",
      "pbrMetallicRoughness": {
        "baseColorFactor": [
          0.22122713414634146,
          0.22122713414634146,
          0.22122713414634146,
          1.0
        ],
        "baseColorTexture": {
          "index": 1
        },
        "metallicFactor": 0.0,
        "roughnessFactor": 0.8929713596
      }
    },
    {
      "doubleSided": true,
      "name": "Faroles",
      "pbrMetallicRoughness": {
        "baseColorTexture": {
          "index": 2
        },
        "roughnessFactor": 0.4434070121951219
      }
    },
    {
      "doubleSided": true,
      "emissiveFactor": [
        0.05,
        0.010907976115227768,
        0.0
      ],
      "name": "Ordenador",
      "pbrMetallicRoughness": {
        "baseColorTexture": {
          "index": 3
        },
        "metallicFactor": 0.410251524390244,
        "roughnessFactor": 0.37633384146341464
      }
    },
    {
      "doubleSided": true,
      "name": "cable",
      "pbrMetallicRoughness": {
        "baseColorFactor": [
          0.11756859756097562,
          0.11756859756097562,
          0.11756859756097562,
          1.0
        ],
        "baseColorTexture": {
          "index": 4
        },
        "metallicFactor": 0.0,
        "roughnessFactor": 0.8929713596
      }
    },
    {
      "doubleSided": true,
      "emissiveFactor": [
        0.01688917526031781,
        0.0,
        0.19211486314486922
      ],
      "name": "fuente_alimentacion",
      "pbrMetallicRoughness": {
        "baseColorTexture": {
          "index": 5
        },
        "metallicFactor": 0.5017149390243902,
        "roughnessFactor": 0.290967987804878
      }
    },
    {
      "doubleSided": true,
      "name": "soport_pasarela",
      "pbrMetallicRoughness": {
        "baseColorFactor": [
          0.184314,
          0.184314,
          0.184314,
          1.0
        ],
        "roughnessFactor": 0.5043826219512195
      }
    },
    {
      "doubleSided": true,
      "name": "base_pasarela",
      "pbrMetallicRoughness": {
        "baseColorFactor": [
          0.282353,
          0.282353,
          0.282353,
          1.0
        ],
        "metallicFactor": 0.7761051829268293,
        "roughnessFactor": 0.0
      }
    },
    {
      "doubleSided": true,
      "emissiveFactor": [
        0.0884265431566017,
        0.09022800986427694,
        0.0
      ],
      "name": "Ventanas",
      "pbrMetallicRoughness": {
        "baseColorTexture": {
          "index": 6
        },
        "metallicFactor": 0.0,
        "roughnessFactor": 0.8929713596
      }
    },
    {
      "doubleSided": true,
      "emissiveFactor": [
        2.3336801323445778e-05,
        0.0,
        0.02109889539120891
      ],
      "name": "Material_2",
      "pbrMetallicRoughness": {
        "baseColorTexture": {
          "index": 7
        },
        "metallicFactor": 0.45293445121951226,
        "roughnessFactor": 0.44950457317073167
      }
    },
    {
      "doubleSided": true,
      "name": "Material_r2d2",
      "pbrMetallicRoughness": {
        "baseColorTexture": {
          "index": 8
        },
        "metallicFactor": 0.410251524390244,
        "roughnessFactor": 0.4312118902439024
      }
    },
    {
      "doubleSided": true,
      "emissiveFactor": [
        0.05,
        0.0,
        0.002864891716729956
      ],
      "name": "Material_2_0",
      "pbrMetallicRoughness": {
        "baseColorTexture": {
          "index": 9
        },
        "metallicFactor": 0.5931783536585366,
        "roughnessFactor": 0.4434070121951219
      }
    }
  ],
  "meshes": [
    {
      "name": "suelo_pasarela_plataforma_pasarela_0",
      "primitives": [
        {
          "attributes": {
            "NORMAL": 1,
            "POSITION": 0,
            "TEXCOORD_0": 2
          },
          "indices": 3,
          "material": 0,
          "mode": 4
        }
      ]
    },
    {
      "name": "barandilla_pasamans_pasarela_0",
      "primitives": [
        {
          "attributes": {
            "NORMAL": 5,
            "POSITION": 4,
            "TEXCOORD_0": 6
          },
          "indices": 7,
          "material": 1,
          "mode": 4
        }
      ]
    },
    {
      "name": "escalera2_escaleras_0",
      "primitives": [
        {
          "attributes": {
            "NORMAL": 9,
            "POSITION": 8,
            "TEXCOORD_0": 10
          },
          "indices": 11,
          "material": 2,
          "mode": 4
        }
      ]
    },
    {
      "name": "suelo_Suelo_0",
      "primitives": [
        {
          "attributes": {
            "NORMAL": 13,
            "POSITION": 12,
            "TEXCOORD_0": 14
          },
          "indices": 15,
          "material": 3,
          "mode": 4
        }
      ]
    },
    {
      "name": "caja_rara002_Cajas_0",
      "primitives": [
        {
          "attributes": {
            "NORMAL": 17,
            "POSITION": 16,
            "TEXCOORD_0": 18
          },
          "indices": 19,
          "material": 4,
          "mode": 4
        }
      ]
    },
    {
      "name": "foco_suelo001_Faroles_0",
      "primitives": [
        {
          "attributes": {
            "NORMAL": 21,
            "POSITION": 20,
            "TEXCOORD_0": 22
          },
          "indices": 23,
          "material": 5,
          "mode": 4
        }
      ]
    },
    {
      "name": "foco_suelo002_Faroles_0",
      "primitives": [
        {
          "attributes": {
            "NORMAL": 25,
            "POSITION": 24,
            "TEXCOORD_0": 26
          },
          "indices": 27,
          "material": 5,
          "mode": 4
        }
      ]
    },
    {
      "name": "foco_suelo003_Faroles_0",
      "primitives": [
        {
          "attributes": {
            "NORMAL": 29,
            "POSITION": 28,
            "TEXCOORD_0": 30
          },
          "indices": 31,
          "material": 5,
          "mode": 4
        }
      ]
    },
    {
      "name": "foco_suelo004_Faroles_0",
      "primitives": [
        {
          "attributes": {
            "NORMAL": 33,
            "POSITION": 32,
            "TEXCOORD_0": 34
          },
          "indices": 35,
          "material": 5,
          "mode": 4
        }
      ]
    },
    {
      "name": "foco_suelo006_Faroles_0",
      "primitives": [
        {
          "attributes": {
            "NORMAL": 37,
            "POSITION": 36,
            "TEXCOORD_0": 38
          },
          "indices": 39,
          "material": 5,
          "mode": 4
        }
      ]
    },
    {
      "name": "foco_suelo007_Faroles_0",
      "primitives": [
        {
          "attributes": {
            "NORMAL": 41,
            "POSITION": 40,
            "TEXCOORD_0": 42
          },
          "indices": 43,
          "material": 5,
          "mode": 4
        }
      ]
    },
    {
      "name": "foco_suelo008_Faroles_0",
      "primitives": [
        {
          "attributes": {
            "NORMAL": 45,
            "POSITION": 44,
            "TEXCOORD_0": 46
          },
          "indices": 47,
          "material": 5,
          "mode": 4
        }
      ]
    },
    {
      "name": "foco_suelo009_Faroles_0",
      "primitives": [
        {
          "attributes": {
            "NORMAL": 49,
            "POSITION": 48,
            "TEXCOORD_0": 50
          },
          "indices": 51,
          "material": 5,
          "mode": 4
        }
      ]
    },
    {
      "name": "foco_suelo010_Faroles_0",
      "primitives": [
        {
          "attributes": {
            "NORMAL": 53,
            "POSITION": 52,
            "TEXCOORD_0": 54
          },
          "indices": 55,
          "material": 5,
          "mode": 4
        }
      ]
    },
    {
      "name": "Box016_Ordenador_0",
      "primitives": [
        {
          "attributes": {
            "NORMAL": 57,
            "POSITION": 56,
            "TEXCOORD_0": 58
          },
          "indices": 59,
          "material": 6,
          "mode": 4
        }
      ]
    },
    {
      "name": "Cylinder001_cable_0",
      "primitives": [
        {
          "attributes": {
            "NORMAL": 61,
            "POSITION": 60,
            "TEXCOORD_0": 62
          },
          "indices": 63,
          "material": 7,
          "mode": 4
        }
      ]
    },
    {
      "name": "Box004_fuente alimentacion_0",
      "primitives": [
        {
          "attributes": {
            "NORMAL": 65,
            "POSITION": 64,
            "TEXCOORD_0": 66
          },
          "indices": 67,
          "material": 8,
          "mode": 4
        }
      ]
    },
    {
      "name": "escalera003_escaleras_0",
      "primitives": [
        {
          "attributes": {
            "NORMAL": 69,
            "POSITION": 68,
            "TEXCOORD_0": 70
          },
          "indices": 71,
          "material": 2,
          "mode": 4
        }
      ]
    },
    {
      "name": "union006_soport_pasarela_0",
      "primitives": [
        {
          "attributes": {
            "NORMAL": 73,
            "POSITION": 72,
            "TEXCOORD_0": 74
          },
          "indices": 75,
          "material": 9,
          "mode": 4
        }
      ]
    },
    {
      "name": "Box001_base_pasarela_0",
      "primitives": [
        {
          "attributes": {
            "NORMAL": 77,
            "POSITION": 76,
            "TEXCOORD_0": 78
          },
          "indices": 79,
          "material": 10,
          "mode": 4
        }
      ]
    },
    {
      "name": "caja_rara004_Cajas_0",
      "primitives": [
        {
          "attributes": {
            "NORMAL": 81,
            "POSITION": 80,
            "TEXCOORD_0": 82
          },
          "indices": 83,
          "material": 4,
          "mode": 4
        }
      ]
    },
    {
      "name": "caja_rara005_Cajas_0",
      "primitives": [
        {
          "attributes": {
            "NORMAL": 85,
            "POSITION": 84,
            "TEXCOORD_0": 86
          },
          "indices": 87,
          "material": 4,
          "mode": 4
        }
      ]
    },
    {
      "name": "Box014_Ventanas_0",
      "primitives": [
        {
          "attributes": {
            "NORMAL": 89,
            "POSITION": 88,
            "TEXCOORD_0": 90
          },
          "indices": 91,
          "material": 11,
          "mode": 4
        }
      ]
    },
    {
      "name": "Box013_Ventanas_0",
      "primitives": [
        {
          "attributes": {
            "NORMAL": 93,
            "POSITION": 92,
            "TEXCOORD_0": 94
          },
          "indices": 95,
          "material": 11,
          "mode": 4
        }
      ]
    },
    {
      "name": "Box012_Ventanas_0",
      "primitives": [
        {
          "attributes": {
            "NORMAL": 97,
            "POSITION": 96,
            "TEXCOORD_0": 98
          },
          "indices": 99,
          "material": 11,
          "mode": 4
        }
      ]
    },
    {
      "name": "Box011_Ventanas_0",
      "primitives": [
        {
          "attributes": {
            "NORMAL": 101,
            "POSITION": 100,
            "TEXCOORD_0": 102
          },
          "indices": 103,
          "material": 11,
          "mode": 4
        }
      ]
    },
    {
      "name": "Box010_Ventanas_0",
      "primitives": [
        {
          "attributes": {
            "NORMAL": 105,
            "POSITION": 104,
            "TEXCOORD_0": 106
          },
          "indices": 107,
          "material": 11,
          "mode": 4
        }
      ]
    },
    {
      "name": "Box009_Ventanas_0",
      "primitives": [
        {
          "attributes": {
            "NORMAL": 109,
            "POSITION": 108,
            "TEXCOORD_0": 110
          },
          "indices": 111,
          "material": 11,
          "mode": 4
        }
      ]
    },
    {
      "name": "Box008_Ventanas_0",
      "primitives": [
        {
          "attributes": {
            "NORMAL": 113,
            "POSITION": 112,
            "TEXCOORD_0": 114
          },
          "indices": 115,
          "material": 11,
          "mode": 4
        }
      ]
    },
    {
      "name": "Box007_Ventanas_0",
      "primitives": [
        {
          "attributes": {
            "NORMAL": 117,
            "POSITION": 116,
            "TEXCOORD_0": 118
          },
          "indices": 119,
          "material": 11,
          "mode": 4
        }
      ]
    },
    {
      "name": "Box006_Ventanas_0",
      "primitives": [
        {
          "attributes": {
            "NORMAL": 121,
            "POSITION": 120,
            "TEXCOORD_0": 122
          },
          "indices": 123,
          "material": 11,
          "mode": 4
        }
      ]
    },
    {
      "name": "Box005_Ventanas_0",
      "primitives": [
        {
          "attributes": {
            "NORMAL": 125,
            "POSITION": 124,
            "TEXCOORD_0": 126
          },
          "indices": 127,
          "material": 11,
          "mode": 4
        }
      ]
    },
    {
      "name": "Box004_Ventanas_0",
      "primitives": [
        {
          "attributes": {
            "NORMAL": 129,
            "POSITION": 128,
            "TEXCOORD_0": 130
          },
          "indices": 131,
          "material": 11,
          "mode": 4
        }
      ]
    },
    {
      "name": "Box003_Ventanas_0",
      "primitives": [
        {
          "attributes": {
            "NORMAL": 133,
            "POSITION": 132,
            "TEXCOORD_0": 134
          },
          "indices": 135,
          "material": 11,
          "mode": 4
        }
      ]
    },
    {
      "name": "cabin_Material #2_0",
      "primitives": [
        {
          "attributes": {
            "NORMAL": 137,
            "POSITION": 136,
            "TEXCOORD_0": 138
          },
          "indices": 139,
          "material": 12,
          "mode": 4
        }
      ]
    },
    {
      "name": "R2D2_Material_r2d2_0",
      "primitives": [
        {
          "attributes": {
            "NORMAL": 141,
            "POSITION": 140,
            "TEXCOORD_0": 142
          },
          "indices": 143,
          "material": 13,
          "mode": 4
        }
      ]
    },
    {
      "name": "Cylinder004_Material #2_0",
      "primitives": [
        {
          "attributes": {
            "NORMAL": 145,
            "POSITION": 144,
            "TEXCOORD_0": 146
          },
          "indices": 147,
          "material": 14,
          "mode": 4
        }
      ]
    }
  ],
  "nodes": [
    {
      "children": [
        1
      ],
      "matrix": [
        1.0,
        0.0,
        0.0,
        0.0,
        0.0,
        2.220446049250313e-16,
        -1.0,
        0.0,
        0.0,
        1.0,
        2.220446049250313e-16,
        0.0,
        0.0,
        0.0,
        0.0,
        1.0
      ],
      "name": "Sketchfab_model"
    },
    {
      "children": [
        2
      ],
      "matrix": [
        1.0,
        0.0,
        0.0,
        0.0,
        0.0,
        0.0,
        1.0,
        0.0,
        0.0,
        -1.0,
        0.0,
        0.0,
        0.0,
        0.0,
        0.0,
        1.0
      ],
      "name": "a7bc8a2c09c342ffb4b86053ab8d4133.fbx"
    },
    {
      "children": [
        3
      ],
      "name": "Object_2"
    },
    {
      "children": [
        4,
        6,
        8,
        10,
        12,
        14,
        17,
        20,
        23,
        26,
        29,
        32,
        35,
        38,
        41,
        44,
        46,
        48,
        49,
        50,
        52,
        54,
        55,
        57,
        59,
        61,
        64,
        67,
        70,
        73,
        76,
        79,
        82,
        85,
        88,
        91,
        94,
        97,
        100,
        103,
        106,
        109,
        110,
        111,
        114,
        115,
        118,
        119,
        122,
        123,
        126,
        127,
        130,
        131,
        134,
        135,
        138,
        139,
        142
      ],
      "name": "RootNode"
    },
    {
      "children": [
        5
      ],
      "name": "suelo_pasarela",
      "rotation": [
        8.146034247147327e-08,
        0.0,
        0.0,
        1.0
      ],
      "translation": [
        2.1201834678649902,
        49.098697662353516,
        -31.00957679748535
      ]
    },
    {
      "mesh": 0,
      "name": "suelo_pasarela_plataforma_pasarela_0"
    },
    {
      "children": [
        7
      ],
      "name": "barandilla",
      "rotation": [
        -0.7071068286895752,
        -0.0,
        0.0,
        0.7071068286895752
      ],
      "translation": [
        -65.85725402832031,
        47.80015563964844,
        -16.658899307250977
      ]
    },
    {
      "mesh": 1,
      "name": "barandilla_pasamans_pasarela_0"
    },
    {
      "children": [
        9
      ],
      "name": "escalera2",
      "rotation": [
        7.942290380924533e-08,
        1.8104953980468963e-08,
        0.22225482761859894,
        0.9749886393547058
      ],
      "scale": [
        1.0,
        1.217625617980957,
        1.0
      ],
      "translation": [
        84.63571166992188,
        35.49541091918945,
        -5.897550106048584
      ]
    },
    {
      "mesh": 2,
      "name": "escalera2_escaleras_0"
    },
    {
      "children": [
        11
      ],
      "name": "suelo",
      "rotation": [
        8.146034247147327e-08,
        0.0,
        0.0,
        1.0
      ],
      "translation": [
        10.0,
        -5.0,
        -2.18556948539117e-07
      ]
    },
    {
      "mesh": 3,
      "name": "suelo_Suelo_0"
    },
    {
      "children": [
        13
      ],
      "name": "caja_rara002",
      "rotation": [
        8.146034247147327e-08,
        0.0,
        0.0,
        1.0
      ],
      "translation": [
        -104.70408630371094,
        46.04753875732422,
        0.8596723079681396
      ]
    },
    {
      "mesh": 4,
      "name": "caja_rara002_Cajas_0"
    },
    {
      "children": [
        15
      ],
      "name": "foco_suelo001",
      "rotation": [
        -0.5,
        -0.5,
        -0.5,
        0.5
      ],
      "translation": [
        17.513656616210938,
        -0.2913152575492859,
        70.40757751464844
      ]
    },
    {
      "children": [
        16
      ],
      "matrix": [
        1.0,
        0.0,
        -0.0,
        0.0,
        0.0,
        1.0,
        0.0,
        0.0,
        0.0,
        0.0,
        1.0,
        0.0,
        109.05231475830078,
        4.766828624269692e-06,
        0.0,
        1.0
      ],
      "name": "Object_15"
    },
    {
      "mesh": 5,
      "name": "foco_suelo001_Faroles_0"
    },
    {
      "children": [
        18
      ],
      "name": "foco_suelo002",
      "rotation": [
        -0.6300367712974548,
        -0.3210197687149048,
        -0.3210197687149048,
        0.6300367712974548
      ],
      "translation": [
        17.513656616210938,
        -0.2913152575492859,
        70.40757751464844
      ]
    },
    {
      "children": [
        19
      ],
      "matrix": [
        1.0,
        0.0,
        -0.0,
        0.0,
        0.0,
        1.0,
        0.0,
        0.0,
        0.0,
        0.0,
        1.0,
        0.0,
        109.05231475830078,
        4.766828624269692e-06,
        0.0,
        1.0
      ],
      "name": "Object_18"
    },
    {
      "mesh": 6,
      "name": "foco_suelo002_Faroles_0"
    },
    {
      "children": [
        21
      ],
      "name": "foco_suelo003",
      "rotation": [
        -0.698401153087616,
        -0.11061587184667587,
        -0.11061587184667587,
        0.698401153087616
      ],
      "translation": [
        17.513656616210938,
        -0.2913152575492859,
        70.40757751464844
      ]
    },
    {
      "children": [
        22
      ],
      "matrix": [
        1.0,
        0.0,
        -0.0,
        0.0,
        0.0,
        1.0,
        0.0,
        0.0,
        0.0,
        0.0,
        1.0,
        0.0,
        109.05231475830078,
        4.766828624269692e-06,
        0.0,
        1.0
      ],
      "name": "Object_21"
    },
    {
      "mesh": 7,
      "name": "foco_suelo003_Faroles_0"
    },
    {
      "children": [
        24
      ],
      "name": "foco_suelo004",
      "rotation": [
        -0.698401153087616,
        0.11061587184667587,
        0.11061587184667587,
        0.698401153087616
      ],
      "translation": [
        17.513656616210938,
        -0.2913152575492859,
        70.40757751464844
      ]
    },
    {
      "children": [
        25
      ],
      "matrix": [
        1.0,
        0.0,
        -0.0,
        0.0,
        0.0,
        1.0,
        0.0,
        0.0,
        0.0,
        0.0,
        1.0,
        0.0,
        109.05231475830078,
        4.766828624269692e-06,
        0.0,
        1.0
      ],
      "name": "Object_24"
    },
    {
      "mesh": 8,
      "name": "foco_suelo004_Faroles_0"
    },
    {
      "children": [
        27
      ],
      "name": "foco_suelo006",
      "rotation": [
        -0.5,
        0.5,
        0.5,
        0.5
      ],
      "translation": [
        17.513656616210938,
        -0.2913152575492859,
        70.40757751464844
      ]
    },
    {
      "children": [
        28
      ],
      "matrix": [
        1.0,
        0.0,
        -0.0,
        0.0,
        0.0,
        1.0,
        0.0,
        0.0,
        0.0,
        0.0,
        1.0,
        0.0,
        109.05231475830078,
        4.766828624269692e-06,
        0.0,
        1.0
      ],
      "name": "Object_27"
    },
    {
      "mesh": 9,
      "name": "foco_suelo006_Faroles_0"
    },
    {
      "children": [
        30
      ],
      "name": "foco_suelo007",
      "rotation": [
        -0.3210197687149048,
        0.6300367712974548,
        0.6300367712974548,
        0.3210197687149048
      ],
      "translation": [
        17.513656616210938,
        -0.2913152575492859,
        70.40757751464844
      ]
    },
    {
      "children": [
        31
      ],
      "matrix": [
        1.0,
        0.0,
        -0.0,
        0.0,
        0.0,
        1.0,
        0.0,
        0.0,
        0.0,
        0.0,
        1.0,
        0.0,
        109.05231475830078,
        4.766828624269692e-06,
        0.0,
        1.0
      ],
      "name": "Object_30"
    },
    {
      "mesh": 10,
      "name": "foco_suelo007_Faroles_0"
    },
    {
      "children": [
        33
      ],
      "name": "foco_suelo008",
      "rotation": [
        -0.11061590164899826,
        0.698401153087616,
        0.698401153087616,
        0.11061590164899826
      ],
      "translation": [
        17.513656616210938,
        -0.2913152575492859,
        70.40757751464844
      ]
    },
    {
      "children": [
        34
      ],
      "matrix": [
        1.0,
        0.0,
        -0.0,
        0.0,
        0.0,
        1.0,
        0.0,
        0.0,
        0.0,
        0.0,
        1.0,
        0.0,
        109.05231475830078,
        4.766828624269692e-06,
        0.0,
        1.0
      ],
      "name": "Object_33"
    },
    {
      "mesh": 11,
      "name": "foco_suelo008_Faroles_0"
    },
    {
      "children": [
        36
      ],
      "name": "foco_suelo009",
      "rotation": [
        0.11061586439609528,
        0.698401153087616,
        0.698401153087616,
        -0.11061586439609528
      ],
      "translation": [
        17.513656616210938,
        -0.2913152575492859,
        70.40757751464844
      ]
    },
    {
      "children": [
        37
      ],
      "matrix": [
        1.0,
        0.0,
        -0.0,
        0.0,
        0.0,
        1.0,
        0.0,
        0.0,
        0.0,
        0.0,
        1.0,
        0.0,
        109.05231475830078,
        4.766828624269692e-06,
        0.0,
        1.0
      ],
      "name": "Object_36"
    },
    {
      "mesh": 12,
      "name": "foco_suelo009_Faroles_0"
    },
    {
      "children": [
        39
      ],
      "name": "foco_suelo010",
      "rotation": [
        0.32101970911026,
        0.6300368309020996,
        0.6300368309020996,
        -0.32101970911026
      ],
      "translation": [
        17.513656616210938,
        -0.2913152575492859,
        70.40757751464844
      ]
    },
    {
      "children": [
        40
      ],
      "matrix": [
        1.0,
        0.0,
        -0.0,
        0.0,
        0.0,
        1.0,
        0.0,
        0.0,
        0.0,
        0.0,
        1.0,
        0.0,
        109.05231475830078,
        4.766828624269692e-06,
        0.0,
        1.0
      ],
      "name": "Object_39"
    },
    {
      "mesh": 13,
      "name": "foco_suelo010_Faroles_0"
    },
    {
      "children": [
        42
      ],
      "name": "Box016",
      "rotation": [
        3.1173527759165154e-08,
        0.9238796234130859,
        -7.52595497033326e-08,
        0.38268348574638367
      ],
      "scale": [
        0.5184570550918579,
        0.5184570550918579,
        0.5184570550918579
      ],
      "translation": [
        -106.25070190429688,
        0.0,
        163.97642517089844
      ]
    },
    {
      "children": [
        43
      ],
      "matrix": [
        1.0,
        0.0,
        -0.0,
        0.0,
        0.0,
        1.0,
        0.0,
        0.0,
        0.0,
        0.0,
        1.0,
        0.0,
        -16.054973602294922,
        -2.6156876629102044e-06,
        -16.054973602294922,
        1.0
      ],
      "name": "Object_42"
    },
    {
      "mesh": 14,
      "name": "Box016_Ordenador_0"
    },
    {
      "children": [
        45
      ],
      "name": "Cylinder001",
      "rotation": [
        -0.14644654095172882,
        0.3535533547401428,
        -0.35355344414711,
        0.8535534143447876
      ],
      "scale": [
        0.493693083524704,
        0.493693083524704,
        0.493693083524704
      ],
      "translation": [
        -87.67967224121094,
        10.43694019317627,
        164.6396484375
      ]
    },
    {
      "mesh": 15,
      "name": "Cylinder001_cable_0"
    },
    {
      "children": [
        47
      ],
      "name": "Box004",
      "rotation": [
        -0.7071068286895752,
        -0.0,
        0.0,
        0.7071068286895752
      ],
      "translation": [
        -107.55213165283203,
        0.0,
        74.49160766601563
      ]
    },
    {
      "mesh": 16,
      "name": "Box004_fuente alimentacion_0"
    },
    {
      "name": "PhysCamera001",
      "rotation": [
        0.05948386341333389,
        0.22453103959560394,
        -0.01373288780450821,
        0.9725527763366699
      ],
      "scale": [
        1.000000238418579,
        0.9999999403953552,
        0.9999998807907104
      ],
      "translation": [
        125.93319702148438,
        3.3567757606506348,
        204.0186767578125
      ]
    },
    {
      "name": "PhysCamera001.Target",
      "rotation": [
        0.05948391556739807,
        0.22453144192695618,
        -0.01373293623328209,
        0.9725527763366699
      ],
      "scale": [
        1.000000238418579,
        0.9999998211860657,
        0.9999998807907104
      ],
      "translation": [
        90.86715698242188,
        13.178535461425781,
        132.12246704101563
      ]
    },
    {
      "children": [
        51
      ],
      "name": "escalera003",
      "rotation": [
        7.942290380924533e-08,
        1.8104953980468963e-08,
        0.22225482761859894,
        0.9749886393547058
      ],
      "scale": [
        1.0,
        1.217625617980957,
        1.0
      ],
      "translation": [
        93.96224212646484,
        13.670210838317871,
        -5.89755392074585
      ]
    },
    {
      "mesh": 17,
      "name": "escalera003_escaleras_0"
    },
    {
      "children": [
        53
      ],
      "name": "union006",
      "rotation": [
        0.06174638867378235,
        0.9980918765068054,
        -5.6523656866147576e-08,
        3.955435659008799e-07
      ],
      "scale": [
        0.1110522449016571,
        0.27680864930152893,
        0.2474321573972702
      ],
      "translation": [
        -62.87480163574219,
        36.8800048828125,
        -2.643411636352539
      ]
    },
    {
      "mesh": 18,
      "name": "union006_soport_pasarela_0"
    },
    {
      "name": "Box002",
      "rotation": [
        8.146034247147327e-08,
        0.0,
        0.0,
        1.0
      ],
      "scale": [
        0.5454363822937012,
        1.0,
        1.822920322418213
      ],
      "translation": [
        -73.4666976928711,
        3.1907730102539063,
        -4.640800476074219
      ]
    },
    {
      "children": [
        56
      ],
      "name": "Box001",
      "rotation": [
        -0.7071068286895752,
        -0.0,
        0.0,
        0.7071068286895752
      ],
      "translation": [
        -66.20454406738281,
        0.0,
        1.2646007537841797
      ]
    },
    {
      "mesh": 19,
      "name": "Box001_base_pasarela_0"
    },
    {
      "children": [
        58
      ],
      "name": "caja_rara004",
      "rotation": [
        8.146034247147327e-08,
        0.0,
        0.0,
        1.0
      ],
      "translation": [
        -104.70408630371094,
        15.349176406860352,
        0.8596723079681396
      ]
    },
    {
      "mesh": 20,
      "name": "caja_rara004_Cajas_0"
    },
    {
      "children": [
        60
      ],
      "name": "caja_rara005",
      "rotation": [
        7.895692988313385e-08,
        0.2460063248872757,
        -2.0039758297230037e-08,
        0.9692683219909668
      ],
      "translation": [
        -104.70408630371094,
        15.349176406860352,
        53.53647994995117
      ]
    },
    {
      "mesh": 21,
      "name": "caja_rara005_Cajas_0"
    },
    {
      "children": [
        62
      ],
      "name": "Box014",
      "rotation": [
        8.146034247147327e-08,
        0.0,
        0.0,
        1.0
      ],
      "translation": [
        96.28970336914063,
        40.0,
        -68.34221649169922
      ]
    },
    {
      "children": [
        63
      ],
      "matrix": [
        1.0,
        0.0,
        -0.0,
        0.0,
        0.0,
        1.0,
        0.0,
        0.0,
        0.0,
        0.0,
        1.0,
        0.0,
        20.151473999023438,
        -19.85434913635254,
        -3.4923856258392334,
        1.0
      ],
      "name": "Object_62"
    },
    {
      "mesh": 22,
      "name": "Box014_Ventanas_0"
    },
    {
      "children": [
        65
      ],
      "name": "Box013",
      "rotation": [
        8.146034247147327e-08,
        0.0,
        0.0,
        1.0
      ],
      "translation": [
        55.56695556640625,
        40.0,
        -68.34221649169922
      ]
    },
    {
      "children": [
        66
      ],
      "matrix": [
        1.0,
        0.0,
        -0.0,
        0.0,
        0.0,
        1.0,
        0.0,
        0.0,
        0.0,
        0.0,
        1.0,
        0.0,
        20.151473999023438,
        -19.85434913635254,
        -3.4923856258392334,
        1.0
      ],
      "name": "Object_65"
    },
    {
      "mesh": 23,
      "name": "Box013_Ventanas_0"
    },
    {
      "children": [
        68
      ],
      "name": "Box012",
      "rotation": [
        8.146034247147327e-08,
        0.0,
        0.0,
        1.0
      ],
      "translation": [
        14.844207763671875,
        40.0,
        -68.34221649169922
      ]
    },
    {
      "children": [
        69
      ],
      "matrix": [
        1.0,
        0.0,
        -0.0,
        0.0,
        0.0,
        1.0,
        0.0,
        0.0,
        0.0,
        0.0,
        1.0,
        0.0,
        20.151473999023438,
        -19.85434913635254,
        -3.4923856258392334,
        1.0
      ],
      "name": "Object_68"
    },
    {
      "mesh": 24,
      "name": "Box012_Ventanas_0"
    },
    {
      "children": [
        71
      ],
      "name": "Box011",
      "rotation": [
        8.146034247147327e-08,
        0.0,
        0.0,
        1.0
      ],
      "translation": [
        -25.8785400390625,
        40.0,
        -68.34221649169922
      ]
    },
    {
      "children": [
        72
      ],
      "matrix": [
        1.0,
        0.0,
        -0.0,
        0.0,
        0.0,
        1.0,
        0.0,
        0.0,
        0.0,
        0.0,
        1.0,
        0.0,
        20.151473999023438,
        -19.85434913635254,
        -3.4923856258392334,
        1.0
      ],
      "name": "Object_71"
    },
    {
      "mesh": 25,
      "name": "Box011_Ventanas_0"
    },
    {
      "children": [
        74
      ],
      "name": "Box010",
      "rotation": [
        8.146034247147327e-08,
        0.0,
        0.0,
        1.0
      ],
      "translation": [
        -66.60128784179688,
        40.0,
        -68.34221649169922
      ]
    },
    {
      "children": [
        75
      ],
      "matrix": [
        1.0,
        0.0,
        -0.0,
        0.0,
        0.0,
        1.0,
        0.0,
        0.0,
        0.0,
        0.0,
        1.0,
        0.0,
        20.151473999023438,
        -19.85434913635254,
        -3.4923856258392334,
        1.0
      ],
      "name": "Object_74"
    },
    {
      "mesh": 26,
      "name": "Box010_Ventanas_0"
    },
    {
      "children": [
        77
      ],
      "name": "Box009",
      "rotation": [
        8.146034247147327e-08,
        0.0,
        0.0,
        1.0
      ],
      "translation": [
        -107.32403564453125,
        40.0,
        -68.34221649169922
      ]
    },
    {
      "children": [
        78
      ],
      "matrix": [
        1.0,
        0.0,
        -0.0,
        0.0,
        0.0,
        1.0,
        0.0,
        0.0,
        0.0,
        0.0,
        1.0,
        0.0,
        20.151473999023438,
        -19.85434913635254,
        -3.4923856258392334,
        1.0
      ],
      "name": "Object_77"
    },
    {
      "mesh": 27,
      "name": "Box009_Ventanas_0"
    },
    {
      "children": [
        80
      ],
      "name": "Box008",
      "rotation": [
        5.760116295050466e-08,
        0.7071067690849304,
        -5.760115939779098e-08,
        0.7071068286895752
      ],
      "translation": [
        -130.41879272460938,
        40.0,
        -9.21923828125
      ]
    },
    {
      "children": [
        81
      ],
      "matrix": [
        1.0,
        0.0,
        -0.0,
        0.0,
        0.0,
        1.0,
        0.0,
        0.0,
        0.0,
        0.0,
        1.0,
        0.0,
        20.151473999023438,
        -19.85434913635254,
        -3.4923856258392334,
        1.0
      ],
      "name": "Object_80"
    },
    {
      "mesh": 28,
      "name": "Box008_Ventanas_0"
    },
    {
      "children": [
        83
      ],
      "name": "Box007",
      "rotation": [
        5.760116295050466e-08,
        0.7071067690849304,
        -5.760115939779098e-08,
        0.7071068286895752
      ],
      "translation": [
        -130.41879272460938,
        40.0,
        31.503509521484375
      ]
    },
    {
      "children": [
        84
      ],
      "matrix": [
        1.0,
        0.0,
        -0.0,
        0.0,
        0.0,
        1.0,
        0.0,
        0.0,
        0.0,
        0.0,
        1.0,
        0.0,
        20.151473999023438,
        -19.85434913635254,
        -3.4923856258392334,
        1.0
      ],
      "name": "Object_83"
    },
    {
      "mesh": 29,
      "name": "Box007_Ventanas_0"
    },
    {
      "children": [
        86
      ],
      "name": "Box006",
      "rotation": [
        5.760116295050466e-08,
        0.7071067690849304,
        -5.760115939779098e-08,
        0.7071068286895752
      ],
      "translation": [
        -130.41879272460938,
        40.0,
        72.22626495361328
      ]
    },
    {
      "children": [
        87
      ],
      "matrix": [
        1.0,
        0.0,
        -0.0,
        0.0,
        0.0,
        1.0,
        0.0,
        0.0,
        0.0,
        0.0,
        1.0,
        0.0,
        20.151473999023438,
        -19.85434913635254,
        -3.4923856258392334,
        1.0
      ],
      "name": "Object_86"
    },
    {
      "mesh": 30,
      "name": "Box006_Ventanas_0"
    },
    {
      "children": [
        89
      ],
      "name": "Box005",
      "rotation": [
        5.760116295050466e-08,
        0.7071067690849304,
        -5.760115939779098e-08,
        0.7071068286895752
      ],
      "translation": [
        -130.41879272460938,
        40.0,
        112.94901275634766
      ]
    },
    {
      "children": [
        90
      ],
      "matrix": [
        1.0,
        0.0,
        -0.0,
        0.0,
        0.0,
        1.0,
        0.0,
        0.0,
        0.0,
        0.0,
        1.0,
        0.0,
        20.151473999023438,
        -19.85434913635254,
        -3.4923856258392334,
        1.0
      ],
      "name": "Object_89"
    },
    {
      "mesh": 31,
      "name": "Box005_Ventanas_0"
    },
    {
      "children": [
        92
      ],
      "name": "Box004",
      "rotation": [
        5.760116295050466e-08,
        0.7071067690849304,
        -5.760115939779098e-08,
        0.7071068286895752
      ],
      "translation": [
        -130.41879272460938,
        40.0,
        153.6717529296875
      ]
    },
    {
      "children": [
        93
      ],
      "matrix": [
        1.0,
        0.0,
        -0.0,
        0.0,
        0.0,
        1.0,
        0.0,
        0.0,
        0.0,
        0.0,
        1.0,
        0.0,
        20.151473999023438,
        -19.85434913635254,
        -3.4923856258392334,
        1.0
      ],
      "name": "Object_92"
    },
    {
      "mesh": 32,
      "name": "Box004_Ventanas_0"
    },
    {
      "children": [
        95
      ],
      "name": "Box003",
      "rotation": [
        5.760116295050466e-08,
        0.7071067690849304,
        -5.760115939779098e-08,
        0.7071068286895752
      ],
      "translation": [
        -130.41879272460938,
        40.0,
        194.39450073242188
      ]
    },
    {
      "children": [
        96
      ],
      "matrix": [
        1.0,
        0.0,
        -0.0,
        0.0,
        0.0,
        1.0,
        0.0,
        0.0,
        0.0,
        0.0,
        1.0,
        0.0,
        20.151473999023438,
        -19.85434913635254,
        -3.4923856258392334,
        1.0
      ],
      "name": "Object_95"
    },
    {
      "mesh": 33,
      "name": "Box003_Ventanas_0"
    },
    {
      "children": [
        98
      ],
      "name": "cabin",
      "rotation": [
        1.5454311608209537e-08,
        -0.7071067094802856,
        1.5454308055495858e-08,
        0.7071068286895752
      ],
      "scale": [
        7.405577659606934,
        7.405577659606934,
        7.405577659606934
      ],
      "translation": [
        -0.022748252376914024,
        -5.334615707397461e-06,
        99.26255798339844
      ]
    },
    {
      "children": [
        99
      ],
      "matrix": [
        1.0,
        0.0,
        -0.0,
        0.0,
        0.0,
        1.0,
        0.0,
        0.0,
        0.0,
        0.0,
        1.0,
        0.0,
        -5.906334400177002,
        4.004995346069336,
        2.233896017074585,
        1.0
      ],
      "name": "Object_98"
    },
    {
      "mesh": 34,
      "name": "cabin_Material #2_0"
    },
    {
      "children": [
        101
      ],
      "name": "R2D2",
      "rotation": [
        -0.5012120604515076,
        0.49878501892089844,
        0.49878501892089844,
        0.5012120008468628
      ],
      "scale": [
        0.1675916314125061,
        0.1675916314125061,
        0.1675916314125061
      ],
      "translation": [
        -10.392847061157227,
        43.34510040283203,
        -9.23818588256836
      ]
    },
    {
      "children": [
        102
      ],
      "matrix": [
        1.0,
        0.0,
        0.0,
        0.0,
        0.0,
        0.9588198294154668,
        -0.2840150255174806,
        0.0,
        -0.0,
        0.2840150255174806,
        0.9588198294154668,
        0.0,
        -0.0953482910990715,
        1.580787181854248,
        56.36543273925781,
        1.0
      ],
      "name": "Object_101"
    },
    {
      "mesh": 35,
      "name": "R2D2_Material_r2d2_0"
    },
    {
      "children": [
        104
      ],
      "name": "Cylinder004",
      "rotation": [
        -0.6796157956123352,
        -0.19524945318698883,
        -0.19524942338466644,
        0.6796159148216248
      ],
      "scale": [
        0.6024560928344727,
        0.6024560928344727,
        0.6024560928344727
      ],
      "translation": [
        117.51609802246094,
        -0.00018690049182623625,
        133.5413055419922
      ]
    },
    {
      "children": [
        105
      ],
      "matrix": [
        1.0,
        0.0,
        -0.0,
        0.0,
        0.0,
        1.0,
        0.0,
        0.0,
        0.0,
        0.0,
        1.0,
        0.0,
        -2.1744892597198486,
        4.838311724597588e-06,
        36.89589309692383,
        1.0
      ],
      "name": "Object_104"
    },
    {
      "mesh": 36,
      "name": "Cylinder004_Material #2_0"
    },
    {
      "children": [
        107
      ],
      "name": "Spot001",
      "rotation": [
        0.7093662619590759,
        0.19133210182189941,
        -0.210457444190979,
        0.6449025273323059
      ],
      "translation": [
        78.72145080566406,
        1.613053560256958,
        154.7242889404297
      ]
    },
    {
      "children": [
        108
      ],
      "matrix": [
        1.0,
        0.0,
        0.0,
        0.0,
        0.0,
        2.220446049250313e-16,
        1.0,
        0.0,
        0.0,
        -1.0,
        2.220446049250313e-16,
        0.0,
        0.0,
        0.0,
        0.0,
        1.0
      ],
      "name": "Object_107"
    },
    {
      "name": "Object_108"
    },
    {
      "name": "Spot002.Target",
      "rotation": [
        -0.04332461953163147,
        0.29889991879463196,
        0.013585475273430347,
        0.9532037973403931
      ],
      "translation": [
        -186.81484985351563,
        -20.158729553222656,
        -41.490997314453125
      ]
    },
    {
      "name": "Spot001.Target",
      "rotation": [
        -0.04332461953163147,
        0.29889991879463196,
        0.013585475273430347,
        0.9532037973403931
      ],
      "translation": [
        14.6768798828125,
        12.818305969238281,
        56.29071807861328
      ]
    },
    {
      "children": [
        112
      ],
      "name": "Spot003",
      "rotation": [
        0.7398695349693298,
        0.008838900364935398,
        -0.00972259696573019,
        0.67262202501297
      ],
      "translation": [
        17.762184143066406,
        1.613053560256958,
        173.6630859375
      ]
    },
    {
      "children": [
        113
      ],
      "matrix": [
        1.0,
        0.0,
        0.0,
        0.0,
        0.0,
        2.220446049250313e-16,
        1.0,
        0.0,
        0.0,
        -1.0,
        2.220446049250313e-16,
        0.0,
        0.0,
        0.0,
        0.0,
        1.0
      ],
      "name": "Object_112"
    },
    {
      "name": "Object_113"
    },
    {
      "name": "Spot003.Target",
      "rotation": [
        -0.04332461953163147,
        0.29889991879463196,
        0.013585475273430347,
        0.9532037973403931
      ],
      "translation": [
        14.6768798828125,
        12.818305969238281,
        56.29071807861328
      ]
    },
    {
      "children": [
        116
      ],
      "name": "Spot004",
      "rotation": [
        0.714438259601593,
        -0.17521917819976807,
        0.19276846945285797,
        0.649397075176239
      ],
      "translation": [
        -44.283226013183594,
        1.613053560256958,
        157.5953826904297
      ]
    },
    {
      "children": [
        117
      ],
      "matrix": [
        1.0,
        0.0,
        0.0,
        0.0,
        0.0,
        2.220446049250313e-16,
        1.0,
        0.0,
        0.0,
        -1.0,
        2.220446049250313e-16,
        0.0,
        0.0,
        0.0,
        0.0,
        1.0
      ],
      "name": "Object_116"
    },
    {
      "name": "Object_117"
    },
    {
      "name": "Spot004.Target",
      "rotation": [
        -0.04332461953163147,
        0.29889991879463196,
        0.013585475273430347,
        0.9532037973403931
      ],
      "translation": [
        14.6768798828125,
        12.818305969238281,
        56.29071807861328
      ]
    },
    {
      "children": [
        120
      ],
      "name": "Spot005",
      "rotation": [
        0.6301348209381104,
        -0.35406893491744995,
        0.3920497000217438,
        0.5690889954566956
      ],
      "translation": [
        -83.80158233642578,
        1.613053560256958,
        104.79702758789063
      ]
    },
    {
      "children": [
        121
      ],
      "matrix": [
        1.0,
        0.0,
        0.0,
        0.0,
        0.0,
        2.220446049250313e-16,
        1.0,
        0.0,
        0.0,
        -1.0,
        2.220446049250313e-16,
        0.0,
        0.0,
        0.0,
        0.0,
        1.0
      ],
      "name": "Object_120"
    },
    {
      "name": "Object_121"
    },
    {
      "name": "Spot005.Target",
      "rotation": [
        -0.04332461953163147,
        0.29889991879463196,
        0.013585475273430347,
        0.9532037973403931
      ],
      "translation": [
        14.6768798828125,
        12.818305969238281,
        56.29071807861328
      ]
    },
    {
      "children": [
        124
      ],
      "name": "Spot006",
      "rotation": [
        0.4762268662452698,
        -0.5125600099563599,
        0.574336588382721,
        0.42500317096710205
      ],
      "translation": [
        -81.8782958984375,
        1.613053560256958,
        38.097923278808594
      ]
    },
    {
      "children": [
        125
      ],
      "matrix": [
        1.0,
        0.0,
        0.0,
        0.0,
        0.0,
        2.220446049250313e-16,
        1.0,
        0.0,
        0.0,
        -1.0,
        2.220446049250313e-16,
        0.0,
        0.0,
        0.0,
        0.0,
        1.0
      ],
      "name": "Object_124"
    },
    {
      "name": "Object_125"
    },
    {
      "name": "Spot006.Target",
      "rotation": [
        -0.04332461953163147,
        0.29889991879463196,
        0.013585475273430347,
        0.9532037973403931
      ],
      "translation": [
        14.6768798828125,
        12.818305969238281,
        56.29071807861328
      ]
    },
    {
      "children": [
        128
      ],
      "name": "Spot007",
      "rotation": [
        0.25525912642478943,
        -0.6275941133499146,
        0.6988736987113953,
        0.22922471165657043
      ],
      "translation": [
        -42.559776306152344,
        3.246354341506958,
        -11.610706329345703
      ]
    },
    {
      "children": [
        129
      ],
      "matrix": [
        1.0,
        0.0,
        0.0,
        0.0,
        0.0,
        2.220446049250313e-16,
        1.0,
        0.0,
        0.0,
        -1.0,
        2.220446049250313e-16,
        0.0,
        0.0,
        0.0,
        0.0,
        1.0
      ],
      "name": "Object_128"
    },
    {
      "name": "Object_129"
    },
    {
      "name": "Spot007.Target",
      "rotation": [
        -0.04332461953163147,
        0.29889991879463196,
        0.013585475273430347,
        0.9532037973403931
      ],
      "translation": [
        14.6768798828125,
        12.818305969238281,
        56.29071807861328
      ]
    },
    {
      "children": [
        132
      ],
      "name": "Spot008",
      "rotation": [
        -0.018045825883746147,
        -0.6659343838691711,
        0.7456179261207581,
        -0.016117284074425697
      ],
      "translation": [
        18.765235900878906,
        3.246354341506958,
        -28.121204376220703
      ]
    },
    {
      "children": [
        133
      ],
      "matrix": [
        1.0,
        0.0,
        0.0,
        0.0,
        0.0,
        2.220446049250313e-16,
        1.0,
        0.0,
        0.0,
        -1.0,
        2.220446049250313e-16,
        0.0,
        0.0,
        0.0,
        0.0,
        1.0
      ],
      "name": "Object_132"
    },
    {
      "name": "Object_133"
    },
    {
      "name": "Spot008.Target",
      "rotation": [
        -0.04332461953163147,
        0.29889991879463196,
        0.013585475273430347,
        0.9532037973403931
      ],
      "translation": [
        14.6768798828125,
        12.818305969238281,
        56.29071807861328
      ]
    },
    {
      "children": [
        136
      ],
      "name": "Spot009",
      "rotation": [
        -0.47650548815727234,
        -0.5149969458580017,
        0.5646734833717346,
        -0.43458545207977295
      ],
      "translation": [
        116.99714660644531,
        3.246354341506958,
        38.83641052246094
      ]
    },
    {
      "children": [
        137
      ],
      "matrix": [
        1.0,
        0.0,
        0.0,
        0.0,
        0.0,
        2.220446049250313e-16,
        1.0,
        0.0,
        0.0,
        -1.0,
        2.220446049250313e-16,
        0.0,
        0.0,
        0.0,
        0.0,
        1.0
      ],
      "name": "Object_136"
    },
    {
      "name": "Object_137"
    },
    {
      "name": "Spot009.Target",
      "rotation": [
        -0.04332461953163147,
        0.29889991879463196,
        0.013585475273430347,
        0.9532037973403931
      ],
      "translation": [
        14.6768798828125,
        12.818305969238281,
        56.29071807861328
      ]
    },
    {
      "children": [
        140
      ],
      "name": "Spot010",
      "rotation": [
        0.6196274757385254,
        0.36562782526016235,
        -0.3980569541454315,
        0.5691473484039307
      ],
      "translation": [
        116.99714660644531,
        3.246354341506958,
        103.06217956542969
      ]
    },
    {
      "children": [
        141
      ],
      "matrix": [
        1.0,
        0.0,
        0.0,
        0.0,
        0.0,
        2.220446049250313e-16,
        1.0,
        0.0,
        0.0,
        -1.0,
        2.220446049250313e-16,
        0.0,
        0.0,
        0.0,
        0.0,
        1.0
      ],
      "name": "Object_140"
    },
    {
      "name": "Object_141"
    },
    {
      "name": "Spot010.Target",
      "rotation": [
        -0.04332461953163147,
        0.29889991879463196,
        0.013585475273430347,
        0.9532037973403931
      ],
      "translation": [
        14.6768798828125,
        12.818305969238281,
        56.29071807861328
      ]
    }
  ],
  "samplers": [
    {
      "magFilter": 9729,
      "minFilter": 9987,
      "wrapS": 10497,
      "wrapT": 10497
    }
  ],
  "scene": 0,
  "scenes": [
    {
      "name": "Sketchfab_Scene",
      "nodes": [
        0
      ]
    }
  ],
  "textures": [
    {
      "sampler": 0,
      "source": 0
    },
    {
      "sampler": 0,
      "source": 1
    },
    {
      "sampler": 0,
      "source": 2
    },
    {
      "sampler": 0,
      "source": 3
    },
    {
      "sampler": 0,
      "source": 4
    },
    {
      "sampler": 0,
      "source": 5
    },
    {
      "sampler": 0,
      "source": 6
    },
    {
      "sampler": 0,
      "source": 7
    },
    {
      "sampler": 0,
      "source": 8
    },
    {
      "sampler": 0,
      "source": 9
    }
  ]
}
