{
  "accessors": [
    {
      "bufferView": 2,
      "componentType": 5126,
      "count": 7674,
      "max": [
        1.3763699531555176,
        1.4011000394821167,
        0.504360020160675
      ],
      "min": [
        -2.0601999759674072,
        -1.4030400514602661,
        -2.333509922027588
      ],
      "type": "VEC3"
    },
    {
      "bufferView": 2,
      "byteOffset": 92088,
      "componentType": 5126,
      "count": 7674,
      "max": [
        1.0,
        1.0,
        1.0
      ],
      "min": [
        -1.0,
        -1.0,
        -1.0
      ],
      "type": "VEC3"
    },
    {
      "bufferView": 3,
      "componentType": 5126,
      "count": 7674,
      "max": [
        1.0,
        1.0,
        1.0,
        1.0
      ],
      "min": [
        -1.0,
        -1.0,
        -1.0,
        1.0
      ],
      "type": "VEC4"
    },
    {
      "bufferView": 1,
      "componentType": 5126,
      "count": 7674,
      "max": [
        1.0,
        1.0
      ],
      "min": [
        0.0,
        0.0
      ],
      "type": "VEC2"
    },
    {
      "bufferView": 0,
      "componentType": 5125,
      "count": 14766,
      "type": "SCALAR"
    },
    {
      "bufferView": 2,
      "byteOffset": 184176,
      "componentType": 5126,
      "count": 1186,
      "max": [
        1.1519299745559692,
        1.194309949874878,
        1.9159899950027466
      ],
      "min": [
        -1.2366900444030762,
        -1.194309949874878,
        0.9896100163459778
      ],
      "type": "VEC3"
    },
    {
      "bufferView": 2,
      "byteOffset": 198408,
      "componentType": 5126,
      "count": 1186,
      "max": [
        0.9624831676483154,
        0.9475024938583374,
        1.0
      ],
      "min": [
        -0.9980548620223999,
        -0.9620447158813477,
        -0.8997272253036499
      ],
      "type": "VEC3"
    },
    {
      "bufferView": 3,
      "byteOffset": 122784,
      "componentType": 5126,
      "count": 1186,
      "max": [
        1.0,
        1.0,
        0.9984290599822998,
        1.0
      ],
      "min": [
        -0.9862861633300781,
        -1.0,
        -0.9961379766464233,
        -1.0
      ],
      "type": "VEC4"
    },
    {
      "bufferView": 1,
      "byteOffset": 61392,
      "componentType": 5126,
      "count": 1186,
      "max": [
        1.0,
        0.616569995880127
      ],
      "min": [
        0.0,
        0.0
      ],
      "type": "VEC2"
    },
    {
      "bufferView": 0,
      "byteOffset": 59064,
      "componentType": 5125,
      "count": 4524,
      "type": "SCALAR"
    },
    {
      "bufferView": 2,
      "byteOffset": 212640,
      "componentType": 5126,
      "count": 1182,
      "max": [
        1.1519299745559692,
        1.2183200120925903,
        1.0009299516677856
      ],
      "min": [
        -1.2366900444030762,
        -1.194309949874878,
        -0.8677499890327454
      ],
      "type": "VEC3"
    },
    {
      "bufferView": 2,
      "byteOffset": 226824,
      "componentType": 5126,
      "count": 1182,
      "max": [
        1.0,
        1.0,
        0.9874585866928101
      ],
      "min": [
        -1.0,
        -1.0,
        -0.9874585866928101
      ],
      "type": "VEC3"
    },
    {
      "bufferView": 3,
      "byteOffset": 141760,
      "componentType": 5126,
      "count": 1182,
      "max": [
        0.9989492893218994,
        0.970467746257782,
        1.0,
        1.0
      ],
      "min": [
        -0.9989492893218994,
        -0.9999972581863403,
        -1.0,
        -1.0
      ],
      "type": "VEC4"
    },
    {
      "bufferView": 1,
      "byteOffset": 70880,
      "componentType": 5126,
      "count": 1182,
      "max": [
        1.0,
        1.0
      ],
      "min": [
        0.0,
        0.0
      ],
      "type": "VEC2"
    },
    {
      "bufferView": 0,
      "byteOffset": 77160,
      "componentType": 5125,
      "count": 5340,
      "type": "SCALAR"
    },
    {
      "bufferView": 2,
      "byteOffset": 241008,
      "componentType": 5126,
      "count": 5430,
      "max": [
        1.3419100046157837,
        1.366070032119751,
        2.099760055541992
      ],
      "min": [
        -1.7178399562835693,
        -1.3663300275802612,
        -1.28056001663208
      ],
      "type": "VEC3"
    },
    {
      "bufferView": 2,
      "byteOffset": 306168,
      "componentType": 5126,
      "count": 5430,
      "max": [
        1.0,
        1.0,
        1.0
      ],
      "min": [
        -1.0,
        -1.0,
        -1.0
      ],
      "type": "VEC3"
    },
    {
      "bufferView": 3,
      "byteOffset": 160672,
      "componentType": 5126,
      "count": 5430,
      "max": [
        1.0,
        1.0,
        1.0,
        1.0
      ],
      "min": [
        -1.0,
        -1.0,
        -1.0,
        1.0
      ],
      "type": "VEC4"
    },
    {
      "bufferView": 1,
      "byteOffset": 80336,
      "componentType": 5126,
      "count": 5430,
      "max": [
        1.0,
        1.0
      ],
      "min": [
        0.0,
        0.0
      ],
      "type": "VEC2"
    },
    {
      "bufferView": 0,
      "byteOffset": 98520,
      "componentType": 5125,
      "count": 9168,
      "type": "SCALAR"
    },
    {
      "bufferView": 2,
      "byteOffset": 371328,
      "componentType": 5126,
      "count": 52,
      "max": [
        0.5072199702262878,
        0.791700005531311,
        1.6483900547027588
      ],
      "min": [
        -0.6330500245094299,
        -0.791700005531311,
        1.3302099704742432
      ],
      "type": "VEC3"
    },
    {
      "bufferView": 2,
      "byteOffset": 371952,
      "componentType": 5126,
      "count": 52,
      "max": [
        0.4712597727775574,
        0.7288840413093567,
        1.0
      ],
      "min": [
        -0.4712597727775574,
        -0.7288840413093567,
        -0.6694507598876953
      ],
      "type": "VEC3"
    },
    {
      "bufferView": 1,
      "byteOffset": 123776,
      "componentType": 5126,
      "count": 52,
      "max": [
        0.9775400161743164,
        0.3720700144767761
      ],
      "min": [
        0.0,
        0.0
      ],
      "type": "VEC2"
    },
    {
      "bufferView": 0,
      "byteOffset": 135192,
      "componentType": 5125,
      "count": 96,
      "type": "SCALAR"
    },
    {
      "bufferView": 2,
      "byteOffset": 372576,
      "componentType": 5126,
      "count": 498,
      "max": [
        1.0,
        1.0,
        1.0
      ],
      "min": [
        -1.0,
        -1.0,
        -1.0
      ],
      "type": "VEC3"
    },
    {
      "bufferView": 2,
      "byteOffset": 378552,
      "componentType": 5126,
      "count": 498,
      "max": [
        1.0,
        1.0,
        1.0
      ],
      "min": [
        -1.0,
        -1.0,
        -1.0
      ],
      "type": "VEC3"
    },
    {
      "bufferView": 1,
      "byteOffset": 124192,
      "componentType": 5126,
      "count": 498,
      "max": [
        1.1340500116348267,
        0.9905999898910522
      ],
      "min": [
        0.0,
        0.009399999864399433
      ],
      "type": "VEC2"
    },
    {
      "bufferView": 0,
      "byteOffset": 135576,
      "componentType": 5125,
      "count": 2880,
      "type": "SCALAR"
    }
  ],
  "asset": {
    "extras": {
      "author": "rhcreations (https://sketchfab.com/rhcreations)",
      "license": "CC-BY-4.0 (http://creativecommons.org/licenses/by/4.0/)",
      "source": "https://sketchfab.com/3d-models/lunar-command-module-99718b8b6d3e420a98e9e2a85d8c4baf",
      "title": "Lunar Command Module"
    },
    "generator": "Sketchfab-13.39.0",
    "version": "2.0"
  },
  "bufferViews": [
    {
      "buffer": 0,
      "byteLength": 147096,
      "name": "floatBufferViews",
      "target": 34963
    },
    {
      "buffer": 0,
      "byteLength": 128176,
      "byteOffset": 147096,
      "byteStride": 8,
      "name": "floatBufferViews",
      "target": 34962
    },
    {
      "buffer": 0,
      "byteLength": 384528,
      "byteOffset": 275272,
      "byteStride": 12,
      "name": "floatBufferViews",
      "target": 34962
    },
    {
      "buffer": 0,
      "byteLength": 247552,
      "byteOffset": 659800,
      "byteStride": 16,
      "name": "floatBufferViews",
      "target": 34962
    }
  ],
  "buffers": [
    {
      "byteLength": 907352,
      "uri": "scene.bin"
    }
  ],
  "images": [
    {
      "uri": "textures/Space_Material_baseColor.png"
    },
    {
      "uri": "textures/Dark_Metal_Material_baseColor.png"
    },
    {
      "uri": "textures/Dark_Metal_Material_normal.png"
    },
    {
      "uri": "textures/Mirro_Material_normal.png"
    },
    {
      "uri": "textures/White_Metal_Material_baseColor.png"
    },
    {
      "uri": "textures/White_Metal_Material_metallicRoughness.png"
    },
    {
      "uri": "textures/Gray_Metal_Material_baseColor.png"
    },
    {
      "uri": "textures/Gray_Metal_Material_metallicRoughness.png"
    },
    {
      "uri": "textures/Gray_Metal_Material_normal.png"
    },
    {
      "uri": "textures/Glass_Material_baseColor.png"
    }
  ],
  "materials": [
    {
      "doubleSided": true,
      "name": "Space_Material",
      "pbrMetallicRoughness": {
        "baseColorTexture": {
          "index": 0
        },
        "metallicFactor": 0.0,
        "roughnessFactor": 0.0
      }
    },
    {
      "doubleSided": true,
      "name": "Dark_Metal_Material",
      "normalTexture": {
        "index": 2
      },
      "pbrMetallicRoughness": {
        "baseColorTexture": {
          "index": 1
        },
        "metallicFactor": 0.0,
        "roughnessFactor": 0.0
      }
    },
    {
      "doubleSided": true,
      "name": "Mirro_Material",
      "normalTexture": {
        "index": 3,
        "scale": 0.023026319939755225
      },
      "pbrMetallicRoughness": {
        "roughnessFactor": 0.0
      }
    },
    {
      "doubleSided": true,
      "name": "White_Metal_Material",
      "normalTexture": {
        "index": 3,
        "scale": 0.09615647333025196
      },
      "pbrMetallicRoughness": {
        "baseColorFactor": [
          0.7273246951,
          0.7273246951,
          0.7273246951,
          1.0
        ],
        "baseColorTexture": {
          "index": 4
        },
        "metallicRoughnessTexture": {
          "index": 5
        },
        "roughnessFactor": 0.0
      }
    },
    {
      "doubleSided": true,
      "name": "Gray_Metal_Material",
      "normalTexture": {
        "index": 8,
        "scale": 0.023026319939755225
      },
      "pbrMetallicRoughness": {
        "baseColorTexture": {
          "index": 6
        },
        "metallicFactor": 0.9163490854,
        "metallicRoughnessTexture": {
          "index": 7
        },
        "roughnessFactor": 0.0
      }
    },
    {
      "alphaMode": "BLEND",
      "doubleSided": true,
      "name": "Glass_Material",
      "pbrMetallicRoughness": {
        "baseColorFactor": [
          0.0,
          0.0,
          0.0,
          1.0
        ],
        "baseColorTexture": {
          "index": 9
        },
        "roughnessFactor": 0.6
      }
    }
  ],
  "meshes": [
    {
      "name": "Lunar Command Module_0",
      "primitives": [
        {
          "attributes": {
            "NORMAL": 1,
            "POSITION": 0,
            "TANGENT": 2,
            "TEXCOORD_0": 3
          },
          "indices": 4,
          "material": 1,
          "mode": 4
        }
      ]
    },
    {
      "name": "Lunar Command Module_1",
      "primitives": [
        {
          "attributes": {
            "NORMAL": 6,
            "POSITION": 5,
            "TANGENT": 7,
            "TEXCOORD_0": 8
          },
          "indices": 9,
          "material": 2,
          "mode": 4
        }
      ]
    },
    {
      "name": "Lunar Command Module_2",
      "primitives": [
        {
          "attributes": {
            "NORMAL": 11,
            "POSITION": 10,
            "TANGENT": 12,
            "TEXCOORD_0": 13
          },
          "indices": 14,
          "material": 3,
          "mode": 4
        }
      ]
    },
    {
      "name": "Lunar Command Module_3",
      "primitives": [
        {
          "attributes": {
            "NORMAL": 16,
            "POSITION": 15,
            "TANGENT": 17,
            "TEXCOORD_0": 18
          },
          "indices": 19,
          "material": 4,
          "mode": 4
        }
      ]
    },
    {
      "name": "Lunar Command Module_4",
      "primitives": [
        {
          "attributes": {
            "NORMAL": 21,
            "POSITION": 20,
            "TEXCOORD_0": 22
          },
          "indices": 23,
          "material": 5,
          "mode": 4
        }
      ]
    },
    {
      "name": "Sphere_0",
      "primitives": [
        {
          "attributes": {
            "NORMAL": 25,
            "POSITION": 24,
            "TEXCOORD_0": 26
          },
          "indices": 27,
          "material": 0,
          "mode": 4
        }
      ]
    }
  ],
  "nodes": [
    {
      "children": [
        1
      ],
      "matrix": [
        1.0,
        0.0,
        0.0,
        0.0,
        0.0,
        2.220446049250313e-16,
        -1.0,
        0.0,
        0.0,
        1.0,
        2.220446049250313e-16,
        0.0,
        0.0,
        0.0,
        0.0,
        1.0
      ],
      "name": "Sketchfab_model"
    },
    {
      "children": [
        2,
        8
      ],
      "name": "Root"
    },
    {
      "children": [
        3,
        4,
        5,
        6,
        7
      ],
      "matrix": [
        0.0,
        0.0,
        -1.6184,
        0.0,
        -0.0,
        1.6184,
        -0.0,
        0.0,
        2.23272,
        0.0,
        0.0,
        0.0,
        0.24692000000000003,
        0.0,
        0.0,
        1.0
      ],
      "name": "Lunar Command Module"
    },
    {
      "mesh": 0,
      "name": "Lunar Command Module_0"
    },
    {
      "mesh": 1,
      "name": "Lunar Command Module_1"
    },
    {
      "mesh": 2,
      "name": "Lunar Command Module_2"
    },
    {
      "mesh": 3,
      "name": "Lunar Command Module_3"
    },
    {
      "mesh": 4,
      "name": "Lunar Command Module_4"
    },
    {
      "children": [
        9
      ],
      "matrix": [
        330.90964,
        0.0,
        0.0,
        0.0,
        0.0,
        330.90964,
        0.0,
        0.0,
        0.0,
        0.0,
        330.90964,
        0.0,
        0.0,
        0.0,
        0.0,
        1.0
      ],
      "name": "Sphere"
    },
    {
      "mesh": 5,
      "name": "Sphere_0"
    }
  ],
  "samplers": [
    {
      "magFilter": 9729,
      "minFilter": 9987,
      "wrapS": 10497,
      "wrapT": 10497
    }
  ],
  "scene": 0,
  "scenes": [
    {
      "name": "Sketchfab_Scene",
      "nodes": [
        0
      ]
    }
  ],
  "textures": [
    {
      "sampler": 0,
      "source": 0
    },
    {
      "sampler": 0,
      "source": 1
    },
    {
      "sampler": 0,
      "source": 2
    },
    {
      "sampler": 0,
      "source": 3
    },
    {
      "sampler": 0,
      "source": 4
    },
    {
      "sampler": 0,
      "source": 5
    },
    {
      "sampler": 0,
      "source": 6
    },
    {
      "sampler": 0,
      "source": 7
    },
    {
      "sampler": 0,
      "source": 8
    },
    {
      "sampler": 0,
      "source": 9
    }
  ]
}
