{
  "accessors": [
    {
      "bufferView": 3,
      "componentType": 5126,
      "count": 276,
      "max": [
        0.028845559805631638,
        0.6908667087554932,
        0.04332546144723892
      ],
      "min": [
        -0.028630530461668968,
        0.5590857267379761,
        -0.06754258275032043
      ],
      "type": "VEC3"
    },
    {
      "bufferView": 3,
      "byteOffset": 3312,
      "componentType": 5126,
      "count": 276,
      "max": [
        0.9968024492263794,
        0.9933526515960693,
        0.999994158744812
      ],
      "min": [
        -0.9968023300170898,
        -0.9920060038566589,
        -0.9994081258773804
      ],
      "type": "VEC3"
    },
    {
      "bufferView": 2,
      "componentType": 5126,
      "count": 276,
      "max": [
        0.9995009899139404,
        0.9995009899139404
      ],
      "min": [
        0.0005000000237487257,
        0.0004990000161342323
      ],
      "type": "VEC2"
    },
    {
      "bufferView": 1,
      "componentType": 5125,
      "count": 1200,
      "type": "SCALAR"
    },
    {
      "bufferView": 3,
      "byteOffset": 6624,
      "componentType": 5126,
      "count": 250,
      "max": [
        0.10301510244607925,
        0.6743907928466797,
        0.08259893208742142
      ],
      "min": [
        -0.10291032493114471,
        0.43923819065093994,
        0.021585090085864067
      ],
      "type": "VEC3"
    },
    {
      "bufferView": 3,
      "byteOffset": 9624,
      "componentType": 5126,
      "count": 250,
      "max": [
        0.9776833057403564,
        0.7348099946975708,
        0.9963340759277344
      ],
      "min": [
        -0.977682888507843,
        -0.9889589548110962,
        -0.9592437744140625
      ],
      "type": "VEC3"
    },
    {
      "bufferView": 2,
      "byteOffset": 2208,
      "componentType": 5126,
      "count": 250,
      "max": [
        0.9994999766349792,
        0.9995009899139404
      ],
      "min": [
        0.0005000000237487257,
        0.0005000000237487257
      ],
      "type": "VEC2"
    },
    {
      "bufferView": 1,
      "byteOffset": 4800,
      "componentType": 5125,
      "count": 840,
      "type": "SCALAR"
    },
    {
      "bufferView": 3,
      "byteOffset": 12624,
      "componentType": 5126,
      "count": 68,
      "max": [
        0.024463579058647156,
        0.6822344660758972,
        -0.002270449884235859
      ],
      "min": [
        -0.0242522694170475,
        0.6703061461448669,
        -0.014198709279298782
      ],
      "type": "VEC3"
    },
    {
      "bufferView": 3,
      "byteOffset": 13440,
      "componentType": 5126,
      "count": 68,
      "max": [
        1.0,
        1.0,
        1.0
      ],
      "min": [
        -1.0,
        -1.0,
        -1.0
      ],
      "type": "VEC3"
    },
    {
      "bufferView": 2,
      "byteOffset": 4208,
      "componentType": 5126,
      "count": 68,
      "max": [
        0.9995009899139404,
        0.9995009899139404
      ],
      "min": [
        0.0004990000161342323,
        0.0005000000237487257
      ],
      "type": "VEC2"
    },
    {
      "bufferView": 1,
      "byteOffset": 8160,
      "componentType": 5125,
      "count": 288,
      "type": "SCALAR"
    },
    {
      "bufferView": 3,
      "byteOffset": 14256,
      "componentType": 5126,
      "count": 150,
      "max": [
        0.10493967682123184,
        0.41508668661117554,
        0.04382430762052536
      ],
      "min": [
        -0.10474754869937897,
        0.1806289404630661,
        -0.044427745044231415
      ],
      "type": "VEC3"
    },
    {
      "bufferView": 3,
      "byteOffset": 16056,
      "componentType": 5126,
      "count": 150,
      "max": [
        0.9848857522010803,
        0.35865119099617004,
        0.9999094009399414
      ],
      "min": [
        -0.9848857522010803,
        -0.8838914632797241,
        -0.9996153116226196
      ],
      "type": "VEC3"
    },
    {
      "bufferView": 2,
      "byteOffset": 4752,
      "componentType": 5126,
      "count": 150,
      "max": [
        0.9766380190849304,
        0.9978139996528625
      ],
      "min": [
        0.023614000529050827,
        0.5199909806251526
      ],
      "type": "VEC2"
    },
    {
      "bufferView": 1,
      "byteOffset": 9312,
      "componentType": 5125,
      "count": 690,
      "type": "SCALAR"
    },
    {
      "bufferView": 3,
      "byteOffset": 17856,
      "componentType": 5126,
      "count": 174,
      "max": [
        0.09776224941015244,
        0.4240334630012512,
        0.05866137892007828
      ],
      "min": [
        -0.09746947884559631,
        0.25873270630836487,
        -0.045499298721551895
      ],
      "type": "VEC3"
    },
    {
      "bufferView": 3,
      "byteOffset": 19944,
      "componentType": 5126,
      "count": 174,
      "max": [
        0.9963322281837463,
        0.7839057445526123,
        0.999953031539917
      ],
      "min": [
        -0.994351863861084,
        -0.6629798412322998,
        -0.999953031539917
      ],
      "type": "VEC3"
    },
    {
      "bufferView": 2,
      "byteOffset": 5952,
      "componentType": 5126,
      "count": 174,
      "max": [
        0.9944609999656677,
        0.9299049973487854
      ],
      "min": [
        0.004362000152468681,
        0.007703999988734722
      ],
      "type": "VEC2"
    },
    {
      "bufferView": 1,
      "byteOffset": 12072,
      "componentType": 5125,
      "count": 828,
      "type": "SCALAR"
    },
    {
      "bufferView": 3,
      "byteOffset": 22032,
      "componentType": 5126,
      "count": 78,
      "max": [
        -0.05937504768371582,
        0.5611028671264648,
        0.02962064929306507
      ],
      "min": [
        -0.19481462240219116,
        0.3938497006893158,
        -0.020446879789233208
      ],
      "type": "VEC3"
    },
    {
      "bufferView": 3,
      "byteOffset": 22968,
      "componentType": 5126,
      "count": 78,
      "max": [
        0.8700017929077148,
        0.8971500992774963,
        0.9998934268951416
      ],
      "min": [
        -0.8582282662391663,
        -0.8074480295181274,
        -0.9963383674621582
      ],
      "type": "VEC3"
    },
    {
      "bufferView": 2,
      "byteOffset": 7344,
      "componentType": 5126,
      "count": 78,
      "max": [
        0.9848330020904541,
        0.9961280226707458
      ],
      "min": [
        0.01046799961477518,
        0.003871999913826585
      ],
      "type": "VEC2"
    },
    {
      "bufferView": 1,
      "byteOffset": 15384,
      "componentType": 5125,
      "count": 378,
      "type": "SCALAR"
    },
    {
      "bufferView": 3,
      "byteOffset": 23904,
      "componentType": 5126,
      "count": 189,
      "max": [
        -0.18341699242591858,
        0.4029025435447693,
        0.013326619751751423
      ],
      "min": [
        -0.21372562646865845,
        0.3378681242465973,
        -0.019667619839310646
      ],
      "type": "VEC3"
    },
    {
      "bufferView": 3,
      "byteOffset": 26172,
      "componentType": 5126,
      "count": 189,
      "max": [
        0.9940921664237976,
        0.8062868118286133,
        0.9865279793739319
      ],
      "min": [
        -0.979111909866333,
        -0.9762504696846008,
        -0.9969682097434998
      ],
      "type": "VEC3"
    },
    {
      "bufferView": 2,
      "byteOffset": 7968,
      "componentType": 5126,
      "count": 189,
      "max": [
        0.9994999766349792,
        0.9995009899139404
      ],
      "min": [
        0.0004990000161342323,
        0.0005000000237487257
      ],
      "type": "VEC2"
    },
    {
      "bufferView": 1,
      "byteOffset": 16896,
      "componentType": 5125,
      "count": 828,
      "type": "SCALAR"
    },
    {
      "bufferView": 3,
      "byteOffset": 28440,
      "componentType": 5126,
      "count": 42,
      "max": [
        -0.058360058814287186,
        0.19483165442943573,
        0.057245101779699326
      ],
      "min": [
        -0.15304970741271973,
        0.04012250900268555,
        -0.021629609167575836
      ],
      "type": "VEC3"
    },
    {
      "bufferView": 3,
      "byteOffset": 28944,
      "componentType": 5126,
      "count": 42,
      "max": [
        0.9485847353935242,
        0.38204285502433777,
        0.9999783039093018
      ],
      "min": [
        -0.9477089643478394,
        -0.9443010687828064,
        -0.9999444484710693
      ],
      "type": "VEC3"
    },
    {
      "bufferView": 2,
      "byteOffset": 9480,
      "componentType": 5126,
      "count": 42,
      "max": [
        0.9897670149803162,
        0.520766019821167
      ],
      "min": [
        0.010354000143706799,
        0.00724400021135807
      ],
      "type": "VEC2"
    },
    {
      "bufferView": 1,
      "byteOffset": 20208,
      "componentType": 5125,
      "count": 150,
      "type": "SCALAR"
    },
    {
      "bufferView": 3,
      "byteOffset": 29448,
      "componentType": 5126,
      "count": 121,
      "max": [
        -0.08737150579690933,
        0.07481649518013,
        0.04836811125278473
      ],
      "min": [
        -0.14974363148212433,
        0.03087177872657776,
        -0.045465659350156784
      ],
      "type": "VEC3"
    },
    {
      "bufferView": 3,
      "byteOffset": 30900,
      "componentType": 5126,
      "count": 121,
      "max": [
        0.9822991490364075,
        0.9457890391349792,
        0.9934095144271851
      ],
      "min": [
        -0.9695452451705933,
        -0.9781448245048523,
        -0.9030807614326477
      ],
      "type": "VEC3"
    },
    {
      "bufferView": 2,
      "byteOffset": 9816,
      "componentType": 5126,
      "count": 121,
      "max": [
        0.9995009899139404,
        0.9995009899139404
      ],
      "min": [
        0.0005000000237487257,
        0.0004990000161342323
      ],
      "type": "VEC2"
    },
    {
      "bufferView": 1,
      "byteOffset": 20808,
      "componentType": 5125,
      "count": 510,
      "type": "SCALAR"
    },
    {
      "bufferView": 3,
      "byteOffset": 32352,
      "componentType": 5126,
      "count": 78,
      "max": [
        0.19500687718391418,
        0.5611029863357544,
        0.02962064929306507
      ],
      "min": [
        0.05956733971834183,
        0.39384955167770386,
        -0.020446879789233208
      ],
      "type": "VEC3"
    },
    {
      "bufferView": 3,
      "byteOffset": 33288,
      "componentType": 5126,
      "count": 78,
      "max": [
        0.8582277297973633,
        0.8971482515335083,
        0.9998934268951416
      ],
      "min": [
        -0.8700013756752014,
        -0.807439923286438,
        -0.9963380098342896
      ],
      "type": "VEC3"
    },
    {
      "bufferView": 2,
      "byteOffset": 10784,
      "componentType": 5126,
      "count": 78,
      "max": [
        0.9848330020904541,
        0.9961280226707458
      ],
      "min": [
        0.01046799961477518,
        0.003871999913826585
      ],
      "type": "VEC2"
    },
    {
      "bufferView": 1,
      "byteOffset": 22848,
      "componentType": 5125,
      "count": 378,
      "type": "SCALAR"
    },
    {
      "bufferView": 3,
      "byteOffset": 34224,
      "componentType": 5126,
      "count": 189,
      "max": [
        0.21389614045619965,
        0.4029023349285126,
        0.013326610438525677
      ],
      "min": [
        0.18360921740531921,
        0.33774447441101074,
        -0.019667629152536392
      ],
      "type": "VEC3"
    },
    {
      "bufferView": 3,
      "byteOffset": 36492,
      "componentType": 5126,
      "count": 189,
      "max": [
        0.9796121716499329,
        0.8062878251075745,
        0.9865279793739319
      ],
      "min": [
        -0.9940910935401917,
        -0.9762976169586182,
        -0.9969683289527893
      ],
      "type": "VEC3"
    },
    {
      "bufferView": 2,
      "byteOffset": 11408,
      "componentType": 5126,
      "count": 189,
      "max": [
        0.9994999766349792,
        0.9995009899139404
      ],
      "min": [
        0.0004990000161342323,
        0.0005000000237487257
      ],
      "type": "VEC2"
    },
    {
      "bufferView": 1,
      "byteOffset": 24360,
      "componentType": 5125,
      "count": 828,
      "type": "SCALAR"
    },
    {
      "bufferView": 3,
      "byteOffset": 38760,
      "componentType": 5126,
      "count": 42,
      "max": [
        0.1532418578863144,
        0.19483165442943573,
        0.057245101779699326
      ],
      "min": [
        0.058552179485559464,
        0.04012250900268555,
        -0.021629609167575836
      ],
      "type": "VEC3"
    },
    {
      "bufferView": 3,
      "byteOffset": 39264,
      "componentType": 5126,
      "count": 42,
      "max": [
        0.9477089643478394,
        0.3820429742336273,
        0.9999783039093018
      ],
      "min": [
        -0.9485847353935242,
        -0.9443010687828064,
        -0.9999444484710693
      ],
      "type": "VEC3"
    },
    {
      "bufferView": 2,
      "byteOffset": 12920,
      "componentType": 5126,
      "count": 42,
      "max": [
        0.9897670149803162,
        0.520766019821167
      ],
      "min": [
        0.010354000143706799,
        0.00724400021135807
      ],
      "type": "VEC2"
    },
    {
      "bufferView": 1,
      "byteOffset": 27672,
      "componentType": 5125,
      "count": 150,
      "type": "SCALAR"
    },
    {
      "bufferView": 3,
      "byteOffset": 39768,
      "componentType": 5126,
      "count": 121,
      "max": [
        0.149935781955719,
        0.07481649518013,
        0.048368118703365326
      ],
      "min": [
        0.08756362646818161,
        0.03087177872657776,
        -0.045465659350156784
      ],
      "type": "VEC3"
    },
    {
      "bufferView": 3,
      "byteOffset": 41220,
      "componentType": 5126,
      "count": 121,
      "max": [
        0.9695452451705933,
        0.9457890391349792,
        0.9934095144271851
      ],
      "min": [
        -0.9822990298271179,
        -0.9781477451324463,
        -0.9030807614326477
      ],
      "type": "VEC3"
    },
    {
      "bufferView": 2,
      "byteOffset": 13256,
      "componentType": 5126,
      "count": 121,
      "max": [
        0.9995009899139404,
        0.9995009899139404
      ],
      "min": [
        0.0005000000237487257,
        0.0004990000161342323
      ],
      "type": "VEC2"
    },
    {
      "bufferView": 1,
      "byteOffset": 28272,
      "componentType": 5125,
      "count": 510,
      "type": "SCALAR"
    },
    {
      "bufferView": 3,
      "byteOffset": 42672,
      "componentType": 5126,
      "count": 117,
      "max": [
        0.06335673481225967,
        0.5741969347000122,
        0.04122595861554146
      ],
      "min": [
        -0.06316458433866501,
        0.4150243401527405,
        -0.038732919842004776
      ],
      "type": "VEC3"
    },
    {
      "bufferView": 3,
      "byteOffset": 44076,
      "componentType": 5126,
      "count": 117,
      "max": [
        0.9974632263183594,
        0.9583510756492615,
        0.9999853372573853
      ],
      "min": [
        -0.9974633455276489,
        -0.5763140320777893,
        -0.9998286962509155
      ],
      "type": "VEC3"
    },
    {
      "bufferView": 2,
      "byteOffset": 14224,
      "componentType": 5126,
      "count": 117,
      "max": [
        0.9961029887199402,
        1.000525951385498
      ],
      "min": [
        0.001541999983601272,
        0.003800000064074993
      ],
      "type": "VEC2"
    },
    {
      "bufferView": 1,
      "byteOffset": 30312,
      "componentType": 5125,
      "count": 564,
      "type": "SCALAR"
    },
    {
      "bufferView": 3,
      "byteOffset": 45480,
      "componentType": 5126,
      "count": 160,
      "max": [
        0.060446929186582565,
        0.5737196803092957,
        0.050009168684482574
      ],
      "min": [
        -0.06015212833881378,
        0.4479164481163025,
        -0.043624307960271835
      ],
      "type": "VEC3"
    },
    {
      "bufferView": 3,
      "byteOffset": 47400,
      "componentType": 5126,
      "count": 160,
      "max": [
        0.9980546236038208,
        0.9532211422920227,
        0.9999945163726807
      ],
      "min": [
        -0.9980546236038208,
        -0.9532211422920227,
        -0.9999945163726807
      ],
      "type": "VEC3"
    },
    {
      "bufferView": 2,
      "byteOffset": 15160,
      "componentType": 5126,
      "count": 160,
      "max": [
        0.9966220259666443,
        1.0000410079956055
      ],
      "min": [
        0.003378000110387802,
        0.0008440000237897038
      ],
      "type": "VEC2"
    },
    {
      "bufferView": 1,
      "byteOffset": 32568,
      "componentType": 5125,
      "count": 636,
      "type": "SCALAR"
    },
    {
      "bufferView": 5,
      "componentType": 5126,
      "count": 23,
      "max": [
        1.0000001192092896,
        0.9085759520530701,
        0.7498813271522522,
        0.0,
        0.28939706087112427,
        1.0,
        0.9074660539627075,
        0.0,
        0.9987295866012573,
        0.057966865599155426,
        1.0000001192092896,
        0.0,
        0.12811748683452606,
        0.3535592555999756,
        0.06773311644792557,
        1.0
      ],
      "min": [
        -0.994140625,
        -0.9085761308670044,
        -0.7499585747718811,
        0.0,
        -0.26779821515083313,
        -0.9941273927688599,
        -0.970536470413208,
        0.0,
        -0.9988164305686951,
        -0.8411269783973694,
        -0.15353643894195557,
        0.0,
        -0.12811675667762756,
        -0.6301140189170837,
        -0.5151669383049011,
        1.0
      ],
      "type": "MAT4"
    },
    {
      "bufferView": 0,
      "componentType": 5123,
      "count": 276,
      "type": "VEC4"
    },
    {
      "bufferView": 4,
      "componentType": 5126,
      "count": 276,
      "max": [
        1.0,
        0.4890468120574951,
        0.1253855675458908,
        0.0
      ],
      "min": [
        0.5109531879425049,
        0.0,
        0.0,
        0.0
      ],
      "type": "VEC4"
    },
    {
      "bufferView": 0,
      "byteOffset": 2208,
      "componentType": 5123,
      "count": 250,
      "type": "VEC4"
    },
    {
      "bufferView": 4,
      "byteOffset": 4416,
      "componentType": 5126,
      "count": 250,
      "max": [
        1.0,
        0.48985034227371216,
        0.0,
        0.0
      ],
      "min": [
        0.5101496577262878,
        0.0,
        0.0,
        0.0
      ],
      "type": "VEC4"
    },
    {
      "bufferView": 0,
      "byteOffset": 4208,
      "componentType": 5123,
      "count": 68,
      "type": "VEC4"
    },
    {
      "bufferView": 4,
      "byteOffset": 8416,
      "componentType": 5126,
      "count": 68,
      "max": [
        0.7409186959266663,
        0.3686135411262512,
        0.0,
        0.0
      ],
      "min": [
        0.6313864588737488,
        0.25908127427101135,
        0.0,
        0.0
      ],
      "type": "VEC4"
    },
    {
      "bufferView": 0,
      "byteOffset": 4752,
      "componentType": 5123,
      "count": 150,
      "type": "VEC4"
    },
    {
      "bufferView": 4,
      "byteOffset": 9504,
      "componentType": 5126,
      "count": 150,
      "max": [
        1.0,
        0.49843305349349976,
        0.29248830676078796,
        0.0
      ],
      "min": [
        0.40406888723373413,
        0.0,
        0.0,
        0.0
      ],
      "type": "VEC4"
    },
    {
      "bufferView": 0,
      "byteOffset": 5952,
      "componentType": 5123,
      "count": 174,
      "type": "VEC4"
    },
    {
      "bufferView": 4,
      "byteOffset": 11904,
      "componentType": 5126,
      "count": 174,
      "max": [
        1.0,
        0.499978244304657,
        0.11250646412372589,
        0.0
      ],
      "min": [
        0.46451300382614136,
        0.0,
        0.0,
        0.0
      ],
      "type": "VEC4"
    },
    {
      "bufferView": 0,
      "byteOffset": 7344,
      "componentType": 5123,
      "count": 78,
      "type": "VEC4"
    },
    {
      "bufferView": 4,
      "byteOffset": 14688,
      "componentType": 5126,
      "count": 78,
      "max": [
        0.9846729040145874,
        0.42319199442863464,
        0.2640216648578644,
        0.16021771728992462
      ],
      "min": [
        0.3300729990005493,
        0.015327042900025845,
        0.0,
        0.0
      ],
      "type": "VEC4"
    },
    {
      "bufferView": 0,
      "byteOffset": 7968,
      "componentType": 5123,
      "count": 189,
      "type": "VEC4"
    },
    {
      "bufferView": 4,
      "byteOffset": 15936,
      "componentType": 5126,
      "count": 189,
      "max": [
        1.0,
        0.4222411513328552,
        0.0,
        0.0
      ],
      "min": [
        0.5777588486671448,
        0.0,
        0.0,
        0.0
      ],
      "type": "VEC4"
    },
    {
      "bufferView": 0,
      "byteOffset": 9480,
      "componentType": 5123,
      "count": 42,
      "type": "VEC4"
    },
    {
      "bufferView": 4,
      "byteOffset": 18960,
      "componentType": 5126,
      "count": 42,
      "max": [
        0.9842145442962646,
        0.35561996698379517,
        0.17709539830684662,
        0.0
      ],
      "min": [
        0.4672846794128418,
        0.01578548364341259,
        0.0,
        0.0
      ],
      "type": "VEC4"
    },
    {
      "bufferView": 0,
      "byteOffset": 9816,
      "componentType": 5123,
      "count": 121,
      "type": "VEC4"
    },
    {
      "bufferView": 4,
      "byteOffset": 19632,
      "componentType": 5126,
      "count": 121,
      "max": [
        1.0,
        0.4976200759410858,
        0.2015455961227417,
        0.0
      ],
      "min": [
        0.4502430260181427,
        0.0,
        0.0,
        0.0
      ],
      "type": "VEC4"
    },
    {
      "bufferView": 0,
      "byteOffset": 10784,
      "componentType": 5123,
      "count": 78,
      "type": "VEC4"
    },
    {
      "bufferView": 4,
      "byteOffset": 21568,
      "componentType": 5126,
      "count": 78,
      "max": [
        0.9796428680419922,
        0.4903261065483093,
        0.203470841050148,
        0.167462557554245
      ],
      "min": [
        0.36013269424438477,
        0.019282517954707146,
        0.0,
        0.0
      ],
      "type": "VEC4"
    },
    {
      "bufferView": 0,
      "byteOffset": 11408,
      "componentType": 5123,
      "count": 189,
      "type": "VEC4"
    },
    {
      "bufferView": 4,
      "byteOffset": 22816,
      "componentType": 5126,
      "count": 189,
      "max": [
        1.0,
        0.49031347036361694,
        0.0,
        0.0
      ],
      "min": [
        0.5096865296363831,
        0.0,
        0.0,
        0.0
      ],
      "type": "VEC4"
    },
    {
      "bufferView": 0,
      "byteOffset": 12920,
      "componentType": 5123,
      "count": 42,
      "type": "VEC4"
    },
    {
      "bufferView": 4,
      "byteOffset": 25840,
      "componentType": 5126,
      "count": 42,
      "max": [
        0.9888570308685303,
        0.3345282971858978,
        0.20406612753868103,
        0.0
      ],
      "min": [
        0.5568945407867432,
        0.011142933741211891,
        0.0,
        0.0
      ],
      "type": "VEC4"
    },
    {
      "bufferView": 0,
      "byteOffset": 13256,
      "componentType": 5123,
      "count": 121,
      "type": "VEC4"
    },
    {
      "bufferView": 4,
      "byteOffset": 26512,
      "componentType": 5126,
      "count": 121,
      "max": [
        1.0,
        0.4874793291091919,
        0.20538747310638428,
        0.0
      ],
      "min": [
        0.4890618324279785,
        0.0,
        0.0,
        0.0
      ],
      "type": "VEC4"
    },
    {
      "bufferView": 0,
      "byteOffset": 14224,
      "componentType": 5123,
      "count": 117,
      "type": "VEC4"
    },
    {
      "bufferView": 4,
      "byteOffset": 28448,
      "componentType": 5126,
      "count": 117,
      "max": [
        1.0,
        0.4976418614387512,
        0.2487446814775467,
        0.18266302347183228
      ],
      "min": [
        0.3200143873691559,
        0.0,
        0.0,
        0.0
      ],
      "type": "VEC4"
    },
    {
      "bufferView": 0,
      "byteOffset": 15160,
      "componentType": 5123,
      "count": 160,
      "type": "VEC4"
    },
    {
      "bufferView": 4,
      "byteOffset": 30320,
      "componentType": 5126,
      "count": 160,
      "max": [
        1.0,
        0.4973820149898529,
        0.27007073163986206,
        0.14407333731651306
      ],
      "min": [
        0.37480032444000244,
        0.0,
        0.0,
        0.0
      ],
      "type": "VEC4"
    },
    {
      "bufferView": 6,
      "componentType": 5126,
      "count": 300,
      "max": [
        9.966667175292969
      ],
      "min": [
        0.0
      ],
      "type": "SCALAR"
    },
    {
      "bufferView": 7,
      "componentType": 5126,
      "count": 300,
      "max": [
        -0.0009533711127005517,
        0.3796791732311249,
        0.010864827781915665
      ],
      "min": [
        -0.0030146916396915913,
        0.3792754113674164,
        0.004737563896924257
      ],
      "type": "VEC3"
    },
    {
      "bufferView": 6,
      "byteOffset": 1200,
      "componentType": 5126,
      "count": 300,
      "max": [
        9.966667175292969
      ],
      "min": [
        0.0
      ],
      "type": "SCALAR"
    },
    {
      "bufferView": 8,
      "componentType": 5126,
      "count": 300,
      "max": [
        -0.011901354417204857,
        -0.010328944772481918,
        0.008385160937905312,
        -0.9996144771575928
      ],
      "min": [
        -0.020459983497858047,
        -0.01808134838938713,
        0.004559929948300123,
        -0.9998054504394531
      ],
      "type": "VEC4"
    },
    {
      "bufferView": 6,
      "byteOffset": 2400,
      "componentType": 5126,
      "count": 300,
      "max": [
        9.966667175292969
      ],
      "min": [
        0.0
      ],
      "type": "SCALAR"
    },
    {
      "bufferView": 8,
      "byteOffset": 4800,
      "componentType": 5126,
      "count": 300,
      "max": [
        0.057101424783468246,
        0.002097714925184846,
        0.00873936153948307,
        -0.9983352422714233
      ],
      "min": [
        0.04924152418971062,
        -0.0066010309383273125,
        0.006094631273299456,
        -0.9987432956695557
      ],
      "type": "VEC4"
    },
    {
      "bufferView": 6,
      "byteOffset": 3600,
      "componentType": 5126,
      "count": 300,
      "max": [
        9.966667175292969
      ],
      "min": [
        0.0
      ],
      "type": "SCALAR"
    },
    {
      "bufferView": 8,
      "byteOffset": 9600,
      "componentType": 5126,
      "count": 300,
      "max": [
        0.016029173508286476,
        -0.00011064375576097518,
        0.0037220630329102278,
        -0.9998666048049927
      ],
      "min": [
        0.0037908374797552824,
        -0.0016686477465555072,
        0.0021308744326233864,
        -0.9999886155128479
      ],
      "type": "VEC4"
    },
    {
      "bufferView": 6,
      "byteOffset": 4800,
      "componentType": 5126,
      "count": 300,
      "max": [
        9.966667175292969
      ],
      "min": [
        0.0
      ],
      "type": "SCALAR"
    },
    {
      "bufferView": 8,
      "byteOffset": 14400,
      "componentType": 5126,
      "count": 300,
      "max": [
        0.016026291996240616,
        -0.0001870487176347524,
        0.003711441531777382,
        -0.9998666644096375
      ],
      "min": [
        0.003783425549045205,
        -0.0017200823640450835,
        0.002117149531841278,
        -0.9999886155128479
      ],
      "type": "VEC4"
    },
    {
      "bufferView": 6,
      "byteOffset": 6000,
      "componentType": 5126,
      "count": 300,
      "max": [
        9.966667175292969
      ],
      "min": [
        0.0
      ],
      "type": "SCALAR"
    },
    {
      "bufferView": 8,
      "byteOffset": 19200,
      "componentType": 5126,
      "count": 300,
      "max": [
        -0.02205490693449974,
        0.006748378276824951,
        -0.0030511803925037384,
        -0.9991862773895264
      ],
      "min": [
        -0.03935432434082031,
        0.004087483044713736,
        -0.008009876124560833,
        -0.999729573726654
      ],
      "type": "VEC4"
    },
    {
      "bufferView": 6,
      "byteOffset": 7200,
      "componentType": 5126,
      "count": 300,
      "max": [
        9.966667175292969
      ],
      "min": [
        0.0
      ],
      "type": "SCALAR"
    },
    {
      "bufferView": 8,
      "byteOffset": 24000,
      "componentType": 5126,
      "count": 300,
      "max": [
        -0.03650030866265297,
        0.04599378630518913,
        -0.03211059048771858,
        -0.996854305267334
      ],
      "min": [
        -0.05602887645363808,
        0.027632512152194977,
        -0.04705055058002472,
        -0.9979987144470215
      ],
      "type": "VEC4"
    },
    {
      "bufferView": 6,
      "byteOffset": 8400,
      "componentType": 5126,
      "count": 300,
      "max": [
        9.966667175292969
      ],
      "min": [
        0.0
      ],
      "type": "SCALAR"
    },
    {
      "bufferView": 8,
      "byteOffset": 28800,
      "componentType": 5126,
      "count": 300,
      "max": [
        0.502423107624054,
        -0.028336841613054276,
        0.03135071322321892,
        -0.8638237118721008
      ],
      "min": [
        0.48001667857170105,
        -0.04173896834254265,
        -0.007301139645278454,
        -0.8760004639625549
      ],
      "type": "VEC4"
    },
    {
      "bufferView": 6,
      "byteOffset": 9600,
      "componentType": 5126,
      "count": 300,
      "max": [
        9.966667175292969
      ],
      "min": [
        0.0
      ],
      "type": "SCALAR"
    },
    {
      "bufferView": 8,
      "byteOffset": 33600,
      "componentType": 5126,
      "count": 300,
      "max": [
        0.4701945185661316,
        0.1474861055612564,
        -0.05741063132882118,
        -0.8688019514083862
      ],
      "min": [
        0.4462711215019226,
        0.13587206602096558,
        -0.08639546483755112,
        -0.8802077174186707
      ],
      "type": "VEC4"
    },
    {
      "bufferView": 6,
      "byteOffset": 10800,
      "componentType": 5126,
      "count": 300,
      "max": [
        9.966667175292969
      ],
      "min": [
        0.0
      ],
      "type": "SCALAR"
    },
    {
      "bufferView": 8,
      "byteOffset": 38400,
      "componentType": 5126,
      "count": 300,
      "max": [
        -0.08651327341794968,
        0.04598454758524895,
        -0.9946342706680298,
        -0.02708655595779419
      ],
      "min": [
        -0.08839228749275208,
        0.036194171756505966,
        -0.9950543642044067,
        -0.03287557512521744
      ],
      "type": "VEC4"
    },
    {
      "bufferView": 6,
      "byteOffset": 12000,
      "componentType": 5126,
      "count": 300,
      "max": [
        9.966667175292969
      ],
      "min": [
        0.0
      ],
      "type": "SCALAR"
    },
    {
      "bufferView": 8,
      "byteOffset": 43200,
      "componentType": 5126,
      "count": 300,
      "max": [
        -0.1437615156173706,
        -0.03239642456173897,
        0.07320288568735123,
        -0.9848623275756836
      ],
      "min": [
        -0.15228943526744843,
        -0.0408734567463398,
        0.07205947488546371,
        -0.9863197207450867
      ],
      "type": "VEC4"
    },
    {
      "bufferView": 6,
      "byteOffset": 13200,
      "componentType": 5126,
      "count": 300,
      "max": [
        9.966667175292969
      ],
      "min": [
        0.0
      ],
      "type": "SCALAR"
    },
    {
      "bufferView": 8,
      "byteOffset": 48000,
      "componentType": 5126,
      "count": 300,
      "max": [
        0.5011037588119507,
        0.07991322875022888,
        0.07141885906457901,
        -0.858852744102478
      ],
      "min": [
        0.493197500705719,
        0.07785706967115402,
        0.06854687631130219,
        -0.8635911345481873
      ],
      "type": "VEC4"
    },
    {
      "bufferView": 6,
      "byteOffset": 14400,
      "componentType": 5126,
      "count": 300,
      "max": [
        9.966667175292969
      ],
      "min": [
        0.0
      ],
      "type": "SCALAR"
    },
    {
      "bufferView": 8,
      "byteOffset": 52800,
      "componentType": 5126,
      "count": 300,
      "max": [
        0.101664237678051,
        0.061386700719594955,
        -0.9927340745925903,
        -0.02404353767633438
      ],
      "min": [
        0.0993279367685318,
        0.047555677592754364,
        -0.9933516383171082,
        -0.029806116595864296
      ],
      "type": "VEC4"
    },
    {
      "bufferView": 6,
      "byteOffset": 15600,
      "componentType": 5126,
      "count": 300,
      "max": [
        9.966667175292969
      ],
      "min": [
        0.0
      ],
      "type": "SCALAR"
    },
    {
      "bufferView": 8,
      "byteOffset": 57600,
      "componentType": 5126,
      "count": 300,
      "max": [
        -0.2018858641386032,
        0.01957615651190281,
        -0.0750357136130333,
        -0.9752047657966614
      ],
      "min": [
        -0.20727495849132538,
        0.009807263500988483,
        -0.07659408450126648,
        -0.9763673543930054
      ],
      "type": "VEC4"
    },
    {
      "bufferView": 6,
      "byteOffset": 16800,
      "componentType": 5126,
      "count": 300,
      "max": [
        9.966667175292969
      ],
      "min": [
        0.0
      ],
      "type": "SCALAR"
    },
    {
      "bufferView": 8,
      "byteOffset": 62400,
      "componentType": 5126,
      "count": 300,
      "max": [
        0.5484238266944885,
        -0.05913446471095085,
        -0.12569041550159454,
        -0.8241843581199646
      ],
      "min": [
        0.542154848575592,
        -0.06098907068371773,
        -0.1285598874092102,
        -0.8283520936965942
      ],
      "type": "VEC4"
    }
  ],
  "animations": [
    {
      "channels": [
        {
          "sampler": 0,
          "target": {
            "node": 36,
            "path": "translation"
          }
        },
        {
          "sampler": 1,
          "target": {
            "node": 36,
            "path": "rotation"
          }
        },
        {
          "sampler": 2,
          "target": {
            "node": 37,
            "path": "rotation"
          }
        },
        {
          "sampler": 3,
          "target": {
            "node": 38,
            "path": "rotation"
          }
        },
        {
          "sampler": 4,
          "target": {
            "node": 39,
            "path": "rotation"
          }
        },
        {
          "sampler": 5,
          "target": {
            "node": 44,
            "path": "rotation"
          }
        },
        {
          "sampler": 6,
          "target": {
            "node": 45,
            "path": "rotation"
          }
        },
        {
          "sampler": 7,
          "target": {
            "node": 41,
            "path": "rotation"
          }
        },
        {
          "sampler": 8,
          "target": {
            "node": 48,
            "path": "rotation"
          }
        },
        {
          "sampler": 9,
          "target": {
            "node": 51,
            "path": "rotation"
          }
        },
        {
          "sampler": 10,
          "target": {
            "node": 52,
            "path": "rotation"
          }
        },
        {
          "sampler": 11,
          "target": {
            "node": 53,
            "path": "rotation"
          }
        },
        {
          "sampler": 12,
          "target": {
            "node": 56,
            "path": "rotation"
          }
        },
        {
          "sampler": 13,
          "target": {
            "node": 57,
            "path": "rotation"
          }
        },
        {
          "sampler": 14,
          "target": {
            "node": 58,
            "path": "rotation"
          }
        }
      ],
      "name": "Take 001",
      "samplers": [
        {
          "input": 91,
          "interpolation": "LINEAR",
          "output": 92
        },
        {
          "input": 93,
          "interpolation": "LINEAR",
          "output": 94
        },
        {
          "input": 95,
          "interpolation": "LINEAR",
          "output": 96
        },
        {
          "input": 97,
          "interpolation": "LINEAR",
          "output": 98
        },
        {
          "input": 99,
          "interpolation": "LINEAR",
          "output": 100
        },
        {
          "input": 101,
          "interpolation": "LINEAR",
          "output": 102
        },
        {
          "input": 103,
          "interpolation": "LINEAR",
          "output": 104
        },
        {
          "input": 105,
          "interpolation": "LINEAR",
          "output": 106
        },
        {
          "input": 107,
          "interpolation": "LINEAR",
          "output": 108
        },
        {
          "input": 109,
          "interpolation": "LINEAR",
          "output": 110
        },
        {
          "input": 111,
          "interpolation": "LINEAR",
          "output": 112
        },
        {
          "input": 113,
          "interpolation": "LINEAR",
          "output": 114
        },
        {
          "input": 115,
          "interpolation": "LINEAR",
          "output": 116
        },
        {
          "input": 117,
          "interpolation": "LINEAR",
          "output": 118
        },
        {
          "input": 119,
          "interpolation": "LINEAR",
          "output": 120
        }
      ]
    }
  ],
  "asset": {
    "extras": {
      "author": "Mind Mulch for The Masses (https://sketchfab.com/mindmulchforthemasses)",
      "license": "CC-BY-4.0 (http://creativecommons.org/licenses/by/4.0/)",
      "source": "https://sketchfab.com/3d-models/jar-jar-binks-85aef3e496d44e9b95c7386035c0ef10",
      "title": "Jar Jar Binks"
    },
    "generator": "Sketchfab-15.25.0",
    "version": "2.0"
  },
  "bufferViews": [
    {
      "buffer": 0,
      "byteLength": 16440,
      "byteStride": 8,
      "name": "shortBufferViews",
      "target": 34962
    },
    {
      "buffer": 0,
      "byteLength": 35112,
      "byteOffset": 16440,
      "name": "floatBufferViews",
      "target": 34963
    },
    {
      "buffer": 0,
      "byteLength": 16440,
      "byteOffset": 51552,
      "byteStride": 8,
      "name": "floatBufferViews",
      "target": 34962
    },
    {
      "buffer": 0,
      "byteLength": 49320,
      "byteOffset": 67992,
      "byteStride": 12,
      "name": "floatBufferViews",
      "target": 34962
    },
    {
      "buffer": 0,
      "byteLength": 32880,
      "byteOffset": 117312,
      "byteStride": 16,
      "name": "floatBufferViews",
      "target": 34962
    },
    {
      "buffer": 0,
      "byteLength": 1472,
      "byteOffset": 150192,
      "name": "floatBufferViews"
    },
    {
      "buffer": 0,
      "byteLength": 18000,
      "byteOffset": 151664,
      "name": "floatBufferViews"
    },
    {
      "buffer": 0,
      "byteLength": 3600,
      "byteOffset": 169664,
      "byteStride": 12,
      "name": "floatBufferViews"
    },
    {
      "buffer": 0,
      "byteLength": 67200,
      "byteOffset": 173264,
      "byteStride": 16,
      "name": "floatBufferViews"
    }
  ],
  "buffers": [
    {
      "byteLength": 240464,
      "uri": "scene.bin"
    }
  ],
  "extensionsUsed": [
    "KHR_materials_specular"
  ],
  "images": [
    {
      "uri": "textures/head_baseColor.jpeg"
    },
    {
      "uri": "textures/material_baseColor.jpeg"
    },
    {
      "uri": "textures/material_2_baseColor.jpeg"
    },
    {
      "uri": "textures/material_3_baseColor.jpeg"
    },
    {
      "uri": "textures/flap_baseColor.jpeg"
    },
    {
      "uri": "textures/material_5_baseColor.jpeg"
    },
    {
      "uri": "textures/hand_baseColor.jpeg"
    },
    {
      "uri": "textures/foot_baseColor.jpeg"
    },
    {
      "uri": "textures/torso_baseColor.jpeg"
    },
    {
      "uri": "textures/vest_baseColor.jpeg"
    }
  ],
  "materials": [
    {
      "extensions": {
        "KHR_materials_specular": {
          "specularColorFactor": [
            1.0,
            1.0,
            1.0
          ],
          "specularFactor": 0.0
        }
      },
      "name": "head",
      "pbrMetallicRoughness": {
        "baseColorTexture": {
          "index": 0
        },
        "metallicFactor": 0.0
      }
    },
    {
      "extensions": {
        "KHR_materials_specular": {
          "specularColorFactor": [
            1.0,
            1.0,
            1.0
          ],
          "specularFactor": 0.0
        }
      },
      "name": "material",
      "pbrMetallicRoughness": {
        "baseColorTexture": {
          "index": 1
        },
        "metallicFactor": 0.0
      }
    },
    {
      "name": "material_2",
      "pbrMetallicRoughness": {
        "baseColorTexture": {
          "index": 2
        }
      }
    },
    {
      "name": "material_3",
      "pbrMetallicRoughness": {
        "baseColorTexture": {
          "index": 3
        }
      }
    },
    {
      "name": "flap",
      "pbrMetallicRoughness": {
        "baseColorTexture": {
          "index": 4
        }
      }
    },
    {
      "extensions": {
        "KHR_materials_specular": {
          "specularColorFactor": [
            1.0,
            1.0,
            1.0
          ],
          "specularFactor": 0.0
        }
      },
      "name": "material_5",
      "pbrMetallicRoughness": {
        "baseColorTexture": {
          "index": 5
        },
        "metallicFactor": 0.0
      }
    },
    {
      "extensions": {
        "KHR_materials_specular": {
          "specularColorFactor": [
            1.0,
            1.0,
            1.0
          ],
          "specularFactor": 0.0
        }
      },
      "name": "hand",
      "pbrMetallicRoughness": {
        "baseColorTexture": {
          "index": 6
        },
        "metallicFactor": 0.0
      }
    },
    {
      "extensions": {
        "KHR_materials_specular": {
          "specularColorFactor": [
            1.0,
            1.0,
            1.0
          ],
          "specularFactor": 0.0
        }
      },
      "name": "foot",
      "pbrMetallicRoughness": {
        "baseColorTexture": {
          "index": 7
        },
        "metallicFactor": 0.0
      }
    },
    {
      "extensions": {
        "KHR_materials_specular": {
          "specularColorFactor": [
            1.0,
            1.0,
            1.0
          ],
          "specularFactor": 0.0
        }
      },
      "name": "torso",
      "pbrMetallicRoughness": {
        "baseColorTexture": {
          "index": 8
        },
        "metallicFactor": 0.0
      }
    },
    {
      "name": "vest",
      "pbrMetallicRoughness": {
        "baseColorTexture": {
          "index": 9
        }
      }
    }
  ],
  "meshes": [
    {
      "name": "Object_0",
      "primitives": [
        {
          "attributes": {
            "JOINTS_0": 61,
            "NORMAL": 1,
            "POSITION": 0,
            "TEXCOORD_0": 2,
            "WEIGHTS_0": 62
          },
          "indices": 3,
          "material": 0,
          "mode": 4
        }
      ]
    },
    {
      "name": "Object_1",
      "primitives": [
        {
          "attributes": {
            "JOINTS_0": 63,
            "NORMAL": 5,
            "POSITION": 4,
            "TEXCOORD_0": 6,
            "WEIGHTS_0": 64
          },
          "indices": 7,
          "material": 1,
          "mode": 4
        }
      ]
    },
    {
      "name": "Object_2",
      "primitives": [
        {
          "attributes": {
            "JOINTS_0": 65,
            "NORMAL": 9,
            "POSITION": 8,
            "TEXCOORD_0": 10,
            "WEIGHTS_0": 66
          },
          "indices": 11,
          "material": 2,
          "mode": 4
        }
      ]
    },
    {
      "name": "Object_3",
      "primitives": [
        {
          "attributes": {
            "JOINTS_0": 67,
            "NORMAL": 13,
            "POSITION": 12,
            "TEXCOORD_0": 14,
            "WEIGHTS_0": 68
          },
          "indices": 15,
          "material": 3,
          "mode": 4
        }
      ]
    },
    {
      "name": "Object_4",
      "primitives": [
        {
          "attributes": {
            "JOINTS_0": 69,
            "NORMAL": 17,
            "POSITION": 16,
            "TEXCOORD_0": 18,
            "WEIGHTS_0": 70
          },
          "indices": 19,
          "material": 4,
          "mode": 4
        }
      ]
    },
    {
      "name": "Object_5",
      "primitives": [
        {
          "attributes": {
            "JOINTS_0": 71,
            "NORMAL": 21,
            "POSITION": 20,
            "TEXCOORD_0": 22,
            "WEIGHTS_0": 72
          },
          "indices": 23,
          "material": 5,
          "mode": 4
        }
      ]
    },
    {
      "name": "Object_6",
      "primitives": [
        {
          "attributes": {
            "JOINTS_0": 73,
            "NORMAL": 25,
            "POSITION": 24,
            "TEXCOORD_0": 26,
            "WEIGHTS_0": 74
          },
          "indices": 27,
          "material": 6,
          "mode": 4
        }
      ]
    },
    {
      "name": "Object_7",
      "primitives": [
        {
          "attributes": {
            "JOINTS_0": 75,
            "NORMAL": 29,
            "POSITION": 28,
            "TEXCOORD_0": 30,
            "WEIGHTS_0": 76
          },
          "indices": 31,
          "material": 3,
          "mode": 4
        }
      ]
    },
    {
      "name": "Object_8",
      "primitives": [
        {
          "attributes": {
            "JOINTS_0": 77,
            "NORMAL": 33,
            "POSITION": 32,
            "TEXCOORD_0": 34,
            "WEIGHTS_0": 78
          },
          "indices": 35,
          "material": 7,
          "mode": 4
        }
      ]
    },
    {
      "name": "Object_9",
      "primitives": [
        {
          "attributes": {
            "JOINTS_0": 79,
            "NORMAL": 37,
            "POSITION": 36,
            "TEXCOORD_0": 38,
            "WEIGHTS_0": 80
          },
          "indices": 39,
          "material": 5,
          "mode": 4
        }
      ]
    },
    {
      "name": "Object_10",
      "primitives": [
        {
          "attributes": {
            "JOINTS_0": 81,
            "NORMAL": 41,
            "POSITION": 40,
            "TEXCOORD_0": 42,
            "WEIGHTS_0": 82
          },
          "indices": 43,
          "material": 6,
          "mode": 4
        }
      ]
    },
    {
      "name": "Object_11",
      "primitives": [
        {
          "attributes": {
            "JOINTS_0": 83,
            "NORMAL": 45,
            "POSITION": 44,
            "TEXCOORD_0": 46,
            "WEIGHTS_0": 84
          },
          "indices": 47,
          "material": 3,
          "mode": 4
        }
      ]
    },
    {
      "name": "Object_12",
      "primitives": [
        {
          "attributes": {
            "JOINTS_0": 85,
            "NORMAL": 49,
            "POSITION": 48,
            "TEXCOORD_0": 50,
            "WEIGHTS_0": 86
          },
          "indices": 51,
          "material": 7,
          "mode": 4
        }
      ]
    },
    {
      "name": "Object_13",
      "primitives": [
        {
          "attributes": {
            "JOINTS_0": 87,
            "NORMAL": 53,
            "POSITION": 52,
            "TEXCOORD_0": 54,
            "WEIGHTS_0": 88
          },
          "indices": 55,
          "material": 8,
          "mode": 4
        }
      ]
    },
    {
      "name": "Object_14",
      "primitives": [
        {
          "attributes": {
            "JOINTS_0": 89,
            "NORMAL": 57,
            "POSITION": 56,
            "TEXCOORD_0": 58,
            "WEIGHTS_0": 90
          },
          "indices": 59,
          "material": 9,
          "mode": 4
        }
      ]
    }
  ],
  "nodes": [
    {
      "children": [
        1
      ],
      "matrix": [
        1.0,
        0.0,
        0.0,
        0.0,
        0.0,
        2.220446049250313e-16,
        -1.0,
        0.0,
        0.0,
        1.0,
        2.220446049250313e-16,
        0.0,
        0.0,
        0.0,
        0.0,
        1.0
      ],
      "name": "Sketchfab_model"
    },
    {
      "children": [
        2
      ],
      "name": "root"
    },
    {
      "children": [
        3
      ],
      "matrix": [
        1.0,
        0.0,
        0.0,
        0.0,
        0.0,
        2.220446049250313e-16,
        1.0,
        0.0,
        0.0,
        -1.0,
        2.220446049250313e-16,
        0.0,
        0.0,
        0.0,
        0.0,
        1.0
      ],
      "name": "GLTF_SceneRootNode"
    },
    {
      "children": [
        4
      ],
      "matrix": [
        -2.7932686452213646,
        0.0,
        -1.634892297806475,
        0.0,
        0.0,
        3.2365410327911377,
        -0.0,
        0.0,
        1.6348931408415692,
        0.0,
        -2.7932700855752635,
        0.0,
        7.520445823669434,
        3.27789306640625,
        -9.610743522644043,
        1.0
      ],
      "name": "Jar Jar Binks_0"
    },
    {
      "children": [
        5,
        7,
        9,
        11,
        13,
        15,
        17,
        19,
        21,
        23,
        25,
        27,
        29,
        31,
        33,
        35,
        6,
        8,
        10,
        12,
        14,
        16,
        18,
        20,
        22,
        24,
        26,
        28,
        30,
        32,
        34
      ],
      "name": "GLTF_created_3"
    },
    {
      "children": [
        36
      ],
      "name": "GLTF_created_3_rootJoint"
    },
    {
      "name": "head_1"
    },
    {
      "mesh": 0,
      "name": "Object_7",
      "skin": 0
    },
    {
      "name": "head_ears_2"
    },
    {
      "mesh": 1,
      "name": "Object_9",
      "skin": 0
    },
    {
      "name": "head_eyes_3"
    },
    {
      "mesh": 2,
      "name": "Object_11",
      "skin": 0
    },
    {
      "name": "hips_4"
    },
    {
      "mesh": 3,
      "name": "Object_13",
      "skin": 0
    },
    {
      "name": "hips_flap_5"
    },
    {
      "mesh": 4,
      "name": "Object_15",
      "skin": 0
    },
    {
      "name": "l_arm_6"
    },
    {
      "mesh": 5,
      "name": "Object_17",
      "skin": 0
    },
    {
      "name": "l_hand_7"
    },
    {
      "mesh": 6,
      "name": "Object_19",
      "skin": 0
    },
    {
      "name": "l_leg_8"
    },
    {
      "mesh": 7,
      "name": "Object_21",
      "skin": 0
    },
    {
      "name": "l_leg_foot_9"
    },
    {
      "mesh": 8,
      "name": "Object_23",
      "skin": 0
    },
    {
      "name": "r_arm_35"
    },
    {
      "mesh": 9,
      "name": "Object_25",
      "skin": 0
    },
    {
      "name": "r_hand_36"
    },
    {
      "mesh": 10,
      "name": "Object_27",
      "skin": 0
    },
    {
      "name": "r_leg_37"
    },
    {
      "mesh": 11,
      "name": "Object_29",
      "skin": 0
    },
    {
      "name": "r_leg_foot_38"
    },
    {
      "mesh": 12,
      "name": "Object_31",
      "skin": 0
    },
    {
      "name": "torso_39"
    },
    {
      "mesh": 13,
      "name": "Object_33",
      "skin": 0
    },
    {
      "name": "torso_vest_40"
    },
    {
      "mesh": 14,
      "name": "Object_35",
      "skin": 0
    },
    {
      "children": [
        37,
        51,
        56
      ],
      "name": "mixamorig:Hips_10",
      "rotation": [
        -0.020459983497858047,
        -0.017607977613806725,
        0.006338207516819239,
        -0.9996155500411987
      ],
      "translation": [
        -0.0011448736768215895,
        0.3794490098953247,
        0.009877913631498814
      ]
    },
    {
      "children": [
        38
      ],
      "name": "mixamorig:Spine_21",
      "rotation": [
        0.0516505129635334,
        -0.0051395343616604805,
        0.006094631273299456,
        -0.9986334443092346
      ],
      "translation": [
        0.0,
        0.0374327078461647,
        -0.0016900872578844428
      ]
    },
    {
      "children": [
        39
      ],
      "name": "mixamorig:Spine1_22",
      "rotation": [
        0.008123946376144886,
        -0.0014608431374654174,
        0.0030651462730020285,
        -0.999961256980896
      ],
      "translation": [
        0.0,
        0.0437159426510334,
        4.440891999238953e-18
      ]
    },
    {
      "children": [
        40,
        44,
        47
      ],
      "name": "mixamorig:Spine2_23",
      "rotation": [
        0.008116446435451508,
        -0.00153535814024508,
        0.003059100592508912,
        -0.9999611973762512
      ],
      "translation": [
        0.0,
        0.04996108263731003,
        0.0
      ]
    },
    {
      "children": [
        41
      ],
      "name": "mixamorig:LeftShoulder_24",
      "rotation": [
        0.5951421856880188,
        -0.41334787011146545,
        -0.546920895576477,
        -0.4193171262741089
      ],
      "translation": [
        -0.021930361166596413,
        0.046303264796733856,
        -0.0004008917312603444
      ]
    },
    {
      "children": [
        42
      ],
      "name": "mixamorig:LeftArm_25",
      "rotation": [
        0.4974644184112549,
        -0.03658425807952881,
        0.0017238856526091695,
        -0.866710901260376
      ],
      "translation": [
        4.440891999238953e-18,
        0.04952368140220642,
        -7.105427198782324e-17
      ]
    },
    {
      "children": [
        43
      ],
      "name": "mixamorig:LeftForeArm_26",
      "rotation": [
        -0.006093107163906097,
        0.006390380673110485,
        0.1596168875694275,
        -0.9871395826339722
      ],
      "translation": [
        0.0,
        0.09757714718580246,
        -7.105427198782324e-17
      ]
    },
    {
      "name": "mixamorig:LeftHand_27",
      "rotation": [
        0.0,
        0.0,
        0.0,
        -1.0
      ],
      "translation": [
        -2.2204459996194763e-18,
        0.08864124119281769,
        7.105427198782324e-17
      ]
    },
    {
      "children": [
        45
      ],
      "name": "mixamorig:Neck_28",
      "rotation": [
        -0.02532273530960083,
        0.00533587159588933,
        -0.0054222638718783855,
        -0.9996504187583923
      ],
      "translation": [
        0.0,
        0.05620622634887695,
        2.001392829242832e-09
      ]
    },
    {
      "children": [
        46
      ],
      "name": "mixamorig:Head_29",
      "rotation": [
        -0.04167117550969124,
        0.03624564781785011,
        -0.04280145838856697,
        -0.9975559711456299
      ],
      "translation": [
        0.0,
        0.062269095331430435,
        0.18200451135635376
      ]
    },
    {
      "matrix": [
        1.0,
        0.0,
        0.0,
        0.0,
        0.0,
        1.0,
        0.0,
        0.0,
        0.0,
        0.0,
        1.0,
        0.0,
        0.0,
        0.06015361472964287,
        0.1758212447166443,
        1.0
      ],
      "name": "mixamorig:HeadTop_End_30"
    },
    {
      "children": [
        48
      ],
      "name": "mixamorig:RightShoulder_31",
      "rotation": [
        0.619049072265625,
        0.39166420698165894,
        0.5303547978401184,
        -0.42673319578170776
      ],
      "translation": [
        0.021930361166596413,
        0.04630742967128754,
        -0.0004931545699946582
      ]
    },
    {
      "children": [
        49
      ],
      "name": "mixamorig:RightArm_32",
      "rotation": [
        0.46281373500823975,
        0.14064325392246246,
        -0.05783707648515701,
        -0.8733142614364624
      ],
      "translation": [
        4.440891999238953e-18,
        0.04952368140220642,
        0.0
      ]
    },
    {
      "children": [
        50
      ],
      "name": "mixamorig:RightForeArm_33",
      "rotation": [
        -0.0061768656596541405,
        -0.006279309745877981,
        -0.15691666305065155,
        -0.9875726103782654
      ],
      "translation": [
        8.881783998477905e-18,
        0.09758289158344269,
        0.0
      ]
    },
    {
      "name": "mixamorig:RightHand_34",
      "rotation": [
        0.0,
        0.0,
        0.0,
        -1.0
      ],
      "translation": [
        -1.1102229998097382e-18,
        0.08863677829504013,
        0.0
      ]
    },
    {
      "children": [
        52
      ],
      "name": "mixamorig:LeftUpLeg_11",
      "rotation": [
        -0.08757105469703674,
        0.039891306310892105,
        -0.9948967099189758,
        -0.03034016489982605
      ],
      "translation": [
        -0.05864273011684418,
        -0.020768698304891586,
        -0.007329088170081377
      ]
    },
    {
      "children": [
        53
      ],
      "name": "mixamorig:LeftLeg_12",
      "rotation": [
        -0.14926420152187347,
        -0.03969820961356163,
        0.07226646691560745,
        -0.9853536486625671
      ],
      "translation": [
        0.0,
        0.15274818241596222,
        0.0
      ]
    },
    {
      "children": [
        54
      ],
      "name": "mixamorig:LeftFoot_13",
      "rotation": [
        0.49523937702178955,
        0.07818862050771713,
        0.07097730785608292,
        -0.862314760684967
      ],
      "translation": [
        1.776356799695581e-17,
        0.1436653435230255,
        2.2204459996194763e-18
      ]
    },
    {
      "children": [
        55
      ],
      "name": "mixamorig:LeftToeBase_14",
      "rotation": [
        0.30044493079185486,
        0.2993091940879822,
        0.10076482594013214,
        -0.899996280670166
      ],
      "translation": [
        0.0,
        0.0472693108022213,
        8.881783998477905e-18
      ]
    },
    {
      "matrix": [
        1.0,
        0.0,
        0.0,
        0.0,
        0.0,
        1.0,
        0.0,
        0.0,
        0.0,
        0.0,
        1.0,
        0.0,
        -1.776356799695581e-17,
        0.024231523275375366,
        8.881783998477905e-18,
        1.0
      ],
      "name": "mixamorig:LeftToe_End_15"
    },
    {
      "children": [
        57
      ],
      "name": "mixamorig:RightUpLeg_16",
      "rotation": [
        0.10128739476203918,
        0.05370158702135086,
        -0.9930120706558228,
        -0.028002150356769562
      ],
      "translation": [
        0.05864273011684418,
        -0.020768698304891586,
        -0.01035574171692133
      ]
    },
    {
      "children": [
        58
      ],
      "name": "mixamorig:RightLeg_17",
      "rotation": [
        -0.20450037717819214,
        0.013225818052887917,
        -0.07603765279054642,
        -0.9758191108703613
      ],
      "translation": [
        1.776356799695581e-17,
        0.15276840329170227,
        0.0
      ]
    },
    {
      "children": [
        59
      ],
      "name": "mixamorig:RightFoot_18",
      "rotation": [
        0.5434011816978455,
        -0.05920379236340523,
        -0.1285598874092102,
        -0.827455461025238
      ],
      "translation": [
        0.0,
        0.14364521205425262,
        2.2204459996194763e-18
      ]
    },
    {
      "children": [
        60
      ],
      "name": "mixamorig:RightToeBase_19",
      "rotation": [
        0.3081759810447693,
        -0.32966217398643494,
        -0.10654103010892868,
        -0.8860019445419312
      ],
      "translation": [
        -1.776356799695581e-17,
        0.04818248003721237,
        0.0
      ]
    },
    {
      "matrix": [
        1.0,
        0.0,
        0.0,
        0.0,
        0.0,
        1.0,
        0.0,
        0.0,
        0.0,
        0.0,
        1.0,
        0.0,
        8.881783998477905e-18,
        0.0234422255307436,
        0.0,
        1.0
      ],
      "name": "mixamorig:RightToe_End_20"
    }
  ],
  "samplers": [
    {
      "magFilter": 9729,
      "minFilter": 9987,
      "wrapS": 10497,
      "wrapT": 10497
    }
  ],
  "scene": 0,
  "scenes": [
    {
      "name": "Sketchfab_Scene",
      "nodes": [
        0
      ]
    }
  ],
  "skins": [
    {
      "inverseBindMatrices": 60,
      "joints": [
        5,
        36,
        37,
        38,
        39,
        40,
        41,
        42,
        43,
        44,
        45,
        47,
        48,
        49,
        50,
        51,
        52,
        53,
        54,
        56,
        57,
        58,
        59
      ],
      "skeleton": 5
    }
  ],
  "textures": [
    {
      "sampler": 0,
      "source": 0
    },
    {
      "sampler": 0,
      "source": 1
    },
    {
      "sampler": 0,
      "source": 2
    },
    {
      "sampler": 0,
      "source": 3
    },
    {
      "sampler": 0,
      "source": 4
    },
    {
      "sampler": 0,
      "source": 5
    },
    {
      "sampler": 0,
      "source": 6
    },
    {
      "sampler": 0,
      "source": 7
    },
    {
      "sampler": 0,
      "source": 8
    },
    {
      "sampler": 0,
      "source": 9
    }
  ]
}
