{
  "accessors": [
    {
      "bufferView": 2,
      "componentType": 5126,
      "count": 3080,
      "max": [
        -192.9096221923828,
        38.68617248535156,
        41.249271392822266
      ],
      "min": [
        -931.7174072265625,
        -180.94581604003906,
        -41.249271392822266
      ],
      "type": "VEC3"
    },
    {
      "bufferView": 2,
      "byteOffset": 36960,
      "componentType": 5126,
      "count": 3080,
      "max": [
        1.0,
        1.0,
        1.0
      ],
      "min": [
        -1.0,
        -1.0,
        -1.0
      ],
      "type": "VEC3"
    },
    {
      "bufferView": 3,
      "componentType": 5126,
      "count": 3080,
      "max": [
        1.0,
        1.0,
        1.0,
        1.0
      ],
      "min": [
        -1.0,
        -1.0,
        -1.0,
        -1.0
      ],
      "type": "VEC4"
    },
    {
      "bufferView": 1,
      "componentType": 5126,
      "count": 3080,
      "max": [
        1.0,
        0.9847158789634705
      ],
      "min": [
        0.0,
        0.0
      ],
      "type": "VEC2"
    },
    {
      "bufferView": 1,
      "byteOffset": 24640,
      "componentType": 5126,
      "count": 3080,
      "max": [
        0.0,
        0.0
      ],
      "min": [
        0.0,
        0.0
      ],
      "type": "VEC2"
    },
    {
      "bufferView": 1,
      "byteOffset": 49280,
      "componentType": 5126,
      "count": 3080,
      "max": [
        1.0,
        0.9847158789634705
      ],
      "min": [
        0.0,
        0.0
      ],
      "type": "VEC2"
    },
    {
      "bufferView": 0,
      "componentType": 5125,
      "count": 12750,
      "type": "SCALAR"
    },
    {
      "bufferView": 2,
      "byteOffset": 73920,
      "componentType": 5126,
      "count": 3024,
      "max": [
        932.4994506835938,
        43.671173095703125,
        59.931556701660156
      ],
      "min": [
        -196.37286376953125,
        -52.46185302734375,
        -22.198694229125977
      ],
      "type": "VEC3"
    },
    {
      "bufferView": 2,
      "byteOffset": 110208,
      "componentType": 5126,
      "count": 3024,
      "max": [
        1.0,
        1.0,
        1.0
      ],
      "min": [
        -1.0,
        -1.0,
        -1.0
      ],
      "type": "VEC3"
    },
    {
      "bufferView": 1,
      "byteOffset": 73920,
      "componentType": 5126,
      "count": 3024,
      "max": [
        0.9958001971244812,
        1.0
      ],
      "min": [
        0.0,
        -2.9802322387695313e-08
      ],
      "type": "VEC2"
    },
    {
      "bufferView": 1,
      "byteOffset": 98112,
      "componentType": 5126,
      "count": 3024,
      "max": [
        0.9958001971244812,
        1.0
      ],
      "min": [
        0.0,
        -2.9802322387695313e-08
      ],
      "type": "VEC2"
    },
    {
      "bufferView": 1,
      "byteOffset": 122304,
      "componentType": 5126,
      "count": 3024,
      "max": [
        0.0,
        0.0
      ],
      "min": [
        0.0,
        0.0
      ],
      "type": "VEC2"
    },
    {
      "bufferView": 0,
      "byteOffset": 51000,
      "componentType": 5125,
      "count": 11886,
      "type": "SCALAR"
    }
  ],
  "asset": {
    "extras": {
      "author": "SyedAfiq (https://sketchfab.com/SyedAfiq)",
      "license": "CC-BY-4.0 (http://creativecommons.org/licenses/by/4.0/)",
      "source": "https://sketchfab.com/3d-models/mandalorian-rifle-amban-phase-pulse-blaster-2e7ffa661a3b4a04995cec2a29e52c97",
      "title": "Mandalorian Rifle - Amban Phase Pulse Blaster"
    },
    "generator": "Sketchfab-16.72.0",
    "version": "2.0"
  },
  "bufferViews": [
    {
      "buffer": 0,
      "byteLength": 98544,
      "name": "floatBufferViews",
      "target": 34963
    },
    {
      "buffer": 0,
      "byteLength": 146496,
      "byteOffset": 98544,
      "byteStride": 8,
      "name": "floatBufferViews",
      "target": 34962
    },
    {
      "buffer": 0,
      "byteLength": 146496,
      "byteOffset": 245040,
      "byteStride": 12,
      "name": "floatBufferViews",
      "target": 34962
    },
    {
      "buffer": 0,
      "byteLength": 49280,
      "byteOffset": 391536,
      "byteStride": 16,
      "name": "floatBufferViews",
      "target": 34962
    }
  ],
  "buffers": [
    {
      "byteLength": 440816,
      "uri": "scene.bin"
    }
  ],
  "images": [
    {
      "uri": "textures/BackGun_baseColor.jpeg"
    },
    {
      "uri": "textures/BackGun_metallicRoughness.png"
    },
    {
      "uri": "textures/BackGun_normal.png"
    },
    {
      "uri": "textures/FrontGun_baseColor.jpeg"
    },
    {
      "uri": "textures/FrontGun_metallicRoughness.png"
    }
  ],
  "materials": [
    {
      "doubleSided": true,
      "name": "BackGun",
      "normalTexture": {
        "index": 2
      },
      "occlusionTexture": {
        "index": 1
      },
      "pbrMetallicRoughness": {
        "baseColorTexture": {
          "index": 0
        },
        "metallicRoughnessTexture": {
          "index": 1
        }
      }
    },
    {
      "doubleSided": true,
      "name": "FrontGun",
      "occlusionTexture": {
        "index": 4
      },
      "pbrMetallicRoughness": {
        "baseColorTexture": {
          "index": 3
        },
        "metallicRoughnessTexture": {
          "index": 4
        }
      }
    }
  ],
  "meshes": [
    {
      "name": "polySurface16_BackGun_0",
      "primitives": [
        {
          "attributes": {
            "NORMAL": 1,
            "POSITION": 0,
            "TANGENT": 2,
            "TEXCOORD_0": 3,
            "TEXCOORD_1": 4,
            "TEXCOORD_2": 5
          },
          "indices": 6,
          "material": 0,
          "mode": 4
        }
      ]
    },
    {
      "name": "polySurface16_FrontGun_0",
      "primitives": [
        {
          "attributes": {
            "NORMAL": 8,
            "POSITION": 7,
            "TEXCOORD_0": 9,
            "TEXCOORD_1": 10,
            "TEXCOORD_2": 11
          },
          "indices": 12,
          "material": 1,
          "mode": 4
        }
      ]
    }
  ],
  "nodes": [
    {
      "children": [
        1
      ],
      "matrix": [
        1.0,
        0.0,
        0.0,
        0.0,
        0.0,
        2.220446049250313e-16,
        -1.0,
        0.0,
        0.0,
        1.0,
        2.220446049250313e-16,
        0.0,
        0.0,
        0.0,
        0.0,
        1.0
      ],
      "name": "Sketchfab_model"
    },
    {
      "children": [
        2
      ],
      "matrix": [
        1.0,
        0.0,
        0.0,
        0.0,
        0.0,
        0.0,
        1.0,
        0.0,
        0.0,
        -1.0,
        0.0,
        0.0,
        0.0,
        0.0,
        0.0,
        1.0
      ],
      "name": "f6d0f4ba66774d9aa3f6e95bc35594ba.fbx"
    },
    {
      "children": [
        3
      ],
      "name": "RootNode"
    },
    {
      "children": [
        4,
        5
      ],
      "name": "polySurface16"
    },
    {
      "mesh": 0,
      "name": "polySurface16_BackGun_0"
    },
    {
      "mesh": 1,
      "name": "polySurface16_FrontGun_0"
    }
  ],
  "samplers": [
    {
      "magFilter": 9729,
      "minFilter": 9987,
      "wrapS": 10497,
      "wrapT": 10497
    }
  ],
  "scene": 0,
  "scenes": [
    {
      "name": "Sketchfab_Scene",
      "nodes": [
        0
      ]
    }
  ],
  "textures": [
    {
      "sampler": 0,
      "source": 0
    },
    {
      "sampler": 0,
      "source": 1
    },
    {
      "sampler": 0,
      "source": 2
    },
    {
      "sampler": 0,
      "source": 3
    },
    {
      "sampler": 0,
      "source": 4
    }
  ]
}
