{
  "accessors": [
    {
      "bufferView": 2,
      "componentType": 5126,
      "count": 9549,
      "max": [
        13.935272216796875,
        6.703657150268555,
        18.60569953918457
      ],
      "min": [
        -13.85910415649414,
        -8.043532371520996,
        0.32009899616241455
      ],
      "type": "VEC3"
    },
    {
      "bufferView": 2,
      "byteOffset": 114588,
      "componentType": 5126,
      "count": 9549,
      "max": [
        1.0,
        1.0,
        1.0
      ],
      "min": [
        -1.0,
        -1.0,
        -1.0
      ],
      "type": "VEC3"
    },
    {
      "bufferView": 3,
      "componentType": 5126,
      "count": 9549,
      "max": [
        1.0,
        1.0,
        0.9999918937683105,
        1.0
      ],
      "min": [
        -1.0,
        -1.0,
        -0.9999997019767761,
        -1.0
      ],
      "type": "VEC4"
    },
    {
      "bufferView": 1,
      "componentType": 5126,
      "count": 9549,
      "max": [
        0.9968219995498657,
        0.9949550032615662
      ],
      "min": [
        0.0030610000248998404,
        0.0066269999369978905
      ],
      "type": "VEC2"
    },
    {
      "bufferView": 0,
      "componentType": 5125,
      "count": 31248,
      "type": "SCALAR"
    },
    {
      "bufferView": 2,
      "byteOffset": 229176,
      "componentType": 5126,
      "count": 13461,
      "max": [
        14.716927528381348,
        0.569208025932312,
        5.504042148590088
      ],
      "min": [
        -19.749279022216797,
        -10.917390823364258,
        -6.0644330978393555
      ],
      "type": "VEC3"
    },
    {
      "bufferView": 2,
      "byteOffset": 390708,
      "componentType": 5126,
      "count": 13461,
      "max": [
        1.0,
        1.0,
        1.0
      ],
      "min": [
        -1.0,
        -1.0,
        -1.0
      ],
      "type": "VEC3"
    },
    {
      "bufferView": 3,
      "byteOffset": 152784,
      "componentType": 5126,
      "count": 13461,
      "max": [
        1.0,
        1.0,
        1.0,
        1.0
      ],
      "min": [
        -1.0,
        -1.0,
        -1.0,
        -1.0
      ],
      "type": "VEC4"
    },
    {
      "bufferView": 1,
      "byteOffset": 76392,
      "componentType": 5126,
      "count": 13461,
      "max": [
        0.9936310052871704,
        0.9979959726333618
      ],
      "min": [
        0.0019180000526830554,
        0.0037140001077204943
      ],
      "type": "VEC2"
    },
    {
      "bufferView": 0,
      "byteOffset": 124992,
      "componentType": 5125,
      "count": 32508,
      "type": "SCALAR"
    }
  ],
  "asset": {
    "extras": {
      "author": "Loïc (https://sketchfab.com/loichuet1)",
      "license": "CC-BY-4.0 (http://creativecommons.org/licenses/by/4.0/)",
      "source": "https://sketchfab.com/3d-models/buzz-droid-star-wars-939daac943324c10b5e245e0580752e3",
      "title": "Buzz Droïd Star Wars"
    },
    "generator": "Sketchfab-12.68.0",
    "version": "2.0"
  },
  "bufferViews": [
    {
      "buffer": 0,
      "byteLength": 255024,
      "name": "floatBufferViews",
      "target": 34963
    },
    {
      "buffer": 0,
      "byteLength": 184080,
      "byteOffset": 255024,
      "byteStride": 8,
      "name": "floatBufferViews",
      "target": 34962
    },
    {
      "buffer": 0,
      "byteLength": 552240,
      "byteOffset": 439104,
      "byteStride": 12,
      "name": "floatBufferViews",
      "target": 34962
    },
    {
      "buffer": 0,
      "byteLength": 368160,
      "byteOffset": 991344,
      "byteStride": 16,
      "name": "floatBufferViews",
      "target": 34962
    }
  ],
  "buffers": [
    {
      "byteLength": 1359504,
      "uri": "scene.bin"
    }
  ],
  "images": [
    {
      "uri": "textures/M_Buzz_UpperBody_baseColor.png"
    },
    {
      "uri": "textures/M_Buzz_UpperBody_metallicRoughness.png"
    },
    {
      "uri": "textures/M_Buzz_UpperBody_emissive.jpeg"
    },
    {
      "uri": "textures/M_Buzz_UpperBody_normal.png"
    },
    {
      "uri": "textures/M_Buzz_LowerBody_baseColor.jpeg"
    },
    {
      "uri": "textures/M_Buzz_LowerBody_metallicRoughness.png"
    },
    {
      "uri": "textures/M_Buzz_LowerBody_normal.png"
    }
  ],
  "materials": [
    {
      "alphaMode": "BLEND",
      "doubleSided": true,
      "emissiveFactor": [
        1.0,
        1.0,
        1.0
      ],
      "emissiveTexture": {
        "index": 2
      },
      "name": "M_Buzz_UpperBody",
      "normalTexture": {
        "index": 3
      },
      "occlusionTexture": {
        "index": 1
      },
      "pbrMetallicRoughness": {
        "baseColorTexture": {
          "index": 0
        },
        "metallicRoughnessTexture": {
          "index": 1
        }
      }
    },
    {
      "doubleSided": true,
      "name": "M_Buzz_LowerBody",
      "normalTexture": {
        "index": 6
      },
      "occlusionTexture": {
        "index": 5
      },
      "pbrMetallicRoughness": {
        "baseColorTexture": {
          "index": 4
        },
        "metallicRoughnessTexture": {
          "index": 5
        }
      }
    }
  ],
  "meshes": [
    {
      "name": "defaultMaterial",
      "primitives": [
        {
          "attributes": {
            "NORMAL": 1,
            "POSITION": 0,
            "TANGENT": 2,
            "TEXCOORD_0": 3
          },
          "indices": 4,
          "material": 0,
          "mode": 4
        }
      ]
    },
    {
      "name": "defaultMaterial",
      "primitives": [
        {
          "attributes": {
            "NORMAL": 6,
            "POSITION": 5,
            "TANGENT": 7,
            "TEXCOORD_0": 8
          },
          "indices": 9,
          "material": 1,
          "mode": 4
        }
      ]
    }
  ],
  "nodes": [
    {
      "children": [
        1
      ],
      "matrix": [
        1.0,
        0.0,
        0.0,
        0.0,
        0.0,
        2.220446049250313e-16,
        -1.0,
        0.0,
        0.0,
        1.0,
        2.220446049250313e-16,
        0.0,
        0.0,
        0.0,
        0.0,
        1.0
      ],
      "name": "Sketchfab_model"
    },
    {
      "children": [
        2
      ],
      "matrix": [
        1.0,
        0.0,
        0.0,
        0.0,
        0.0,
        -4.371139006309477e-08,
        0.999999999999999,
        0.0,
        0.0,
        -0.999999999999999,
        -4.371139006309477e-08,
        0.0,
        0.0,
        0.0,
        0.0,
        1.0
      ],
      "name": "Collada visual scene group"
    },
    {
      "children": [
        3,
        4
      ],
      "matrix": [
        1.0,
        0.0,
        0.0,
        0.0,
        0.0,
        0.0,
        -1.0,
        0.0,
        0.0,
        1.0,
        0.0,
        0.0,
        0.0,
        5.793303,
        -0.971658,
        1.0
      ],
      "name": "Box038"
    },
    {
      "mesh": 0,
      "name": "defaultMaterial"
    },
    {
      "mesh": 1,
      "name": "defaultMaterial"
    }
  ],
  "samplers": [
    {
      "magFilter": 9729,
      "minFilter": 9987,
      "wrapS": 10497,
      "wrapT": 10497
    }
  ],
  "scene": 0,
  "scenes": [
    {
      "name": "Sketchfab_Scene",
      "nodes": [
        0
      ]
    }
  ],
  "textures": [
    {
      "sampler": 0,
      "source": 0
    },
    {
      "sampler": 0,
      "source": 1
    },
    {
      "sampler": 0,
      "source": 2
    },
    {
      "sampler": 0,
      "source": 3
    },
    {
      "sampler": 0,
      "source": 4
    },
    {
      "sampler": 0,
      "source": 5
    },
    {
      "sampler": 0,
      "source": 6
    }
  ]
}
