{
  "accessors": [
    {
      "bufferView": 3,
      "componentType": 5126,
      "count": 14946,
      "max": [
        353.2468566894531,
        514.6258544921875,
        94.71266174316406
      ],
      "min": [
        -400.60211181640625,
        74.34429931640625,
        -94.71417236328125
      ],
      "type": "VEC3"
    },
    {
      "bufferView": 3,
      "byteOffset": 179352,
      "componentType": 5126,
      "count": 14946,
      "max": [
        0.9999728202819824,
        0.9999998807907104,
        0.9999985098838806
      ],
      "min": [
        -0.9999976754188538,
        -1.0,
        -0.9999985098838806
      ],
      "type": "VEC3"
    },
    {
      "bufferView": 2,
      "componentType": 5126,
      "count": 14946,
      "max": [
        0.9894874095916748,
        0.9901053309440613
      ],
      "min": [
        0.014847748912870884,
        0.025093942880630493
      ],
      "type": "VEC2"
    },
    {
      "bufferView": 1,
      "componentType": 5125,
      "count": 88038,
      "type": "SCALAR"
    },
    {
      "bufferView": 5,
      "componentType": 5126,
      "count": 5,
      "max": [
        1.0,
        0.005587943363934755,
        0.0,
        0.0,
        0.003181113861501217,
        1.0,
        0.0,
        0.0,
        0.0,
        0.0,
        1.0,
        0.0,
        6.377031326293945,
        0.0,
        0.0,
        1.0
      ],
      "min": [
        0.028259029611945152,
        -0.003181113861501217,
        0.0,
        0.0,
        -0.005587943363934755,
        0.028259029611945152,
        0.0,
        0.0,
        0.0,
        0.0,
        0.028806211426854134,
        0.0,
        -10.140229225158691,
        -6.021895408630371,
        0.0,
        1.0
      ],
      "type": "MAT4"
    },
    {
      "bufferView": 0,
      "componentType": 5123,
      "count": 14946,
      "type": "VEC4"
    },
    {
      "bufferView": 4,
      "componentType": 5126,
      "count": 14946,
      "max": [
        1.0,
        0.5,
        0.0,
        0.0
      ],
      "min": [
        0.5,
        0.0,
        0.0,
        0.0
      ],
      "type": "VEC4"
    },
    {
      "bufferView": 6,
      "componentType": 5126,
      "count": 1170,
      "max": [
        25.0
      ],
      "min": [
        0.0
      ],
      "type": "SCALAR"
    },
    {
      "bufferView": 7,
      "componentType": 5126,
      "count": 1170,
      "max": [
        5.328765869140625,
        7.105427357601002e-15,
        5.684341886080802e-14
      ],
      "min": [
        5.328765869140625,
        -1.4210854715202004e-14,
        -2.842170943040401e-14
      ],
      "type": "VEC3"
    },
    {
      "bufferView": 6,
      "byteOffset": 4680,
      "componentType": 5126,
      "count": 1201,
      "max": [
        25.0
      ],
      "min": [
        0.0
      ],
      "type": "SCALAR"
    },
    {
      "bufferView": 8,
      "componentType": 5126,
      "count": 1201,
      "max": [
        0.02568693645298481,
        0.2807428240776062,
        0.09745589643716812,
        0.9952398538589478
      ],
      "min": [
        -0.027490904554724693,
        -0.262320339679718,
        0.09349813312292099,
        0.9548224210739136
      ],
      "type": "VEC4"
    },
    {
      "bufferView": 6,
      "byteOffset": 9484,
      "componentType": 5126,
      "count": 1167,
      "max": [
        25.0
      ],
      "min": [
        0.0
      ],
      "type": "SCALAR"
    },
    {
      "bufferView": 7,
      "byteOffset": 14040,
      "componentType": 5126,
      "count": 1167,
      "max": [
        4.813975811004639,
        7.105427357601002e-15,
        2.842170943040401e-14
      ],
      "min": [
        4.813975811004639,
        -7.105427357601002e-15,
        -2.842170943040401e-14
      ],
      "type": "VEC3"
    },
    {
      "bufferView": 6,
      "byteOffset": 14152,
      "componentType": 5126,
      "count": 1201,
      "max": [
        25.0
      ],
      "min": [
        0.0
      ],
      "type": "SCALAR"
    },
    {
      "bufferView": 8,
      "byteOffset": 19216,
      "componentType": 5126,
      "count": 1201,
      "max": [
        0.04297402501106262,
        0.27879297733306885,
        -0.14615711569786072,
        0.9883275628089905
      ],
      "min": [
        -0.04015404358506203,
        -0.26049840450286865,
        -0.15234391391277313,
        0.9481908082962036
      ],
      "type": "VEC4"
    },
    {
      "bufferView": 6,
      "byteOffset": 18956,
      "componentType": 5126,
      "count": 1,
      "max": [
        0.0
      ],
      "min": [
        0.0
      ],
      "type": "SCALAR"
    },
    {
      "bufferView": 7,
      "byteOffset": 28044,
      "componentType": 5126,
      "count": 1,
      "max": [
        1.3857687711715698,
        1.0,
        1.0
      ],
      "min": [
        1.3857687711715698,
        1.0,
        1.0
      ],
      "type": "VEC3"
    },
    {
      "bufferView": 6,
      "byteOffset": 18960,
      "componentType": 5126,
      "count": 1148,
      "max": [
        25.0
      ],
      "min": [
        0.0
      ],
      "type": "SCALAR"
    },
    {
      "bufferView": 7,
      "byteOffset": 28056,
      "componentType": 5126,
      "count": 1148,
      "max": [
        6.241775035858154,
        -7.105427357601002e-15,
        2.842170943040401e-14
      ],
      "min": [
        6.241775035858154,
        -1.5987211554602254e-14,
        -2.842170943040401e-14
      ],
      "type": "VEC3"
    },
    {
      "bufferView": 6,
      "byteOffset": 23552,
      "componentType": 5126,
      "count": 1201,
      "max": [
        25.0
      ],
      "min": [
        0.0
      ],
      "type": "SCALAR"
    },
    {
      "bufferView": 8,
      "byteOffset": 38432,
      "componentType": 5126,
      "count": 1201,
      "max": [
        0.022044414654374123,
        0.28109729290008545,
        0.08363621681928635,
        0.9964963793754578
      ],
      "min": [
        -0.023592572659254074,
        -0.2626515030860901,
        0.0802396833896637,
        0.9560278654098511
      ],
      "type": "VEC4"
    },
    {
      "bufferView": 6,
      "byteOffset": 28356,
      "componentType": 5126,
      "count": 1201,
      "max": [
        25.0
      ],
      "min": [
        0.0
      ],
      "type": "SCALAR"
    },
    {
      "bufferView": 7,
      "byteOffset": 41832,
      "componentType": 5126,
      "count": 1201,
      "max": [
        44.89790725708008,
        16.429203033447266,
        150.4989471435547
      ],
      "min": [
        -99.29792022705078,
        -2.2060015201568604,
        -16.824941635131836
      ],
      "type": "VEC3"
    },
    {
      "bufferView": 6,
      "byteOffset": 33160,
      "componentType": 5126,
      "count": 1201,
      "max": [
        25.0
      ],
      "min": [
        0.0
      ],
      "type": "SCALAR"
    },
    {
      "bufferView": 8,
      "byteOffset": 57648,
      "componentType": 5126,
      "count": 1201,
      "max": [
        0.02840111032128334,
        0.9995793700218201,
        0.013981159776449203,
        0.9995965957641602
      ],
      "min": [
        -0.024592231959104538,
        -0.8655256032943726,
        -0.028401600196957588,
        -0.4920680522918701
      ],
      "type": "VEC4"
    }
  ],
  "animations": [
    {
      "channels": [
        {
          "sampler": 0,
          "target": {
            "node": 12,
            "path": "translation"
          }
        },
        {
          "sampler": 1,
          "target": {
            "node": 12,
            "path": "rotation"
          }
        },
        {
          "sampler": 2,
          "target": {
            "node": 10,
            "path": "translation"
          }
        },
        {
          "sampler": 3,
          "target": {
            "node": 11,
            "path": "rotation"
          }
        },
        {
          "sampler": 4,
          "target": {
            "node": 10,
            "path": "scale"
          }
        },
        {
          "sampler": 5,
          "target": {
            "node": 9,
            "path": "translation"
          }
        },
        {
          "sampler": 6,
          "target": {
            "node": 9,
            "path": "rotation"
          }
        },
        {
          "sampler": 7,
          "target": {
            "node": 8,
            "path": "translation"
          }
        },
        {
          "sampler": 8,
          "target": {
            "node": 8,
            "path": "rotation"
          }
        }
      ],
      "name": "Take 001",
      "samplers": [
        {
          "input": 7,
          "interpolation": "LINEAR",
          "output": 8
        },
        {
          "input": 9,
          "interpolation": "LINEAR",
          "output": 10
        },
        {
          "input": 11,
          "interpolation": "LINEAR",
          "output": 12
        },
        {
          "input": 13,
          "interpolation": "LINEAR",
          "output": 14
        },
        {
          "input": 15,
          "interpolation": "LINEAR",
          "output": 16
        },
        {
          "input": 17,
          "interpolation": "LINEAR",
          "output": 18
        },
        {
          "input": 19,
          "interpolation": "LINEAR",
          "output": 20
        },
        {
          "input": 21,
          "interpolation": "LINEAR",
          "output": 22
        },
        {
          "input": 23,
          "interpolation": "LINEAR",
          "output": 24
        }
      ]
    }
  ],
  "asset": {
    "extras": {
      "author": "Emil van Dam (https://sketchfab.com/emilvandam62)",
      "license": "CC-BY-4.0 (http://creativecommons.org/licenses/by/4.0/)",
      "source": "https://sketchfab.com/3d-models/ammonite-6f835b20078e4d7fbfa42d1dfe6797ba",
      "title": "Ammonite"
    },
    "generator": "Sketchfab-16.35.0",
    "version": "2.0"
  },
  "bufferViews": [
    {
      "buffer": 0,
      "byteLength": 119568,
      "byteStride": 8,
      "name": "shortBufferViews",
      "target": 34962
    },
    {
      "buffer": 0,
      "byteLength": 352152,
      "byteOffset": 119568,
      "name": "floatBufferViews",
      "target": 34963
    },
    {
      "buffer": 0,
      "byteLength": 119568,
      "byteOffset": 471720,
      "byteStride": 8,
      "name": "floatBufferViews",
      "target": 34962
    },
    {
      "buffer": 0,
      "byteLength": 358704,
      "byteOffset": 591288,
      "byteStride": 12,
      "name": "floatBufferViews",
      "target": 34962
    },
    {
      "buffer": 0,
      "byteLength": 239136,
      "byteOffset": 949992,
      "byteStride": 16,
      "name": "floatBufferViews",
      "target": 34962
    },
    {
      "buffer": 0,
      "byteLength": 320,
      "byteOffset": 1189128,
      "name": "floatBufferViews"
    },
    {
      "buffer": 0,
      "byteLength": 37964,
      "byteOffset": 1189448,
      "name": "floatBufferViews"
    },
    {
      "buffer": 0,
      "byteLength": 56244,
      "byteOffset": 1227412,
      "byteStride": 12,
      "name": "floatBufferViews"
    },
    {
      "buffer": 0,
      "byteLength": 76864,
      "byteOffset": 1283656,
      "byteStride": 16,
      "name": "floatBufferViews"
    }
  ],
  "buffers": [
    {
      "byteLength": 1360520,
      "uri": "scene.bin"
    }
  ],
  "extensionsRequired": [
    "KHR_materials_pbrSpecularGlossiness"
  ],
  "extensionsUsed": [
    "KHR_materials_pbrSpecularGlossiness"
  ],
  "images": [
    {
      "uri": "textures/ammonite_diffuse.png"
    },
    {
      "uri": "textures/ammonite_specularGlossiness.png"
    },
    {
      "uri": "textures/ammonite_occlusion.png"
    }
  ],
  "materials": [
    {
      "doubleSided": true,
      "extensions": {
        "KHR_materials_pbrSpecularGlossiness": {
          "diffuseFactor": [
            1.0,
            1.0,
            1.0,
            1.0
          ],
          "diffuseTexture": {
            "index": 0
          },
          "glossinessFactor": 1.0,
          "specularFactor": [
            1.0,
            1.0,
            1.0
          ],
          "specularGlossinessTexture": {
            "index": 1
          }
        }
      },
      "name": "ammonite",
      "occlusionTexture": {
        "index": 2
      }
    }
  ],
  "meshes": [
    {
      "name": "shield1_ammonite_0",
      "primitives": [
        {
          "attributes": {
            "JOINTS_0": 5,
            "NORMAL": 1,
            "POSITION": 0,
            "TEXCOORD_0": 2,
            "TEXCOORD_1": 2,
            "WEIGHTS_0": 6
          },
          "indices": 3,
          "material": 0,
          "mode": 4
        }
      ]
    }
  ],
  "nodes": [
    {
      "children": [
        1
      ],
      "matrix": [
        1.0,
        0.0,
        0.0,
        0.0,
        0.0,
        2.220446049250313e-16,
        -1.0,
        0.0,
        0.0,
        1.0,
        2.220446049250313e-16,
        0.0,
        0.0,
        0.0,
        0.0,
        1.0
      ],
      "name": "Sketchfab_model"
    },
    {
      "children": [
        2
      ],
      "matrix": [
        0.009999999776482582,
        0.0,
        0.0,
        0.0,
        0.0,
        0.0,
        0.009999999776482582,
        0.0,
        0.0,
        -0.009999999776482582,
        0.0,
        0.0,
        0.0,
        0.0,
        0.0,
        1.0
      ],
      "name": "ac9ec47cc16444b3b86aeb5def48364e.fbx"
    },
    {
      "children": [
        3
      ],
      "name": "Object_2"
    },
    {
      "children": [
        4
      ],
      "name": "RootNode"
    },
    {
      "children": [
        5,
        7,
        6,
        13,
        15,
        17,
        19,
        21,
        23
      ],
      "name": "Object_4"
    },
    {
      "children": [
        8
      ],
      "name": "_rootJoint"
    },
    {
      "matrix": [
        0.02880621085363139,
        0.0,
        0.0,
        0.0,
        0.0,
        0.02880621085363139,
        0.0,
        0.0,
        0.0,
        0.0,
        0.02880621085363139,
        0.0,
        -4.72764617593062,
        10.118503463763517,
        -2.1296991553280652e-05,
        1.0
      ],
      "name": "Object_6"
    },
    {
      "mesh": 0,
      "name": "Object_7",
      "skin": 0
    },
    {
      "children": [
        9
      ],
      "name": "body3_00",
      "rotation": [
        0.0,
        -0.0,
        -0.028401600196957588,
        0.9995965957641602
      ],
      "translation": [
        -6.10355281829834,
        4.989858150482178,
        0.0
      ]
    },
    {
      "children": [
        10
      ],
      "name": "tentacles1_01",
      "rotation": [
        0.0,
        0.0,
        0.08363621681928635,
        0.9964963793754578
      ],
      "scale": [
        0.7216210961341858,
        1.0,
        1.0
      ],
      "translation": [
        6.241775035858154,
        -1.1546319456101628e-14,
        0.0
      ]
    },
    {
      "children": [
        11
      ],
      "extras": {
        "scaleCompensation": "scaleCompensation"
      },
      "name": "tentacles2_02_scaleCompensation",
      "scale": [
        1.3857687711715698,
        1.0,
        1.0
      ],
      "translation": [
        4.813975811004639,
        8.881784197001252e-16,
        0.0
      ]
    },
    {
      "children": [
        12
      ],
      "name": "tentacles2_02",
      "rotation": [
        0.0,
        -0.0,
        -0.15234391391277313,
        0.9883275628089905
      ]
    },
    {
      "name": "tentacles3_03",
      "rotation": [
        0.0,
        0.0,
        0.09745589643716812,
        0.9952398538589478
      ],
      "translation": [
        5.328765869140625,
        -1.7763568394002505e-15,
        0.0
      ]
    },
    {
      "children": [
        14
      ],
      "name": "shell",
      "rotation": [
        -0.7071068286895752,
        0.0,
        0.0,
        0.7071067094802856
      ],
      "scale": [
        100.0,
        100.0,
        100.0
      ]
    },
    {
      "name": "transform2",
      "rotation": [
        -1.3234889800848443e-23,
        -0.0,
        0.0,
        1.0
      ]
    },
    {
      "children": [
        16
      ],
      "name": "shield",
      "rotation": [
        -0.7071068286895752,
        0.0,
        0.0,
        0.7071067094802856
      ],
      "scale": [
        81.52896881103516,
        81.52896881103516,
        81.52896881103516
      ],
      "translation": [
        59.87977981567383,
        -154.7784881591797,
        0.0
      ]
    },
    {
      "name": "transform5"
    },
    {
      "children": [
        18
      ],
      "name": "body",
      "rotation": [
        -0.7071068286895752,
        0.0,
        0.0,
        0.7071067094802856
      ],
      "scale": [
        100.0,
        100.0,
        100.0
      ],
      "translation": [
        62.64418411254883,
        -191.79525756835938,
        0.0
      ]
    },
    {
      "name": "transform3",
      "rotation": [
        -1.3234889800848443e-23,
        -0.0,
        0.0,
        1.0
      ]
    },
    {
      "children": [
        20
      ],
      "name": "body2",
      "rotation": [
        -0.7071068286895752,
        0.0,
        0.0,
        0.7071067094802856
      ],
      "scale": [
        62.48516845703125,
        96.38866424560547,
        89.9175033569336
      ],
      "translation": [
        83.21680450439453,
        -199.39129638671875,
        0.0
      ]
    },
    {
      "name": "transform4",
      "rotation": [
        1.3234889800848443e-23,
        0.0,
        0.0,
        1.0
      ]
    },
    {
      "children": [
        22
      ],
      "name": "tentacles",
      "rotation": [
        -0.7071068286895752,
        0.0,
        0.0,
        0.7071067094802856
      ],
      "scale": [
        100.0,
        100.0,
        100.0
      ],
      "translation": [
        97.93685913085938,
        -179.91644287109375,
        0.0
      ]
    },
    {
      "name": "transform1",
      "rotation": [
        -1.3234889800848443e-23,
        -0.0,
        0.0,
        1.0
      ]
    },
    {
      "name": "shield1",
      "scale": [
        0.028806211426854134,
        0.028806211426854134,
        0.028806211426854134
      ],
      "translation": [
        -4.727646350860596,
        10.11850357055664,
        -2.1296991690178402e-05
      ]
    }
  ],
  "samplers": [
    {
      "magFilter": 9729,
      "minFilter": 9987,
      "wrapS": 10497,
      "wrapT": 10497
    }
  ],
  "scene": 0,
  "scenes": [
    {
      "name": "Sketchfab_Scene",
      "nodes": [
        0
      ]
    }
  ],
  "skins": [
    {
      "inverseBindMatrices": 4,
      "joints": [
        5,
        8,
        9,
        11,
        12
      ],
      "skeleton": 5
    }
  ],
  "textures": [
    {
      "sampler": 0,
      "source": 0
    },
    {
      "sampler": 0,
      "source": 1
    },
    {
      "sampler": 0,
      "source": 2
    }
  ]
}
