{
  "accessors": [
    {
      "bufferView": 2,
      "componentType": 5126,
      "count": 9878,
      "max": [
        317.7462158203125,
        134.4942626953125,
        38.6240234375
      ],
      "min": [
        -317.7462158203125,
        -131.12481689453125,
        -91.42388916015625
      ],
      "type": "VEC3"
    },
    {
      "bufferView": 2,
      "byteOffset": 118536,
      "componentType": 5126,
      "count": 9878,
      "max": [
        1.0,
        1.0,
        1.0
      ],
      "min": [
        -1.0,
        -1.0,
        -1.0
      ],
      "type": "VEC3"
    },
    {
      "bufferView": 3,
      "componentType": 5126,
      "count": 9878,
      "max": [
        1.0,
        1.0,
        0.991136372089386,
        1.0
      ],
      "min": [
        -1.0,
        -1.0,
        -0.9911918044090271,
        1.0
      ],
      "type": "VEC4"
    },
    {
      "bufferView": 1,
      "componentType": 5126,
      "count": 9878,
      "max": [
        0.9969630241394043,
        0.9969670176506042
      ],
      "min": [
        0.0007570000016130507,
        0.0007570000016130507
      ],
      "type": "VEC2"
    },
    {
      "bufferView": 1,
      "byteOffset": 79024,
      "componentType": 5126,
      "count": 9878,
      "max": [
        0.9969630241394043,
        0.9969670176506042
      ],
      "min": [
        0.0007570000016130507,
        0.0007570000016130507
      ],
      "type": "VEC2"
    },
    {
      "bufferView": 1,
      "byteOffset": 158048,
      "componentType": 5126,
      "count": 9878,
      "max": [
        0.9969630241394043,
        0.9969670176506042
      ],
      "min": [
        0.0007570000016130507,
        0.0007570000016130507
      ],
      "type": "VEC2"
    },
    {
      "bufferView": 0,
      "componentType": 5125,
      "count": 28035,
      "type": "SCALAR"
    }
  ],
  "asset": {
    "extras": {
      "author": "Polyperkon (https://sketchfab.com/polyperkon)",
      "license": "CC-BY-4.0 (http://creativecommons.org/licenses/by/4.0/)",
      "source": "https://sketchfab.com/3d-models/star-wars-e-11-blaster-6b71af2912e34674bbd264ee676faa0d",
      "title": "Star Wars E-11 Blaster"
    },
    "generator": "Sketchfab-12.67.0",
    "version": "2.0"
  },
  "bufferViews": [
    {
      "buffer": 0,
      "byteLength": 112140,
      "name": "floatBufferViews",
      "target": 34963
    },
    {
      "buffer": 0,
      "byteLength": 237072,
      "byteOffset": 112140,
      "byteStride": 8,
      "name": "floatBufferViews",
      "target": 34962
    },
    {
      "buffer": 0,
      "byteLength": 237072,
      "byteOffset": 349212,
      "byteStride": 12,
      "name": "floatBufferViews",
      "target": 34962
    },
    {
      "buffer": 0,
      "byteLength": 158048,
      "byteOffset": 586284,
      "byteStride": 16,
      "name": "floatBufferViews",
      "target": 34962
    }
  ],
  "buffers": [
    {
      "byteLength": 744332,
      "uri": "scene.bin"
    }
  ],
  "extensionsRequired": [
    "KHR_materials_pbrSpecularGlossiness"
  ],
  "extensionsUsed": [
    "KHR_materials_pbrSpecularGlossiness"
  ],
  "images": [
    {
      "uri": "textures/phong2_diffuse.png"
    },
    {
      "uri": "textures/phong2_specularGlossiness.png"
    },
    {
      "uri": "textures/phong2_normal.png"
    }
  ],
  "materials": [
    {
      "doubleSided": true,
      "extensions": {
        "KHR_materials_pbrSpecularGlossiness": {
          "diffuseFactor": [
            1.0,
            1.0,
            1.0,
            1.0
          ],
          "diffuseTexture": {
            "index": 0
          },
          "glossinessFactor": 0.6,
          "specularFactor": [
            1.0,
            1.0,
            1.0
          ],
          "specularGlossinessTexture": {
            "index": 1
          }
        }
      },
      "name": "phong2",
      "normalTexture": {
        "index": 2
      }
    }
  ],
  "meshes": [
    {
      "name": "polySurface2908_phong2_0",
      "primitives": [
        {
          "attributes": {
            "NORMAL": 1,
            "POSITION": 0,
            "TANGENT": 2,
            "TEXCOORD_0": 3,
            "TEXCOORD_1": 4,
            "TEXCOORD_2": 5
          },
          "indices": 6,
          "material": 0,
          "mode": 4
        }
      ]
    }
  ],
  "nodes": [
    {
      "children": [
        1
      ],
      "matrix": [
        1.0,
        0.0,
        0.0,
        0.0,
        0.0,
        -5.053215392444312e-16,
        1.0,
        0.0,
        0.0,
        -1.0,
        -5.053215392444312e-16,
        0.0,
        0.0,
        -24.715354919433587,
        -28.08448028564454,
        1.0
      ],
      "name": "Sketchfab_model"
    },
    {
      "children": [
        2
      ],
      "matrix": [
        1.0,
        0.0,
        0.0,
        0.0,
        0.0,
        0.0,
        1.0,
        0.0,
        0.0,
        -1.0,
        0.0,
        0.0,
        0.0,
        0.0,
        0.0,
        1.0
      ],
      "name": "ba3600788d0e4ac99608ddf6420d1b2e.fbx"
    },
    {
      "children": [
        3
      ],
      "name": "RootNode"
    },
    {
      "children": [
        4
      ],
      "name": "polySurface2908"
    },
    {
      "mesh": 0,
      "name": "polySurface2908_phong2_0"
    }
  ],
  "samplers": [
    {
      "magFilter": 9729,
      "minFilter": 9987,
      "wrapS": 10497,
      "wrapT": 10497
    }
  ],
  "scene": 0,
  "scenes": [
    {
      "name": "Sketchfab_Scene",
      "nodes": [
        0
      ]
    }
  ],
  "textures": [
    {
      "sampler": 0,
      "source": 0
    },
    {
      "sampler": 0,
      "source": 1
    },
    {
      "sampler": 0,
      "source": 2
    }
  ]
}
