{
  "accessors": [
    {
      "bufferView": 2,
      "componentType": 5126,
      "count": 12090,
      "max": [
        1.8917934894561768,
        4.100712299346924,
        1.6175612211227417
      ],
      "min": [
        -1.8917934894561768,
        -4.006948471069336,
        -1.214432716369629
      ],
      "type": "VEC3"
    },
    {
      "bufferView": 2,
      "byteOffset": 145080,
      "componentType": 5126,
      "count": 12090,
      "max": [
        1.0,
        1.0,
        1.0
      ],
      "min": [
        -1.0,
        -1.0,
        -1.0
      ],
      "type": "VEC3"
    },
    {
      "bufferView": 3,
      "componentType": 5126,
      "count": 12090,
      "max": [
        1.0,
        1.0,
        1.0,
        1.0
      ],
      "min": [
        -1.0,
        -1.0,
        -1.0,
        -1.0
      ],
      "type": "VEC4"
    },
    {
      "bufferView": 1,
      "componentType": 5126,
      "count": 12090,
      "max": [
        0.9985159635543823,
        0.9961183667182922
      ],
      "min": [
        0.0014804244274273515,
        0.0014811345608904958
      ],
      "type": "VEC2"
    },
    {
      "bufferView": 1,
      "byteOffset": 96720,
      "componentType": 5126,
      "count": 12090,
      "max": [
        0.9985159635543823,
        0.9961183667182922
      ],
      "min": [
        0.0014804244274273515,
        0.0014811345608904958
      ],
      "type": "VEC2"
    },
    {
      "bufferView": 1,
      "byteOffset": 193440,
      "componentType": 5126,
      "count": 12090,
      "max": [
        0.9985159635543823,
        0.9961183667182922
      ],
      "min": [
        0.0014804244274273515,
        0.0014811345608904958
      ],
      "type": "VEC2"
    },
    {
      "bufferView": 1,
      "byteOffset": 290160,
      "componentType": 5126,
      "count": 12090,
      "max": [
        0.9985159635543823,
        0.9961183667182922
      ],
      "min": [
        0.0014804244274273515,
        0.0014811345608904958
      ],
      "type": "VEC2"
    },
    {
      "bufferView": 0,
      "componentType": 5125,
      "count": 35382,
      "type": "SCALAR"
    }
  ],
  "asset": {
    "extras": {
      "author": "ToLoss (https://sketchfab.com/lossgraph)",
      "license": "CC-BY-SA-4.0 (http://creativecommons.org/licenses/by-sa/4.0/)",
      "source": "https://sketchfab.com/3d-models/star-wars-empire-troop-transport-andor-a33a4d5fceb74b929dbabb3cb5506b29",
      "title": "Star Wars Empire Troop Transport | Andor"
    },
    "generator": "Sketchfab-16.72.0",
    "version": "2.0"
  },
  "bufferViews": [
    {
      "buffer": 0,
      "byteLength": 141528,
      "name": "floatBufferViews",
      "target": 34963
    },
    {
      "buffer": 0,
      "byteLength": 386880,
      "byteOffset": 141528,
      "byteStride": 8,
      "name": "floatBufferViews",
      "target": 34962
    },
    {
      "buffer": 0,
      "byteLength": 290160,
      "byteOffset": 528408,
      "byteStride": 12,
      "name": "floatBufferViews",
      "target": 34962
    },
    {
      "buffer": 0,
      "byteLength": 193440,
      "byteOffset": 818568,
      "byteStride": 16,
      "name": "floatBufferViews",
      "target": 34962
    }
  ],
  "buffers": [
    {
      "byteLength": 1012008,
      "uri": "scene.bin"
    }
  ],
  "images": [
    {
      "uri": "textures/SdKfz_baseColor.png"
    },
    {
      "uri": "textures/SdKfz_metallicRoughness.png"
    },
    {
      "uri": "textures/SdKfz_emissive.png"
    },
    {
      "uri": "textures/SdKfz_normal.png"
    }
  ],
  "materials": [
    {
      "doubleSided": true,
      "emissiveFactor": [
        1.0,
        1.0,
        1.0
      ],
      "emissiveTexture": {
        "index": 2
      },
      "name": "SdKfz",
      "normalTexture": {
        "index": 3
      },
      "occlusionTexture": {
        "index": 1
      },
      "pbrMetallicRoughness": {
        "baseColorTexture": {
          "index": 0
        },
        "metallicRoughnessTexture": {
          "index": 1
        }
      }
    }
  ],
  "meshes": [
    {
      "name": "StarWarsSdKfz_SdKfz_0",
      "primitives": [
        {
          "attributes": {
            "NORMAL": 1,
            "POSITION": 0,
            "TANGENT": 2,
            "TEXCOORD_0": 3,
            "TEXCOORD_1": 4,
            "TEXCOORD_2": 5,
            "TEXCOORD_3": 6
          },
          "indices": 7,
          "material": 0,
          "mode": 4
        }
      ]
    }
  ],
  "nodes": [
    {
      "children": [
        1
      ],
      "matrix": [
        1.0,
        0.0,
        0.0,
        0.0,
        0.0,
        2.220446049250313e-16,
        -1.0,
        0.0,
        0.0,
        1.0,
        2.220446049250313e-16,
        0.0,
        0.0,
        0.0,
        0.0,
        1.0
      ],
      "name": "Sketchfab_model"
    },
    {
      "children": [
        2
      ],
      "matrix": [
        0.009999999776482582,
        0.0,
        0.0,
        0.0,
        0.0,
        0.0,
        0.009999999776482582,
        0.0,
        0.0,
        -0.009999999776482582,
        0.0,
        0.0,
        0.0,
        0.0,
        0.0,
        1.0
      ],
      "name": "fe558fb2efcf48aa901731dbcb2a936a.fbx"
    },
    {
      "children": [
        3
      ],
      "name": "RootNode"
    },
    {
      "children": [
        4
      ],
      "matrix": [
        100.0,
        0.0,
        0.0,
        0.0,
        0.0,
        -1.629206793918314e-05,
        -99.99999999999868,
        0.0,
        0.0,
        99.99999999999868,
        -1.629206793918314e-05,
        0.0,
        0.0,
        0.0,
        0.0,
        1.0
      ],
      "name": "StarWarsSdKfz"
    },
    {
      "mesh": 0,
      "name": "StarWarsSdKfz_SdKfz_0"
    }
  ],
  "samplers": [
    {
      "magFilter": 9729,
      "minFilter": 9987,
      "wrapS": 10497,
      "wrapT": 10497
    }
  ],
  "scene": 0,
  "scenes": [
    {
      "name": "Sketchfab_Scene",
      "nodes": [
        0
      ]
    }
  ],
  "textures": [
    {
      "sampler": 0,
      "source": 0
    },
    {
      "sampler": 0,
      "source": 1
    },
    {
      "sampler": 0,
      "source": 2
    },
    {
      "sampler": 0,
      "source": 3
    }
  ]
}
