{
  "accessors": [
    {
      "bufferView": 2,
      "componentType": 5126,
      "count": 102,
      "max": [
        917.7147827148438,
        249.21676635742188,
        1775.3740234375
      ],
      "min": [
        677.0104370117188,
        126.37055969238281,
        1751.951416015625
      ],
      "type": "VEC3"
    },
    {
      "bufferView": 2,
      "byteOffset": 1224,
      "componentType": 5126,
      "count": 102,
      "max": [
        0.9808565974235535,
        -0.059376709163188934,
        -0.0066698286682367325
      ],
      "min": [
        -0.9980952143669128,
        -0.9999334216117859,
        -0.978787362575531
      ],
      "type": "VEC3"
    },
    {
      "bufferView": 3,
      "componentType": 5126,
      "count": 102,
      "max": [
        0.9994788765907288,
        0.9855815172195435,
        0.15034611523151398,
        -1.0
      ],
      "min": [
        0.0561971440911293,
        -0.9895022511482239,
        -0.11070369929075241,
        -1.0
      ],
      "type": "VEC4"
    },
    {
      "bufferView": 1,
      "componentType": 5126,
      "count": 102,
      "max": [
        0.6797189712524414,
        1.5040520429611206
      ],
      "min": [
        0.33426299691200256,
        1.4686919450759888
      ],
      "type": "VEC2"
    },
    {
      "bufferView": 0,
      "componentType": 5125,
      "count": 294,
      "type": "SCALAR"
    },
    {
      "bufferView": 2,
      "byteOffset": 2448,
      "componentType": 5126,
      "count": 289,
      "max": [
        1015.133056640625,
        390.0861511230469,
        613.2069702148438
      ],
      "min": [
        857.656494140625,
        194.53506469726563,
        335.9391174316406
      ],
      "type": "VEC3"
    },
    {
      "bufferView": 2,
      "byteOffset": 5916,
      "componentType": 5126,
      "count": 289,
      "max": [
        0.9998827576637268,
        0.9968973994255066,
        0.3432215750217438
      ],
      "min": [
        -0.9989190101623535,
        -0.9979385137557983,
        -0.4527757465839386
      ],
      "type": "VEC3"
    },
    {
      "bufferView": 3,
      "byteOffset": 1632,
      "componentType": 5126,
      "count": 289,
      "max": [
        0.5654416680335999,
        0.9703599810600281,
        0.9942074418067932,
        1.0
      ],
      "min": [
        -0.9939292073249817,
        -0.9807980060577393,
        -0.9990972876548767,
        1.0
      ],
      "type": "VEC4"
    },
    {
      "bufferView": 1,
      "byteOffset": 816,
      "componentType": 5126,
      "count": 289,
      "max": [
        0.9875109791755676,
        2.0
      ],
      "min": [
        0.0,
        1.0023349523544312
      ],
      "type": "VEC2"
    },
    {
      "bufferView": 0,
      "byteOffset": 1176,
      "componentType": 5125,
      "count": 1152,
      "type": "SCALAR"
    },
    {
      "bufferView": 2,
      "byteOffset": 9384,
      "componentType": 5126,
      "count": 1437,
      "max": [
        947.357421875,
        489.5328674316406,
        1135.5426025390625
      ],
      "min": [
        660.9512329101563,
        399.7362365722656,
        1026.22119140625
      ],
      "type": "VEC3"
    },
    {
      "bufferView": 2,
      "byteOffset": 26628,
      "componentType": 5126,
      "count": 1437,
      "max": [
        0.9999843835830688,
        0.9998538494110107,
        0.9998796582221985
      ],
      "min": [
        -0.9999885559082031,
        -0.9999687671661377,
        -0.9999873638153076
      ],
      "type": "VEC3"
    },
    {
      "bufferView": 1,
      "byteOffset": 3128,
      "componentType": 5126,
      "count": 1437,
      "max": [
        0.9500880241394043,
        1.8058240413665771
      ],
      "min": [
        0.03553299978375435,
        1.030603051185608
      ],
      "type": "VEC2"
    },
    {
      "bufferView": 0,
      "byteOffset": 5784,
      "componentType": 5125,
      "count": 5076,
      "type": "SCALAR"
    },
    {
      "bufferView": 2,
      "byteOffset": 43872,
      "componentType": 5126,
      "count": 32219,
      "max": [
        1801.285888671875,
        353.2445068359375,
        1251.929443359375
      ],
      "min": [
        1209.642333984375,
        0.0,
        871.0694580078125
      ],
      "type": "VEC3"
    },
    {
      "bufferView": 2,
      "byteOffset": 430500,
      "componentType": 5126,
      "count": 32219,
      "max": [
        0.9996753334999084,
        0.9993826150894165,
        0.9995155930519104
      ],
      "min": [
        -0.9978012442588806,
        -0.9999212026596069,
        -0.9973955750465393
      ],
      "type": "VEC3"
    },
    {
      "bufferView": 1,
      "byteOffset": 14624,
      "componentType": 5126,
      "count": 32219,
      "max": [
        4.991710186004639,
        1.99753999710083
      ],
      "min": [
        0.006000000052154064,
        1.0021109580993652
      ],
      "type": "VEC2"
    },
    {
      "bufferView": 0,
      "byteOffset": 26088,
      "componentType": 5125,
      "count": 125343,
      "type": "SCALAR"
    },
    {
      "bufferView": 2,
      "byteOffset": 817128,
      "componentType": 5126,
      "count": 2262,
      "max": [
        944.00927734375,
        437.5255126953125,
        1886.4468994140625
      ],
      "min": [
        647.0520629882813,
        87.91917419433594,
        1556.3553466796875
      ],
      "type": "VEC3"
    },
    {
      "bufferView": 2,
      "byteOffset": 844272,
      "componentType": 5126,
      "count": 2262,
      "max": [
        0.9990823864936829,
        0.9970841407775879,
        0.9998804926872253
      ],
      "min": [
        -0.9989009499549866,
        -0.999889612197876,
        -0.9998804330825806
      ],
      "type": "VEC3"
    },
    {
      "bufferView": 3,
      "byteOffset": 6256,
      "componentType": 5126,
      "count": 2262,
      "max": [
        1.0,
        0.9997783303260803,
        0.999930739402771,
        1.0
      ],
      "min": [
        -0.9999998807907104,
        -0.9999997615814209,
        -0.9997662901878357,
        -1.0
      ],
      "type": "VEC4"
    },
    {
      "bufferView": 1,
      "byteOffset": 272376,
      "componentType": 5126,
      "count": 2262,
      "max": [
        0.9892590045928955,
        1.7733839750289917
      ],
      "min": [
        0.015596999786794186,
        1.260166049003601
      ],
      "type": "VEC2"
    },
    {
      "bufferView": 0,
      "byteOffset": 527460,
      "componentType": 5125,
      "count": 9708,
      "type": "SCALAR"
    },
    {
      "bufferView": 2,
      "byteOffset": 871416,
      "componentType": 5126,
      "count": 2123,
      "max": [
        1007.78173828125,
        411.0659484863281,
        1584.462646484375
      ],
      "min": [
        582.4835205078125,
        99.43313598632813,
        813.1636352539063
      ],
      "type": "VEC3"
    },
    {
      "bufferView": 2,
      "byteOffset": 896892,
      "componentType": 5126,
      "count": 2123,
      "max": [
        0.9996193647384644,
        0.999303936958313,
        0.9999971389770508
      ],
      "min": [
        -0.9999352693557739,
        -0.9992774128913879,
        -0.991468608379364
      ],
      "type": "VEC3"
    },
    {
      "bufferView": 1,
      "byteOffset": 290472,
      "componentType": 5126,
      "count": 2123,
      "max": [
        0.894760012626648,
        1.7571280002593994
      ],
      "min": [
        0.010912000201642513,
        1.0153789520263672
      ],
      "type": "VEC2"
    },
    {
      "bufferView": 0,
      "byteOffset": 566292,
      "componentType": 5125,
      "count": 8220,
      "type": "SCALAR"
    },
    {
      "bufferView": 2,
      "byteOffset": 922368,
      "componentType": 5126,
      "count": 1826,
      "max": [
        987.8203125,
        433.1690673828125,
        1351.8182373046875
      ],
      "min": [
        602.335205078125,
        120.55184936523438,
        987.6354370117188
      ],
      "type": "VEC3"
    },
    {
      "bufferView": 2,
      "byteOffset": 944280,
      "componentType": 5126,
      "count": 1826,
      "max": [
        0.9999973177909851,
        0.999970555305481,
        0.9999574422836304
      ],
      "min": [
        -0.99996417760849,
        -0.9999517202377319,
        -0.9999966621398926
      ],
      "type": "VEC3"
    },
    {
      "bufferView": 1,
      "byteOffset": 307456,
      "componentType": 5126,
      "count": 1826,
      "max": [
        0.9907860159873962,
        1.9953659772872925
      ],
      "min": [
        0.010924000293016434,
        1.6278560161590576
      ],
      "type": "VEC2"
    },
    {
      "bufferView": 0,
      "byteOffset": 599172,
      "componentType": 5125,
      "count": 8226,
      "type": "SCALAR"
    },
    {
      "bufferView": 2,
      "byteOffset": 966192,
      "componentType": 5126,
      "count": 242,
      "max": [
        905.045166015625,
        203.86541748046875,
        1040.1280517578125
      ],
      "min": [
        668.8629150390625,
        121.33355712890625,
        785.2266235351563
      ],
      "type": "VEC3"
    },
    {
      "bufferView": 2,
      "byteOffset": 969096,
      "componentType": 5126,
      "count": 242,
      "max": [
        0.9265608191490173,
        0.9993192553520203,
        0.9988359808921814
      ],
      "min": [
        -0.9266917109489441,
        -0.9996957778930664,
        -0.998906135559082
      ],
      "type": "VEC3"
    },
    {
      "bufferView": 1,
      "byteOffset": 322064,
      "componentType": 5126,
      "count": 242,
      "max": [
        0.39903900027275085,
        1.3306870460510254
      ],
      "min": [
        0.13334999978542328,
        1.0261340141296387
      ],
      "type": "VEC2"
    },
    {
      "bufferView": 0,
      "byteOffset": 632076,
      "componentType": 5125,
      "count": 936,
      "type": "SCALAR"
    },
    {
      "bufferView": 2,
      "byteOffset": 972000,
      "componentType": 5126,
      "count": 2018,
      "max": [
        1002.5482177734375,
        441.47698974609375,
        1587.4925537109375
      ],
      "min": [
        586.53662109375,
        113.1856689453125,
        1207.1083984375
      ],
      "type": "VEC3"
    },
    {
      "bufferView": 2,
      "byteOffset": 996216,
      "componentType": 5126,
      "count": 2018,
      "max": [
        0.9996976256370544,
        0.9999064207077026,
        0.9963459968566895
      ],
      "min": [
        -0.9996045827865601,
        -0.9999919533729553,
        -0.9990000128746033
      ],
      "type": "VEC3"
    },
    {
      "bufferView": 1,
      "byteOffset": 324000,
      "componentType": 5126,
      "count": 2018,
      "max": [
        0.9895439743995667,
        1.9900000095367432
      ],
      "min": [
        0.010178999975323677,
        1.0101419687271118
      ],
      "type": "VEC2"
    },
    {
      "bufferView": 0,
      "byteOffset": 635820,
      "componentType": 5125,
      "count": 9348,
      "type": "SCALAR"
    },
    {
      "bufferView": 2,
      "byteOffset": 1020432,
      "componentType": 5126,
      "count": 2546,
      "max": [
        1537.9219970703125,
        399.70458984375,
        1560.3773193359375
      ],
      "min": [
        41.018310546875,
        186.49490356445313,
        437.0971374511719
      ],
      "type": "VEC3"
    },
    {
      "bufferView": 2,
      "byteOffset": 1050984,
      "componentType": 5126,
      "count": 2546,
      "max": [
        0.9703065752983093,
        0.9992512464523315,
        0.9998668432235718
      ],
      "min": [
        -0.9702757000923157,
        -0.9989893436431885,
        -0.9992145299911499
      ],
      "type": "VEC3"
    },
    {
      "bufferView": 3,
      "byteOffset": 42448,
      "componentType": 5126,
      "count": 2546,
      "max": [
        0.9980291724205017,
        0.9982758164405823,
        0.9999704957008362,
        1.0
      ],
      "min": [
        -0.997866153717041,
        -0.9998695850372314,
        -0.9999896287918091,
        -1.0
      ],
      "type": "VEC4"
    },
    {
      "bufferView": 1,
      "byteOffset": 340144,
      "componentType": 5126,
      "count": 2546,
      "max": [
        0.9899849891662598,
        1.989786982536316
      ],
      "min": [
        0.07305300235748291,
        1.4171940088272095
      ],
      "type": "VEC2"
    },
    {
      "bufferView": 0,
      "byteOffset": 673212,
      "componentType": 5125,
      "count": 9648,
      "type": "SCALAR"
    },
    {
      "bufferView": 2,
      "byteOffset": 1081536,
      "componentType": 5126,
      "count": 2508,
      "max": [
        1040.2530517578125,
        375.50543212890625,
        951.5506591796875
      ],
      "min": [
        536.1521606445313,
        146.49253845214844,
        51.166175842285156
      ],
      "type": "VEC3"
    },
    {
      "bufferView": 2,
      "byteOffset": 1111632,
      "componentType": 5126,
      "count": 2508,
      "max": [
        0.9990065693855286,
        0.9992621541023254,
        0.9996127486228943
      ],
      "min": [
        -0.9995352029800415,
        -0.9964689016342163,
        -0.9999793767929077
      ],
      "type": "VEC3"
    },
    {
      "bufferView": 3,
      "byteOffset": 83184,
      "componentType": 5126,
      "count": 2508,
      "max": [
        0.9997797608375549,
        0.9998594522476196,
        0.9940736293792725,
        1.0
      ],
      "min": [
        -0.9997796416282654,
        -0.9995672106742859,
        -0.997343897819519,
        -1.0
      ],
      "type": "VEC4"
    },
    {
      "bufferView": 1,
      "byteOffset": 360512,
      "componentType": 5126,
      "count": 2508,
      "max": [
        0.879410982131958,
        1.9927870035171509
      ],
      "min": [
        0.009987999685108662,
        1.030102014541626
      ],
      "type": "VEC2"
    },
    {
      "bufferView": 0,
      "byteOffset": 711804,
      "componentType": 5125,
      "count": 9300,
      "type": "SCALAR"
    },
    {
      "bufferView": 2,
      "byteOffset": 1141728,
      "componentType": 5126,
      "count": 813,
      "max": [
        1017.6531982421875,
        372.8673400878906,
        951.550537109375
      ],
      "min": [
        801.9176025390625,
        146.4933624267578,
        505.8450927734375
      ],
      "type": "VEC3"
    },
    {
      "bufferView": 2,
      "byteOffset": 1151484,
      "componentType": 5126,
      "count": 813,
      "max": [
        0.9995349049568176,
        0.9992629289627075,
        0.9956735968589783
      ],
      "min": [
        -0.9988790154457092,
        -0.9964762330055237,
        -0.9999788999557495
      ],
      "type": "VEC3"
    },
    {
      "bufferView": 3,
      "byteOffset": 123312,
      "componentType": 5126,
      "count": 813,
      "max": [
        0.9947222471237183,
        0.9997848868370056,
        0.7480217814445496,
        -1.0
      ],
      "min": [
        -0.9952380657196045,
        -0.9990874528884888,
        -0.8058441877365112,
        -1.0
      ],
      "type": "VEC4"
    },
    {
      "bufferView": 1,
      "byteOffset": 380576,
      "componentType": 5126,
      "count": 813,
      "max": [
        0.3583010137081146,
        1.9927870035171509
      ],
      "min": [
        0.009987999685108662,
        1.1950689554214478
      ],
      "type": "VEC2"
    },
    {
      "bufferView": 0,
      "byteOffset": 749004,
      "componentType": 5125,
      "count": 3156,
      "type": "SCALAR"
    },
    {
      "bufferView": 2,
      "byteOffset": 1161240,
      "componentType": 5126,
      "count": 2293,
      "max": [
        714.9302368164063,
        403.8173828125,
        520.4503173828125
      ],
      "min": [
        550.49072265625,
        220.41131591796875,
        124.27108764648438
      ],
      "type": "VEC3"
    },
    {
      "bufferView": 2,
      "byteOffset": 1188756,
      "componentType": 5126,
      "count": 2293,
      "max": [
        0.9999241232872009,
        0.9999963641166687,
        0.9999929070472717
      ],
      "min": [
        -0.9998587369918823,
        -0.9999964237213135,
        -0.9993315935134888
      ],
      "type": "VEC3"
    },
    {
      "bufferView": 3,
      "byteOffset": 136320,
      "componentType": 5126,
      "count": 2293,
      "max": [
        0.9999784827232361,
        0.9998740553855896,
        0.9955629706382751,
        1.0
      ],
      "min": [
        -0.9981242418289185,
        -0.9998932480812073,
        -0.9982065558433533,
        -1.0
      ],
      "type": "VEC4"
    },
    {
      "bufferView": 1,
      "byteOffset": 387080,
      "componentType": 5126,
      "count": 2293,
      "max": [
        0.7488470077514648,
        1.9011969566345215
      ],
      "min": [
        0.33581599593162537,
        1.112457036972046
      ],
      "type": "VEC2"
    },
    {
      "bufferView": 0,
      "byteOffset": 761628,
      "componentType": 5125,
      "count": 8640,
      "type": "SCALAR"
    },
    {
      "bufferView": 2,
      "byteOffset": 1216272,
      "componentType": 5126,
      "count": 2265,
      "max": [
        1023.4177856445313,
        403.81732177734375,
        520.4503784179688
      ],
      "min": [
        858.9783325195313,
        220.4111328125,
        124.27155303955078
      ],
      "type": "VEC3"
    },
    {
      "bufferView": 2,
      "byteOffset": 1243452,
      "componentType": 5126,
      "count": 2265,
      "max": [
        0.9998592734336853,
        0.9999964237213135,
        0.999671220779419
      ],
      "min": [
        -0.9999638199806213,
        -0.9999963641166687,
        -0.9993323683738708
      ],
      "type": "VEC3"
    },
    {
      "bufferView": 3,
      "byteOffset": 173008,
      "componentType": 5126,
      "count": 2265,
      "max": [
        0.9991101026535034,
        0.9994849562644958,
        0.9956205487251282,
        1.0
      ],
      "min": [
        -0.99997878074646,
        -0.9998931884765625,
        -0.998238742351532,
        -1.0
      ],
      "type": "VEC4"
    },
    {
      "bufferView": 1,
      "byteOffset": 405424,
      "componentType": 5126,
      "count": 2265,
      "max": [
        0.7488470077514648,
        1.9011969566345215
      ],
      "min": [
        0.33581599593162537,
        1.112457036972046
      ],
      "type": "VEC2"
    },
    {
      "bufferView": 0,
      "byteOffset": 796188,
      "componentType": 5125,
      "count": 8640,
      "type": "SCALAR"
    },
    {
      "bufferView": 2,
      "byteOffset": 1270632,
      "componentType": 5126,
      "count": 3143,
      "max": [
        579.9114990234375,
        382.0277099609375,
        1515.533203125
      ],
      "min": [
        388.6507568359375,
        247.578369140625,
        1265.332763671875
      ],
      "type": "VEC3"
    },
    {
      "bufferView": 2,
      "byteOffset": 1308348,
      "componentType": 5126,
      "count": 3143,
      "max": [
        0.9946085214614868,
        0.9994841814041138,
        0.9966567158699036
      ],
      "min": [
        -0.9968456029891968,
        -0.9999433755874634,
        -0.9967291951179504
      ],
      "type": "VEC3"
    },
    {
      "bufferView": 3,
      "byteOffset": 209248,
      "componentType": 5126,
      "count": 3143,
      "max": [
        0.9999898076057434,
        0.9999749660491943,
        0.9999276995658875,
        1.0
      ],
      "min": [
        -0.9992698431015015,
        -0.9997568726539612,
        -0.9999985098838806,
        -1.0
      ],
      "type": "VEC4"
    },
    {
      "bufferView": 1,
      "byteOffset": 423544,
      "componentType": 5126,
      "count": 3143,
      "max": [
        0.4962269961833954,
        1.6309549808502197
      ],
      "min": [
        0.02951899915933609,
        1.0130159854888916
      ],
      "type": "VEC2"
    },
    {
      "bufferView": 0,
      "byteOffset": 830748,
      "componentType": 5125,
      "count": 9576,
      "type": "SCALAR"
    },
    {
      "bufferView": 2,
      "byteOffset": 1346064,
      "componentType": 5126,
      "count": 2819,
      "max": [
        1189.8699951171875,
        382.9643249511719,
        1512.0767822265625
      ],
      "min": [
        998.7244262695313,
        248.60525512695313,
        1261.8123779296875
      ],
      "type": "VEC3"
    },
    {
      "bufferView": 2,
      "byteOffset": 1379892,
      "componentType": 5126,
      "count": 2819,
      "max": [
        0.9713409543037415,
        0.9995105266571045,
        0.9919320940971375
      ],
      "min": [
        -0.9833249449729919,
        -0.9999865889549255,
        -0.9935490489006042
      ],
      "type": "VEC3"
    },
    {
      "bufferView": 3,
      "byteOffset": 259536,
      "componentType": 5126,
      "count": 2819,
      "max": [
        0.9998814463615417,
        0.9980676174163818,
        0.9999426007270813,
        1.0
      ],
      "min": [
        -0.9999915957450867,
        -0.9999961256980896,
        -0.9999999403953552,
        -1.0
      ],
      "type": "VEC4"
    },
    {
      "bufferView": 1,
      "byteOffset": 448688,
      "componentType": 5126,
      "count": 2819,
      "max": [
        0.4962269961833954,
        1.6309549808502197
      ],
      "min": [
        0.02951899915933609,
        1.0130159854888916
      ],
      "type": "VEC2"
    },
    {
      "bufferView": 0,
      "byteOffset": 869052,
      "componentType": 5125,
      "count": 9576,
      "type": "SCALAR"
    },
    {
      "bufferView": 2,
      "byteOffset": 1413720,
      "componentType": 5126,
      "count": 7224,
      "max": [
        417.74017333984375,
        374.1569519042969,
        1350.093505859375
      ],
      "min": [
        131.9649658203125,
        210.53936767578125,
        1116.49755859375
      ],
      "type": "VEC3"
    },
    {
      "bufferView": 2,
      "byteOffset": 1500408,
      "componentType": 5126,
      "count": 7224,
      "max": [
        0.9998464584350586,
        0.99948650598526,
        0.9992368221282959
      ],
      "min": [
        -0.9982250332832336,
        -0.9992611408233643,
        -0.9986144304275513
      ],
      "type": "VEC3"
    },
    {
      "bufferView": 3,
      "byteOffset": 304640,
      "componentType": 5126,
      "count": 7224,
      "max": [
        0.9971606731414795,
        0.9998562932014465,
        0.9993100166320801,
        1.0
      ],
      "min": [
        -0.9998777508735657,
        -0.9998747110366821,
        -0.998001754283905,
        -1.0
      ],
      "type": "VEC4"
    },
    {
      "bufferView": 1,
      "byteOffset": 471240,
      "componentType": 5126,
      "count": 7224,
      "max": [
        0.9271360039710999,
        1.989786982536316
      ],
      "min": [
        0.046032000333070755,
        1.0129270553588867
      ],
      "type": "VEC2"
    },
    {
      "bufferView": 0,
      "byteOffset": 907356,
      "componentType": 5125,
      "count": 23172,
      "type": "SCALAR"
    },
    {
      "bufferView": 2,
      "byteOffset": 1587096,
      "componentType": 5126,
      "count": 6581,
      "max": [
        1448.0699462890625,
        373.62744140625,
        1345.853515625
      ],
      "min": [
        1162.197265625,
        212.12432861328125,
        1111.6490478515625
      ],
      "type": "VEC3"
    },
    {
      "bufferView": 2,
      "byteOffset": 1666068,
      "componentType": 5126,
      "count": 6581,
      "max": [
        0.9938265681266785,
        0.9993979930877686,
        0.9988960027694702
      ],
      "min": [
        -0.998819887638092,
        -0.9995505213737488,
        -0.9990979433059692
      ],
      "type": "VEC3"
    },
    {
      "bufferView": 3,
      "byteOffset": 420224,
      "componentType": 5126,
      "count": 6581,
      "max": [
        0.9992632269859314,
        0.9998069405555725,
        0.9996348023414612,
        1.0
      ],
      "min": [
        -0.9964732527732849,
        -0.9996500015258789,
        -0.9974186420440674,
        -1.0
      ],
      "type": "VEC4"
    },
    {
      "bufferView": 1,
      "byteOffset": 529032,
      "componentType": 5126,
      "count": 6581,
      "max": [
        0.9271360039710999,
        1.989786982536316
      ],
      "min": [
        0.046032000333070755,
        1.0129270553588867
      ],
      "type": "VEC2"
    },
    {
      "bufferView": 0,
      "byteOffset": 1000044,
      "componentType": 5125,
      "count": 23172,
      "type": "SCALAR"
    },
    {
      "bufferView": 2,
      "byteOffset": 1745040,
      "componentType": 5126,
      "count": 1733,
      "max": [
        1043.1949462890625,
        389.4369812011719,
        147.414794921875
      ],
      "min": [
        919.8153076171875,
        87.83131408691406,
        0.0
      ],
      "type": "VEC3"
    },
    {
      "bufferView": 2,
      "byteOffset": 1765836,
      "componentType": 5126,
      "count": 1733,
      "max": [
        0.9999490976333618,
        0.999561071395874,
        0.999968409538269
      ],
      "min": [
        -0.9988373517990112,
        -0.9998942017555237,
        -0.999999463558197
      ],
      "type": "VEC3"
    },
    {
      "bufferView": 1,
      "byteOffset": 581680,
      "componentType": 5126,
      "count": 1733,
      "max": [
        0.8999000191688538,
        1.9904780387878418
      ],
      "min": [
        0.012426000088453293,
        1.0242910385131836
      ],
      "type": "VEC2"
    },
    {
      "bufferView": 0,
      "byteOffset": 1092732,
      "componentType": 5125,
      "count": 7215,
      "type": "SCALAR"
    },
    {
      "bufferView": 2,
      "byteOffset": 1786632,
      "componentType": 5126,
      "count": 1733,
      "max": [
        656.5904541015625,
        389.4361572265625,
        147.4145965576172
      ],
      "min": [
        533.2103271484375,
        87.8314208984375,
        0.0001519918441772461
      ],
      "type": "VEC3"
    },
    {
      "bufferView": 2,
      "byteOffset": 1807428,
      "componentType": 5126,
      "count": 1733,
      "max": [
        0.9988409280776978,
        0.9995591640472412,
        0.9999685287475586
      ],
      "min": [
        -0.9999497532844543,
        -0.9998940825462341,
        -0.999999463558197
      ],
      "type": "VEC3"
    },
    {
      "bufferView": 1,
      "byteOffset": 595544,
      "componentType": 5126,
      "count": 1733,
      "max": [
        0.8999000191688538,
        1.9904780387878418
      ],
      "min": [
        0.012426000088453293,
        1.0242910385131836
      ],
      "type": "VEC2"
    },
    {
      "bufferView": 0,
      "byteOffset": 1121592,
      "componentType": 5125,
      "count": 7215,
      "type": "SCALAR"
    },
    {
      "bufferView": 2,
      "byteOffset": 1828224,
      "componentType": 5126,
      "count": 3675,
      "max": [
        1573.9976806640625,
        329.7684326171875,
        1206.2686767578125
      ],
      "min": [
        1368.97021484375,
        166.80291748046875,
        993.28564453125
      ],
      "type": "VEC3"
    },
    {
      "bufferView": 2,
      "byteOffset": 1872324,
      "componentType": 5126,
      "count": 3675,
      "max": [
        0.999961793422699,
        0.9996843338012695,
        0.9952748417854309
      ],
      "min": [
        -0.9999518990516663,
        -0.9991444945335388,
        -0.9996165037155151
      ],
      "type": "VEC3"
    },
    {
      "bufferView": 1,
      "byteOffset": 609408,
      "componentType": 5126,
      "count": 3675,
      "max": [
        0.9924089908599854,
        1.613258957862854
      ],
      "min": [
        0.0274679996073246,
        1.0120970010757446
      ],
      "type": "VEC2"
    },
    {
      "bufferView": 0,
      "byteOffset": 1150452,
      "componentType": 5125,
      "count": 16278,
      "type": "SCALAR"
    },
    {
      "bufferView": 2,
      "byteOffset": 1916424,
      "componentType": 5126,
      "count": 3675,
      "max": [
        205.02655029296875,
        329.8083801269531,
        1206.268798828125
      ],
      "min": [
        0.0,
        166.84320068359375,
        993.2850341796875
      ],
      "type": "VEC3"
    },
    {
      "bufferView": 2,
      "byteOffset": 1960524,
      "componentType": 5126,
      "count": 3675,
      "max": [
        0.9999486207962036,
        0.9996863603591919,
        0.9952833652496338
      ],
      "min": [
        -0.9999634623527527,
        -0.999136745929718,
        -0.9996144771575928
      ],
      "type": "VEC3"
    },
    {
      "bufferView": 1,
      "byteOffset": 638808,
      "componentType": 5126,
      "count": 3675,
      "max": [
        0.9924089908599854,
        1.613258957862854
      ],
      "min": [
        0.0274679996073246,
        1.0120970010757446
      ],
      "type": "VEC2"
    },
    {
      "bufferView": 0,
      "byteOffset": 1215564,
      "componentType": 5125,
      "count": 16278,
      "type": "SCALAR"
    },
    {
      "bufferView": 2,
      "byteOffset": 2004624,
      "componentType": 5126,
      "count": 1787,
      "max": [
        989.8201293945313,
        399.8441162109375,
        1681.577880859375
      ],
      "min": [
        571.2044067382813,
        106.49763488769531,
        640.5228271484375
      ],
      "type": "VEC3"
    },
    {
      "bufferView": 2,
      "byteOffset": 2026068,
      "componentType": 5126,
      "count": 1787,
      "max": [
        0.9989996552467346,
        0.9999846816062927,
        0.9998801350593567
      ],
      "min": [
        -0.9998528957366943,
        -0.9999995827674866,
        -0.9999277591705322
      ],
      "type": "VEC3"
    },
    {
      "bufferView": 1,
      "byteOffset": 668208,
      "componentType": 5126,
      "count": 1787,
      "max": [
        0.983817994594574,
        2.0
      ],
      "min": [
        0.0,
        1.0
      ],
      "type": "VEC2"
    },
    {
      "bufferView": 0,
      "byteOffset": 1280676,
      "componentType": 5125,
      "count": 7200,
      "type": "SCALAR"
    },
    {
      "bufferView": 2,
      "byteOffset": 2047512,
      "componentType": 5126,
      "count": 2892,
      "max": [
        1067.341552734375,
        363.58538818359375,
        1065.0025634765625
      ],
      "min": [
        515.7086181640625,
        87.02464294433594,
        882.7966918945313
      ],
      "type": "VEC3"
    },
    {
      "bufferView": 2,
      "byteOffset": 2082216,
      "componentType": 5126,
      "count": 2892,
      "max": [
        0.9980402588844299,
        0.9965847134590149,
        0.9999397993087769
      ],
      "min": [
        -0.9925498366355896,
        -0.9977244734764099,
        -0.9999676942825317
      ],
      "type": "VEC3"
    },
    {
      "bufferView": 1,
      "byteOffset": 682504,
      "componentType": 5126,
      "count": 2892,
      "max": [
        0.9794489741325378,
        1.9689890146255493
      ],
      "min": [
        0.49222901463508606,
        1.0116549730300903
      ],
      "type": "VEC2"
    },
    {
      "bufferView": 0,
      "byteOffset": 1309476,
      "componentType": 5125,
      "count": 10962,
      "type": "SCALAR"
    },
    {
      "bufferView": 2,
      "byteOffset": 2116920,
      "componentType": 5126,
      "count": 1655,
      "max": [
        1296.684814453125,
        402.0346984863281,
        1565.5289306640625
      ],
      "min": [
        277.3106994628906,
        184.70062255859375,
        335.9396057128906
      ],
      "type": "VEC3"
    },
    {
      "bufferView": 2,
      "byteOffset": 2136780,
      "componentType": 5126,
      "count": 1655,
      "max": [
        0.9989187717437744,
        0.9997917413711548,
        0.9666917324066162
      ],
      "min": [
        -0.9998829364776611,
        -0.9999943375587463,
        -0.984184980392456
      ],
      "type": "VEC3"
    },
    {
      "bufferView": 3,
      "byteOffset": 525520,
      "componentType": 5126,
      "count": 1655,
      "max": [
        0.993928074836731,
        0.9999580383300781,
        0.9989244341850281,
        1.0
      ],
      "min": [
        -0.9804306626319885,
        -0.9991979002952576,
        -0.9990965723991394,
        -1.0
      ],
      "type": "VEC4"
    },
    {
      "bufferView": 1,
      "byteOffset": 705640,
      "componentType": 5126,
      "count": 1655,
      "max": [
        0.9970549941062927,
        2.0
      ],
      "min": [
        0.0,
        1.0
      ],
      "type": "VEC2"
    },
    {
      "bufferView": 0,
      "byteOffset": 1353324,
      "componentType": 5125,
      "count": 5589,
      "type": "SCALAR"
    }
  ],
  "asset": {
    "extras": {
      "author": "dpalme (https://sketchfab.com/dpalme)",
      "license": "CC-BY-4.0 (http://creativecommons.org/licenses/by/4.0/)",
      "source": "https://sketchfab.com/3d-models/star-wars-7-storm-trooper-4fc7c836c348440fa654a7adc6efee55",
      "title": "Star Wars 7 Storm Trooper"
    },
    "generator": "Sketchfab-12.67.0",
    "version": "2.0"
  },
  "bufferViews": [
    {
      "buffer": 0,
      "byteLength": 1375680,
      "name": "floatBufferViews",
      "target": 34963
    },
    {
      "buffer": 0,
      "byteLength": 718880,
      "byteOffset": 1375680,
      "byteStride": 8,
      "name": "floatBufferViews",
      "target": 34962
    },
    {
      "buffer": 0,
      "byteLength": 2156640,
      "byteOffset": 2094560,
      "byteStride": 12,
      "name": "floatBufferViews",
      "target": 34962
    },
    {
      "buffer": 0,
      "byteLength": 552000,
      "byteOffset": 4251200,
      "byteStride": 16,
      "name": "floatBufferViews",
      "target": 34962
    }
  ],
  "buffers": [
    {
      "byteLength": 4803200,
      "uri": "scene.bin"
    }
  ],
  "images": [
    {
      "uri": "textures/Helmet_baseColor.png"
    },
    {
      "uri": "textures/Helmet_normal.png"
    },
    {
      "uri": "textures/Rubber_joints_baseColor.png"
    },
    {
      "uri": "textures/Rubber_joints_normal.png"
    },
    {
      "uri": "textures/2_-_Default_baseColor.png"
    },
    {
      "uri": "textures/4_-_Default_baseColor.png"
    },
    {
      "uri": "textures/5_-_Default_baseColor.png"
    },
    {
      "uri": "textures/5_-_Default_normal.png"
    },
    {
      "uri": "textures/6_-_Default_baseColor.png"
    },
    {
      "uri": "textures/7_-_Default_baseColor.png"
    }
  ],
  "materials": [
    {
      "doubleSided": true,
      "name": "Helmet",
      "normalTexture": {
        "index": 1
      },
      "pbrMetallicRoughness": {
        "baseColorTexture": {
          "index": 0
        },
        "metallicFactor": 0.0,
        "roughnessFactor": 0.6
      }
    },
    {
      "doubleSided": true,
      "name": "NST_15_-_Default",
      "pbrMetallicRoughness": {
        "baseColorFactor": [
          0.021807634948988765,
          0.021807634948988765,
          0.021807634948988765,
          1.0
        ],
        "metallicFactor": 0.5700000000000001,
        "roughnessFactor": 0.75
      }
    },
    {
      "doubleSided": true,
      "name": "Rubber_joints",
      "normalTexture": {
        "index": 3
      },
      "pbrMetallicRoughness": {
        "baseColorTexture": {
          "index": 2
        },
        "metallicFactor": 0.0,
        "roughnessFactor": 0.8
      }
    },
    {
      "doubleSided": true,
      "name": "1_-_Default",
      "normalTexture": {
        "index": 1
      },
      "pbrMetallicRoughness": {
        "baseColorTexture": {
          "index": 0
        },
        "roughnessFactor": 0.35000000000000003
      }
    },
    {
      "doubleSided": true,
      "name": "2_-_Default",
      "pbrMetallicRoughness": {
        "baseColorTexture": {
          "index": 4
        },
        "roughnessFactor": 0.35000000000000003
      }
    },
    {
      "doubleSided": true,
      "name": "4_-_Default",
      "pbrMetallicRoughness": {
        "baseColorTexture": {
          "index": 5
        },
        "roughnessFactor": 0.35000000000000003
      }
    },
    {
      "doubleSided": true,
      "name": "5_-_Default",
      "normalTexture": {
        "index": 7
      },
      "pbrMetallicRoughness": {
        "baseColorTexture": {
          "index": 6
        },
        "roughnessFactor": 0.35000000000000003
      }
    },
    {
      "doubleSided": true,
      "name": "6_-_Default",
      "pbrMetallicRoughness": {
        "baseColorTexture": {
          "index": 8
        },
        "roughnessFactor": 0.35000000000000003
      }
    },
    {
      "doubleSided": true,
      "name": "7_-_Default",
      "pbrMetallicRoughness": {
        "baseColorTexture": {
          "index": 9
        },
        "metallicFactor": 0.0,
        "roughnessFactor": 0.6
      }
    },
    {
      "doubleSided": true,
      "name": "8_-_Default",
      "normalTexture": {
        "index": 3
      },
      "pbrMetallicRoughness": {
        "baseColorTexture": {
          "index": 2
        },
        "metallicFactor": 0.0,
        "roughnessFactor": 0.8
      }
    }
  ],
  "meshes": [
    {
      "name": "Object_0",
      "primitives": [
        {
          "attributes": {
            "NORMAL": 1,
            "POSITION": 0,
            "TANGENT": 2,
            "TEXCOORD_0": 3
          },
          "indices": 4,
          "material": 0,
          "mode": 4
        }
      ]
    },
    {
      "name": "Object_1",
      "primitives": [
        {
          "attributes": {
            "NORMAL": 6,
            "POSITION": 5,
            "TANGENT": 7,
            "TEXCOORD_0": 8
          },
          "indices": 9,
          "material": 2,
          "mode": 4
        }
      ]
    },
    {
      "name": "Object_2",
      "primitives": [
        {
          "attributes": {
            "NORMAL": 11,
            "POSITION": 10,
            "TEXCOORD_0": 12
          },
          "indices": 13,
          "material": 1,
          "mode": 4
        }
      ]
    },
    {
      "name": "Object_3",
      "primitives": [
        {
          "attributes": {
            "NORMAL": 15,
            "POSITION": 14,
            "TEXCOORD_0": 16
          },
          "indices": 17,
          "material": 1,
          "mode": 4
        }
      ]
    },
    {
      "name": "Object_4",
      "primitives": [
        {
          "attributes": {
            "NORMAL": 19,
            "POSITION": 18,
            "TANGENT": 20,
            "TEXCOORD_0": 21
          },
          "indices": 22,
          "material": 3,
          "mode": 4
        }
      ]
    },
    {
      "name": "Object_5",
      "primitives": [
        {
          "attributes": {
            "NORMAL": 24,
            "POSITION": 23,
            "TEXCOORD_0": 25
          },
          "indices": 26,
          "material": 4,
          "mode": 4
        }
      ]
    },
    {
      "name": "Object_6",
      "primitives": [
        {
          "attributes": {
            "NORMAL": 28,
            "POSITION": 27,
            "TEXCOORD_0": 29
          },
          "indices": 30,
          "material": 4,
          "mode": 4
        }
      ]
    },
    {
      "name": "Object_7",
      "primitives": [
        {
          "attributes": {
            "NORMAL": 32,
            "POSITION": 31,
            "TEXCOORD_0": 33
          },
          "indices": 34,
          "material": 5,
          "mode": 4
        }
      ]
    },
    {
      "name": "Object_8",
      "primitives": [
        {
          "attributes": {
            "NORMAL": 36,
            "POSITION": 35,
            "TEXCOORD_0": 37
          },
          "indices": 38,
          "material": 5,
          "mode": 4
        }
      ]
    },
    {
      "name": "Object_9",
      "primitives": [
        {
          "attributes": {
            "NORMAL": 40,
            "POSITION": 39,
            "TANGENT": 41,
            "TEXCOORD_0": 42
          },
          "indices": 43,
          "material": 6,
          "mode": 4
        }
      ]
    },
    {
      "name": "Object_10",
      "primitives": [
        {
          "attributes": {
            "NORMAL": 45,
            "POSITION": 44,
            "TANGENT": 46,
            "TEXCOORD_0": 47
          },
          "indices": 48,
          "material": 6,
          "mode": 4
        }
      ]
    },
    {
      "name": "Object_11",
      "primitives": [
        {
          "attributes": {
            "NORMAL": 50,
            "POSITION": 49,
            "TANGENT": 51,
            "TEXCOORD_0": 52
          },
          "indices": 53,
          "material": 6,
          "mode": 4
        }
      ]
    },
    {
      "name": "Object_12",
      "primitives": [
        {
          "attributes": {
            "NORMAL": 55,
            "POSITION": 54,
            "TANGENT": 56,
            "TEXCOORD_0": 57
          },
          "indices": 58,
          "material": 6,
          "mode": 4
        }
      ]
    },
    {
      "name": "Object_13",
      "primitives": [
        {
          "attributes": {
            "NORMAL": 60,
            "POSITION": 59,
            "TANGENT": 61,
            "TEXCOORD_0": 62
          },
          "indices": 63,
          "material": 6,
          "mode": 4
        }
      ]
    },
    {
      "name": "Object_14",
      "primitives": [
        {
          "attributes": {
            "NORMAL": 65,
            "POSITION": 64,
            "TANGENT": 66,
            "TEXCOORD_0": 67
          },
          "indices": 68,
          "material": 6,
          "mode": 4
        }
      ]
    },
    {
      "name": "Object_15",
      "primitives": [
        {
          "attributes": {
            "NORMAL": 70,
            "POSITION": 69,
            "TANGENT": 71,
            "TEXCOORD_0": 72
          },
          "indices": 73,
          "material": 6,
          "mode": 4
        }
      ]
    },
    {
      "name": "Object_16",
      "primitives": [
        {
          "attributes": {
            "NORMAL": 75,
            "POSITION": 74,
            "TANGENT": 76,
            "TEXCOORD_0": 77
          },
          "indices": 78,
          "material": 6,
          "mode": 4
        }
      ]
    },
    {
      "name": "Object_17",
      "primitives": [
        {
          "attributes": {
            "NORMAL": 80,
            "POSITION": 79,
            "TANGENT": 81,
            "TEXCOORD_0": 82
          },
          "indices": 83,
          "material": 6,
          "mode": 4
        }
      ]
    },
    {
      "name": "Object_18",
      "primitives": [
        {
          "attributes": {
            "NORMAL": 85,
            "POSITION": 84,
            "TEXCOORD_0": 86
          },
          "indices": 87,
          "material": 7,
          "mode": 4
        }
      ]
    },
    {
      "name": "Object_19",
      "primitives": [
        {
          "attributes": {
            "NORMAL": 89,
            "POSITION": 88,
            "TEXCOORD_0": 90
          },
          "indices": 91,
          "material": 7,
          "mode": 4
        }
      ]
    },
    {
      "name": "Object_20",
      "primitives": [
        {
          "attributes": {
            "NORMAL": 93,
            "POSITION": 92,
            "TEXCOORD_0": 94
          },
          "indices": 95,
          "material": 7,
          "mode": 4
        }
      ]
    },
    {
      "name": "Object_21",
      "primitives": [
        {
          "attributes": {
            "NORMAL": 97,
            "POSITION": 96,
            "TEXCOORD_0": 98
          },
          "indices": 99,
          "material": 7,
          "mode": 4
        }
      ]
    },
    {
      "name": "Object_22",
      "primitives": [
        {
          "attributes": {
            "NORMAL": 101,
            "POSITION": 100,
            "TEXCOORD_0": 102
          },
          "indices": 103,
          "material": 8,
          "mode": 4
        }
      ]
    },
    {
      "name": "Object_23",
      "primitives": [
        {
          "attributes": {
            "NORMAL": 105,
            "POSITION": 104,
            "TEXCOORD_0": 106
          },
          "indices": 107,
          "material": 8,
          "mode": 4
        }
      ]
    },
    {
      "name": "Object_24",
      "primitives": [
        {
          "attributes": {
            "NORMAL": 109,
            "POSITION": 108,
            "TANGENT": 110,
            "TEXCOORD_0": 111
          },
          "indices": 112,
          "material": 9,
          "mode": 4
        }
      ]
    }
  ],
  "nodes": [
    {
      "children": [
        1
      ],
      "matrix": [
        6.258550862955003e-06,
        4.440848766642169e-19,
        -0.0009999804375683888,
        0.0,
        -0.0009999804375683888,
        1.3896774537680698e-21,
        -6.258550862955003e-06,
        0.0,
        -1.3896774537680574e-21,
        0.0010000000474974513,
        4.440848766642169e-19,
        0.0,
        75.86917114257813,
        -2.1408181759448308e-14,
        96.41387939453125,
        1.0
      ],
      "name": "Sketchfab_model"
    },
    {
      "children": [
        2
      ],
      "matrix": [
        1.0,
        0.0,
        0.0,
        0.0,
        0.0,
        1.0,
        0.0,
        0.0,
        0.0,
        0.0,
        1.0,
        0.0,
        -786.9539184570313,
        -303.13433837890625,
        1.9410359859466553,
        1.0
      ],
      "name": "EP7 ST.obj.cleaner.gles"
    },
    {
      "children": [
        3,
        4,
        5,
        6,
        7,
        8,
        9,
        10,
        11,
        12,
        13,
        14,
        15,
        16,
        17,
        18,
        19,
        20,
        21,
        22,
        23,
        24,
        25,
        26,
        27
      ],
      "name": "Object_2"
    },
    {
      "mesh": 0,
      "name": "Object_3"
    },
    {
      "mesh": 1,
      "name": "Object_4"
    },
    {
      "mesh": 2,
      "name": "Object_5"
    },
    {
      "mesh": 3,
      "name": "Object_6"
    },
    {
      "mesh": 4,
      "name": "Object_7"
    },
    {
      "mesh": 5,
      "name": "Object_8"
    },
    {
      "mesh": 6,
      "name": "Object_9"
    },
    {
      "mesh": 7,
      "name": "Object_10"
    },
    {
      "mesh": 8,
      "name": "Object_11"
    },
    {
      "mesh": 9,
      "name": "Object_12"
    },
    {
      "mesh": 10,
      "name": "Object_13"
    },
    {
      "mesh": 11,
      "name": "Object_14"
    },
    {
      "mesh": 12,
      "name": "Object_15"
    },
    {
      "mesh": 13,
      "name": "Object_16"
    },
    {
      "mesh": 14,
      "name": "Object_17"
    },
    {
      "mesh": 15,
      "name": "Object_18"
    },
    {
      "mesh": 16,
      "name": "Object_19"
    },
    {
      "mesh": 17,
      "name": "Object_20"
    },
    {
      "mesh": 18,
      "name": "Object_21"
    },
    {
      "mesh": 19,
      "name": "Object_22"
    },
    {
      "mesh": 20,
      "name": "Object_23"
    },
    {
      "mesh": 21,
      "name": "Object_24"
    },
    {
      "mesh": 22,
      "name": "Object_25"
    },
    {
      "mesh": 23,
      "name": "Object_26"
    },
    {
      "mesh": 24,
      "name": "Object_27"
    }
  ],
  "samplers": [
    {
      "magFilter": 9729,
      "minFilter": 9987,
      "wrapS": 10497,
      "wrapT": 10497
    }
  ],
  "scene": 0,
  "scenes": [
    {
      "name": "Sketchfab_Scene",
      "nodes": [
        0
      ]
    }
  ],
  "textures": [
    {
      "sampler": 0,
      "source": 0
    },
    {
      "sampler": 0,
      "source": 1
    },
    {
      "sampler": 0,
      "source": 2
    },
    {
      "sampler": 0,
      "source": 3
    },
    {
      "sampler": 0,
      "source": 4
    },
    {
      "sampler": 0,
      "source": 5
    },
    {
      "sampler": 0,
      "source": 6
    },
    {
      "sampler": 0,
      "source": 7
    },
    {
      "sampler": 0,
      "source": 8
    },
    {
      "sampler": 0,
      "source": 9
    }
  ]
}
