{
  "accessors": [
    {
      "bufferView": 3,
      "componentType": 5126,
      "count": 1329,
      "max": [
        0.1512790024280548,
        0.21293599903583527,
        0.08347900211811066
      ],
      "min": [
        0.03801190108060837,
        0.12322499603033066,
        -0.0005728203104808927
      ],
      "type": "VEC3"
    },
    {
      "bufferView": 3,
      "byteOffset": 15948,
      "componentType": 5126,
      "count": 1329,
      "max": [
        0.9892311692237854,
        1.0,
        0.998095691204071
      ],
      "min": [
        -0.9995161294937134,
        -1.0,
        -0.9998698234558105
      ],
      "type": "VEC3"
    },
    {
      "bufferView": 4,
      "componentType": 5126,
      "count": 1329,
      "max": [
        1.0,
        1.0,
        0.9926706552505493,
        1.0
      ],
      "min": [
        -0.9998506307601929,
        -1.0,
        -0.9991865754127502,
        -1.0
      ],
      "type": "VEC4"
    },
    {
      "bufferView": 2,
      "componentType": 5126,
      "count": 1329,
      "max": [
        0.9921875,
        -0.0032978057861328125
      ],
      "min": [
        0.007106781005859375,
        -0.9921875
      ],
      "type": "VEC2"
    },
    {
      "bufferView": 1,
      "componentType": 5125,
      "count": 3453,
      "type": "SCALAR"
    },
    {
      "bufferView": 3,
      "byteOffset": 31896,
      "componentType": 5126,
      "count": 1330,
      "max": [
        0.1512790024280548,
        0.21293599903583527,
        0.0005728298565372825
      ],
      "min": [
        0.03801190108060837,
        0.12322499603033066,
        -0.08347900211811066
      ],
      "type": "VEC3"
    },
    {
      "bufferView": 3,
      "byteOffset": 47856,
      "componentType": 5126,
      "count": 1330,
      "max": [
        0.9892310500144958,
        1.0,
        0.9998698234558105
      ],
      "min": [
        -0.9995168447494507,
        -1.0,
        -0.998095691204071
      ],
      "type": "VEC3"
    },
    {
      "bufferView": 4,
      "byteOffset": 21264,
      "componentType": 5126,
      "count": 1330,
      "max": [
        1.0,
        1.0,
        0.9991865754127502,
        1.0
      ],
      "min": [
        -0.9998506307601929,
        -1.0,
        -0.9926706552505493,
        -1.0
      ],
      "type": "VEC4"
    },
    {
      "bufferView": 2,
      "byteOffset": 10632,
      "componentType": 5126,
      "count": 1330,
      "max": [
        0.9921875,
        -0.0032978057861328125
      ],
      "min": [
        0.007106781005859375,
        -0.9921875
      ],
      "type": "VEC2"
    },
    {
      "bufferView": 1,
      "byteOffset": 13812,
      "componentType": 5125,
      "count": 3453,
      "type": "SCALAR"
    },
    {
      "bufferView": 3,
      "byteOffset": 63816,
      "componentType": 5126,
      "count": 1329,
      "max": [
        -0.03801190108060837,
        0.21293599903583527,
        0.08347900211811066
      ],
      "min": [
        -0.1512790024280548,
        0.12322499603033066,
        -0.0005728203104808927
      ],
      "type": "VEC3"
    },
    {
      "bufferView": 3,
      "byteOffset": 79764,
      "componentType": 5126,
      "count": 1329,
      "max": [
        0.9995162487030029,
        1.0,
        0.998095691204071
      ],
      "min": [
        -0.9892311692237854,
        -1.0,
        -0.9998698234558105
      ],
      "type": "VEC3"
    },
    {
      "bufferView": 4,
      "byteOffset": 42544,
      "componentType": 5126,
      "count": 1329,
      "max": [
        1.0,
        1.0,
        0.9926706552505493,
        1.0
      ],
      "min": [
        -0.9992890357971191,
        -1.0,
        -0.9991865754127502,
        -1.0
      ],
      "type": "VEC4"
    },
    {
      "bufferView": 2,
      "byteOffset": 21272,
      "componentType": 5126,
      "count": 1329,
      "max": [
        0.9921875,
        -0.0032978057861328125
      ],
      "min": [
        0.007106781005859375,
        -0.9921875
      ],
      "type": "VEC2"
    },
    {
      "bufferView": 1,
      "byteOffset": 27624,
      "componentType": 5125,
      "count": 3453,
      "type": "SCALAR"
    },
    {
      "bufferView": 3,
      "byteOffset": 95712,
      "componentType": 5126,
      "count": 1331,
      "max": [
        -0.03801190108060837,
        0.21293599903583527,
        0.0005728298565372825
      ],
      "min": [
        -0.1512790024280548,
        0.12322499603033066,
        -0.08347900211811066
      ],
      "type": "VEC3"
    },
    {
      "bufferView": 3,
      "byteOffset": 111684,
      "componentType": 5126,
      "count": 1331,
      "max": [
        0.9995169639587402,
        1.0,
        0.9998698234558105
      ],
      "min": [
        -0.9892310500144958,
        -1.0,
        -0.998095691204071
      ],
      "type": "VEC3"
    },
    {
      "bufferView": 4,
      "byteOffset": 63808,
      "componentType": 5126,
      "count": 1331,
      "max": [
        1.0,
        1.0,
        0.9991865754127502,
        1.0
      ],
      "min": [
        -0.9992890357971191,
        -1.0,
        -0.9926706552505493,
        -1.0
      ],
      "type": "VEC4"
    },
    {
      "bufferView": 2,
      "byteOffset": 31904,
      "componentType": 5126,
      "count": 1331,
      "max": [
        0.9921875,
        -0.0032978057861328125
      ],
      "min": [
        0.007106781005859375,
        -0.9921875
      ],
      "type": "VEC2"
    },
    {
      "bufferView": 1,
      "byteOffset": 41436,
      "componentType": 5125,
      "count": 3453,
      "type": "SCALAR"
    },
    {
      "bufferView": 3,
      "byteOffset": 127656,
      "componentType": 5126,
      "count": 1617,
      "max": [
        0.02287142537534237,
        0.08585178852081299,
        0.01584990881383419
      ],
      "min": [
        -0.024149173870682716,
        0.04029358923435211,
        -0.09933159500360489
      ],
      "type": "VEC3"
    },
    {
      "bufferView": 3,
      "byteOffset": 147060,
      "componentType": 5126,
      "count": 1617,
      "max": [
        1.0,
        1.0,
        1.0
      ],
      "min": [
        -1.0,
        -1.0,
        -1.0
      ],
      "type": "VEC3"
    },
    {
      "bufferView": 4,
      "byteOffset": 85104,
      "componentType": 5126,
      "count": 1617,
      "max": [
        1.0,
        1.0,
        1.0,
        1.0
      ],
      "min": [
        -1.0,
        -1.0,
        -1.0,
        -1.0
      ],
      "type": "VEC4"
    },
    {
      "bufferView": 2,
      "byteOffset": 42552,
      "componentType": 5126,
      "count": 1617,
      "max": [
        0.994140625,
        -0.00601959228515625
      ],
      "min": [
        0.00560760498046875,
        -0.99658203125
      ],
      "type": "VEC2"
    },
    {
      "bufferView": 1,
      "byteOffset": 55248,
      "componentType": 5125,
      "count": 4839,
      "type": "SCALAR"
    },
    {
      "bufferView": 3,
      "byteOffset": 166464,
      "componentType": 5126,
      "count": 636,
      "max": [
        0.21875900030136108,
        0.0157884880900383,
        0.14391599595546722
      ],
      "min": [
        0.1702679991722107,
        -1.4712810298078693e-05,
        0.09649419784545898
      ],
      "type": "VEC3"
    },
    {
      "bufferView": 3,
      "byteOffset": 174096,
      "componentType": 5126,
      "count": 636,
      "max": [
        0.9998500347137451,
        0.9998999834060669,
        0.9998685121536255
      ],
      "min": [
        -0.9996670484542847,
        -1.0,
        -0.9998612403869629
      ],
      "type": "VEC3"
    },
    {
      "bufferView": 4,
      "byteOffset": 110976,
      "componentType": 5126,
      "count": 636,
      "max": [
        0.8512738347053528,
        0.9999651908874512,
        0.980525553226471,
        1.0
      ],
      "min": [
        -0.9747744798660278,
        -0.9999083280563354,
        -0.7783865332603455,
        -1.0
      ],
      "type": "VEC4"
    },
    {
      "bufferView": 2,
      "byteOffset": 55488,
      "componentType": 5126,
      "count": 636,
      "max": [
        0.87255859375,
        -0.024505615234375
      ],
      "min": [
        0.00514984130859375,
        -0.9931640625
      ],
      "type": "VEC2"
    },
    {
      "bufferView": 1,
      "byteOffset": 74604,
      "componentType": 5125,
      "count": 1689,
      "type": "SCALAR"
    },
    {
      "bufferView": 3,
      "byteOffset": 181728,
      "componentType": 5126,
      "count": 564,
      "max": [
        0.21875900030136108,
        0.0157884880900383,
        -0.09649419784545898
      ],
      "min": [
        0.1702679991722107,
        -1.4712810298078693e-05,
        -0.14391599595546722
      ],
      "type": "VEC3"
    },
    {
      "bufferView": 3,
      "byteOffset": 188496,
      "componentType": 5126,
      "count": 564,
      "max": [
        0.9998500347137451,
        0.9999226331710815,
        0.9998612403869629
      ],
      "min": [
        -0.9996670484542847,
        -1.0,
        -0.9998685121536255
      ],
      "type": "VEC3"
    },
    {
      "bufferView": 4,
      "byteOffset": 121152,
      "componentType": 5126,
      "count": 564,
      "max": [
        0.8512738347053528,
        0.9999651908874512,
        0.7783865332603455,
        1.0
      ],
      "min": [
        -0.9773252010345459,
        -0.9999083280563354,
        -0.9828082919120789,
        -1.0
      ],
      "type": "VEC4"
    },
    {
      "bufferView": 2,
      "byteOffset": 60576,
      "componentType": 5126,
      "count": 564,
      "max": [
        0.87255859375,
        -0.024505615234375
      ],
      "min": [
        0.00514984130859375,
        -0.9931640625
      ],
      "type": "VEC2"
    },
    {
      "bufferView": 1,
      "byteOffset": 81360,
      "componentType": 5125,
      "count": 1689,
      "type": "SCALAR"
    },
    {
      "bufferView": 3,
      "byteOffset": 195264,
      "componentType": 5126,
      "count": 564,
      "max": [
        -0.1702679991722107,
        0.0157884880900383,
        0.14391599595546722
      ],
      "min": [
        -0.21875900030136108,
        -1.4712810298078693e-05,
        0.09649419784545898
      ],
      "type": "VEC3"
    },
    {
      "bufferView": 3,
      "byteOffset": 202032,
      "componentType": 5126,
      "count": 564,
      "max": [
        0.9996670484542847,
        0.9999226331710815,
        0.9998685121536255
      ],
      "min": [
        -0.9998500347137451,
        -1.0,
        -0.9998612403869629
      ],
      "type": "VEC3"
    },
    {
      "bufferView": 4,
      "byteOffset": 130176,
      "componentType": 5126,
      "count": 564,
      "max": [
        0.9773252010345459,
        0.9999651908874512,
        0.9828082919120789,
        1.0
      ],
      "min": [
        -0.8512738347053528,
        -0.9999083280563354,
        -0.7783865332603455,
        -1.0
      ],
      "type": "VEC4"
    },
    {
      "bufferView": 2,
      "byteOffset": 65088,
      "componentType": 5126,
      "count": 564,
      "max": [
        0.87255859375,
        -0.024505615234375
      ],
      "min": [
        0.00514984130859375,
        -0.9931640625
      ],
      "type": "VEC2"
    },
    {
      "bufferView": 1,
      "byteOffset": 88116,
      "componentType": 5125,
      "count": 1689,
      "type": "SCALAR"
    },
    {
      "bufferView": 3,
      "byteOffset": 208800,
      "componentType": 5126,
      "count": 564,
      "max": [
        -0.1702679991722107,
        0.0157884880900383,
        -0.09649419784545898
      ],
      "min": [
        -0.21875900030136108,
        -1.4712810298078693e-05,
        -0.14391599595546722
      ],
      "type": "VEC3"
    },
    {
      "bufferView": 3,
      "byteOffset": 215568,
      "componentType": 5126,
      "count": 564,
      "max": [
        0.9996670484542847,
        0.9999226331710815,
        0.9998612403869629
      ],
      "min": [
        -0.9998500347137451,
        -1.0,
        -0.9998685121536255
      ],
      "type": "VEC3"
    },
    {
      "bufferView": 4,
      "byteOffset": 139200,
      "componentType": 5126,
      "count": 564,
      "max": [
        0.9773252010345459,
        0.9999651908874512,
        0.7783865332603455,
        1.0
      ],
      "min": [
        -0.8512738347053528,
        -0.9999083280563354,
        -0.9828082919120789,
        -1.0
      ],
      "type": "VEC4"
    },
    {
      "bufferView": 2,
      "byteOffset": 69600,
      "componentType": 5126,
      "count": 564,
      "max": [
        0.87255859375,
        -0.024505615234375
      ],
      "min": [
        0.00514984130859375,
        -0.9931640625
      ],
      "type": "VEC2"
    },
    {
      "bufferView": 1,
      "byteOffset": 94872,
      "componentType": 5125,
      "count": 1689,
      "type": "SCALAR"
    },
    {
      "bufferView": 3,
      "byteOffset": 222336,
      "componentType": 5126,
      "count": 1946,
      "max": [
        0.0562392994761467,
        0.2387329787015915,
        0.056092698127031326
      ],
      "min": [
        -0.0562392994761467,
        0.08572549372911453,
        -0.07238764315843582
      ],
      "type": "VEC3"
    },
    {
      "bufferView": 3,
      "byteOffset": 245688,
      "componentType": 5126,
      "count": 1946,
      "max": [
        1.0,
        1.0,
        1.0
      ],
      "min": [
        -1.0,
        -1.0,
        -1.0
      ],
      "type": "VEC3"
    },
    {
      "bufferView": 4,
      "byteOffset": 148224,
      "componentType": 5126,
      "count": 1946,
      "max": [
        1.0,
        1.0,
        1.0,
        1.0
      ],
      "min": [
        -1.0,
        -1.0,
        -1.0,
        -1.0
      ],
      "type": "VEC4"
    },
    {
      "bufferView": 2,
      "byteOffset": 74112,
      "componentType": 5126,
      "count": 1946,
      "max": [
        0.96630859375,
        -0.00849151611328125
      ],
      "min": [
        0.0041046142578125,
        -0.97412109375
      ],
      "type": "VEC2"
    },
    {
      "bufferView": 1,
      "byteOffset": 101628,
      "componentType": 5125,
      "count": 5775,
      "type": "SCALAR"
    },
    {
      "bufferView": 3,
      "byteOffset": 269040,
      "componentType": 5126,
      "count": 353,
      "max": [
        0.20111601054668427,
        0.30904197692871094,
        0.12661999464035034
      ],
      "min": [
        0.1331620067358017,
        0.005121317226439714,
        0.06196559593081474
      ],
      "type": "VEC3"
    },
    {
      "bufferView": 3,
      "byteOffset": 273276,
      "componentType": 5126,
      "count": 353,
      "max": [
        0.9993102550506592,
        0.9996252059936523,
        0.9958567023277283
      ],
      "min": [
        -0.984010636806488,
        -0.9974206686019897,
        -0.9774349927902222
      ],
      "type": "VEC3"
    },
    {
      "bufferView": 4,
      "byteOffset": 179360,
      "componentType": 5126,
      "count": 353,
      "max": [
        1.0,
        0.966296374797821,
        0.9841622114181519,
        1.0
      ],
      "min": [
        -0.9991119503974915,
        -0.7022879719734192,
        -0.9945849776268005,
        -1.0
      ],
      "type": "VEC4"
    },
    {
      "bufferView": 2,
      "byteOffset": 89680,
      "componentType": 5126,
      "count": 353,
      "max": [
        0.9453125,
        -0.27392578125
      ],
      "min": [
        0.254150390625,
        -0.7275390625
      ],
      "type": "VEC2"
    },
    {
      "bufferView": 1,
      "byteOffset": 124728,
      "componentType": 5125,
      "count": 1020,
      "type": "SCALAR"
    },
    {
      "bufferView": 3,
      "byteOffset": 277512,
      "componentType": 5126,
      "count": 353,
      "max": [
        0.20111601054668427,
        0.30904197692871094,
        -0.06196559593081474
      ],
      "min": [
        0.1331620067358017,
        0.005121317226439714,
        -0.12661999464035034
      ],
      "type": "VEC3"
    },
    {
      "bufferView": 3,
      "byteOffset": 281748,
      "componentType": 5126,
      "count": 353,
      "max": [
        0.9993102550506592,
        0.9996252059936523,
        0.9774349927902222
      ],
      "min": [
        -0.984010636806488,
        -0.9974206686019897,
        -0.9958567023277283
      ],
      "type": "VEC3"
    },
    {
      "bufferView": 4,
      "byteOffset": 185008,
      "componentType": 5126,
      "count": 353,
      "max": [
        1.0,
        0.966296374797821,
        0.9945849776268005,
        1.0
      ],
      "min": [
        -0.9991119503974915,
        -0.47752103209495544,
        -0.9841622114181519,
        -1.0
      ],
      "type": "VEC4"
    },
    {
      "bufferView": 2,
      "byteOffset": 92504,
      "componentType": 5126,
      "count": 353,
      "max": [
        0.9453125,
        -0.27392578125
      ],
      "min": [
        0.254150390625,
        -0.7275390625
      ],
      "type": "VEC2"
    },
    {
      "bufferView": 1,
      "byteOffset": 128808,
      "componentType": 5125,
      "count": 1020,
      "type": "SCALAR"
    },
    {
      "bufferView": 3,
      "byteOffset": 285984,
      "componentType": 5126,
      "count": 353,
      "max": [
        -0.1331620067358017,
        0.30904197692871094,
        0.12661999464035034
      ],
      "min": [
        -0.20111601054668427,
        0.005121317226439714,
        0.06196559593081474
      ],
      "type": "VEC3"
    },
    {
      "bufferView": 3,
      "byteOffset": 290220,
      "componentType": 5126,
      "count": 353,
      "max": [
        0.984010636806488,
        0.9996252059936523,
        0.9958567023277283
      ],
      "min": [
        -0.9993102550506592,
        -0.9974206686019897,
        -0.9774349927902222
      ],
      "type": "VEC3"
    },
    {
      "bufferView": 4,
      "byteOffset": 190656,
      "componentType": 5126,
      "count": 353,
      "max": [
        1.0,
        0.966296374797821,
        0.9841622114181519,
        1.0
      ],
      "min": [
        -0.9998655319213867,
        -0.47752103209495544,
        -0.9945849776268005,
        -1.0
      ],
      "type": "VEC4"
    },
    {
      "bufferView": 2,
      "byteOffset": 95328,
      "componentType": 5126,
      "count": 353,
      "max": [
        0.9453125,
        -0.27392578125
      ],
      "min": [
        0.254150390625,
        -0.7275390625
      ],
      "type": "VEC2"
    },
    {
      "bufferView": 1,
      "byteOffset": 132888,
      "componentType": 5125,
      "count": 1020,
      "type": "SCALAR"
    },
    {
      "bufferView": 3,
      "byteOffset": 294456,
      "componentType": 5126,
      "count": 353,
      "max": [
        -0.1331620067358017,
        0.30904197692871094,
        -0.06196559593081474
      ],
      "min": [
        -0.20111601054668427,
        0.005121317226439714,
        -0.12661999464035034
      ],
      "type": "VEC3"
    },
    {
      "bufferView": 3,
      "byteOffset": 298692,
      "componentType": 5126,
      "count": 353,
      "max": [
        0.984010636806488,
        0.9996252059936523,
        0.9774349927902222
      ],
      "min": [
        -0.9993102550506592,
        -0.9974206686019897,
        -0.9958567023277283
      ],
      "type": "VEC3"
    },
    {
      "bufferView": 4,
      "byteOffset": 196304,
      "componentType": 5126,
      "count": 353,
      "max": [
        1.0,
        0.966296374797821,
        0.9945849776268005,
        1.0
      ],
      "min": [
        -0.9998655319213867,
        -0.7022879719734192,
        -0.9841622114181519,
        -1.0
      ],
      "type": "VEC4"
    },
    {
      "bufferView": 2,
      "byteOffset": 98152,
      "componentType": 5126,
      "count": 353,
      "max": [
        0.9453125,
        -0.27392578125
      ],
      "min": [
        0.254150390625,
        -0.7275390625
      ],
      "type": "VEC2"
    },
    {
      "bufferView": 1,
      "byteOffset": 136968,
      "componentType": 5125,
      "count": 1020,
      "type": "SCALAR"
    },
    {
      "bufferView": 5,
      "componentType": 5126,
      "count": 55,
      "max": [
        1.0,
        0.0,
        2.7755575615628914e-17,
        0.0,
        0.0,
        1.0,
        0.0,
        0.0,
        1.1357771150386887e-32,
        0.0,
        1.0,
        0.0,
        0.19456899166107178,
        0.0,
        0.12018799781799316,
        1.0
      ],
      "min": [
        1.0,
        0.0,
        0.0,
        0.0,
        0.0,
        1.0,
        0.0,
        0.0,
        0.0,
        0.0,
        1.0,
        0.0,
        -0.19456899166107178,
        -0.22462499141693115,
        -0.12018799781799316,
        1.0
      ],
      "type": "MAT4"
    },
    {
      "bufferView": 0,
      "componentType": 5123,
      "count": 1329,
      "type": "VEC4"
    },
    {
      "bufferView": 4,
      "byteOffset": 201952,
      "componentType": 5126,
      "count": 1329,
      "max": [
        1.0,
        0.4868863523006439,
        0.1041259765625,
        0.0994873046875
      ],
      "min": [
        0.398193359375,
        0.0,
        0.0,
        0.0
      ],
      "type": "VEC4"
    },
    {
      "bufferView": 0,
      "byteOffset": 10632,
      "componentType": 5123,
      "count": 1330,
      "type": "VEC4"
    },
    {
      "bufferView": 4,
      "byteOffset": 223216,
      "componentType": 5126,
      "count": 1330,
      "max": [
        1.0,
        0.5,
        0.11160194128751755,
        0.0994873046875
      ],
      "min": [
        0.398193359375,
        0.0,
        0.0,
        0.0
      ],
      "type": "VEC4"
    },
    {
      "bufferView": 0,
      "byteOffset": 21272,
      "componentType": 5123,
      "count": 1329,
      "type": "VEC4"
    },
    {
      "bufferView": 4,
      "byteOffset": 244496,
      "componentType": 5126,
      "count": 1329,
      "max": [
        1.0,
        0.5,
        0.16659800708293915,
        0.0994873046875
      ],
      "min": [
        0.398193359375,
        0.0,
        0.0,
        0.0
      ],
      "type": "VEC4"
    },
    {
      "bufferView": 0,
      "byteOffset": 31904,
      "componentType": 5123,
      "count": 1331,
      "type": "VEC4"
    },
    {
      "bufferView": 4,
      "byteOffset": 265760,
      "componentType": 5126,
      "count": 1331,
      "max": [
        1.0,
        0.5,
        0.11160194128751755,
        0.0994873046875
      ],
      "min": [
        0.398193359375,
        0.0,
        0.0,
        0.0
      ],
      "type": "VEC4"
    },
    {
      "bufferView": 0,
      "byteOffset": 42552,
      "componentType": 5123,
      "count": 1617,
      "type": "VEC4"
    },
    {
      "bufferView": 4,
      "byteOffset": 287056,
      "componentType": 5126,
      "count": 1617,
      "max": [
        1.0,
        0.0,
        0.0,
        0.0
      ],
      "min": [
        1.0,
        0.0,
        0.0,
        0.0
      ],
      "type": "VEC4"
    },
    {
      "bufferView": 0,
      "byteOffset": 55488,
      "componentType": 5123,
      "count": 636,
      "type": "VEC4"
    },
    {
      "bufferView": 4,
      "byteOffset": 312928,
      "componentType": 5126,
      "count": 636,
      "max": [
        1.0,
        0.0,
        0.0,
        0.0
      ],
      "min": [
        1.0,
        0.0,
        0.0,
        0.0
      ],
      "type": "VEC4"
    },
    {
      "bufferView": 0,
      "byteOffset": 60576,
      "componentType": 5123,
      "count": 564,
      "type": "VEC4"
    },
    {
      "bufferView": 4,
      "byteOffset": 323104,
      "componentType": 5126,
      "count": 564,
      "max": [
        1.0,
        0.0,
        0.0,
        0.0
      ],
      "min": [
        1.0,
        0.0,
        0.0,
        0.0
      ],
      "type": "VEC4"
    },
    {
      "bufferView": 0,
      "byteOffset": 65088,
      "componentType": 5123,
      "count": 564,
      "type": "VEC4"
    },
    {
      "bufferView": 4,
      "byteOffset": 332128,
      "componentType": 5126,
      "count": 564,
      "max": [
        1.0,
        0.0,
        0.0,
        0.0
      ],
      "min": [
        1.0,
        0.0,
        0.0,
        0.0
      ],
      "type": "VEC4"
    },
    {
      "bufferView": 0,
      "byteOffset": 69600,
      "componentType": 5123,
      "count": 564,
      "type": "VEC4"
    },
    {
      "bufferView": 4,
      "byteOffset": 341152,
      "componentType": 5126,
      "count": 564,
      "max": [
        1.0,
        0.0,
        0.0,
        0.0
      ],
      "min": [
        1.0,
        0.0,
        0.0,
        0.0
      ],
      "type": "VEC4"
    },
    {
      "bufferView": 0,
      "byteOffset": 74112,
      "componentType": 5123,
      "count": 1946,
      "type": "VEC4"
    },
    {
      "bufferView": 4,
      "byteOffset": 350176,
      "componentType": 5126,
      "count": 1946,
      "max": [
        1.0,
        0.5,
        0.3333333432674408,
        0.0
      ],
      "min": [
        0.3333333134651184,
        0.0,
        0.0,
        0.0
      ],
      "type": "VEC4"
    },
    {
      "bufferView": 0,
      "byteOffset": 89680,
      "componentType": 5123,
      "count": 353,
      "type": "VEC4"
    },
    {
      "bufferView": 4,
      "byteOffset": 381312,
      "componentType": 5126,
      "count": 353,
      "max": [
        1.0,
        0.0,
        0.0,
        0.0
      ],
      "min": [
        1.0,
        0.0,
        0.0,
        0.0
      ],
      "type": "VEC4"
    },
    {
      "bufferView": 0,
      "byteOffset": 92504,
      "componentType": 5123,
      "count": 353,
      "type": "VEC4"
    },
    {
      "bufferView": 4,
      "byteOffset": 386960,
      "componentType": 5126,
      "count": 353,
      "max": [
        1.0,
        0.0,
        0.0,
        0.0
      ],
      "min": [
        1.0,
        0.0,
        0.0,
        0.0
      ],
      "type": "VEC4"
    },
    {
      "bufferView": 0,
      "byteOffset": 95328,
      "componentType": 5123,
      "count": 353,
      "type": "VEC4"
    },
    {
      "bufferView": 4,
      "byteOffset": 392608,
      "componentType": 5126,
      "count": 353,
      "max": [
        1.0,
        0.0,
        0.0,
        0.0
      ],
      "min": [
        1.0,
        0.0,
        0.0,
        0.0
      ],
      "type": "VEC4"
    },
    {
      "bufferView": 0,
      "byteOffset": 98152,
      "componentType": 5123,
      "count": 353,
      "type": "VEC4"
    },
    {
      "bufferView": 4,
      "byteOffset": 398256,
      "componentType": 5126,
      "count": 353,
      "max": [
        1.0,
        0.0,
        0.0,
        0.0
      ],
      "min": [
        1.0,
        0.0,
        0.0,
        0.0
      ],
      "type": "VEC4"
    }
  ],
  "asset": {
    "extras": {
      "author": "Mind Mulch for The Masses (https://sketchfab.com/mindmulchforthemasses)",
      "license": "CC-BY-4.0 (http://creativecommons.org/licenses/by/4.0/)",
      "source": "https://sketchfab.com/3d-models/homing-spider-droid-5b714fe3a31f42e197ec0ed0e4d27c56",
      "title": "Homing Spider Droid"
    },
    "generator": "Sketchfab-12.68.0",
    "version": "2.0"
  },
  "bufferViews": [
    {
      "buffer": 0,
      "byteLength": 100976,
      "byteStride": 8,
      "name": "shortBufferViews",
      "target": 34962
    },
    {
      "buffer": 0,
      "byteLength": 141048,
      "byteOffset": 100976,
      "name": "floatBufferViews",
      "target": 34963
    },
    {
      "buffer": 0,
      "byteLength": 100976,
      "byteOffset": 242024,
      "byteStride": 8,
      "name": "floatBufferViews",
      "target": 34962
    },
    {
      "buffer": 0,
      "byteLength": 302928,
      "byteOffset": 343000,
      "byteStride": 12,
      "name": "floatBufferViews",
      "target": 34962
    },
    {
      "buffer": 0,
      "byteLength": 403904,
      "byteOffset": 645928,
      "byteStride": 16,
      "name": "floatBufferViews",
      "target": 34962
    },
    {
      "buffer": 0,
      "byteLength": 3520,
      "byteOffset": 1049832,
      "name": "floatBufferViews"
    }
  ],
  "buffers": [
    {
      "byteLength": 1053352,
      "uri": "scene.bin"
    }
  ],
  "images": [
    {
      "uri": "textures/cin_homing_droid_diff_baseColor.jpeg"
    },
    {
      "uri": "textures/cin_homing_droid_diff_metallicRoughness.png"
    },
    {
      "uri": "textures/cin_homing_droid_diff_emissive.jpeg"
    },
    {
      "uri": "textures/cin_homing_droid_diff_normal.jpeg"
    }
  ],
  "materials": [
    {
      "emissiveFactor": [
        1.0,
        1.0,
        1.0
      ],
      "emissiveTexture": {
        "index": 2
      },
      "name": "cin_homing_droid_diff",
      "normalTexture": {
        "index": 3
      },
      "pbrMetallicRoughness": {
        "baseColorTexture": {
          "index": 0
        },
        "metallicFactor": 0.0,
        "metallicRoughnessTexture": {
          "index": 1
        },
        "roughnessFactor": 0.5
      }
    }
  ],
  "meshes": [
    {
      "name": "Object_0",
      "primitives": [
        {
          "attributes": {
            "JOINTS_0": 71,
            "NORMAL": 1,
            "POSITION": 0,
            "TANGENT": 2,
            "TEXCOORD_0": 3,
            "TEXCOORD_1": 3,
            "TEXCOORD_2": 3,
            "TEXCOORD_3": 3,
            "TEXCOORD_4": 3,
            "WEIGHTS_0": 72
          },
          "indices": 4,
          "material": 0,
          "mode": 4
        }
      ]
    },
    {
      "name": "Object_1",
      "primitives": [
        {
          "attributes": {
            "JOINTS_0": 73,
            "NORMAL": 6,
            "POSITION": 5,
            "TANGENT": 7,
            "TEXCOORD_0": 8,
            "TEXCOORD_1": 8,
            "TEXCOORD_2": 8,
            "TEXCOORD_3": 8,
            "TEXCOORD_4": 8,
            "WEIGHTS_0": 74
          },
          "indices": 9,
          "material": 0,
          "mode": 4
        }
      ]
    },
    {
      "name": "Object_2",
      "primitives": [
        {
          "attributes": {
            "JOINTS_0": 75,
            "NORMAL": 11,
            "POSITION": 10,
            "TANGENT": 12,
            "TEXCOORD_0": 13,
            "TEXCOORD_1": 13,
            "TEXCOORD_2": 13,
            "TEXCOORD_3": 13,
            "TEXCOORD_4": 13,
            "WEIGHTS_0": 76
          },
          "indices": 14,
          "material": 0,
          "mode": 4
        }
      ]
    },
    {
      "name": "Object_3",
      "primitives": [
        {
          "attributes": {
            "JOINTS_0": 77,
            "NORMAL": 16,
            "POSITION": 15,
            "TANGENT": 17,
            "TEXCOORD_0": 18,
            "TEXCOORD_1": 18,
            "TEXCOORD_2": 18,
            "TEXCOORD_3": 18,
            "TEXCOORD_4": 18,
            "WEIGHTS_0": 78
          },
          "indices": 19,
          "material": 0,
          "mode": 4
        }
      ]
    },
    {
      "name": "Object_4",
      "primitives": [
        {
          "attributes": {
            "JOINTS_0": 79,
            "NORMAL": 21,
            "POSITION": 20,
            "TANGENT": 22,
            "TEXCOORD_0": 23,
            "TEXCOORD_1": 23,
            "TEXCOORD_2": 23,
            "TEXCOORD_3": 23,
            "TEXCOORD_4": 23,
            "WEIGHTS_0": 80
          },
          "indices": 24,
          "material": 0,
          "mode": 4
        }
      ]
    },
    {
      "name": "Object_5",
      "primitives": [
        {
          "attributes": {
            "JOINTS_0": 81,
            "NORMAL": 26,
            "POSITION": 25,
            "TANGENT": 27,
            "TEXCOORD_0": 28,
            "TEXCOORD_1": 28,
            "TEXCOORD_2": 28,
            "TEXCOORD_3": 28,
            "TEXCOORD_4": 28,
            "WEIGHTS_0": 82
          },
          "indices": 29,
          "material": 0,
          "mode": 4
        }
      ]
    },
    {
      "name": "Object_6",
      "primitives": [
        {
          "attributes": {
            "JOINTS_0": 83,
            "NORMAL": 31,
            "POSITION": 30,
            "TANGENT": 32,
            "TEXCOORD_0": 33,
            "TEXCOORD_1": 33,
            "TEXCOORD_2": 33,
            "TEXCOORD_3": 33,
            "TEXCOORD_4": 33,
            "WEIGHTS_0": 84
          },
          "indices": 34,
          "material": 0,
          "mode": 4
        }
      ]
    },
    {
      "name": "Object_7",
      "primitives": [
        {
          "attributes": {
            "JOINTS_0": 85,
            "NORMAL": 36,
            "POSITION": 35,
            "TANGENT": 37,
            "TEXCOORD_0": 38,
            "TEXCOORD_1": 38,
            "TEXCOORD_2": 38,
            "TEXCOORD_3": 38,
            "TEXCOORD_4": 38,
            "WEIGHTS_0": 86
          },
          "indices": 39,
          "material": 0,
          "mode": 4
        }
      ]
    },
    {
      "name": "Object_8",
      "primitives": [
        {
          "attributes": {
            "JOINTS_0": 87,
            "NORMAL": 41,
            "POSITION": 40,
            "TANGENT": 42,
            "TEXCOORD_0": 43,
            "TEXCOORD_1": 43,
            "TEXCOORD_2": 43,
            "TEXCOORD_3": 43,
            "TEXCOORD_4": 43,
            "WEIGHTS_0": 88
          },
          "indices": 44,
          "material": 0,
          "mode": 4
        }
      ]
    },
    {
      "name": "Object_9",
      "primitives": [
        {
          "attributes": {
            "JOINTS_0": 89,
            "NORMAL": 46,
            "POSITION": 45,
            "TANGENT": 47,
            "TEXCOORD_0": 48,
            "TEXCOORD_1": 48,
            "TEXCOORD_2": 48,
            "TEXCOORD_3": 48,
            "TEXCOORD_4": 48,
            "WEIGHTS_0": 90
          },
          "indices": 49,
          "material": 0,
          "mode": 4
        }
      ]
    },
    {
      "name": "Object_10",
      "primitives": [
        {
          "attributes": {
            "JOINTS_0": 91,
            "NORMAL": 51,
            "POSITION": 50,
            "TANGENT": 52,
            "TEXCOORD_0": 53,
            "TEXCOORD_1": 53,
            "TEXCOORD_2": 53,
            "TEXCOORD_3": 53,
            "TEXCOORD_4": 53,
            "WEIGHTS_0": 92
          },
          "indices": 54,
          "material": 0,
          "mode": 4
        }
      ]
    },
    {
      "name": "Object_11",
      "primitives": [
        {
          "attributes": {
            "JOINTS_0": 93,
            "NORMAL": 56,
            "POSITION": 55,
            "TANGENT": 57,
            "TEXCOORD_0": 58,
            "TEXCOORD_1": 58,
            "TEXCOORD_2": 58,
            "TEXCOORD_3": 58,
            "TEXCOORD_4": 58,
            "WEIGHTS_0": 94
          },
          "indices": 59,
          "material": 0,
          "mode": 4
        }
      ]
    },
    {
      "name": "Object_12",
      "primitives": [
        {
          "attributes": {
            "JOINTS_0": 95,
            "NORMAL": 61,
            "POSITION": 60,
            "TANGENT": 62,
            "TEXCOORD_0": 63,
            "TEXCOORD_1": 63,
            "TEXCOORD_2": 63,
            "TEXCOORD_3": 63,
            "TEXCOORD_4": 63,
            "WEIGHTS_0": 96
          },
          "indices": 64,
          "material": 0,
          "mode": 4
        }
      ]
    },
    {
      "name": "Object_13",
      "primitives": [
        {
          "attributes": {
            "JOINTS_0": 97,
            "NORMAL": 66,
            "POSITION": 65,
            "TANGENT": 67,
            "TEXCOORD_0": 68,
            "TEXCOORD_1": 68,
            "TEXCOORD_2": 68,
            "TEXCOORD_3": 68,
            "TEXCOORD_4": 68,
            "WEIGHTS_0": 98
          },
          "indices": 69,
          "material": 0,
          "mode": 4
        }
      ]
    }
  ],
  "nodes": [
    {
      "children": [
        1
      ],
      "matrix": [
        1.0,
        0.0,
        0.0,
        0.0,
        0.0,
        2.220446049250313e-16,
        -1.0,
        0.0,
        0.0,
        1.0,
        2.220446049250313e-16,
        0.0,
        0.0,
        0.0,
        0.0,
        1.0
      ],
      "name": "Sketchfab_model"
    },
    {
      "children": [
        2
      ],
      "name": "root"
    },
    {
      "children": [
        3
      ],
      "matrix": [
        1.0,
        0.0,
        0.0,
        0.0,
        0.0,
        2.220446049250313e-16,
        1.0,
        0.0,
        0.0,
        -1.0,
        2.220446049250313e-16,
        0.0,
        0.0,
        0.0,
        0.0,
        1.0
      ],
      "name": "GLTF_SceneRootNode"
    },
    {
      "children": [
        4
      ],
      "matrix": [
        -1.7999770252793414,
        0.0,
        7.374304078147531,
        0.0,
        0.0,
        7.590799808502197,
        0.0,
        0.0,
        -7.374304078147531,
        0.0,
        -1.7999770252793414,
        0.0,
        -14.211000442504883,
        0.28600001335144043,
        -3.2170000076293945,
        1.0
      ],
      "name": "Homing Droid_0"
    },
    {
      "children": [
        5,
        7,
        9,
        11,
        13,
        15,
        17,
        19,
        21,
        23,
        25,
        27,
        29,
        31,
        33,
        6,
        8,
        10,
        12,
        14,
        16,
        18,
        20,
        22,
        24,
        26,
        28,
        30,
        32
      ],
      "name": "GLTF_created_0"
    },
    {
      "children": [
        34
      ],
      "name": "GLTF_created_0_rootJoint"
    },
    {
      "name": "part_arm_L_B_55"
    },
    {
      "mesh": 0,
      "name": "Object_7",
      "skin": 0
    },
    {
      "name": "part_arm_L_F_56"
    },
    {
      "mesh": 1,
      "name": "Object_9",
      "skin": 0
    },
    {
      "name": "part_arm_R_B_57"
    },
    {
      "mesh": 2,
      "name": "Object_11",
      "skin": 0
    },
    {
      "name": "part_arm_R_F_58"
    },
    {
      "mesh": 3,
      "name": "Object_13",
      "skin": 0
    },
    {
      "name": "part_bottom_gun_59"
    },
    {
      "mesh": 4,
      "name": "Object_15",
      "skin": 0
    },
    {
      "name": "part_foot_L_B_60"
    },
    {
      "mesh": 5,
      "name": "Object_17",
      "skin": 0
    },
    {
      "name": "part_foot_L_F_61"
    },
    {
      "mesh": 6,
      "name": "Object_19",
      "skin": 0
    },
    {
      "name": "part_foot_R_B_62"
    },
    {
      "mesh": 7,
      "name": "Object_21",
      "skin": 0
    },
    {
      "name": "part_foot_R_F_63"
    },
    {
      "mesh": 8,
      "name": "Object_23",
      "skin": 0
    },
    {
      "name": "part_head_64"
    },
    {
      "mesh": 9,
      "name": "Object_25",
      "skin": 0
    },
    {
      "name": "part_shin_L_B_65"
    },
    {
      "mesh": 10,
      "name": "Object_27",
      "skin": 0
    },
    {
      "name": "part_shin_L_F_66"
    },
    {
      "mesh": 11,
      "name": "Object_29",
      "skin": 0
    },
    {
      "name": "part_shin_R_B_67"
    },
    {
      "mesh": 12,
      "name": "Object_31",
      "skin": 0
    },
    {
      "name": "part_shin_R_F_68"
    },
    {
      "mesh": 13,
      "name": "Object_33",
      "skin": 0
    },
    {
      "children": [
        35,
        47,
        59,
        71,
        83
      ],
      "name": "bone_pelvis_1",
      "rotation": [
        0.0,
        0.0,
        0.0,
        -1.0
      ],
      "translation": [
        0.0,
        0.14251099526882172,
        0.0
      ]
    },
    {
      "children": [
        36
      ],
      "name": "bone_l_b_legBase_1_2",
      "rotation": [
        0.0,
        0.0,
        0.0,
        -1.0
      ],
      "translation": [
        0.046633899211883545,
        -0.0016649913741275668,
        0.005848389584571123
      ]
    },
    {
      "children": [
        37,
        39,
        41,
        45
      ],
      "name": "bone_l_b_legBase_2_3",
      "rotation": [
        0.0,
        0.0,
        0.0,
        -1.0
      ],
      "translation": [
        0.03629260137677193,
        0.0,
        0.007721609901636839
      ]
    },
    {
      "children": [
        38
      ],
      "name": "bone_l_b_loTorsion_1_4",
      "rotation": [
        0.0,
        0.0,
        0.0,
        -1.0
      ],
      "translation": [
        0.011535797268152237,
        -1.0004043360822834e-05,
        0.011016701348125935
      ]
    },
    {
      "name": "bone_l_b_loTorsion_2_5",
      "rotation": [
        0.0,
        0.0,
        0.0,
        -1.0
      ],
      "translation": [
        0.054817695170640945,
        0.05430399626493454,
        0.052351098507642746
      ]
    },
    {
      "children": [
        40
      ],
      "name": "bone_l_b_upTorsion_1_12",
      "rotation": [
        0.0,
        0.0,
        0.0,
        -1.0
      ],
      "translation": [
        0.007503099273890257,
        0.022206000983715057,
        0.007165499962866306
      ]
    },
    {
      "name": "bone_l_b_upTorsion_2_13",
      "rotation": [
        0.0,
        0.0,
        0.0,
        -1.0
      ],
      "translation": [
        0.05578639730811119,
        0.04732700064778328,
        0.05327599495649338
      ]
    },
    {
      "children": [
        42
      ],
      "name": "bone_l_b_pri_1_6",
      "rotation": [
        0.0,
        0.0,
        0.0,
        -1.0
      ],
      "translation": [
        0.0,
        0.005695991218090057,
        0.0
      ]
    },
    {
      "children": [
        43
      ],
      "name": "bone_l_b_pri_2_7",
      "rotation": [
        0.0,
        0.0,
        0.0,
        -1.0
      ],
      "translation": [
        0.07299249619245529,
        0.06266599148511887,
        0.06970739364624023
      ]
    },
    {
      "children": [
        44
      ],
      "name": "bone_l_b_pri_3_8",
      "rotation": [
        0.0,
        0.0,
        0.0,
        -1.0
      ],
      "translation": [
        0.03864999860525131,
        -0.19638000428676605,
        0.03691060096025467
      ]
    },
    {
      "name": "bone_l_b_foot_9",
      "rotation": [
        0.0,
        0.0,
        0.0,
        -1.0
      ]
    },
    {
      "children": [
        46
      ],
      "name": "bone_l_b_sec_1_10",
      "rotation": [
        0.0,
        0.0,
        0.0,
        -1.0
      ],
      "translation": [
        0.0,
        0.005695991218090057,
        0.0
      ]
    },
    {
      "name": "bone_l_b_sec_2_11",
      "rotation": [
        0.0,
        0.0,
        0.0,
        -1.0
      ],
      "translation": [
        0.07299249619245529,
        0.06266599148511887,
        0.06970739364624023
      ]
    },
    {
      "children": [
        48
      ],
      "name": "bone_l_f_legBase_1_14",
      "rotation": [
        0.0,
        0.0,
        0.0,
        -1.0
      ],
      "translation": [
        0.046633899211883545,
        -0.0016649913741275668,
        -0.005848389584571123
      ]
    },
    {
      "children": [
        49,
        51,
        53,
        57
      ],
      "name": "bone_l_f_legBase_2_15",
      "rotation": [
        0.0,
        0.0,
        0.0,
        -1.0
      ],
      "translation": [
        0.03629260137677193,
        0.0,
        -0.007721609901636839
      ]
    },
    {
      "children": [
        50
      ],
      "name": "bone_l_f_loTorsion_1_16",
      "rotation": [
        0.0,
        0.0,
        0.0,
        -1.0
      ],
      "translation": [
        0.011535797268152237,
        -1.0004043360822834e-05,
        -0.011016701348125935
      ]
    },
    {
      "name": "bone_l_f_loTorsion_2_17",
      "rotation": [
        0.0,
        0.0,
        0.0,
        -1.0
      ],
      "translation": [
        0.054817695170640945,
        0.05430399626493454,
        -0.052351098507642746
      ]
    },
    {
      "children": [
        52
      ],
      "name": "bone_l_f_upTorsion_1_24",
      "rotation": [
        0.0,
        0.0,
        0.0,
        -1.0
      ],
      "translation": [
        0.007503099273890257,
        0.022206000983715057,
        -0.007165499962866306
      ]
    },
    {
      "name": "bone_l_f_upTorsion_2_25",
      "rotation": [
        0.0,
        0.0,
        0.0,
        -1.0
      ],
      "translation": [
        0.05578639730811119,
        0.04732700064778328,
        -0.05327599495649338
      ]
    },
    {
      "children": [
        54
      ],
      "name": "bone_l_f_pri_1_18",
      "rotation": [
        0.0,
        0.0,
        0.0,
        -1.0
      ],
      "translation": [
        0.0,
        0.005695991218090057,
        0.0
      ]
    },
    {
      "children": [
        55
      ],
      "name": "bone_l_f_pri_2_19",
      "rotation": [
        0.0,
        0.0,
        0.0,
        -1.0
      ],
      "translation": [
        0.07299249619245529,
        0.06266599148511887,
        -0.06970739364624023
      ]
    },
    {
      "children": [
        56
      ],
      "name": "bone_l_f_pri_3_20",
      "rotation": [
        0.0,
        0.0,
        0.0,
        -1.0
      ],
      "translation": [
        0.03864999860525131,
        -0.19638000428676605,
        -0.03691060096025467
      ]
    },
    {
      "name": "bone_l_f_foot_21",
      "rotation": [
        0.0,
        0.0,
        0.0,
        -1.0
      ]
    },
    {
      "children": [
        58
      ],
      "name": "bone_l_f_sec_1_22",
      "rotation": [
        0.0,
        0.0,
        0.0,
        -1.0
      ],
      "translation": [
        0.0,
        0.005695991218090057,
        0.0
      ]
    },
    {
      "name": "bone_l_f_sec_2_23",
      "rotation": [
        0.0,
        0.0,
        0.0,
        -1.0
      ],
      "translation": [
        0.07299249619245529,
        0.06266599148511887,
        -0.06970739364624023
      ]
    },
    {
      "children": [
        60
      ],
      "name": "bone_r_b_legBase_1_31",
      "rotation": [
        0.0,
        0.0,
        0.0,
        -1.0
      ],
      "translation": [
        -0.046633899211883545,
        -0.0016649913741275668,
        0.005848389584571123
      ]
    },
    {
      "children": [
        61,
        63,
        65,
        69
      ],
      "name": "bone_r_b_legBase_2_32",
      "rotation": [
        0.0,
        0.0,
        0.0,
        -1.0
      ],
      "translation": [
        -0.03629260137677193,
        0.0,
        0.007721609901636839
      ]
    },
    {
      "children": [
        62
      ],
      "name": "bone_r_b_loTorsion_1_33",
      "rotation": [
        0.0,
        0.0,
        0.0,
        -1.0
      ],
      "translation": [
        -0.011535797268152237,
        -1.0004043360822834e-05,
        0.011016701348125935
      ]
    },
    {
      "name": "bone_r_b_loTorsion_2_34",
      "rotation": [
        0.0,
        0.0,
        0.0,
        -1.0
      ],
      "translation": [
        -0.054817695170640945,
        0.05430399626493454,
        0.052351098507642746
      ]
    },
    {
      "children": [
        64
      ],
      "name": "bone_r_b_upTorsion_1_41",
      "rotation": [
        0.0,
        0.0,
        0.0,
        -1.0
      ],
      "translation": [
        -0.007503099273890257,
        0.022206000983715057,
        0.007165499962866306
      ]
    },
    {
      "name": "bone_r_b_upTorsion_2_42",
      "rotation": [
        0.0,
        0.0,
        0.0,
        -1.0
      ],
      "translation": [
        -0.05578639730811119,
        0.04732700064778328,
        0.05327599495649338
      ]
    },
    {
      "children": [
        66
      ],
      "name": "bone_r_b_pri_1_35",
      "rotation": [
        0.0,
        0.0,
        0.0,
        -1.0
      ],
      "translation": [
        0.0,
        0.005695991218090057,
        0.0
      ]
    },
    {
      "children": [
        67
      ],
      "name": "bone_r_b_pri_2_36",
      "rotation": [
        0.0,
        0.0,
        0.0,
        -1.0
      ],
      "translation": [
        -0.07299249619245529,
        0.06266599148511887,
        0.06970739364624023
      ]
    },
    {
      "children": [
        68
      ],
      "name": "bone_r_b_pri_3_37",
      "rotation": [
        0.0,
        0.0,
        0.0,
        -1.0
      ],
      "translation": [
        -0.03864999860525131,
        -0.19638000428676605,
        0.03691060096025467
      ]
    },
    {
      "name": "bone_r_b_foot_38",
      "rotation": [
        0.0,
        0.0,
        0.0,
        -1.0
      ]
    },
    {
      "children": [
        70
      ],
      "name": "bone_r_b_sec_1_39",
      "rotation": [
        0.0,
        0.0,
        0.0,
        -1.0
      ],
      "translation": [
        0.0,
        0.005695991218090057,
        0.0
      ]
    },
    {
      "name": "bone_r_b_sec_2_40",
      "rotation": [
        0.0,
        0.0,
        0.0,
        -1.0
      ],
      "translation": [
        -0.07299249619245529,
        0.06266599148511887,
        0.06970739364624023
      ]
    },
    {
      "children": [
        72
      ],
      "name": "bone_r_f_legBase_1_43",
      "rotation": [
        0.0,
        0.0,
        0.0,
        -1.0
      ],
      "translation": [
        -0.046633899211883545,
        -0.0016649913741275668,
        -0.005848389584571123
      ]
    },
    {
      "children": [
        73,
        75,
        77,
        81
      ],
      "name": "bone_r_f_legBase_2_44",
      "rotation": [
        0.0,
        0.0,
        0.0,
        -1.0
      ],
      "translation": [
        -0.03629260137677193,
        0.0,
        -0.007721609901636839
      ]
    },
    {
      "children": [
        74
      ],
      "name": "bone_r_f_loTorsion_1_45",
      "rotation": [
        0.0,
        0.0,
        0.0,
        -1.0
      ],
      "translation": [
        -0.011535797268152237,
        -1.0004043360822834e-05,
        -0.011016701348125935
      ]
    },
    {
      "name": "bone_r_f_loTorsion_2_46",
      "rotation": [
        0.0,
        0.0,
        0.0,
        -1.0
      ],
      "translation": [
        -0.054817695170640945,
        0.05430399626493454,
        -0.052351098507642746
      ]
    },
    {
      "children": [
        76
      ],
      "name": "bone_r_f_upTorsion_1_53",
      "rotation": [
        0.0,
        0.0,
        0.0,
        -1.0
      ],
      "translation": [
        -0.007503099273890257,
        0.022206000983715057,
        -0.007165499962866306
      ]
    },
    {
      "name": "bone_r_f_upTorsion_2_54",
      "rotation": [
        0.0,
        0.0,
        0.0,
        -1.0
      ],
      "translation": [
        -0.05578639730811119,
        0.04732700064778328,
        -0.05327599495649338
      ]
    },
    {
      "children": [
        78
      ],
      "name": "bone_r_f_pri_1_47",
      "rotation": [
        0.0,
        0.0,
        0.0,
        -1.0
      ],
      "translation": [
        0.0,
        0.005695991218090057,
        0.0
      ]
    },
    {
      "children": [
        79
      ],
      "name": "bone_r_f_pri_2_48",
      "rotation": [
        0.0,
        0.0,
        0.0,
        -1.0
      ],
      "translation": [
        -0.07299249619245529,
        0.06266599148511887,
        -0.06970739364624023
      ]
    },
    {
      "children": [
        80
      ],
      "name": "bone_r_f_pri_3_49",
      "rotation": [
        0.0,
        0.0,
        0.0,
        -1.0
      ],
      "translation": [
        -0.03864999860525131,
        -0.19638000428676605,
        -0.03691060096025467
      ]
    },
    {
      "name": "bone_r_f_foot_50",
      "rotation": [
        0.0,
        0.0,
        0.0,
        -1.0
      ]
    },
    {
      "children": [
        82
      ],
      "name": "bone_r_f_sec_1_51",
      "rotation": [
        0.0,
        0.0,
        0.0,
        -1.0
      ],
      "translation": [
        0.0,
        0.005695991218090057,
        0.0
      ]
    },
    {
      "name": "bone_r_f_sec_2_52",
      "rotation": [
        0.0,
        0.0,
        0.0,
        -1.0
      ],
      "translation": [
        -0.07299249619245529,
        0.06266599148511887,
        -0.06970739364624023
      ]
    },
    {
      "children": [
        84,
        86
      ],
      "name": "bone_orb_rotate_26",
      "rotation": [
        0.0,
        0.0,
        0.0,
        -1.0
      ]
    },
    {
      "children": [
        85
      ],
      "name": "bone_swivel_lowGun_27",
      "rotation": [
        0.0,
        0.0,
        0.0,
        -1.0
      ],
      "translation": [
        -0.0006391750066541135,
        -0.08424830436706543,
        -6.491119620477548e-06
      ]
    },
    {
      "name": "bone_pitch_lowGun_28",
      "rotation": [
        0.0,
        0.0,
        0.0,
        -1.0
      ]
    },
    {
      "children": [
        87
      ],
      "name": "bone_swivel_upGun_29",
      "rotation": [
        0.0,
        0.0,
        0.0,
        -1.0
      ],
      "translation": [
        -0.00021060998551547527,
        0.08211399614810944,
        -0.0003893410030286759
      ]
    },
    {
      "name": "bone_pitch_upGun_30",
      "rotation": [
        0.0,
        0.0,
        0.0,
        -1.0
      ]
    }
  ],
  "samplers": [
    {
      "magFilter": 9729,
      "minFilter": 9729,
      "wrapS": 10497,
      "wrapT": 10497
    }
  ],
  "scene": 0,
  "scenes": [
    {
      "name": "Sketchfab_Scene",
      "nodes": [
        0
      ]
    }
  ],
  "skins": [
    {
      "inverseBindMatrices": 70,
      "joints": [
        5,
        34,
        35,
        36,
        37,
        38,
        39,
        40,
        41,
        42,
        43,
        44,
        45,
        46,
        47,
        48,
        49,
        50,
        51,
        52,
        53,
        54,
        55,
        56,
        57,
        58,
        59,
        60,
        61,
        62,
        63,
        64,
        65,
        66,
        67,
        68,
        69,
        70,
        71,
        72,
        73,
        74,
        75,
        76,
        77,
        78,
        79,
        80,
        81,
        82,
        83,
        84,
        85,
        86,
        87
      ],
      "skeleton": 5
    }
  ],
  "textures": [
    {
      "sampler": 0,
      "source": 0
    },
    {
      "sampler": 0,
      "source": 1
    },
    {
      "sampler": 0,
      "source": 2
    },
    {
      "sampler": 0,
      "source": 3
    }
  ]
}
