{
  "accessors": [
    {
      "bufferView": 2,
      "componentType": 5126,
      "count": 65532,
      "max": [
        169.43080139160156,
        98.74559783935547,
        135.26840209960938
      ],
      "min": [
        2.9220008850097656,
        9.709999084472656,
        0.5428009033203125
      ],
      "type": "VEC3"
    },
    {
      "bufferView": 2,
      "byteOffset": 786384,
      "componentType": 5126,
      "count": 65532,
      "max": [
        0.9999395608901978,
        0.9999871850013733,
        0.9999830722808838
      ],
      "min": [
        -0.9999934434890747,
        -0.999870240688324,
        -0.9999828338623047
      ],
      "type": "VEC3"
    },
    {
      "bufferView": 1,
      "componentType": 5126,
      "count": 65532,
      "max": [
        0.9988939762115479,
        0.9988930225372314
      ],
      "min": [
        0.0010662500280886889,
        0.0010662500280886889
      ],
      "type": "VEC2"
    },
    {
      "bufferView": 0,
      "componentType": 5125,
      "count": 279939,
      "type": "SCALAR"
    },
    {
      "bufferView": 2,
      "byteOffset": 1572768,
      "componentType": 5126,
      "count": 65533,
      "max": [
        169.43080139160156,
        99.1532974243164,
        138.0532989501953
      ],
      "min": [
        3.674602508544922,
        7.881103515625,
        0.0
      ],
      "type": "VEC3"
    },
    {
      "bufferView": 2,
      "byteOffset": 2359164,
      "componentType": 5126,
      "count": 65533,
      "max": [
        0.9999639987945557,
        0.9999083876609802,
        0.9999920725822449
      ],
      "min": [
        -0.9999934434890747,
        -0.9999737739562988,
        -0.9999789595603943
      ],
      "type": "VEC3"
    },
    {
      "bufferView": 1,
      "byteOffset": 524256,
      "componentType": 5126,
      "count": 65533,
      "max": [
        0.9979550242424011,
        0.9988729953765869
      ],
      "min": [
        0.0010662500280886889,
        0.005640380084514618
      ],
      "type": "VEC2"
    },
    {
      "bufferView": 0,
      "byteOffset": 1119756,
      "componentType": 5125,
      "count": 210249,
      "type": "SCALAR"
    },
    {
      "bufferView": 2,
      "byteOffset": 3145560,
      "componentType": 5126,
      "count": 65532,
      "max": [
        167.02279663085938,
        98.95059967041016,
        141.64410400390625
      ],
      "min": [
        3.7291030883789063,
        8.173202514648438,
        0.6473007202148438
      ],
      "type": "VEC3"
    },
    {
      "bufferView": 2,
      "byteOffset": 3931944,
      "componentType": 5126,
      "count": 65532,
      "max": [
        0.9999858736991882,
        0.9999940991401672,
        0.9999962449073792
      ],
      "min": [
        -0.9999944567680359,
        -0.9999997615814209,
        -0.9999664425849915
      ],
      "type": "VEC3"
    },
    {
      "bufferView": 1,
      "byteOffset": 1048520,
      "componentType": 5126,
      "count": 65532,
      "max": [
        0.9989010095596313,
        0.9988359808921814
      ],
      "min": [
        0.0010662500280886889,
        0.002855229889973998
      ],
      "type": "VEC2"
    },
    {
      "bufferView": 0,
      "byteOffset": 1960752,
      "componentType": 5125,
      "count": 207381,
      "type": "SCALAR"
    },
    {
      "bufferView": 2,
      "byteOffset": 4718328,
      "componentType": 5126,
      "count": 65532,
      "max": [
        167.1768035888672,
        99.48259735107422,
        142.37908935546875
      ],
      "min": [
        5.594501495361328,
        7.830802917480469,
        0.0
      ],
      "type": "VEC3"
    },
    {
      "bufferView": 2,
      "byteOffset": 5504712,
      "componentType": 5126,
      "count": 65532,
      "max": [
        0.9999891519546509,
        0.9998340606689453,
        0.9999352693557739
      ],
      "min": [
        -0.9999350309371948,
        -0.9999999403953552,
        -0.999941349029541
      ],
      "type": "VEC3"
    },
    {
      "bufferView": 1,
      "byteOffset": 1572776,
      "componentType": 5126,
      "count": 65532,
      "max": [
        0.9987649917602539,
        0.9987689852714539
      ],
      "min": [
        0.001443409943021834,
        0.0010662500280886889
      ],
      "type": "VEC2"
    },
    {
      "bufferView": 0,
      "byteOffset": 2790276,
      "componentType": 5125,
      "count": 239127,
      "type": "SCALAR"
    },
    {
      "bufferView": 2,
      "byteOffset": 6291096,
      "componentType": 5126,
      "count": 65532,
      "max": [
        167.35580444335938,
        98.99140167236328,
        145.1531982421875
      ],
      "min": [
        4.226200103759766,
        8.278800964355469,
        0.4369964599609375
      ],
      "type": "VEC3"
    },
    {
      "bufferView": 2,
      "byteOffset": 7077480,
      "componentType": 5126,
      "count": 65532,
      "max": [
        0.9999837279319763,
        0.9999735951423645,
        0.9998869895935059
      ],
      "min": [
        -0.9999944567680359,
        -0.9999995231628418,
        -0.9999979734420776
      ],
      "type": "VEC3"
    },
    {
      "bufferView": 1,
      "byteOffset": 2097032,
      "componentType": 5126,
      "count": 65532,
      "max": [
        0.9985439777374268,
        0.9989060163497925
      ],
      "min": [
        0.0013858600286766887,
        0.0010662500280886889
      ],
      "type": "VEC2"
    },
    {
      "bufferView": 0,
      "byteOffset": 3746784,
      "componentType": 5125,
      "count": 227877,
      "type": "SCALAR"
    },
    {
      "bufferView": 2,
      "byteOffset": 7863864,
      "componentType": 5126,
      "count": 65532,
      "max": [
        166.66180419921875,
        99.02120208740234,
        151.52359008789063
      ],
      "min": [
        6.018703460693359,
        7.384696960449219,
        3.5772018432617188
      ],
      "type": "VEC3"
    },
    {
      "bufferView": 2,
      "byteOffset": 8650248,
      "componentType": 5126,
      "count": 65532,
      "max": [
        0.9999691843986511,
        0.9999881982803345,
        0.9999090433120728
      ],
      "min": [
        -0.9999802112579346,
        -0.9999993443489075,
        -0.9999269843101501
      ],
      "type": "VEC3"
    },
    {
      "bufferView": 1,
      "byteOffset": 2621288,
      "componentType": 5126,
      "count": 65532,
      "max": [
        0.9989259839057922,
        0.9985780119895935
      ],
      "min": [
        0.002330919960513711,
        0.0028952599968761206
      ],
      "type": "VEC2"
    },
    {
      "bufferView": 0,
      "byteOffset": 4658292,
      "componentType": 5125,
      "count": 236697,
      "type": "SCALAR"
    },
    {
      "bufferView": 2,
      "byteOffset": 9436632,
      "componentType": 5126,
      "count": 65532,
      "max": [
        166.77780151367188,
        99.12319946289063,
        143.71890258789063
      ],
      "min": [
        6.966701507568359,
        12.080902099609375,
        0.673095703125
      ],
      "type": "VEC3"
    },
    {
      "bufferView": 2,
      "byteOffset": 10223016,
      "componentType": 5126,
      "count": 65532,
      "max": [
        0.9999564290046692,
        0.9999465942382813,
        0.9999991655349731
      ],
      "min": [
        -0.9999787211418152,
        -0.9999992847442627,
        -0.9999994039535522
      ],
      "type": "VEC3"
    },
    {
      "bufferView": 1,
      "byteOffset": 3145544,
      "componentType": 5126,
      "count": 65532,
      "max": [
        0.9988840222358704,
        0.9989299774169922
      ],
      "min": [
        0.003629369894042611,
        0.005240870174020529
      ],
      "type": "VEC2"
    },
    {
      "bufferView": 0,
      "byteOffset": 5605080,
      "componentType": 5125,
      "count": 217797,
      "type": "SCALAR"
    },
    {
      "bufferView": 2,
      "byteOffset": 11009400,
      "componentType": 5126,
      "count": 65532,
      "max": [
        167.63880920410156,
        99.39039611816406,
        143.39370727539063
      ],
      "min": [
        12.629600524902344,
        11.844902038574219,
        7.913196563720703
      ],
      "type": "VEC3"
    },
    {
      "bufferView": 2,
      "byteOffset": 11795784,
      "componentType": 5126,
      "count": 65532,
      "max": [
        0.999985933303833,
        0.9999455809593201,
        0.9999809265136719
      ],
      "min": [
        -0.999997079372406,
        -0.9999997615814209,
        -0.9999972581863403
      ],
      "type": "VEC3"
    },
    {
      "bufferView": 1,
      "byteOffset": 3669800,
      "componentType": 5126,
      "count": 65532,
      "max": [
        0.9987469911575317,
        0.9987990260124207
      ],
      "min": [
        0.0030588400550186634,
        0.01691339910030365
      ],
      "type": "VEC2"
    },
    {
      "bufferView": 0,
      "byteOffset": 6476268,
      "componentType": 5125,
      "count": 205308,
      "type": "SCALAR"
    },
    {
      "bufferView": 2,
      "byteOffset": 12582168,
      "componentType": 5126,
      "count": 65532,
      "max": [
        167.0498046875,
        99.40470123291016,
        146.61270141601563
      ],
      "min": [
        3.0547027587890625,
        3.2851028442382813,
        1.2310943603515625
      ],
      "type": "VEC3"
    },
    {
      "bufferView": 2,
      "byteOffset": 13368552,
      "componentType": 5126,
      "count": 65532,
      "max": [
        0.9999982118606567,
        0.9999818205833435,
        0.9999960064888
      ],
      "min": [
        -0.9999250769615173,
        -0.9999999403953552,
        -0.9999912977218628
      ],
      "type": "VEC3"
    },
    {
      "bufferView": 1,
      "byteOffset": 4194056,
      "componentType": 5126,
      "count": 65532,
      "max": [
        0.9988420009613037,
        0.9987149834632874
      ],
      "min": [
        0.0040156301110982895,
        0.0017088199965655804
      ],
      "type": "VEC2"
    },
    {
      "bufferView": 0,
      "byteOffset": 7297500,
      "componentType": 5125,
      "count": 230178,
      "type": "SCALAR"
    },
    {
      "bufferView": 2,
      "byteOffset": 14154936,
      "componentType": 5126,
      "count": 65532,
      "max": [
        166.26780700683594,
        99.53910064697266,
        138.51730346679688
      ],
      "min": [
        6.446201324462891,
        8.837799072265625,
        5.620399475097656
      ],
      "type": "VEC3"
    },
    {
      "bufferView": 2,
      "byteOffset": 14941320,
      "componentType": 5126,
      "count": 65532,
      "max": [
        0.9999911189079285,
        0.9999706149101257,
        0.9999771118164063
      ],
      "min": [
        -0.9999784231185913,
        -0.9999997615814209,
        -0.9999964237213135
      ],
      "type": "VEC3"
    },
    {
      "bufferView": 1,
      "byteOffset": 4718312,
      "componentType": 5126,
      "count": 65532,
      "max": [
        0.9989299774169922,
        0.9987329840660095
      ],
      "min": [
        0.0023555299267172813,
        0.0031160300131887197
      ],
      "type": "VEC2"
    },
    {
      "bufferView": 0,
      "byteOffset": 8218212,
      "componentType": 5125,
      "count": 256671,
      "type": "SCALAR"
    },
    {
      "bufferView": 2,
      "byteOffset": 15727704,
      "componentType": 5126,
      "count": 65532,
      "max": [
        167.0498046875,
        99.46800231933594,
        139.63189697265625
      ],
      "min": [
        0.0,
        6.737602233886719,
        12.130096435546875
      ],
      "type": "VEC3"
    },
    {
      "bufferView": 2,
      "byteOffset": 16514088,
      "componentType": 5126,
      "count": 65532,
      "max": [
        0.9999855160713196,
        0.9999470114707947,
        0.9999661445617676
      ],
      "min": [
        -0.9999766945838928,
        -0.9999999403953552,
        -0.9999902248382568
      ],
      "type": "VEC3"
    },
    {
      "bufferView": 1,
      "byteOffset": 5242568,
      "componentType": 5126,
      "count": 65532,
      "max": [
        0.9987879991531372,
        0.9989129900932312
      ],
      "min": [
        0.0017371800495311618,
        0.004088240209966898
      ],
      "type": "VEC2"
    },
    {
      "bufferView": 0,
      "byteOffset": 9244896,
      "componentType": 5125,
      "count": 214998,
      "type": "SCALAR"
    },
    {
      "bufferView": 2,
      "byteOffset": 17300472,
      "componentType": 5126,
      "count": 65532,
      "max": [
        166.5008087158203,
        99.5781021118164,
        138.72720336914063
      ],
      "min": [
        0.13860321044921875,
        0.0,
        0.6393966674804688
      ],
      "type": "VEC3"
    },
    {
      "bufferView": 2,
      "byteOffset": 18086856,
      "componentType": 5126,
      "count": 65532,
      "max": [
        0.9999855160713196,
        0.9999969005584717,
        0.9999920725822449
      ],
      "min": [
        -0.9999932050704956,
        -0.9999990463256836,
        -0.9999923706054688
      ],
      "type": "VEC3"
    },
    {
      "bufferView": 1,
      "byteOffset": 5766824,
      "componentType": 5126,
      "count": 65532,
      "max": [
        0.9989299774169922,
        0.9989219903945923
      ],
      "min": [
        0.0010662500280886889,
        0.005921060219407082
      ],
      "type": "VEC2"
    },
    {
      "bufferView": 0,
      "byteOffset": 10104888,
      "componentType": 5125,
      "count": 172764,
      "type": "SCALAR"
    },
    {
      "bufferView": 2,
      "byteOffset": 18873240,
      "componentType": 5126,
      "count": 65532,
      "max": [
        166.5937957763672,
        98.57730102539063,
        140.54168701171875
      ],
      "min": [
        3.0547027587890625,
        10.378997802734375,
        0.4369964599609375
      ],
      "type": "VEC3"
    },
    {
      "bufferView": 2,
      "byteOffset": 19659624,
      "componentType": 5126,
      "count": 65532,
      "max": [
        0.999990701675415,
        0.9999706149101257,
        0.9999246597290039
      ],
      "min": [
        -0.9999635815620422,
        -0.999998927116394,
        -0.9999961853027344
      ],
      "type": "VEC3"
    },
    {
      "bufferView": 1,
      "byteOffset": 6291080,
      "componentType": 5126,
      "count": 65532,
      "max": [
        0.9988870024681091,
        0.9988970160484314
      ],
      "min": [
        0.0012552699772641063,
        0.001239489996805787
      ],
      "type": "VEC2"
    },
    {
      "bufferView": 0,
      "byteOffset": 10795944,
      "componentType": 5125,
      "count": 180735,
      "type": "SCALAR"
    },
    {
      "bufferView": 2,
      "byteOffset": 20446008,
      "componentType": 5126,
      "count": 56467,
      "max": [
        166.5447998046875,
        98.09960174560547,
        142.14039611816406
      ],
      "min": [
        8.316402435302734,
        10.717796325683594,
        0.6516952514648438
      ],
      "type": "VEC3"
    },
    {
      "bufferView": 2,
      "byteOffset": 21123612,
      "componentType": 5126,
      "count": 56467,
      "max": [
        0.9999858736991882,
        0.9999229907989502,
        0.9999940395355225
      ],
      "min": [
        -0.9999189972877502,
        -0.9999999403953552,
        -0.999990701675415
      ],
      "type": "VEC3"
    },
    {
      "bufferView": 1,
      "byteOffset": 6815336,
      "componentType": 5126,
      "count": 56467,
      "max": [
        0.9988589882850647,
        0.9986519813537598
      ],
      "min": [
        0.0010662500280886889,
        0.001479889964684844
      ],
      "type": "VEC2"
    },
    {
      "bufferView": 0,
      "byteOffset": 11518884,
      "componentType": 5125,
      "count": 120276,
      "type": "SCALAR"
    }
  ],
  "asset": {
    "extras": {
      "author": "tushevs (https://sketchfab.com/tushevs)",
      "license": "CC-BY-4.0 (http://creativecommons.org/licenses/by/4.0/)",
      "source": "https://sketchfab.com/3d-models/apollo-11-lunar-module-464e8b887cd849e497d96b4c3873c278",
      "title": "Apollo-11 Lunar Module"
    },
    "generator": "Sketchfab-12.68.0",
    "version": "2.0"
  },
  "bufferViews": [
    {
      "buffer": 0,
      "byteLength": 11999988,
      "name": "floatBufferViews",
      "target": 34963
    },
    {
      "buffer": 0,
      "byteLength": 7267072,
      "byteOffset": 11999988,
      "byteStride": 8,
      "name": "floatBufferViews",
      "target": 34962
    },
    {
      "buffer": 0,
      "byteLength": 21801216,
      "byteOffset": 19267060,
      "byteStride": 12,
      "name": "floatBufferViews",
      "target": 34962
    }
  ],
  "buffers": [
    {
      "byteLength": 41068276,
      "uri": "scene.bin"
    }
  ],
  "extensionsUsed": [
    "KHR_materials_unlit"
  ],
  "images": [
    {
      "uri": "textures/material_0_baseColor.jpeg"
    }
  ],
  "materials": [
    {
      "doubleSided": true,
      "extensions": {
        "KHR_materials_unlit": {}
      },
      "name": "material_0",
      "pbrMetallicRoughness": {
        "baseColorFactor": [
          0.96,
          0.96,
          0.96,
          1.0
        ],
        "baseColorTexture": {
          "index": 0
        },
        "metallicFactor": 0.0
      }
    }
  ],
  "meshes": [
    {
      "name": "Object_0",
      "primitives": [
        {
          "attributes": {
            "NORMAL": 1,
            "POSITION": 0,
            "TEXCOORD_0": 2
          },
          "indices": 3,
          "material": 0,
          "mode": 4
        }
      ]
    },
    {
      "name": "Object_1",
      "primitives": [
        {
          "attributes": {
            "NORMAL": 5,
            "POSITION": 4,
            "TEXCOORD_0": 6
          },
          "indices": 7,
          "material": 0,
          "mode": 4
        }
      ]
    },
    {
      "name": "Object_2",
      "primitives": [
        {
          "attributes": {
            "NORMAL": 9,
            "POSITION": 8,
            "TEXCOORD_0": 10
          },
          "indices": 11,
          "material": 0,
          "mode": 4
        }
      ]
    },
    {
      "name": "Object_3",
      "primitives": [
        {
          "attributes": {
            "NORMAL": 13,
            "POSITION": 12,
            "TEXCOORD_0": 14
          },
          "indices": 15,
          "material": 0,
          "mode": 4
        }
      ]
    },
    {
      "name": "Object_4",
      "primitives": [
        {
          "attributes": {
            "NORMAL": 17,
            "POSITION": 16,
            "TEXCOORD_0": 18
          },
          "indices": 19,
          "material": 0,
          "mode": 4
        }
      ]
    },
    {
      "name": "Object_5",
      "primitives": [
        {
          "attributes": {
            "NORMAL": 21,
            "POSITION": 20,
            "TEXCOORD_0": 22
          },
          "indices": 23,
          "material": 0,
          "mode": 4
        }
      ]
    },
    {
      "name": "Object_6",
      "primitives": [
        {
          "attributes": {
            "NORMAL": 25,
            "POSITION": 24,
            "TEXCOORD_0": 26
          },
          "indices": 27,
          "material": 0,
          "mode": 4
        }
      ]
    },
    {
      "name": "Object_7",
      "primitives": [
        {
          "attributes": {
            "NORMAL": 29,
            "POSITION": 28,
            "TEXCOORD_0": 30
          },
          "indices": 31,
          "material": 0,
          "mode": 4
        }
      ]
    },
    {
      "name": "Object_8",
      "primitives": [
        {
          "attributes": {
            "NORMAL": 33,
            "POSITION": 32,
            "TEXCOORD_0": 34
          },
          "indices": 35,
          "material": 0,
          "mode": 4
        }
      ]
    },
    {
      "name": "Object_9",
      "primitives": [
        {
          "attributes": {
            "NORMAL": 37,
            "POSITION": 36,
            "TEXCOORD_0": 38
          },
          "indices": 39,
          "material": 0,
          "mode": 4
        }
      ]
    },
    {
      "name": "Object_10",
      "primitives": [
        {
          "attributes": {
            "NORMAL": 41,
            "POSITION": 40,
            "TEXCOORD_0": 42
          },
          "indices": 43,
          "material": 0,
          "mode": 4
        }
      ]
    },
    {
      "name": "Object_11",
      "primitives": [
        {
          "attributes": {
            "NORMAL": 45,
            "POSITION": 44,
            "TEXCOORD_0": 46
          },
          "indices": 47,
          "material": 0,
          "mode": 4
        }
      ]
    },
    {
      "name": "Object_12",
      "primitives": [
        {
          "attributes": {
            "NORMAL": 49,
            "POSITION": 48,
            "TEXCOORD_0": 50
          },
          "indices": 51,
          "material": 0,
          "mode": 4
        }
      ]
    },
    {
      "name": "Object_13",
      "primitives": [
        {
          "attributes": {
            "NORMAL": 53,
            "POSITION": 52,
            "TEXCOORD_0": 54
          },
          "indices": 55,
          "material": 0,
          "mode": 4
        }
      ]
    }
  ],
  "nodes": [
    {
      "children": [
        1
      ],
      "matrix": [
        0.040915586054325104,
        0.0,
        0.0,
        0.0,
        0.0,
        -0.040915586054325104,
        -9.085085140708738e-18,
        0.0,
        0.0,
        9.085085140708738e-18,
        -0.040915586054325104,
        0.0,
        0.0,
        -20.822401046752937,
        31.1918773651123,
        1.0
      ],
      "name": "Sketchfab_model"
    },
    {
      "children": [
        2,
        3,
        4,
        5,
        6,
        7,
        8,
        9,
        10,
        11,
        12,
        13,
        14,
        15
      ],
      "matrix": [
        1.0,
        0.0,
        0.0,
        0.0,
        0.0,
        1.0,
        0.0,
        0.0,
        0.0,
        0.0,
        1.0,
        0.0,
        -54.35380172729492,
        -80.49909973144531,
        -69.17839813232422,
        1.0
      ],
      "name": "lunar module1_simplified_3d_mesh.obj.cleaner.gles"
    },
    {
      "mesh": 0,
      "name": "Object_2"
    },
    {
      "mesh": 1,
      "name": "Object_3"
    },
    {
      "mesh": 2,
      "name": "Object_4"
    },
    {
      "mesh": 3,
      "name": "Object_5"
    },
    {
      "mesh": 4,
      "name": "Object_6"
    },
    {
      "mesh": 5,
      "name": "Object_7"
    },
    {
      "mesh": 6,
      "name": "Object_8"
    },
    {
      "mesh": 7,
      "name": "Object_9"
    },
    {
      "mesh": 8,
      "name": "Object_10"
    },
    {
      "mesh": 9,
      "name": "Object_11"
    },
    {
      "mesh": 10,
      "name": "Object_12"
    },
    {
      "mesh": 11,
      "name": "Object_13"
    },
    {
      "mesh": 12,
      "name": "Object_14"
    },
    {
      "mesh": 13,
      "name": "Object_15"
    }
  ],
  "samplers": [
    {
      "magFilter": 9729,
      "minFilter": 9987,
      "wrapS": 10497,
      "wrapT": 10497
    }
  ],
  "scene": 0,
  "scenes": [
    {
      "name": "Sketchfab_Scene",
      "nodes": [
        0
      ]
    }
  ],
  "textures": [
    {
      "sampler": 0,
      "source": 0
    }
  ]
}
