{
  "accessors": [
    {
      "bufferView": 2,
      "componentType": 5126,
      "count": 285,
      "max": [
        0.9980267286300659,
        2.5203046798706055,
        67.74463653564453
      ],
      "min": [
        -0.9980267882347107,
        -1.0,
        -21.369226455688477
      ],
      "type": "VEC3"
    },
    {
      "bufferView": 2,
      "byteOffset": 3420,
      "componentType": 5126,
      "count": 285,
      "max": [
        0.9889270663261414,
        0.9908809661865234,
        1.0
      ],
      "min": [
        -0.9889270663261414,
        -1.0,
        -0.692606508731842
      ],
      "type": "VEC3"
    },
    {
      "bufferView": 1,
      "componentType": 5126,
      "count": 285,
      "max": [
        1.0,
        1.0
      ],
      "min": [
        0.0,
        0.0
      ],
      "type": "VEC2"
    },
    {
      "bufferView": 0,
      "componentType": 5125,
      "count": 690,
      "type": "SCALAR"
    },
    {
      "bufferView": 2,
      "byteOffset": 6840,
      "componentType": 5126,
      "count": 13203,
      "max": [
        1.8433586359024048,
        1.8469057083129883,
        0.1417694091796875
      ],
      "min": [
        -1.8433586359024048,
        -1.8469057083129883,
        -26.069564819335938
      ],
      "type": "VEC3"
    },
    {
      "bufferView": 2,
      "byteOffset": 165276,
      "componentType": 5126,
      "count": 13203,
      "max": [
        1.0,
        1.0,
        1.0
      ],
      "min": [
        -1.0,
        -1.0,
        -1.0
      ],
      "type": "VEC3"
    },
    {
      "bufferView": 1,
      "byteOffset": 2280,
      "componentType": 5126,
      "count": 13203,
      "max": [
        1.0,
        1.000000238418579
      ],
      "min": [
        3.8743019104003906e-07,
        0.010000004433095455
      ],
      "type": "VEC2"
    },
    {
      "bufferView": 0,
      "byteOffset": 2760,
      "componentType": 5125,
      "count": 31407,
      "type": "SCALAR"
    },
    {
      "bufferView": 2,
      "byteOffset": 323712,
      "componentType": 5126,
      "count": 3487,
      "max": [
        1.9905800819396973,
        1.9940779209136963,
        0.4847602844238281
      ],
      "min": [
        -1.990578055381775,
        -1.9940752983093262,
        -25.381704330444336
      ],
      "type": "VEC3"
    },
    {
      "bufferView": 2,
      "byteOffset": 365556,
      "componentType": 5126,
      "count": 3487,
      "max": [
        1.0,
        0.998026967048645,
        1.0
      ],
      "min": [
        -1.0,
        -1.0,
        -1.0
      ],
      "type": "VEC3"
    },
    {
      "bufferView": 1,
      "byteOffset": 107904,
      "componentType": 5126,
      "count": 3487,
      "max": [
        1.0,
        1.000000238418579
      ],
      "min": [
        3.8743019104003906e-07,
        0.03387837111949921
      ],
      "type": "VEC2"
    },
    {
      "bufferView": 0,
      "byteOffset": 128388,
      "componentType": 5125,
      "count": 8331,
      "type": "SCALAR"
    },
    {
      "bufferView": 2,
      "byteOffset": 407400,
      "componentType": 5126,
      "count": 3465,
      "max": [
        1.75669527053833,
        1.760168433189392,
        -3.8268070220947266
      ],
      "min": [
        -1.7566953897476196,
        -1.760168433189392,
        -24.58590316772461
      ],
      "type": "VEC3"
    },
    {
      "bufferView": 2,
      "byteOffset": 448980,
      "componentType": 5126,
      "count": 3465,
      "max": [
        1.0,
        1.0,
        0.9999855756759644
      ],
      "min": [
        -1.0,
        -1.0,
        -1.0
      ],
      "type": "VEC3"
    },
    {
      "bufferView": 1,
      "byteOffset": 135800,
      "componentType": 5126,
      "count": 3465,
      "max": [
        1.0,
        1.0000001192092896
      ],
      "min": [
        3.8743016261832963e-07,
        0.05583585798740387
      ],
      "type": "VEC2"
    },
    {
      "bufferView": 0,
      "byteOffset": 161712,
      "componentType": 5125,
      "count": 15540,
      "type": "SCALAR"
    },
    {
      "bufferView": 2,
      "byteOffset": 490560,
      "componentType": 5126,
      "count": 202,
      "max": [
        0.5359045267105103,
        -0.5019245743751526,
        -8.138113975524902
      ],
      "min": [
        -0.535904586315155,
        -1.575852870941162,
        -9.212042808532715
      ],
      "type": "VEC3"
    },
    {
      "bufferView": 2,
      "byteOffset": 492984,
      "componentType": 5126,
      "count": 202,
      "max": [
        0.7192797064781189,
        0.6932552456855774,
        0.7207069993019104
      ],
      "min": [
        -0.7192797064781189,
        -0.6932552456855774,
        -0.7207069993019104
      ],
      "type": "VEC3"
    },
    {
      "bufferView": 1,
      "byteOffset": 163520,
      "componentType": 5126,
      "count": 202,
      "max": [
        1.0,
        1.0
      ],
      "min": [
        3.8743019104003906e-07,
        0.01000000536441803
      ],
      "type": "VEC2"
    },
    {
      "bufferView": 0,
      "byteOffset": 223872,
      "componentType": 5125,
      "count": 588,
      "type": "SCALAR"
    },
    {
      "bufferView": 2,
      "byteOffset": 495408,
      "componentType": 5126,
      "count": 402,
      "max": [
        0.7129880785942078,
        -0.0007377862930297852,
        -7.9606804847717285
      ],
      "min": [
        -0.7129881381988525,
        -1.4738104343414307,
        -9.38947582244873
      ],
      "type": "VEC3"
    },
    {
      "bufferView": 2,
      "byteOffset": 500232,
      "componentType": 5126,
      "count": 402,
      "max": [
        0.9813275337219238,
        0.6932552456855774,
        0.9832672476768494
      ],
      "min": [
        -0.9813294410705566,
        -1.0,
        -0.9832672476768494
      ],
      "type": "VEC3"
    },
    {
      "bufferView": 1,
      "byteOffset": 165136,
      "componentType": 5126,
      "count": 402,
      "max": [
        1.0,
        1.0
      ],
      "min": [
        3.8743019104003906e-07,
        0.01000000536441803
      ],
      "type": "VEC2"
    },
    {
      "bufferView": 0,
      "byteOffset": 226224,
      "componentType": 5125,
      "count": 888,
      "type": "SCALAR"
    },
    {
      "bufferView": 2,
      "byteOffset": 505056,
      "componentType": 5126,
      "count": 637,
      "max": [
        1.0363363027572632,
        1.9146101474761963,
        -19.687374114990234
      ],
      "min": [
        -1.0363363027572632,
        1.3728389739990234,
        -22.2934627532959
      ],
      "type": "VEC3"
    },
    {
      "bufferView": 2,
      "byteOffset": 512700,
      "componentType": 5126,
      "count": 637,
      "max": [
        1.0,
        0.999940037727356,
        1.0
      ],
      "min": [
        -1.0,
        -0.999940037727356,
        -1.0
      ],
      "type": "VEC3"
    },
    {
      "bufferView": 1,
      "byteOffset": 168352,
      "componentType": 5126,
      "count": 637,
      "max": [
        1.0,
        1.0
      ],
      "min": [
        8.881784197001252e-16,
        2.220446049250313e-16
      ],
      "type": "VEC2"
    },
    {
      "bufferView": 0,
      "byteOffset": 229776,
      "componentType": 5125,
      "count": 3456,
      "type": "SCALAR"
    },
    {
      "bufferView": 2,
      "byteOffset": 520344,
      "componentType": 5126,
      "count": 637,
      "max": [
        0.9392010569572449,
        1.9150608777999878,
        -16.7522029876709
      ],
      "min": [
        -0.9392010569572449,
        1.4240696430206299,
        -19.114025115966797
      ],
      "type": "VEC3"
    },
    {
      "bufferView": 2,
      "byteOffset": 527988,
      "componentType": 5126,
      "count": 637,
      "max": [
        1.0,
        0.999940037727356,
        1.0
      ],
      "min": [
        -1.0,
        -0.999940037727356,
        -1.0
      ],
      "type": "VEC3"
    },
    {
      "bufferView": 1,
      "byteOffset": 173448,
      "componentType": 5126,
      "count": 637,
      "max": [
        1.0,
        1.0
      ],
      "min": [
        8.881784197001252e-16,
        2.220446049250313e-16
      ],
      "type": "VEC2"
    },
    {
      "bufferView": 0,
      "byteOffset": 243600,
      "componentType": 5125,
      "count": 3456,
      "type": "SCALAR"
    },
    {
      "bufferView": 2,
      "byteOffset": 535632,
      "componentType": 5126,
      "count": 637,
      "max": [
        0.9677221775054932,
        1.9149285554885864,
        -13.71378231048584
      ],
      "min": [
        -0.9677221775054932,
        1.409027099609375,
        -16.147327423095703
      ],
      "type": "VEC3"
    },
    {
      "bufferView": 2,
      "byteOffset": 543276,
      "componentType": 5126,
      "count": 637,
      "max": [
        1.0,
        0.999940037727356,
        1.0
      ],
      "min": [
        -1.0,
        -0.999940037727356,
        -1.0
      ],
      "type": "VEC3"
    },
    {
      "bufferView": 1,
      "byteOffset": 178544,
      "componentType": 5126,
      "count": 637,
      "max": [
        1.0,
        1.0
      ],
      "min": [
        8.881784197001252e-16,
        2.220446049250313e-16
      ],
      "type": "VEC2"
    },
    {
      "bufferView": 0,
      "byteOffset": 257424,
      "componentType": 5125,
      "count": 3456,
      "type": "SCALAR"
    },
    {
      "bufferView": 2,
      "byteOffset": 550920,
      "componentType": 5126,
      "count": 637,
      "max": [
        0.9196455478668213,
        1.915151596069336,
        -9.029629707336426
      ],
      "min": [
        -0.9196455478668213,
        1.4343836307525635,
        -13.030267715454102
      ],
      "type": "VEC3"
    },
    {
      "bufferView": 2,
      "byteOffset": 558564,
      "componentType": 5126,
      "count": 637,
      "max": [
        1.0,
        0.999980092048645,
        1.0
      ],
      "min": [
        -1.0,
        -0.999980092048645,
        -1.0
      ],
      "type": "VEC3"
    },
    {
      "bufferView": 1,
      "byteOffset": 183640,
      "componentType": 5126,
      "count": 637,
      "max": [
        1.0,
        1.0
      ],
      "min": [
        8.881784197001252e-16,
        2.220446049250313e-16
      ],
      "type": "VEC2"
    },
    {
      "bufferView": 0,
      "byteOffset": 271248,
      "componentType": 5125,
      "count": 3456,
      "type": "SCALAR"
    },
    {
      "bufferView": 2,
      "byteOffset": 566208,
      "componentType": 5126,
      "count": 637,
      "max": [
        0.605262279510498,
        1.7731688022613525,
        -9.713443756103516
      ],
      "min": [
        -0.605262279510498,
        1.4567525386810303,
        -12.346452713012695
      ],
      "type": "VEC3"
    },
    {
      "bufferView": 2,
      "byteOffset": 573852,
      "componentType": 5126,
      "count": 637,
      "max": [
        1.0,
        0.999980092048645,
        1.0
      ],
      "min": [
        -1.0,
        -0.999980092048645,
        -1.0
      ],
      "type": "VEC3"
    },
    {
      "bufferView": 1,
      "byteOffset": 188736,
      "componentType": 5126,
      "count": 637,
      "max": [
        1.0,
        1.0
      ],
      "min": [
        8.881784197001252e-16,
        2.220446049250313e-16
      ],
      "type": "VEC2"
    },
    {
      "bufferView": 0,
      "byteOffset": 285072,
      "componentType": 5125,
      "count": 3456,
      "type": "SCALAR"
    },
    {
      "bufferView": 2,
      "byteOffset": 581496,
      "componentType": 5126,
      "count": 637,
      "max": [
        0.670172393321991,
        1.8377975225448608,
        -14.087908744812012
      ],
      "min": [
        -0.670172393321991,
        1.48744797706604,
        -15.773200035095215
      ],
      "type": "VEC3"
    },
    {
      "bufferView": 2,
      "byteOffset": 589140,
      "componentType": 5126,
      "count": 637,
      "max": [
        1.0,
        0.999940037727356,
        1.0
      ],
      "min": [
        -1.0,
        -0.999940037727356,
        -1.0
      ],
      "type": "VEC3"
    },
    {
      "bufferView": 1,
      "byteOffset": 193832,
      "componentType": 5126,
      "count": 637,
      "max": [
        1.0,
        1.0
      ],
      "min": [
        8.881784197001252e-16,
        2.220446049250313e-16
      ],
      "type": "VEC2"
    },
    {
      "bufferView": 0,
      "byteOffset": 298896,
      "componentType": 5125,
      "count": 3456,
      "type": "SCALAR"
    },
    {
      "bufferView": 2,
      "byteOffset": 596784,
      "componentType": 5126,
      "count": 637,
      "max": [
        0.6097078323364258,
        1.8497004508972168,
        -17.166492462158203
      ],
      "min": [
        -0.6097078323364258,
        1.530960202217102,
        -18.69973373413086
      ],
      "type": "VEC3"
    },
    {
      "bufferView": 2,
      "byteOffset": 604428,
      "componentType": 5126,
      "count": 637,
      "max": [
        1.0,
        0.999940037727356,
        1.0
      ],
      "min": [
        -1.0,
        -0.999940037727356,
        -1.0
      ],
      "type": "VEC3"
    },
    {
      "bufferView": 1,
      "byteOffset": 198928,
      "componentType": 5126,
      "count": 637,
      "max": [
        1.0,
        1.0
      ],
      "min": [
        8.881784197001252e-16,
        2.220446049250313e-16
      ],
      "type": "VEC2"
    },
    {
      "bufferView": 0,
      "byteOffset": 312720,
      "componentType": 5125,
      "count": 3456,
      "type": "SCALAR"
    },
    {
      "bufferView": 2,
      "byteOffset": 612072,
      "componentType": 5126,
      "count": 1668,
      "max": [
        0.6934549808502197,
        2.544419527053833,
        -20.118497848510742
      ],
      "min": [
        -0.6934549808502197,
        1.4962888956069946,
        -21.86233901977539
      ],
      "type": "VEC3"
    },
    {
      "bufferView": 2,
      "byteOffset": 632088,
      "componentType": 5126,
      "count": 1668,
      "max": [
        1.0,
        1.0,
        1.0
      ],
      "min": [
        -1.0,
        -1.0,
        -1.0
      ],
      "type": "VEC3"
    },
    {
      "bufferView": 1,
      "byteOffset": 204024,
      "componentType": 5126,
      "count": 1668,
      "max": [
        1.0,
        1.0
      ],
      "min": [
        8.881784197001252e-16,
        2.220446049250313e-16
      ],
      "type": "VEC2"
    },
    {
      "bufferView": 0,
      "byteOffset": 326544,
      "componentType": 5125,
      "count": 5760,
      "type": "SCALAR"
    },
    {
      "bufferView": 2,
      "byteOffset": 652104,
      "componentType": 5126,
      "count": 40,
      "max": [
        2.1420156955718994,
        0.15344136953353882,
        -8.89774227142334
      ],
      "min": [
        1.17317533493042,
        -0.8153990507125854,
        -9.775561332702637
      ],
      "type": "VEC3"
    },
    {
      "bufferView": 2,
      "byteOffset": 652584,
      "componentType": 5126,
      "count": 40,
      "max": [
        1.0,
        0.9973663687705994,
        0.9440399408340454
      ],
      "min": [
        -1.0,
        -0.9973663091659546,
        -0.9990803003311157
      ],
      "type": "VEC3"
    },
    {
      "bufferView": 1,
      "byteOffset": 217368,
      "componentType": 5126,
      "count": 40,
      "max": [
        0.875,
        1.0
      ],
      "min": [
        0.125,
        0.0
      ],
      "type": "VEC2"
    },
    {
      "bufferView": 0,
      "byteOffset": 349584,
      "componentType": 5125,
      "count": 60,
      "type": "SCALAR"
    },
    {
      "bufferView": 2,
      "byteOffset": 653064,
      "componentType": 5126,
      "count": 16,
      "max": [
        2.06134033203125,
        0.04508101940155029,
        -8.89774227142334
      ],
      "min": [
        1.2686896324157715,
        -0.7070387005805969,
        -9.211973190307617
      ],
      "type": "VEC3"
    },
    {
      "bufferView": 2,
      "byteOffset": 653256,
      "componentType": 5126,
      "count": 16,
      "max": [
        0.9440379738807678,
        0.9976517558097839,
        0.9440375566482544
      ],
      "min": [
        0.06465758383274078,
        -0.9976517558097839,
        -0.3298371136188507
      ],
      "type": "VEC3"
    },
    {
      "bufferView": 1,
      "byteOffset": 217688,
      "componentType": 5126,
      "count": 16,
      "max": [
        0.8503534197807312,
        0.7230594754219055
      ],
      "min": [
        0.6496464610099792,
        0.5269404649734497
      ],
      "type": "VEC2"
    },
    {
      "bufferView": 0,
      "byteOffset": 349824,
      "componentType": 5125,
      "count": 24,
      "type": "SCALAR"
    },
    {
      "bufferView": 2,
      "byteOffset": 653448,
      "componentType": 5126,
      "count": 40,
      "max": [
        -1.3142473697662354,
        0.1534413993358612,
        -8.87601375579834
      ],
      "min": [
        -2.283087730407715,
        -0.8153990507125854,
        -9.775561332702637
      ],
      "type": "VEC3"
    },
    {
      "bufferView": 2,
      "byteOffset": 653928,
      "componentType": 5126,
      "count": 40,
      "max": [
        1.0,
        0.9973663091659546,
        0.9440433979034424
      ],
      "min": [
        -1.0,
        -0.9973663091659546,
        -0.9990803003311157
      ],
      "type": "VEC3"
    },
    {
      "bufferView": 1,
      "byteOffset": 217816,
      "componentType": 5126,
      "count": 40,
      "max": [
        0.875,
        1.0
      ],
      "min": [
        0.125,
        0.0
      ],
      "type": "VEC2"
    },
    {
      "bufferView": 0,
      "byteOffset": 349920,
      "componentType": 5125,
      "count": 60,
      "type": "SCALAR"
    },
    {
      "bufferView": 2,
      "byteOffset": 654408,
      "componentType": 5126,
      "count": 16,
      "max": [
        -1.3813964128494263,
        0.07726120948791504,
        -8.87601375579834
      ],
      "min": [
        -2.2349066734313965,
        -0.7392188310623169,
        -9.221883773803711
      ],
      "type": "VEC3"
    },
    {
      "bufferView": 2,
      "byteOffset": 654600,
      "componentType": 5126,
      "count": 16,
      "max": [
        -0.06465686857700348,
        0.9976518750190735,
        0.9440376162528992
      ],
      "min": [
        -0.9440373182296753,
        -0.9976518154144287,
        -0.32983872294425964
      ],
      "type": "VEC3"
    },
    {
      "bufferView": 1,
      "byteOffset": 218136,
      "componentType": 5126,
      "count": 16,
      "max": [
        0.857672929763794,
        0.7310959696769714
      ],
      "min": [
        0.6423271298408508,
        0.5189040303230286
      ],
      "type": "VEC2"
    },
    {
      "bufferView": 0,
      "byteOffset": 350160,
      "componentType": 5125,
      "count": 24,
      "type": "SCALAR"
    }
  ],
  "asset": {
    "extras": {
      "author": "Zambur (https://sketchfab.com/Zambur)",
      "license": "CC-BY-4.0 (http://creativecommons.org/licenses/by/4.0/)",
      "source": "https://sketchfab.com/3d-models/green-lightsaber-star-wars-76ab91610fbf4a1da384dc4bd8aed0f9",
      "title": "Green LightSaber - Star Wars"
    },
    "generator": "Sketchfab-12.65.0",
    "version": "2.0"
  },
  "bufferViews": [
    {
      "buffer": 0,
      "byteLength": 350256,
      "name": "floatBufferViews",
      "target": 34963
    },
    {
      "buffer": 0,
      "byteLength": 218264,
      "byteOffset": 350256,
      "byteStride": 8,
      "name": "floatBufferViews",
      "target": 34962
    },
    {
      "buffer": 0,
      "byteLength": 654792,
      "byteOffset": 568520,
      "byteStride": 12,
      "name": "floatBufferViews",
      "target": 34962
    }
  ],
  "buffers": [
    {
      "byteLength": 1223312,
      "uri": "scene.bin"
    }
  ],
  "materials": [
    {
      "doubleSided": true,
      "emissiveFactor": [
        0.05097615027984849,
        1.0,
        0.0
      ],
      "name": "material",
      "pbrMetallicRoughness": {
        "baseColorFactor": [
          0.8,
          0.8,
          0.8,
          1.0
        ],
        "roughnessFactor": 0.8040408205773457
      }
    },
    {
      "doubleSided": true,
      "name": "Material.018",
      "pbrMetallicRoughness": {
        "baseColorFactor": [
          0.0,
          0.0,
          0.0,
          1.0
        ],
        "metallicFactor": 0.0
      }
    },
    {
      "doubleSided": true,
      "name": "Material.003",
      "pbrMetallicRoughness": {
        "baseColorFactor": [
          0.303198,
          0.303198,
          0.303198,
          1.0
        ],
        "metallicFactor": 0.4444444444444444,
        "roughnessFactor": 0.7016742770167428
      }
    },
    {
      "doubleSided": true,
      "name": "Material.019",
      "pbrMetallicRoughness": {
        "baseColorFactor": [
          0.603816,
          0.603816,
          0.603816,
          1.0
        ],
        "roughnessFactor": 0.39117199391172
      }
    },
    {
      "doubleSided": true,
      "emissiveFactor": [
        1.0,
        0.0,
        0.0
      ],
      "name": "Material.001",
      "pbrMetallicRoughness": {
        "baseColorFactor": [
          0.8,
          0.8,
          0.8,
          1.0
        ],
        "roughnessFactor": 0.0
      }
    },
    {
      "doubleSided": true,
      "name": "Material.002",
      "pbrMetallicRoughness": {
        "baseColorFactor": [
          0.208328,
          0.208328,
          0.208328,
          1.0
        ],
        "metallicFactor": 0.0,
        "roughnessFactor": 0.9534164430383424
      }
    },
    {
      "doubleSided": true,
      "name": "negro",
      "pbrMetallicRoughness": {
        "baseColorFactor": [
          0.0331027,
          0.0331027,
          0.0331027,
          1.0
        ],
        "metallicFactor": 0.0,
        "roughnessFactor": 0.9925980112561218
      }
    },
    {
      "doubleSided": true,
      "name": "Material.010",
      "pbrMetallicRoughness": {
        "baseColorFactor": [
          0.0331027,
          0.0331027,
          0.0331027,
          1.0
        ],
        "metallicFactor": 0.0,
        "roughnessFactor": 0.9925980112561218
      }
    },
    {
      "doubleSided": true,
      "name": "Material.011",
      "pbrMetallicRoughness": {
        "baseColorFactor": [
          0.0331027,
          0.0331027,
          0.0331027,
          1.0
        ],
        "metallicFactor": 0.0,
        "roughnessFactor": 0.9925980112561218
      }
    },
    {
      "doubleSided": true,
      "name": "Material.012",
      "pbrMetallicRoughness": {
        "baseColorFactor": [
          0.03741,
          0.03741,
          0.03741,
          1.0
        ],
        "metallicFactor": 0.0,
        "roughnessFactor": 0.9916348696961733
      }
    },
    {
      "doubleSided": true,
      "name": "Material.013",
      "pbrMetallicRoughness": {
        "baseColorFactor": [
          0.035218,
          0.035218,
          0.035218,
          1.0
        ],
        "metallicFactor": 0.0,
        "roughnessFactor": 0.9921250157968412
      }
    },
    {
      "doubleSided": true,
      "name": "Material.015",
      "pbrMetallicRoughness": {
        "baseColorFactor": [
          0.035218,
          0.035218,
          0.035218,
          1.0
        ],
        "metallicFactor": 0.0,
        "roughnessFactor": 0.9921250157968412
      }
    },
    {
      "doubleSided": true,
      "name": "Material.014",
      "pbrMetallicRoughness": {
        "baseColorFactor": [
          0.03741,
          0.03741,
          0.03741,
          1.0
        ],
        "metallicFactor": 0.0,
        "roughnessFactor": 0.9916348696961733
      }
    },
    {
      "doubleSided": true,
      "name": "Material.016",
      "pbrMetallicRoughness": {
        "baseColorFactor": [
          0.0219793,
          0.0219793,
          0.0219793,
          1.0
        ],
        "metallicFactor": 0.0,
        "roughnessFactor": 0.9950852791102139
      }
    },
    {
      "doubleSided": true,
      "name": "Material.005",
      "pbrMetallicRoughness": {
        "baseColorFactor": [
          0.246189,
          0.0960107,
          0.0,
          1.0
        ],
        "metallicFactor": 0.0,
        "roughnessFactor": 0.972942094055812
      }
    },
    {
      "doubleSided": true,
      "name": "Material.006",
      "pbrMetallicRoughness": {
        "baseColorFactor": [
          0.51786,
          0.19562,
          0.0,
          1.0
        ],
        "metallicFactor": 0.0,
        "roughnessFactor": 0.9440973032761872
      }
    },
    {
      "doubleSided": true,
      "name": "Material.004",
      "pbrMetallicRoughness": {
        "baseColorFactor": [
          0.233016,
          0.104051,
          0.0,
          1.0
        ],
        "metallicFactor": 0.0,
        "roughnessFactor": 0.9722824891623825
      }
    },
    {
      "doubleSided": true,
      "name": "Material.009",
      "pbrMetallicRoughness": {
        "baseColorFactor": [
          0.8,
          0.8,
          0.8,
          1.0
        ],
        "metallicFactor": 0.0,
        "roughnessFactor": 0.8211145618000169
      }
    }
  ],
  "meshes": [
    {
      "name": "Cylinder.001_luz_0",
      "primitives": [
        {
          "attributes": {
            "NORMAL": 1,
            "POSITION": 0,
            "TEXCOORD_0": 2
          },
          "indices": 3,
          "material": 0,
          "mode": 4
        }
      ]
    },
    {
      "name": "Cylinder.001_Material.018_0",
      "primitives": [
        {
          "attributes": {
            "NORMAL": 5,
            "POSITION": 4,
            "TEXCOORD_0": 6
          },
          "indices": 7,
          "material": 1,
          "mode": 4
        }
      ]
    },
    {
      "name": "Cylinder.001_Material.003_0",
      "primitives": [
        {
          "attributes": {
            "NORMAL": 9,
            "POSITION": 8,
            "TEXCOORD_0": 10
          },
          "indices": 11,
          "material": 2,
          "mode": 4
        }
      ]
    },
    {
      "name": "Cylinder.001_Material.019_0",
      "primitives": [
        {
          "attributes": {
            "NORMAL": 13,
            "POSITION": 12,
            "TEXCOORD_0": 14
          },
          "indices": 15,
          "material": 3,
          "mode": 4
        }
      ]
    },
    {
      "name": "Cylinder.001_Material.001_0",
      "primitives": [
        {
          "attributes": {
            "NORMAL": 17,
            "POSITION": 16,
            "TEXCOORD_0": 18
          },
          "indices": 19,
          "material": 4,
          "mode": 4
        }
      ]
    },
    {
      "name": "Cylinder.001_Material.002_0",
      "primitives": [
        {
          "attributes": {
            "NORMAL": 21,
            "POSITION": 20,
            "TEXCOORD_0": 22
          },
          "indices": 23,
          "material": 5,
          "mode": 4
        }
      ]
    },
    {
      "name": "Cylinder.001_negro_0",
      "primitives": [
        {
          "attributes": {
            "NORMAL": 25,
            "POSITION": 24,
            "TEXCOORD_0": 26
          },
          "indices": 27,
          "material": 6,
          "mode": 4
        }
      ]
    },
    {
      "name": "Cylinder.001_Material.010_0",
      "primitives": [
        {
          "attributes": {
            "NORMAL": 29,
            "POSITION": 28,
            "TEXCOORD_0": 30
          },
          "indices": 31,
          "material": 7,
          "mode": 4
        }
      ]
    },
    {
      "name": "Cylinder.001_Material.011_0",
      "primitives": [
        {
          "attributes": {
            "NORMAL": 33,
            "POSITION": 32,
            "TEXCOORD_0": 34
          },
          "indices": 35,
          "material": 8,
          "mode": 4
        }
      ]
    },
    {
      "name": "Cylinder.001_Material.012_0",
      "primitives": [
        {
          "attributes": {
            "NORMAL": 37,
            "POSITION": 36,
            "TEXCOORD_0": 38
          },
          "indices": 39,
          "material": 9,
          "mode": 4
        }
      ]
    },
    {
      "name": "Cylinder.001_Material.013_0",
      "primitives": [
        {
          "attributes": {
            "NORMAL": 41,
            "POSITION": 40,
            "TEXCOORD_0": 42
          },
          "indices": 43,
          "material": 10,
          "mode": 4
        }
      ]
    },
    {
      "name": "Cylinder.001_Material.015_0",
      "primitives": [
        {
          "attributes": {
            "NORMAL": 45,
            "POSITION": 44,
            "TEXCOORD_0": 46
          },
          "indices": 47,
          "material": 11,
          "mode": 4
        }
      ]
    },
    {
      "name": "Cylinder.001_Material.014_0",
      "primitives": [
        {
          "attributes": {
            "NORMAL": 49,
            "POSITION": 48,
            "TEXCOORD_0": 50
          },
          "indices": 51,
          "material": 12,
          "mode": 4
        }
      ]
    },
    {
      "name": "Cylinder.001_Material.016_0",
      "primitives": [
        {
          "attributes": {
            "NORMAL": 53,
            "POSITION": 52,
            "TEXCOORD_0": 54
          },
          "indices": 55,
          "material": 13,
          "mode": 4
        }
      ]
    },
    {
      "name": "Cylinder.001_Material.005_0",
      "primitives": [
        {
          "attributes": {
            "NORMAL": 57,
            "POSITION": 56,
            "TEXCOORD_0": 58
          },
          "indices": 59,
          "material": 14,
          "mode": 4
        }
      ]
    },
    {
      "name": "Cylinder.001_Material.006_0",
      "primitives": [
        {
          "attributes": {
            "NORMAL": 61,
            "POSITION": 60,
            "TEXCOORD_0": 62
          },
          "indices": 63,
          "material": 15,
          "mode": 4
        }
      ]
    },
    {
      "name": "Cylinder.001_Material.004_0",
      "primitives": [
        {
          "attributes": {
            "NORMAL": 65,
            "POSITION": 64,
            "TEXCOORD_0": 66
          },
          "indices": 67,
          "material": 16,
          "mode": 4
        }
      ]
    },
    {
      "name": "Cylinder.001_Material.009_0",
      "primitives": [
        {
          "attributes": {
            "NORMAL": 69,
            "POSITION": 68,
            "TEXCOORD_0": 70
          },
          "indices": 71,
          "material": 17,
          "mode": 4
        }
      ]
    }
  ],
  "nodes": [
    {
      "children": [
        1
      ],
      "matrix": [
        0.00042715517338365316,
        0.0,
        0.0,
        0.0,
        0.0,
        9.484750171565652e-20,
        -0.00042715517338365316,
        0.0,
        0.0,
        0.00042715517338365316,
        9.484750171565652e-20,
        0.0,
        0.0,
        0.0,
        0.0,
        1.0
      ],
      "name": "Sketchfab_model"
    },
    {
      "children": [
        2
      ],
      "matrix": [
        1.0,
        0.0,
        0.0,
        0.0,
        0.0,
        0.0,
        1.0,
        0.0,
        0.0,
        -1.0,
        0.0,
        0.0,
        0.0,
        0.0,
        0.0,
        1.0
      ],
      "name": "e509d62cfb2141da8ea848a18878aae6.fbx"
    },
    {
      "children": [
        3
      ],
      "name": "RootNode"
    },
    {
      "children": [
        4,
        5,
        6,
        7,
        8,
        9,
        10,
        11,
        12,
        13,
        14,
        15,
        16,
        17,
        18,
        19,
        20,
        21
      ],
      "matrix": [
        -0.24832007104274648,
        -30.80181163101628,
        -3.4197991745414874e-15,
        0.0,
        -1.3463900060719458e-06,
        1.0854415221601285e-08,
        -30.802812576293917,
        0.0,
        30.80181163101625,
        -0.24832007104274648,
        -1.346433762402384e-06,
        0.0,
        0.0,
        60.45941162109375,
        -755.1588745117188,
        1.0
      ],
      "name": "Cylinder.001"
    },
    {
      "mesh": 0,
      "name": "Cylinder.001_luz_0"
    },
    {
      "mesh": 1,
      "name": "Cylinder.001_Material.018_0"
    },
    {
      "mesh": 2,
      "name": "Cylinder.001_Material.003_0"
    },
    {
      "mesh": 3,
      "name": "Cylinder.001_Material.019_0"
    },
    {
      "mesh": 4,
      "name": "Cylinder.001_Material.001_0"
    },
    {
      "mesh": 5,
      "name": "Cylinder.001_Material.002_0"
    },
    {
      "mesh": 6,
      "name": "Cylinder.001_negro_0"
    },
    {
      "mesh": 7,
      "name": "Cylinder.001_Material.010_0"
    },
    {
      "mesh": 8,
      "name": "Cylinder.001_Material.011_0"
    },
    {
      "mesh": 9,
      "name": "Cylinder.001_Material.012_0"
    },
    {
      "mesh": 10,
      "name": "Cylinder.001_Material.013_0"
    },
    {
      "mesh": 11,
      "name": "Cylinder.001_Material.015_0"
    },
    {
      "mesh": 12,
      "name": "Cylinder.001_Material.014_0"
    },
    {
      "mesh": 13,
      "name": "Cylinder.001_Material.016_0"
    },
    {
      "mesh": 14,
      "name": "Cylinder.001_Material.005_0"
    },
    {
      "mesh": 15,
      "name": "Cylinder.001_Material.006_0"
    },
    {
      "mesh": 16,
      "name": "Cylinder.001_Material.004_0"
    },
    {
      "mesh": 17,
      "name": "Cylinder.001_Material.009_0"
    }
  ],
  "scene": 0,
  "scenes": [
    {
      "name": "Sketchfab_Scene",
      "nodes": [
        0
      ]
    }
  ]
}
