{
  "accessors": [
    {
      "bufferView": 2,
      "componentType": 5126,
      "count": 4391,
      "max": [
        13.545900344848633,
        24.624500274658203,
        234.7523956298828
      ],
      "min": [
        -13.399499893188477,
        -29.45319938659668,
        210.91290283203125
      ],
      "type": "VEC3"
    },
    {
      "bufferView": 2,
      "byteOffset": 52692,
      "componentType": 5126,
      "count": 4391,
      "max": [
        1.0,
        1.0,
        1.0
      ],
      "min": [
        -1.0,
        -1.0,
        -1.0
      ],
      "type": "VEC3"
    },
    {
      "bufferView": 3,
      "componentType": 5126,
      "count": 4391,
      "max": [
        1.0,
        1.0,
        1.0,
        1.0
      ],
      "min": [
        -1.0,
        -1.0,
        -1.0,
        1.0
      ],
      "type": "VEC4"
    },
    {
      "bufferView": 1,
      "componentType": 5126,
      "count": 4391,
      "max": [
        0.9991999864578247,
        0.9976999759674072
      ],
      "min": [
        0.03709999844431877,
        0.004600000102072954
      ],
      "type": "VEC2"
    },
    {
      "bufferView": 0,
      "componentType": 5125,
      "count": 9984,
      "type": "SCALAR"
    },
    {
      "bufferView": 2,
      "byteOffset": 105384,
      "componentType": 5126,
      "count": 2575,
      "max": [
        13.211199760437012,
        25.153600692749023,
        234.7523956298828
      ],
      "min": [
        -13.164799690246582,
        -36.351200103759766,
        206.34840393066406
      ],
      "type": "VEC3"
    },
    {
      "bufferView": 2,
      "byteOffset": 136284,
      "componentType": 5126,
      "count": 2575,
      "max": [
        1.0,
        1.0,
        0.9999734163284302
      ],
      "min": [
        -1.0,
        -1.0,
        -0.9998156428337097
      ],
      "type": "VEC3"
    },
    {
      "bufferView": 3,
      "byteOffset": 70256,
      "componentType": 5126,
      "count": 2575,
      "max": [
        1.0,
        1.0,
        1.0,
        1.0
      ],
      "min": [
        -1.0,
        -1.0,
        -1.0,
        1.0
      ],
      "type": "VEC4"
    },
    {
      "bufferView": 1,
      "byteOffset": 35128,
      "componentType": 5126,
      "count": 2575,
      "max": [
        0.982200026512146,
        0.9962999820709229
      ],
      "min": [
        0.093299999833107,
        0.0019000000320374966
      ],
      "type": "VEC2"
    },
    {
      "bufferView": 0,
      "byteOffset": 39936,
      "componentType": 5125,
      "count": 6660,
      "type": "SCALAR"
    },
    {
      "bufferView": 2,
      "byteOffset": 167184,
      "componentType": 5126,
      "count": 8586,
      "max": [
        13.211199760437012,
        42.41120147705078,
        235.04969787597656
      ],
      "min": [
        -13.164799690246582,
        -36.351200103759766,
        206.34840393066406
      ],
      "type": "VEC3"
    },
    {
      "bufferView": 2,
      "byteOffset": 270216,
      "componentType": 5126,
      "count": 8586,
      "max": [
        1.0,
        1.0,
        1.0
      ],
      "min": [
        -1.0,
        -1.0,
        -1.0
      ],
      "type": "VEC3"
    },
    {
      "bufferView": 3,
      "byteOffset": 111456,
      "componentType": 5126,
      "count": 8586,
      "max": [
        1.0,
        1.0,
        1.0,
        1.0
      ],
      "min": [
        -1.0,
        -1.0,
        -1.0,
        1.0
      ],
      "type": "VEC4"
    },
    {
      "bufferView": 1,
      "byteOffset": 55728,
      "componentType": 5126,
      "count": 8586,
      "max": [
        0.9991000294685364,
        0.9976999759674072
      ],
      "min": [
        0.039400000125169754,
        0.003800000064074993
      ],
      "type": "VEC2"
    },
    {
      "bufferView": 0,
      "byteOffset": 66576,
      "componentType": 5125,
      "count": 14409,
      "type": "SCALAR"
    },
    {
      "bufferView": 2,
      "byteOffset": 373248,
      "componentType": 5126,
      "count": 5895,
      "max": [
        13.545900344848633,
        42.164398193359375,
        234.6051025390625
      ],
      "min": [
        -13.399499893188477,
        -34.2495002746582,
        210.49620056152344
      ],
      "type": "VEC3"
    },
    {
      "bufferView": 2,
      "byteOffset": 443988,
      "componentType": 5126,
      "count": 5895,
      "max": [
        1.0,
        1.0,
        1.0
      ],
      "min": [
        -1.0,
        -1.0,
        -1.0
      ],
      "type": "VEC3"
    },
    {
      "bufferView": 3,
      "byteOffset": 248832,
      "componentType": 5126,
      "count": 5895,
      "max": [
        1.0,
        1.0,
        1.0,
        1.0
      ],
      "min": [
        -1.0,
        -1.0,
        -1.0,
        1.0
      ],
      "type": "VEC4"
    },
    {
      "bufferView": 1,
      "byteOffset": 124416,
      "componentType": 5126,
      "count": 5895,
      "max": [
        0.9955999851226807,
        0.9969000220298767
      ],
      "min": [
        0.0035000001080334187,
        0.0010000000474974513
      ],
      "type": "VEC2"
    },
    {
      "bufferView": 0,
      "byteOffset": 124212,
      "componentType": 5125,
      "count": 14394,
      "type": "SCALAR"
    },
    {
      "bufferView": 2,
      "byteOffset": 514728,
      "componentType": 5126,
      "count": 2336,
      "max": [
        10.438400268554688,
        19.150299072265625,
        234.6374969482422
      ],
      "min": [
        -9.876999855041504,
        -23.69379997253418,
        222.83059692382813
      ],
      "type": "VEC3"
    },
    {
      "bufferView": 2,
      "byteOffset": 542760,
      "componentType": 5126,
      "count": 2336,
      "max": [
        1.0,
        0.9999741315841675,
        1.0
      ],
      "min": [
        -1.0,
        -0.9999741315841675,
        -1.0
      ],
      "type": "VEC3"
    },
    {
      "bufferView": 3,
      "byteOffset": 343152,
      "componentType": 5126,
      "count": 2336,
      "max": [
        1.0,
        1.0,
        0.9501489400863647,
        1.0
      ],
      "min": [
        -1.0,
        -1.0,
        -0.9360458850860596,
        1.0
      ],
      "type": "VEC4"
    },
    {
      "bufferView": 1,
      "byteOffset": 171576,
      "componentType": 5126,
      "count": 2336,
      "max": [
        0.9314000010490417,
        0.9128000140190125
      ],
      "min": [
        0.7305999994277954,
        0.822700023651123
      ],
      "type": "VEC2"
    },
    {
      "bufferView": 0,
      "byteOffset": 181788,
      "componentType": 5125,
      "count": 5268,
      "type": "SCALAR"
    },
    {
      "bufferView": 2,
      "byteOffset": 570792,
      "componentType": 5126,
      "count": 4537,
      "max": [
        71.88600158691406,
        43.539798736572266,
        209.9788055419922
      ],
      "min": [
        -71.88600158691406,
        -23.43549919128418,
        9.386099815368652
      ],
      "type": "VEC3"
    },
    {
      "bufferView": 2,
      "byteOffset": 625236,
      "componentType": 5126,
      "count": 4537,
      "max": [
        1.0,
        1.0,
        1.0
      ],
      "min": [
        -1.0,
        -1.0,
        -1.0
      ],
      "type": "VEC3"
    },
    {
      "bufferView": 3,
      "byteOffset": 380528,
      "componentType": 5126,
      "count": 4537,
      "max": [
        1.0,
        1.0,
        1.0,
        1.0
      ],
      "min": [
        -1.0,
        -1.0,
        -1.0,
        -1.0
      ],
      "type": "VEC4"
    },
    {
      "bufferView": 1,
      "byteOffset": 190264,
      "componentType": 5126,
      "count": 4537,
      "max": [
        0.9954000115394592,
        0.9937999844551086
      ],
      "min": [
        0.0031999999191612005,
        0.006300000008195639
      ],
      "type": "VEC2"
    },
    {
      "bufferView": 0,
      "byteOffset": 202860,
      "componentType": 5125,
      "count": 14157,
      "type": "SCALAR"
    },
    {
      "bufferView": 2,
      "byteOffset": 679680,
      "componentType": 5126,
      "count": 1854,
      "max": [
        11.464599609375,
        41.40890121459961,
        189.77349853515625
      ],
      "min": [
        -11.407600402832031,
        -11.246899604797363,
        12.299500465393066
      ],
      "type": "VEC3"
    },
    {
      "bufferView": 2,
      "byteOffset": 701928,
      "componentType": 5126,
      "count": 1854,
      "max": [
        1.0,
        1.0,
        1.0
      ],
      "min": [
        -1.0,
        -1.0,
        -0.999961256980896
      ],
      "type": "VEC3"
    },
    {
      "bufferView": 3,
      "byteOffset": 453120,
      "componentType": 5126,
      "count": 1854,
      "max": [
        0.999986469745636,
        1.0,
        0.9999918341636658,
        1.0
      ],
      "min": [
        -1.0,
        -1.0,
        -1.0,
        1.0
      ],
      "type": "VEC4"
    },
    {
      "bufferView": 1,
      "byteOffset": 226560,
      "componentType": 5126,
      "count": 1854,
      "max": [
        0.9904999732971191,
        0.9898999929428101
      ],
      "min": [
        0.004900000058114529,
        0.04830000177025795
      ],
      "type": "VEC2"
    },
    {
      "bufferView": 0,
      "byteOffset": 259488,
      "componentType": 5125,
      "count": 3768,
      "type": "SCALAR"
    },
    {
      "bufferView": 2,
      "byteOffset": 724176,
      "componentType": 5126,
      "count": 5716,
      "max": [
        76.37879943847656,
        36.8583984375,
        187.64559936523438
      ],
      "min": [
        -76.37879943847656,
        -42.41120147705078,
        10.248600006103516
      ],
      "type": "VEC3"
    },
    {
      "bufferView": 2,
      "byteOffset": 792768,
      "componentType": 5126,
      "count": 5716,
      "max": [
        1.0,
        1.0,
        1.0
      ],
      "min": [
        -1.0,
        -1.0,
        -1.0
      ],
      "type": "VEC3"
    },
    {
      "bufferView": 3,
      "byteOffset": 482784,
      "componentType": 5126,
      "count": 5716,
      "max": [
        1.0,
        1.0,
        1.0,
        1.0
      ],
      "min": [
        -1.0,
        -1.0,
        -1.0,
        -1.0
      ],
      "type": "VEC4"
    },
    {
      "bufferView": 1,
      "byteOffset": 241392,
      "componentType": 5126,
      "count": 5716,
      "max": [
        0.9972000122070313,
        0.9973999857902527
      ],
      "min": [
        0.000699999975040555,
        0.00570000009611249
      ],
      "type": "VEC2"
    },
    {
      "bufferView": 0,
      "byteOffset": 274560,
      "componentType": 5125,
      "count": 13266,
      "type": "SCALAR"
    },
    {
      "bufferView": 2,
      "byteOffset": 861360,
      "componentType": 5126,
      "count": 5354,
      "max": [
        76.32710266113281,
        36.8583984375,
        187.64559936523438
      ],
      "min": [
        -76.32710266113281,
        -42.41120147705078,
        10.378800392150879
      ],
      "type": "VEC3"
    },
    {
      "bufferView": 2,
      "byteOffset": 925608,
      "componentType": 5126,
      "count": 5354,
      "max": [
        1.0,
        1.0,
        1.0
      ],
      "min": [
        -1.0,
        -1.0,
        -1.0
      ],
      "type": "VEC3"
    },
    {
      "bufferView": 3,
      "byteOffset": 574240,
      "componentType": 5126,
      "count": 5354,
      "max": [
        1.0,
        1.0,
        1.0,
        1.0
      ],
      "min": [
        -1.0,
        -1.0,
        -1.0,
        -1.0
      ],
      "type": "VEC4"
    },
    {
      "bufferView": 1,
      "byteOffset": 287120,
      "componentType": 5126,
      "count": 5354,
      "max": [
        0.9975000023841858,
        0.9979000091552734
      ],
      "min": [
        0.005499999970197678,
        0.0066999997943639755
      ],
      "type": "VEC2"
    },
    {
      "bufferView": 0,
      "byteOffset": 327624,
      "componentType": 5125,
      "count": 11988,
      "type": "SCALAR"
    },
    {
      "bufferView": 2,
      "byteOffset": 989856,
      "componentType": 5126,
      "count": 5103,
      "max": [
        76.05329895019531,
        36.8583984375,
        187.64559936523438
      ],
      "min": [
        -76.05329895019531,
        -42.41120147705078,
        10.248600006103516
      ],
      "type": "VEC3"
    },
    {
      "bufferView": 2,
      "byteOffset": 1051092,
      "componentType": 5126,
      "count": 5103,
      "max": [
        1.0,
        1.0,
        1.0
      ],
      "min": [
        -1.0,
        -1.0,
        -1.0
      ],
      "type": "VEC3"
    },
    {
      "bufferView": 3,
      "byteOffset": 659904,
      "componentType": 5126,
      "count": 5103,
      "max": [
        1.0,
        1.0,
        1.0,
        1.0
      ],
      "min": [
        -1.0,
        -1.0,
        -1.0,
        -1.0
      ],
      "type": "VEC4"
    },
    {
      "bufferView": 1,
      "byteOffset": 329952,
      "componentType": 5126,
      "count": 5103,
      "max": [
        0.9911999702453613,
        0.9872999787330627
      ],
      "min": [
        0.02199999988079071,
        0.004600000102072954
      ],
      "type": "VEC2"
    },
    {
      "bufferView": 0,
      "byteOffset": 375576,
      "componentType": 5125,
      "count": 10764,
      "type": "SCALAR"
    }
  ],
  "asset": {
    "extras": {
      "author": "nekodemo (https://sketchfab.com/Nekodemo)",
      "license": "CC-BY-4.0 (http://creativecommons.org/licenses/by/4.0/)",
      "source": "https://sketchfab.com/3d-models/b-wing-w-i-p-d83fb5eb8fb542789e751c05a542f5bc",
      "title": "B-Wing ( W I P )"
    },
    "generator": "Sketchfab-12.66.0",
    "version": "2.0"
  },
  "bufferViews": [
    {
      "buffer": 0,
      "byteLength": 418632,
      "name": "floatBufferViews",
      "target": 34963
    },
    {
      "buffer": 0,
      "byteLength": 370776,
      "byteOffset": 418632,
      "byteStride": 8,
      "name": "floatBufferViews",
      "target": 34962
    },
    {
      "buffer": 0,
      "byteLength": 1112328,
      "byteOffset": 789408,
      "byteStride": 12,
      "name": "floatBufferViews",
      "target": 34962
    },
    {
      "buffer": 0,
      "byteLength": 741552,
      "byteOffset": 1901736,
      "byteStride": 16,
      "name": "floatBufferViews",
      "target": 34962
    }
  ],
  "buffers": [
    {
      "byteLength": 2643288,
      "uri": "scene.bin"
    }
  ],
  "images": [
    {
      "uri": "textures/Material__38_baseColor.jpeg"
    },
    {
      "uri": "textures/Material__38_metallicRoughness.png"
    },
    {
      "uri": "textures/Material__38_normal.jpeg"
    },
    {
      "uri": "textures/Material__39_baseColor.jpeg"
    },
    {
      "uri": "textures/Material__39_metallicRoughness.png"
    },
    {
      "uri": "textures/Material__39_normal.jpeg"
    },
    {
      "uri": "textures/Material__41_baseColor.jpeg"
    },
    {
      "uri": "textures/Material__41_metallicRoughness.png"
    },
    {
      "uri": "textures/Material__41_normal.jpeg"
    }
  ],
  "materials": [
    {
      "doubleSided": true,
      "name": "Material__38",
      "normalTexture": {
        "index": 2
      },
      "occlusionTexture": {
        "index": 1
      },
      "pbrMetallicRoughness": {
        "baseColorTexture": {
          "index": 0
        },
        "metallicRoughnessTexture": {
          "index": 1
        }
      }
    },
    {
      "doubleSided": true,
      "name": "Material__39",
      "normalTexture": {
        "index": 5
      },
      "occlusionTexture": {
        "index": 4
      },
      "pbrMetallicRoughness": {
        "baseColorTexture": {
          "index": 3
        },
        "metallicRoughnessTexture": {
          "index": 4
        }
      }
    },
    {
      "doubleSided": true,
      "name": "Material__41",
      "normalTexture": {
        "index": 8
      },
      "occlusionTexture": {
        "index": 7
      },
      "pbrMetallicRoughness": {
        "baseColorTexture": {
          "index": 6
        },
        "metallicRoughnessTexture": {
          "index": 7
        }
      }
    }
  ],
  "meshes": [
    {
      "name": "Object_0",
      "primitives": [
        {
          "attributes": {
            "NORMAL": 1,
            "POSITION": 0,
            "TANGENT": 2,
            "TEXCOORD_0": 3
          },
          "indices": 4,
          "material": 0,
          "mode": 4
        }
      ]
    },
    {
      "name": "Object_1",
      "primitives": [
        {
          "attributes": {
            "NORMAL": 6,
            "POSITION": 5,
            "TANGENT": 7,
            "TEXCOORD_0": 8
          },
          "indices": 9,
          "material": 0,
          "mode": 4
        }
      ]
    },
    {
      "name": "Object_2",
      "primitives": [
        {
          "attributes": {
            "NORMAL": 11,
            "POSITION": 10,
            "TANGENT": 12,
            "TEXCOORD_0": 13
          },
          "indices": 14,
          "material": 0,
          "mode": 4
        }
      ]
    },
    {
      "name": "Object_3",
      "primitives": [
        {
          "attributes": {
            "NORMAL": 16,
            "POSITION": 15,
            "TANGENT": 17,
            "TEXCOORD_0": 18
          },
          "indices": 19,
          "material": 0,
          "mode": 4
        }
      ]
    },
    {
      "name": "Object_4",
      "primitives": [
        {
          "attributes": {
            "NORMAL": 21,
            "POSITION": 20,
            "TANGENT": 22,
            "TEXCOORD_0": 23
          },
          "indices": 24,
          "material": 0,
          "mode": 4
        }
      ]
    },
    {
      "name": "Object_5",
      "primitives": [
        {
          "attributes": {
            "NORMAL": 26,
            "POSITION": 25,
            "TANGENT": 27,
            "TEXCOORD_0": 28
          },
          "indices": 29,
          "material": 1,
          "mode": 4
        }
      ]
    },
    {
      "name": "Object_6",
      "primitives": [
        {
          "attributes": {
            "NORMAL": 31,
            "POSITION": 30,
            "TANGENT": 32,
            "TEXCOORD_0": 33
          },
          "indices": 34,
          "material": 1,
          "mode": 4
        }
      ]
    },
    {
      "name": "Object_7",
      "primitives": [
        {
          "attributes": {
            "NORMAL": 36,
            "POSITION": 35,
            "TANGENT": 37,
            "TEXCOORD_0": 38
          },
          "indices": 39,
          "material": 2,
          "mode": 4
        }
      ]
    },
    {
      "name": "Object_8",
      "primitives": [
        {
          "attributes": {
            "NORMAL": 41,
            "POSITION": 40,
            "TANGENT": 42,
            "TEXCOORD_0": 43
          },
          "indices": 44,
          "material": 2,
          "mode": 4
        }
      ]
    },
    {
      "name": "Object_9",
      "primitives": [
        {
          "attributes": {
            "NORMAL": 46,
            "POSITION": 45,
            "TANGENT": 47,
            "TEXCOORD_0": 48
          },
          "indices": 49,
          "material": 2,
          "mode": 4
        }
      ]
    }
  ],
  "nodes": [
    {
      "children": [
        1
      ],
      "matrix": [
        1.0,
        0.0,
        0.0,
        0.0,
        0.0,
        2.220446049250313e-16,
        -1.0,
        0.0,
        0.0,
        1.0,
        2.220446049250313e-16,
        0.0,
        0.0,
        0.0,
        0.0,
        1.0
      ],
      "name": "Sketchfab_model"
    },
    {
      "children": [
        2,
        3,
        4,
        5,
        6,
        7,
        8,
        9,
        10,
        11
      ],
      "name": "B-Wing.obj.cleaner.gles"
    },
    {
      "mesh": 0,
      "name": "Object_2"
    },
    {
      "mesh": 1,
      "name": "Object_3"
    },
    {
      "mesh": 2,
      "name": "Object_4"
    },
    {
      "mesh": 3,
      "name": "Object_5"
    },
    {
      "mesh": 4,
      "name": "Object_6"
    },
    {
      "mesh": 5,
      "name": "Object_7"
    },
    {
      "mesh": 6,
      "name": "Object_8"
    },
    {
      "mesh": 7,
      "name": "Object_9"
    },
    {
      "mesh": 8,
      "name": "Object_10"
    },
    {
      "mesh": 9,
      "name": "Object_11"
    }
  ],
  "samplers": [
    {
      "magFilter": 9729,
      "minFilter": 9987,
      "wrapS": 10497,
      "wrapT": 10497
    }
  ],
  "scene": 0,
  "scenes": [
    {
      "name": "Sketchfab_Scene",
      "nodes": [
        0
      ]
    }
  ],
  "textures": [
    {
      "sampler": 0,
      "source": 0
    },
    {
      "sampler": 0,
      "source": 1
    },
    {
      "sampler": 0,
      "source": 2
    },
    {
      "sampler": 0,
      "source": 3
    },
    {
      "sampler": 0,
      "source": 4
    },
    {
      "sampler": 0,
      "source": 5
    },
    {
      "sampler": 0,
      "source": 6
    },
    {
      "sampler": 0,
      "source": 7
    },
    {
      "sampler": 0,
      "source": 8
    }
  ]
}
