{
  "accessors": [
    {
      "bufferView": 3,
      "componentType": 5126,
      "count": 4784,
      "max": [
        0.7827165126800537,
        -0.24336379766464233,
        0.9287399053573608
      ],
      "min": [
        -0.7827165126800537,
        -0.6144622564315796,
        -0.1760464906692505
      ],
      "type": "VEC3"
    },
    {
      "bufferView": 3,
      "byteOffset": 57408,
      "componentType": 5126,
      "count": 4784,
      "max": [
        1.0,
        1.0,
        1.0
      ],
      "min": [
        -1.0,
        -1.0,
        -1.0
      ],
      "type": "VEC3"
    },
    {
      "bufferView": 4,
      "componentType": 5126,
      "count": 4784,
      "max": [
        0.9999995827674866,
        1.0,
        0.9999995827674866,
        1.0
      ],
      "min": [
        -0.9999995827674866,
        -1.0,
        -0.9999996423721313,
        -1.0
      ],
      "type": "VEC4"
    },
    {
      "bufferView": 2,
      "componentType": 5126,
      "count": 4784,
      "max": [
        2.5,
        2.5
      ],
      "min": [
        -1.5,
        -1.5
      ],
      "type": "VEC2"
    },
    {
      "bufferView": 1,
      "componentType": 5125,
      "count": 13416,
      "type": "SCALAR"
    },
    {
      "bufferView": 3,
      "byteOffset": 114816,
      "componentType": 5126,
      "count": 128,
      "max": [
        0.699259877204895,
        -0.48136773705482483,
        0.8452833890914917
      ],
      "min": [
        -0.699259877204895,
        -0.48136773705482483,
        -0.09258994460105896
      ],
      "type": "VEC3"
    },
    {
      "bufferView": 3,
      "byteOffset": 116352,
      "componentType": 5126,
      "count": 128,
      "max": [
        0.0,
        -1.0,
        -2.220446049250313e-16
      ],
      "min": [
        0.0,
        -1.0,
        -2.220446049250313e-16
      ],
      "type": "VEC3"
    },
    {
      "bufferView": 2,
      "byteOffset": 38272,
      "componentType": 5126,
      "count": 128,
      "max": [
        2.0276920795440674,
        2.373626708984375
      ],
      "min": [
        1.5042996406555176,
        1.841825008392334
      ],
      "type": "VEC2"
    },
    {
      "bufferView": 1,
      "byteOffset": 53664,
      "componentType": 5125,
      "count": 360,
      "type": "SCALAR"
    },
    {
      "bufferView": 3,
      "byteOffset": 117888,
      "componentType": 5126,
      "count": 336,
      "max": [
        -0.17925423383712769,
        0.6051977872848511,
        0.5143003463745117
      ],
      "min": [
        -0.32977643609046936,
        0.454675555229187,
        0.36377811431884766
      ],
      "type": "VEC3"
    },
    {
      "bufferView": 3,
      "byteOffset": 121920,
      "componentType": 5126,
      "count": 336,
      "max": [
        1.0,
        1.0,
        1.0
      ],
      "min": [
        -1.0,
        -1.0,
        -1.0
      ],
      "type": "VEC3"
    },
    {
      "bufferView": 4,
      "byteOffset": 76544,
      "componentType": 5126,
      "count": 336,
      "max": [
        1.0,
        0.9238802194595337,
        1.0,
        1.0
      ],
      "min": [
        -1.0,
        -1.0,
        -1.0,
        1.0
      ],
      "type": "VEC4"
    },
    {
      "bufferView": 2,
      "byteOffset": 39296,
      "componentType": 5126,
      "count": 336,
      "max": [
        2.9362573623657227,
        2.947195291519165
      ],
      "min": [
        -1.999999761581421,
        -0.8972141742706299
      ],
      "type": "VEC2"
    },
    {
      "bufferView": 1,
      "byteOffset": 55104,
      "componentType": 5125,
      "count": 930,
      "type": "SCALAR"
    },
    {
      "bufferView": 3,
      "byteOffset": 125952,
      "componentType": 5126,
      "count": 1607,
      "max": [
        0.15312111377716064,
        0.04071266949176788,
        0.4732276201248169
      ],
      "min": [
        -0.1531212329864502,
        -0.25303149223327637,
        0.07526111602783203
      ],
      "type": "VEC3"
    },
    {
      "bufferView": 3,
      "byteOffset": 145236,
      "componentType": 5126,
      "count": 1607,
      "max": [
        1.0,
        1.0,
        1.0
      ],
      "min": [
        -1.0,
        -1.0,
        -1.0
      ],
      "type": "VEC3"
    },
    {
      "bufferView": 4,
      "byteOffset": 81920,
      "componentType": 5126,
      "count": 1607,
      "max": [
        1.0,
        1.0,
        1.0,
        1.0
      ],
      "min": [
        -1.0,
        -1.0,
        -1.0,
        1.0
      ],
      "type": "VEC4"
    },
    {
      "bufferView": 2,
      "byteOffset": 41984,
      "componentType": 5126,
      "count": 1607,
      "max": [
        2.999999761581421,
        2.999999761581421
      ],
      "min": [
        -1.999999761581421,
        -1.999999761581421
      ],
      "type": "VEC2"
    },
    {
      "bufferView": 1,
      "byteOffset": 58824,
      "componentType": 5125,
      "count": 4338,
      "type": "SCALAR"
    },
    {
      "bufferView": 3,
      "byteOffset": 164520,
      "componentType": 5126,
      "count": 8974,
      "max": [
        1.4355615377426147,
        1.790040373802185,
        0.42263880372047424
      ],
      "min": [
        -1.4355615377426147,
        -2.2453317642211914,
        -0.2591416835784912
      ],
      "type": "VEC3"
    },
    {
      "bufferView": 3,
      "byteOffset": 272208,
      "componentType": 5126,
      "count": 8974,
      "max": [
        1.0,
        1.0,
        1.0
      ],
      "min": [
        -1.0,
        -1.0,
        -1.0
      ],
      "type": "VEC3"
    },
    {
      "bufferView": 4,
      "byteOffset": 107632,
      "componentType": 5126,
      "count": 8974,
      "max": [
        1.0,
        1.0,
        1.0,
        1.0
      ],
      "min": [
        -1.0,
        -1.0,
        -1.0,
        -1.0
      ],
      "type": "VEC4"
    },
    {
      "bufferView": 2,
      "byteOffset": 54840,
      "componentType": 5126,
      "count": 8974,
      "max": [
        5.440528392791748,
        5.5
      ],
      "min": [
        -4.5,
        -4.5
      ],
      "type": "VEC2"
    },
    {
      "bufferView": 1,
      "byteOffset": 76176,
      "componentType": 5125,
      "count": 16893,
      "type": "SCALAR"
    },
    {
      "bufferView": 3,
      "byteOffset": 379896,
      "componentType": 5126,
      "count": 4006,
      "max": [
        1.4473848342895508,
        1.7315903902053833,
        0.4332415461540222
      ],
      "min": [
        -1.4473848342895508,
        -2.2453317642211914,
        -0.2591416835784912
      ],
      "type": "VEC3"
    },
    {
      "bufferView": 3,
      "byteOffset": 427968,
      "componentType": 5126,
      "count": 4006,
      "max": [
        1.0,
        1.0,
        1.0
      ],
      "min": [
        -1.0,
        -1.0,
        -1.0
      ],
      "type": "VEC3"
    },
    {
      "bufferView": 4,
      "byteOffset": 251216,
      "componentType": 5126,
      "count": 4006,
      "max": [
        1.0,
        1.0,
        1.0,
        1.0
      ],
      "min": [
        -1.0,
        -1.0,
        -1.0,
        -1.0
      ],
      "type": "VEC4"
    },
    {
      "bufferView": 2,
      "byteOffset": 126632,
      "componentType": 5126,
      "count": 4006,
      "max": [
        5.5,
        5.483663558959961
      ],
      "min": [
        -4.5,
        -4.5
      ],
      "type": "VEC2"
    },
    {
      "bufferView": 1,
      "byteOffset": 143748,
      "componentType": 5125,
      "count": 7164,
      "type": "SCALAR"
    },
    {
      "bufferView": 3,
      "byteOffset": 476040,
      "componentType": 5126,
      "count": 3232,
      "max": [
        0.781842052936554,
        0.17517200112342834,
        -0.08008226752281189
      ],
      "min": [
        -0.781842052936554,
        -0.9278653860092163,
        -0.3385917544364929
      ],
      "type": "VEC3"
    },
    {
      "bufferView": 3,
      "byteOffset": 514824,
      "componentType": 5126,
      "count": 3232,
      "max": [
        1.0,
        1.0,
        0.0
      ],
      "min": [
        -1.0,
        -1.0,
        -1.0
      ],
      "type": "VEC3"
    },
    {
      "bufferView": 4,
      "byteOffset": 315312,
      "componentType": 5126,
      "count": 3232,
      "max": [
        1.0,
        1.0,
        1.0,
        1.0
      ],
      "min": [
        -1.0,
        -1.0,
        -1.0,
        -1.0
      ],
      "type": "VEC4"
    },
    {
      "bufferView": 2,
      "byteOffset": 158680,
      "componentType": 5126,
      "count": 3232,
      "max": [
        2.5,
        2.5
      ],
      "min": [
        -1.5,
        -1.5
      ],
      "type": "VEC2"
    },
    {
      "bufferView": 1,
      "byteOffset": 172404,
      "componentType": 5125,
      "count": 8808,
      "type": "SCALAR"
    },
    {
      "bufferView": 3,
      "byteOffset": 553608,
      "componentType": 5126,
      "count": 24710,
      "max": [
        0.1758730411529541,
        -1.2447177171707153,
        0.09849704056978226
      ],
      "min": [
        -0.1758730411529541,
        -3.148494005203247,
        -0.21108973026275635
      ],
      "type": "VEC3"
    },
    {
      "bufferView": 3,
      "byteOffset": 850128,
      "componentType": 5126,
      "count": 24710,
      "max": [
        1.0,
        1.0,
        1.0
      ],
      "min": [
        -1.0,
        -1.0,
        -1.0
      ],
      "type": "VEC3"
    },
    {
      "bufferView": 4,
      "byteOffset": 367024,
      "componentType": 5126,
      "count": 24710,
      "max": [
        1.0,
        1.0,
        1.0,
        1.0
      ],
      "min": [
        -1.0,
        -1.0,
        -1.0,
        -1.0
      ],
      "type": "VEC4"
    },
    {
      "bufferView": 2,
      "byteOffset": 184536,
      "componentType": 5126,
      "count": 24710,
      "max": [
        3.0,
        3.0
      ],
      "min": [
        -2.0,
        -2.0
      ],
      "type": "VEC2"
    },
    {
      "bufferView": 1,
      "byteOffset": 207636,
      "componentType": 5125,
      "count": 50184,
      "type": "SCALAR"
    },
    {
      "bufferView": 3,
      "byteOffset": 1146648,
      "componentType": 5126,
      "count": 800,
      "max": [
        1.1052486896514893,
        0.5522306561470032,
        0.014310726895928383
      ],
      "min": [
        -1.1052486896514893,
        -3.0529017448425293,
        -0.10172449052333832
      ],
      "type": "VEC3"
    },
    {
      "bufferView": 3,
      "byteOffset": 1156248,
      "componentType": 5126,
      "count": 800,
      "max": [
        1.0,
        1.0,
        1.0
      ],
      "min": [
        -1.0,
        -1.0,
        -1.0
      ],
      "type": "VEC3"
    },
    {
      "bufferView": 2,
      "byteOffset": 382216,
      "componentType": 5126,
      "count": 800,
      "max": [
        0.0,
        0.0
      ],
      "min": [
        0.0,
        0.0
      ],
      "type": "VEC2"
    },
    {
      "bufferView": 1,
      "byteOffset": 408372,
      "componentType": 5125,
      "count": 1200,
      "type": "SCALAR"
    },
    {
      "bufferView": 3,
      "byteOffset": 1165848,
      "componentType": 5126,
      "count": 1960,
      "max": [
        0.15110130608081818,
        0.14078474044799805,
        0.6887960433959961
      ],
      "min": [
        -0.14128372073173523,
        -3.179112434387207,
        -0.13652607798576355
      ],
      "type": "VEC3"
    },
    {
      "bufferView": 3,
      "byteOffset": 1189368,
      "componentType": 5126,
      "count": 1960,
      "max": [
        1.0,
        1.0,
        1.0
      ],
      "min": [
        -1.0,
        -1.0,
        -1.0
      ],
      "type": "VEC3"
    },
    {
      "bufferView": 4,
      "byteOffset": 762384,
      "componentType": 5126,
      "count": 1960,
      "max": [
        1.0,
        1.0,
        1.0,
        1.0
      ],
      "min": [
        -1.0,
        -1.0,
        -1.0,
        1.0
      ],
      "type": "VEC4"
    },
    {
      "bufferView": 2,
      "byteOffset": 388616,
      "componentType": 5126,
      "count": 1960,
      "max": [
        1.5,
        1.5
      ],
      "min": [
        -0.5,
        -0.5
      ],
      "type": "VEC2"
    },
    {
      "bufferView": 1,
      "byteOffset": 413172,
      "componentType": 5125,
      "count": 3282,
      "type": "SCALAR"
    },
    {
      "bufferView": 3,
      "byteOffset": 1212888,
      "componentType": 5126,
      "count": 9552,
      "max": [
        0.3410424292087555,
        2.786677598953247,
        0.6121013164520264
      ],
      "min": [
        -0.3410424292087555,
        -3.2015724182128906,
        -0.27800536155700684
      ],
      "type": "VEC3"
    },
    {
      "bufferView": 3,
      "byteOffset": 1327512,
      "componentType": 5126,
      "count": 9552,
      "max": [
        1.0,
        1.0,
        1.0
      ],
      "min": [
        -1.0,
        -1.0,
        -1.0
      ],
      "type": "VEC3"
    },
    {
      "bufferView": 4,
      "byteOffset": 793744,
      "componentType": 5126,
      "count": 9552,
      "max": [
        1.0,
        1.0,
        1.0,
        1.0
      ],
      "min": [
        -1.0,
        -1.0,
        -1.0,
        -1.0
      ],
      "type": "VEC4"
    },
    {
      "bufferView": 2,
      "byteOffset": 404296,
      "componentType": 5126,
      "count": 9552,
      "max": [
        5.5,
        5.5
      ],
      "min": [
        -4.5,
        -4.5
      ],
      "type": "VEC2"
    },
    {
      "bufferView": 1,
      "byteOffset": 426300,
      "componentType": 5125,
      "count": 18561,
      "type": "SCALAR"
    },
    {
      "bufferView": 3,
      "byteOffset": 1442136,
      "componentType": 5126,
      "count": 3378,
      "max": [
        0.3410222828388214,
        3.1730995178222656,
        0.6121013164520264
      ],
      "min": [
        -0.3410222828388214,
        -3.182507038116455,
        -0.267538458108902
      ],
      "type": "VEC3"
    },
    {
      "bufferView": 3,
      "byteOffset": 1482672,
      "componentType": 5126,
      "count": 3378,
      "max": [
        1.0,
        1.0,
        1.0
      ],
      "min": [
        -1.0,
        -1.0,
        -1.0
      ],
      "type": "VEC3"
    },
    {
      "bufferView": 4,
      "byteOffset": 946576,
      "componentType": 5126,
      "count": 3378,
      "max": [
        1.0,
        1.0,
        1.0,
        1.0
      ],
      "min": [
        -1.0,
        -1.0,
        -1.0,
        -1.0
      ],
      "type": "VEC4"
    },
    {
      "bufferView": 2,
      "byteOffset": 480712,
      "componentType": 5126,
      "count": 3378,
      "max": [
        5.472271919250488,
        5.4911017417907715
      ],
      "min": [
        -4.5,
        -4.5
      ],
      "type": "VEC2"
    },
    {
      "bufferView": 1,
      "byteOffset": 500544,
      "componentType": 5125,
      "count": 6468,
      "type": "SCALAR"
    },
    {
      "bufferView": 3,
      "byteOffset": 1523208,
      "componentType": 5126,
      "count": 9282,
      "max": [
        1.4724903106689453,
        3.1695334911346436,
        0.660762369632721
      ],
      "min": [
        -1.4724903106689453,
        -3.19681978225708,
        -0.27440738677978516
      ],
      "type": "VEC3"
    },
    {
      "bufferView": 3,
      "byteOffset": 1634592,
      "componentType": 5126,
      "count": 9282,
      "max": [
        1.0,
        1.0,
        1.0
      ],
      "min": [
        -1.0,
        -1.0,
        -1.0
      ],
      "type": "VEC3"
    },
    {
      "bufferView": 4,
      "byteOffset": 1000624,
      "componentType": 5126,
      "count": 9282,
      "max": [
        1.0,
        1.0,
        1.0,
        1.0
      ],
      "min": [
        -1.0,
        -1.0,
        -1.0,
        1.0
      ],
      "type": "VEC4"
    },
    {
      "bufferView": 2,
      "byteOffset": 507736,
      "componentType": 5126,
      "count": 9282,
      "max": [
        10.5,
        10.475702285766602
      ],
      "min": [
        -9.5,
        -9.5
      ],
      "type": "VEC2"
    },
    {
      "bufferView": 1,
      "byteOffset": 526416,
      "componentType": 5125,
      "count": 20850,
      "type": "SCALAR"
    },
    {
      "bufferView": 3,
      "byteOffset": 1745976,
      "componentType": 5126,
      "count": 32,
      "max": [
        0.34164226055145264,
        -2.066504716873169,
        0.3359282612800598
      ],
      "min": [
        -0.34164226055145264,
        -3.094421148300171,
        0.21167173981666565
      ],
      "type": "VEC3"
    },
    {
      "bufferView": 3,
      "byteOffset": 1746360,
      "componentType": 5126,
      "count": 32,
      "max": [
        0.9989487528800964,
        -0.03199033439159393,
        0.5602262020111084
      ],
      "min": [
        -0.9989486932754517,
        -0.9971943497657776,
        0.010955090634524822
      ],
      "type": "VEC3"
    },
    {
      "bufferView": 2,
      "byteOffset": 581992,
      "componentType": 5126,
      "count": 32,
      "max": [
        10.33930778503418,
        10.452835083007813
      ],
      "min": [
        -1.3470239639282227,
        -3.565243721008301
      ],
      "type": "VEC2"
    },
    {
      "bufferView": 1,
      "byteOffset": 609816,
      "componentType": 5125,
      "count": 48,
      "type": "SCALAR"
    },
    {
      "bufferView": 3,
      "byteOffset": 1746744,
      "componentType": 5126,
      "count": 2626,
      "max": [
        1.4724903106689453,
        1.7584036588668823,
        0.6711589097976685
      ],
      "min": [
        -1.4724903106689453,
        -3.163503885269165,
        -0.27613329887390137
      ],
      "type": "VEC3"
    },
    {
      "bufferView": 3,
      "byteOffset": 1778256,
      "componentType": 5126,
      "count": 2626,
      "max": [
        1.0,
        1.0,
        1.0
      ],
      "min": [
        -1.0,
        -1.0,
        -1.0
      ],
      "type": "VEC3"
    },
    {
      "bufferView": 4,
      "byteOffset": 1149136,
      "componentType": 5126,
      "count": 2626,
      "max": [
        0.9995911717414856,
        1.0,
        1.0,
        1.0
      ],
      "min": [
        -1.0,
        -1.0,
        -1.0,
        1.0
      ],
      "type": "VEC4"
    },
    {
      "bufferView": 2,
      "byteOffset": 582248,
      "componentType": 5126,
      "count": 2626,
      "max": [
        10.491373062133789,
        10.5
      ],
      "min": [
        -9.5,
        -9.5
      ],
      "type": "VEC2"
    },
    {
      "bufferView": 1,
      "byteOffset": 610008,
      "componentType": 5125,
      "count": 5634,
      "type": "SCALAR"
    },
    {
      "bufferView": 3,
      "byteOffset": 1809768,
      "componentType": 5126,
      "count": 96,
      "max": [
        1.0838836431503296,
        2.7565560340881348,
        0.22309544682502747
      ],
      "min": [
        -1.0838836431503296,
        1.7332202196121216,
        -0.13647498190402985
      ],
      "type": "VEC3"
    },
    {
      "bufferView": 3,
      "byteOffset": 1810920,
      "componentType": 5126,
      "count": 96,
      "max": [
        0.0,
        1.0,
        0.0
      ],
      "min": [
        0.0,
        1.0,
        0.0
      ],
      "type": "VEC3"
    },
    {
      "bufferView": 2,
      "byteOffset": 603256,
      "componentType": 5126,
      "count": 96,
      "max": [
        9.395912170410156,
        9.894773483276367
      ],
      "min": [
        2.209533929824829,
        1.3601188659667969
      ],
      "type": "VEC2"
    },
    {
      "bufferView": 1,
      "byteOffset": 632544,
      "componentType": 5125,
      "count": 270,
      "type": "SCALAR"
    },
    {
      "bufferView": 3,
      "byteOffset": 1812072,
      "componentType": 5126,
      "count": 16,
      "max": [
        0.32917362451553345,
        -0.2421889305114746,
        0.1935514658689499
      ],
      "min": [
        -0.32917362451553345,
        -0.2990814447402954,
        0.15287689864635468
      ],
      "type": "VEC3"
    },
    {
      "bufferView": 3,
      "byteOffset": 1812264,
      "componentType": 5126,
      "count": 16,
      "max": [
        0.9999430775642395,
        0.010678422637283802,
        0.0
      ],
      "min": [
        -0.9999430775642395,
        0.01067791972309351,
        0.0
      ],
      "type": "VEC3"
    },
    {
      "bufferView": 2,
      "byteOffset": 604024,
      "componentType": 5126,
      "count": 16,
      "max": [
        10.320708274841309,
        10.373306274414063
      ],
      "min": [
        -8.375909805297852,
        -2.2365684509277344
      ],
      "type": "VEC2"
    },
    {
      "bufferView": 1,
      "byteOffset": 633624,
      "componentType": 5125,
      "count": 24,
      "type": "SCALAR"
    },
    {
      "bufferView": 3,
      "byteOffset": 1812456,
      "componentType": 5126,
      "count": 736,
      "max": [
        0.09542442858219147,
        0.09542442858219147,
        -0.465188205242157
      ],
      "min": [
        -0.09542442858219147,
        -0.09542442858219147,
        -0.49126172065734863
      ],
      "type": "VEC3"
    },
    {
      "bufferView": 3,
      "byteOffset": 1821288,
      "componentType": 5126,
      "count": 736,
      "max": [
        1.0,
        1.0,
        1.0
      ],
      "min": [
        -1.0,
        -1.0,
        -1.0
      ],
      "type": "VEC3"
    },
    {
      "bufferView": 4,
      "byteOffset": 1191152,
      "componentType": 5126,
      "count": 736,
      "max": [
        0.760492205619812,
        0.791735827922821,
        0.999999463558197,
        1.0
      ],
      "min": [
        -0.7469231486320496,
        -0.9914453029632568,
        -0.999999463558197,
        1.0
      ],
      "type": "VEC4"
    },
    {
      "bufferView": 2,
      "byteOffset": 604152,
      "componentType": 5126,
      "count": 736,
      "max": [
        0.9910678267478943,
        0.9999999403953552
      ],
      "min": [
        0.0,
        0.0
      ],
      "type": "VEC2"
    },
    {
      "bufferView": 1,
      "byteOffset": 633720,
      "componentType": 5125,
      "count": 1716,
      "type": "SCALAR"
    },
    {
      "bufferView": 3,
      "byteOffset": 1830120,
      "componentType": 5126,
      "count": 96,
      "max": [
        0.09053965657949448,
        0.09053965657949448,
        -0.47838959097862244
      ],
      "min": [
        -0.09053964912891388,
        -0.09053965657949448,
        -0.48669198155403137
      ],
      "type": "VEC3"
    },
    {
      "bufferView": 3,
      "byteOffset": 1831272,
      "componentType": 5126,
      "count": 96,
      "max": [
        0.6310141086578369,
        0.6310141086578369,
        -0.7713106870651245
      ],
      "min": [
        -0.6310141086578369,
        -0.6310141086578369,
        -0.7713137865066528
      ],
      "type": "VEC3"
    },
    {
      "bufferView": 2,
      "byteOffset": 610040,
      "componentType": 5126,
      "count": 96,
      "max": [
        0.9584468007087708,
        0.9739604592323303
      ],
      "min": [
        0.030486825853586197,
        0.030830394476652145
      ],
      "type": "VEC2"
    },
    {
      "bufferView": 1,
      "byteOffset": 640584,
      "componentType": 5125,
      "count": 144,
      "type": "SCALAR"
    },
    {
      "bufferView": 3,
      "byteOffset": 1832424,
      "componentType": 5126,
      "count": 48,
      "max": [
        0.06586531549692154,
        0.025653380900621414,
        -0.45240309834480286
      ],
      "min": [
        -0.06586531549692154,
        -0.03942837193608284,
        -0.5487603545188904
      ],
      "type": "VEC3"
    },
    {
      "bufferView": 3,
      "byteOffset": 1833000,
      "componentType": 5126,
      "count": 48,
      "max": [
        1.0,
        1.0,
        1.0
      ],
      "min": [
        -1.0,
        -0.9899356365203857,
        -1.0
      ],
      "type": "VEC3"
    },
    {
      "bufferView": 4,
      "byteOffset": 1202928,
      "componentType": 5126,
      "count": 48,
      "max": [
        1.0,
        0.9999792575836182,
        0.05053368955850601,
        1.0
      ],
      "min": [
        -1.0,
        -1.0,
        -0.05053596943616867,
        1.0
      ],
      "type": "VEC4"
    },
    {
      "bufferView": 2,
      "byteOffset": 610808,
      "componentType": 5126,
      "count": 48,
      "max": [
        1.0,
        0.9798000454902649
      ],
      "min": [
        0.481734961271286,
        0.0
      ],
      "type": "VEC2"
    },
    {
      "bufferView": 1,
      "byteOffset": 641160,
      "componentType": 5125,
      "count": 72,
      "type": "SCALAR"
    },
    {
      "bufferView": 3,
      "byteOffset": 1833576,
      "componentType": 5126,
      "count": 2395,
      "max": [
        0.06987611204385757,
        0.264980286359787,
        0.014251351356506348
      ],
      "min": [
        -0.06987611204385757,
        -0.058265842497348785,
        -0.027269423007965088
      ],
      "type": "VEC3"
    },
    {
      "bufferView": 3,
      "byteOffset": 1862316,
      "componentType": 5126,
      "count": 2395,
      "max": [
        1.0,
        1.0,
        1.0
      ],
      "min": [
        -1.0,
        -1.0,
        -1.0
      ],
      "type": "VEC3"
    },
    {
      "bufferView": 4,
      "byteOffset": 1203696,
      "componentType": 5126,
      "count": 2395,
      "max": [
        1.0,
        1.0,
        1.0,
        1.0
      ],
      "min": [
        -1.0,
        -1.0,
        -1.0,
        1.0
      ],
      "type": "VEC4"
    },
    {
      "bufferView": 2,
      "byteOffset": 611192,
      "componentType": 5126,
      "count": 2395,
      "max": [
        1.0,
        1.0
      ],
      "min": [
        0.0,
        0.0
      ],
      "type": "VEC2"
    },
    {
      "bufferView": 1,
      "byteOffset": 641448,
      "componentType": 5125,
      "count": 6768,
      "type": "SCALAR"
    },
    {
      "bufferView": 3,
      "byteOffset": 1891056,
      "componentType": 5126,
      "count": 48,
      "max": [
        0.029141627252101898,
        0.20191821455955505,
        0.004220545291900635
      ],
      "min": [
        -0.029141440987586975,
        0.20191821455955505,
        -0.011622905731201172
      ],
      "type": "VEC3"
    },
    {
      "bufferView": 3,
      "byteOffset": 1891632,
      "componentType": 5126,
      "count": 48,
      "max": [
        0.0,
        1.0,
        0.0
      ],
      "min": [
        0.0,
        1.0,
        0.0
      ],
      "type": "VEC3"
    },
    {
      "bufferView": 2,
      "byteOffset": 630352,
      "componentType": 5126,
      "count": 48,
      "max": [
        0.3903232514858246,
        0.9894136786460876
      ],
      "min": [
        0.29464995861053467,
        0.9416654109954834
      ],
      "type": "VEC2"
    },
    {
      "bufferView": 1,
      "byteOffset": 668520,
      "componentType": 5125,
      "count": 132,
      "type": "SCALAR"
    },
    {
      "bufferView": 3,
      "byteOffset": 1892208,
      "componentType": 5126,
      "count": 736,
      "max": [
        0.09542442858219147,
        0.09542442858219147,
        0.49126172065734863
      ],
      "min": [
        -0.09542442858219147,
        -0.09542442858219147,
        0.465188205242157
      ],
      "type": "VEC3"
    },
    {
      "bufferView": 3,
      "byteOffset": 1901040,
      "componentType": 5126,
      "count": 736,
      "max": [
        1.0,
        1.0,
        1.0
      ],
      "min": [
        -1.0,
        -1.0,
        -1.0
      ],
      "type": "VEC3"
    },
    {
      "bufferView": 4,
      "byteOffset": 1242016,
      "componentType": 5126,
      "count": 736,
      "max": [
        0.6728220582008362,
        0.6901595592498779,
        0.9999996423721313,
        1.0
      ],
      "min": [
        -0.7062188386917114,
        -0.9914455413818359,
        -1.0,
        1.0
      ],
      "type": "VEC4"
    },
    {
      "bufferView": 2,
      "byteOffset": 630736,
      "componentType": 5126,
      "count": 736,
      "max": [
        0.9906979203224182,
        0.9919984340667725
      ],
      "min": [
        0.0,
        0.0
      ],
      "type": "VEC2"
    },
    {
      "bufferView": 1,
      "byteOffset": 669048,
      "componentType": 5125,
      "count": 1716,
      "type": "SCALAR"
    },
    {
      "bufferView": 3,
      "byteOffset": 1909872,
      "componentType": 5126,
      "count": 96,
      "max": [
        0.09053965657949448,
        0.09053965657949448,
        0.48669198155403137
      ],
      "min": [
        -0.09053964912891388,
        -0.09053965657949448,
        0.47838959097862244
      ],
      "type": "VEC3"
    },
    {
      "bufferView": 3,
      "byteOffset": 1911024,
      "componentType": 5126,
      "count": 96,
      "max": [
        0.6310141086578369,
        0.6310141086578369,
        0.7713137865066528
      ],
      "min": [
        -0.6310141086578369,
        -0.6310141086578369,
        0.7713106870651245
      ],
      "type": "VEC3"
    },
    {
      "bufferView": 2,
      "byteOffset": 636624,
      "componentType": 5126,
      "count": 96,
      "max": [
        0.9486300349235535,
        0.9629351496696472
      ],
      "min": [
        0.06208989396691322,
        0.030510522425174713
      ],
      "type": "VEC2"
    },
    {
      "bufferView": 1,
      "byteOffset": 675912,
      "componentType": 5125,
      "count": 144,
      "type": "SCALAR"
    },
    {
      "bufferView": 3,
      "byteOffset": 1912176,
      "componentType": 5126,
      "count": 48,
      "max": [
        0.06586531549692154,
        0.025653380900621414,
        0.5487603545188904
      ],
      "min": [
        -0.06586531549692154,
        -0.03942837193608284,
        0.45240309834480286
      ],
      "type": "VEC3"
    },
    {
      "bufferView": 3,
      "byteOffset": 1912752,
      "componentType": 5126,
      "count": 48,
      "max": [
        1.0,
        1.0,
        1.0
      ],
      "min": [
        -1.0,
        -0.9899356365203857,
        -1.0
      ],
      "type": "VEC3"
    },
    {
      "bufferView": 4,
      "byteOffset": 1253792,
      "componentType": 5126,
      "count": 48,
      "max": [
        1.0,
        1.0,
        0.018091736361384392,
        1.0
      ],
      "min": [
        -1.0,
        -0.002586599439382553,
        -0.01809348724782467,
        1.0
      ],
      "type": "VEC4"
    },
    {
      "bufferView": 2,
      "byteOffset": 637392,
      "componentType": 5126,
      "count": 48,
      "max": [
        1.0,
        1.0
      ],
      "min": [
        0.48165643215179443,
        0.0
      ],
      "type": "VEC2"
    },
    {
      "bufferView": 1,
      "byteOffset": 676488,
      "componentType": 5125,
      "count": 72,
      "type": "SCALAR"
    },
    {
      "bufferView": 3,
      "byteOffset": 1913328,
      "componentType": 5126,
      "count": 2396,
      "max": [
        0.06987611204385757,
        0.264980286359787,
        0.027269423007965088
      ],
      "min": [
        -0.06987611204385757,
        -0.058265842497348785,
        -0.014251351356506348
      ],
      "type": "VEC3"
    },
    {
      "bufferView": 3,
      "byteOffset": 1942080,
      "componentType": 5126,
      "count": 2396,
      "max": [
        1.0,
        1.0,
        1.0
      ],
      "min": [
        -1.0,
        -1.0,
        -1.0
      ],
      "type": "VEC3"
    },
    {
      "bufferView": 4,
      "byteOffset": 1254560,
      "componentType": 5126,
      "count": 2396,
      "max": [
        0.9999995231628418,
        1.0,
        1.0,
        1.0
      ],
      "min": [
        -1.0,
        -1.0,
        -1.0,
        1.0
      ],
      "type": "VEC4"
    },
    {
      "bufferView": 2,
      "byteOffset": 637776,
      "componentType": 5126,
      "count": 2396,
      "max": [
        1.0,
        1.0
      ],
      "min": [
        0.0,
        0.0
      ],
      "type": "VEC2"
    },
    {
      "bufferView": 1,
      "byteOffset": 676776,
      "componentType": 5125,
      "count": 6768,
      "type": "SCALAR"
    },
    {
      "bufferView": 3,
      "byteOffset": 1970832,
      "componentType": 5126,
      "count": 48,
      "max": [
        0.029141627252101898,
        0.20191821455955505,
        0.011622905731201172
      ],
      "min": [
        -0.029141440987586975,
        0.20191821455955505,
        -0.004220545291900635
      ],
      "type": "VEC3"
    },
    {
      "bufferView": 3,
      "byteOffset": 1971408,
      "componentType": 5126,
      "count": 48,
      "max": [
        0.0,
        1.0,
        0.0
      ],
      "min": [
        0.0,
        1.0,
        0.0
      ],
      "type": "VEC3"
    },
    {
      "bufferView": 2,
      "byteOffset": 656944,
      "componentType": 5126,
      "count": 48,
      "max": [
        0.3776927888393402,
        0.9891798496246338
      ],
      "min": [
        0.2383590042591095,
        0.8119794130325317
      ],
      "type": "VEC2"
    },
    {
      "bufferView": 1,
      "byteOffset": 703848,
      "componentType": 5125,
      "count": 132,
      "type": "SCALAR"
    },
    {
      "bufferView": 5,
      "componentType": 5126,
      "count": 3,
      "max": [
        100.0,
        0.0,
        0.0,
        0.0,
        0.0,
        100.0,
        0.0,
        0.0,
        0.0,
        0.0,
        100.0,
        0.0,
        0.0,
        0.0,
        0.0,
        1.0
      ],
      "min": [
        1.0,
        0.0,
        0.0,
        0.0,
        0.0,
        1.0,
        0.0,
        0.0,
        0.0,
        0.0,
        1.0,
        0.0,
        0.0,
        0.0,
        0.0,
        1.0
      ],
      "type": "MAT4"
    },
    {
      "bufferView": 0,
      "componentType": 5123,
      "count": 4784,
      "type": "VEC4"
    },
    {
      "bufferView": 4,
      "byteOffset": 1292896,
      "componentType": 5126,
      "count": 4784,
      "max": [
        1.0,
        0.0,
        0.0,
        0.0
      ],
      "min": [
        1.0,
        0.0,
        0.0,
        0.0
      ],
      "type": "VEC4"
    },
    {
      "bufferView": 0,
      "byteOffset": 38272,
      "componentType": 5123,
      "count": 128,
      "type": "VEC4"
    },
    {
      "bufferView": 4,
      "byteOffset": 1369440,
      "componentType": 5126,
      "count": 128,
      "max": [
        1.0,
        0.0,
        0.0,
        0.0
      ],
      "min": [
        1.0,
        0.0,
        0.0,
        0.0
      ],
      "type": "VEC4"
    },
    {
      "bufferView": 6,
      "componentType": 5126,
      "count": 148,
      "max": [
        3.0833332538604736
      ],
      "min": [
        0.0
      ],
      "type": "SCALAR"
    },
    {
      "bufferView": 7,
      "componentType": 5126,
      "count": 148,
      "max": [
        0.0,
        6.617444900424222e-24,
        0.20000000298023224
      ],
      "min": [
        0.0,
        -3.308722450212111e-24,
        0.0
      ],
      "type": "VEC3"
    }
  ],
  "animations": [
    {
      "channels": [
        {
          "sampler": 0,
          "target": {
            "node": 8,
            "path": "translation"
          }
        }
      ],
      "name": "DockingArms",
      "samplers": [
        {
          "input": 131,
          "interpolation": "LINEAR",
          "output": 132
        }
      ]
    }
  ],
  "asset": {
    "extras": {
      "author": "Daniel (https://sketchfab.com/DanielAndersson)",
      "license": "CC-BY-4.0 (http://creativecommons.org/licenses/by/4.0/)",
      "source": "https://sketchfab.com/3d-models/star-wars-gozanti-class-cruiser-6a587e545b1c48bea95480b49458ac63",
      "title": "Star Wars: Gozanti-Class Cruiser"
    },
    "generator": "Sketchfab-12.67.0",
    "version": "2.0"
  },
  "bufferViews": [
    {
      "buffer": 0,
      "byteLength": 39296,
      "byteStride": 8,
      "name": "shortBufferViews",
      "target": 34962
    },
    {
      "buffer": 0,
      "byteLength": 704376,
      "byteOffset": 39296,
      "name": "floatBufferViews",
      "target": 34963
    },
    {
      "buffer": 0,
      "byteLength": 657328,
      "byteOffset": 743672,
      "byteStride": 8,
      "name": "floatBufferViews",
      "target": 34962
    },
    {
      "buffer": 0,
      "byteLength": 1971984,
      "byteOffset": 1401000,
      "byteStride": 12,
      "name": "floatBufferViews",
      "target": 34962
    },
    {
      "buffer": 0,
      "byteLength": 1371488,
      "byteOffset": 3372984,
      "byteStride": 16,
      "name": "floatBufferViews",
      "target": 34962
    },
    {
      "buffer": 0,
      "byteLength": 192,
      "byteOffset": 4744472,
      "name": "floatBufferViews"
    },
    {
      "buffer": 0,
      "byteLength": 592,
      "byteOffset": 4744664,
      "name": "floatBufferViews"
    },
    {
      "buffer": 0,
      "byteLength": 1776,
      "byteOffset": 4745256,
      "byteStride": 12,
      "name": "floatBufferViews"
    }
  ],
  "buffers": [
    {
      "byteLength": 4747032,
      "uri": "scene.bin"
    }
  ],
  "images": [
    {
      "uri": "textures/ScratchedMetalDark_baseColor.jpeg"
    },
    {
      "uri": "textures/ScratchedMetalDark_normal.png"
    }
  ],
  "materials": [
    {
      "doubleSided": true,
      "name": "ScratchedMetalDark",
      "normalTexture": {
        "index": 1
      },
      "pbrMetallicRoughness": {
        "baseColorFactor": [
          0.6,
          0.6,
          0.6,
          1.0
        ],
        "baseColorTexture": {
          "index": 0
        },
        "roughnessFactor": 0.6
      }
    },
    {
      "doubleSided": true,
      "name": "Dark",
      "pbrMetallicRoughness": {
        "baseColorFactor": [
          0.0,
          0.0,
          0.0,
          1.0
        ],
        "metallicFactor": 0.0,
        "roughnessFactor": 0.9577051495
      }
    },
    {
      "doubleSided": true,
      "name": "ScratchedMetal",
      "normalTexture": {
        "index": 1
      },
      "pbrMetallicRoughness": {
        "baseColorTexture": {
          "index": 0
        },
        "roughnessFactor": 0.6
      }
    },
    {
      "doubleSided": true,
      "emissiveFactor": [
        1.0,
        1.0,
        1.0
      ],
      "name": "WhiteLight",
      "pbrMetallicRoughness": {
        "baseColorFactor": [
          0.8,
          0.8,
          0.8,
          1.0
        ],
        "metallicFactor": 0.0,
        "roughnessFactor": 0.9577051495
      }
    },
    {
      "doubleSided": true,
      "name": "ReflectiveGlass",
      "pbrMetallicRoughness": {
        "baseColorFactor": [
          0.0,
          0.0,
          0.0,
          1.0
        ],
        "metallicFactor": 0.0,
        "roughnessFactor": 0.3
      }
    },
    {
      "doubleSided": true,
      "name": "BlueEngineGlow",
      "pbrMetallicRoughness": {
        "baseColorFactor": [
          0.0085681256,
          0.0,
          1.0,
          1.0
        ],
        "metallicFactor": 0.5,
        "roughnessFactor": 0.6
      }
    }
  ],
  "meshes": [
    {
      "name": "DockExtender_ScratchedMetalDark_0",
      "primitives": [
        {
          "attributes": {
            "JOINTS_0": 127,
            "NORMAL": 1,
            "POSITION": 0,
            "TANGENT": 2,
            "TEXCOORD_0": 3,
            "WEIGHTS_0": 128
          },
          "indices": 4,
          "material": 0,
          "mode": 4
        }
      ]
    },
    {
      "name": "DockExtender_Dark_0",
      "primitives": [
        {
          "attributes": {
            "JOINTS_0": 129,
            "NORMAL": 6,
            "POSITION": 5,
            "TEXCOORD_0": 7,
            "WEIGHTS_0": 130
          },
          "indices": 8,
          "material": 1,
          "mode": 4
        }
      ]
    },
    {
      "name": "SatteliteDishHolder_ScratchedMetalDark_0",
      "primitives": [
        {
          "attributes": {
            "NORMAL": 10,
            "POSITION": 9,
            "TANGENT": 11,
            "TEXCOORD_0": 12
          },
          "indices": 13,
          "material": 0,
          "mode": 4
        }
      ]
    },
    {
      "name": "SatteliteDish_ScratchedMetalDark_0",
      "primitives": [
        {
          "attributes": {
            "NORMAL": 15,
            "POSITION": 14,
            "TANGENT": 16,
            "TEXCOORD_0": 17
          },
          "indices": 18,
          "material": 0,
          "mode": 4
        }
      ]
    },
    {
      "name": "HullPlate2_ScratchedMetal_0",
      "primitives": [
        {
          "attributes": {
            "NORMAL": 20,
            "POSITION": 19,
            "TANGENT": 21,
            "TEXCOORD_0": 22
          },
          "indices": 23,
          "material": 2,
          "mode": 4
        }
      ]
    },
    {
      "name": "HullPlate2_ScratchedMetalDark_0",
      "primitives": [
        {
          "attributes": {
            "NORMAL": 25,
            "POSITION": 24,
            "TANGENT": 26,
            "TEXCOORD_0": 27
          },
          "indices": 28,
          "material": 0,
          "mode": 4
        }
      ]
    },
    {
      "name": "DockHolder_ScratchedMetalDark_0",
      "primitives": [
        {
          "attributes": {
            "NORMAL": 30,
            "POSITION": 29,
            "TANGENT": 31,
            "TEXCOORD_0": 32
          },
          "indices": 33,
          "material": 0,
          "mode": 4
        }
      ]
    },
    {
      "name": "Greebles1_ScratchedMetalDark_0",
      "primitives": [
        {
          "attributes": {
            "NORMAL": 35,
            "POSITION": 34,
            "TANGENT": 36,
            "TEXCOORD_0": 37
          },
          "indices": 38,
          "material": 0,
          "mode": 4
        }
      ]
    },
    {
      "name": "Greebles1_WhiteLight_0",
      "primitives": [
        {
          "attributes": {
            "NORMAL": 40,
            "POSITION": 39,
            "TEXCOORD_0": 41
          },
          "indices": 42,
          "material": 3,
          "mode": 4
        }
      ]
    },
    {
      "name": "Greebles2_ScratchedMetalDark_0",
      "primitives": [
        {
          "attributes": {
            "NORMAL": 44,
            "POSITION": 43,
            "TANGENT": 45,
            "TEXCOORD_0": 46
          },
          "indices": 47,
          "material": 0,
          "mode": 4
        }
      ]
    },
    {
      "name": "HullPlate1_ScratchedMetal_0",
      "primitives": [
        {
          "attributes": {
            "NORMAL": 49,
            "POSITION": 48,
            "TANGENT": 50,
            "TEXCOORD_0": 51
          },
          "indices": 52,
          "material": 2,
          "mode": 4
        }
      ]
    },
    {
      "name": "HullPlate1_ScratchedMetalDark_0",
      "primitives": [
        {
          "attributes": {
            "NORMAL": 54,
            "POSITION": 53,
            "TANGENT": 55,
            "TEXCOORD_0": 56
          },
          "indices": 57,
          "material": 0,
          "mode": 4
        }
      ]
    },
    {
      "name": "MainHull_ScratchedMetal_0",
      "primitives": [
        {
          "attributes": {
            "NORMAL": 59,
            "POSITION": 58,
            "TANGENT": 60,
            "TEXCOORD_0": 61
          },
          "indices": 62,
          "material": 2,
          "mode": 4
        }
      ]
    },
    {
      "name": "MainHull_ReflectiveGlass_0",
      "primitives": [
        {
          "attributes": {
            "NORMAL": 64,
            "POSITION": 63,
            "TEXCOORD_0": 65
          },
          "indices": 66,
          "material": 4,
          "mode": 4
        }
      ]
    },
    {
      "name": "MainHull_ScratchedMetalDark_0",
      "primitives": [
        {
          "attributes": {
            "NORMAL": 68,
            "POSITION": 67,
            "TANGENT": 69,
            "TEXCOORD_0": 70
          },
          "indices": 71,
          "material": 0,
          "mode": 4
        }
      ]
    },
    {
      "name": "MainHull_BlueEngineGlow_0",
      "primitives": [
        {
          "attributes": {
            "NORMAL": 73,
            "POSITION": 72,
            "TEXCOORD_0": 74
          },
          "indices": 75,
          "material": 5,
          "mode": 4
        }
      ]
    },
    {
      "name": "MainHull_Dark_0",
      "primitives": [
        {
          "attributes": {
            "NORMAL": 77,
            "POSITION": 76,
            "TEXCOORD_0": 78
          },
          "indices": 79,
          "material": 1,
          "mode": 4
        }
      ]
    },
    {
      "name": "LowerCanonTower_ScratchedMetalDark_0",
      "primitives": [
        {
          "attributes": {
            "NORMAL": 81,
            "POSITION": 80,
            "TANGENT": 82,
            "TEXCOORD_0": 83
          },
          "indices": 84,
          "material": 0,
          "mode": 4
        }
      ]
    },
    {
      "name": "LowerCanonTower_Dark_0",
      "primitives": [
        {
          "attributes": {
            "NORMAL": 86,
            "POSITION": 85,
            "TEXCOORD_0": 87
          },
          "indices": 88,
          "material": 1,
          "mode": 4
        }
      ]
    },
    {
      "name": "LowerCanonTower_ScratchedMetal_0",
      "primitives": [
        {
          "attributes": {
            "NORMAL": 90,
            "POSITION": 89,
            "TANGENT": 91,
            "TEXCOORD_0": 92
          },
          "indices": 93,
          "material": 2,
          "mode": 4
        }
      ]
    },
    {
      "name": "LowerCannon_ScratchedMetal_0",
      "primitives": [
        {
          "attributes": {
            "NORMAL": 95,
            "POSITION": 94,
            "TANGENT": 96,
            "TEXCOORD_0": 97
          },
          "indices": 98,
          "material": 2,
          "mode": 4
        }
      ]
    },
    {
      "name": "LowerCannon_Dark_0",
      "primitives": [
        {
          "attributes": {
            "NORMAL": 100,
            "POSITION": 99,
            "TEXCOORD_0": 101
          },
          "indices": 102,
          "material": 1,
          "mode": 4
        }
      ]
    },
    {
      "name": "UpperCanonTower_ScratchedMetalDark_0",
      "primitives": [
        {
          "attributes": {
            "NORMAL": 104,
            "POSITION": 103,
            "TANGENT": 105,
            "TEXCOORD_0": 106
          },
          "indices": 107,
          "material": 0,
          "mode": 4
        }
      ]
    },
    {
      "name": "UpperCanonTower_Dark_0",
      "primitives": [
        {
          "attributes": {
            "NORMAL": 109,
            "POSITION": 108,
            "TEXCOORD_0": 110
          },
          "indices": 111,
          "material": 1,
          "mode": 4
        }
      ]
    },
    {
      "name": "UpperCanonTower_ScratchedMetal_0",
      "primitives": [
        {
          "attributes": {
            "NORMAL": 113,
            "POSITION": 112,
            "TANGENT": 114,
            "TEXCOORD_0": 115
          },
          "indices": 116,
          "material": 2,
          "mode": 4
        }
      ]
    },
    {
      "name": "UpperCannon_ScratchedMetal_0",
      "primitives": [
        {
          "attributes": {
            "NORMAL": 118,
            "POSITION": 117,
            "TANGENT": 119,
            "TEXCOORD_0": 120
          },
          "indices": 121,
          "material": 2,
          "mode": 4
        }
      ]
    },
    {
      "name": "UpperCannon_Dark_0",
      "primitives": [
        {
          "attributes": {
            "NORMAL": 123,
            "POSITION": 122,
            "TEXCOORD_0": 124
          },
          "indices": 125,
          "material": 1,
          "mode": 4
        }
      ]
    }
  ],
  "nodes": [
    {
      "children": [
        1
      ],
      "matrix": [
        0.10000000149011612,
        0.0,
        0.0,
        0.0,
        0.0,
        2.2204460823375376e-17,
        -0.10000000149011612,
        0.0,
        0.0,
        0.10000000149011612,
        2.2204460823375376e-17,
        0.0,
        0.0,
        0.0,
        0.0,
        1.0
      ],
      "name": "Sketchfab_model"
    },
    {
      "children": [
        2
      ],
      "matrix": [
        1.0,
        0.0,
        0.0,
        0.0,
        0.0,
        0.0,
        1.0,
        0.0,
        0.0,
        -1.0,
        0.0,
        0.0,
        0.0,
        0.0,
        0.0,
        1.0
      ],
      "name": "425484c40d8e48cc936166bd5e3ddec2.fbx"
    },
    {
      "children": [
        3
      ],
      "name": "Object_2"
    },
    {
      "children": [
        4,
        50
      ],
      "name": "RootNode"
    },
    {
      "children": [
        5,
        13,
        17,
        20,
        22,
        25,
        27,
        30,
        36,
        43
      ],
      "name": "Gazanti Class Cruiser",
      "rotation": [
        -0.7071068286895752,
        0.0,
        0.0,
        0.7071067094802856
      ],
      "scale": [
        100.0,
        100.0,
        100.0
      ]
    },
    {
      "children": [
        6
      ],
      "name": "Armature",
      "rotation": [
        -1.3234889800848443e-23,
        -0.0,
        0.0,
        1.0
      ]
    },
    {
      "children": [
        7,
        11,
        12,
        10
      ],
      "name": "Object_6"
    },
    {
      "children": [
        8
      ],
      "name": "_rootJoint"
    },
    {
      "children": [
        9
      ],
      "name": "DockExtender_00",
      "rotation": [
        0.7071068286895752,
        0.0,
        0.0,
        0.7071067094802856
      ]
    },
    {
      "name": "DockExtender_end_01",
      "translation": [
        0.0,
        1.0,
        0.0
      ]
    },
    {
      "matrix": [
        100.0,
        0.0,
        0.0,
        0.0,
        0.0,
        6.123233995736766e-15,
        -100.0,
        0.0,
        0.0,
        100.0,
        6.123233995736766e-15,
        0.0,
        0.0,
        0.0,
        0.0,
        1.0
      ],
      "name": "Object_10"
    },
    {
      "mesh": 0,
      "name": "Object_11",
      "skin": 0
    },
    {
      "mesh": 1,
      "name": "Object_12",
      "skin": 0
    },
    {
      "children": [
        14,
        15
      ],
      "name": "SatteliteDishHolder",
      "rotation": [
        -1.3234889800848443e-23,
        -0.0,
        0.0,
        1.0
      ]
    },
    {
      "mesh": 2,
      "name": "SatteliteDishHolder_ScratchedMetalDark_0"
    },
    {
      "children": [
        16
      ],
      "name": "SatteliteDish",
      "rotation": [
        -1.3234889800848443e-23,
        -0.0,
        0.0,
        1.0
      ],
      "translation": [
        -0.2545153498649597,
        0.529936671257019,
        0.4390392303466797
      ]
    },
    {
      "mesh": 3,
      "name": "SatteliteDish_ScratchedMetalDark_0"
    },
    {
      "children": [
        18,
        19
      ],
      "name": "HullPlate2",
      "rotation": [
        -1.3234889800848443e-23,
        -0.0,
        0.0,
        1.0
      ]
    },
    {
      "mesh": 4,
      "name": "HullPlate2_ScratchedMetal_0"
    },
    {
      "mesh": 5,
      "name": "HullPlate2_ScratchedMetalDark_0"
    },
    {
      "children": [
        21
      ],
      "name": "DockHolder",
      "rotation": [
        -1.3234889800848443e-23,
        -0.0,
        0.0,
        1.0
      ]
    },
    {
      "mesh": 6,
      "name": "DockHolder_ScratchedMetalDark_0"
    },
    {
      "children": [
        23,
        24
      ],
      "name": "Greebles1",
      "rotation": [
        -1.3234889800848443e-23,
        -0.0,
        0.0,
        1.0
      ],
      "translation": [
        -3.725290298461914e-09,
        -2.384185791015625e-07,
        -7.450580596923828e-09
      ]
    },
    {
      "mesh": 7,
      "name": "Greebles1_ScratchedMetalDark_0"
    },
    {
      "mesh": 8,
      "name": "Greebles1_WhiteLight_0"
    },
    {
      "children": [
        26
      ],
      "name": "Greebles2",
      "rotation": [
        -1.3234889800848443e-23,
        -0.0,
        0.0,
        1.0
      ]
    },
    {
      "mesh": 9,
      "name": "Greebles2_ScratchedMetalDark_0"
    },
    {
      "children": [
        28,
        29
      ],
      "name": "HullPlate1",
      "rotation": [
        -1.3234889800848443e-23,
        -0.0,
        0.0,
        1.0
      ]
    },
    {
      "mesh": 10,
      "name": "HullPlate1_ScratchedMetal_0"
    },
    {
      "mesh": 11,
      "name": "HullPlate1_ScratchedMetalDark_0"
    },
    {
      "children": [
        31,
        32,
        33,
        34,
        35
      ],
      "name": "MainHull",
      "rotation": [
        -1.3234889800848443e-23,
        -0.0,
        0.0,
        1.0
      ]
    },
    {
      "mesh": 12,
      "name": "MainHull_ScratchedMetal_0"
    },
    {
      "mesh": 13,
      "name": "MainHull_ReflectiveGlass_0"
    },
    {
      "mesh": 14,
      "name": "MainHull_ScratchedMetalDark_0"
    },
    {
      "mesh": 15,
      "name": "MainHull_BlueEngineGlow_0"
    },
    {
      "mesh": 16,
      "name": "MainHull_Dark_0"
    },
    {
      "children": [
        37,
        38,
        39,
        40
      ],
      "name": "LowerCanonTower",
      "rotation": [
        -1.3234889800848443e-23,
        -0.0,
        0.0,
        1.0
      ],
      "translation": [
        5.451645246346004e-10,
        1.5672922134399414,
        0.19751280546188354
      ]
    },
    {
      "mesh": 17,
      "name": "LowerCanonTower_ScratchedMetalDark_0"
    },
    {
      "mesh": 18,
      "name": "LowerCanonTower_Dark_0"
    },
    {
      "mesh": 19,
      "name": "LowerCanonTower_ScratchedMetal_0"
    },
    {
      "children": [
        41,
        42
      ],
      "name": "LowerCannon",
      "rotation": [
        -1.3234889800848443e-23,
        2.7550648847397363e-40,
        6.938893903907228e-18,
        1.0
      ],
      "translation": [
        -7.450580596923828e-09,
        0.0,
        -0.5367589592933655
      ]
    },
    {
      "mesh": 20,
      "name": "LowerCannon_ScratchedMetal_0"
    },
    {
      "mesh": 21,
      "name": "LowerCannon_Dark_0"
    },
    {
      "children": [
        44,
        45,
        46,
        47
      ],
      "name": "UpperCanonTower",
      "rotation": [
        -1.3234889800848443e-23,
        -0.0,
        0.0,
        1.0
      ],
      "translation": [
        5.451645246346004e-10,
        1.5672922134399414,
        0.19751280546188354
      ]
    },
    {
      "mesh": 22,
      "name": "UpperCanonTower_ScratchedMetalDark_0"
    },
    {
      "mesh": 23,
      "name": "UpperCanonTower_Dark_0"
    },
    {
      "mesh": 24,
      "name": "UpperCanonTower_ScratchedMetal_0"
    },
    {
      "children": [
        48,
        49
      ],
      "name": "UpperCannon",
      "rotation": [
        -1.3234889800848443e-23,
        2.7550648847397363e-40,
        6.938893903907228e-18,
        1.0
      ],
      "translation": [
        -7.450580596923828e-09,
        0.0,
        0.5367590188980103
      ]
    },
    {
      "mesh": 25,
      "name": "UpperCannon_ScratchedMetal_0"
    },
    {
      "mesh": 26,
      "name": "UpperCannon_Dark_0"
    },
    {
      "name": "DockExtender",
      "rotation": [
        -0.7071068286895752,
        0.0,
        0.0,
        0.7071067094802856
      ],
      "scale": [
        100.0,
        100.0,
        100.0
      ]
    }
  ],
  "samplers": [
    {
      "magFilter": 9729,
      "minFilter": 9987,
      "wrapS": 10497,
      "wrapT": 10497
    }
  ],
  "scene": 0,
  "scenes": [
    {
      "name": "Sketchfab_Scene",
      "nodes": [
        0
      ]
    }
  ],
  "skins": [
    {
      "inverseBindMatrices": 126,
      "joints": [
        7,
        8,
        9
      ],
      "skeleton": 7
    }
  ],
  "textures": [
    {
      "sampler": 0,
      "source": 0
    },
    {
      "sampler": 0,
      "source": 1
    }
  ]
}
